G04*
G04 #@! TF.GenerationSoftware,Altium Limited,Altium Designer,20.0.13 (296)*
G04*
G04 Layer_Color=8388736*
%FSLAX24Y24*%
%MOIN*%
G70*
G01*
G75*
%ADD14C,0.0100*%
%ADD17C,0.0080*%
%ADD18C,0.0060*%
%ADD19C,0.0039*%
%ADD29R,0.0552X0.0789*%
%ADD30R,0.1340X0.0710*%
%ADD31R,0.0867X0.1025*%
%ADD32R,0.0659X0.0537*%
%ADD33R,0.0537X0.0659*%
%ADD34R,0.0828X0.0663*%
%ADD35O,0.0749X0.0150*%
%ADD36O,0.0150X0.0749*%
%ADD37R,0.0867X0.0474*%
%ADD38C,0.0671*%
%ADD39C,0.1458*%
%ADD40C,0.0277*%
D14*
X23622Y-850D02*
Y-140D01*
X0Y-850D02*
Y-140D01*
X13161Y-750D02*
X23622D01*
X0D02*
X10141D01*
X23022Y-550D02*
X23622Y-750D01*
X23022Y-950D02*
X23622Y-750D01*
X0D02*
X600Y-950D01*
X0Y-750D02*
X600Y-550D01*
X-850Y19700D02*
X-140D01*
X-850Y-0D02*
X-140D01*
X-750Y11200D02*
Y19700D01*
Y-0D02*
Y8180D01*
X-950Y19100D02*
X-750Y19700D01*
X-550Y19100D01*
X-750Y-0D02*
X-550Y600D01*
X-950D02*
X-750Y-0D01*
D17*
X23650Y18144D02*
Y19700D01*
X0D02*
X23650D01*
Y-0D02*
Y18144D01*
X0Y-0D02*
X23622D01*
X0D02*
Y19700D01*
X14306Y6944D02*
Y12456D01*
X8794Y6944D02*
Y12456D01*
Y6944D02*
X14306D01*
X8794Y12456D02*
X14306D01*
D18*
X10701Y-510D02*
X10501Y-610D01*
X10301Y-810D01*
Y-1010D01*
X10401Y-1110D01*
X10601D01*
X10701Y-1010D01*
Y-910D01*
X10601Y-810D01*
X10301D01*
X10901Y-610D02*
X11001Y-510D01*
X11201D01*
X11301Y-610D01*
Y-1010D01*
X11201Y-1110D01*
X11001D01*
X10901Y-1010D01*
Y-610D01*
X11501Y-1110D02*
Y-1010D01*
X11601D01*
Y-1110D01*
X11501D01*
X12001Y-610D02*
X12101Y-510D01*
X12301D01*
X12401Y-610D01*
Y-1010D01*
X12301Y-1110D01*
X12101D01*
X12001Y-1010D01*
Y-610D01*
X12601D02*
X12701Y-510D01*
X12901D01*
X13001Y-610D01*
Y-1010D01*
X12901Y-1110D01*
X12701D01*
X12601Y-1010D01*
Y-610D01*
X-990Y8740D02*
Y8340D01*
X-690D01*
X-790Y8540D01*
Y8640D01*
X-690Y8740D01*
X-490D01*
X-390Y8640D01*
Y8440D01*
X-490Y8340D01*
X-890Y8940D02*
X-990Y9040D01*
Y9240D01*
X-890Y9340D01*
X-490D01*
X-390Y9240D01*
Y9040D01*
X-490Y8940D01*
X-890D01*
X-390Y9540D02*
X-490D01*
Y9640D01*
X-390D01*
Y9540D01*
X-890Y10040D02*
X-990Y10140D01*
Y10340D01*
X-890Y10440D01*
X-490D01*
X-390Y10340D01*
Y10140D01*
X-490Y10040D01*
X-890D01*
X-390Y10940D02*
X-990D01*
X-690Y10640D01*
Y11040D01*
D19*
X14148Y7298D02*
G03*
X14148Y7298I-197J0D01*
G01*
D29*
X5890Y5799D02*
D03*
X4984D02*
D03*
X4079D02*
D03*
D30*
X4984Y3437D02*
D03*
D31*
X18975Y9878D02*
D03*
X20550D02*
D03*
D32*
X1693Y15112D02*
D03*
Y15812D02*
D03*
X6650Y8051D02*
D03*
Y7350D02*
D03*
X16900Y10250D02*
D03*
Y10951D02*
D03*
Y8011D02*
D03*
Y8711D02*
D03*
X19000Y7173D02*
D03*
Y6472D02*
D03*
X20536Y6483D02*
D03*
Y7184D02*
D03*
X18950Y11918D02*
D03*
Y12619D02*
D03*
X20536Y11899D02*
D03*
Y12600D02*
D03*
X16900Y13001D02*
D03*
Y12300D02*
D03*
Y14328D02*
D03*
Y15028D02*
D03*
X18950Y15028D02*
D03*
Y14328D02*
D03*
X20536Y14328D02*
D03*
Y15028D02*
D03*
X19659Y3690D02*
D03*
Y4391D02*
D03*
X17983Y3690D02*
D03*
Y4391D02*
D03*
X14800Y4106D02*
D03*
Y4806D02*
D03*
X8699Y5385D02*
D03*
Y4684D02*
D03*
X12100Y4400D02*
D03*
Y3699D02*
D03*
X6645Y12650D02*
D03*
Y13350D02*
D03*
D33*
X4351Y10397D02*
D03*
X3650D02*
D03*
Y8913D02*
D03*
X4351D02*
D03*
X9332Y15804D02*
D03*
X10032D02*
D03*
X9309Y14792D02*
D03*
X10010D02*
D03*
X8214Y13600D02*
D03*
X8915D02*
D03*
X2308Y6026D02*
D03*
X3009D02*
D03*
X2300Y4950D02*
D03*
X1599D02*
D03*
X2300Y3365D02*
D03*
X1599D02*
D03*
D34*
X15319Y13997D02*
D03*
Y15571D02*
D03*
X16292Y4787D02*
D03*
Y3213D02*
D03*
D35*
X14522Y7338D02*
D03*
Y7535D02*
D03*
Y7732D02*
D03*
Y7928D02*
D03*
Y8125D02*
D03*
Y8322D02*
D03*
Y8519D02*
D03*
Y8716D02*
D03*
Y8913D02*
D03*
Y9109D02*
D03*
Y9306D02*
D03*
Y9503D02*
D03*
Y9700D02*
D03*
Y9897D02*
D03*
Y10094D02*
D03*
Y10291D02*
D03*
Y10487D02*
D03*
Y10684D02*
D03*
Y10881D02*
D03*
Y11078D02*
D03*
Y11275D02*
D03*
Y11472D02*
D03*
Y11669D02*
D03*
Y11865D02*
D03*
Y12062D02*
D03*
X8578D02*
D03*
Y11865D02*
D03*
Y11669D02*
D03*
Y11472D02*
D03*
Y11275D02*
D03*
Y11078D02*
D03*
Y10881D02*
D03*
Y10684D02*
D03*
Y10487D02*
D03*
Y10291D02*
D03*
Y10094D02*
D03*
Y9897D02*
D03*
Y9700D02*
D03*
Y9503D02*
D03*
Y9306D02*
D03*
Y9109D02*
D03*
Y8913D02*
D03*
Y8716D02*
D03*
Y8519D02*
D03*
Y8322D02*
D03*
Y8125D02*
D03*
Y7928D02*
D03*
Y7732D02*
D03*
Y7535D02*
D03*
Y7338D02*
D03*
D36*
X13912Y12672D02*
D03*
X13715D02*
D03*
X13519D02*
D03*
X13322D02*
D03*
X13125D02*
D03*
X12928D02*
D03*
X12731D02*
D03*
X12534D02*
D03*
X12337D02*
D03*
X12141D02*
D03*
X11944D02*
D03*
X11747D02*
D03*
X11550D02*
D03*
X11353D02*
D03*
X11156D02*
D03*
X10959D02*
D03*
X10763D02*
D03*
X10566D02*
D03*
X10369D02*
D03*
X10172D02*
D03*
X9975D02*
D03*
X9778D02*
D03*
X9582D02*
D03*
X9385D02*
D03*
X9188D02*
D03*
Y6728D02*
D03*
X9385D02*
D03*
X9582D02*
D03*
X9778D02*
D03*
X9975D02*
D03*
X10172D02*
D03*
X10369D02*
D03*
X10566D02*
D03*
X10763D02*
D03*
X10959D02*
D03*
X11156D02*
D03*
X11353D02*
D03*
X11550D02*
D03*
X11747D02*
D03*
X11944D02*
D03*
X12141D02*
D03*
X12337D02*
D03*
X12534D02*
D03*
X12731D02*
D03*
X12928D02*
D03*
X13125D02*
D03*
X13322D02*
D03*
X13519D02*
D03*
X13715D02*
D03*
X13912D02*
D03*
D37*
X4341Y14780D02*
D03*
Y15780D02*
D03*
X7884D02*
D03*
Y14780D02*
D03*
D38*
X23100Y13350D02*
D03*
Y12350D02*
D03*
Y11350D02*
D03*
Y10350D02*
D03*
X23100Y3600D02*
D03*
Y4600D02*
D03*
Y5600D02*
D03*
Y6600D02*
D03*
Y7600D02*
D03*
Y8600D02*
D03*
X3450Y1484D02*
D03*
X2450Y484D02*
D03*
Y1484D02*
D03*
X3450Y484D02*
D03*
X4450D02*
D03*
Y1484D02*
D03*
X5450Y484D02*
D03*
Y1484D02*
D03*
X6450Y484D02*
D03*
Y1484D02*
D03*
X7450Y484D02*
D03*
Y1484D02*
D03*
X8450Y484D02*
D03*
Y1484D02*
D03*
X9450Y484D02*
D03*
Y1484D02*
D03*
X10450Y484D02*
D03*
Y1484D02*
D03*
X11450Y484D02*
D03*
Y1484D02*
D03*
X12450Y484D02*
D03*
Y1484D02*
D03*
X13450Y484D02*
D03*
Y1484D02*
D03*
X14450Y484D02*
D03*
Y1484D02*
D03*
X15450Y484D02*
D03*
Y1484D02*
D03*
X16450Y484D02*
D03*
Y1484D02*
D03*
X17450Y484D02*
D03*
Y1484D02*
D03*
X18450Y484D02*
D03*
Y1484D02*
D03*
X19450Y484D02*
D03*
Y1484D02*
D03*
X20450Y484D02*
D03*
Y1484D02*
D03*
X21450Y484D02*
D03*
Y1484D02*
D03*
X484Y12150D02*
D03*
X1484Y13150D02*
D03*
Y12150D02*
D03*
X484Y13150D02*
D03*
X1484Y7350D02*
D03*
X484D02*
D03*
X1484Y8350D02*
D03*
X484D02*
D03*
Y9350D02*
D03*
X1484Y10350D02*
D03*
X484D02*
D03*
X1484Y9350D02*
D03*
X3450Y19216D02*
D03*
X2450Y18216D02*
D03*
Y19216D02*
D03*
X3450Y18216D02*
D03*
X4450D02*
D03*
Y19216D02*
D03*
X5450Y18216D02*
D03*
Y19216D02*
D03*
X6450Y18216D02*
D03*
Y19216D02*
D03*
X7450Y18216D02*
D03*
Y19216D02*
D03*
X8450Y18216D02*
D03*
Y19216D02*
D03*
X9450Y18216D02*
D03*
Y19216D02*
D03*
X10450Y18216D02*
D03*
Y19216D02*
D03*
X11450Y18216D02*
D03*
Y19216D02*
D03*
X12450Y18216D02*
D03*
Y19216D02*
D03*
X13450Y18216D02*
D03*
Y19216D02*
D03*
X14450Y18216D02*
D03*
Y19216D02*
D03*
X15450Y18216D02*
D03*
Y19216D02*
D03*
X16450Y18216D02*
D03*
Y19216D02*
D03*
X17450Y18216D02*
D03*
Y19216D02*
D03*
X18450Y18216D02*
D03*
Y19216D02*
D03*
X19450Y18216D02*
D03*
Y19216D02*
D03*
X20450Y18216D02*
D03*
Y19216D02*
D03*
X21450Y18216D02*
D03*
Y19216D02*
D03*
D39*
X22863Y18898D02*
D03*
X787D02*
D03*
X22863Y787D02*
D03*
X787D02*
D03*
D40*
X21450Y6809D02*
D03*
X20745Y8981D02*
D03*
X20000Y8400D02*
D03*
X15764Y8629D02*
D03*
X15155Y8600D02*
D03*
X15588Y10706D02*
D03*
X17875Y16268D02*
D03*
X3350Y7338D02*
D03*
X4659Y2239D02*
D03*
X4351Y6288D02*
D03*
M02*
