G04*
G04 #@! TF.GenerationSoftware,Altium Limited,Altium Designer,20.0.13 (296)*
G04*
G04 Layer_Physical_Order=2*
G04 Layer_Color=16711680*
%FSLAX24Y24*%
%MOIN*%
G70*
G01*
G75*
%ADD14C,0.0100*%
%ADD17C,0.0080*%
%ADD18C,0.0060*%
%ADD19C,0.0039*%
%ADD41C,0.0150*%
%ADD42C,0.0591*%
%ADD43C,0.1378*%
%ADD44C,0.0197*%
%ADD45C,0.0236*%
G36*
X22716Y19636D02*
X22575Y19593D01*
X22444Y19523D01*
X22330Y19430D01*
X22237Y19316D01*
X22167Y19186D01*
X22124Y19044D01*
X22110Y18898D01*
X22124Y18751D01*
X22167Y18610D01*
X22237Y18480D01*
X22330Y18365D01*
X22444Y18272D01*
X22575Y18202D01*
X22716Y18160D01*
X22863Y18145D01*
X23009Y18160D01*
X23151Y18202D01*
X23281Y18272D01*
X23395Y18365D01*
X23488Y18480D01*
X23558Y18610D01*
X23601Y18751D01*
X23650Y18745D01*
Y940D01*
X23601Y934D01*
X23558Y1075D01*
X23488Y1206D01*
X23395Y1320D01*
X23281Y1413D01*
X23151Y1483D01*
X23009Y1526D01*
X22863Y1540D01*
X22716Y1526D01*
X22575Y1483D01*
X22444Y1413D01*
X22330Y1320D01*
X22237Y1206D01*
X22167Y1075D01*
X22124Y934D01*
X22110Y787D01*
X22124Y641D01*
X22167Y499D01*
X22237Y369D01*
X22330Y255D01*
X22444Y162D01*
X22575Y92D01*
X22716Y49D01*
X22710Y0D01*
X940D01*
X934Y49D01*
X1075Y92D01*
X1206Y162D01*
X1320Y255D01*
X1413Y369D01*
X1483Y499D01*
X1526Y641D01*
X1540Y787D01*
X1526Y934D01*
X1483Y1075D01*
X1413Y1206D01*
X1320Y1320D01*
X1206Y1413D01*
X1075Y1483D01*
X934Y1526D01*
X787Y1540D01*
X641Y1526D01*
X499Y1483D01*
X369Y1413D01*
X255Y1320D01*
X162Y1206D01*
X92Y1075D01*
X49Y934D01*
X-0Y940D01*
Y18745D01*
X49Y18751D01*
X92Y18610D01*
X162Y18480D01*
X255Y18365D01*
X369Y18272D01*
X499Y18202D01*
X641Y18160D01*
X787Y18145D01*
X934Y18160D01*
X1075Y18202D01*
X1206Y18272D01*
X1320Y18365D01*
X1413Y18480D01*
X1483Y18610D01*
X1526Y18751D01*
X1540Y18898D01*
X1526Y19044D01*
X1483Y19186D01*
X1413Y19316D01*
X1320Y19430D01*
X1206Y19523D01*
X1075Y19593D01*
X934Y19636D01*
X940Y19685D01*
X22710Y19685D01*
X22716Y19636D01*
D02*
G37*
%LPC*%
G36*
X21450Y19574D02*
X21357Y19562D01*
X21271Y19526D01*
X21197Y19469D01*
X21140Y19395D01*
X21104Y19309D01*
X21092Y19216D01*
X21104Y19123D01*
X21140Y19037D01*
X21197Y18962D01*
X21271Y18905D01*
X21357Y18870D01*
X21450Y18857D01*
X21543Y18870D01*
X21629Y18905D01*
X21703Y18962D01*
X21760Y19037D01*
X21796Y19123D01*
X21808Y19216D01*
X21796Y19309D01*
X21760Y19395D01*
X21703Y19469D01*
X21629Y19526D01*
X21543Y19562D01*
X21450Y19574D01*
D02*
G37*
G36*
X17450D02*
X17357Y19562D01*
X17271Y19526D01*
X17197Y19469D01*
X17140Y19395D01*
X17104Y19309D01*
X17092Y19216D01*
X17104Y19123D01*
X17140Y19037D01*
X17197Y18962D01*
X17271Y18905D01*
X17357Y18870D01*
X17450Y18857D01*
X17543Y18870D01*
X17629Y18905D01*
X17703Y18962D01*
X17760Y19037D01*
X17796Y19123D01*
X17808Y19216D01*
X17796Y19309D01*
X17760Y19395D01*
X17703Y19469D01*
X17629Y19526D01*
X17543Y19562D01*
X17450Y19574D01*
D02*
G37*
G36*
X15450D02*
X15357Y19562D01*
X15271Y19526D01*
X15197Y19469D01*
X15140Y19395D01*
X15104Y19309D01*
X15092Y19216D01*
X15104Y19123D01*
X15140Y19037D01*
X15197Y18962D01*
X15271Y18905D01*
X15357Y18870D01*
X15450Y18857D01*
X15543Y18870D01*
X15629Y18905D01*
X15703Y18962D01*
X15760Y19037D01*
X15796Y19123D01*
X15808Y19216D01*
X15796Y19309D01*
X15760Y19395D01*
X15703Y19469D01*
X15629Y19526D01*
X15543Y19562D01*
X15450Y19574D01*
D02*
G37*
G36*
X14450D02*
X14357Y19562D01*
X14271Y19526D01*
X14197Y19469D01*
X14140Y19395D01*
X14104Y19309D01*
X14092Y19216D01*
X14104Y19123D01*
X14140Y19037D01*
X14197Y18962D01*
X14271Y18905D01*
X14357Y18870D01*
X14450Y18857D01*
X14543Y18870D01*
X14629Y18905D01*
X14703Y18962D01*
X14760Y19037D01*
X14796Y19123D01*
X14808Y19216D01*
X14796Y19309D01*
X14760Y19395D01*
X14703Y19469D01*
X14629Y19526D01*
X14543Y19562D01*
X14450Y19574D01*
D02*
G37*
G36*
X13450D02*
X13357Y19562D01*
X13271Y19526D01*
X13197Y19469D01*
X13140Y19395D01*
X13104Y19309D01*
X13092Y19216D01*
X13104Y19123D01*
X13140Y19037D01*
X13197Y18962D01*
X13271Y18905D01*
X13357Y18870D01*
X13450Y18857D01*
X13543Y18870D01*
X13629Y18905D01*
X13703Y18962D01*
X13760Y19037D01*
X13796Y19123D01*
X13808Y19216D01*
X13796Y19309D01*
X13760Y19395D01*
X13703Y19469D01*
X13629Y19526D01*
X13543Y19562D01*
X13450Y19574D01*
D02*
G37*
G36*
X12450D02*
X12357Y19562D01*
X12271Y19526D01*
X12197Y19469D01*
X12140Y19395D01*
X12104Y19309D01*
X12092Y19216D01*
X12104Y19123D01*
X12140Y19037D01*
X12197Y18962D01*
X12271Y18905D01*
X12357Y18870D01*
X12450Y18857D01*
X12543Y18870D01*
X12629Y18905D01*
X12703Y18962D01*
X12760Y19037D01*
X12796Y19123D01*
X12808Y19216D01*
X12796Y19309D01*
X12760Y19395D01*
X12703Y19469D01*
X12629Y19526D01*
X12543Y19562D01*
X12450Y19574D01*
D02*
G37*
G36*
X11450D02*
X11357Y19562D01*
X11271Y19526D01*
X11197Y19469D01*
X11140Y19395D01*
X11104Y19309D01*
X11092Y19216D01*
X11104Y19123D01*
X11140Y19037D01*
X11197Y18962D01*
X11271Y18905D01*
X11357Y18870D01*
X11450Y18857D01*
X11543Y18870D01*
X11629Y18905D01*
X11703Y18962D01*
X11760Y19037D01*
X11796Y19123D01*
X11808Y19216D01*
X11796Y19309D01*
X11760Y19395D01*
X11703Y19469D01*
X11629Y19526D01*
X11543Y19562D01*
X11450Y19574D01*
D02*
G37*
G36*
X10450D02*
X10357Y19562D01*
X10271Y19526D01*
X10197Y19469D01*
X10140Y19395D01*
X10104Y19309D01*
X10092Y19216D01*
X10104Y19123D01*
X10140Y19037D01*
X10197Y18962D01*
X10271Y18905D01*
X10357Y18870D01*
X10450Y18857D01*
X10543Y18870D01*
X10629Y18905D01*
X10703Y18962D01*
X10760Y19037D01*
X10796Y19123D01*
X10808Y19216D01*
X10796Y19309D01*
X10760Y19395D01*
X10703Y19469D01*
X10629Y19526D01*
X10543Y19562D01*
X10450Y19574D01*
D02*
G37*
G36*
X9450D02*
X9357Y19562D01*
X9271Y19526D01*
X9197Y19469D01*
X9140Y19395D01*
X9104Y19309D01*
X9092Y19216D01*
X9104Y19123D01*
X9140Y19037D01*
X9197Y18962D01*
X9271Y18905D01*
X9357Y18870D01*
X9450Y18857D01*
X9543Y18870D01*
X9629Y18905D01*
X9703Y18962D01*
X9760Y19037D01*
X9796Y19123D01*
X9808Y19216D01*
X9796Y19309D01*
X9760Y19395D01*
X9703Y19469D01*
X9629Y19526D01*
X9543Y19562D01*
X9450Y19574D01*
D02*
G37*
G36*
X8450D02*
X8357Y19562D01*
X8271Y19526D01*
X8197Y19469D01*
X8140Y19395D01*
X8104Y19309D01*
X8092Y19216D01*
X8104Y19123D01*
X8140Y19037D01*
X8197Y18962D01*
X8271Y18905D01*
X8357Y18870D01*
X8450Y18857D01*
X8543Y18870D01*
X8629Y18905D01*
X8703Y18962D01*
X8760Y19037D01*
X8796Y19123D01*
X8808Y19216D01*
X8796Y19309D01*
X8760Y19395D01*
X8703Y19469D01*
X8629Y19526D01*
X8543Y19562D01*
X8450Y19574D01*
D02*
G37*
G36*
X7450D02*
X7357Y19562D01*
X7271Y19526D01*
X7197Y19469D01*
X7140Y19395D01*
X7104Y19309D01*
X7092Y19216D01*
X7104Y19123D01*
X7140Y19037D01*
X7197Y18962D01*
X7271Y18905D01*
X7357Y18870D01*
X7450Y18857D01*
X7543Y18870D01*
X7629Y18905D01*
X7703Y18962D01*
X7760Y19037D01*
X7796Y19123D01*
X7808Y19216D01*
X7796Y19309D01*
X7760Y19395D01*
X7703Y19469D01*
X7629Y19526D01*
X7543Y19562D01*
X7450Y19574D01*
D02*
G37*
G36*
X6450D02*
X6357Y19562D01*
X6271Y19526D01*
X6197Y19469D01*
X6140Y19395D01*
X6104Y19309D01*
X6092Y19216D01*
X6104Y19123D01*
X6140Y19037D01*
X6197Y18962D01*
X6271Y18905D01*
X6357Y18870D01*
X6450Y18857D01*
X6543Y18870D01*
X6629Y18905D01*
X6703Y18962D01*
X6760Y19037D01*
X6796Y19123D01*
X6808Y19216D01*
X6796Y19309D01*
X6760Y19395D01*
X6703Y19469D01*
X6629Y19526D01*
X6543Y19562D01*
X6450Y19574D01*
D02*
G37*
G36*
X5450D02*
X5357Y19562D01*
X5271Y19526D01*
X5197Y19469D01*
X5140Y19395D01*
X5104Y19309D01*
X5092Y19216D01*
X5104Y19123D01*
X5140Y19037D01*
X5197Y18962D01*
X5271Y18905D01*
X5357Y18870D01*
X5450Y18857D01*
X5543Y18870D01*
X5629Y18905D01*
X5703Y18962D01*
X5760Y19037D01*
X5796Y19123D01*
X5808Y19216D01*
X5796Y19309D01*
X5760Y19395D01*
X5703Y19469D01*
X5629Y19526D01*
X5543Y19562D01*
X5450Y19574D01*
D02*
G37*
G36*
X4450D02*
X4357Y19562D01*
X4271Y19526D01*
X4197Y19469D01*
X4140Y19395D01*
X4104Y19309D01*
X4092Y19216D01*
X4104Y19123D01*
X4140Y19037D01*
X4197Y18962D01*
X4271Y18905D01*
X4357Y18870D01*
X4450Y18857D01*
X4543Y18870D01*
X4629Y18905D01*
X4703Y18962D01*
X4760Y19037D01*
X4796Y19123D01*
X4808Y19216D01*
X4796Y19309D01*
X4760Y19395D01*
X4703Y19469D01*
X4629Y19526D01*
X4543Y19562D01*
X4450Y19574D01*
D02*
G37*
G36*
X3450D02*
X3357Y19562D01*
X3271Y19526D01*
X3197Y19469D01*
X3140Y19395D01*
X3104Y19309D01*
X3092Y19216D01*
X3104Y19123D01*
X3140Y19037D01*
X3197Y18962D01*
X3271Y18905D01*
X3357Y18870D01*
X3450Y18857D01*
X3543Y18870D01*
X3629Y18905D01*
X3703Y18962D01*
X3760Y19037D01*
X3796Y19123D01*
X3808Y19216D01*
X3796Y19309D01*
X3760Y19395D01*
X3703Y19469D01*
X3629Y19526D01*
X3543Y19562D01*
X3450Y19574D01*
D02*
G37*
G36*
X2450D02*
X2357Y19562D01*
X2271Y19526D01*
X2197Y19469D01*
X2140Y19395D01*
X2104Y19309D01*
X2092Y19216D01*
X2104Y19123D01*
X2140Y19037D01*
X2197Y18962D01*
X2271Y18905D01*
X2357Y18870D01*
X2450Y18857D01*
X2543Y18870D01*
X2629Y18905D01*
X2703Y18962D01*
X2760Y19037D01*
X2796Y19123D01*
X2808Y19216D01*
X2796Y19309D01*
X2760Y19395D01*
X2703Y19469D01*
X2629Y19526D01*
X2543Y19562D01*
X2450Y19574D01*
D02*
G37*
G36*
X20450D02*
X20357Y19562D01*
X20271Y19526D01*
X20197Y19469D01*
X20140Y19395D01*
X20104Y19309D01*
X20092Y19216D01*
X20104Y19123D01*
X20140Y19037D01*
X20197Y18962D01*
X20210Y18952D01*
X20193Y18902D01*
X20150D01*
X20111Y18894D01*
X20078Y18872D01*
X19942Y18736D01*
X19937Y18736D01*
X19891Y18756D01*
X19882Y18800D01*
X19847Y18853D01*
X19794Y18888D01*
X19733Y18900D01*
X19694Y18892D01*
X19673Y18939D01*
X19703Y18962D01*
X19760Y19037D01*
X19796Y19123D01*
X19808Y19216D01*
X19796Y19309D01*
X19760Y19395D01*
X19703Y19469D01*
X19629Y19526D01*
X19543Y19562D01*
X19450Y19574D01*
X19357Y19562D01*
X19271Y19526D01*
X19197Y19469D01*
X19140Y19395D01*
X19104Y19309D01*
X19092Y19216D01*
X19104Y19123D01*
X19140Y19037D01*
X19197Y18962D01*
X19271Y18905D01*
X19307Y18890D01*
X19297Y18840D01*
X18603D01*
X18593Y18890D01*
X18629Y18905D01*
X18703Y18962D01*
X18760Y19037D01*
X18796Y19123D01*
X18808Y19216D01*
X18796Y19309D01*
X18760Y19395D01*
X18703Y19469D01*
X18629Y19526D01*
X18543Y19562D01*
X18450Y19574D01*
X18357Y19562D01*
X18271Y19526D01*
X18197Y19469D01*
X18140Y19395D01*
X18104Y19309D01*
X18092Y19216D01*
X18104Y19123D01*
X18140Y19037D01*
X18197Y18962D01*
X18271Y18905D01*
X18307Y18890D01*
X18297Y18840D01*
X18194D01*
X18155Y18833D01*
X18122Y18811D01*
X17828Y18516D01*
X17806Y18483D01*
X17798Y18444D01*
Y18428D01*
X17748Y18411D01*
X17703Y18469D01*
X17629Y18526D01*
X17543Y18562D01*
X17450Y18574D01*
X17357Y18562D01*
X17271Y18526D01*
X17197Y18469D01*
X17140Y18395D01*
X17118Y18342D01*
X17068Y18352D01*
Y18508D01*
X17071Y18515D01*
X17071Y18523D01*
X17071Y18528D01*
X17072Y18532D01*
X17073Y18536D01*
X17074Y18539D01*
X17075Y18542D01*
X17076Y18544D01*
X17077Y18546D01*
X17079Y18547D01*
X17082Y18551D01*
X17085Y18559D01*
X17115Y18604D01*
X17127Y18666D01*
X17115Y18728D01*
X17080Y18780D01*
X17028Y18815D01*
X16966Y18827D01*
X16904Y18815D01*
X16852Y18780D01*
X16817Y18728D01*
X16804Y18666D01*
X16817Y18604D01*
X16846Y18559D01*
X16849Y18551D01*
X16853Y18547D01*
X16854Y18546D01*
X16855Y18544D01*
X16856Y18542D01*
X16858Y18539D01*
X16859Y18536D01*
X16859Y18532D01*
X16860Y18528D01*
X16861Y18523D01*
X16861Y18515D01*
X16864Y18508D01*
Y17408D01*
X14289Y14833D01*
X14283Y14831D01*
X14277Y14826D01*
X14273Y14822D01*
X14269Y14820D01*
X14266Y14818D01*
X14263Y14816D01*
X14260Y14815D01*
X14258Y14814D01*
X14256Y14814D01*
X14254Y14813D01*
X14249Y14813D01*
X14241Y14810D01*
X14188Y14799D01*
X14136Y14764D01*
X14101Y14712D01*
X14088Y14650D01*
X14101Y14588D01*
X14136Y14536D01*
X14188Y14501D01*
X14250Y14488D01*
X14312Y14501D01*
X14364Y14536D01*
X14399Y14588D01*
X14410Y14641D01*
X14413Y14649D01*
X14413Y14654D01*
X14414Y14656D01*
X14414Y14658D01*
X14415Y14660D01*
X14416Y14663D01*
X14418Y14666D01*
X14420Y14669D01*
X14422Y14673D01*
X14426Y14677D01*
X14431Y14683D01*
X14433Y14689D01*
X17038Y17294D01*
X17060Y17327D01*
X17068Y17366D01*
Y18080D01*
X17118Y18090D01*
X17140Y18037D01*
X17197Y17962D01*
X17271Y17905D01*
X17357Y17870D01*
X17450Y17857D01*
X17543Y17870D01*
X17629Y17905D01*
X17703Y17962D01*
X17748Y18021D01*
X17798Y18004D01*
Y17837D01*
X17361Y17460D01*
X17361Y17460D01*
X17361Y17460D01*
X17359Y17459D01*
X17357Y17455D01*
X17353Y17453D01*
X16634Y16734D01*
X16627Y16731D01*
X16622Y16726D01*
X16611Y16717D01*
X16607Y16715D01*
X16603Y16712D01*
X16599Y16710D01*
X16596Y16708D01*
X16592Y16707D01*
X16589Y16706D01*
X16583Y16704D01*
X16574Y16698D01*
X16558Y16694D01*
X16505Y16659D01*
X16470Y16607D01*
X16458Y16545D01*
X16465Y16510D01*
X16463Y16498D01*
X16463Y16497D01*
X16463Y16497D01*
X16461Y16494D01*
X16459Y16491D01*
X16454Y16486D01*
X16453Y16485D01*
X16453Y16485D01*
X16451Y16478D01*
X13451Y13479D01*
X13397Y13495D01*
X13390Y13527D01*
X13361Y13572D01*
X13358Y13580D01*
X13354Y13584D01*
X13353Y13585D01*
X13352Y13587D01*
X13351Y13589D01*
X13349Y13592D01*
X13348Y13595D01*
X13348Y13599D01*
X13347Y13603D01*
X13346Y13608D01*
X13346Y13616D01*
X13343Y13623D01*
Y14192D01*
X15997Y16846D01*
X16019Y16879D01*
X16027Y16918D01*
Y18648D01*
X16182Y18804D01*
X16188Y18806D01*
X16200Y18815D01*
X16211Y18822D01*
X16226Y18829D01*
X16245Y18836D01*
X16269Y18842D01*
X16297Y18847D01*
X16328Y18851D01*
X16404Y18855D01*
X16447Y18856D01*
X16453Y18858D01*
X16543Y18870D01*
X16629Y18905D01*
X16703Y18962D01*
X16760Y19037D01*
X16796Y19123D01*
X16808Y19216D01*
X16796Y19309D01*
X16760Y19395D01*
X16703Y19469D01*
X16629Y19526D01*
X16543Y19562D01*
X16450Y19574D01*
X16357Y19562D01*
X16271Y19526D01*
X16197Y19469D01*
X16140Y19395D01*
X16104Y19309D01*
X16092Y19218D01*
X16090Y19213D01*
X16090Y19170D01*
X16085Y19094D01*
X16081Y19063D01*
X16076Y19035D01*
X16070Y19011D01*
X16063Y18991D01*
X16056Y18976D01*
X16050Y18965D01*
X16040Y18954D01*
X16038Y18948D01*
X15853Y18763D01*
X15831Y18730D01*
X15823Y18691D01*
Y18375D01*
X15773Y18365D01*
X15760Y18395D01*
X15703Y18469D01*
X15629Y18526D01*
X15543Y18562D01*
X15450Y18574D01*
X15357Y18562D01*
X15271Y18526D01*
X15197Y18469D01*
X15140Y18395D01*
X15104Y18309D01*
X15092Y18216D01*
X15104Y18123D01*
X15140Y18037D01*
X15197Y17962D01*
X15271Y17905D01*
X15357Y17870D01*
X15450Y17857D01*
X15543Y17870D01*
X15629Y17905D01*
X15703Y17962D01*
X15760Y18037D01*
X15773Y18067D01*
X15823Y18057D01*
Y16960D01*
X13169Y14307D01*
X13147Y14274D01*
X13139Y14235D01*
Y13623D01*
X13136Y13616D01*
X13136Y13608D01*
X13136Y13603D01*
X13135Y13599D01*
X13134Y13595D01*
X13133Y13592D01*
X13132Y13589D01*
X13131Y13587D01*
X13130Y13585D01*
X13128Y13584D01*
X13125Y13580D01*
X13122Y13572D01*
X13092Y13527D01*
X13080Y13465D01*
X13092Y13404D01*
X13127Y13351D01*
X13179Y13316D01*
X13241Y13304D01*
X13303Y13316D01*
X13308Y13319D01*
X13358Y13293D01*
Y11477D01*
X13355Y11471D01*
X13355Y11463D01*
X13354Y11458D01*
X13354Y11453D01*
X13353Y11450D01*
X13352Y11446D01*
X13351Y11444D01*
X13350Y11442D01*
X13348Y11440D01*
X13347Y11438D01*
X13344Y11434D01*
X13341Y11426D01*
X13311Y11382D01*
X13299Y11320D01*
X13311Y11258D01*
X13346Y11206D01*
X13398Y11171D01*
X13460Y11158D01*
X13522Y11171D01*
X13574Y11206D01*
X13609Y11258D01*
X13622Y11320D01*
X13609Y11382D01*
X13579Y11426D01*
X13576Y11434D01*
X13573Y11438D01*
X13572Y11440D01*
X13570Y11442D01*
X13569Y11444D01*
X13568Y11446D01*
X13567Y11450D01*
X13566Y11453D01*
X13566Y11458D01*
X13565Y11463D01*
X13565Y11471D01*
X13562Y11477D01*
Y13301D01*
X13728Y13467D01*
X13766Y13435D01*
X13751Y13412D01*
X13738Y13350D01*
X13751Y13288D01*
X13786Y13236D01*
X13838Y13201D01*
X13900Y13188D01*
X13962Y13201D01*
X14005Y13230D01*
X14005Y13230D01*
X14006Y13230D01*
X14009Y13230D01*
X14010Y13231D01*
X14010Y13231D01*
X14012Y13232D01*
X14012Y13232D01*
X14014Y13232D01*
X14018Y13233D01*
X14022Y13234D01*
X14036Y13235D01*
X14045Y13235D01*
X14051Y13238D01*
X14698D01*
X14704Y13235D01*
X14722Y13234D01*
X14728Y13234D01*
X14732Y13233D01*
X14736Y13232D01*
X14738Y13232D01*
X14738Y13232D01*
X14740Y13231D01*
X14740Y13231D01*
X14741Y13230D01*
X14744Y13230D01*
X14745Y13230D01*
X14745Y13230D01*
X14788Y13201D01*
X14850Y13188D01*
X14912Y13201D01*
X14964Y13236D01*
X14999Y13288D01*
X15012Y13350D01*
X14999Y13412D01*
X14964Y13464D01*
X14912Y13499D01*
X14850Y13512D01*
X14788Y13499D01*
X14745Y13470D01*
X14745Y13470D01*
X14744Y13470D01*
X14741Y13470D01*
X14740Y13469D01*
X14740Y13469D01*
X14738Y13468D01*
X14738Y13468D01*
X14736Y13468D01*
X14732Y13467D01*
X14728Y13466D01*
X14714Y13465D01*
X14705Y13465D01*
X14699Y13462D01*
X14052D01*
X14046Y13465D01*
X14028Y13466D01*
X14022Y13466D01*
X14018Y13467D01*
X14014Y13468D01*
X14012Y13468D01*
X14012Y13468D01*
X14010Y13469D01*
X14010Y13469D01*
X14009Y13470D01*
X14006Y13470D01*
X14005Y13470D01*
X14005Y13470D01*
X13962Y13499D01*
X13900Y13512D01*
X13838Y13499D01*
X13815Y13484D01*
X13783Y13522D01*
X15924Y15663D01*
X15959Y15628D01*
X15087Y14733D01*
X15077Y14717D01*
X15066Y14701D01*
X15066Y14700D01*
X15065Y14700D01*
X15062Y14681D01*
X15058Y14662D01*
Y14526D01*
X15066Y14487D01*
X15088Y14454D01*
X15138Y14404D01*
Y12391D01*
X15135Y12385D01*
X15135Y12377D01*
X15134Y12371D01*
X15134Y12367D01*
X15133Y12363D01*
X15132Y12360D01*
X15131Y12358D01*
X15130Y12355D01*
X15128Y12354D01*
X15127Y12352D01*
X15124Y12348D01*
X15121Y12340D01*
X15091Y12295D01*
X15078Y12234D01*
X15091Y12172D01*
X15126Y12119D01*
X15178Y12084D01*
X15240Y12072D01*
X15296Y12083D01*
X15311Y12080D01*
X15346Y12061D01*
Y11924D01*
X13350Y9928D01*
X13328Y9895D01*
X13320Y9856D01*
Y9000D01*
X13328Y8961D01*
X13350Y8928D01*
X13581Y8698D01*
Y8684D01*
X13578Y8678D01*
X13578Y8670D01*
X13577Y8665D01*
X13576Y8660D01*
X13576Y8656D01*
X13575Y8653D01*
X13573Y8651D01*
X13572Y8649D01*
X13571Y8647D01*
X13570Y8645D01*
X13566Y8641D01*
X13563Y8633D01*
X13534Y8589D01*
X13521Y8527D01*
X13534Y8465D01*
X13569Y8412D01*
X13621Y8377D01*
X13683Y8365D01*
X13745Y8377D01*
X13797Y8412D01*
X13832Y8465D01*
X13844Y8527D01*
X13832Y8589D01*
X13802Y8633D01*
X13799Y8641D01*
X13796Y8645D01*
X13794Y8647D01*
X13793Y8649D01*
X13792Y8651D01*
X13791Y8653D01*
X13790Y8656D01*
X13789Y8660D01*
X13788Y8665D01*
X13788Y8670D01*
X13788Y8678D01*
X13785Y8684D01*
Y8740D01*
X13777Y8779D01*
X13755Y8812D01*
X13524Y9042D01*
Y9288D01*
X13574Y9303D01*
X13586Y9286D01*
X13638Y9251D01*
X13700Y9238D01*
X13762Y9251D01*
X13814Y9286D01*
X13849Y9338D01*
X13860Y9391D01*
X13863Y9399D01*
X13864Y9404D01*
X13864Y9406D01*
X13864Y9408D01*
X13865Y9410D01*
X13866Y9413D01*
X13868Y9416D01*
X13870Y9419D01*
X13872Y9423D01*
X13876Y9427D01*
X13881Y9433D01*
X13883Y9439D01*
X14439Y9995D01*
X14903D01*
X14932Y9945D01*
X14923Y9898D01*
X14935Y9837D01*
X14970Y9784D01*
X14982Y9776D01*
X14987Y9767D01*
X14991Y9764D01*
X14991Y9764D01*
X14991Y9764D01*
X14992Y9763D01*
X14992Y9762D01*
X14993Y9760D01*
X14994Y9758D01*
X14994Y9754D01*
X14995Y9750D01*
X14995Y9742D01*
X14997Y9737D01*
X14996Y9733D01*
X14998Y9730D01*
Y9542D01*
X14878Y9422D01*
X14856Y9389D01*
X14848Y9350D01*
Y6198D01*
X14845Y6192D01*
X14845Y6184D01*
X14845Y6179D01*
X14844Y6174D01*
X14843Y6170D01*
X14842Y6167D01*
X14841Y6165D01*
X14840Y6163D01*
X14839Y6161D01*
X14837Y6159D01*
X14834Y6155D01*
X14831Y6147D01*
X14801Y6103D01*
X14789Y6041D01*
X14801Y5979D01*
X14836Y5926D01*
X14888Y5891D01*
X14950Y5879D01*
X15012Y5891D01*
X15065Y5926D01*
X15100Y5979D01*
X15112Y6041D01*
X15100Y6103D01*
X15070Y6147D01*
X15067Y6155D01*
X15063Y6159D01*
X15062Y6161D01*
X15061Y6163D01*
X15060Y6165D01*
X15059Y6167D01*
X15058Y6170D01*
X15057Y6174D01*
X15056Y6179D01*
X15055Y6184D01*
X15055Y6192D01*
X15052Y6198D01*
Y8422D01*
X15102Y8449D01*
X15137Y8442D01*
X15163Y8416D01*
X15166Y8403D01*
X15188Y8370D01*
X16821Y6737D01*
X16854Y6715D01*
X16893Y6707D01*
X21293D01*
X21299Y6704D01*
X21307Y6704D01*
X21312Y6703D01*
X21317Y6702D01*
X21320Y6702D01*
X21323Y6701D01*
X21326Y6700D01*
X21328Y6698D01*
X21330Y6697D01*
X21332Y6696D01*
X21335Y6692D01*
X21344Y6689D01*
X21388Y6660D01*
X21450Y6647D01*
X21512Y6660D01*
X21564Y6695D01*
X21599Y6747D01*
X21612Y6809D01*
X21599Y6871D01*
X21564Y6923D01*
X21527Y6948D01*
X21542Y6998D01*
X21943D01*
X21949Y6995D01*
X21957Y6995D01*
X21962Y6994D01*
X21967Y6994D01*
X21970Y6993D01*
X21973Y6992D01*
X21976Y6991D01*
X21978Y6990D01*
X21980Y6988D01*
X21982Y6987D01*
X21985Y6984D01*
X21994Y6981D01*
X22038Y6951D01*
X22100Y6938D01*
X22162Y6951D01*
X22214Y6986D01*
X22249Y7038D01*
X22262Y7100D01*
X22249Y7162D01*
X22214Y7214D01*
X22162Y7249D01*
X22100Y7262D01*
X22038Y7249D01*
X21994Y7219D01*
X21985Y7216D01*
X21982Y7213D01*
X21980Y7212D01*
X21978Y7210D01*
X21976Y7209D01*
X21973Y7208D01*
X21970Y7207D01*
X21967Y7206D01*
X21962Y7206D01*
X21957Y7205D01*
X21949Y7205D01*
X21943Y7202D01*
X16842D01*
X16592Y7452D01*
X16611Y7498D01*
X21588D01*
X21594Y7495D01*
X21602Y7495D01*
X21607Y7494D01*
X21612Y7494D01*
X21616Y7493D01*
X21619Y7492D01*
X21621Y7491D01*
X21623Y7490D01*
X21625Y7488D01*
X21627Y7487D01*
X21631Y7484D01*
X21639Y7481D01*
X21683Y7451D01*
X21745Y7438D01*
X21807Y7451D01*
X21859Y7486D01*
X21895Y7538D01*
X21907Y7600D01*
X21903Y7617D01*
X21949Y7642D01*
X22338Y7254D01*
Y5446D01*
X20769Y3878D01*
X20502D01*
X20496Y3881D01*
X20478Y3881D01*
X20472Y3882D01*
X20468Y3883D01*
X20464Y3883D01*
X20462Y3884D01*
X20462Y3884D01*
X20460Y3885D01*
X20460Y3885D01*
X20459Y3886D01*
X20456Y3886D01*
X20455Y3886D01*
X20455Y3886D01*
X20412Y3915D01*
X20350Y3927D01*
X20288Y3915D01*
X20236Y3880D01*
X20201Y3828D01*
X20188Y3766D01*
X20201Y3704D01*
X20236Y3652D01*
X20288Y3617D01*
X20350Y3604D01*
X20412Y3617D01*
X20455Y3645D01*
X20455Y3645D01*
X20456Y3646D01*
X20459Y3646D01*
X20460Y3646D01*
X20460Y3646D01*
X20462Y3647D01*
X20462Y3647D01*
X20464Y3648D01*
X20468Y3649D01*
X20472Y3650D01*
X20486Y3651D01*
X20495Y3651D01*
X20501Y3654D01*
X20816D01*
X20816Y3654D01*
X20859Y3662D01*
X20895Y3686D01*
X22529Y5321D01*
X22529Y5321D01*
X22554Y5357D01*
X22562Y5400D01*
Y7300D01*
X22562Y7300D01*
X22554Y7343D01*
X22529Y7379D01*
X22529Y7379D01*
X21929Y7979D01*
X21893Y8004D01*
X21850Y8012D01*
X21850Y8012D01*
X20946D01*
X20550Y8409D01*
Y8548D01*
X20552Y8554D01*
X20553Y8572D01*
X20554Y8578D01*
X20554Y8582D01*
X20555Y8586D01*
X20556Y8588D01*
X20556Y8588D01*
X20557Y8590D01*
X20557Y8590D01*
X20557Y8591D01*
X20557Y8594D01*
X20558Y8595D01*
X20558Y8595D01*
X20587Y8638D01*
X20599Y8700D01*
X20587Y8762D01*
X20552Y8814D01*
X20550Y8816D01*
Y8878D01*
X20559Y8885D01*
X20626Y8874D01*
X20631Y8866D01*
X20683Y8831D01*
X20745Y8819D01*
X20807Y8831D01*
X20852Y8861D01*
X20860Y8864D01*
X20864Y8868D01*
X20865Y8869D01*
X20867Y8870D01*
X20869Y8871D01*
X20872Y8872D01*
X20875Y8873D01*
X20879Y8874D01*
X20883Y8875D01*
X20888Y8875D01*
X20896Y8876D01*
X20903Y8879D01*
X21731D01*
X21770Y8886D01*
X21803Y8909D01*
X22832Y9938D01*
X22838Y9940D01*
X22850Y9950D01*
X22861Y9956D01*
X22876Y9963D01*
X22895Y9970D01*
X22919Y9976D01*
X22947Y9981D01*
X22978Y9985D01*
X23054Y9990D01*
X23097Y9990D01*
X23103Y9992D01*
X23193Y10004D01*
X23279Y10040D01*
X23353Y10097D01*
X23410Y10171D01*
X23446Y10257D01*
X23458Y10350D01*
X23446Y10443D01*
X23410Y10529D01*
X23353Y10603D01*
X23279Y10660D01*
X23193Y10696D01*
X23100Y10708D01*
X23007Y10696D01*
X22921Y10660D01*
X22847Y10603D01*
X22790Y10529D01*
X22754Y10443D01*
X22742Y10353D01*
X22740Y10347D01*
X22740Y10304D01*
X22735Y10228D01*
X22731Y10197D01*
X22726Y10169D01*
X22720Y10145D01*
X22713Y10126D01*
X22706Y10111D01*
X22700Y10100D01*
X22690Y10088D01*
X22688Y10082D01*
X21688Y9083D01*
X20903D01*
X20896Y9086D01*
X20888Y9086D01*
X20883Y9086D01*
X20879Y9087D01*
X20875Y9088D01*
X20872Y9089D01*
X20869Y9090D01*
X20867Y9091D01*
X20865Y9092D01*
X20864Y9094D01*
X20860Y9097D01*
X20852Y9100D01*
X20807Y9130D01*
X20745Y9142D01*
X20683Y9130D01*
X20631Y9095D01*
X20626Y9087D01*
X20559Y9076D01*
X20550Y9083D01*
Y9616D01*
X22958Y12024D01*
X23007Y12004D01*
X23100Y11992D01*
X23193Y12004D01*
X23279Y12040D01*
X23353Y12097D01*
X23410Y12171D01*
X23446Y12257D01*
X23458Y12350D01*
X23446Y12443D01*
X23410Y12529D01*
X23353Y12603D01*
X23279Y12660D01*
X23193Y12696D01*
X23100Y12708D01*
X23007Y12696D01*
X22921Y12660D01*
X22847Y12603D01*
X22790Y12529D01*
X22754Y12443D01*
X22742Y12350D01*
X22754Y12257D01*
X22789Y12172D01*
X20358Y9741D01*
X20334Y9705D01*
X20325Y9662D01*
X20325Y9662D01*
Y8818D01*
X20323Y8818D01*
X20320Y8817D01*
X20316Y8816D01*
X20301Y8815D01*
X20292Y8815D01*
X20286Y8812D01*
X19252D01*
X18771Y9293D01*
Y10974D01*
X18762Y11017D01*
X18738Y11053D01*
X18738Y11053D01*
X18112Y11679D01*
X18075Y11704D01*
X18032Y11712D01*
X18032Y11712D01*
X17752D01*
X17746Y11715D01*
X17728Y11716D01*
X17722Y11716D01*
X17718Y11717D01*
X17717Y11717D01*
X17717Y11718D01*
X17716Y11722D01*
X17715Y11736D01*
X17715Y11745D01*
X17712Y11751D01*
Y13089D01*
X17715Y13095D01*
X17716Y13113D01*
X17716Y13118D01*
X17717Y13123D01*
X17718Y13127D01*
X17718Y13129D01*
X17718Y13129D01*
X17719Y13130D01*
X17719Y13131D01*
X17720Y13132D01*
X17720Y13134D01*
X17720Y13135D01*
X17720Y13136D01*
X17749Y13179D01*
X17762Y13241D01*
X17749Y13303D01*
X17714Y13355D01*
X17662Y13390D01*
X17600Y13402D01*
X17579Y13398D01*
X17578Y13399D01*
X17577Y13399D01*
X17576Y13400D01*
X17575Y13400D01*
X17574Y13401D01*
X17572Y13402D01*
X17562Y13410D01*
X17556Y13416D01*
X17549Y13418D01*
X17545Y13423D01*
X17543Y13425D01*
X17542Y13426D01*
X17538Y13429D01*
X17502Y13454D01*
X17459Y13462D01*
X17459Y13462D01*
X16152D01*
X16146Y13465D01*
X16128Y13466D01*
X16122Y13466D01*
X16118Y13467D01*
X16114Y13468D01*
X16112Y13468D01*
X16112Y13468D01*
X16110Y13469D01*
X16110Y13469D01*
X16109Y13470D01*
X16106Y13470D01*
X16105Y13470D01*
X16105Y13470D01*
X16062Y13499D01*
X16000Y13512D01*
X15952Y13502D01*
X15902Y13531D01*
Y13716D01*
X17571Y15385D01*
X17578Y15388D01*
X17584Y15393D01*
X17588Y15397D01*
X17592Y15400D01*
X17596Y15402D01*
X17600Y15404D01*
X17603Y15406D01*
X17606Y15407D01*
X17609Y15408D01*
X17612Y15409D01*
X17617Y15409D01*
X17628Y15416D01*
X17662Y15422D01*
X17714Y15457D01*
X17749Y15510D01*
X17762Y15572D01*
X17749Y15633D01*
X17714Y15686D01*
X17662Y15721D01*
X17600Y15733D01*
X17590Y15731D01*
X17533Y15770D01*
X17531Y15780D01*
X17836Y16085D01*
X17842Y16087D01*
X17848Y16093D01*
X17852Y16096D01*
X17856Y16099D01*
X17859Y16101D01*
X17862Y16102D01*
X17864Y16103D01*
X17867Y16104D01*
X17869Y16104D01*
X17871Y16105D01*
X17876Y16105D01*
X17884Y16109D01*
X17937Y16119D01*
X17989Y16154D01*
X18024Y16206D01*
X18036Y16268D01*
X18024Y16330D01*
X17989Y16382D01*
X17937Y16417D01*
X17875Y16430D01*
X17813Y16417D01*
X17761Y16382D01*
X17726Y16330D01*
X17715Y16278D01*
X17711Y16270D01*
X17711Y16264D01*
X17711Y16262D01*
X17711Y16260D01*
X17710Y16258D01*
X17709Y16255D01*
X17707Y16252D01*
X17705Y16249D01*
X17703Y16245D01*
X17699Y16241D01*
X17694Y16236D01*
X17691Y16229D01*
X15597Y14134D01*
X15550Y14153D01*
Y14706D01*
X17222Y16323D01*
X17222Y16323D01*
X17223Y16324D01*
X17387Y16488D01*
X17388Y16489D01*
X17389Y16490D01*
X18372Y17532D01*
X18388Y17548D01*
X19741D01*
X19780Y17556D01*
X19814Y17578D01*
X19972Y17736D01*
X19994Y17770D01*
X20002Y17809D01*
Y18508D01*
X20192Y18698D01*
X20793D01*
X20799Y18695D01*
X20807Y18695D01*
X20812Y18694D01*
X20817Y18694D01*
X20820Y18693D01*
X20823Y18692D01*
X20826Y18691D01*
X20828Y18690D01*
X20830Y18688D01*
X20832Y18687D01*
X20835Y18684D01*
X20844Y18681D01*
X20888Y18651D01*
X20950Y18638D01*
X21012Y18651D01*
X21064Y18686D01*
X21099Y18738D01*
X21112Y18800D01*
X21099Y18862D01*
X21064Y18914D01*
X21012Y18949D01*
X20950Y18962D01*
X20888Y18949D01*
X20844Y18919D01*
X20835Y18916D01*
X20832Y18913D01*
X20830Y18912D01*
X20828Y18910D01*
X20826Y18909D01*
X20823Y18908D01*
X20820Y18907D01*
X20817Y18906D01*
X20812Y18906D01*
X20807Y18905D01*
X20799Y18905D01*
X20793Y18902D01*
X20707D01*
X20690Y18952D01*
X20703Y18962D01*
X20760Y19037D01*
X20796Y19123D01*
X20808Y19216D01*
X20796Y19309D01*
X20760Y19395D01*
X20703Y19469D01*
X20629Y19526D01*
X20543Y19562D01*
X20450Y19574D01*
D02*
G37*
G36*
X21450Y18574D02*
X21357Y18562D01*
X21271Y18526D01*
X21197Y18469D01*
X21140Y18395D01*
X21104Y18309D01*
X21092Y18216D01*
X21104Y18123D01*
X21140Y18037D01*
X21197Y17962D01*
X21271Y17905D01*
X21357Y17870D01*
X21450Y17857D01*
X21543Y17870D01*
X21629Y17905D01*
X21703Y17962D01*
X21760Y18037D01*
X21796Y18123D01*
X21808Y18216D01*
X21796Y18309D01*
X21760Y18395D01*
X21703Y18469D01*
X21629Y18526D01*
X21543Y18562D01*
X21450Y18574D01*
D02*
G37*
G36*
X20450D02*
X20357Y18562D01*
X20271Y18526D01*
X20197Y18469D01*
X20140Y18395D01*
X20104Y18309D01*
X20092Y18216D01*
X20104Y18123D01*
X20140Y18037D01*
X20197Y17962D01*
X20271Y17905D01*
X20357Y17870D01*
X20450Y17857D01*
X20543Y17870D01*
X20629Y17905D01*
X20703Y17962D01*
X20760Y18037D01*
X20796Y18123D01*
X20808Y18216D01*
X20796Y18309D01*
X20760Y18395D01*
X20703Y18469D01*
X20629Y18526D01*
X20543Y18562D01*
X20450Y18574D01*
D02*
G37*
G36*
X16450D02*
X16357Y18562D01*
X16271Y18526D01*
X16197Y18469D01*
X16140Y18395D01*
X16104Y18309D01*
X16092Y18216D01*
X16104Y18123D01*
X16140Y18037D01*
X16197Y17962D01*
X16271Y17905D01*
X16357Y17870D01*
X16450Y17857D01*
X16543Y17870D01*
X16629Y17905D01*
X16703Y17962D01*
X16760Y18037D01*
X16796Y18123D01*
X16808Y18216D01*
X16796Y18309D01*
X16760Y18395D01*
X16703Y18469D01*
X16629Y18526D01*
X16543Y18562D01*
X16450Y18574D01*
D02*
G37*
G36*
X14450D02*
X14357Y18562D01*
X14271Y18526D01*
X14197Y18469D01*
X14140Y18395D01*
X14104Y18309D01*
X14092Y18216D01*
X14104Y18123D01*
X14140Y18037D01*
X14197Y17962D01*
X14271Y17905D01*
X14357Y17870D01*
X14450Y17857D01*
X14543Y17870D01*
X14629Y17905D01*
X14703Y17962D01*
X14760Y18037D01*
X14796Y18123D01*
X14808Y18216D01*
X14796Y18309D01*
X14760Y18395D01*
X14703Y18469D01*
X14629Y18526D01*
X14543Y18562D01*
X14450Y18574D01*
D02*
G37*
G36*
X12450D02*
X12357Y18562D01*
X12271Y18526D01*
X12197Y18469D01*
X12140Y18395D01*
X12104Y18309D01*
X12092Y18216D01*
X12104Y18123D01*
X12140Y18037D01*
X12197Y17962D01*
X12271Y17905D01*
X12357Y17870D01*
X12450Y17857D01*
X12543Y17870D01*
X12629Y17905D01*
X12703Y17962D01*
X12760Y18037D01*
X12796Y18123D01*
X12808Y18216D01*
X12796Y18309D01*
X12760Y18395D01*
X12703Y18469D01*
X12629Y18526D01*
X12543Y18562D01*
X12450Y18574D01*
D02*
G37*
G36*
X11450D02*
X11357Y18562D01*
X11271Y18526D01*
X11197Y18469D01*
X11140Y18395D01*
X11104Y18309D01*
X11092Y18216D01*
X11104Y18123D01*
X11140Y18037D01*
X11197Y17962D01*
X11271Y17905D01*
X11357Y17870D01*
X11450Y17857D01*
X11543Y17870D01*
X11629Y17905D01*
X11703Y17962D01*
X11760Y18037D01*
X11796Y18123D01*
X11808Y18216D01*
X11796Y18309D01*
X11760Y18395D01*
X11703Y18469D01*
X11629Y18526D01*
X11543Y18562D01*
X11450Y18574D01*
D02*
G37*
G36*
X10450D02*
X10357Y18562D01*
X10271Y18526D01*
X10197Y18469D01*
X10140Y18395D01*
X10104Y18309D01*
X10092Y18216D01*
X10104Y18123D01*
X10140Y18037D01*
X10197Y17962D01*
X10271Y17905D01*
X10357Y17870D01*
X10450Y17857D01*
X10543Y17870D01*
X10629Y17905D01*
X10703Y17962D01*
X10760Y18037D01*
X10796Y18123D01*
X10808Y18216D01*
X10796Y18309D01*
X10760Y18395D01*
X10703Y18469D01*
X10629Y18526D01*
X10543Y18562D01*
X10450Y18574D01*
D02*
G37*
G36*
X9450D02*
X9357Y18562D01*
X9271Y18526D01*
X9197Y18469D01*
X9140Y18395D01*
X9104Y18309D01*
X9092Y18216D01*
X9104Y18123D01*
X9140Y18037D01*
X9197Y17962D01*
X9271Y17905D01*
X9357Y17870D01*
X9450Y17857D01*
X9543Y17870D01*
X9629Y17905D01*
X9703Y17962D01*
X9760Y18037D01*
X9796Y18123D01*
X9808Y18216D01*
X9796Y18309D01*
X9760Y18395D01*
X9703Y18469D01*
X9629Y18526D01*
X9543Y18562D01*
X9450Y18574D01*
D02*
G37*
G36*
X8450D02*
X8357Y18562D01*
X8271Y18526D01*
X8197Y18469D01*
X8140Y18395D01*
X8104Y18309D01*
X8092Y18216D01*
X8104Y18123D01*
X8140Y18037D01*
X8197Y17962D01*
X8271Y17905D01*
X8357Y17870D01*
X8450Y17857D01*
X8543Y17870D01*
X8629Y17905D01*
X8703Y17962D01*
X8760Y18037D01*
X8796Y18123D01*
X8808Y18216D01*
X8796Y18309D01*
X8760Y18395D01*
X8703Y18469D01*
X8629Y18526D01*
X8543Y18562D01*
X8450Y18574D01*
D02*
G37*
G36*
X7450D02*
X7357Y18562D01*
X7271Y18526D01*
X7197Y18469D01*
X7140Y18395D01*
X7104Y18309D01*
X7092Y18216D01*
X7104Y18123D01*
X7140Y18037D01*
X7197Y17962D01*
X7271Y17905D01*
X7357Y17870D01*
X7450Y17857D01*
X7543Y17870D01*
X7629Y17905D01*
X7703Y17962D01*
X7760Y18037D01*
X7796Y18123D01*
X7808Y18216D01*
X7796Y18309D01*
X7760Y18395D01*
X7703Y18469D01*
X7629Y18526D01*
X7543Y18562D01*
X7450Y18574D01*
D02*
G37*
G36*
X6450D02*
X6357Y18562D01*
X6271Y18526D01*
X6197Y18469D01*
X6140Y18395D01*
X6104Y18309D01*
X6092Y18216D01*
X6104Y18123D01*
X6140Y18037D01*
X6197Y17962D01*
X6271Y17905D01*
X6357Y17870D01*
X6450Y17857D01*
X6543Y17870D01*
X6629Y17905D01*
X6703Y17962D01*
X6760Y18037D01*
X6796Y18123D01*
X6808Y18216D01*
X6796Y18309D01*
X6760Y18395D01*
X6703Y18469D01*
X6629Y18526D01*
X6543Y18562D01*
X6450Y18574D01*
D02*
G37*
G36*
X5450D02*
X5357Y18562D01*
X5271Y18526D01*
X5197Y18469D01*
X5140Y18395D01*
X5104Y18309D01*
X5092Y18216D01*
X5104Y18123D01*
X5140Y18037D01*
X5197Y17962D01*
X5271Y17905D01*
X5357Y17870D01*
X5450Y17857D01*
X5543Y17870D01*
X5629Y17905D01*
X5703Y17962D01*
X5760Y18037D01*
X5796Y18123D01*
X5808Y18216D01*
X5796Y18309D01*
X5760Y18395D01*
X5703Y18469D01*
X5629Y18526D01*
X5543Y18562D01*
X5450Y18574D01*
D02*
G37*
G36*
X4450D02*
X4357Y18562D01*
X4271Y18526D01*
X4197Y18469D01*
X4140Y18395D01*
X4104Y18309D01*
X4092Y18216D01*
X4104Y18123D01*
X4140Y18037D01*
X4197Y17962D01*
X4271Y17905D01*
X4357Y17870D01*
X4450Y17857D01*
X4543Y17870D01*
X4629Y17905D01*
X4703Y17962D01*
X4760Y18037D01*
X4796Y18123D01*
X4808Y18216D01*
X4796Y18309D01*
X4760Y18395D01*
X4703Y18469D01*
X4629Y18526D01*
X4543Y18562D01*
X4450Y18574D01*
D02*
G37*
G36*
X3450D02*
X3357Y18562D01*
X3271Y18526D01*
X3197Y18469D01*
X3140Y18395D01*
X3104Y18309D01*
X3092Y18216D01*
X3104Y18123D01*
X3140Y18037D01*
X3197Y17962D01*
X3271Y17905D01*
X3357Y17870D01*
X3450Y17857D01*
X3543Y17870D01*
X3629Y17905D01*
X3703Y17962D01*
X3760Y18037D01*
X3796Y18123D01*
X3808Y18216D01*
X3796Y18309D01*
X3760Y18395D01*
X3703Y18469D01*
X3629Y18526D01*
X3543Y18562D01*
X3450Y18574D01*
D02*
G37*
G36*
X2450D02*
X2357Y18562D01*
X2271Y18526D01*
X2197Y18469D01*
X2140Y18395D01*
X2104Y18309D01*
X2092Y18216D01*
X2104Y18123D01*
X2140Y18037D01*
X2197Y17962D01*
X2271Y17905D01*
X2357Y17870D01*
X2450Y17857D01*
X2543Y17870D01*
X2629Y17905D01*
X2703Y17962D01*
X2760Y18037D01*
X2796Y18123D01*
X2808Y18216D01*
X2796Y18309D01*
X2760Y18395D01*
X2703Y18469D01*
X2629Y18526D01*
X2543Y18562D01*
X2450Y18574D01*
D02*
G37*
G36*
X13450D02*
X13357Y18562D01*
X13271Y18526D01*
X13197Y18469D01*
X13140Y18395D01*
X13104Y18309D01*
X13092Y18218D01*
X13090Y18213D01*
X13090Y18170D01*
X13085Y18094D01*
X13081Y18063D01*
X13076Y18035D01*
X13070Y18011D01*
X13063Y17991D01*
X13056Y17976D01*
X13050Y17965D01*
X13040Y17954D01*
X13038Y17948D01*
X12319Y17229D01*
X10486D01*
X10447Y17221D01*
X10414Y17199D01*
X10223Y17008D01*
X10216Y17005D01*
X10210Y17000D01*
X10206Y16997D01*
X10202Y16994D01*
X10199Y16992D01*
X10196Y16990D01*
X10194Y16989D01*
X10191Y16989D01*
X10189Y16988D01*
X10187Y16988D01*
X10182Y16988D01*
X10174Y16984D01*
X10122Y16974D01*
X10069Y16939D01*
X10048Y16906D01*
X9998Y16922D01*
Y17425D01*
X10001Y17431D01*
X10000Y17431D01*
X10001Y17432D01*
X10001Y17440D01*
X10001Y17445D01*
X10002Y17449D01*
X10003Y17452D01*
X10004Y17455D01*
X10005Y17457D01*
X10006Y17459D01*
X10007Y17460D01*
X10008Y17462D01*
X10011Y17465D01*
X10013Y17470D01*
X10014Y17470D01*
X10049Y17523D01*
X10062Y17585D01*
X10049Y17646D01*
X10014Y17699D01*
X9962Y17734D01*
X9900Y17746D01*
X9838Y17734D01*
X9786Y17699D01*
X9751Y17646D01*
X9738Y17585D01*
X9751Y17523D01*
X9775Y17486D01*
X9779Y17475D01*
X9782Y17471D01*
X9784Y17469D01*
X9785Y17467D01*
X9786Y17464D01*
X9787Y17461D01*
X9788Y17458D01*
X9789Y17454D01*
X9790Y17449D01*
X9791Y17444D01*
X9791Y17436D01*
X9794Y17429D01*
Y16334D01*
X9797Y16318D01*
X9751Y16293D01*
X9568Y16476D01*
Y17143D01*
X9571Y17149D01*
X9571Y17157D01*
X9571Y17162D01*
X9572Y17167D01*
X9573Y17170D01*
X9574Y17173D01*
X9575Y17176D01*
X9576Y17178D01*
X9577Y17180D01*
X9579Y17182D01*
X9582Y17185D01*
X9585Y17194D01*
X9615Y17238D01*
X9627Y17300D01*
X9615Y17362D01*
X9580Y17414D01*
X9528Y17449D01*
X9466Y17462D01*
X9404Y17449D01*
X9352Y17414D01*
X9317Y17362D01*
X9304Y17300D01*
X9317Y17238D01*
X9346Y17194D01*
X9349Y17185D01*
X9353Y17182D01*
X9354Y17180D01*
X9355Y17178D01*
X9356Y17176D01*
X9358Y17173D01*
X9359Y17170D01*
X9359Y17167D01*
X9360Y17162D01*
X9361Y17157D01*
X9361Y17149D01*
X9364Y17143D01*
Y16453D01*
X9315Y16431D01*
X9052Y16694D01*
Y16993D01*
X9055Y16999D01*
X9055Y17007D01*
X9056Y17012D01*
X9056Y17017D01*
X9057Y17020D01*
X9058Y17023D01*
X9059Y17026D01*
X9060Y17028D01*
X9062Y17030D01*
X9063Y17032D01*
X9066Y17035D01*
X9069Y17044D01*
X9099Y17088D01*
X9112Y17150D01*
X9099Y17212D01*
X9064Y17264D01*
X9012Y17299D01*
X8950Y17312D01*
X8888Y17299D01*
X8836Y17264D01*
X8801Y17212D01*
X8788Y17150D01*
X8801Y17088D01*
X8831Y17044D01*
X8834Y17035D01*
X8837Y17032D01*
X8838Y17030D01*
X8840Y17028D01*
X8841Y17026D01*
X8842Y17023D01*
X8843Y17020D01*
X8844Y17017D01*
X8844Y17012D01*
X8845Y17007D01*
X8845Y16999D01*
X8848Y16993D01*
Y16652D01*
X8851Y16636D01*
X8805Y16612D01*
X8633Y16783D01*
X8631Y16790D01*
X8626Y16796D01*
X8622Y16800D01*
X8620Y16804D01*
X8618Y16807D01*
X8616Y16810D01*
X8615Y16812D01*
X8614Y16815D01*
X8614Y16817D01*
X8613Y16819D01*
X8613Y16824D01*
X8610Y16832D01*
X8599Y16884D01*
X8564Y16937D01*
X8512Y16972D01*
X8450Y16984D01*
X8388Y16972D01*
X8336Y16937D01*
X8301Y16884D01*
X8289Y16826D01*
X8276Y16818D01*
X8241Y16803D01*
X8109Y16936D01*
X8112Y16950D01*
X8099Y17012D01*
X8064Y17064D01*
X8012Y17099D01*
X7950Y17112D01*
X7888Y17099D01*
X7836Y17064D01*
X7801Y17012D01*
X7788Y16950D01*
X7801Y16888D01*
X7836Y16836D01*
X7888Y16801D01*
X7950Y16788D01*
X7964Y16791D01*
X8919Y15837D01*
Y13961D01*
X8927Y13922D01*
X8949Y13888D01*
X9398Y13439D01*
X9401Y13433D01*
X9406Y13427D01*
X9409Y13423D01*
X9412Y13419D01*
X9414Y13416D01*
X9415Y13413D01*
X9417Y13410D01*
X9417Y13408D01*
X9418Y13406D01*
X9418Y13404D01*
X9418Y13399D01*
X9422Y13391D01*
X9432Y13338D01*
X9467Y13286D01*
X9520Y13251D01*
X9582Y13238D01*
X9643Y13251D01*
X9696Y13286D01*
X9731Y13338D01*
X9743Y13400D01*
X9731Y13462D01*
X9696Y13514D01*
X9643Y13549D01*
X9591Y13560D01*
X9583Y13563D01*
X9578Y13563D01*
X9576Y13564D01*
X9573Y13564D01*
X9571Y13565D01*
X9569Y13566D01*
X9566Y13568D01*
X9562Y13570D01*
X9559Y13572D01*
X9555Y13576D01*
X9549Y13581D01*
X9542Y13583D01*
X9123Y14003D01*
Y14189D01*
X9169Y14208D01*
X9596Y13780D01*
X9599Y13774D01*
X9604Y13768D01*
X9608Y13764D01*
X9610Y13760D01*
X9612Y13757D01*
X9614Y13754D01*
X9615Y13751D01*
X9616Y13749D01*
X9616Y13747D01*
X9616Y13745D01*
X9617Y13740D01*
X9620Y13732D01*
X9631Y13679D01*
X9666Y13627D01*
X9718Y13592D01*
X9780Y13579D01*
X9842Y13592D01*
X9894Y13627D01*
X9929Y13679D01*
X9941Y13741D01*
X9929Y13803D01*
X9894Y13855D01*
X9842Y13890D01*
X9818Y13895D01*
X9807Y13948D01*
X9836Y13968D01*
X9864Y13984D01*
X9886D01*
X9938Y13949D01*
X10000Y13936D01*
X10062Y13949D01*
X10114Y13984D01*
X10149Y14036D01*
X10162Y14098D01*
X10149Y14160D01*
X10119Y14204D01*
X10116Y14213D01*
X10113Y14216D01*
X10112Y14218D01*
X10110Y14220D01*
X10109Y14222D01*
X10108Y14225D01*
X10107Y14228D01*
X10106Y14231D01*
X10106Y14236D01*
X10105Y14241D01*
X10105Y14249D01*
X10102Y14255D01*
Y15900D01*
X10099Y15916D01*
X10145Y15940D01*
X10266Y15819D01*
Y14366D01*
X10263Y14360D01*
X10263Y14352D01*
X10262Y14347D01*
X10262Y14342D01*
X10261Y14338D01*
X10260Y14335D01*
X10259Y14333D01*
X10258Y14331D01*
X10257Y14329D01*
X10255Y14327D01*
X10252Y14323D01*
X10249Y14315D01*
X10219Y14271D01*
X10207Y14209D01*
X10219Y14147D01*
X10254Y14095D01*
X10306Y14060D01*
X10368Y14047D01*
X10430Y14060D01*
X10482Y14095D01*
X10517Y14147D01*
X10530Y14209D01*
X10517Y14271D01*
X10488Y14315D01*
X10484Y14323D01*
X10481Y14327D01*
X10480Y14329D01*
X10479Y14331D01*
X10477Y14333D01*
X10476Y14335D01*
X10475Y14338D01*
X10474Y14342D01*
X10474Y14347D01*
X10473Y14352D01*
X10473Y14360D01*
X10470Y14366D01*
Y15861D01*
X10462Y15900D01*
X10440Y15933D01*
X9998Y16376D01*
Y16727D01*
X10048Y16742D01*
X10069Y16710D01*
X10122Y16675D01*
X10183Y16663D01*
X10245Y16675D01*
X10298Y16710D01*
X10333Y16763D01*
X10343Y16815D01*
X10347Y16823D01*
X10347Y16828D01*
X10347Y16830D01*
X10348Y16832D01*
X10348Y16835D01*
X10349Y16837D01*
X10351Y16840D01*
X10353Y16844D01*
X10355Y16847D01*
X10359Y16851D01*
X10364Y16857D01*
X10367Y16864D01*
X10528Y17025D01*
X12361D01*
X12400Y17033D01*
X12433Y17055D01*
X13182Y17804D01*
X13188Y17806D01*
X13200Y17815D01*
X13211Y17822D01*
X13226Y17829D01*
X13245Y17836D01*
X13269Y17842D01*
X13297Y17847D01*
X13328Y17851D01*
X13404Y17855D01*
X13447Y17856D01*
X13453Y17858D01*
X13543Y17870D01*
X13629Y17905D01*
X13703Y17962D01*
X13760Y18037D01*
X13796Y18123D01*
X13808Y18216D01*
X13796Y18309D01*
X13760Y18395D01*
X13703Y18469D01*
X13629Y18526D01*
X13543Y18562D01*
X13450Y18574D01*
D02*
G37*
G36*
X8659Y14942D02*
X8597Y14929D01*
X8545Y14894D01*
X8510Y14842D01*
X8497Y14780D01*
X8510Y14718D01*
X8539Y14674D01*
X8542Y14665D01*
X8546Y14662D01*
X8547Y14660D01*
X8548Y14658D01*
X8550Y14656D01*
X8551Y14654D01*
X8552Y14650D01*
X8552Y14647D01*
X8553Y14642D01*
X8554Y14637D01*
X8554Y14629D01*
X8557Y14623D01*
Y12460D01*
X8565Y12421D01*
X8587Y12388D01*
X8932Y12043D01*
X8901Y12004D01*
X8858Y12012D01*
X8858Y12012D01*
X7347D01*
X7341Y12015D01*
X7322Y12016D01*
X7317Y12016D01*
X7314Y12017D01*
X7237Y12093D01*
X7231Y12100D01*
X7258Y12146D01*
X7296Y12138D01*
X7358Y12151D01*
X7411Y12186D01*
X7411Y12187D01*
X7416Y12189D01*
X7420Y12193D01*
X7421Y12194D01*
X7422Y12195D01*
X7424Y12196D01*
X7426Y12197D01*
X7429Y12197D01*
X7432Y12198D01*
X7436Y12199D01*
X7441Y12199D01*
X7449Y12200D01*
X7450Y12200D01*
X7451Y12200D01*
X7457Y12203D01*
X8109D01*
X8115Y12193D01*
X8168Y12158D01*
X8230Y12145D01*
X8291Y12158D01*
X8344Y12193D01*
X8379Y12245D01*
X8391Y12307D01*
X8379Y12369D01*
X8344Y12421D01*
X8291Y12456D01*
X8230Y12468D01*
X8168Y12456D01*
X8115Y12421D01*
X8106Y12407D01*
X7452D01*
X7445Y12410D01*
X7437Y12410D01*
X7432Y12410D01*
X7427Y12411D01*
X7423Y12412D01*
X7419Y12413D01*
X7416Y12414D01*
X7414Y12415D01*
X7411Y12417D01*
X7409Y12418D01*
X7405Y12422D01*
X7394Y12425D01*
X7358Y12449D01*
X7296Y12462D01*
X7235Y12449D01*
X7182Y12414D01*
X7147Y12362D01*
X7135Y12300D01*
X7143Y12258D01*
X7097Y12234D01*
X6662Y12668D01*
Y13654D01*
X7238Y14229D01*
X7811D01*
X7817Y14226D01*
X7836Y14225D01*
X7841Y14225D01*
X7846Y14224D01*
X7849Y14223D01*
X7851Y14223D01*
X7852Y14223D01*
X7853Y14222D01*
X7854Y14222D01*
X7855Y14221D01*
X7857Y14221D01*
X7858Y14221D01*
X7859Y14221D01*
X7902Y14192D01*
X7964Y14180D01*
X8025Y14192D01*
X8078Y14227D01*
X8113Y14279D01*
X8125Y14341D01*
X8113Y14403D01*
X8078Y14455D01*
X8025Y14490D01*
X7964Y14503D01*
X7902Y14490D01*
X7859Y14462D01*
X7858Y14461D01*
X7857Y14461D01*
X7855Y14461D01*
X7854Y14461D01*
X7853Y14460D01*
X7852Y14459D01*
X7851Y14459D01*
X7849Y14459D01*
X7846Y14458D01*
X7842Y14457D01*
X7827Y14456D01*
X7819Y14456D01*
X7812Y14453D01*
X7191D01*
X7191Y14453D01*
X7148Y14445D01*
X7112Y14420D01*
X7112Y14420D01*
X6471Y13779D01*
X6446Y13743D01*
X6438Y13700D01*
X6438Y13700D01*
Y12622D01*
X6438Y12622D01*
X6446Y12579D01*
X6471Y12543D01*
X6955Y12058D01*
X6936Y12012D01*
X3402D01*
X3396Y12015D01*
X3378Y12016D01*
X3372Y12016D01*
X3368Y12017D01*
X3364Y12018D01*
X3362Y12018D01*
X3362Y12018D01*
X3360Y12019D01*
X3360Y12019D01*
X3359Y12020D01*
X3356Y12020D01*
X3355Y12020D01*
X3355Y12020D01*
X3312Y12049D01*
X3250Y12062D01*
X3188Y12049D01*
X3136Y12014D01*
X3101Y11962D01*
X3088Y11900D01*
X3101Y11838D01*
X3136Y11786D01*
X3188Y11751D01*
X3250Y11738D01*
X3312Y11751D01*
X3355Y11780D01*
X3355Y11780D01*
X3356Y11780D01*
X3359Y11780D01*
X3360Y11781D01*
X3360Y11781D01*
X3362Y11782D01*
X3362Y11782D01*
X3364Y11782D01*
X3368Y11783D01*
X3372Y11784D01*
X3386Y11785D01*
X3395Y11785D01*
X3401Y11788D01*
X7042D01*
X7048Y11785D01*
X7067Y11784D01*
X7072Y11784D01*
X7077Y11783D01*
X7080Y11782D01*
X7082Y11782D01*
X7083Y11782D01*
X7084Y11781D01*
X7085Y11781D01*
X7086Y11780D01*
X7088Y11780D01*
X7089Y11780D01*
X7090Y11780D01*
X7133Y11751D01*
X7195Y11738D01*
X7256Y11751D01*
X7299Y11780D01*
X7300Y11780D01*
X7301Y11780D01*
X7303Y11780D01*
X7304Y11781D01*
X7305Y11781D01*
X7306Y11782D01*
X7307Y11782D01*
X7309Y11782D01*
X7312Y11783D01*
X7316Y11784D01*
X7331Y11785D01*
X7340Y11785D01*
X7346Y11788D01*
X8811D01*
X9017Y11582D01*
X9019Y11576D01*
X9019Y11576D01*
X9019Y11576D01*
X9032Y11563D01*
X9035Y11559D01*
X9038Y11555D01*
X9039Y11552D01*
X9040Y11551D01*
X9040Y11549D01*
X9041Y11549D01*
X9041Y11547D01*
X9042Y11546D01*
X9054Y11488D01*
X9089Y11436D01*
X9141Y11401D01*
X9203Y11388D01*
X9265Y11401D01*
X9317Y11436D01*
X9352Y11488D01*
X9363Y11542D01*
X9389Y11556D01*
X9413Y11562D01*
X12629Y8346D01*
Y7889D01*
X12626Y7882D01*
X12626Y7875D01*
X12625Y7869D01*
X12625Y7865D01*
X12624Y7861D01*
X12623Y7858D01*
X12622Y7856D01*
X12621Y7853D01*
X12620Y7852D01*
X12618Y7850D01*
X12615Y7846D01*
X12612Y7838D01*
X12582Y7793D01*
X12570Y7732D01*
X12582Y7670D01*
X12617Y7617D01*
X12669Y7582D01*
X12731Y7570D01*
X12793Y7582D01*
X12845Y7617D01*
X12880Y7670D01*
X12893Y7732D01*
X12880Y7793D01*
X12851Y7838D01*
X12847Y7846D01*
X12844Y7850D01*
X12843Y7852D01*
X12842Y7853D01*
X12840Y7856D01*
X12839Y7858D01*
X12838Y7861D01*
X12837Y7865D01*
X12837Y7869D01*
X12836Y7875D01*
X12836Y7882D01*
X12833Y7889D01*
Y8388D01*
X12825Y8427D01*
X12803Y8460D01*
X8761Y12503D01*
Y14623D01*
X8764Y14629D01*
X8764Y14637D01*
X8764Y14642D01*
X8765Y14647D01*
X8766Y14650D01*
X8767Y14654D01*
X8768Y14656D01*
X8769Y14658D01*
X8770Y14660D01*
X8772Y14662D01*
X8775Y14665D01*
X8778Y14674D01*
X8808Y14718D01*
X8820Y14780D01*
X8808Y14842D01*
X8773Y14894D01*
X8721Y14929D01*
X8659Y14942D01*
D02*
G37*
G36*
X23100Y11708D02*
X23007Y11696D01*
X22921Y11660D01*
X22847Y11603D01*
X22790Y11529D01*
X22754Y11443D01*
X22742Y11350D01*
X22754Y11257D01*
X22790Y11171D01*
X22847Y11097D01*
X22921Y11040D01*
X23007Y11004D01*
X23100Y10992D01*
X23193Y11004D01*
X23279Y11040D01*
X23353Y11097D01*
X23410Y11171D01*
X23446Y11257D01*
X23458Y11350D01*
X23446Y11443D01*
X23410Y11529D01*
X23353Y11603D01*
X23279Y11660D01*
X23193Y11696D01*
X23100Y11708D01*
D02*
G37*
G36*
X13912Y11043D02*
X13850Y11030D01*
X13798Y10995D01*
X13763Y10943D01*
X13751Y10881D01*
X13763Y10819D01*
X13798Y10767D01*
X13850Y10732D01*
X13912Y10720D01*
X13974Y10732D01*
X14026Y10767D01*
X14061Y10819D01*
X14074Y10881D01*
X14061Y10943D01*
X14026Y10995D01*
X13974Y11030D01*
X13912Y11043D01*
D02*
G37*
G36*
X1484Y9708D02*
X1392Y9696D01*
X1305Y9660D01*
X1231Y9603D01*
X1174Y9529D01*
X1138Y9443D01*
X1126Y9350D01*
X1138Y9257D01*
X1174Y9171D01*
X1231Y9097D01*
X1305Y9040D01*
X1392Y9004D01*
X1484Y8992D01*
X1577Y9004D01*
X1663Y9040D01*
X1738Y9097D01*
X1795Y9171D01*
X1830Y9257D01*
X1843Y9350D01*
X1830Y9443D01*
X1795Y9529D01*
X1738Y9603D01*
X1663Y9660D01*
X1577Y9696D01*
X1484Y9708D01*
D02*
G37*
G36*
X1950Y11712D02*
X1888Y11699D01*
X1836Y11664D01*
X1801Y11612D01*
X1788Y11550D01*
X1801Y11488D01*
X1825Y11452D01*
X1803Y11402D01*
X1300D01*
X1261Y11394D01*
X1228Y11372D01*
X664Y10808D01*
X659Y10807D01*
X652Y10801D01*
X646Y10798D01*
X422Y10709D01*
X372Y10692D01*
X371Y10692D01*
X371Y10692D01*
X362Y10684D01*
X305Y10660D01*
X231Y10603D01*
X174Y10529D01*
X138Y10443D01*
X126Y10350D01*
X138Y10257D01*
X174Y10171D01*
X231Y10097D01*
X305Y10040D01*
X392Y10004D01*
X484Y9992D01*
X577Y10004D01*
X663Y10040D01*
X738Y10097D01*
X795Y10171D01*
X830Y10257D01*
X843Y10350D01*
X830Y10443D01*
X824Y10458D01*
X825Y10468D01*
X813Y10503D01*
X805Y10534D01*
X800Y10562D01*
X798Y10587D01*
X798Y10608D01*
X799Y10626D01*
X803Y10641D01*
X808Y10654D01*
X814Y10664D01*
X825Y10677D01*
X827Y10683D01*
X1342Y11198D01*
X8258D01*
X9798Y9658D01*
Y9207D01*
X9795Y9201D01*
X9795Y9193D01*
X9794Y9188D01*
X9794Y9183D01*
X9793Y9180D01*
X9792Y9177D01*
X9791Y9174D01*
X9790Y9172D01*
X9788Y9170D01*
X9787Y9168D01*
X9784Y9165D01*
X9781Y9156D01*
X9751Y9112D01*
X9738Y9050D01*
X9751Y8988D01*
X9786Y8936D01*
X9838Y8901D01*
X9900Y8888D01*
X9962Y8901D01*
X10014Y8936D01*
X10049Y8988D01*
X10062Y9050D01*
X10049Y9112D01*
X10019Y9156D01*
X10016Y9165D01*
X10013Y9168D01*
X10012Y9170D01*
X10010Y9172D01*
X10009Y9174D01*
X10008Y9177D01*
X10007Y9180D01*
X10006Y9183D01*
X10006Y9188D01*
X10005Y9193D01*
X10005Y9201D01*
X10002Y9207D01*
Y9700D01*
X9994Y9739D01*
X9972Y9772D01*
X8372Y11372D01*
X8339Y11394D01*
X8320Y11398D01*
X8325Y11448D01*
X8665D01*
X10112Y10001D01*
Y9857D01*
X10109Y9851D01*
X10109Y9843D01*
X10108Y9838D01*
X10107Y9833D01*
X10107Y9830D01*
X10106Y9827D01*
X10104Y9824D01*
X10103Y9822D01*
X10102Y9820D01*
X10101Y9818D01*
X10097Y9815D01*
X10094Y9806D01*
X10065Y9762D01*
X10052Y9700D01*
X10065Y9638D01*
X10094Y9594D01*
X10097Y9585D01*
X10101Y9582D01*
X10102Y9580D01*
X10103Y9578D01*
X10104Y9576D01*
X10106Y9573D01*
X10107Y9570D01*
X10107Y9567D01*
X10108Y9562D01*
X10109Y9557D01*
X10109Y9549D01*
X10112Y9543D01*
Y8901D01*
X9936Y8725D01*
X9203D01*
X8500Y9428D01*
X8467Y9450D01*
X8428Y9458D01*
X5407D01*
X5401Y9461D01*
X5393Y9461D01*
X5388Y9461D01*
X5383Y9462D01*
X5380Y9463D01*
X5377Y9464D01*
X5374Y9465D01*
X5372Y9466D01*
X5370Y9467D01*
X5368Y9469D01*
X5365Y9472D01*
X5356Y9475D01*
X5312Y9505D01*
X5250Y9517D01*
X5204Y9508D01*
X5154Y9537D01*
Y9935D01*
X5166Y9943D01*
X5201Y9996D01*
X5213Y10057D01*
X5201Y10119D01*
X5166Y10172D01*
X5113Y10207D01*
X5052Y10219D01*
X4990Y10207D01*
X4937Y10172D01*
X4902Y10119D01*
X4890Y10057D01*
X4902Y9996D01*
X4937Y9943D01*
X4950Y9935D01*
Y9274D01*
X4957Y9235D01*
X4979Y9201D01*
X5203Y8978D01*
X5225Y8964D01*
X5212Y8914D01*
X5131D01*
X3006Y11039D01*
X2973Y11061D01*
X2934Y11068D01*
X1516D01*
X1477Y11061D01*
X1444Y11039D01*
X928Y10522D01*
X906Y10489D01*
X898Y10450D01*
Y9892D01*
X761Y9755D01*
X755Y9753D01*
X743Y9743D01*
X732Y9736D01*
X717Y9730D01*
X698Y9723D01*
X675Y9718D01*
X648Y9713D01*
X617Y9710D01*
X543Y9709D01*
X500Y9710D01*
X493Y9707D01*
X484Y9708D01*
X392Y9696D01*
X305Y9660D01*
X231Y9603D01*
X174Y9529D01*
X138Y9443D01*
X126Y9350D01*
X138Y9257D01*
X174Y9171D01*
X231Y9097D01*
X305Y9040D01*
X392Y9004D01*
X484Y8992D01*
X577Y9004D01*
X663Y9040D01*
X738Y9097D01*
X795Y9171D01*
X830Y9257D01*
X840Y9330D01*
X844Y9339D01*
X846Y9384D01*
X849Y9423D01*
X858Y9494D01*
X864Y9521D01*
X870Y9545D01*
X878Y9565D01*
X885Y9581D01*
X892Y9592D01*
X901Y9603D01*
X903Y9609D01*
X1072Y9778D01*
X1094Y9811D01*
X1102Y9850D01*
Y10214D01*
X1152Y10224D01*
X1174Y10171D01*
X1231Y10097D01*
X1305Y10040D01*
X1392Y10004D01*
X1484Y9992D01*
X1577Y10004D01*
X1663Y10040D01*
X1738Y10097D01*
X1795Y10171D01*
X1830Y10257D01*
X1843Y10350D01*
X1830Y10443D01*
X1795Y10529D01*
X1738Y10603D01*
X1663Y10660D01*
X1577Y10696D01*
X1484Y10708D01*
X1472Y10707D01*
X1448Y10754D01*
X1559Y10865D01*
X2891D01*
X3107Y10649D01*
X3088Y10607D01*
X3083Y10602D01*
X2857D01*
X2851Y10605D01*
X2843Y10605D01*
X2838Y10606D01*
X2833Y10606D01*
X2830Y10607D01*
X2827Y10608D01*
X2824Y10609D01*
X2822Y10610D01*
X2820Y10612D01*
X2818Y10613D01*
X2815Y10616D01*
X2806Y10619D01*
X2762Y10649D01*
X2700Y10662D01*
X2638Y10649D01*
X2586Y10614D01*
X2551Y10562D01*
X2538Y10500D01*
X2551Y10438D01*
X2586Y10386D01*
X2638Y10351D01*
X2700Y10338D01*
X2762Y10351D01*
X2806Y10381D01*
X2815Y10384D01*
X2818Y10387D01*
X2820Y10388D01*
X2822Y10390D01*
X2824Y10391D01*
X2827Y10392D01*
X2830Y10393D01*
X2833Y10394D01*
X2838Y10394D01*
X2843Y10395D01*
X2851Y10395D01*
X2857Y10398D01*
X3043D01*
X4995Y8447D01*
X5028Y8425D01*
X5067Y8417D01*
X7838D01*
X7838Y8417D01*
X7856Y8376D01*
X7856Y8373D01*
X7856Y8367D01*
X7855Y8363D01*
X7544Y8052D01*
X4252D01*
X4213Y8044D01*
X4180Y8022D01*
X3987Y7829D01*
X3980Y7826D01*
X3974Y7821D01*
X3970Y7817D01*
X3967Y7815D01*
X3964Y7813D01*
X3961Y7811D01*
X3958Y7810D01*
X3956Y7810D01*
X3954Y7809D01*
X3951Y7809D01*
X3946Y7809D01*
X3938Y7805D01*
X3886Y7795D01*
X3833Y7759D01*
X3798Y7707D01*
X3786Y7645D01*
X3798Y7583D01*
X3833Y7531D01*
X3886Y7496D01*
X3948Y7484D01*
X4009Y7496D01*
X4062Y7531D01*
X4097Y7583D01*
X4107Y7636D01*
X4111Y7644D01*
X4111Y7649D01*
X4111Y7651D01*
X4112Y7653D01*
X4113Y7656D01*
X4114Y7658D01*
X4115Y7661D01*
X4117Y7664D01*
X4120Y7668D01*
X4123Y7672D01*
X4129Y7678D01*
X4131Y7685D01*
X4295Y7848D01*
X7586D01*
X7625Y7856D01*
X7658Y7878D01*
X8067Y8287D01*
X8090Y8320D01*
X8097Y8359D01*
Y8361D01*
X8100Y8368D01*
X8101Y8376D01*
X8101Y8381D01*
X8102Y8385D01*
X8103Y8389D01*
X8104Y8392D01*
X8105Y8395D01*
X8106Y8397D01*
X8107Y8399D01*
X8108Y8400D01*
X8112Y8404D01*
X8115Y8412D01*
X8145Y8457D01*
X8157Y8519D01*
X8145Y8581D01*
X8110Y8633D01*
X8070Y8660D01*
X8085Y8710D01*
X8246D01*
X8967Y7989D01*
X8969Y7983D01*
X8974Y7977D01*
X8978Y7973D01*
X8980Y7969D01*
X8982Y7966D01*
X8984Y7963D01*
X8985Y7960D01*
X8986Y7958D01*
X8986Y7956D01*
X8986Y7954D01*
X8987Y7949D01*
X8990Y7941D01*
X9001Y7888D01*
X9036Y7836D01*
X9088Y7801D01*
X9150Y7788D01*
X9212Y7801D01*
X9264Y7836D01*
X9299Y7888D01*
X9312Y7950D01*
X9299Y8012D01*
X9288Y8029D01*
X9327Y8060D01*
X9398Y7989D01*
X9401Y7983D01*
X9406Y7977D01*
X9409Y7973D01*
X9412Y7969D01*
X9414Y7966D01*
X9415Y7963D01*
X9417Y7960D01*
X9417Y7958D01*
X9418Y7956D01*
X9418Y7954D01*
X9418Y7949D01*
X9422Y7941D01*
X9432Y7888D01*
X9467Y7836D01*
X9520Y7801D01*
X9582Y7788D01*
X9643Y7801D01*
X9696Y7836D01*
X9731Y7888D01*
X9743Y7950D01*
X9731Y8012D01*
X9696Y8064D01*
X9643Y8099D01*
X9591Y8110D01*
X9583Y8113D01*
X9578Y8113D01*
X9576Y8114D01*
X9573Y8114D01*
X9571Y8115D01*
X9569Y8116D01*
X9566Y8118D01*
X9562Y8120D01*
X9559Y8122D01*
X9555Y8126D01*
X9549Y8131D01*
X9542Y8133D01*
X9204Y8471D01*
X9225Y8521D01*
X9430D01*
X9457Y8471D01*
X9451Y8462D01*
X9438Y8400D01*
X9451Y8338D01*
X9486Y8286D01*
X9538Y8251D01*
X9600Y8238D01*
X9662Y8251D01*
X9706Y8281D01*
X9715Y8284D01*
X9718Y8287D01*
X9720Y8288D01*
X9722Y8290D01*
X9724Y8291D01*
X9727Y8292D01*
X9730Y8293D01*
X9733Y8294D01*
X9738Y8294D01*
X9743Y8295D01*
X9751Y8295D01*
X9757Y8298D01*
X10043D01*
X10049Y8295D01*
X10057Y8295D01*
X10062Y8294D01*
X10067Y8294D01*
X10070Y8293D01*
X10073Y8292D01*
X10076Y8291D01*
X10078Y8290D01*
X10080Y8288D01*
X10082Y8287D01*
X10085Y8284D01*
X10094Y8281D01*
X10138Y8251D01*
X10200Y8238D01*
X10262Y8251D01*
X10314Y8286D01*
X10349Y8338D01*
X10362Y8400D01*
X10349Y8462D01*
X10314Y8514D01*
X10262Y8549D01*
X10200Y8562D01*
X10138Y8549D01*
X10094Y8519D01*
X10091Y8519D01*
X10090Y8520D01*
X10088Y8588D01*
X10286Y8787D01*
X10308Y8820D01*
X10316Y8859D01*
Y9543D01*
X10319Y9549D01*
X10319Y9557D01*
X10319Y9562D01*
X10320Y9567D01*
X10321Y9570D01*
X10322Y9573D01*
X10323Y9576D01*
X10324Y9578D01*
X10325Y9580D01*
X10327Y9582D01*
X10330Y9585D01*
X10333Y9594D01*
X10363Y9638D01*
X10375Y9700D01*
X10363Y9762D01*
X10333Y9806D01*
X10330Y9815D01*
X10327Y9818D01*
X10325Y9820D01*
X10324Y9822D01*
X10323Y9824D01*
X10322Y9827D01*
X10321Y9830D01*
X10320Y9833D01*
X10319Y9838D01*
X10319Y9843D01*
X10319Y9851D01*
X10316Y9857D01*
Y10043D01*
X10308Y10082D01*
X10286Y10115D01*
X8779Y11622D01*
X8746Y11644D01*
X8707Y11652D01*
X2107D01*
X2101Y11655D01*
X2093Y11655D01*
X2088Y11656D01*
X2083Y11656D01*
X2080Y11657D01*
X2077Y11658D01*
X2074Y11659D01*
X2072Y11660D01*
X2070Y11662D01*
X2068Y11663D01*
X2065Y11666D01*
X2056Y11669D01*
X2012Y11699D01*
X1950Y11712D01*
D02*
G37*
G36*
X23100Y8958D02*
X23007Y8946D01*
X22921Y8910D01*
X22847Y8853D01*
X22790Y8779D01*
X22754Y8693D01*
X22742Y8600D01*
X22754Y8507D01*
X22790Y8421D01*
X22847Y8347D01*
X22921Y8290D01*
X23007Y8254D01*
X23100Y8242D01*
X23193Y8254D01*
X23279Y8290D01*
X23353Y8347D01*
X23410Y8421D01*
X23446Y8507D01*
X23458Y8600D01*
X23446Y8693D01*
X23410Y8779D01*
X23353Y8853D01*
X23279Y8910D01*
X23193Y8946D01*
X23100Y8958D01*
D02*
G37*
G36*
X1484Y8708D02*
X1392Y8696D01*
X1305Y8660D01*
X1231Y8603D01*
X1174Y8529D01*
X1138Y8443D01*
X1126Y8350D01*
X1138Y8257D01*
X1174Y8171D01*
X1231Y8097D01*
X1305Y8040D01*
X1392Y8004D01*
X1484Y7992D01*
X1577Y8004D01*
X1663Y8040D01*
X1738Y8097D01*
X1795Y8171D01*
X1830Y8257D01*
X1843Y8350D01*
X1830Y8443D01*
X1795Y8529D01*
X1738Y8603D01*
X1663Y8660D01*
X1577Y8696D01*
X1484Y8708D01*
D02*
G37*
G36*
X23100Y7958D02*
X23007Y7946D01*
X22921Y7910D01*
X22847Y7853D01*
X22790Y7779D01*
X22754Y7693D01*
X22742Y7600D01*
X22754Y7507D01*
X22790Y7421D01*
X22847Y7347D01*
X22921Y7290D01*
X23007Y7254D01*
X23100Y7242D01*
X23193Y7254D01*
X23279Y7290D01*
X23353Y7347D01*
X23410Y7421D01*
X23446Y7507D01*
X23458Y7600D01*
X23446Y7693D01*
X23410Y7779D01*
X23353Y7853D01*
X23279Y7910D01*
X23193Y7946D01*
X23100Y7958D01*
D02*
G37*
G36*
X1484Y7708D02*
X1392Y7696D01*
X1305Y7660D01*
X1231Y7603D01*
X1174Y7529D01*
X1138Y7443D01*
X1126Y7350D01*
X1138Y7257D01*
X1174Y7171D01*
X1231Y7097D01*
X1305Y7040D01*
X1392Y7004D01*
X1484Y6992D01*
X1577Y7004D01*
X1663Y7040D01*
X1738Y7097D01*
X1795Y7171D01*
X1830Y7257D01*
X1843Y7350D01*
X1830Y7443D01*
X1795Y7529D01*
X1738Y7603D01*
X1663Y7660D01*
X1577Y7696D01*
X1484Y7708D01*
D02*
G37*
G36*
X484D02*
X392Y7696D01*
X305Y7660D01*
X231Y7603D01*
X174Y7529D01*
X138Y7443D01*
X126Y7350D01*
X138Y7257D01*
X174Y7171D01*
X231Y7097D01*
X305Y7040D01*
X392Y7004D01*
X484Y6992D01*
X577Y7004D01*
X663Y7040D01*
X738Y7097D01*
X795Y7171D01*
X830Y7257D01*
X843Y7350D01*
X830Y7443D01*
X795Y7529D01*
X738Y7603D01*
X663Y7660D01*
X577Y7696D01*
X484Y7708D01*
D02*
G37*
G36*
X2900Y8877D02*
X2838Y8865D01*
X2786Y8830D01*
X2751Y8778D01*
X2738Y8716D01*
X2751Y8654D01*
X2777Y8614D01*
X2778Y8612D01*
X2778Y8611D01*
X2778Y8609D01*
X2779Y8608D01*
X2779Y8607D01*
X2780Y8606D01*
X2780Y8605D01*
X2781Y8603D01*
X2781Y8600D01*
X2782Y8595D01*
X2783Y8581D01*
X2783Y8572D01*
X2786Y8565D01*
Y7812D01*
X2786Y7812D01*
X2795Y7769D01*
X2819Y7733D01*
X3164Y7387D01*
X3165Y7385D01*
X3170Y7381D01*
X3172Y7376D01*
X3178Y7369D01*
X3183Y7365D01*
X3186Y7360D01*
X3188Y7357D01*
X3189Y7355D01*
X3189Y7355D01*
X3190Y7353D01*
X3190Y7352D01*
X3190Y7352D01*
X3191Y7351D01*
X3188Y7338D01*
X3201Y7276D01*
X3236Y7224D01*
X3288Y7189D01*
X3350Y7176D01*
X3373Y7181D01*
X3378Y7176D01*
X3378Y7176D01*
X3414Y7152D01*
X3457Y7143D01*
X7156D01*
X7162Y7141D01*
X7181Y7140D01*
X7186Y7139D01*
X7191Y7139D01*
X7194Y7138D01*
X7196Y7137D01*
X7197Y7137D01*
X7198Y7136D01*
X7199Y7136D01*
X7200Y7136D01*
X7202Y7136D01*
X7203Y7135D01*
X7204Y7135D01*
X7247Y7106D01*
X7308Y7094D01*
X7370Y7106D01*
X7423Y7141D01*
X7423Y7143D01*
X7424Y7143D01*
X7425Y7144D01*
X7426Y7144D01*
X7427Y7144D01*
X7428Y7145D01*
X7431Y7145D01*
X7435Y7146D01*
X7449Y7147D01*
X7457Y7147D01*
X7459Y7148D01*
X7461Y7148D01*
X7466Y7150D01*
X8381D01*
X8469Y7062D01*
X8472Y7056D01*
X8485Y7042D01*
X8489Y7037D01*
X8496Y7028D01*
X8498Y7026D01*
X8499Y7024D01*
X8499Y7024D01*
X8499Y7022D01*
X8500Y7021D01*
X8500Y7021D01*
X8501Y7020D01*
X8503Y7017D01*
X8505Y7015D01*
X8510Y6993D01*
X8545Y6941D01*
X8597Y6905D01*
X8659Y6893D01*
X8721Y6905D01*
X8773Y6941D01*
X8808Y6993D01*
X8820Y7055D01*
X8808Y7117D01*
X8773Y7169D01*
X8721Y7204D01*
X8659Y7216D01*
X8645Y7214D01*
X8644Y7214D01*
X8643Y7214D01*
X8643Y7215D01*
X8641Y7215D01*
X8641Y7215D01*
X8639Y7217D01*
X8636Y7218D01*
X8626Y7227D01*
X8620Y7232D01*
X8614Y7235D01*
X8611Y7240D01*
X8608Y7240D01*
X8507Y7342D01*
X8471Y7366D01*
X8428Y7374D01*
X8428Y7374D01*
X7455D01*
X7449Y7377D01*
X7440Y7377D01*
X7425Y7378D01*
X7420Y7379D01*
X7416Y7380D01*
X7414Y7381D01*
X7413Y7381D01*
X7411Y7382D01*
X7410Y7382D01*
X7409Y7382D01*
X7408Y7382D01*
X7406Y7383D01*
X7402Y7384D01*
X7370Y7405D01*
X7308Y7417D01*
X7247Y7405D01*
X7204Y7376D01*
X7203Y7376D01*
X7202Y7376D01*
X7200Y7375D01*
X7199Y7375D01*
X7198Y7375D01*
X7197Y7374D01*
X7196Y7374D01*
X7194Y7373D01*
X7191Y7372D01*
X7187Y7372D01*
X7172Y7371D01*
X7163Y7371D01*
X7157Y7368D01*
X3506D01*
X3499Y7400D01*
X3464Y7452D01*
X3412Y7487D01*
X3389Y7492D01*
X3387Y7493D01*
X3384Y7496D01*
X3383Y7497D01*
X3383Y7497D01*
X3382Y7497D01*
X3380Y7498D01*
X3380Y7498D01*
X3378Y7499D01*
X3375Y7501D01*
X3373Y7503D01*
X3355Y7518D01*
X3349Y7524D01*
X3342Y7527D01*
X3010Y7859D01*
Y8563D01*
X3013Y8568D01*
X3014Y8587D01*
X3014Y8592D01*
X3015Y8597D01*
X3016Y8600D01*
X3016Y8602D01*
X3017Y8602D01*
X3017Y8603D01*
X3018Y8604D01*
X3018Y8605D01*
X3018Y8608D01*
X3018Y8608D01*
X3049Y8654D01*
X3062Y8716D01*
X3049Y8778D01*
X3014Y8830D01*
X2962Y8865D01*
X2900Y8877D01*
D02*
G37*
G36*
X5155Y6957D02*
X5093Y6945D01*
X5041Y6909D01*
X5005Y6857D01*
X4993Y6795D01*
X5005Y6733D01*
X5041Y6681D01*
X5093Y6646D01*
X5145Y6636D01*
X5153Y6632D01*
X5159Y6632D01*
X5161Y6632D01*
X5163Y6631D01*
X5165Y6630D01*
X5168Y6629D01*
X5171Y6628D01*
X5174Y6626D01*
X5178Y6623D01*
X5182Y6620D01*
X5187Y6614D01*
X5194Y6612D01*
X5322Y6484D01*
X5303Y6438D01*
X4413D01*
X4351Y6450D01*
X4289Y6438D01*
X4100D01*
X4047Y6427D01*
X4003Y6397D01*
X3653Y6048D01*
X2937D01*
X2396Y6588D01*
X2352Y6618D01*
X2299Y6629D01*
X1766D01*
X1761Y6631D01*
X1736Y6631D01*
X1719Y6632D01*
X1707Y6633D01*
X1706Y6633D01*
X1705Y6634D01*
X1668Y6659D01*
X1598Y6673D01*
X1529Y6659D01*
X1470Y6620D01*
X1430Y6561D01*
X1416Y6491D01*
X1430Y6422D01*
X1470Y6363D01*
X1529Y6323D01*
X1598Y6309D01*
X1668Y6323D01*
X1705Y6348D01*
X1749Y6351D01*
X1761Y6351D01*
X1766Y6353D01*
X2242D01*
X2783Y5813D01*
X2827Y5783D01*
X2880Y5772D01*
X3710D01*
X3763Y5783D01*
X3807Y5813D01*
X4157Y6162D01*
X4255D01*
X4289Y6139D01*
X4351Y6127D01*
X4413Y6139D01*
X4448Y6162D01*
X13186D01*
X13764Y5585D01*
X13761Y5561D01*
X13745Y5533D01*
X13729Y5534D01*
X13722Y5536D01*
X13479Y5779D01*
X13443Y5804D01*
X13400Y5812D01*
X13400Y5812D01*
X12670D01*
X12666Y5814D01*
X12662Y5813D01*
X12659Y5815D01*
X12650Y5815D01*
X12647Y5815D01*
X12614Y5864D01*
X12562Y5899D01*
X12500Y5912D01*
X12438Y5899D01*
X12386Y5864D01*
X12351Y5812D01*
X12338Y5750D01*
X12351Y5688D01*
X12386Y5636D01*
X12438Y5601D01*
X12456Y5597D01*
X12457Y5596D01*
X12500Y5588D01*
X12592D01*
X12640Y5585D01*
X12648Y5588D01*
X13354D01*
X13563Y5378D01*
X13565Y5372D01*
X13578Y5359D01*
X13581Y5354D01*
X13584Y5351D01*
X13586Y5348D01*
X13587Y5346D01*
X13587Y5345D01*
X13588Y5344D01*
X13588Y5343D01*
X13588Y5342D01*
X13590Y5340D01*
X13590Y5339D01*
X13591Y5339D01*
X13601Y5288D01*
X13630Y5245D01*
X13630Y5245D01*
X13630Y5244D01*
X13630Y5241D01*
X13631Y5240D01*
X13631Y5240D01*
X13632Y5238D01*
X13632Y5238D01*
X13632Y5236D01*
X13633Y5232D01*
X13634Y5228D01*
X13635Y5214D01*
X13635Y5205D01*
X13638Y5199D01*
Y4800D01*
X13638Y4800D01*
X13646Y4757D01*
X13671Y4721D01*
X14930Y3462D01*
X14932Y3455D01*
X14938Y3449D01*
X14942Y3444D01*
X14945Y3441D01*
X14946Y3439D01*
X14938Y3400D01*
X14951Y3338D01*
X14986Y3286D01*
X15038Y3251D01*
X15100Y3238D01*
X15162Y3251D01*
X15214Y3286D01*
X15249Y3338D01*
X15262Y3400D01*
X15249Y3462D01*
X15214Y3514D01*
X15176Y3539D01*
X15175Y3542D01*
X15136Y3576D01*
X15130Y3583D01*
X15123Y3586D01*
X13862Y4846D01*
Y5198D01*
X13865Y5204D01*
X13866Y5222D01*
X13866Y5228D01*
X13867Y5232D01*
X13868Y5236D01*
X13868Y5238D01*
X13868Y5238D01*
X13869Y5240D01*
X13869Y5240D01*
X13870Y5241D01*
X13870Y5244D01*
X13870Y5245D01*
X13870Y5245D01*
X13899Y5288D01*
X13912Y5350D01*
X13907Y5370D01*
X13954Y5395D01*
X16258Y3091D01*
X16303Y3061D01*
X16355Y3050D01*
X21688D01*
X21741Y3061D01*
X21785Y3091D01*
X22864Y4170D01*
X22869Y4171D01*
X22885Y4186D01*
X22900Y4196D01*
X22917Y4206D01*
X22936Y4215D01*
X22957Y4222D01*
X22980Y4229D01*
X23005Y4234D01*
X23033Y4237D01*
X23064Y4239D01*
X23098Y4240D01*
X23103Y4242D01*
X23193Y4254D01*
X23279Y4290D01*
X23353Y4347D01*
X23410Y4421D01*
X23446Y4507D01*
X23458Y4600D01*
X23446Y4693D01*
X23410Y4779D01*
X23353Y4853D01*
X23279Y4910D01*
X23193Y4946D01*
X23100Y4958D01*
X23007Y4946D01*
X22921Y4910D01*
X22847Y4853D01*
X22790Y4779D01*
X22754Y4693D01*
X22742Y4603D01*
X22740Y4598D01*
X22739Y4564D01*
X22737Y4533D01*
X22734Y4505D01*
X22729Y4480D01*
X22722Y4457D01*
X22715Y4436D01*
X22706Y4417D01*
X22696Y4400D01*
X22686Y4385D01*
X22671Y4369D01*
X22670Y4364D01*
X21631Y3326D01*
X16412D01*
X13403Y6335D01*
X13423Y6381D01*
X13775D01*
X14187Y5969D01*
X14220Y5947D01*
X14259Y5939D01*
X14319D01*
X14326Y5936D01*
X14334Y5936D01*
X14339Y5935D01*
X14343Y5934D01*
X14347Y5933D01*
X14350Y5932D01*
X14353Y5931D01*
X14355Y5930D01*
X14357Y5929D01*
X14358Y5928D01*
X14362Y5924D01*
X14370Y5921D01*
X14415Y5891D01*
X14477Y5879D01*
X14538Y5891D01*
X14591Y5926D01*
X14626Y5979D01*
X14638Y6041D01*
X14626Y6103D01*
X14591Y6155D01*
X14538Y6190D01*
X14477Y6202D01*
X14415Y6190D01*
X14370Y6160D01*
X14362Y6157D01*
X14358Y6154D01*
X14357Y6152D01*
X14355Y6151D01*
X14353Y6150D01*
X14350Y6149D01*
X14347Y6148D01*
X14343Y6147D01*
X14339Y6146D01*
X14334Y6146D01*
X14326Y6146D01*
X14319Y6143D01*
X14302D01*
X13889Y6555D01*
X13856Y6577D01*
X13817Y6585D01*
X5510D01*
X5338Y6756D01*
X5336Y6763D01*
X5330Y6768D01*
X5327Y6772D01*
X5324Y6776D01*
X5322Y6779D01*
X5321Y6782D01*
X5320Y6785D01*
X5319Y6787D01*
X5318Y6789D01*
X5318Y6791D01*
X5318Y6797D01*
X5314Y6805D01*
X5304Y6857D01*
X5269Y6909D01*
X5217Y6945D01*
X5155Y6957D01*
D02*
G37*
G36*
X23100Y6958D02*
X23007Y6946D01*
X22921Y6910D01*
X22847Y6853D01*
X22790Y6779D01*
X22754Y6693D01*
X22742Y6600D01*
X22754Y6507D01*
X22790Y6421D01*
X22847Y6347D01*
X22921Y6290D01*
X23007Y6254D01*
X23100Y6242D01*
X23193Y6254D01*
X23279Y6290D01*
X23353Y6347D01*
X23410Y6421D01*
X23446Y6507D01*
X23458Y6600D01*
X23446Y6693D01*
X23410Y6779D01*
X23353Y6853D01*
X23279Y6910D01*
X23193Y6946D01*
X23100Y6958D01*
D02*
G37*
G36*
X11950Y5812D02*
X11888Y5799D01*
X11836Y5764D01*
X11801Y5712D01*
X11788Y5650D01*
X11801Y5588D01*
X11831Y5544D01*
X11834Y5535D01*
X11837Y5532D01*
X11838Y5530D01*
X11840Y5528D01*
X11841Y5526D01*
X11842Y5523D01*
X11843Y5520D01*
X11844Y5517D01*
X11844Y5512D01*
X11845Y5507D01*
X11845Y5499D01*
X11848Y5493D01*
Y5431D01*
X11798Y5402D01*
X11750Y5412D01*
X11688Y5399D01*
X11636Y5364D01*
X11601Y5312D01*
X11589Y5255D01*
X11583Y5239D01*
X11561Y5217D01*
X11545Y5211D01*
X11488Y5199D01*
X11436Y5164D01*
X11401Y5112D01*
X11388Y5050D01*
X11401Y4988D01*
X11428Y4948D01*
X11432Y4926D01*
X11419Y4887D01*
X11386Y4864D01*
X11351Y4812D01*
X11338Y4750D01*
X11351Y4688D01*
X11371Y4658D01*
X11332Y4626D01*
X11061Y4897D01*
Y5349D01*
X11064Y5355D01*
X11065Y5364D01*
X11065Y5369D01*
X11066Y5374D01*
X11067Y5379D01*
X11068Y5383D01*
X11069Y5387D01*
X11070Y5390D01*
X11072Y5393D01*
X11073Y5395D01*
X11077Y5400D01*
X11080Y5412D01*
X11097Y5438D01*
X11109Y5500D01*
X11097Y5562D01*
X11062Y5614D01*
X11010Y5649D01*
X10948Y5662D01*
X10886Y5649D01*
X10834Y5614D01*
X10799Y5562D01*
X10786Y5500D01*
X10799Y5438D01*
X10834Y5386D01*
X10842Y5381D01*
X10845Y5373D01*
X10849Y5370D01*
X10850Y5369D01*
X10850Y5368D01*
X10851Y5367D01*
X10852Y5366D01*
X10852Y5364D01*
X10853Y5361D01*
X10854Y5357D01*
X10854Y5352D01*
X10855Y5345D01*
X10856Y5342D01*
X10855Y5338D01*
X10857Y5334D01*
Y4854D01*
X10865Y4815D01*
X10887Y4782D01*
X13215Y2455D01*
Y2157D01*
X13212Y2151D01*
X13212Y2143D01*
X13211Y2138D01*
X13210Y2133D01*
X13209Y2130D01*
X13208Y2127D01*
X13207Y2124D01*
X13206Y2122D01*
X13205Y2120D01*
X13204Y2118D01*
X13200Y2115D01*
X13197Y2106D01*
X13167Y2062D01*
X13155Y2000D01*
X13167Y1938D01*
X13202Y1886D01*
X13255Y1851D01*
X13269Y1848D01*
X13274Y1796D01*
X13271Y1795D01*
X13197Y1738D01*
X13140Y1663D01*
X13104Y1577D01*
X13092Y1484D01*
X13104Y1392D01*
X13140Y1305D01*
X13197Y1231D01*
X13271Y1174D01*
X13357Y1138D01*
X13450Y1126D01*
X13543Y1138D01*
X13629Y1174D01*
X13703Y1231D01*
X13760Y1305D01*
X13796Y1392D01*
X13808Y1484D01*
X13796Y1577D01*
X13760Y1663D01*
X13703Y1738D01*
X13629Y1795D01*
X13543Y1830D01*
X13455Y1842D01*
X13443Y1862D01*
X13434Y1891D01*
X13466Y1938D01*
X13478Y2000D01*
X13466Y2062D01*
X13436Y2106D01*
X13433Y2115D01*
X13430Y2118D01*
X13428Y2120D01*
X13427Y2122D01*
X13426Y2124D01*
X13425Y2127D01*
X13424Y2130D01*
X13423Y2133D01*
X13422Y2138D01*
X13422Y2143D01*
X13422Y2151D01*
X13419Y2157D01*
Y2384D01*
X13465Y2403D01*
X14023Y1845D01*
Y1208D01*
X14020Y1202D01*
X14020Y1194D01*
X14019Y1189D01*
X14018Y1184D01*
X14018Y1180D01*
X14017Y1177D01*
X14016Y1175D01*
X14014Y1173D01*
X14013Y1171D01*
X14012Y1169D01*
X14008Y1165D01*
X14005Y1157D01*
X13976Y1112D01*
X13963Y1051D01*
X13976Y989D01*
X14011Y936D01*
X14063Y901D01*
X14125Y889D01*
X14187Y901D01*
X14239Y936D01*
X14274Y989D01*
X14286Y1051D01*
X14274Y1112D01*
X14269Y1121D01*
X14302Y1161D01*
X14357Y1138D01*
X14450Y1126D01*
X14543Y1138D01*
X14629Y1174D01*
X14703Y1231D01*
X14748Y1289D01*
X14798Y1272D01*
Y696D01*
X14748Y679D01*
X14703Y738D01*
X14629Y795D01*
X14543Y830D01*
X14450Y843D01*
X14357Y830D01*
X14271Y795D01*
X14197Y738D01*
X14140Y663D01*
X14104Y577D01*
X14092Y484D01*
X14104Y392D01*
X14140Y305D01*
X14197Y231D01*
X14271Y174D01*
X14357Y138D01*
X14450Y126D01*
X14543Y138D01*
X14629Y174D01*
X14703Y231D01*
X14705Y233D01*
X14761Y223D01*
X14786Y186D01*
X14838Y151D01*
X14900Y138D01*
X14962Y151D01*
X15014Y186D01*
X15049Y238D01*
X15062Y300D01*
X15049Y362D01*
X15019Y406D01*
X15016Y415D01*
X15013Y418D01*
X15012Y420D01*
X15010Y422D01*
X15009Y424D01*
X15008Y427D01*
X15007Y430D01*
X15006Y433D01*
X15006Y438D01*
X15005Y443D01*
X15005Y451D01*
X15002Y457D01*
Y606D01*
X15052Y635D01*
X15072Y631D01*
X15105Y580D01*
X15104Y577D01*
X15092Y484D01*
X15104Y392D01*
X15140Y305D01*
X15197Y231D01*
X15271Y174D01*
X15357Y138D01*
X15450Y126D01*
X15543Y138D01*
X15629Y174D01*
X15703Y231D01*
X15760Y305D01*
X15796Y392D01*
X15808Y484D01*
X15796Y577D01*
X15760Y663D01*
X15703Y738D01*
X15688Y749D01*
X15709Y796D01*
X15750Y788D01*
X15812Y800D01*
X15864Y835D01*
X15881Y861D01*
X15928Y841D01*
X15928Y840D01*
X15940Y778D01*
X15975Y726D01*
X16028Y691D01*
X16090Y678D01*
X16092Y679D01*
X16128Y635D01*
X16104Y577D01*
X16092Y484D01*
X16104Y392D01*
X16140Y305D01*
X16197Y231D01*
X16271Y174D01*
X16357Y138D01*
X16450Y126D01*
X16543Y138D01*
X16629Y174D01*
X16703Y231D01*
X16760Y305D01*
X16796Y392D01*
X16808Y484D01*
X16796Y577D01*
X16760Y663D01*
X16703Y738D01*
X16629Y795D01*
X16543Y830D01*
X16450Y843D01*
X16357Y830D01*
X16295Y805D01*
X16251Y840D01*
X16239Y902D01*
X16204Y954D01*
X16166Y979D01*
X16161Y986D01*
X16160Y988D01*
X16160Y992D01*
X16160Y1000D01*
X16157Y1006D01*
Y1208D01*
X16207Y1223D01*
X16271Y1174D01*
X16357Y1138D01*
X16450Y1126D01*
X16543Y1138D01*
X16629Y1174D01*
X16703Y1231D01*
X16760Y1305D01*
X16796Y1392D01*
X16808Y1484D01*
X16796Y1577D01*
X16760Y1663D01*
X16703Y1738D01*
X16629Y1795D01*
X16543Y1830D01*
X16450Y1843D01*
X16357Y1830D01*
X16271Y1795D01*
X16197Y1738D01*
X16140Y1663D01*
X16123Y1624D01*
X16064Y1612D01*
X12359Y5317D01*
X12358Y5321D01*
X12349Y5338D01*
X12362Y5400D01*
X12349Y5462D01*
X12314Y5514D01*
X12262Y5549D01*
X12200Y5562D01*
X12138Y5549D01*
X12129Y5543D01*
X12093Y5579D01*
X12099Y5588D01*
X12112Y5650D01*
X12099Y5712D01*
X12064Y5764D01*
X12012Y5799D01*
X11950Y5812D01*
D02*
G37*
G36*
X8699Y4112D02*
X8637Y4100D01*
X8584Y4065D01*
X8549Y4012D01*
X8539Y3961D01*
X8539Y3961D01*
X8539Y3960D01*
X8537Y3958D01*
X8537Y3957D01*
X8536Y3957D01*
X8536Y3955D01*
X8536Y3955D01*
X8535Y3953D01*
X8533Y3950D01*
X8530Y3947D01*
X8521Y3935D01*
X8515Y3929D01*
X8512Y3923D01*
X7594Y3004D01*
X6410D01*
X6404Y3007D01*
X6386Y3008D01*
X6381Y3008D01*
X6376Y3009D01*
X6372Y3010D01*
X6370Y3010D01*
X6370Y3011D01*
X6369Y3011D01*
X6368Y3012D01*
X6367Y3012D01*
X6365Y3012D01*
X6363Y3012D01*
X6363Y3013D01*
X6320Y3041D01*
X6258Y3054D01*
X6196Y3041D01*
X6144Y3006D01*
X6109Y2954D01*
X6099Y2903D01*
X6098Y2903D01*
X6098Y2902D01*
X6096Y2900D01*
X6096Y2899D01*
X6096Y2898D01*
X6095Y2897D01*
X6095Y2896D01*
X6094Y2895D01*
X6092Y2892D01*
X6090Y2888D01*
X6080Y2877D01*
X6074Y2871D01*
X6072Y2864D01*
X5542Y2334D01*
X4826D01*
X4824Y2336D01*
X4818Y2335D01*
X4812Y2337D01*
X4803Y2337D01*
X4796Y2338D01*
X4791Y2338D01*
X4788Y2339D01*
X4787Y2339D01*
X4786Y2340D01*
X4780Y2343D01*
X4773Y2353D01*
X4721Y2388D01*
X4659Y2401D01*
X4597Y2388D01*
X4545Y2353D01*
X4538Y2343D01*
X4531Y2340D01*
X4531Y2339D01*
X4530Y2339D01*
X4526Y2338D01*
X4521Y2338D01*
X4515Y2337D01*
X4506Y2337D01*
X4500Y2335D01*
X4494Y2336D01*
X4492Y2334D01*
X3602D01*
X3596Y2337D01*
X3578Y2338D01*
X3572Y2338D01*
X3568Y2339D01*
X3564Y2340D01*
X3562Y2340D01*
X3562Y2341D01*
X3560Y2341D01*
X3560Y2342D01*
X3559Y2342D01*
X3556Y2342D01*
X3555Y2342D01*
X3555Y2343D01*
X3512Y2371D01*
X3450Y2384D01*
X3388Y2371D01*
X3336Y2336D01*
X3301Y2284D01*
X3288Y2222D01*
X3301Y2160D01*
X3336Y2108D01*
X3388Y2073D01*
X3450Y2061D01*
X3512Y2073D01*
X3555Y2102D01*
X3555Y2102D01*
X3556Y2102D01*
X3559Y2102D01*
X3560Y2103D01*
X3560Y2103D01*
X3562Y2104D01*
X3562Y2104D01*
X3564Y2104D01*
X3568Y2105D01*
X3572Y2106D01*
X3586Y2107D01*
X3595Y2107D01*
X3601Y2110D01*
X4520D01*
X4527Y2107D01*
X4536Y2107D01*
X4559Y2105D01*
X4561Y2105D01*
X4568Y2103D01*
X4570Y2103D01*
X4571Y2103D01*
X4571Y2103D01*
X4572Y2103D01*
X4572Y2103D01*
X4572Y2103D01*
X4572Y2103D01*
X4576Y2102D01*
X4579Y2102D01*
X4597Y2090D01*
X4659Y2077D01*
X4721Y2090D01*
X4739Y2102D01*
X4742Y2102D01*
X4745Y2103D01*
X4745Y2103D01*
X4746Y2103D01*
X4746Y2103D01*
X4747Y2103D01*
X4747Y2103D01*
X4748Y2103D01*
X4749Y2103D01*
X4756Y2105D01*
X4759Y2105D01*
X4782Y2107D01*
X4791Y2107D01*
X4797Y2110D01*
X5588D01*
X5588Y2110D01*
X5631Y2119D01*
X5667Y2143D01*
X6230Y2705D01*
X6236Y2707D01*
X6249Y2720D01*
X6254Y2723D01*
X6257Y2726D01*
X6260Y2728D01*
X6262Y2729D01*
X6263Y2729D01*
X6264Y2730D01*
X6265Y2730D01*
X6266Y2730D01*
X6268Y2732D01*
X6269Y2733D01*
X6269Y2733D01*
X6320Y2743D01*
X6363Y2772D01*
X6363Y2772D01*
X6365Y2772D01*
X6367Y2772D01*
X6368Y2773D01*
X6369Y2773D01*
X6370Y2774D01*
X6370Y2774D01*
X6372Y2774D01*
X6376Y2775D01*
X6380Y2776D01*
X6394Y2777D01*
X6403Y2777D01*
X6409Y2780D01*
X7640D01*
X7640Y2780D01*
X7683Y2789D01*
X7720Y2813D01*
X8670Y3763D01*
X8677Y3766D01*
X8690Y3778D01*
X8694Y3782D01*
X8698Y3785D01*
X8701Y3786D01*
X8703Y3788D01*
X8703Y3788D01*
X8705Y3788D01*
X8706Y3788D01*
X8707Y3789D01*
X8708Y3790D01*
X8709Y3791D01*
X8710Y3791D01*
X8761Y3801D01*
X8804Y3830D01*
X8804Y3830D01*
X8805Y3830D01*
X8807Y3831D01*
X8808Y3831D01*
X8809Y3831D01*
X8811Y3832D01*
X8811Y3832D01*
X8813Y3833D01*
X8816Y3834D01*
X8820Y3834D01*
X8835Y3835D01*
X8844Y3835D01*
X8850Y3838D01*
X9838D01*
X9845Y3830D01*
X9860Y3788D01*
X9833Y3748D01*
X9821Y3686D01*
X9833Y3624D01*
X9863Y3580D01*
X9866Y3572D01*
X9869Y3568D01*
X9871Y3566D01*
X9872Y3564D01*
X9873Y3562D01*
X9874Y3560D01*
X9875Y3557D01*
X9876Y3553D01*
X9877Y3548D01*
X9877Y3543D01*
X9877Y3535D01*
X9880Y3529D01*
Y1302D01*
X9888Y1263D01*
X9910Y1230D01*
X9998Y1142D01*
Y997D01*
X9995Y991D01*
X9995Y983D01*
X9994Y978D01*
X9994Y973D01*
X9993Y970D01*
X9992Y967D01*
X9991Y964D01*
X9990Y962D01*
X9988Y960D01*
X9987Y958D01*
X9984Y955D01*
X9981Y946D01*
X9951Y902D01*
X9938Y840D01*
X9951Y778D01*
X9986Y726D01*
X10038Y691D01*
X10092Y680D01*
X10110Y661D01*
X10127Y633D01*
X10104Y577D01*
X10092Y484D01*
X10104Y392D01*
X10140Y305D01*
X10197Y231D01*
X10271Y174D01*
X10357Y138D01*
X10450Y126D01*
X10543Y138D01*
X10629Y174D01*
X10703Y231D01*
X10760Y305D01*
X10796Y392D01*
X10808Y484D01*
X10796Y577D01*
X10760Y663D01*
X10703Y738D01*
X10629Y795D01*
X10543Y830D01*
X10450Y843D01*
X10357Y830D01*
X10306Y809D01*
X10264Y838D01*
X10261Y844D01*
X10249Y902D01*
X10219Y946D01*
X10216Y955D01*
X10213Y958D01*
X10212Y960D01*
X10210Y962D01*
X10209Y964D01*
X10208Y967D01*
X10207Y970D01*
X10206Y973D01*
X10206Y978D01*
X10205Y983D01*
X10205Y991D01*
X10202Y997D01*
Y1164D01*
X10248Y1190D01*
X10250Y1190D01*
X10271Y1174D01*
X10357Y1138D01*
X10450Y1126D01*
X10543Y1138D01*
X10629Y1174D01*
X10703Y1231D01*
X10760Y1305D01*
X10796Y1392D01*
X10808Y1484D01*
X10796Y1577D01*
X10760Y1663D01*
X10703Y1738D01*
X10629Y1795D01*
X10543Y1830D01*
X10450Y1843D01*
X10357Y1830D01*
X10271Y1795D01*
X10197Y1738D01*
X10140Y1663D01*
X10134Y1650D01*
X10084Y1660D01*
Y3529D01*
X10087Y3535D01*
X10087Y3543D01*
X10088Y3548D01*
X10089Y3553D01*
X10089Y3557D01*
X10090Y3560D01*
X10091Y3562D01*
X10093Y3564D01*
X10094Y3566D01*
X10095Y3568D01*
X10099Y3572D01*
X10102Y3580D01*
X10131Y3624D01*
X10144Y3686D01*
X10131Y3748D01*
X10105Y3788D01*
X10120Y3830D01*
X10127Y3838D01*
X10553D01*
X10621Y3771D01*
X10621Y3771D01*
X10657Y3746D01*
X10700Y3738D01*
X10700Y3738D01*
X11298D01*
X11304Y3735D01*
X11322Y3734D01*
X11328Y3734D01*
X11332Y3733D01*
X11336Y3732D01*
X11338Y3732D01*
X11338Y3732D01*
X11340Y3731D01*
X11340Y3731D01*
X11341Y3730D01*
X11344Y3730D01*
X11345Y3730D01*
X11345Y3730D01*
X11388Y3701D01*
X11450Y3688D01*
X11512Y3701D01*
X11564Y3736D01*
X11599Y3788D01*
X11612Y3850D01*
X11599Y3912D01*
X11564Y3964D01*
X11512Y3999D01*
X11450Y4012D01*
X11388Y3999D01*
X11345Y3970D01*
X11345Y3970D01*
X11344Y3970D01*
X11341Y3970D01*
X11340Y3969D01*
X11340Y3969D01*
X11338Y3968D01*
X11338Y3968D01*
X11336Y3968D01*
X11332Y3967D01*
X11328Y3966D01*
X11314Y3965D01*
X11305Y3965D01*
X11299Y3962D01*
X10746D01*
X10679Y4030D01*
X10643Y4054D01*
X10600Y4063D01*
X10600Y4063D01*
X8851D01*
X8845Y4065D01*
X8827Y4066D01*
X8821Y4067D01*
X8816Y4067D01*
X8813Y4068D01*
X8811Y4069D01*
X8811Y4069D01*
X8809Y4070D01*
X8808Y4070D01*
X8807Y4070D01*
X8805Y4070D01*
X8804Y4071D01*
X8804Y4071D01*
X8761Y4100D01*
X8699Y4112D01*
D02*
G37*
G36*
X23100Y3958D02*
X23007Y3946D01*
X22921Y3910D01*
X22847Y3853D01*
X22790Y3779D01*
X22754Y3693D01*
X22742Y3600D01*
X22754Y3507D01*
X22790Y3421D01*
X22847Y3347D01*
X22921Y3290D01*
X23007Y3254D01*
X23100Y3242D01*
X23193Y3254D01*
X23279Y3290D01*
X23353Y3347D01*
X23410Y3421D01*
X23446Y3507D01*
X23458Y3600D01*
X23446Y3693D01*
X23410Y3779D01*
X23353Y3853D01*
X23279Y3910D01*
X23193Y3946D01*
X23100Y3958D01*
D02*
G37*
G36*
X21450Y1843D02*
X21357Y1830D01*
X21271Y1795D01*
X21197Y1738D01*
X21140Y1663D01*
X21104Y1577D01*
X21092Y1484D01*
X21104Y1392D01*
X21140Y1305D01*
X21197Y1231D01*
X21271Y1174D01*
X21357Y1138D01*
X21450Y1126D01*
X21543Y1138D01*
X21629Y1174D01*
X21703Y1231D01*
X21760Y1305D01*
X21796Y1392D01*
X21808Y1484D01*
X21796Y1577D01*
X21760Y1663D01*
X21703Y1738D01*
X21629Y1795D01*
X21543Y1830D01*
X21450Y1843D01*
D02*
G37*
G36*
X20450D02*
X20357Y1830D01*
X20271Y1795D01*
X20197Y1738D01*
X20140Y1663D01*
X20104Y1577D01*
X20092Y1484D01*
X20104Y1392D01*
X20140Y1305D01*
X20197Y1231D01*
X20271Y1174D01*
X20357Y1138D01*
X20450Y1126D01*
X20543Y1138D01*
X20629Y1174D01*
X20703Y1231D01*
X20760Y1305D01*
X20796Y1392D01*
X20808Y1484D01*
X20796Y1577D01*
X20760Y1663D01*
X20703Y1738D01*
X20629Y1795D01*
X20543Y1830D01*
X20450Y1843D01*
D02*
G37*
G36*
X19450D02*
X19357Y1830D01*
X19271Y1795D01*
X19197Y1738D01*
X19140Y1663D01*
X19104Y1577D01*
X19092Y1484D01*
X19104Y1392D01*
X19140Y1305D01*
X19197Y1231D01*
X19271Y1174D01*
X19357Y1138D01*
X19450Y1126D01*
X19543Y1138D01*
X19629Y1174D01*
X19703Y1231D01*
X19760Y1305D01*
X19796Y1392D01*
X19808Y1484D01*
X19796Y1577D01*
X19760Y1663D01*
X19703Y1738D01*
X19629Y1795D01*
X19543Y1830D01*
X19450Y1843D01*
D02*
G37*
G36*
X18450D02*
X18357Y1830D01*
X18271Y1795D01*
X18197Y1738D01*
X18140Y1663D01*
X18104Y1577D01*
X18092Y1484D01*
X18104Y1392D01*
X18140Y1305D01*
X18197Y1231D01*
X18271Y1174D01*
X18357Y1138D01*
X18450Y1126D01*
X18543Y1138D01*
X18629Y1174D01*
X18703Y1231D01*
X18760Y1305D01*
X18796Y1392D01*
X18808Y1484D01*
X18796Y1577D01*
X18760Y1663D01*
X18703Y1738D01*
X18629Y1795D01*
X18543Y1830D01*
X18450Y1843D01*
D02*
G37*
G36*
X17450D02*
X17357Y1830D01*
X17271Y1795D01*
X17197Y1738D01*
X17140Y1663D01*
X17104Y1577D01*
X17092Y1484D01*
X17104Y1392D01*
X17140Y1305D01*
X17197Y1231D01*
X17271Y1174D01*
X17357Y1138D01*
X17450Y1126D01*
X17543Y1138D01*
X17629Y1174D01*
X17703Y1231D01*
X17760Y1305D01*
X17796Y1392D01*
X17808Y1484D01*
X17796Y1577D01*
X17760Y1663D01*
X17703Y1738D01*
X17629Y1795D01*
X17543Y1830D01*
X17450Y1843D01*
D02*
G37*
G36*
X12450D02*
X12357Y1830D01*
X12271Y1795D01*
X12197Y1738D01*
X12140Y1663D01*
X12104Y1577D01*
X12092Y1484D01*
X12104Y1392D01*
X12140Y1305D01*
X12197Y1231D01*
X12271Y1174D01*
X12357Y1138D01*
X12450Y1126D01*
X12543Y1138D01*
X12629Y1174D01*
X12703Y1231D01*
X12760Y1305D01*
X12796Y1392D01*
X12808Y1484D01*
X12796Y1577D01*
X12760Y1663D01*
X12703Y1738D01*
X12629Y1795D01*
X12543Y1830D01*
X12450Y1843D01*
D02*
G37*
G36*
X11450D02*
X11357Y1830D01*
X11271Y1795D01*
X11197Y1738D01*
X11140Y1663D01*
X11104Y1577D01*
X11092Y1484D01*
X11104Y1392D01*
X11140Y1305D01*
X11197Y1231D01*
X11271Y1174D01*
X11357Y1138D01*
X11450Y1126D01*
X11543Y1138D01*
X11629Y1174D01*
X11703Y1231D01*
X11760Y1305D01*
X11796Y1392D01*
X11808Y1484D01*
X11796Y1577D01*
X11760Y1663D01*
X11703Y1738D01*
X11629Y1795D01*
X11543Y1830D01*
X11450Y1843D01*
D02*
G37*
G36*
X9450D02*
X9357Y1830D01*
X9271Y1795D01*
X9197Y1738D01*
X9140Y1663D01*
X9104Y1577D01*
X9092Y1484D01*
X9104Y1392D01*
X9140Y1305D01*
X9197Y1231D01*
X9271Y1174D01*
X9357Y1138D01*
X9450Y1126D01*
X9543Y1138D01*
X9629Y1174D01*
X9703Y1231D01*
X9760Y1305D01*
X9796Y1392D01*
X9808Y1484D01*
X9796Y1577D01*
X9760Y1663D01*
X9703Y1738D01*
X9629Y1795D01*
X9543Y1830D01*
X9450Y1843D01*
D02*
G37*
G36*
X8450D02*
X8357Y1830D01*
X8271Y1795D01*
X8197Y1738D01*
X8140Y1663D01*
X8104Y1577D01*
X8092Y1484D01*
X8104Y1392D01*
X8140Y1305D01*
X8197Y1231D01*
X8271Y1174D01*
X8357Y1138D01*
X8450Y1126D01*
X8543Y1138D01*
X8629Y1174D01*
X8703Y1231D01*
X8760Y1305D01*
X8796Y1392D01*
X8808Y1484D01*
X8796Y1577D01*
X8760Y1663D01*
X8703Y1738D01*
X8629Y1795D01*
X8543Y1830D01*
X8450Y1843D01*
D02*
G37*
G36*
X7450D02*
X7357Y1830D01*
X7271Y1795D01*
X7197Y1738D01*
X7140Y1663D01*
X7104Y1577D01*
X7092Y1484D01*
X7104Y1392D01*
X7140Y1305D01*
X7197Y1231D01*
X7271Y1174D01*
X7357Y1138D01*
X7450Y1126D01*
X7543Y1138D01*
X7629Y1174D01*
X7703Y1231D01*
X7760Y1305D01*
X7796Y1392D01*
X7808Y1484D01*
X7796Y1577D01*
X7760Y1663D01*
X7703Y1738D01*
X7629Y1795D01*
X7543Y1830D01*
X7450Y1843D01*
D02*
G37*
G36*
X6450D02*
X6357Y1830D01*
X6271Y1795D01*
X6197Y1738D01*
X6140Y1663D01*
X6104Y1577D01*
X6092Y1484D01*
X6104Y1392D01*
X6140Y1305D01*
X6197Y1231D01*
X6271Y1174D01*
X6357Y1138D01*
X6450Y1126D01*
X6543Y1138D01*
X6629Y1174D01*
X6703Y1231D01*
X6760Y1305D01*
X6796Y1392D01*
X6808Y1484D01*
X6796Y1577D01*
X6760Y1663D01*
X6703Y1738D01*
X6629Y1795D01*
X6543Y1830D01*
X6450Y1843D01*
D02*
G37*
G36*
X5450D02*
X5357Y1830D01*
X5271Y1795D01*
X5197Y1738D01*
X5140Y1663D01*
X5104Y1577D01*
X5092Y1484D01*
X5104Y1392D01*
X5140Y1305D01*
X5197Y1231D01*
X5271Y1174D01*
X5357Y1138D01*
X5450Y1126D01*
X5543Y1138D01*
X5629Y1174D01*
X5703Y1231D01*
X5760Y1305D01*
X5796Y1392D01*
X5808Y1484D01*
X5796Y1577D01*
X5760Y1663D01*
X5703Y1738D01*
X5629Y1795D01*
X5543Y1830D01*
X5450Y1843D01*
D02*
G37*
G36*
X4450D02*
X4357Y1830D01*
X4271Y1795D01*
X4197Y1738D01*
X4140Y1663D01*
X4104Y1577D01*
X4092Y1484D01*
X4104Y1392D01*
X4140Y1305D01*
X4197Y1231D01*
X4271Y1174D01*
X4357Y1138D01*
X4450Y1126D01*
X4543Y1138D01*
X4629Y1174D01*
X4703Y1231D01*
X4760Y1305D01*
X4796Y1392D01*
X4808Y1484D01*
X4796Y1577D01*
X4760Y1663D01*
X4703Y1738D01*
X4629Y1795D01*
X4543Y1830D01*
X4450Y1843D01*
D02*
G37*
G36*
X3450D02*
X3357Y1830D01*
X3271Y1795D01*
X3197Y1738D01*
X3140Y1663D01*
X3104Y1577D01*
X3092Y1484D01*
X3104Y1392D01*
X3140Y1305D01*
X3197Y1231D01*
X3271Y1174D01*
X3357Y1138D01*
X3450Y1126D01*
X3543Y1138D01*
X3629Y1174D01*
X3703Y1231D01*
X3760Y1305D01*
X3796Y1392D01*
X3808Y1484D01*
X3796Y1577D01*
X3760Y1663D01*
X3703Y1738D01*
X3629Y1795D01*
X3543Y1830D01*
X3450Y1843D01*
D02*
G37*
G36*
X2450D02*
X2357Y1830D01*
X2271Y1795D01*
X2197Y1738D01*
X2140Y1663D01*
X2104Y1577D01*
X2092Y1484D01*
X2104Y1392D01*
X2140Y1305D01*
X2197Y1231D01*
X2271Y1174D01*
X2357Y1138D01*
X2450Y1126D01*
X2543Y1138D01*
X2629Y1174D01*
X2703Y1231D01*
X2760Y1305D01*
X2796Y1392D01*
X2808Y1484D01*
X2796Y1577D01*
X2760Y1663D01*
X2703Y1738D01*
X2629Y1795D01*
X2543Y1830D01*
X2450Y1843D01*
D02*
G37*
G36*
X21450Y843D02*
X21357Y830D01*
X21271Y795D01*
X21197Y738D01*
X21140Y663D01*
X21104Y577D01*
X21092Y484D01*
X21104Y392D01*
X21140Y305D01*
X21197Y231D01*
X21271Y174D01*
X21357Y138D01*
X21450Y126D01*
X21543Y138D01*
X21629Y174D01*
X21703Y231D01*
X21760Y305D01*
X21796Y392D01*
X21808Y484D01*
X21796Y577D01*
X21760Y663D01*
X21703Y738D01*
X21629Y795D01*
X21543Y830D01*
X21450Y843D01*
D02*
G37*
G36*
X20450D02*
X20357Y830D01*
X20271Y795D01*
X20197Y738D01*
X20140Y663D01*
X20104Y577D01*
X20092Y484D01*
X20104Y392D01*
X20140Y305D01*
X20197Y231D01*
X20271Y174D01*
X20357Y138D01*
X20450Y126D01*
X20543Y138D01*
X20629Y174D01*
X20703Y231D01*
X20760Y305D01*
X20796Y392D01*
X20808Y484D01*
X20796Y577D01*
X20760Y663D01*
X20703Y738D01*
X20629Y795D01*
X20543Y830D01*
X20450Y843D01*
D02*
G37*
G36*
X19450D02*
X19357Y830D01*
X19271Y795D01*
X19197Y738D01*
X19140Y663D01*
X19104Y577D01*
X19092Y484D01*
X19104Y392D01*
X19140Y305D01*
X19197Y231D01*
X19271Y174D01*
X19357Y138D01*
X19450Y126D01*
X19543Y138D01*
X19629Y174D01*
X19703Y231D01*
X19760Y305D01*
X19796Y392D01*
X19808Y484D01*
X19796Y577D01*
X19760Y663D01*
X19703Y738D01*
X19629Y795D01*
X19543Y830D01*
X19450Y843D01*
D02*
G37*
G36*
X18450D02*
X18357Y830D01*
X18271Y795D01*
X18197Y738D01*
X18140Y663D01*
X18104Y577D01*
X18092Y484D01*
X18104Y392D01*
X18140Y305D01*
X18197Y231D01*
X18271Y174D01*
X18357Y138D01*
X18450Y126D01*
X18543Y138D01*
X18629Y174D01*
X18703Y231D01*
X18760Y305D01*
X18796Y392D01*
X18808Y484D01*
X18796Y577D01*
X18760Y663D01*
X18703Y738D01*
X18629Y795D01*
X18543Y830D01*
X18450Y843D01*
D02*
G37*
G36*
X17450D02*
X17357Y830D01*
X17271Y795D01*
X17197Y738D01*
X17140Y663D01*
X17104Y577D01*
X17092Y484D01*
X17104Y392D01*
X17140Y305D01*
X17197Y231D01*
X17271Y174D01*
X17357Y138D01*
X17450Y126D01*
X17543Y138D01*
X17629Y174D01*
X17703Y231D01*
X17760Y305D01*
X17796Y392D01*
X17808Y484D01*
X17796Y577D01*
X17760Y663D01*
X17703Y738D01*
X17629Y795D01*
X17543Y830D01*
X17450Y843D01*
D02*
G37*
G36*
X13450D02*
X13357Y830D01*
X13271Y795D01*
X13197Y738D01*
X13140Y663D01*
X13104Y577D01*
X13092Y484D01*
X13104Y392D01*
X13140Y305D01*
X13197Y231D01*
X13271Y174D01*
X13357Y138D01*
X13450Y126D01*
X13543Y138D01*
X13629Y174D01*
X13703Y231D01*
X13760Y305D01*
X13796Y392D01*
X13808Y484D01*
X13796Y577D01*
X13760Y663D01*
X13703Y738D01*
X13629Y795D01*
X13543Y830D01*
X13450Y843D01*
D02*
G37*
G36*
X12450D02*
X12357Y830D01*
X12271Y795D01*
X12197Y738D01*
X12140Y663D01*
X12104Y577D01*
X12092Y484D01*
X12104Y392D01*
X12140Y305D01*
X12197Y231D01*
X12271Y174D01*
X12357Y138D01*
X12450Y126D01*
X12543Y138D01*
X12629Y174D01*
X12703Y231D01*
X12760Y305D01*
X12796Y392D01*
X12808Y484D01*
X12796Y577D01*
X12760Y663D01*
X12703Y738D01*
X12629Y795D01*
X12543Y830D01*
X12450Y843D01*
D02*
G37*
G36*
X11450D02*
X11357Y830D01*
X11271Y795D01*
X11197Y738D01*
X11140Y663D01*
X11104Y577D01*
X11092Y484D01*
X11104Y392D01*
X11140Y305D01*
X11197Y231D01*
X11271Y174D01*
X11357Y138D01*
X11450Y126D01*
X11543Y138D01*
X11629Y174D01*
X11703Y231D01*
X11760Y305D01*
X11796Y392D01*
X11808Y484D01*
X11796Y577D01*
X11760Y663D01*
X11703Y738D01*
X11629Y795D01*
X11543Y830D01*
X11450Y843D01*
D02*
G37*
G36*
X9450D02*
X9357Y830D01*
X9271Y795D01*
X9197Y738D01*
X9140Y663D01*
X9104Y577D01*
X9092Y484D01*
X9104Y392D01*
X9140Y305D01*
X9197Y231D01*
X9271Y174D01*
X9357Y138D01*
X9450Y126D01*
X9543Y138D01*
X9629Y174D01*
X9703Y231D01*
X9760Y305D01*
X9796Y392D01*
X9808Y484D01*
X9796Y577D01*
X9760Y663D01*
X9703Y738D01*
X9629Y795D01*
X9543Y830D01*
X9450Y843D01*
D02*
G37*
G36*
X8450D02*
X8357Y830D01*
X8271Y795D01*
X8197Y738D01*
X8140Y663D01*
X8104Y577D01*
X8092Y484D01*
X8104Y392D01*
X8140Y305D01*
X8197Y231D01*
X8271Y174D01*
X8357Y138D01*
X8450Y126D01*
X8543Y138D01*
X8629Y174D01*
X8703Y231D01*
X8760Y305D01*
X8796Y392D01*
X8808Y484D01*
X8796Y577D01*
X8760Y663D01*
X8703Y738D01*
X8629Y795D01*
X8543Y830D01*
X8450Y843D01*
D02*
G37*
G36*
X7450D02*
X7357Y830D01*
X7271Y795D01*
X7197Y738D01*
X7140Y663D01*
X7104Y577D01*
X7092Y484D01*
X7104Y392D01*
X7140Y305D01*
X7197Y231D01*
X7271Y174D01*
X7357Y138D01*
X7450Y126D01*
X7543Y138D01*
X7629Y174D01*
X7703Y231D01*
X7760Y305D01*
X7796Y392D01*
X7808Y484D01*
X7796Y577D01*
X7760Y663D01*
X7703Y738D01*
X7629Y795D01*
X7543Y830D01*
X7450Y843D01*
D02*
G37*
G36*
X6450D02*
X6357Y830D01*
X6271Y795D01*
X6197Y738D01*
X6140Y663D01*
X6104Y577D01*
X6092Y484D01*
X6104Y392D01*
X6140Y305D01*
X6197Y231D01*
X6271Y174D01*
X6357Y138D01*
X6450Y126D01*
X6543Y138D01*
X6629Y174D01*
X6703Y231D01*
X6760Y305D01*
X6796Y392D01*
X6808Y484D01*
X6796Y577D01*
X6760Y663D01*
X6703Y738D01*
X6629Y795D01*
X6543Y830D01*
X6450Y843D01*
D02*
G37*
G36*
X5450D02*
X5357Y830D01*
X5271Y795D01*
X5197Y738D01*
X5140Y663D01*
X5104Y577D01*
X5092Y484D01*
X5104Y392D01*
X5140Y305D01*
X5197Y231D01*
X5271Y174D01*
X5357Y138D01*
X5450Y126D01*
X5543Y138D01*
X5629Y174D01*
X5703Y231D01*
X5760Y305D01*
X5796Y392D01*
X5808Y484D01*
X5796Y577D01*
X5760Y663D01*
X5703Y738D01*
X5629Y795D01*
X5543Y830D01*
X5450Y843D01*
D02*
G37*
G36*
X4450D02*
X4357Y830D01*
X4271Y795D01*
X4197Y738D01*
X4140Y663D01*
X4104Y577D01*
X4092Y484D01*
X4104Y392D01*
X4140Y305D01*
X4197Y231D01*
X4271Y174D01*
X4357Y138D01*
X4450Y126D01*
X4543Y138D01*
X4629Y174D01*
X4703Y231D01*
X4760Y305D01*
X4796Y392D01*
X4808Y484D01*
X4796Y577D01*
X4760Y663D01*
X4703Y738D01*
X4629Y795D01*
X4543Y830D01*
X4450Y843D01*
D02*
G37*
G36*
X3450D02*
X3357Y830D01*
X3271Y795D01*
X3197Y738D01*
X3140Y663D01*
X3104Y577D01*
X3092Y484D01*
X3104Y392D01*
X3140Y305D01*
X3197Y231D01*
X3271Y174D01*
X3357Y138D01*
X3450Y126D01*
X3543Y138D01*
X3629Y174D01*
X3703Y231D01*
X3760Y305D01*
X3796Y392D01*
X3808Y484D01*
X3796Y577D01*
X3760Y663D01*
X3703Y738D01*
X3629Y795D01*
X3543Y830D01*
X3450Y843D01*
D02*
G37*
G36*
X2450D02*
X2357Y830D01*
X2271Y795D01*
X2197Y738D01*
X2140Y663D01*
X2104Y577D01*
X2092Y484D01*
X2104Y392D01*
X2140Y305D01*
X2197Y231D01*
X2271Y174D01*
X2357Y138D01*
X2450Y126D01*
X2543Y138D01*
X2629Y174D01*
X2703Y231D01*
X2760Y305D01*
X2796Y392D01*
X2808Y484D01*
X2796Y577D01*
X2760Y663D01*
X2703Y738D01*
X2629Y795D01*
X2543Y830D01*
X2450Y843D01*
D02*
G37*
%LPD*%
G36*
X16447Y18921D02*
X16402Y18920D01*
X16322Y18916D01*
X16287Y18911D01*
X16255Y18905D01*
X16227Y18898D01*
X16202Y18890D01*
X16180Y18880D01*
X16161Y18868D01*
X16146Y18855D01*
X16090Y18912D01*
X16102Y18927D01*
X16114Y18946D01*
X16124Y18967D01*
X16132Y18992D01*
X16140Y19021D01*
X16145Y19053D01*
X16150Y19088D01*
X16155Y19168D01*
X16155Y19213D01*
X16447Y18921D01*
D02*
G37*
G36*
X20880Y18731D02*
X20874Y18737D01*
X20868Y18742D01*
X20861Y18746D01*
X20854Y18750D01*
X20846Y18753D01*
X20838Y18755D01*
X20829Y18757D01*
X20820Y18759D01*
X20811Y18760D01*
X20801Y18760D01*
Y18840D01*
X20811Y18840D01*
X20820Y18841D01*
X20829Y18843D01*
X20838Y18845D01*
X20846Y18847D01*
X20854Y18850D01*
X20861Y18854D01*
X20868Y18858D01*
X20874Y18863D01*
X20880Y18869D01*
Y18731D01*
D02*
G37*
G36*
X19662Y18670D02*
X19656Y18675D01*
X19650Y18680D01*
X19643Y18684D01*
X19636Y18688D01*
X19628Y18691D01*
X19620Y18694D01*
X19612Y18696D01*
X19603Y18697D01*
X19593Y18698D01*
X19584Y18698D01*
Y18778D01*
X19593Y18779D01*
X19603Y18780D01*
X19612Y18781D01*
X19620Y18783D01*
X19628Y18786D01*
X19636Y18789D01*
X19643Y18793D01*
X19650Y18797D01*
X19656Y18802D01*
X19662Y18807D01*
Y18670D01*
D02*
G37*
G36*
X17029Y18590D02*
X17024Y18583D01*
X17020Y18576D01*
X17016Y18569D01*
X17013Y18562D01*
X17010Y18554D01*
X17008Y18545D01*
X17007Y18536D01*
X17006Y18527D01*
X17006Y18517D01*
X16926D01*
X16925Y18527D01*
X16925Y18536D01*
X16923Y18545D01*
X16921Y18554D01*
X16919Y18562D01*
X16915Y18569D01*
X16912Y18576D01*
X16907Y18583D01*
X16902Y18590D01*
X16897Y18595D01*
X17035D01*
X17029Y18590D01*
D02*
G37*
G36*
X19582Y18634D02*
X19590Y18633D01*
X19595Y18633D01*
X19599Y18632D01*
X19603Y18631D01*
X19606Y18630D01*
X19609Y18629D01*
X19611Y18628D01*
X19613Y18627D01*
X19614Y18626D01*
X19618Y18622D01*
X19626Y18619D01*
X19671Y18589D01*
X19733Y18577D01*
X19753Y18581D01*
X19776Y18565D01*
X19798Y18539D01*
Y18428D01*
X19748Y18411D01*
X19703Y18469D01*
X19629Y18526D01*
X19543Y18562D01*
X19450Y18574D01*
X19357Y18562D01*
X19271Y18526D01*
X19197Y18469D01*
X19140Y18395D01*
X19104Y18309D01*
X19092Y18216D01*
X19104Y18123D01*
X19140Y18037D01*
X19197Y17962D01*
X19271Y17905D01*
X19357Y17870D01*
X19450Y17857D01*
X19543Y17870D01*
X19629Y17905D01*
X19703Y17962D01*
X19748Y18021D01*
X19798Y18004D01*
Y17851D01*
X19699Y17752D01*
X18346D01*
X18307Y17744D01*
X18299Y17739D01*
X18286Y17740D01*
X18241Y17753D01*
X18238Y17756D01*
X18213Y17794D01*
X18160Y17829D01*
X18098Y17841D01*
X18052Y17832D01*
X18002Y17861D01*
Y18001D01*
X18002Y18021D01*
Y18402D01*
X18236Y18636D01*
X19575D01*
X19582Y18634D01*
D02*
G37*
G36*
X18113Y17582D02*
X18105Y17581D01*
X18097Y17579D01*
X18089Y17576D01*
X18082Y17573D01*
X18074Y17569D01*
X18067Y17565D01*
X18059Y17560D01*
X18052Y17554D01*
X18045Y17548D01*
X18038Y17541D01*
X17972Y17588D01*
X17979Y17595D01*
X17984Y17603D01*
X17990Y17610D01*
X17994Y17617D01*
X17997Y17625D01*
X18000Y17633D01*
X18001Y17640D01*
X18002Y17648D01*
X18002Y17656D01*
X18001Y17664D01*
X18113Y17582D01*
D02*
G37*
G36*
X16743Y16642D02*
X16736Y16635D01*
X16730Y16627D01*
X16725Y16620D01*
X16721Y16613D01*
X16718Y16605D01*
X16715Y16598D01*
X16714Y16590D01*
X16713Y16583D01*
X16714Y16575D01*
X16715Y16567D01*
X16599Y16641D01*
X16607Y16643D01*
X16614Y16646D01*
X16622Y16649D01*
X16629Y16652D01*
X16636Y16656D01*
X16644Y16661D01*
X16651Y16666D01*
X16665Y16678D01*
X16672Y16685D01*
X16743Y16642D01*
D02*
G37*
G36*
X16648Y16451D02*
X16641Y16448D01*
X16633Y16445D01*
X16625Y16441D01*
X16617Y16436D01*
X16600Y16423D01*
X16590Y16415D01*
X16560Y16388D01*
X16501Y16441D01*
X16508Y16449D01*
X16514Y16456D01*
X16519Y16463D01*
X16523Y16471D01*
X16526Y16478D01*
X16528Y16485D01*
X16529Y16493D01*
X16529Y16500D01*
X16528Y16507D01*
X16526Y16514D01*
X16648Y16451D01*
D02*
G37*
G36*
X17874Y16170D02*
X17866Y16170D01*
X17858Y16169D01*
X17850Y16167D01*
X17842Y16164D01*
X17835Y16161D01*
X17827Y16157D01*
X17820Y16153D01*
X17812Y16147D01*
X17805Y16141D01*
X17798Y16135D01*
X17741Y16191D01*
X17748Y16198D01*
X17754Y16206D01*
X17759Y16213D01*
X17764Y16220D01*
X17768Y16228D01*
X17771Y16236D01*
X17773Y16243D01*
X17775Y16251D01*
X17776Y16259D01*
X17776Y16267D01*
X17874Y16170D01*
D02*
G37*
G36*
X17609Y15474D02*
X17601Y15473D01*
X17593Y15471D01*
X17585Y15469D01*
X17577Y15466D01*
X17570Y15462D01*
X17562Y15458D01*
X17555Y15453D01*
X17548Y15448D01*
X17540Y15441D01*
X17533Y15435D01*
X17471Y15485D01*
X17477Y15492D01*
X17483Y15500D01*
X17488Y15507D01*
X17493Y15515D01*
X17496Y15522D01*
X17499Y15530D01*
X17501Y15537D01*
X17502Y15545D01*
X17503Y15553D01*
X17502Y15561D01*
X17609Y15474D01*
D02*
G37*
G36*
X14384Y14727D02*
X14377Y14720D01*
X14371Y14713D01*
X14366Y14705D01*
X14361Y14698D01*
X14357Y14690D01*
X14354Y14683D01*
X14351Y14675D01*
X14350Y14667D01*
X14349Y14659D01*
X14348Y14651D01*
X14251Y14748D01*
X14259Y14749D01*
X14267Y14750D01*
X14275Y14751D01*
X14283Y14754D01*
X14290Y14757D01*
X14298Y14761D01*
X14305Y14765D01*
X14313Y14771D01*
X14320Y14777D01*
X14327Y14784D01*
X14384Y14727D01*
D02*
G37*
G36*
X17401Y15639D02*
X17441Y15582D01*
X17438Y15572D01*
X17440Y15565D01*
X17437Y15557D01*
X17438Y15553D01*
X17438Y15551D01*
X17437Y15550D01*
X17437Y15549D01*
X17436Y15547D01*
X17435Y15545D01*
X17434Y15542D01*
X17432Y15539D01*
X17428Y15535D01*
X17423Y15530D01*
X17422Y15527D01*
X17420Y15526D01*
X17418Y15521D01*
X15740Y13843D01*
X15691Y13860D01*
X15690Y13861D01*
Y13940D01*
X17391Y15641D01*
X17401Y15639D01*
D02*
G37*
G36*
X13282Y13604D02*
X13282Y13595D01*
X13284Y13586D01*
X13286Y13578D01*
X13288Y13569D01*
X13292Y13562D01*
X13295Y13555D01*
X13300Y13548D01*
X13305Y13542D01*
X13310Y13536D01*
X13172D01*
X13178Y13542D01*
X13183Y13548D01*
X13187Y13555D01*
X13191Y13562D01*
X13194Y13569D01*
X13197Y13578D01*
X13199Y13586D01*
X13200Y13595D01*
X13201Y13604D01*
X13201Y13614D01*
X13281D01*
X13282Y13604D01*
D02*
G37*
G36*
X16074Y13415D02*
X16079Y13412D01*
X16085Y13409D01*
X16091Y13407D01*
X16098Y13405D01*
X16106Y13403D01*
X16114Y13402D01*
X16123Y13401D01*
X16144Y13400D01*
Y13300D01*
X16133Y13300D01*
X16114Y13298D01*
X16106Y13297D01*
X16098Y13295D01*
X16091Y13293D01*
X16085Y13291D01*
X16079Y13288D01*
X16074Y13285D01*
X16070Y13281D01*
Y13419D01*
X16074Y13415D01*
D02*
G37*
G36*
X14780Y13281D02*
X14776Y13285D01*
X14771Y13288D01*
X14765Y13291D01*
X14759Y13293D01*
X14752Y13295D01*
X14744Y13297D01*
X14736Y13298D01*
X14727Y13299D01*
X14706Y13300D01*
Y13400D01*
X14717Y13400D01*
X14736Y13402D01*
X14744Y13403D01*
X14752Y13405D01*
X14759Y13407D01*
X14765Y13409D01*
X14771Y13412D01*
X14776Y13415D01*
X14780Y13419D01*
Y13281D01*
D02*
G37*
G36*
X13974Y13415D02*
X13979Y13412D01*
X13985Y13409D01*
X13991Y13407D01*
X13998Y13405D01*
X14006Y13403D01*
X14014Y13402D01*
X14023Y13401D01*
X14044Y13400D01*
Y13300D01*
X14033Y13300D01*
X14014Y13298D01*
X14006Y13297D01*
X13998Y13295D01*
X13991Y13293D01*
X13985Y13291D01*
X13979Y13288D01*
X13974Y13285D01*
X13970Y13281D01*
Y13419D01*
X13974Y13415D01*
D02*
G37*
G36*
X17519Y13362D02*
X17533Y13350D01*
X17540Y13345D01*
X17547Y13341D01*
X17553Y13339D01*
X17560Y13337D01*
X17566Y13336D01*
X17571Y13336D01*
X17577Y13336D01*
X17504Y13219D01*
X17503Y13224D01*
X17501Y13228D01*
X17498Y13233D01*
X17495Y13238D01*
X17491Y13244D01*
X17481Y13257D01*
X17467Y13271D01*
X17460Y13279D01*
X17511Y13369D01*
X17519Y13362D01*
D02*
G37*
G36*
X17414Y13233D02*
X17420Y13226D01*
X17431Y13214D01*
X17439Y13205D01*
X17441Y13202D01*
X17442Y13200D01*
X17442Y13200D01*
X17443Y13198D01*
X17443Y13198D01*
X17444Y13197D01*
X17444Y13197D01*
X17448Y13193D01*
X17451Y13179D01*
X17480Y13136D01*
X17480Y13135D01*
X17480Y13134D01*
X17480Y13132D01*
X17481Y13131D01*
X17481Y13130D01*
X17482Y13129D01*
X17482Y13129D01*
X17482Y13127D01*
X17483Y13123D01*
X17484Y13119D01*
X17485Y13104D01*
X17485Y13096D01*
X17488Y13089D01*
Y11752D01*
X17485Y11746D01*
X17484Y11728D01*
X17484Y11722D01*
X17483Y11718D01*
X17483Y11717D01*
X17482Y11717D01*
X17478Y11716D01*
X17464Y11715D01*
X17455Y11715D01*
X17449Y11712D01*
X16183D01*
X16183Y11712D01*
X16140Y11704D01*
X16103Y11679D01*
X16103Y11679D01*
X15876Y11452D01*
X15870Y11450D01*
X15857Y11438D01*
X15853Y11434D01*
X15849Y11431D01*
X15846Y11429D01*
X15844Y11428D01*
X15843Y11428D01*
X15842Y11428D01*
X15841Y11428D01*
X15840Y11427D01*
X15839Y11426D01*
X15838Y11425D01*
X15837Y11425D01*
X15786Y11415D01*
X15740Y11384D01*
X15713Y11391D01*
X15690Y11405D01*
Y11975D01*
X15732Y12001D01*
X15740Y12000D01*
X15800Y11988D01*
X15862Y12001D01*
X15914Y12036D01*
X15949Y12088D01*
X15962Y12150D01*
X15949Y12212D01*
X15919Y12256D01*
X15916Y12265D01*
X15913Y12268D01*
X15912Y12270D01*
X15910Y12272D01*
X15909Y12274D01*
X15908Y12277D01*
X15907Y12280D01*
X15906Y12283D01*
X15906Y12288D01*
X15905Y12293D01*
X15905Y12301D01*
X15902Y12307D01*
Y13169D01*
X15952Y13198D01*
X16000Y13188D01*
X16062Y13201D01*
X16105Y13230D01*
X16105Y13230D01*
X16106Y13230D01*
X16109Y13230D01*
X16110Y13231D01*
X16110Y13231D01*
X16112Y13232D01*
X16112Y13232D01*
X16114Y13232D01*
X16118Y13233D01*
X16122Y13234D01*
X16136Y13235D01*
X16145Y13235D01*
X16151Y13238D01*
X17412D01*
X17414Y13233D01*
D02*
G37*
G36*
X17665Y13166D02*
X17662Y13162D01*
X17659Y13156D01*
X17657Y13150D01*
X17655Y13143D01*
X17653Y13135D01*
X17652Y13127D01*
X17651Y13118D01*
X17650Y13097D01*
X17550D01*
X17550Y13108D01*
X17548Y13127D01*
X17547Y13135D01*
X17545Y13143D01*
X17543Y13150D01*
X17541Y13156D01*
X17538Y13162D01*
X17535Y13166D01*
X17531Y13171D01*
X17669D01*
X17665Y13166D01*
D02*
G37*
G36*
X15280Y12373D02*
X15281Y12363D01*
X15283Y12354D01*
X15285Y12346D01*
X15287Y12338D01*
X15290Y12330D01*
X15294Y12323D01*
X15298Y12316D01*
X15303Y12310D01*
X15309Y12304D01*
X15171D01*
X15177Y12310D01*
X15182Y12316D01*
X15186Y12323D01*
X15190Y12330D01*
X15193Y12338D01*
X15195Y12346D01*
X15197Y12354D01*
X15199Y12363D01*
X15200Y12373D01*
X15200Y12383D01*
X15280D01*
X15280Y12373D01*
D02*
G37*
G36*
X15840Y12289D02*
X15841Y12280D01*
X15843Y12271D01*
X15845Y12262D01*
X15847Y12254D01*
X15850Y12246D01*
X15854Y12239D01*
X15858Y12233D01*
X15863Y12226D01*
X15869Y12220D01*
X15731D01*
X15737Y12226D01*
X15742Y12233D01*
X15746Y12239D01*
X15750Y12246D01*
X15753Y12254D01*
X15755Y12262D01*
X15757Y12271D01*
X15759Y12280D01*
X15760Y12289D01*
X15760Y12299D01*
X15840D01*
X15840Y12289D01*
D02*
G37*
G36*
X17650Y11733D02*
X17652Y11714D01*
X17653Y11706D01*
X17655Y11698D01*
X17657Y11691D01*
X17659Y11685D01*
X17662Y11679D01*
X17665Y11674D01*
X17669Y11670D01*
X17531D01*
X17535Y11674D01*
X17538Y11679D01*
X17541Y11685D01*
X17543Y11691D01*
X17545Y11698D01*
X17547Y11706D01*
X17548Y11714D01*
X17549Y11723D01*
X17550Y11744D01*
X17650D01*
X17650Y11733D01*
D02*
G37*
G36*
X17530Y11531D02*
X17526Y11535D01*
X17521Y11538D01*
X17515Y11541D01*
X17509Y11543D01*
X17502Y11545D01*
X17494Y11547D01*
X17486Y11548D01*
X17477Y11549D01*
X17456Y11550D01*
Y11650D01*
X17467Y11650D01*
X17486Y11652D01*
X17494Y11653D01*
X17502Y11655D01*
X17509Y11657D01*
X17515Y11659D01*
X17521Y11662D01*
X17526Y11665D01*
X17530Y11669D01*
Y11531D01*
D02*
G37*
G36*
X17674Y11665D02*
X17679Y11662D01*
X17685Y11659D01*
X17691Y11657D01*
X17698Y11655D01*
X17706Y11653D01*
X17714Y11652D01*
X17723Y11651D01*
X17744Y11650D01*
Y11550D01*
X17733Y11550D01*
X17723Y11549D01*
X17723Y11549D01*
X17737Y11534D01*
X17666Y11463D01*
X17659Y11470D01*
X17644Y11483D01*
X17637Y11488D01*
X17631Y11492D01*
X17624Y11496D01*
X17618Y11498D01*
X17612Y11500D01*
X17606Y11501D01*
X17601Y11502D01*
X17670Y11571D01*
Y11669D01*
X17674Y11665D01*
D02*
G37*
G36*
X13500Y11459D02*
X13501Y11450D01*
X13503Y11441D01*
X13505Y11432D01*
X13507Y11424D01*
X13510Y11416D01*
X13514Y11409D01*
X13519Y11402D01*
X13523Y11396D01*
X13529Y11390D01*
X13391D01*
X13397Y11396D01*
X13402Y11402D01*
X13406Y11409D01*
X13410Y11416D01*
X13413Y11424D01*
X13415Y11432D01*
X13417Y11441D01*
X13419Y11450D01*
X13420Y11459D01*
X13420Y11469D01*
X13500D01*
X13500Y11459D01*
D02*
G37*
G36*
X15985Y11332D02*
X15978Y11324D01*
X15965Y11310D01*
X15960Y11303D01*
X15956Y11296D01*
X15953Y11290D01*
X15950Y11283D01*
X15948Y11278D01*
X15947Y11272D01*
X15947Y11266D01*
X15849Y11364D01*
X15855Y11364D01*
X15860Y11365D01*
X15866Y11367D01*
X15872Y11370D01*
X15879Y11373D01*
X15885Y11378D01*
X15892Y11383D01*
X15899Y11389D01*
X15914Y11403D01*
X15985Y11332D01*
D02*
G37*
G36*
X23097Y10055D02*
X23052Y10055D01*
X22972Y10050D01*
X22937Y10045D01*
X22905Y10040D01*
X22877Y10032D01*
X22852Y10024D01*
X22830Y10014D01*
X22811Y10002D01*
X22796Y9990D01*
X22740Y10046D01*
X22752Y10061D01*
X22764Y10080D01*
X22774Y10102D01*
X22782Y10127D01*
X22790Y10155D01*
X22795Y10187D01*
X22800Y10222D01*
X22805Y10302D01*
X22805Y10347D01*
X23097Y10055D01*
D02*
G37*
G36*
X15159Y9833D02*
X15155Y9827D01*
X15152Y9819D01*
X15148Y9812D01*
X15146Y9804D01*
X15144Y9795D01*
X15142Y9787D01*
X15141Y9777D01*
X15140Y9768D01*
X15140Y9758D01*
X15060Y9744D01*
X15060Y9754D01*
X15059Y9763D01*
X15057Y9772D01*
X15055Y9780D01*
X15052Y9788D01*
X15048Y9795D01*
X15044Y9802D01*
X15039Y9808D01*
X15034Y9813D01*
X15028Y9818D01*
X15164Y9840D01*
X15159Y9833D01*
D02*
G37*
G36*
X13776Y9863D02*
X13783Y9858D01*
X13789Y9854D01*
X13796Y9850D01*
X13804Y9847D01*
X13812Y9845D01*
X13821Y9843D01*
X13830Y9841D01*
X13839Y9840D01*
X13849Y9840D01*
Y9760D01*
X13839Y9760D01*
X13830Y9759D01*
X13821Y9757D01*
X13812Y9755D01*
X13804Y9753D01*
X13796Y9750D01*
X13789Y9746D01*
X13783Y9742D01*
X13776Y9737D01*
X13770Y9731D01*
Y9869D01*
X13776Y9863D01*
D02*
G37*
G36*
X13834Y9477D02*
X13827Y9470D01*
X13821Y9463D01*
X13815Y9455D01*
X13811Y9448D01*
X13807Y9440D01*
X13804Y9433D01*
X13801Y9425D01*
X13800Y9417D01*
X13799Y9409D01*
X13798Y9401D01*
X13701Y9498D01*
X13709Y9499D01*
X13717Y9500D01*
X13725Y9501D01*
X13733Y9504D01*
X13740Y9507D01*
X13748Y9511D01*
X13755Y9516D01*
X13763Y9521D01*
X13770Y9527D01*
X13777Y9534D01*
X13834Y9477D01*
D02*
G37*
G36*
X20821Y9044D02*
X20828Y9039D01*
X20835Y9035D01*
X20842Y9031D01*
X20849Y9028D01*
X20857Y9025D01*
X20866Y9023D01*
X20875Y9022D01*
X20884Y9021D01*
X20894Y9021D01*
Y8941D01*
X20884Y8940D01*
X20875Y8939D01*
X20866Y8938D01*
X20857Y8936D01*
X20849Y8933D01*
X20842Y8930D01*
X20835Y8926D01*
X20828Y8922D01*
X20821Y8917D01*
X20816Y8912D01*
Y9050D01*
X20821Y9044D01*
D02*
G37*
G36*
X15486Y11710D02*
Y10828D01*
X15474Y10820D01*
X15439Y10768D01*
X15427Y10706D01*
X15439Y10644D01*
X15474Y10592D01*
X15527Y10557D01*
X15588Y10544D01*
X15650Y10557D01*
X15703Y10592D01*
X15738Y10644D01*
X15750Y10706D01*
X15738Y10768D01*
X15703Y10820D01*
X15690Y10828D01*
Y11126D01*
X15713Y11140D01*
X15740Y11147D01*
X15786Y11116D01*
X15848Y11104D01*
X15910Y11116D01*
X15962Y11151D01*
X15997Y11204D01*
X16007Y11254D01*
X16008Y11255D01*
X16008Y11256D01*
X16010Y11258D01*
X16010Y11259D01*
X16011Y11259D01*
X16011Y11261D01*
X16011Y11261D01*
X16012Y11263D01*
X16014Y11266D01*
X16016Y11269D01*
X16026Y11281D01*
X16032Y11287D01*
X16034Y11293D01*
X16229Y11488D01*
X17448D01*
X17454Y11485D01*
X17472Y11484D01*
X17478Y11484D01*
X17482Y11483D01*
X17486Y11482D01*
X17488Y11482D01*
X17488Y11482D01*
X17490Y11481D01*
X17490Y11481D01*
X17491Y11480D01*
X17494Y11480D01*
X17495Y11480D01*
X17495Y11480D01*
X17538Y11451D01*
X17589Y11441D01*
X17589Y11440D01*
X17590Y11440D01*
X17592Y11438D01*
X17593Y11438D01*
X17594Y11438D01*
X17595Y11437D01*
X17596Y11437D01*
X17598Y11436D01*
X17601Y11434D01*
X17604Y11432D01*
X17615Y11422D01*
X17621Y11416D01*
X17628Y11414D01*
X18088Y10954D01*
Y9115D01*
X17840Y8867D01*
X17838Y8867D01*
X17834Y8861D01*
X17834Y8861D01*
X17827Y8859D01*
X17823Y8854D01*
X17813Y8861D01*
X17751Y8873D01*
X17690Y8861D01*
X17637Y8825D01*
X17633Y8819D01*
X17633Y8819D01*
X17632Y8819D01*
X17631Y8819D01*
X17630Y8818D01*
X17629Y8818D01*
X17629Y8818D01*
X17628Y8818D01*
X17626Y8817D01*
X17623Y8816D01*
X17609Y8815D01*
X17600Y8815D01*
X17597Y8813D01*
X17593Y8814D01*
X17551Y8823D01*
X17529Y8829D01*
X17508Y8837D01*
X17506Y8836D01*
X17504Y8836D01*
X17503Y8836D01*
X17484Y8825D01*
X17472Y8820D01*
X17471Y8820D01*
X17470Y8819D01*
X17470Y8819D01*
X17469Y8819D01*
X17467Y8818D01*
X17466Y8818D01*
X17466Y8818D01*
X17466Y8818D01*
X17463Y8817D01*
X17460Y8816D01*
X17446Y8815D01*
X17438Y8815D01*
X17434Y8813D01*
X17431Y8814D01*
X17427Y8812D01*
X16285D01*
X15928Y9168D01*
X15892Y9193D01*
X15849Y9201D01*
X15822Y9196D01*
X15800Y9211D01*
X15738Y9223D01*
X15692Y9214D01*
X15642Y9243D01*
Y10060D01*
X15634Y10099D01*
X15612Y10132D01*
X15462Y10282D01*
X15429Y10304D01*
X15390Y10312D01*
X15283D01*
X15254Y10331D01*
X15215Y10339D01*
X14337D01*
X14298Y10331D01*
X14265Y10309D01*
X13858Y9902D01*
X13857D01*
X13851Y9905D01*
X13843Y9905D01*
X13838Y9906D01*
X13833Y9906D01*
X13830Y9907D01*
X13827Y9908D01*
X13824Y9909D01*
X13822Y9910D01*
X13820Y9912D01*
X13818Y9913D01*
X13815Y9916D01*
X13806Y9919D01*
X13762Y9949D01*
X13736Y9954D01*
X13719Y10009D01*
X15440Y11730D01*
X15486Y11710D01*
D02*
G37*
G36*
X17927Y8725D02*
X17833Y8657D01*
X17816Y8785D01*
X17820Y8783D01*
X17824Y8782D01*
X17828Y8782D01*
X17833Y8783D01*
X17838Y8785D01*
X17844Y8788D01*
X17850Y8792D01*
X17857Y8798D01*
X17864Y8804D01*
X17872Y8812D01*
X17927Y8725D01*
D02*
G37*
G36*
X17689Y8635D02*
X17685Y8638D01*
X17680Y8640D01*
X17675Y8643D01*
X17668Y8645D01*
X17661Y8646D01*
X17654Y8648D01*
X17636Y8649D01*
X17626Y8650D01*
X17615Y8650D01*
X17602Y8750D01*
X17612Y8750D01*
X17631Y8752D01*
X17640Y8753D01*
X17647Y8755D01*
X17654Y8758D01*
X17660Y8761D01*
X17665Y8764D01*
X17670Y8768D01*
X17674Y8772D01*
X17689Y8635D01*
D02*
G37*
G36*
X17527D02*
X17523Y8638D01*
X17518Y8640D01*
X17512Y8643D01*
X17506Y8645D01*
X17499Y8646D01*
X17491Y8648D01*
X17473Y8649D01*
X17463Y8650D01*
X17453Y8650D01*
X17439Y8750D01*
X17450Y8750D01*
X17469Y8752D01*
X17477Y8753D01*
X17485Y8755D01*
X17491Y8758D01*
X17497Y8761D01*
X17503Y8764D01*
X17507Y8768D01*
X17511Y8772D01*
X17527Y8635D01*
D02*
G37*
G36*
X20367Y8631D02*
X20363Y8635D01*
X20358Y8638D01*
X20353Y8641D01*
X20346Y8643D01*
X20339Y8645D01*
X20332Y8647D01*
X20323Y8648D01*
X20314Y8649D01*
X20294Y8650D01*
Y8750D01*
X20304Y8750D01*
X20323Y8752D01*
X20332Y8753D01*
X20339Y8755D01*
X20346Y8757D01*
X20353Y8759D01*
X20358Y8762D01*
X20363Y8765D01*
X20367Y8769D01*
Y8631D01*
D02*
G37*
G36*
X13723Y8666D02*
X13724Y8656D01*
X13725Y8647D01*
X13727Y8639D01*
X13730Y8631D01*
X13733Y8623D01*
X13737Y8616D01*
X13741Y8609D01*
X13746Y8603D01*
X13752Y8597D01*
X13614D01*
X13619Y8603D01*
X13624Y8609D01*
X13629Y8616D01*
X13632Y8623D01*
X13636Y8631D01*
X13638Y8639D01*
X13640Y8647D01*
X13642Y8656D01*
X13642Y8666D01*
X13643Y8676D01*
X13723D01*
X13723Y8666D01*
D02*
G37*
G36*
X20503Y8626D02*
X20500Y8621D01*
X20497Y8615D01*
X20494Y8609D01*
X20492Y8602D01*
X20490Y8594D01*
X20489Y8586D01*
X20488Y8577D01*
X20487Y8556D01*
X20387D01*
X20387Y8567D01*
X20386Y8586D01*
X20384Y8594D01*
X20383Y8602D01*
X20381Y8609D01*
X20378Y8615D01*
X20375Y8621D01*
X20372Y8626D01*
X20369Y8630D01*
X20506D01*
X20503Y8626D01*
D02*
G37*
G36*
X18547Y10927D02*
Y9247D01*
X18547Y9247D01*
X18555Y9204D01*
X18579Y9168D01*
X19126Y8621D01*
X19163Y8596D01*
X19206Y8588D01*
X19206Y8588D01*
X19906D01*
X19921Y8538D01*
X19886Y8514D01*
X19878Y8502D01*
X17767D01*
X17762Y8552D01*
X17813Y8562D01*
X17861Y8594D01*
X17874Y8596D01*
X17910Y8621D01*
X17954Y8665D01*
X17965Y8672D01*
X17969Y8680D01*
X18279Y8990D01*
X18279Y8990D01*
X18304Y9026D01*
X18312Y9069D01*
X18312Y9069D01*
Y11000D01*
X18312Y11000D01*
X18304Y11043D01*
X18279Y11079D01*
X18279Y11079D01*
X17917Y11442D01*
X17936Y11488D01*
X17986D01*
X18547Y10927D01*
D02*
G37*
G36*
X15862Y8620D02*
X15863Y8612D01*
X15865Y8604D01*
X15868Y8596D01*
X15871Y8589D01*
X15875Y8581D01*
X15879Y8574D01*
X15885Y8566D01*
X15891Y8559D01*
X15897Y8552D01*
X15841Y8495D01*
X15834Y8502D01*
X15826Y8508D01*
X15819Y8514D01*
X15812Y8518D01*
X15804Y8522D01*
X15796Y8525D01*
X15789Y8528D01*
X15781Y8529D01*
X15773Y8530D01*
X15765Y8531D01*
X15862Y8628D01*
X15862Y8620D01*
D02*
G37*
G36*
X20291Y8585D02*
X20310Y8584D01*
X20315Y8584D01*
X20320Y8583D01*
X20320Y8583D01*
X20321Y8582D01*
X20321Y8578D01*
X20322Y8564D01*
X20322Y8555D01*
X20325Y8549D01*
Y8363D01*
X20325Y8363D01*
X20334Y8320D01*
X20358Y8283D01*
X20821Y7821D01*
X20821Y7821D01*
X20857Y7796D01*
X20900Y7788D01*
X21651D01*
X21666Y7738D01*
X21639Y7719D01*
X21631Y7716D01*
X21627Y7713D01*
X21625Y7712D01*
X21623Y7710D01*
X21621Y7709D01*
X21619Y7708D01*
X21616Y7707D01*
X21612Y7706D01*
X21607Y7706D01*
X21602Y7705D01*
X21594Y7705D01*
X21588Y7702D01*
X16540D01*
X15994Y8248D01*
X16015Y8298D01*
X19878D01*
X19886Y8286D01*
X19938Y8251D01*
X20000Y8238D01*
X20062Y8251D01*
X20114Y8286D01*
X20149Y8338D01*
X20162Y8400D01*
X20149Y8462D01*
X20114Y8514D01*
X20079Y8538D01*
X20094Y8588D01*
X20285D01*
X20291Y8585D01*
D02*
G37*
G36*
X21675Y7531D02*
X21669Y7537D01*
X21663Y7542D01*
X21656Y7546D01*
X21649Y7550D01*
X21641Y7553D01*
X21633Y7555D01*
X21625Y7557D01*
X21616Y7559D01*
X21606Y7560D01*
X21596Y7560D01*
Y7640D01*
X21606Y7640D01*
X21616Y7641D01*
X21625Y7643D01*
X21633Y7645D01*
X21641Y7647D01*
X21649Y7650D01*
X21656Y7654D01*
X21663Y7659D01*
X21669Y7663D01*
X21675Y7669D01*
Y7531D01*
D02*
G37*
G36*
X22030Y7031D02*
X22024Y7037D01*
X22018Y7042D01*
X22011Y7046D01*
X22004Y7050D01*
X21996Y7053D01*
X21988Y7055D01*
X21979Y7057D01*
X21970Y7059D01*
X21961Y7060D01*
X21951Y7060D01*
Y7140D01*
X21961Y7140D01*
X21970Y7141D01*
X21979Y7143D01*
X21988Y7145D01*
X21996Y7147D01*
X22004Y7150D01*
X22011Y7154D01*
X22018Y7158D01*
X22024Y7163D01*
X22030Y7169D01*
Y7031D01*
D02*
G37*
G36*
X21373Y6948D02*
X21344Y6928D01*
X21335Y6925D01*
X21332Y6922D01*
X21330Y6920D01*
X21328Y6919D01*
X21326Y6918D01*
X21323Y6917D01*
X21320Y6916D01*
X21317Y6915D01*
X21312Y6914D01*
X21307Y6914D01*
X21299Y6914D01*
X21293Y6911D01*
X16935D01*
X16894Y6952D01*
X16913Y6998D01*
X21358D01*
X21373Y6948D01*
D02*
G37*
G36*
X21380Y6740D02*
X21374Y6745D01*
X21367Y6750D01*
X21361Y6755D01*
X21354Y6758D01*
X21346Y6762D01*
X21338Y6764D01*
X21329Y6766D01*
X21320Y6768D01*
X21311Y6769D01*
X21301Y6769D01*
Y6849D01*
X21311Y6849D01*
X21320Y6850D01*
X21329Y6851D01*
X21338Y6853D01*
X21346Y6856D01*
X21354Y6859D01*
X21361Y6863D01*
X21367Y6867D01*
X21374Y6872D01*
X21380Y6878D01*
Y6740D01*
D02*
G37*
G36*
X14991Y6180D02*
X14991Y6170D01*
X14993Y6161D01*
X14995Y6153D01*
X14998Y6145D01*
X15001Y6137D01*
X15004Y6130D01*
X15009Y6123D01*
X15014Y6117D01*
X15019Y6111D01*
X14881D01*
X14887Y6117D01*
X14892Y6123D01*
X14896Y6130D01*
X14900Y6137D01*
X14903Y6145D01*
X14906Y6153D01*
X14908Y6161D01*
X14909Y6170D01*
X14910Y6180D01*
X14910Y6190D01*
X14990D01*
X14991Y6180D01*
D02*
G37*
G36*
X20424Y3831D02*
X20429Y3828D01*
X20435Y3825D01*
X20441Y3823D01*
X20448Y3820D01*
X20456Y3819D01*
X20464Y3817D01*
X20473Y3817D01*
X20494Y3816D01*
Y3716D01*
X20483Y3716D01*
X20464Y3714D01*
X20456Y3713D01*
X20448Y3711D01*
X20441Y3709D01*
X20435Y3706D01*
X20429Y3704D01*
X20424Y3700D01*
X20420Y3697D01*
Y3835D01*
X20424Y3831D01*
D02*
G37*
%LPC*%
G36*
X18450Y18574D02*
X18357Y18562D01*
X18271Y18526D01*
X18197Y18469D01*
X18140Y18395D01*
X18104Y18309D01*
X18092Y18216D01*
X18104Y18123D01*
X18140Y18037D01*
X18197Y17962D01*
X18271Y17905D01*
X18357Y17870D01*
X18450Y17857D01*
X18543Y17870D01*
X18629Y17905D01*
X18703Y17962D01*
X18760Y18037D01*
X18796Y18123D01*
X18808Y18216D01*
X18796Y18309D01*
X18760Y18395D01*
X18703Y18469D01*
X18629Y18526D01*
X18543Y18562D01*
X18450Y18574D01*
D02*
G37*
G36*
X16862Y9862D02*
X16801Y9849D01*
X16756Y9819D01*
X16748Y9816D01*
X16744Y9813D01*
X16742Y9812D01*
X16741Y9810D01*
X16738Y9809D01*
X16736Y9808D01*
X16733Y9807D01*
X16729Y9806D01*
X16725Y9806D01*
X16719Y9805D01*
X16711Y9805D01*
X16705Y9802D01*
X16145D01*
X16106Y9794D01*
X16073Y9772D01*
X15972Y9671D01*
X15965Y9669D01*
X15960Y9663D01*
X15956Y9660D01*
X15952Y9657D01*
X15949Y9655D01*
X15946Y9654D01*
X15943Y9653D01*
X15941Y9652D01*
X15939Y9652D01*
X15937Y9651D01*
X15932Y9651D01*
X15924Y9647D01*
X15871Y9637D01*
X15819Y9602D01*
X15784Y9550D01*
X15771Y9488D01*
X15784Y9426D01*
X15819Y9374D01*
X15871Y9339D01*
X15933Y9326D01*
X15995Y9339D01*
X16047Y9374D01*
X16082Y9426D01*
X16093Y9479D01*
X16096Y9487D01*
X16096Y9492D01*
X16097Y9494D01*
X16097Y9496D01*
X16098Y9498D01*
X16099Y9501D01*
X16100Y9504D01*
X16102Y9507D01*
X16105Y9511D01*
X16108Y9515D01*
X16114Y9520D01*
X16116Y9527D01*
X16187Y9598D01*
X16705D01*
X16711Y9595D01*
X16719Y9595D01*
X16725Y9594D01*
X16729Y9594D01*
X16733Y9593D01*
X16736Y9592D01*
X16738Y9591D01*
X16741Y9590D01*
X16742Y9588D01*
X16744Y9587D01*
X16748Y9584D01*
X16756Y9581D01*
X16801Y9551D01*
X16862Y9538D01*
X16924Y9551D01*
X16977Y9586D01*
X17012Y9638D01*
X17024Y9700D01*
X17012Y9762D01*
X16977Y9814D01*
X16924Y9849D01*
X16862Y9862D01*
D02*
G37*
%LPD*%
G36*
X16792Y9631D02*
X16786Y9637D01*
X16780Y9642D01*
X16773Y9646D01*
X16766Y9650D01*
X16758Y9653D01*
X16750Y9655D01*
X16742Y9657D01*
X16733Y9659D01*
X16723Y9660D01*
X16713Y9660D01*
Y9740D01*
X16723Y9740D01*
X16733Y9741D01*
X16742Y9743D01*
X16750Y9745D01*
X16758Y9747D01*
X16766Y9750D01*
X16773Y9754D01*
X16780Y9759D01*
X16786Y9763D01*
X16792Y9769D01*
Y9631D01*
D02*
G37*
G36*
X16067Y9565D02*
X16060Y9558D01*
X16054Y9550D01*
X16048Y9543D01*
X16044Y9536D01*
X16040Y9528D01*
X16037Y9520D01*
X16034Y9513D01*
X16033Y9505D01*
X16032Y9497D01*
X16031Y9489D01*
X15934Y9586D01*
X15942Y9586D01*
X15950Y9587D01*
X15958Y9589D01*
X15965Y9592D01*
X15973Y9595D01*
X15981Y9599D01*
X15988Y9603D01*
X15996Y9609D01*
X16003Y9615D01*
X16010Y9621D01*
X16067Y9565D01*
D02*
G37*
G36*
X13447Y17921D02*
X13402Y17920D01*
X13322Y17916D01*
X13287Y17911D01*
X13255Y17905D01*
X13227Y17898D01*
X13202Y17890D01*
X13180Y17880D01*
X13161Y17868D01*
X13146Y17855D01*
X13090Y17912D01*
X13102Y17927D01*
X13114Y17946D01*
X13124Y17967D01*
X13132Y17992D01*
X13140Y18021D01*
X13145Y18053D01*
X13150Y18088D01*
X13155Y18168D01*
X13155Y18213D01*
X13447Y17921D01*
D02*
G37*
G36*
X9966Y17511D02*
X9960Y17506D01*
X9955Y17500D01*
X9950Y17493D01*
X9947Y17486D01*
X9943Y17479D01*
X9940Y17471D01*
X9938Y17462D01*
X9937Y17453D01*
X9936Y17444D01*
X9936Y17434D01*
X9856Y17438D01*
X9855Y17448D01*
X9855Y17457D01*
X9853Y17466D01*
X9851Y17475D01*
X9849Y17483D01*
X9846Y17491D01*
X9842Y17498D01*
X9838Y17505D01*
X9833Y17511D01*
X9828Y17517D01*
X9966Y17511D01*
D02*
G37*
G36*
X9529Y17224D02*
X9524Y17218D01*
X9520Y17211D01*
X9516Y17204D01*
X9513Y17196D01*
X9510Y17188D01*
X9508Y17179D01*
X9507Y17170D01*
X9506Y17161D01*
X9506Y17151D01*
X9426D01*
X9425Y17161D01*
X9425Y17170D01*
X9423Y17179D01*
X9421Y17188D01*
X9419Y17196D01*
X9415Y17204D01*
X9412Y17211D01*
X9407Y17218D01*
X9402Y17224D01*
X9397Y17230D01*
X9535D01*
X9529Y17224D01*
D02*
G37*
G36*
X9013Y17074D02*
X9008Y17068D01*
X9004Y17061D01*
X9000Y17054D01*
X8997Y17046D01*
X8995Y17038D01*
X8993Y17029D01*
X8991Y17020D01*
X8990Y17011D01*
X8990Y17001D01*
X8910D01*
X8910Y17011D01*
X8909Y17020D01*
X8907Y17029D01*
X8905Y17038D01*
X8903Y17046D01*
X8900Y17054D01*
X8896Y17061D01*
X8892Y17068D01*
X8887Y17074D01*
X8881Y17080D01*
X9019D01*
X9013Y17074D01*
D02*
G37*
G36*
X10317Y16901D02*
X10310Y16894D01*
X10304Y16887D01*
X10299Y16880D01*
X10294Y16872D01*
X10290Y16865D01*
X10287Y16857D01*
X10285Y16849D01*
X10283Y16841D01*
X10282Y16833D01*
X10282Y16825D01*
X10184Y16923D01*
X10192Y16923D01*
X10200Y16924D01*
X10208Y16926D01*
X10216Y16928D01*
X10224Y16931D01*
X10231Y16935D01*
X10239Y16940D01*
X10246Y16945D01*
X10253Y16951D01*
X10260Y16958D01*
X10317Y16901D01*
D02*
G37*
G36*
X8549Y16814D02*
X8550Y16806D01*
X8551Y16798D01*
X8554Y16790D01*
X8557Y16782D01*
X8561Y16775D01*
X8565Y16767D01*
X8571Y16760D01*
X8577Y16753D01*
X8584Y16746D01*
X8527Y16689D01*
X8520Y16696D01*
X8513Y16702D01*
X8505Y16707D01*
X8498Y16712D01*
X8490Y16716D01*
X8483Y16719D01*
X8475Y16721D01*
X8467Y16723D01*
X8459Y16724D01*
X8451Y16724D01*
X8548Y16822D01*
X8549Y16814D01*
D02*
G37*
G36*
X10408Y14348D02*
X10409Y14338D01*
X10411Y14329D01*
X10413Y14321D01*
X10415Y14313D01*
X10419Y14305D01*
X10422Y14298D01*
X10427Y14291D01*
X10432Y14285D01*
X10437Y14279D01*
X10299D01*
X10305Y14285D01*
X10310Y14291D01*
X10314Y14298D01*
X10318Y14305D01*
X10321Y14313D01*
X10323Y14321D01*
X10326Y14329D01*
X10327Y14338D01*
X10328Y14348D01*
X10328Y14358D01*
X10408D01*
X10408Y14348D01*
D02*
G37*
G36*
X9898Y15858D02*
Y14255D01*
X9895Y14249D01*
X9895Y14241D01*
X9894Y14236D01*
X9894Y14231D01*
X9893Y14228D01*
X9892Y14225D01*
X9891Y14222D01*
X9890Y14220D01*
X9888Y14218D01*
X9887Y14216D01*
X9886Y14215D01*
X9882Y14212D01*
X9871Y14208D01*
X9860Y14205D01*
X9822Y14207D01*
X9785Y14232D01*
X9723Y14244D01*
X9709Y14241D01*
X9552Y14398D01*
Y16133D01*
X9601Y16155D01*
X9898Y15858D01*
D02*
G37*
G36*
X10040Y14237D02*
X10041Y14228D01*
X10043Y14219D01*
X10045Y14210D01*
X10047Y14202D01*
X10050Y14194D01*
X10054Y14187D01*
X10058Y14180D01*
X10063Y14174D01*
X10069Y14168D01*
X9931D01*
X9937Y14174D01*
X9941Y14180D01*
X9946Y14187D01*
X9950Y14194D01*
X9953Y14202D01*
X9955Y14210D01*
X9957Y14219D01*
X9959Y14228D01*
X9960Y14237D01*
X9960Y14247D01*
X10040D01*
X10040Y14237D01*
D02*
G37*
G36*
X9710Y13868D02*
X9717Y13862D01*
X9725Y13857D01*
X9732Y13852D01*
X9740Y13848D01*
X9747Y13845D01*
X9755Y13842D01*
X9763Y13841D01*
X9771Y13840D01*
X9779Y13839D01*
X9682Y13742D01*
X9681Y13750D01*
X9680Y13758D01*
X9679Y13766D01*
X9676Y13774D01*
X9673Y13781D01*
X9669Y13789D01*
X9664Y13796D01*
X9659Y13804D01*
X9653Y13811D01*
X9646Y13818D01*
X9703Y13875D01*
X9710Y13868D01*
D02*
G37*
G36*
X9512Y13527D02*
X9519Y13521D01*
X9526Y13515D01*
X9534Y13511D01*
X9541Y13507D01*
X9549Y13504D01*
X9557Y13501D01*
X9565Y13500D01*
X9572Y13499D01*
X9581Y13498D01*
X9483Y13401D01*
X9483Y13409D01*
X9482Y13417D01*
X9480Y13425D01*
X9478Y13433D01*
X9474Y13440D01*
X9471Y13448D01*
X9466Y13455D01*
X9461Y13463D01*
X9455Y13470D01*
X9448Y13477D01*
X9504Y13534D01*
X9512Y13527D01*
D02*
G37*
G36*
X8722Y14704D02*
X8717Y14698D01*
X8713Y14691D01*
X8709Y14684D01*
X8706Y14676D01*
X8703Y14668D01*
X8701Y14659D01*
X8700Y14650D01*
X8699Y14641D01*
X8699Y14631D01*
X8619D01*
X8619Y14641D01*
X8618Y14650D01*
X8616Y14659D01*
X8614Y14668D01*
X8612Y14676D01*
X8608Y14684D01*
X8605Y14691D01*
X8600Y14698D01*
X8595Y14704D01*
X8590Y14710D01*
X8728D01*
X8722Y14704D01*
D02*
G37*
G36*
X7893Y14272D02*
X7889Y14276D01*
X7884Y14279D01*
X7879Y14282D01*
X7873Y14284D01*
X7866Y14286D01*
X7858Y14288D01*
X7849Y14289D01*
X7840Y14290D01*
X7820Y14291D01*
Y14391D01*
X7830Y14391D01*
X7849Y14393D01*
X7858Y14394D01*
X7866Y14396D01*
X7873Y14398D01*
X7879Y14400D01*
X7884Y14403D01*
X7889Y14406D01*
X7893Y14410D01*
Y14272D01*
D02*
G37*
G36*
X7369Y12367D02*
X7376Y12362D01*
X7383Y12358D01*
X7390Y12355D01*
X7398Y12352D01*
X7406Y12349D01*
X7415Y12347D01*
X7424Y12346D01*
X7433Y12345D01*
X7443Y12345D01*
X7447Y12265D01*
X7437Y12264D01*
X7428Y12263D01*
X7419Y12262D01*
X7411Y12260D01*
X7403Y12257D01*
X7395Y12254D01*
X7388Y12250D01*
X7381Y12245D01*
X7375Y12240D01*
X7370Y12234D01*
X7363Y12372D01*
X7369Y12367D01*
D02*
G37*
G36*
X7269Y11965D02*
X7274Y11962D01*
X7279Y11959D01*
X7285Y11957D01*
X7292Y11955D01*
X7300Y11953D01*
X7309Y11952D01*
X7318Y11951D01*
X7338Y11950D01*
Y11850D01*
X7328Y11850D01*
X7309Y11848D01*
X7300Y11847D01*
X7292Y11845D01*
X7285Y11843D01*
X7279Y11841D01*
X7274Y11838D01*
X7269Y11835D01*
X7265Y11831D01*
Y11969D01*
X7269Y11965D01*
D02*
G37*
G36*
X7243Y11986D02*
X7124Y11958D01*
Y11831D01*
X7120Y11835D01*
X7115Y11838D01*
X7110Y11841D01*
X7104Y11843D01*
X7097Y11845D01*
X7089Y11847D01*
X7080Y11848D01*
X7071Y11849D01*
X7051Y11850D01*
Y11950D01*
X7061Y11950D01*
X7080Y11952D01*
X7089Y11953D01*
X7097Y11955D01*
X7104Y11957D01*
X7110Y11959D01*
X7115Y11962D01*
X7116Y11963D01*
X7116Y11964D01*
X7116Y11969D01*
X7115Y11974D01*
X7113Y11980D01*
X7110Y11986D01*
X7106Y11993D01*
X7100Y12000D01*
X7094Y12007D01*
X7087Y12015D01*
X7169Y12074D01*
X7243Y11986D01*
D02*
G37*
G36*
X3324Y11965D02*
X3329Y11962D01*
X3335Y11959D01*
X3341Y11957D01*
X3348Y11955D01*
X3356Y11953D01*
X3364Y11952D01*
X3373Y11951D01*
X3394Y11950D01*
Y11850D01*
X3383Y11850D01*
X3364Y11848D01*
X3356Y11847D01*
X3348Y11845D01*
X3341Y11843D01*
X3335Y11841D01*
X3329Y11838D01*
X3324Y11835D01*
X3320Y11831D01*
Y11969D01*
X3324Y11965D01*
D02*
G37*
G36*
X9148Y11681D02*
X9163Y11668D01*
X9170Y11663D01*
X9176Y11659D01*
X9183Y11655D01*
X9189Y11652D01*
X9195Y11650D01*
X9200Y11649D01*
X9205Y11648D01*
X9105Y11554D01*
X9104Y11560D01*
X9103Y11566D01*
X9102Y11572D01*
X9099Y11578D01*
X9096Y11584D01*
X9092Y11591D01*
X9087Y11598D01*
X9081Y11605D01*
X9067Y11620D01*
X9141Y11688D01*
X9148Y11681D01*
D02*
G37*
G36*
X12771Y7871D02*
X12772Y7861D01*
X12774Y7852D01*
X12776Y7844D01*
X12778Y7836D01*
X12781Y7828D01*
X12785Y7821D01*
X12790Y7814D01*
X12795Y7808D01*
X12800Y7802D01*
X12662D01*
X12668Y7808D01*
X12673Y7814D01*
X12677Y7821D01*
X12681Y7828D01*
X12684Y7836D01*
X12686Y7844D01*
X12688Y7852D01*
X12690Y7861D01*
X12691Y7871D01*
X12691Y7880D01*
X12771D01*
X12771Y7871D01*
D02*
G37*
G36*
X2026Y11613D02*
X2033Y11608D01*
X2039Y11604D01*
X2046Y11600D01*
X2054Y11597D01*
X2062Y11595D01*
X2071Y11593D01*
X2080Y11591D01*
X2089Y11590D01*
X2099Y11590D01*
Y11510D01*
X2089Y11510D01*
X2080Y11509D01*
X2071Y11507D01*
X2062Y11505D01*
X2054Y11503D01*
X2046Y11500D01*
X2039Y11496D01*
X2033Y11492D01*
X2026Y11487D01*
X2020Y11481D01*
Y11619D01*
X2026Y11613D01*
D02*
G37*
G36*
X776Y10719D02*
X761Y10702D01*
X750Y10683D01*
X741Y10661D01*
X735Y10637D01*
X733Y10611D01*
X733Y10583D01*
X736Y10553D01*
X742Y10520D01*
X751Y10485D01*
X763Y10448D01*
X392Y10631D01*
X444Y10648D01*
X676Y10740D01*
X690Y10748D01*
X700Y10756D01*
X776Y10719D01*
D02*
G37*
G36*
X2776Y10563D02*
X2783Y10558D01*
X2789Y10554D01*
X2796Y10550D01*
X2804Y10547D01*
X2812Y10545D01*
X2821Y10543D01*
X2830Y10541D01*
X2839Y10540D01*
X2849Y10540D01*
Y10460D01*
X2839Y10460D01*
X2830Y10459D01*
X2821Y10457D01*
X2812Y10455D01*
X2804Y10453D01*
X2796Y10450D01*
X2789Y10446D01*
X2783Y10442D01*
X2776Y10437D01*
X2770Y10431D01*
Y10569D01*
X2776Y10563D01*
D02*
G37*
G36*
X10254Y9839D02*
X10255Y9830D01*
X10256Y9821D01*
X10258Y9812D01*
X10261Y9804D01*
X10264Y9796D01*
X10268Y9789D01*
X10272Y9783D01*
X10277Y9776D01*
X10283Y9770D01*
X10145D01*
X10150Y9776D01*
X10155Y9783D01*
X10160Y9789D01*
X10163Y9796D01*
X10167Y9804D01*
X10169Y9812D01*
X10171Y9821D01*
X10173Y9830D01*
X10173Y9839D01*
X10174Y9849D01*
X10254D01*
X10254Y9839D01*
D02*
G37*
G36*
X851Y9645D02*
X839Y9630D01*
X828Y9612D01*
X817Y9590D01*
X808Y9565D01*
X801Y9536D01*
X794Y9504D01*
X784Y9430D01*
X781Y9388D01*
X779Y9342D01*
X498Y9645D01*
X543Y9644D01*
X621Y9646D01*
X656Y9649D01*
X688Y9654D01*
X716Y9661D01*
X741Y9669D01*
X763Y9679D01*
X781Y9690D01*
X797Y9703D01*
X851Y9645D01*
D02*
G37*
G36*
X10277Y9624D02*
X10272Y9618D01*
X10268Y9611D01*
X10264Y9604D01*
X10261Y9596D01*
X10258Y9588D01*
X10256Y9579D01*
X10255Y9570D01*
X10254Y9561D01*
X10254Y9551D01*
X10174D01*
X10173Y9561D01*
X10173Y9570D01*
X10171Y9579D01*
X10169Y9588D01*
X10167Y9596D01*
X10163Y9604D01*
X10160Y9611D01*
X10155Y9618D01*
X10150Y9624D01*
X10145Y9630D01*
X10283D01*
X10277Y9624D01*
D02*
G37*
G36*
X5326Y9419D02*
X5332Y9414D01*
X5339Y9410D01*
X5346Y9406D01*
X5354Y9403D01*
X5362Y9400D01*
X5371Y9398D01*
X5380Y9397D01*
X5389Y9396D01*
X5399Y9396D01*
Y9316D01*
X5389Y9315D01*
X5380Y9315D01*
X5371Y9313D01*
X5362Y9311D01*
X5354Y9309D01*
X5346Y9305D01*
X5339Y9302D01*
X5332Y9297D01*
X5326Y9292D01*
X5320Y9287D01*
Y9425D01*
X5326Y9419D01*
D02*
G37*
G36*
X8438Y9202D02*
X8417Y9152D01*
X5360D01*
X5345Y9172D01*
X5355Y9236D01*
X5356Y9236D01*
X5365Y9239D01*
X5368Y9243D01*
X5370Y9244D01*
X5372Y9245D01*
X5374Y9246D01*
X5377Y9247D01*
X5380Y9248D01*
X5383Y9249D01*
X5388Y9250D01*
X5393Y9251D01*
X5401Y9251D01*
X5407Y9254D01*
X8386D01*
X8438Y9202D01*
D02*
G37*
G36*
X9940Y9189D02*
X9941Y9180D01*
X9943Y9171D01*
X9945Y9162D01*
X9947Y9154D01*
X9950Y9146D01*
X9954Y9139D01*
X9958Y9133D01*
X9963Y9126D01*
X9969Y9120D01*
X9831D01*
X9837Y9126D01*
X9842Y9133D01*
X9846Y9139D01*
X9850Y9146D01*
X9853Y9154D01*
X9855Y9162D01*
X9857Y9171D01*
X9859Y9180D01*
X9860Y9189D01*
X9860Y9199D01*
X9940D01*
X9940Y9189D01*
D02*
G37*
G36*
X7921Y8660D02*
X7889Y8638D01*
X7881Y8635D01*
X7877Y8632D01*
X7875Y8630D01*
X7874Y8629D01*
X7871Y8628D01*
X7869Y8627D01*
X7866Y8626D01*
X7862Y8625D01*
X7857Y8624D01*
X7852Y8624D01*
X7844Y8624D01*
X7838Y8621D01*
X5109D01*
X5067Y8663D01*
X5086Y8704D01*
X5091Y8710D01*
X7906D01*
X7921Y8660D01*
D02*
G37*
G36*
X7925Y8450D02*
X7919Y8455D01*
X7913Y8460D01*
X7906Y8465D01*
X7899Y8468D01*
X7891Y8472D01*
X7883Y8474D01*
X7875Y8476D01*
X7866Y8478D01*
X7856Y8479D01*
X7846Y8479D01*
Y8559D01*
X7856Y8559D01*
X7866Y8560D01*
X7875Y8561D01*
X7883Y8563D01*
X7891Y8566D01*
X7899Y8569D01*
X7906Y8573D01*
X7913Y8577D01*
X7919Y8582D01*
X7925Y8588D01*
Y8450D01*
D02*
G37*
G36*
X8059Y8443D02*
X8054Y8436D01*
X8050Y8430D01*
X8046Y8422D01*
X8043Y8415D01*
X8040Y8407D01*
X8038Y8398D01*
X8037Y8389D01*
X8036Y8380D01*
X8035Y8370D01*
X7955D01*
X7955Y8380D01*
X7954Y8389D01*
X7953Y8398D01*
X7951Y8407D01*
X7948Y8415D01*
X7945Y8422D01*
X7941Y8430D01*
X7937Y8436D01*
X7932Y8443D01*
X7926Y8449D01*
X8064D01*
X8059Y8443D01*
D02*
G37*
G36*
X10130Y8331D02*
X10124Y8337D01*
X10117Y8342D01*
X10111Y8346D01*
X10104Y8350D01*
X10096Y8353D01*
X10088Y8355D01*
X10079Y8357D01*
X10070Y8359D01*
X10061Y8360D01*
X10051Y8360D01*
Y8440D01*
X10061Y8440D01*
X10070Y8441D01*
X10079Y8443D01*
X10088Y8445D01*
X10096Y8447D01*
X10104Y8450D01*
X10111Y8454D01*
X10117Y8458D01*
X10124Y8463D01*
X10130Y8469D01*
Y8331D01*
D02*
G37*
G36*
X9676Y8463D02*
X9682Y8458D01*
X9689Y8454D01*
X9696Y8450D01*
X9704Y8447D01*
X9712Y8445D01*
X9721Y8443D01*
X9730Y8441D01*
X9739Y8440D01*
X9749Y8440D01*
Y8360D01*
X9739Y8360D01*
X9730Y8359D01*
X9721Y8357D01*
X9712Y8355D01*
X9704Y8353D01*
X9696Y8350D01*
X9689Y8346D01*
X9682Y8342D01*
X9676Y8337D01*
X9670Y8331D01*
Y8469D01*
X9676Y8463D01*
D02*
G37*
G36*
X9512Y8077D02*
X9519Y8071D01*
X9526Y8066D01*
X9534Y8061D01*
X9541Y8057D01*
X9549Y8054D01*
X9557Y8051D01*
X9565Y8050D01*
X9572Y8049D01*
X9581Y8048D01*
X9483Y7951D01*
X9483Y7959D01*
X9482Y7967D01*
X9480Y7975D01*
X9478Y7983D01*
X9474Y7990D01*
X9471Y7998D01*
X9466Y8005D01*
X9461Y8013D01*
X9455Y8020D01*
X9448Y8027D01*
X9504Y8084D01*
X9512Y8077D01*
D02*
G37*
G36*
X9080D02*
X9087Y8071D01*
X9095Y8066D01*
X9102Y8061D01*
X9110Y8057D01*
X9117Y8054D01*
X9125Y8051D01*
X9133Y8050D01*
X9141Y8049D01*
X9149Y8048D01*
X9052Y7951D01*
X9051Y7959D01*
X9050Y7967D01*
X9049Y7975D01*
X9046Y7983D01*
X9043Y7990D01*
X9039Y7998D01*
X9035Y8005D01*
X9029Y8013D01*
X9023Y8020D01*
X9016Y8027D01*
X9073Y8084D01*
X9080Y8077D01*
D02*
G37*
G36*
X4081Y7722D02*
X4074Y7715D01*
X4068Y7708D01*
X4063Y7701D01*
X4059Y7693D01*
X4055Y7686D01*
X4051Y7678D01*
X4049Y7670D01*
X4047Y7662D01*
X4046Y7654D01*
X4046Y7646D01*
X3949Y7744D01*
X3957Y7744D01*
X3965Y7745D01*
X3972Y7747D01*
X3980Y7749D01*
X3988Y7752D01*
X3995Y7756D01*
X4003Y7761D01*
X4010Y7766D01*
X4018Y7772D01*
X4025Y7779D01*
X4081Y7722D01*
D02*
G37*
G36*
X2968Y8644D02*
X2964Y8640D01*
X2961Y8635D01*
X2958Y8630D01*
X2955Y8624D01*
X2953Y8617D01*
X2951Y8609D01*
X2950Y8601D01*
X2949Y8591D01*
X2948Y8571D01*
X2848Y8573D01*
X2848Y8584D01*
X2847Y8603D01*
X2845Y8611D01*
X2844Y8619D01*
X2842Y8626D01*
X2839Y8632D01*
X2836Y8638D01*
X2833Y8643D01*
X2830Y8647D01*
X2968Y8644D01*
D02*
G37*
G36*
X3311Y7470D02*
X3332Y7452D01*
X3338Y7448D01*
X3345Y7444D01*
X3350Y7440D01*
X3355Y7438D01*
X3360Y7436D01*
X3365Y7435D01*
X3253Y7355D01*
X3254Y7360D01*
X3253Y7366D01*
X3252Y7372D01*
X3250Y7378D01*
X3247Y7385D01*
X3243Y7392D01*
X3238Y7399D01*
X3233Y7406D01*
X3226Y7413D01*
X3219Y7421D01*
X3303Y7478D01*
X3311Y7470D01*
D02*
G37*
G36*
X7378Y7326D02*
X7383Y7323D01*
X7388Y7321D01*
X7395Y7318D01*
X7402Y7317D01*
X7410Y7315D01*
X7418Y7314D01*
X7437Y7312D01*
X7448Y7312D01*
X7456Y7212D01*
X7445Y7212D01*
X7426Y7210D01*
X7418Y7209D01*
X7410Y7207D01*
X7403Y7205D01*
X7397Y7202D01*
X7392Y7199D01*
X7387Y7196D01*
X7383Y7192D01*
X7374Y7329D01*
X7378Y7326D01*
D02*
G37*
G36*
X7238Y7187D02*
X7234Y7190D01*
X7229Y7194D01*
X7224Y7196D01*
X7217Y7199D01*
X7210Y7201D01*
X7203Y7203D01*
X7194Y7204D01*
X7185Y7205D01*
X7165Y7206D01*
Y7306D01*
X7175Y7306D01*
X7194Y7307D01*
X7203Y7309D01*
X7210Y7310D01*
X7217Y7312D01*
X7224Y7315D01*
X7229Y7318D01*
X7234Y7321D01*
X7238Y7325D01*
Y7187D01*
D02*
G37*
G36*
X8583Y7178D02*
X8597Y7166D01*
X8604Y7161D01*
X8611Y7158D01*
X8618Y7155D01*
X8624Y7153D01*
X8630Y7151D01*
X8636Y7151D01*
X8641Y7152D01*
X8562Y7039D01*
X8561Y7044D01*
X8559Y7049D01*
X8556Y7054D01*
X8553Y7060D01*
X8549Y7066D01*
X8539Y7078D01*
X8533Y7086D01*
X8519Y7101D01*
X8575Y7186D01*
X8583Y7178D01*
D02*
G37*
G36*
X5253Y6786D02*
X5254Y6778D01*
X5256Y6770D01*
X5259Y6763D01*
X5262Y6755D01*
X5266Y6747D01*
X5270Y6740D01*
X5276Y6733D01*
X5282Y6725D01*
X5288Y6718D01*
X5232Y6662D01*
X5225Y6668D01*
X5217Y6674D01*
X5210Y6680D01*
X5203Y6684D01*
X5195Y6688D01*
X5187Y6691D01*
X5180Y6694D01*
X5172Y6696D01*
X5164Y6697D01*
X5156Y6697D01*
X5253Y6794D01*
X5253Y6786D01*
D02*
G37*
G36*
X1685Y6572D02*
X1688Y6571D01*
X1693Y6570D01*
X1698Y6569D01*
X1714Y6567D01*
X1735Y6566D01*
X1760Y6566D01*
Y6416D01*
X1747Y6416D01*
X1693Y6412D01*
X1688Y6411D01*
X1685Y6410D01*
X1682Y6408D01*
Y6574D01*
X1685Y6572D01*
D02*
G37*
G36*
X14406Y5972D02*
X14400Y5977D01*
X14394Y5982D01*
X14387Y5987D01*
X14380Y5990D01*
X14372Y5993D01*
X14364Y5996D01*
X14356Y5998D01*
X14347Y6000D01*
X14337Y6000D01*
X14328Y6001D01*
Y6081D01*
X14337Y6081D01*
X14347Y6082D01*
X14356Y6083D01*
X14364Y6085D01*
X14372Y6088D01*
X14380Y6091D01*
X14387Y6095D01*
X14394Y6099D01*
X14400Y6104D01*
X14406Y6110D01*
Y5972D01*
D02*
G37*
G36*
X12597Y5769D02*
X12600Y5765D01*
X12604Y5762D01*
X12608Y5759D01*
X12614Y5756D01*
X12621Y5754D01*
X12628Y5752D01*
X12637Y5751D01*
X12647Y5750D01*
X12657Y5750D01*
X12644Y5650D01*
X12530Y5656D01*
X12596Y5774D01*
X12597Y5769D01*
D02*
G37*
G36*
X13691Y5480D02*
X13706Y5467D01*
X13713Y5462D01*
X13719Y5458D01*
X13726Y5454D01*
X13732Y5452D01*
X13738Y5450D01*
X13744Y5449D01*
X13749Y5448D01*
X13652Y5351D01*
X13651Y5356D01*
X13650Y5362D01*
X13648Y5368D01*
X13646Y5374D01*
X13642Y5381D01*
X13638Y5387D01*
X13633Y5394D01*
X13627Y5401D01*
X13613Y5416D01*
X13684Y5487D01*
X13691Y5480D01*
D02*
G37*
G36*
X13815Y5276D02*
X13812Y5271D01*
X13809Y5265D01*
X13807Y5259D01*
X13805Y5252D01*
X13803Y5244D01*
X13802Y5236D01*
X13801Y5227D01*
X13800Y5206D01*
X13700D01*
X13700Y5217D01*
X13698Y5236D01*
X13697Y5244D01*
X13695Y5252D01*
X13693Y5259D01*
X13691Y5265D01*
X13688Y5271D01*
X13685Y5276D01*
X13681Y5280D01*
X13819D01*
X13815Y5276D01*
D02*
G37*
G36*
X23097Y4305D02*
X23061Y4304D01*
X23027Y4302D01*
X22995Y4298D01*
X22965Y4292D01*
X22937Y4284D01*
X22911Y4275D01*
X22887Y4264D01*
X22864Y4251D01*
X22844Y4236D01*
X22826Y4220D01*
X22720Y4326D01*
X22736Y4344D01*
X22751Y4364D01*
X22764Y4387D01*
X22775Y4411D01*
X22784Y4437D01*
X22792Y4465D01*
X22798Y4495D01*
X22802Y4527D01*
X22804Y4561D01*
X22805Y4597D01*
X23097Y4305D01*
D02*
G37*
G36*
X15092Y3529D02*
X15132Y3493D01*
X15134Y3492D01*
X15008Y3436D01*
X15010Y3441D01*
X15010Y3447D01*
X15010Y3452D01*
X15008Y3458D01*
X15006Y3465D01*
X15003Y3471D01*
X14998Y3478D01*
X14993Y3485D01*
X14986Y3493D01*
X14979Y3500D01*
X15084Y3537D01*
X15092Y3529D01*
D02*
G37*
G36*
X12013Y5574D02*
X12008Y5567D01*
X12004Y5561D01*
X12000Y5554D01*
X11997Y5546D01*
X11995Y5538D01*
X11993Y5529D01*
X11991Y5520D01*
X11990Y5511D01*
X11990Y5501D01*
X11910D01*
X11910Y5511D01*
X11909Y5520D01*
X11907Y5529D01*
X11905Y5538D01*
X11903Y5546D01*
X11900Y5554D01*
X11896Y5561D01*
X11892Y5567D01*
X11887Y5574D01*
X11881Y5580D01*
X12019D01*
X12013Y5574D01*
D02*
G37*
G36*
X11020Y5432D02*
X11016Y5425D01*
X11012Y5418D01*
X11008Y5410D01*
X11006Y5402D01*
X11003Y5394D01*
X11002Y5385D01*
X11000Y5376D01*
X11000Y5367D01*
X10999Y5357D01*
X10919Y5347D01*
X10919Y5357D01*
X10918Y5366D01*
X10917Y5375D01*
X10914Y5383D01*
X10912Y5391D01*
X10908Y5398D01*
X10904Y5405D01*
X10899Y5411D01*
X10894Y5417D01*
X10888Y5422D01*
X11025Y5438D01*
X11020Y5432D01*
D02*
G37*
G36*
X12282Y5345D02*
X12280Y5338D01*
X12280Y5332D01*
X12280Y5325D01*
X12282Y5319D01*
X12284Y5312D01*
X12288Y5305D01*
X12292Y5298D01*
X12298Y5290D01*
X12305Y5283D01*
X12240Y5235D01*
X12156Y5312D01*
X12285Y5351D01*
X12282Y5345D01*
D02*
G37*
G36*
X11845Y5221D02*
X11845Y5214D01*
X11845Y5206D01*
X11846Y5198D01*
X11849Y5191D01*
X11852Y5183D01*
X11856Y5176D01*
X11861Y5169D01*
X11867Y5161D01*
X11874Y5154D01*
X11804Y5111D01*
X11797Y5117D01*
X11783Y5129D01*
X11776Y5134D01*
X11768Y5139D01*
X11761Y5143D01*
X11753Y5146D01*
X11746Y5149D01*
X11738Y5152D01*
X11731Y5153D01*
X11846Y5229D01*
X11845Y5221D01*
D02*
G37*
G36*
X11649Y5041D02*
X11650Y5033D01*
X11651Y5025D01*
X11654Y5017D01*
X11657Y5010D01*
X11661Y5002D01*
X11666Y4995D01*
X11671Y4987D01*
X11677Y4980D01*
X11684Y4973D01*
X11627Y4916D01*
X11620Y4923D01*
X11613Y4929D01*
X11605Y4934D01*
X11598Y4939D01*
X11590Y4943D01*
X11583Y4946D01*
X11575Y4949D01*
X11567Y4950D01*
X11559Y4951D01*
X11551Y4952D01*
X11648Y5049D01*
X11649Y5041D01*
D02*
G37*
G36*
X11563Y4674D02*
X11558Y4667D01*
X11554Y4661D01*
X11550Y4654D01*
X11547Y4646D01*
X11545Y4638D01*
X11543Y4629D01*
X11541Y4620D01*
X11540Y4611D01*
X11540Y4601D01*
X11460D01*
X11460Y4611D01*
X11459Y4620D01*
X11457Y4629D01*
X11455Y4638D01*
X11453Y4646D01*
X11450Y4654D01*
X11446Y4661D01*
X11442Y4667D01*
X11437Y4674D01*
X11431Y4680D01*
X11569D01*
X11563Y4674D01*
D02*
G37*
G36*
X13357Y2139D02*
X13358Y2130D01*
X13359Y2121D01*
X13361Y2112D01*
X13364Y2104D01*
X13367Y2096D01*
X13371Y2089D01*
X13375Y2083D01*
X13380Y2076D01*
X13386Y2070D01*
X13248D01*
X13253Y2076D01*
X13258Y2083D01*
X13263Y2089D01*
X13266Y2096D01*
X13269Y2104D01*
X13272Y2112D01*
X13274Y2121D01*
X13276Y2130D01*
X13276Y2139D01*
X13277Y2149D01*
X13357D01*
X13357Y2139D01*
D02*
G37*
G36*
X14927Y1900D02*
X14925Y1890D01*
X14871Y1873D01*
X11742Y5003D01*
X11746Y5022D01*
X11771Y5034D01*
X11792Y5035D01*
X14927Y1900D01*
D02*
G37*
G36*
X14591Y1864D02*
X14563Y1822D01*
X14543Y1830D01*
X14450Y1843D01*
X14357Y1830D01*
X14277Y1797D01*
X14230Y1815D01*
X14227Y1816D01*
Y1887D01*
X14219Y1926D01*
X14197Y1959D01*
X11602Y4554D01*
Y4593D01*
X11605Y4599D01*
X11605Y4607D01*
X11606Y4612D01*
X11606Y4617D01*
X11607Y4620D01*
X11608Y4623D01*
X11609Y4626D01*
X11610Y4628D01*
X11612Y4630D01*
X11613Y4632D01*
X11616Y4635D01*
X11619Y4644D01*
X11649Y4688D01*
X11657Y4728D01*
X11709Y4746D01*
X14591Y1864D01*
D02*
G37*
G36*
X15490Y1820D02*
X15492Y1803D01*
X15493Y1796D01*
X15495Y1790D01*
X15497Y1785D01*
X15500Y1780D01*
X15503Y1777D01*
X15506Y1775D01*
X15510Y1773D01*
X15390D01*
X15394Y1775D01*
X15397Y1777D01*
X15400Y1780D01*
X15403Y1785D01*
X15405Y1790D01*
X15407Y1796D01*
X15408Y1803D01*
X15409Y1811D01*
X15410Y1820D01*
X15410Y1831D01*
X15490D01*
X15490Y1820D01*
D02*
G37*
G36*
X15731Y1387D02*
X15728Y1363D01*
X15726Y1341D01*
X15728Y1320D01*
X15731Y1299D01*
X15736Y1280D01*
X15743Y1262D01*
X15753Y1244D01*
X15765Y1228D01*
X15778Y1213D01*
X15722Y1156D01*
X15706Y1170D01*
X15690Y1181D01*
X15673Y1191D01*
X15654Y1198D01*
X15635Y1204D01*
X15615Y1207D01*
X15593Y1208D01*
X15571Y1207D01*
X15548Y1204D01*
X15523Y1198D01*
X15736Y1411D01*
X15731Y1387D01*
D02*
G37*
G36*
X14165Y1190D02*
X14166Y1180D01*
X14167Y1171D01*
X14169Y1163D01*
X14172Y1155D01*
X14175Y1147D01*
X14179Y1140D01*
X14183Y1133D01*
X14188Y1127D01*
X14194Y1121D01*
X14056D01*
X14061Y1127D01*
X14066Y1133D01*
X14071Y1140D01*
X14074Y1147D01*
X14078Y1155D01*
X14080Y1163D01*
X14082Y1171D01*
X14084Y1180D01*
X14085Y1190D01*
X14085Y1200D01*
X14165D01*
X14165Y1190D01*
D02*
G37*
G36*
X15790Y1089D02*
X15791Y1079D01*
X15793Y1070D01*
X15795Y1062D01*
X15797Y1054D01*
X15800Y1046D01*
X15804Y1039D01*
X15808Y1032D01*
X15813Y1026D01*
X15819Y1020D01*
X15681D01*
X15687Y1026D01*
X15692Y1032D01*
X15696Y1039D01*
X15700Y1046D01*
X15703Y1054D01*
X15705Y1062D01*
X15707Y1070D01*
X15709Y1079D01*
X15710Y1089D01*
X15710Y1099D01*
X15790D01*
X15790Y1089D01*
D02*
G37*
G36*
X16095Y987D02*
X16096Y978D01*
X16098Y969D01*
X16100Y962D01*
X16103Y954D01*
X16107Y948D01*
X16112Y943D01*
X16117Y938D01*
X16123Y934D01*
X16129Y930D01*
X16000Y881D01*
X16003Y888D01*
X16005Y895D01*
X16008Y902D01*
X16011Y917D01*
X16012Y926D01*
X16014Y944D01*
X16015Y963D01*
X16095Y997D01*
X16095Y987D01*
D02*
G37*
G36*
X15095Y935D02*
X15096Y925D01*
X15098Y917D01*
X15100Y909D01*
X15103Y903D01*
X15107Y897D01*
X15111Y891D01*
X15117Y887D01*
X15122Y884D01*
X15129Y881D01*
X15006Y822D01*
X15008Y827D01*
X15009Y832D01*
X15012Y845D01*
X15013Y852D01*
X15014Y878D01*
X15015Y898D01*
X15095Y945D01*
X15095Y935D01*
D02*
G37*
G36*
X14940Y439D02*
X14941Y430D01*
X14943Y421D01*
X14945Y412D01*
X14947Y404D01*
X14950Y396D01*
X14954Y389D01*
X14958Y382D01*
X14963Y376D01*
X14969Y370D01*
X14831D01*
X14837Y376D01*
X14842Y382D01*
X14846Y389D01*
X14850Y396D01*
X14853Y404D01*
X14855Y412D01*
X14857Y421D01*
X14859Y430D01*
X14860Y439D01*
X14860Y449D01*
X14940D01*
X14940Y439D01*
D02*
G37*
G36*
X8773Y4016D02*
X8778Y4013D01*
X8783Y4010D01*
X8790Y4007D01*
X8797Y4005D01*
X8804Y4003D01*
X8813Y4002D01*
X8822Y4001D01*
X8843Y4000D01*
Y3900D01*
X8832Y3900D01*
X8813Y3899D01*
X8804Y3897D01*
X8797Y3896D01*
X8790Y3894D01*
X8783Y3891D01*
X8778Y3888D01*
X8773Y3885D01*
X8769Y3882D01*
Y4019D01*
X8773Y4016D01*
D02*
G37*
G36*
X8698Y3852D02*
X8692Y3852D01*
X8687Y3851D01*
X8681Y3849D01*
X8675Y3846D01*
X8668Y3842D01*
X8661Y3838D01*
X8655Y3833D01*
X8647Y3827D01*
X8632Y3813D01*
X8562Y3884D01*
X8569Y3892D01*
X8581Y3906D01*
X8587Y3913D01*
X8591Y3920D01*
X8594Y3926D01*
X8597Y3932D01*
X8599Y3938D01*
X8600Y3944D01*
X8600Y3949D01*
X8698Y3852D01*
D02*
G37*
G36*
X11380Y3781D02*
X11376Y3785D01*
X11371Y3788D01*
X11365Y3791D01*
X11359Y3793D01*
X11352Y3795D01*
X11344Y3797D01*
X11336Y3798D01*
X11327Y3799D01*
X11306Y3800D01*
Y3900D01*
X11317Y3900D01*
X11336Y3902D01*
X11344Y3903D01*
X11352Y3905D01*
X11359Y3907D01*
X11365Y3909D01*
X11371Y3912D01*
X11376Y3915D01*
X11380Y3919D01*
Y3781D01*
D02*
G37*
G36*
X10046Y3610D02*
X10041Y3604D01*
X10036Y3597D01*
X10033Y3590D01*
X10029Y3582D01*
X10027Y3574D01*
X10025Y3565D01*
X10023Y3556D01*
X10022Y3547D01*
X10022Y3537D01*
X9942D01*
X9942Y3547D01*
X9941Y3556D01*
X9940Y3565D01*
X9938Y3574D01*
X9935Y3582D01*
X9932Y3590D01*
X9928Y3597D01*
X9924Y3604D01*
X9919Y3610D01*
X9913Y3616D01*
X10051D01*
X10046Y3610D01*
D02*
G37*
G36*
X6332Y2957D02*
X6337Y2954D01*
X6343Y2951D01*
X6349Y2949D01*
X6356Y2947D01*
X6364Y2945D01*
X6372Y2944D01*
X6381Y2943D01*
X6402Y2942D01*
Y2842D01*
X6391Y2842D01*
X6372Y2840D01*
X6364Y2839D01*
X6356Y2837D01*
X6349Y2835D01*
X6343Y2833D01*
X6337Y2830D01*
X6332Y2827D01*
X6328Y2823D01*
Y2961D01*
X6332Y2957D01*
D02*
G37*
G36*
X6257Y2794D02*
X6252Y2793D01*
X6246Y2792D01*
X6240Y2790D01*
X6234Y2788D01*
X6227Y2784D01*
X6221Y2780D01*
X6214Y2775D01*
X6207Y2769D01*
X6192Y2755D01*
X6121Y2826D01*
X6128Y2833D01*
X6141Y2848D01*
X6146Y2855D01*
X6150Y2862D01*
X6154Y2868D01*
X6156Y2874D01*
X6158Y2880D01*
X6159Y2886D01*
X6160Y2891D01*
X6257Y2794D01*
D02*
G37*
G36*
X4743Y2291D02*
X4748Y2287D01*
X4753Y2283D01*
X4759Y2280D01*
X4765Y2278D01*
X4773Y2276D01*
X4781Y2274D01*
X4790Y2273D01*
X4800Y2272D01*
X4811Y2272D01*
X4790Y2172D01*
X4779Y2172D01*
X4752Y2170D01*
X4744Y2169D01*
X4731Y2166D01*
X4725Y2164D01*
X4720Y2162D01*
X4716Y2159D01*
X4659Y2215D01*
X4740Y2295D01*
X4743Y2291D01*
D02*
G37*
G36*
X4659Y2215D02*
X4601Y2159D01*
X4597Y2162D01*
X4593Y2164D01*
X4587Y2166D01*
X4574Y2169D01*
X4566Y2170D01*
X4538Y2172D01*
X4527Y2172D01*
X4507Y2272D01*
X4518Y2272D01*
X4527Y2273D01*
X4537Y2274D01*
X4545Y2276D01*
X4552Y2278D01*
X4559Y2280D01*
X4565Y2283D01*
X4570Y2287D01*
X4574Y2291D01*
X4578Y2295D01*
X4659Y2215D01*
D02*
G37*
G36*
X3524Y2287D02*
X3529Y2284D01*
X3535Y2281D01*
X3541Y2279D01*
X3548Y2277D01*
X3556Y2275D01*
X3564Y2274D01*
X3573Y2273D01*
X3594Y2272D01*
Y2172D01*
X3583Y2172D01*
X3564Y2170D01*
X3556Y2169D01*
X3548Y2167D01*
X3541Y2165D01*
X3535Y2163D01*
X3529Y2160D01*
X3524Y2157D01*
X3520Y2153D01*
Y2291D01*
X3524Y2287D01*
D02*
G37*
G36*
X10140Y979D02*
X10141Y970D01*
X10143Y961D01*
X10145Y952D01*
X10147Y944D01*
X10150Y936D01*
X10154Y929D01*
X10158Y922D01*
X10163Y916D01*
X10169Y910D01*
X10031D01*
X10037Y916D01*
X10042Y922D01*
X10046Y929D01*
X10050Y936D01*
X10053Y944D01*
X10055Y952D01*
X10057Y961D01*
X10059Y970D01*
X10060Y979D01*
X10060Y989D01*
X10140D01*
X10140Y979D01*
D02*
G37*
D14*
X20437Y8700D02*
Y9662D01*
X23100Y12325D02*
Y12350D01*
X20437Y9662D02*
X23100Y12325D01*
X17559Y13250D02*
X17600D01*
X17735Y8700D02*
X17831D01*
X12500Y5700D02*
X13400D01*
X6550Y12622D02*
X7272Y11900D01*
X7195D02*
X7250D01*
X3250D02*
X7195D01*
X2898Y7812D02*
X3361Y7349D01*
X3450Y2222D02*
X5588D01*
X6550Y13700D02*
X7191Y14341D01*
X7964D01*
X3457Y7256D02*
X7308D01*
X3375Y7338D02*
X3457Y7256D01*
X3350Y7338D02*
X3375D01*
X13900Y13350D02*
X14850D01*
X5588Y2222D02*
X6258Y2892D01*
X7640D02*
X8698Y3950D01*
X6258Y2892D02*
X7640D01*
X8699Y3950D02*
X10600D01*
X10700Y3850D01*
X11450D01*
X15100Y3400D02*
Y3450D01*
X13750Y4800D02*
X15100Y3450D01*
X13750Y4800D02*
Y5350D01*
X16238Y8700D02*
X17725D01*
X13400Y5700D02*
X13750Y5350D01*
X16000Y13350D02*
X17459D01*
X17559Y13250D01*
X6550Y12622D02*
Y13700D01*
X8858Y11900D02*
X9203Y11555D01*
X7272Y11900D02*
X8858D01*
X15757Y9080D02*
X15840D01*
X15849Y9089D02*
X16238Y8700D01*
X15738Y9062D02*
X15757Y9080D01*
X15840D02*
X15849Y9089D01*
X8635Y7055D02*
X8659D01*
X2898Y7812D02*
Y8714D01*
X8428Y7262D02*
X8635Y7055D01*
X9203Y11550D02*
Y11555D01*
X2898Y8714D02*
X2900Y8716D01*
X7308Y7256D02*
X7315Y7262D01*
X8428D01*
X17831Y8700D02*
X18200Y9069D01*
X17600Y11600D02*
X18032D01*
X18659Y9247D02*
Y10974D01*
X18032Y11600D02*
X18659Y10974D01*
X17600Y11600D02*
X18200Y11000D01*
Y9069D02*
Y11000D01*
X18659Y9247D02*
X19206Y8700D01*
X15848Y11266D02*
X16183Y11600D01*
X17600D01*
X20350Y3766D02*
X20816D01*
X22450Y5400D01*
Y7300D01*
X20437Y8363D02*
Y8700D01*
X19206D02*
X20437D01*
X17600Y11600D02*
Y13241D01*
X21850Y7900D02*
X22450Y7300D01*
X20437Y8363D02*
X20900Y7900D01*
X21850D01*
X23622Y-850D02*
Y-140D01*
X0Y-850D02*
Y-140D01*
X13161Y-750D02*
X23622D01*
X0D02*
X10141D01*
X23022Y-550D02*
X23622Y-750D01*
X23022Y-950D02*
X23622Y-750D01*
X0D02*
X600Y-950D01*
X0Y-750D02*
X600Y-550D01*
X-850Y19700D02*
X-140D01*
X-850Y-0D02*
X-140D01*
X-750Y11200D02*
Y19700D01*
Y-0D02*
Y8180D01*
X-950Y19100D02*
X-750Y19700D01*
X-550Y19100D01*
X-750Y-0D02*
X-550Y600D01*
X-950D02*
X-750Y-0D01*
D17*
X9450Y14356D02*
X9723Y14083D01*
X9450Y14356D02*
Y16152D01*
X8659Y12460D02*
X12731Y8388D01*
X8659Y12460D02*
Y14780D01*
X10368Y14209D02*
Y15861D01*
X9896Y16334D02*
X10368Y15861D01*
X9466Y16434D02*
X10000Y15900D01*
Y14098D02*
Y15900D01*
X8450Y16823D02*
X9171Y16102D01*
Y14350D02*
Y16102D01*
X7950Y16950D02*
X9021Y15879D01*
Y13961D02*
Y15879D01*
X16498Y7600D02*
X21745D01*
X15540Y8558D02*
X16498Y7600D01*
X15155Y8568D02*
Y8600D01*
Y8568D02*
X15260Y8463D01*
Y8442D02*
Y8463D01*
Y8442D02*
X16893Y6809D01*
X21450D01*
X21731Y8981D02*
X23100Y10350D01*
X20745Y8981D02*
X21731D01*
X15993Y8400D02*
X20000D01*
X15764Y8629D02*
X15993Y8400D01*
X15588Y10706D02*
Y13982D01*
X13422Y9856D02*
X15448Y11882D01*
X15588Y13982D02*
X17875Y16268D01*
X15473Y14773D02*
X17151Y16396D01*
X15448Y14748D02*
X15472Y14772D01*
X15473Y14773D01*
X15448Y11882D02*
Y14748D01*
X17600Y15558D02*
Y15572D01*
X15437Y10350D02*
X16122D01*
X15300Y10487D02*
Y11100D01*
Y10487D02*
X15437Y10350D01*
X16122D02*
X16142Y10330D01*
X16205D02*
X16228Y10308D01*
X16142Y10330D02*
X16205D01*
X15330Y10070D02*
X15400Y10000D01*
X15084Y9898D02*
X15100Y9883D01*
X15215Y10237D02*
X15242Y10210D01*
X13700Y9400D02*
X14397Y10097D01*
X15242Y10210D02*
X15390D01*
X14337Y10237D02*
X15215D01*
X15390Y10210D02*
X15540Y10060D01*
X15184Y10070D02*
X15330D01*
X13900Y9800D02*
X14337Y10237D01*
X15157Y10097D02*
X15184Y10070D01*
X15100Y9500D02*
Y9883D01*
X14397Y10097D02*
X15157D01*
X15800Y13758D02*
X17600Y15558D01*
X15160Y14526D02*
Y14662D01*
Y14526D02*
X15240Y14446D01*
Y12234D02*
Y14446D01*
X15160Y14662D02*
X17391Y16951D01*
X18098Y17658D01*
X16966Y17366D02*
Y18666D01*
X14250Y14650D02*
X16966Y17366D01*
X13241Y14235D02*
X15925Y16918D01*
Y18691D01*
X13241Y13465D02*
Y14235D01*
X13460Y13344D02*
X16582Y16466D01*
X13460Y11320D02*
Y13344D01*
X16582Y16466D02*
Y16476D01*
X16619Y16513D01*
Y16545D01*
X9982Y1302D02*
Y3686D01*
X11950Y5331D02*
Y5650D01*
Y5331D02*
X15450Y1831D01*
X12200Y5332D02*
Y5400D01*
Y5332D02*
X16055Y1477D01*
X11721Y5250D02*
X11750D01*
X15450Y1484D02*
Y1831D01*
X11711Y5260D02*
X15055Y1917D01*
X11711Y5260D02*
X11721Y5250D01*
X11550Y5050D02*
X14900Y1700D01*
Y300D02*
Y1700D01*
X11500Y4512D02*
X14125Y1887D01*
X11500Y4512D02*
Y4750D01*
X15055Y831D02*
Y1917D01*
X16055Y875D02*
Y1477D01*
X14125Y1051D02*
Y1887D01*
X10959Y4854D02*
X13317Y2497D01*
X10959Y4854D02*
Y5488D01*
X13317Y2000D02*
Y2497D01*
X10948Y5500D02*
X10959Y5488D01*
X9600Y8400D02*
X10200D01*
X15400Y8500D02*
Y10000D01*
X13700Y9800D02*
X13900D01*
X15540Y8558D02*
Y10060D01*
X15400Y8500D02*
X16800Y7100D01*
X13422Y9000D02*
Y9856D01*
Y9000D02*
X13683Y8740D01*
X16800Y7100D02*
X22100D01*
X14950Y6041D02*
Y9350D01*
X15100Y9500D01*
X14693Y5607D02*
Y7208D01*
X15000Y5300D02*
X15600D01*
X14693Y5607D02*
X15000Y5300D01*
X5467Y6483D02*
X13817D01*
X14259Y6041D02*
X14477D01*
X13817Y6483D02*
X14259Y6041D01*
X5155Y6795D02*
X5467Y6483D01*
X10486Y17127D02*
X12361D01*
X10183Y16824D02*
X10486Y17127D01*
X12361D02*
X13450Y18216D01*
X15925Y18691D02*
X16450Y19216D01*
X16582Y16538D02*
X17425Y17381D01*
X17428Y17383D02*
X17900Y17790D01*
X17425Y17381D02*
X17428Y17383D01*
X17151Y16396D02*
X17315Y16560D01*
X5067Y8519D02*
X7995D01*
X3086Y10500D02*
X5067Y8519D01*
X7995Y8359D02*
Y8519D01*
X7586Y7950D02*
X7995Y8359D01*
X4252Y7950D02*
X7586D01*
X13683Y8527D02*
Y8740D01*
X13764Y8137D02*
X14693Y7208D01*
X3948Y7645D02*
X4252Y7950D01*
X8228Y12307D02*
X8230D01*
X8226Y12305D02*
X8228Y12307D01*
X7301Y12305D02*
X8226D01*
X7296Y12300D02*
X7301Y12305D01*
X17900Y17790D02*
Y18001D01*
X18098Y17658D02*
Y17680D01*
X18299Y17603D02*
X18346Y17650D01*
X17315Y16560D02*
X18299Y17603D01*
X17900Y18021D02*
Y18444D01*
X18194Y18738D02*
X19733D01*
X17900Y18444D02*
X18194Y18738D01*
X17900Y18001D02*
X17900Y18021D01*
X18346Y17650D02*
X19741D01*
X10764Y14945D02*
X11076D01*
X11323Y15192D01*
X9896Y16334D02*
Y17580D01*
X9900Y17585D01*
X13683Y7410D02*
Y8024D01*
X13764Y8105D01*
Y8137D01*
X9900Y9050D02*
Y9700D01*
X12731Y7732D02*
Y8388D01*
X5088Y8812D02*
X8288D01*
X2934Y10966D02*
X5088Y8812D01*
X8288D02*
X9150Y7950D01*
X1950Y11550D02*
X8707D01*
X10214Y9700D02*
Y10043D01*
X8707Y11550D02*
X10214Y10043D01*
X9978Y8623D02*
X10214Y8859D01*
X9161Y8623D02*
X9978D01*
X8428Y9356D02*
X9161Y8623D01*
X10214Y8859D02*
Y9700D01*
X15933Y9488D02*
X16145Y9700D01*
X16862D01*
X10100Y840D02*
Y1184D01*
X9982Y1302D02*
X10100Y1184D01*
X1516Y10966D02*
X2934D01*
X5250Y9356D02*
X8428D01*
X1300Y11300D02*
X8300D01*
X9900Y9700D01*
X9466Y16434D02*
Y17300D01*
X8950Y16652D02*
Y17150D01*
Y16652D02*
X9450Y16152D01*
X9171Y14350D02*
X9780Y13741D01*
X9021Y13961D02*
X9582Y13400D01*
X5052Y9274D02*
Y10057D01*
Y9274D02*
X5275Y9050D01*
X8482D01*
X9582Y7950D01*
X2700Y10500D02*
X3086D01*
X1000Y10450D02*
X1516Y10966D01*
X15800Y12150D02*
Y13758D01*
X484Y9350D02*
X500D01*
X1000Y9850D02*
Y10450D01*
X500Y9350D02*
X1000Y9850D01*
X484Y10350D02*
Y10484D01*
X1300Y11300D01*
X20150Y18800D02*
X20950D01*
X19900Y18550D02*
X20150Y18800D01*
X19900Y17809D02*
Y18550D01*
X19741Y17650D02*
X19900Y17809D01*
X15055Y831D02*
X15098Y787D01*
X15750Y950D02*
Y1184D01*
X15450Y1484D02*
X15750Y1184D01*
X16055Y875D02*
X16090Y840D01*
X23650Y18144D02*
Y19700D01*
X0D02*
X23650D01*
Y-0D02*
Y18144D01*
X0Y-0D02*
X23622D01*
X0D02*
Y19700D01*
X14306Y6944D02*
Y12456D01*
X8794Y6944D02*
Y12456D01*
Y6944D02*
X14306D01*
X8794Y12456D02*
X14306D01*
D18*
X10701Y-510D02*
X10501Y-610D01*
X10301Y-810D01*
Y-1010D01*
X10401Y-1110D01*
X10601D01*
X10701Y-1010D01*
Y-910D01*
X10601Y-810D01*
X10301D01*
X10901Y-610D02*
X11001Y-510D01*
X11201D01*
X11301Y-610D01*
Y-1010D01*
X11201Y-1110D01*
X11001D01*
X10901Y-1010D01*
Y-610D01*
X11501Y-1110D02*
Y-1010D01*
X11601D01*
Y-1110D01*
X11501D01*
X12001Y-610D02*
X12101Y-510D01*
X12301D01*
X12401Y-610D01*
Y-1010D01*
X12301Y-1110D01*
X12101D01*
X12001Y-1010D01*
Y-610D01*
X12601D02*
X12701Y-510D01*
X12901D01*
X13001Y-610D01*
Y-1010D01*
X12901Y-1110D01*
X12701D01*
X12601Y-1010D01*
Y-610D01*
X-990Y8740D02*
Y8340D01*
X-690D01*
X-790Y8540D01*
Y8640D01*
X-690Y8740D01*
X-490D01*
X-390Y8640D01*
Y8440D01*
X-490Y8340D01*
X-890Y8940D02*
X-990Y9040D01*
Y9240D01*
X-890Y9340D01*
X-490D01*
X-390Y9240D01*
Y9040D01*
X-490Y8940D01*
X-890D01*
X-390Y9540D02*
X-490D01*
Y9640D01*
X-390D01*
Y9540D01*
X-890Y10040D02*
X-990Y10140D01*
Y10340D01*
X-890Y10440D01*
X-490D01*
X-390Y10340D01*
Y10140D01*
X-490Y10040D01*
X-890D01*
X-390Y10940D02*
X-990D01*
X-690Y10640D01*
Y11040D01*
D19*
X14148Y7298D02*
G03*
X14148Y7298I-197J0D01*
G01*
D41*
X13243Y6300D02*
X16355Y3188D01*
X4100Y6300D02*
X13243D01*
X3710Y5910D02*
X4100Y6300D01*
X2880Y5910D02*
X3710D01*
X1598Y6491D02*
X2299D01*
X2880Y5910D01*
X21688Y3188D02*
X23100Y4600D01*
X16355Y3188D02*
X21688D01*
D42*
X23100Y13350D02*
D03*
Y12350D02*
D03*
Y11350D02*
D03*
Y10350D02*
D03*
X23100Y3600D02*
D03*
Y4600D02*
D03*
Y5600D02*
D03*
Y6600D02*
D03*
Y7600D02*
D03*
Y8600D02*
D03*
X3450Y1484D02*
D03*
X2450Y484D02*
D03*
Y1484D02*
D03*
X3450Y484D02*
D03*
X4450D02*
D03*
Y1484D02*
D03*
X5450Y484D02*
D03*
Y1484D02*
D03*
X6450Y484D02*
D03*
Y1484D02*
D03*
X7450Y484D02*
D03*
Y1484D02*
D03*
X8450Y484D02*
D03*
Y1484D02*
D03*
X9450Y484D02*
D03*
Y1484D02*
D03*
X10450Y484D02*
D03*
Y1484D02*
D03*
X11450Y484D02*
D03*
Y1484D02*
D03*
X12450Y484D02*
D03*
Y1484D02*
D03*
X13450Y484D02*
D03*
Y1484D02*
D03*
X14450Y484D02*
D03*
Y1484D02*
D03*
X15450Y484D02*
D03*
Y1484D02*
D03*
X16450Y484D02*
D03*
Y1484D02*
D03*
X17450Y484D02*
D03*
Y1484D02*
D03*
X18450Y484D02*
D03*
Y1484D02*
D03*
X19450Y484D02*
D03*
Y1484D02*
D03*
X20450Y484D02*
D03*
Y1484D02*
D03*
X21450Y484D02*
D03*
Y1484D02*
D03*
X484Y12150D02*
D03*
X1484Y13150D02*
D03*
Y12150D02*
D03*
X484Y13150D02*
D03*
X1484Y7350D02*
D03*
X484D02*
D03*
X1484Y8350D02*
D03*
X484D02*
D03*
Y9350D02*
D03*
X1484Y10350D02*
D03*
X484D02*
D03*
X1484Y9350D02*
D03*
X3450Y19216D02*
D03*
X2450Y18216D02*
D03*
Y19216D02*
D03*
X3450Y18216D02*
D03*
X4450D02*
D03*
Y19216D02*
D03*
X5450Y18216D02*
D03*
Y19216D02*
D03*
X6450Y18216D02*
D03*
Y19216D02*
D03*
X7450Y18216D02*
D03*
Y19216D02*
D03*
X8450Y18216D02*
D03*
Y19216D02*
D03*
X9450Y18216D02*
D03*
Y19216D02*
D03*
X10450Y18216D02*
D03*
Y19216D02*
D03*
X11450Y18216D02*
D03*
Y19216D02*
D03*
X12450Y18216D02*
D03*
Y19216D02*
D03*
X13450Y18216D02*
D03*
Y19216D02*
D03*
X14450Y18216D02*
D03*
Y19216D02*
D03*
X15450Y18216D02*
D03*
Y19216D02*
D03*
X16450Y18216D02*
D03*
Y19216D02*
D03*
X17450Y18216D02*
D03*
Y19216D02*
D03*
X18450Y18216D02*
D03*
Y19216D02*
D03*
X19450Y18216D02*
D03*
Y19216D02*
D03*
X20450Y18216D02*
D03*
Y19216D02*
D03*
X21450Y18216D02*
D03*
Y19216D02*
D03*
D43*
X22863Y18898D02*
D03*
X787D02*
D03*
X22863Y787D02*
D03*
X787D02*
D03*
D44*
X9723Y14083D02*
D03*
X7964Y14341D02*
D03*
X8659Y14780D02*
D03*
X10368Y14209D02*
D03*
X10000Y14098D02*
D03*
X22250Y10039D02*
D03*
X21745Y7600D02*
D03*
X21450Y6809D02*
D03*
X20745Y8981D02*
D03*
X20437Y8700D02*
D03*
X20000Y8400D02*
D03*
X17751Y8711D02*
D03*
X15764Y8629D02*
D03*
X15155Y8600D02*
D03*
X20894Y17075D02*
D03*
X15588Y10706D02*
D03*
X17600Y15572D02*
D03*
X15084Y9898D02*
D03*
X17875Y16268D02*
D03*
X16228Y10308D02*
D03*
X3350Y7338D02*
D03*
X13900Y13350D02*
D03*
X15240Y12234D02*
D03*
X4659Y2239D02*
D03*
X4351Y6288D02*
D03*
X6258Y2892D02*
D03*
X14250Y14650D02*
D03*
X9078Y3721D02*
D03*
X9982Y3686D02*
D03*
X11450Y3850D02*
D03*
X15100Y3400D02*
D03*
X11950Y5650D02*
D03*
X12200Y5400D02*
D03*
X11750Y5250D02*
D03*
X11550Y5050D02*
D03*
X11500Y4750D02*
D03*
X13750Y5350D02*
D03*
X12500Y5750D02*
D03*
X10948Y5500D02*
D03*
X16000Y13350D02*
D03*
X14850D02*
D03*
X3250Y11900D02*
D03*
X7195D02*
D03*
X10200Y8400D02*
D03*
X9600D02*
D03*
X13700Y9400D02*
D03*
Y9800D02*
D03*
X15738Y9062D02*
D03*
X18192Y7308D02*
D03*
X15300Y11100D02*
D03*
X18192Y7798D02*
D03*
X15600Y5300D02*
D03*
X22100Y7100D02*
D03*
X8659Y7055D02*
D03*
X5155Y6795D02*
D03*
X22050Y3020D02*
D03*
X13460Y11320D02*
D03*
X13241Y13465D02*
D03*
X16619Y16545D02*
D03*
X7995Y8519D02*
D03*
X10241Y4870D02*
D03*
X13683Y8527D02*
D03*
X13880Y8913D02*
D03*
X14477Y6041D02*
D03*
X14950D02*
D03*
X15518Y6026D02*
D03*
X3948Y7645D02*
D03*
X8230Y12307D02*
D03*
X18098Y17680D02*
D03*
X7296Y12300D02*
D03*
X10764Y14945D02*
D03*
X10183Y16824D02*
D03*
X16851Y920D02*
D03*
X13764Y8137D02*
D03*
X7308Y7256D02*
D03*
X13683Y7410D02*
D03*
X15848Y11266D02*
D03*
X7332Y7600D02*
D03*
X9900Y9050D02*
D03*
X12731Y7732D02*
D03*
X11323Y15192D02*
D03*
X17561Y14217D02*
D03*
X18950Y13741D02*
D03*
X17745Y10446D02*
D03*
X18163Y12150D02*
D03*
X4290Y17150D02*
D03*
X2900Y8716D02*
D03*
X23100Y17750D02*
D03*
X20800Y950D02*
D03*
X19539D02*
D03*
X1752Y238D02*
D03*
X19350Y11000D02*
D03*
X21987Y14153D02*
D03*
X22050Y4250D02*
D03*
X23173Y1937D02*
D03*
X22050Y1800D02*
D03*
X5450Y9850D02*
D03*
X6100Y13823D02*
D03*
X9350Y18738D02*
D03*
X6100D02*
D03*
Y17350D02*
D03*
X7600Y17450D02*
D03*
X11158Y10846D02*
D03*
X3150Y15850D02*
D03*
X4351Y13450D02*
D03*
X19650Y15571D02*
D03*
X19600Y16200D02*
D03*
X19973Y17112D02*
D03*
X23100Y16442D02*
D03*
X21987Y17081D02*
D03*
Y16203D02*
D03*
Y15250D02*
D03*
X21900Y12060D02*
D03*
X21366Y11000D02*
D03*
X22292Y8569D02*
D03*
X22050Y6014D02*
D03*
Y5374D02*
D03*
X23173Y2761D02*
D03*
X22050Y2400D02*
D03*
X19733Y2060D02*
D03*
X8900Y930D02*
D03*
X1752Y1089D02*
D03*
X2900D02*
D03*
X4894Y992D02*
D03*
X600Y2222D02*
D03*
X1752Y1844D02*
D03*
X600Y3250D02*
D03*
X587Y4237D02*
D03*
X600Y5174D02*
D03*
X600Y6117D02*
D03*
X2241Y9700D02*
D03*
X569Y14880D02*
D03*
Y16391D02*
D03*
Y15584D02*
D03*
Y17150D02*
D03*
X1752Y18216D02*
D03*
X13912Y10881D02*
D03*
X10214Y9700D02*
D03*
X20350Y3766D02*
D03*
X15933Y9488D02*
D03*
X16862Y9700D02*
D03*
X9203Y11550D02*
D03*
X3450Y2222D02*
D03*
X17600Y13241D02*
D03*
Y11600D02*
D03*
X8699Y3950D02*
D03*
X5250Y9356D02*
D03*
X19733Y18738D02*
D03*
X9900Y17585D02*
D03*
X9466Y17300D02*
D03*
X8950Y17150D02*
D03*
X7950Y16950D02*
D03*
X8450Y16823D02*
D03*
X5052Y10057D02*
D03*
X9582Y7950D02*
D03*
X9150D02*
D03*
X2700Y10500D02*
D03*
X1950Y11550D02*
D03*
X15800Y12150D02*
D03*
X16966Y18666D02*
D03*
X9780Y13741D02*
D03*
X9582Y13400D02*
D03*
X10100Y840D02*
D03*
X20950Y18800D02*
D03*
X13317Y2000D02*
D03*
X14125Y1051D02*
D03*
X15098Y787D02*
D03*
X14900Y300D02*
D03*
X15750Y950D02*
D03*
X16090Y840D02*
D03*
D45*
X1598Y6491D02*
D03*
M02*
