M48
;Layer_Color=9474304
;FILE_FORMAT=2:4
INCH,LZ
;TYPE=PLATED
T1F00S00C0.0118
T2F00S00C0.0157
T3F00S00C0.0354
T4F00S00C0.1142
%
T01
X02205Y0018
Y0024
Y00302
Y00425
Y005374
Y006014
X0221Y0071
X021745Y0076
X02145Y006809
X022292Y008569
X02225Y010039
X021366Y011
X023173Y002761
Y001937
X0208Y00095
X019539
X019733Y00206
X02035Y003766
X02Y0084
X020437Y0087
X020745Y008981
X017751Y008711
X018192Y007798
Y007308
X017745Y010446
X016862Y0097
X015933Y009488
X015738Y009062
X015764Y008629
X015155Y0086
X015084Y009898
X015588Y010706
X0153Y0111
X015848Y011266
X016228Y010308
X013912Y010881
X01346Y01132
X0137Y0098
Y0094
X01388Y008913
X013683Y008527
X013764Y008137
X013683Y00741
X012731Y007732
X0125Y00575
X01195Y00565
X0122Y0054
X01175Y00525
X01155Y00505
X0115Y00475
X01145Y00385
X009982Y003686
X009078Y003721
X008699Y00395
X010241Y00487
X010948Y0055
X01375Y00535
X014477Y006041
X01495
X015518Y006026
X0156Y0053
X0151Y0034
X015098Y000787
X0149Y0003
X01575Y00095
X01609Y00084
X016851Y00092
X014125Y001051
X013317Y002
X0101Y00084
X0089Y00093
X006258Y002892
X007308Y007256
X007332Y0076
X007995Y008519
X0096Y0084
X009582Y00795
X00915
X008659Y007055
X0102Y0084
X0099Y00905
X010214Y0097
X011158Y010846
X00545Y00985
X01935Y011
X005052Y010057
X00525Y009356
X005155Y006795
X004351Y006288
X003948Y007645
X00335Y007338
X0029Y008716
X002241Y0097
X0027Y0105
X0006Y006117
X0006Y005174
X000587Y004237
X0006Y00325
Y002222
X001752Y001844
Y001089
Y000238
X0029Y001089
X00345Y002222
X004659Y002239
X004894Y000992
X00325Y0119
X00195Y01155
X004351Y01345
X00315Y01585
X00429Y01715
X001752Y018216
X000569Y01715
Y016391
Y015584
Y01488
X0061Y013823
X007964Y014341
X008659Y01478
X009723Y014083
X01Y014098
X010368Y014209
X00978Y013741
X009582Y0134
X009203Y01155
X00823Y012307
X007296Y0123
X007195Y0119
X00795Y01695
X00845Y016823
X00895Y01715
X009466Y0173
X0099Y017585
X010183Y016824
X010764Y014945
X011323Y015192
X01425Y01465
X0139Y01335
X013241Y013465
X01485Y01335
X016
X0158Y01215
X01524Y012234
X0176Y0116
X018163Y01215
X0176Y013241
X017561Y014217
X0176Y015572
X017875Y016268
X016619Y016545
X016966Y018666
X018098Y01768
X019973Y017112
X020894Y017075
X02095Y0188
X019733Y018738
X0196Y0162
X01965Y015571
X01895Y013741
X00935Y018738
X0076Y01745
X0061Y01735
Y018738
X021987Y017081
Y016203
Y01525
Y014153
X0219Y01206
X0231Y016442
Y01775
T02
X001598Y006491
T03
X02145Y000484
Y001484
X0231Y0036
Y0046
Y0056
Y0066
Y0076
Y0086
X0231Y01035
X02045Y001484
X01945
X01845
X01745
X01645
X01545
X01445
X01345
X01245
X01145
X01045
X00945
X00845
X00745
X00645
X00545
Y000484
X00645
X00745
X00845
X00945
X01045
X01145
X01245
X01345
X01445
X01545
X01645
X01745
X01845
X01945
X02045
X00445
X00345
Y001484
X00245
Y000484
X00445Y001484
X001484Y00735
X000484
Y00835
X001484
Y00935
X000484
Y01035
X001484
Y01215
X000484
Y01315
X001484
X00245Y018216
Y019216
X00345
Y018216
X00445
Y019216
X00545
Y018216
X00645
Y019216
X00745
Y018216
X00845
Y019216
X00945
Y018216
X01045
Y019216
X01145
Y018216
X01245
Y019216
X01345
Y018216
X01445
Y019216
X01545
Y018216
X01645
Y019216
X01745
Y018216
X01845
Y019216
X01945
Y018216
X02045
Y019216
X02145
Y018216
X0231Y01335
Y01235
Y01135
T04
X022863Y000787
X000787
Y018898
X022863
M30
