G04*
G04 #@! TF.GenerationSoftware,Altium Limited,Altium Designer,20.0.13 (296)*
G04*
G04 Layer_Color=2752767*
%FSLAX24Y24*%
%MOIN*%
G70*
G01*
G75*
%ADD17C,0.0100*%
%ADD19C,0.0039*%
%ADD20C,0.0060*%
%ADD21C,0.0020*%
%ADD22C,0.0080*%
%ADD65C,0.0020*%
%ADD66C,0.0027*%
D17*
X0Y22441D02*
X28346D01*
X0Y0D02*
Y22441D01*
X28346D02*
X28346Y0D01*
X0D02*
X28346D01*
X5000Y10050D02*
X8750D01*
Y14550D01*
X5000Y10050D02*
Y14550D01*
X8750D01*
X19150Y14450D02*
X22900D01*
X19150Y11075D02*
Y13325D01*
X22900Y9950D02*
Y14450D01*
X19150Y9950D02*
X22900D01*
X19150Y13325D02*
Y14450D01*
Y9950D02*
Y11075D01*
X-1575Y22441D02*
X-1375Y21841D01*
X-1775D02*
X-1575Y22441D01*
X-1775Y600D02*
X-1575Y0D01*
X-1375Y600D01*
X-1575Y12570D02*
Y22441D01*
Y0D02*
Y9551D01*
X-1675Y22441D02*
X-150D01*
X-1675Y0D02*
X-150D01*
X0Y-1850D02*
X600Y-1650D01*
X0Y-1850D02*
X600Y-2050D01*
X27746D02*
X28346Y-1850D01*
X27746Y-1650D02*
X28346Y-1850D01*
X0D02*
X12504D01*
X15523D02*
X28346D01*
X0Y-1950D02*
Y-150D01*
X28346Y-1950D02*
Y-150D01*
D19*
X9173Y7424D02*
G03*
X9173Y7424I-197J0D01*
G01*
X22306Y3451D02*
G03*
X22306Y3451I-197J0D01*
G01*
X3804Y17815D02*
X7996D01*
X3804Y21615D02*
X7996D01*
X3804Y17815D02*
Y21615D01*
X7996Y17815D02*
Y21615D01*
X21759Y18972D02*
Y20428D01*
X19121Y18972D02*
Y20428D01*
X21759D01*
X19121Y18972D02*
X21759D01*
X8622Y5022D02*
Y7778D01*
X11378Y5022D02*
Y7778D01*
X8622D02*
X11378D01*
X8622Y5022D02*
X11378D01*
X20337Y5203D02*
X22463D01*
X20337Y3097D02*
X22463D01*
X20337D02*
Y5203D01*
X22463Y3097D02*
Y5203D01*
X10862Y12800D02*
Y14500D01*
X9838Y12800D02*
Y14500D01*
Y12800D02*
X10862D01*
X9838Y14500D02*
X10862D01*
X9803Y6400D02*
X10197D01*
X10000Y6203D02*
Y6597D01*
D20*
X-1815Y10111D02*
Y9711D01*
X-1515D01*
X-1615Y9911D01*
Y10011D01*
X-1515Y10111D01*
X-1315D01*
X-1215Y10011D01*
Y9811D01*
X-1315Y9711D01*
X-1815Y10311D02*
Y10711D01*
X-1715D01*
X-1315Y10311D01*
X-1215D01*
Y10911D02*
X-1315D01*
Y11010D01*
X-1215D01*
Y10911D01*
X-1715Y11410D02*
X-1815Y11510D01*
Y11710D01*
X-1715Y11810D01*
X-1315D01*
X-1215Y11710D01*
Y11510D01*
X-1315Y11410D01*
X-1715D01*
Y12010D02*
X-1815Y12110D01*
Y12310D01*
X-1715Y12410D01*
X-1315D01*
X-1215Y12310D01*
Y12110D01*
X-1315Y12010D01*
X-1715D01*
X12664Y-1610D02*
X13064D01*
Y-1710D01*
X12664Y-2110D01*
Y-2210D01*
X13663D02*
X13263D01*
X13663Y-1810D01*
Y-1710D01*
X13563Y-1610D01*
X13363D01*
X13263Y-1710D01*
X13863Y-2210D02*
Y-2110D01*
X13963D01*
Y-2210D01*
X13863D01*
X14363Y-1710D02*
X14463Y-1610D01*
X14663D01*
X14763Y-1710D01*
Y-2110D01*
X14663Y-2210D01*
X14463D01*
X14363Y-2110D01*
Y-1710D01*
X14963D02*
X15063Y-1610D01*
X15263D01*
X15363Y-1710D01*
Y-2110D01*
X15263Y-2210D01*
X15063D01*
X14963Y-2110D01*
Y-1710D01*
D21*
X8071Y4471D02*
Y8329D01*
X11929Y4471D02*
Y8329D01*
X8071D02*
X11929D01*
X8071Y4471D02*
X11929D01*
D22*
X10350Y11918D02*
Y12311D01*
X10153Y12115D02*
X10547D01*
X10153Y15028D02*
X10547D01*
D65*
X13970Y21420D02*
Y21580D01*
X14130D01*
Y21420D01*
X13970D01*
X14970D02*
Y21580D01*
X15130D01*
Y21420D01*
X14970D01*
X15891D02*
Y21580D01*
X16051D01*
Y21420D01*
X15891D01*
X16891D02*
Y21580D01*
X17051D01*
Y21420D01*
X16891D01*
X17891D02*
Y21580D01*
X18051D01*
Y21420D01*
X17891D01*
X18891D02*
Y21580D01*
X19051D01*
Y21420D01*
X18891D01*
X787Y21574D02*
X707Y21734D01*
X867D01*
X787Y21574D01*
X27559D02*
X27479Y21734D01*
X27639D01*
X27559Y21574D01*
Y707D02*
X27479Y867D01*
X27639D01*
X27559Y707D01*
X787D02*
X707Y867D01*
X867D01*
X787Y707D01*
X27370Y4120D02*
Y4280D01*
X27530D01*
Y4120D01*
X27370D01*
X26370Y5120D02*
Y5280D01*
X26530D01*
Y5120D01*
X26370D01*
X27370D02*
Y5280D01*
X27530D01*
Y5120D01*
X27370D01*
X26370Y4120D02*
Y4280D01*
X26530D01*
Y4120D01*
X26370D01*
Y3041D02*
Y3201D01*
X26530D01*
Y3041D01*
X26370D01*
X27370Y3120D02*
Y3280D01*
X27530D01*
Y3120D01*
X27370D01*
X26370Y2041D02*
Y2201D01*
X26530D01*
Y2041D01*
X26370D01*
X27370D02*
Y2201D01*
X27530D01*
Y2041D01*
X27370D01*
X10545Y1075D02*
X10585Y1115D01*
X10625D01*
X10585Y1155D01*
X10625Y1195D01*
X10585D01*
X10545Y1235D01*
X10505Y1195D01*
X10465D01*
X10505Y1155D01*
X10465Y1115D01*
X10505D01*
X10545Y1075D01*
X15140Y2130D02*
X15180Y2170D01*
X15220D01*
X15180Y2210D01*
X15220Y2250D01*
X15180D01*
X15140Y2290D01*
X15100Y2250D01*
X15060D01*
X15100Y2210D01*
X15060Y2170D01*
X15100D01*
X15140Y2130D01*
X8000Y4940D02*
X8040Y4980D01*
X8080D01*
X8040Y5020D01*
X8080Y5060D01*
X8040D01*
X8000Y5100D01*
X7960Y5060D01*
X7920D01*
X7960Y5020D01*
X7920Y4980D01*
X7960D01*
X8000Y4940D01*
X11640Y16350D02*
X11680Y16390D01*
X11720D01*
X11680Y16430D01*
X11720Y16470D01*
X11680D01*
X11640Y16510D01*
X11600Y16470D01*
X11560D01*
X11600Y16430D01*
X11560Y16390D01*
X11600D01*
X11640Y16350D01*
X12040Y14940D02*
X12080Y14980D01*
X12120D01*
X12080Y15020D01*
X12120Y15060D01*
X12080D01*
X12040Y15100D01*
X12000Y15060D01*
X11960D01*
X12000Y15020D01*
X11960Y14980D01*
X12000D01*
X12040Y14940D01*
X9080Y21310D02*
X9120Y21350D01*
X9160D01*
X9120Y21390D01*
X9160Y21430D01*
X9120D01*
X9080Y21470D01*
X9040Y21430D01*
X9000D01*
X9040Y21390D01*
X9000Y21350D01*
X9040D01*
X9080Y21310D01*
X10410D02*
X10450Y21350D01*
X10490D01*
X10450Y21390D01*
X10490Y21430D01*
X10450D01*
X10410Y21470D01*
X10370Y21430D01*
X10330D01*
X10370Y21390D01*
X10330Y21350D01*
X10370D01*
X10410Y21310D01*
X27120Y19830D02*
X27160Y19870D01*
X27200D01*
X27160Y19910D01*
X27200Y19950D01*
X27160D01*
X27120Y19990D01*
X27080Y19950D01*
X27040D01*
X27080Y19910D01*
X27040Y19870D01*
X27080D01*
X27120Y19830D01*
Y18660D02*
X27160Y18700D01*
X27200D01*
X27160Y18740D01*
X27200Y18780D01*
X27160D01*
X27120Y18820D01*
X27080Y18780D01*
X27040D01*
X27080Y18740D01*
X27040Y18700D01*
X27080D01*
X27120Y18660D01*
X26850Y7750D02*
X26890Y7790D01*
X26930D01*
X26890Y7830D01*
X26930Y7870D01*
X26890D01*
X26850Y7910D01*
X26810Y7870D01*
X26770D01*
X26810Y7830D01*
X26770Y7790D01*
X26810D01*
X26850Y7750D01*
X26840Y8520D02*
X26880Y8560D01*
X26920D01*
X26880Y8600D01*
X26920Y8640D01*
X26880D01*
X26840Y8680D01*
X26800Y8640D01*
X26760D01*
X26800Y8600D01*
X26760Y8560D01*
X26800D01*
X26840Y8520D01*
X25810Y20720D02*
X25850Y20760D01*
X25890D01*
X25850Y20800D01*
X25890Y20840D01*
X25850D01*
X25810Y20880D01*
X25770Y20840D01*
X25730D01*
X25770Y20800D01*
X25730Y20760D01*
X25770D01*
X25810Y20720D01*
X5263Y19327D02*
X5303Y19367D01*
X5343D01*
X5303Y19407D01*
X5343Y19447D01*
X5303D01*
X5263Y19487D01*
X5223Y19447D01*
X5183D01*
X5223Y19407D01*
X5183Y19367D01*
X5223D01*
X5263Y19327D01*
X5690D02*
X5730Y19367D01*
X5770D01*
X5730Y19407D01*
X5770Y19447D01*
X5730D01*
X5690Y19487D01*
X5650Y19447D01*
X5610D01*
X5650Y19407D01*
X5610Y19367D01*
X5650D01*
X5690Y19327D01*
X6117D02*
X6157Y19367D01*
X6197D01*
X6157Y19407D01*
X6197Y19447D01*
X6157D01*
X6117Y19487D01*
X6077Y19447D01*
X6037D01*
X6077Y19407D01*
X6037Y19367D01*
X6077D01*
X6117Y19327D01*
X4837D02*
X4877Y19367D01*
X4917D01*
X4877Y19407D01*
X4917Y19447D01*
X4877D01*
X4837Y19487D01*
X4797Y19447D01*
X4757D01*
X4797Y19407D01*
X4757Y19367D01*
X4797D01*
X4837Y19327D01*
X6970D02*
X7010Y19367D01*
X7050D01*
X7010Y19407D01*
X7050Y19447D01*
X7010D01*
X6970Y19487D01*
X6930Y19447D01*
X6890D01*
X6930Y19407D01*
X6890Y19367D01*
X6930D01*
X6970Y19327D01*
X7397D02*
X7437Y19367D01*
X7477D01*
X7437Y19407D01*
X7477Y19447D01*
X7437D01*
X7397Y19487D01*
X7357Y19447D01*
X7317D01*
X7357Y19407D01*
X7317Y19367D01*
X7357D01*
X7397Y19327D01*
X6543D02*
X6583Y19367D01*
X6623D01*
X6583Y19407D01*
X6623Y19447D01*
X6583D01*
X6543Y19487D01*
X6503Y19447D01*
X6463D01*
X6503Y19407D01*
X6463Y19367D01*
X6503D01*
X6543Y19327D01*
X5263Y19753D02*
X5303Y19793D01*
X5343D01*
X5303Y19833D01*
X5343Y19873D01*
X5303D01*
X5263Y19913D01*
X5223Y19873D01*
X5183D01*
X5223Y19833D01*
X5183Y19793D01*
X5223D01*
X5263Y19753D01*
X5690D02*
X5730Y19793D01*
X5770D01*
X5730Y19833D01*
X5770Y19873D01*
X5730D01*
X5690Y19913D01*
X5650Y19873D01*
X5610D01*
X5650Y19833D01*
X5610Y19793D01*
X5650D01*
X5690Y19753D01*
X6117D02*
X6157Y19793D01*
X6197D01*
X6157Y19833D01*
X6197Y19873D01*
X6157D01*
X6117Y19913D01*
X6077Y19873D01*
X6037D01*
X6077Y19833D01*
X6037Y19793D01*
X6077D01*
X6117Y19753D01*
X4837D02*
X4877Y19793D01*
X4917D01*
X4877Y19833D01*
X4917Y19873D01*
X4877D01*
X4837Y19913D01*
X4797Y19873D01*
X4757D01*
X4797Y19833D01*
X4757Y19793D01*
X4797D01*
X4837Y19753D01*
X6970D02*
X7010Y19793D01*
X7050D01*
X7010Y19833D01*
X7050Y19873D01*
X7010D01*
X6970Y19913D01*
X6930Y19873D01*
X6890D01*
X6930Y19833D01*
X6890Y19793D01*
X6930D01*
X6970Y19753D01*
X7397D02*
X7437Y19793D01*
X7477D01*
X7437Y19833D01*
X7477Y19873D01*
X7437D01*
X7397Y19913D01*
X7357Y19873D01*
X7317D01*
X7357Y19833D01*
X7317Y19793D01*
X7357D01*
X7397Y19753D01*
X6543D02*
X6583Y19793D01*
X6623D01*
X6583Y19833D01*
X6623Y19873D01*
X6583D01*
X6543Y19913D01*
X6503Y19873D01*
X6463D01*
X6503Y19833D01*
X6463Y19793D01*
X6503D01*
X6543Y19753D01*
X5263Y20180D02*
X5303Y20220D01*
X5343D01*
X5303Y20260D01*
X5343Y20300D01*
X5303D01*
X5263Y20340D01*
X5223Y20300D01*
X5183D01*
X5223Y20260D01*
X5183Y20220D01*
X5223D01*
X5263Y20180D01*
X5690D02*
X5730Y20220D01*
X5770D01*
X5730Y20260D01*
X5770Y20300D01*
X5730D01*
X5690Y20340D01*
X5650Y20300D01*
X5610D01*
X5650Y20260D01*
X5610Y20220D01*
X5650D01*
X5690Y20180D01*
X6117D02*
X6157Y20220D01*
X6197D01*
X6157Y20260D01*
X6197Y20300D01*
X6157D01*
X6117Y20340D01*
X6077Y20300D01*
X6037D01*
X6077Y20260D01*
X6037Y20220D01*
X6077D01*
X6117Y20180D01*
X4837D02*
X4877Y20220D01*
X4917D01*
X4877Y20260D01*
X4917Y20300D01*
X4877D01*
X4837Y20340D01*
X4797Y20300D01*
X4757D01*
X4797Y20260D01*
X4757Y20220D01*
X4797D01*
X4837Y20180D01*
X6970D02*
X7010Y20220D01*
X7050D01*
X7010Y20260D01*
X7050Y20300D01*
X7010D01*
X6970Y20340D01*
X6930Y20300D01*
X6890D01*
X6930Y20260D01*
X6890Y20220D01*
X6930D01*
X6970Y20180D01*
X7397D02*
X7437Y20220D01*
X7477D01*
X7437Y20260D01*
X7477Y20300D01*
X7437D01*
X7397Y20340D01*
X7357Y20300D01*
X7317D01*
X7357Y20260D01*
X7317Y20220D01*
X7357D01*
X7397Y20180D01*
X6543D02*
X6583Y20220D01*
X6623D01*
X6583Y20260D01*
X6623Y20300D01*
X6583D01*
X6543Y20340D01*
X6503Y20300D01*
X6463D01*
X6503Y20260D01*
X6463Y20220D01*
X6503D01*
X6543Y20180D01*
X5263Y20607D02*
X5303Y20647D01*
X5343D01*
X5303Y20687D01*
X5343Y20727D01*
X5303D01*
X5263Y20767D01*
X5223Y20727D01*
X5183D01*
X5223Y20687D01*
X5183Y20647D01*
X5223D01*
X5263Y20607D01*
X5690D02*
X5730Y20647D01*
X5770D01*
X5730Y20687D01*
X5770Y20727D01*
X5730D01*
X5690Y20767D01*
X5650Y20727D01*
X5610D01*
X5650Y20687D01*
X5610Y20647D01*
X5650D01*
X5690Y20607D01*
X6117D02*
X6157Y20647D01*
X6197D01*
X6157Y20687D01*
X6197Y20727D01*
X6157D01*
X6117Y20767D01*
X6077Y20727D01*
X6037D01*
X6077Y20687D01*
X6037Y20647D01*
X6077D01*
X6117Y20607D01*
X4837D02*
X4877Y20647D01*
X4917D01*
X4877Y20687D01*
X4917Y20727D01*
X4877D01*
X4837Y20767D01*
X4797Y20727D01*
X4757D01*
X4797Y20687D01*
X4757Y20647D01*
X4797D01*
X4837Y20607D01*
X6970D02*
X7010Y20647D01*
X7050D01*
X7010Y20687D01*
X7050Y20727D01*
X7010D01*
X6970Y20767D01*
X6930Y20727D01*
X6890D01*
X6930Y20687D01*
X6890Y20647D01*
X6930D01*
X6970Y20607D01*
X7397D02*
X7437Y20647D01*
X7477D01*
X7437Y20687D01*
X7477Y20727D01*
X7437D01*
X7397Y20767D01*
X7357Y20727D01*
X7317D01*
X7357Y20687D01*
X7317Y20647D01*
X7357D01*
X7397Y20607D01*
X6543D02*
X6583Y20647D01*
X6623D01*
X6583Y20687D01*
X6623Y20727D01*
X6583D01*
X6543Y20767D01*
X6503Y20727D01*
X6463D01*
X6503Y20687D01*
X6463Y20647D01*
X6503D01*
X6543Y20607D01*
X5263Y21033D02*
X5303Y21073D01*
X5343D01*
X5303Y21113D01*
X5343Y21153D01*
X5303D01*
X5263Y21193D01*
X5223Y21153D01*
X5183D01*
X5223Y21113D01*
X5183Y21073D01*
X5223D01*
X5263Y21033D01*
X5690D02*
X5730Y21073D01*
X5770D01*
X5730Y21113D01*
X5770Y21153D01*
X5730D01*
X5690Y21193D01*
X5650Y21153D01*
X5610D01*
X5650Y21113D01*
X5610Y21073D01*
X5650D01*
X5690Y21033D01*
X6117D02*
X6157Y21073D01*
X6197D01*
X6157Y21113D01*
X6197Y21153D01*
X6157D01*
X6117Y21193D01*
X6077Y21153D01*
X6037D01*
X6077Y21113D01*
X6037Y21073D01*
X6077D01*
X6117Y21033D01*
X4837D02*
X4877Y21073D01*
X4917D01*
X4877Y21113D01*
X4917Y21153D01*
X4877D01*
X4837Y21193D01*
X4797Y21153D01*
X4757D01*
X4797Y21113D01*
X4757Y21073D01*
X4797D01*
X4837Y21033D01*
X6970D02*
X7010Y21073D01*
X7050D01*
X7010Y21113D01*
X7050Y21153D01*
X7010D01*
X6970Y21193D01*
X6930Y21153D01*
X6890D01*
X6930Y21113D01*
X6890Y21073D01*
X6930D01*
X6970Y21033D01*
X7397D02*
X7437Y21073D01*
X7477D01*
X7437Y21113D01*
X7477Y21153D01*
X7437D01*
X7397Y21193D01*
X7357Y21153D01*
X7317D01*
X7357Y21113D01*
X7317Y21073D01*
X7357D01*
X7397Y21033D01*
X6543D02*
X6583Y21073D01*
X6623D01*
X6583Y21113D01*
X6623Y21153D01*
X6583D01*
X6543Y21193D01*
X6503Y21153D01*
X6463D01*
X6503Y21113D01*
X6463Y21073D01*
X6503D01*
X6543Y21033D01*
X5263Y21460D02*
X5303Y21500D01*
X5343D01*
X5303Y21540D01*
X5343Y21580D01*
X5303D01*
X5263Y21620D01*
X5223Y21580D01*
X5183D01*
X5223Y21540D01*
X5183Y21500D01*
X5223D01*
X5263Y21460D01*
X5690D02*
X5730Y21500D01*
X5770D01*
X5730Y21540D01*
X5770Y21580D01*
X5730D01*
X5690Y21620D01*
X5650Y21580D01*
X5610D01*
X5650Y21540D01*
X5610Y21500D01*
X5650D01*
X5690Y21460D01*
X6117D02*
X6157Y21500D01*
X6197D01*
X6157Y21540D01*
X6197Y21580D01*
X6157D01*
X6117Y21620D01*
X6077Y21580D01*
X6037D01*
X6077Y21540D01*
X6037Y21500D01*
X6077D01*
X6117Y21460D01*
X4837D02*
X4877Y21500D01*
X4917D01*
X4877Y21540D01*
X4917Y21580D01*
X4877D01*
X4837Y21620D01*
X4797Y21580D01*
X4757D01*
X4797Y21540D01*
X4757Y21500D01*
X4797D01*
X4837Y21460D01*
X6970D02*
X7010Y21500D01*
X7050D01*
X7010Y21540D01*
X7050Y21580D01*
X7010D01*
X6970Y21620D01*
X6930Y21580D01*
X6890D01*
X6930Y21540D01*
X6890Y21500D01*
X6930D01*
X6970Y21460D01*
X7397D02*
X7437Y21500D01*
X7477D01*
X7437Y21540D01*
X7477Y21580D01*
X7437D01*
X7397Y21620D01*
X7357Y21580D01*
X7317D01*
X7357Y21540D01*
X7317Y21500D01*
X7357D01*
X7397Y21460D01*
X6543D02*
X6583Y21500D01*
X6623D01*
X6583Y21540D01*
X6623Y21580D01*
X6583D01*
X6543Y21620D01*
X6503Y21580D01*
X6463D01*
X6503Y21540D01*
X6463Y21500D01*
X6503D01*
X6543Y21460D01*
Y21887D02*
X6583Y21927D01*
X6623D01*
X6583Y21967D01*
X6623Y22007D01*
X6583D01*
X6543Y22047D01*
X6503Y22007D01*
X6463D01*
X6503Y21967D01*
X6463Y21927D01*
X6503D01*
X6543Y21887D01*
X7397D02*
X7437Y21927D01*
X7477D01*
X7437Y21967D01*
X7477Y22007D01*
X7437D01*
X7397Y22047D01*
X7357Y22007D01*
X7317D01*
X7357Y21967D01*
X7317Y21927D01*
X7357D01*
X7397Y21887D01*
X6970D02*
X7010Y21927D01*
X7050D01*
X7010Y21967D01*
X7050Y22007D01*
X7010D01*
X6970Y22047D01*
X6930Y22007D01*
X6890D01*
X6930Y21967D01*
X6890Y21927D01*
X6930D01*
X6970Y21887D01*
X4837D02*
X4877Y21927D01*
X4917D01*
X4877Y21967D01*
X4917Y22007D01*
X4877D01*
X4837Y22047D01*
X4797Y22007D01*
X4757D01*
X4797Y21967D01*
X4757Y21927D01*
X4797D01*
X4837Y21887D01*
X6117D02*
X6157Y21927D01*
X6197D01*
X6157Y21967D01*
X6197Y22007D01*
X6157D01*
X6117Y22047D01*
X6077Y22007D01*
X6037D01*
X6077Y21967D01*
X6037Y21927D01*
X6077D01*
X6117Y21887D01*
X5690D02*
X5730Y21927D01*
X5770D01*
X5730Y21967D01*
X5770Y22007D01*
X5730D01*
X5690Y22047D01*
X5650Y22007D01*
X5610D01*
X5650Y21967D01*
X5610Y21927D01*
X5650D01*
X5690Y21887D01*
X5263D02*
X5303Y21927D01*
X5343D01*
X5303Y21967D01*
X5343Y22007D01*
X5303D01*
X5263Y22047D01*
X5223Y22007D01*
X5183D01*
X5223Y21967D01*
X5183Y21927D01*
X5223D01*
X5263Y21887D01*
X4410Y20180D02*
X4450Y20220D01*
X4490D01*
X4450Y20260D01*
X4490Y20300D01*
X4450D01*
X4410Y20340D01*
X4370Y20300D01*
X4330D01*
X4370Y20260D01*
X4330Y20220D01*
X4370D01*
X4410Y20180D01*
Y19753D02*
X4450Y19793D01*
X4490D01*
X4450Y19833D01*
X4490Y19873D01*
X4450D01*
X4410Y19913D01*
X4370Y19873D01*
X4330D01*
X4370Y19833D01*
X4330Y19793D01*
X4370D01*
X4410Y19753D01*
Y19327D02*
X4450Y19367D01*
X4490D01*
X4450Y19407D01*
X4490Y19447D01*
X4450D01*
X4410Y19487D01*
X4370Y19447D01*
X4330D01*
X4370Y19407D01*
X4330Y19367D01*
X4370D01*
X4410Y19327D01*
Y20607D02*
X4450Y20647D01*
X4490D01*
X4450Y20687D01*
X4490Y20727D01*
X4450D01*
X4410Y20767D01*
X4370Y20727D01*
X4330D01*
X4370Y20687D01*
X4330Y20647D01*
X4370D01*
X4410Y20607D01*
Y21033D02*
X4450Y21073D01*
X4490D01*
X4450Y21113D01*
X4490Y21153D01*
X4450D01*
X4410Y21193D01*
X4370Y21153D01*
X4330D01*
X4370Y21113D01*
X4330Y21073D01*
X4370D01*
X4410Y21033D01*
Y21460D02*
X4450Y21500D01*
X4490D01*
X4450Y21540D01*
X4490Y21580D01*
X4450D01*
X4410Y21620D01*
X4370Y21580D01*
X4330D01*
X4370Y21540D01*
X4330Y21500D01*
X4370D01*
X4410Y21460D01*
Y21887D02*
X4450Y21927D01*
X4490D01*
X4450Y21967D01*
X4490Y22007D01*
X4450D01*
X4410Y22047D01*
X4370Y22007D01*
X4330D01*
X4370Y21967D01*
X4330Y21927D01*
X4370D01*
X4410Y21887D01*
X17110Y7120D02*
X17150Y7160D01*
X17190D01*
X17150Y7200D01*
X17190Y7240D01*
X17150D01*
X17110Y7280D01*
X17070Y7240D01*
X17030D01*
X17070Y7200D01*
X17030Y7160D01*
X17070D01*
X17110Y7120D01*
X15860Y5550D02*
X15900Y5590D01*
X15940D01*
X15900Y5630D01*
X15940Y5670D01*
X15900D01*
X15860Y5710D01*
X15820Y5670D01*
X15780D01*
X15820Y5630D01*
X15780Y5590D01*
X15820D01*
X15860Y5550D01*
X17960Y12720D02*
X18000Y12760D01*
X18040D01*
X18000Y12800D01*
X18040Y12840D01*
X18000D01*
X17960Y12880D01*
X17920Y12840D01*
X17880D01*
X17920Y12800D01*
X17880Y12760D01*
X17920D01*
X17960Y12720D01*
X16460Y12610D02*
X16500Y12650D01*
X16540D01*
X16500Y12690D01*
X16540Y12730D01*
X16500D01*
X16460Y12770D01*
X16420Y12730D01*
X16380D01*
X16420Y12690D01*
X16380Y12650D01*
X16420D01*
X16460Y12610D01*
X13130Y14270D02*
X13170Y14310D01*
X13210D01*
X13170Y14350D01*
X13210Y14390D01*
X13170D01*
X13130Y14430D01*
X13090Y14390D01*
X13050D01*
X13090Y14350D01*
X13050Y14310D01*
X13090D01*
X13130Y14270D01*
X12000Y21305D02*
X12040Y21345D01*
X12080D01*
X12040Y21385D01*
X12080Y21425D01*
X12040D01*
X12000Y21465D01*
X11960Y21425D01*
X11920D01*
X11960Y21385D01*
X11920Y21345D01*
X11960D01*
X12000Y21305D01*
X24190Y20480D02*
X24230Y20520D01*
X24270D01*
X24230Y20560D01*
X24270Y20600D01*
X24230D01*
X24190Y20640D01*
X24150Y20600D01*
X24110D01*
X24150Y20560D01*
X24110Y20520D01*
X24150D01*
X24190Y20480D01*
Y21370D02*
X24230Y21410D01*
X24270D01*
X24230Y21450D01*
X24270Y21490D01*
X24230D01*
X24190Y21530D01*
X24150Y21490D01*
X24110D01*
X24150Y21450D01*
X24110Y21410D01*
X24150D01*
X24190Y21370D01*
Y19600D02*
X24230Y19640D01*
X24270D01*
X24230Y19680D01*
X24270Y19720D01*
X24230D01*
X24190Y19760D01*
X24150Y19720D01*
X24110D01*
X24150Y19680D01*
X24110Y19640D01*
X24150D01*
X24190Y19600D01*
Y18210D02*
X24230Y18250D01*
X24270D01*
X24230Y18290D01*
X24270Y18330D01*
X24230D01*
X24190Y18370D01*
X24150Y18330D01*
X24110D01*
X24150Y18290D01*
X24110Y18250D01*
X24150D01*
X24190Y18210D01*
X27040Y15700D02*
X27080Y15740D01*
X27120D01*
X27080Y15780D01*
X27120Y15820D01*
X27080D01*
X27040Y15860D01*
X27000Y15820D01*
X26960D01*
X27000Y15780D01*
X26960Y15740D01*
X27000D01*
X27040Y15700D01*
Y14140D02*
X27080Y14180D01*
X27120D01*
X27080Y14220D01*
X27120Y14260D01*
X27080D01*
X27040Y14300D01*
X27000Y14260D01*
X26960D01*
X27000Y14220D01*
X26960Y14180D01*
X27000D01*
X27040Y14140D01*
X9440Y710D02*
X9480Y750D01*
X9520D01*
X9480Y790D01*
X9520Y830D01*
X9480D01*
X9440Y870D01*
X9400Y830D01*
X9360D01*
X9400Y790D01*
X9360Y750D01*
X9400D01*
X9440Y710D01*
X7490D02*
X7530Y750D01*
X7570D01*
X7530Y790D01*
X7570Y830D01*
X7530D01*
X7490Y870D01*
X7450Y830D01*
X7410D01*
X7450Y790D01*
X7410Y750D01*
X7450D01*
X7490Y710D01*
X5090Y780D02*
X5130Y820D01*
X5170D01*
X5130Y860D01*
X5170Y900D01*
X5130D01*
X5090Y940D01*
X5050Y900D01*
X5010D01*
X5050Y860D01*
X5010Y820D01*
X5050D01*
X5090Y780D01*
X2980Y810D02*
X3020Y850D01*
X3060D01*
X3020Y890D01*
X3060Y930D01*
X3020D01*
X2980Y970D01*
X2940Y930D01*
X2900D01*
X2940Y890D01*
X2900Y850D01*
X2940D01*
X2980Y810D01*
X2940Y8160D02*
X2980Y8200D01*
X3020D01*
X2980Y8240D01*
X3020Y8280D01*
X2980D01*
X2940Y8320D01*
X2900Y8280D01*
X2860D01*
X2900Y8240D01*
X2860Y8200D01*
X2900D01*
X2940Y8160D01*
X2880Y9240D02*
X2920Y9280D01*
X2960D01*
X2920Y9320D01*
X2960Y9360D01*
X2920D01*
X2880Y9400D01*
X2840Y9360D01*
X2800D01*
X2840Y9320D01*
X2800Y9280D01*
X2840D01*
X2880Y9240D01*
X2600Y14400D02*
X2640Y14440D01*
X2680D01*
X2640Y14480D01*
X2680Y14520D01*
X2640D01*
X2600Y14560D01*
X2560Y14520D01*
X2520D01*
X2560Y14480D01*
X2520Y14440D01*
X2560D01*
X2600Y14400D01*
X15209Y7319D02*
X15249Y7359D01*
X15289D01*
X15249Y7399D01*
X15289Y7439D01*
X15249D01*
X15209Y7479D01*
X15169Y7439D01*
X15129D01*
X15169Y7399D01*
X15129Y7359D01*
X15169D01*
X15209Y7319D01*
X13530Y5419D02*
X13570Y5459D01*
X13610D01*
X13570Y5499D01*
X13610Y5539D01*
X13570D01*
X13530Y5579D01*
X13490Y5539D01*
X13450D01*
X13490Y5499D01*
X13450Y5459D01*
X13490D01*
X13530Y5419D01*
X10840Y5430D02*
X10880Y5470D01*
X10920D01*
X10880Y5510D01*
X10920Y5550D01*
X10880D01*
X10840Y5590D01*
X10800Y5550D01*
X10760D01*
X10800Y5510D01*
X10760Y5470D01*
X10800D01*
X10840Y5430D01*
X7320Y7680D02*
X7360Y7760D01*
X7320Y7840D01*
X7400Y7800D01*
X7480Y7840D01*
X7440Y7760D01*
X7480Y7680D01*
X7400Y7720D01*
X7320Y7680D01*
X23460Y13640D02*
X23500Y13720D01*
X23460Y13800D01*
X23540Y13760D01*
X23620Y13800D01*
X23580Y13720D01*
X23620Y13640D01*
X23540Y13680D01*
X23460Y13640D01*
X23480Y10840D02*
X23520Y10920D01*
X23480Y11000D01*
X23560Y10960D01*
X23640Y11000D01*
X23600Y10920D01*
X23640Y10840D01*
X23560Y10880D01*
X23480Y10840D01*
X21810Y8167D02*
X21850Y8247D01*
X21810Y8327D01*
X21890Y8287D01*
X21970Y8327D01*
X21930Y8247D01*
X21970Y8167D01*
X21890Y8207D01*
X21810Y8167D01*
X21780Y5680D02*
X21820Y5760D01*
X21780Y5840D01*
X21860Y5800D01*
X21940Y5840D01*
X21900Y5760D01*
X21940Y5680D01*
X21860Y5720D01*
X21780Y5680D01*
X10780Y3810D02*
X10820Y3890D01*
X10780Y3970D01*
X10860Y3930D01*
X10940Y3970D01*
X10900Y3890D01*
X10940Y3810D01*
X10860Y3850D01*
X10780Y3810D01*
X10120Y3230D02*
X10160Y3310D01*
X10120Y3390D01*
X10200Y3350D01*
X10280Y3390D01*
X10240Y3310D01*
X10280Y3230D01*
X10200Y3270D01*
X10120Y3230D01*
X4860Y5450D02*
X4900Y5530D01*
X4860Y5610D01*
X4940Y5570D01*
X5020Y5610D01*
X4980Y5530D01*
X5020Y5450D01*
X4940Y5490D01*
X4860Y5450D01*
X7320Y5550D02*
X7360Y5630D01*
X7320Y5710D01*
X7400Y5670D01*
X7480Y5710D01*
X7440Y5630D01*
X7480Y5550D01*
X7400Y5590D01*
X7320Y5550D01*
X24600Y4810D02*
X24640Y4890D01*
X24600Y4970D01*
X24680Y4930D01*
X24760Y4970D01*
X24720Y4890D01*
X24760Y4810D01*
X24680Y4850D01*
X24600Y4810D01*
X19950Y2950D02*
X19990Y3030D01*
X19950Y3110D01*
X20030Y3070D01*
X20110Y3110D01*
X20070Y3030D01*
X20110Y2950D01*
X20030Y2990D01*
X19950Y2950D01*
X19960Y1690D02*
X20000Y1770D01*
X19960Y1850D01*
X20040Y1810D01*
X20120Y1850D01*
X20080Y1770D01*
X20120Y1690D01*
X20040Y1730D01*
X19960Y1690D01*
X26730Y16710D02*
X26770Y16790D01*
X26730Y16870D01*
X26810Y16830D01*
X26890Y16870D01*
X26850Y16790D01*
X26890Y16710D01*
X26810Y16750D01*
X26730Y16710D01*
X23960Y1420D02*
X24000Y1500D01*
X23960Y1580D01*
X24040Y1540D01*
X24120Y1580D01*
X24080Y1500D01*
X24120Y1420D01*
X24040Y1460D01*
X23960Y1420D01*
X17830Y19830D02*
X17870Y19870D01*
X17910D01*
X17870Y19910D01*
X17910Y19950D01*
X17870D01*
X17830Y19990D01*
X17790Y19950D01*
X17750D01*
X17790Y19910D01*
X17750Y19870D01*
X17790D01*
X17830Y19830D01*
X16950Y19860D02*
X16990Y19900D01*
X17030D01*
X16990Y19940D01*
X17030Y19980D01*
X16990D01*
X16950Y20020D01*
X16910Y19980D01*
X16870D01*
X16910Y19940D01*
X16870Y19900D01*
X16910D01*
X16950Y19860D01*
X15490D02*
X15530Y19900D01*
X15570D01*
X15530Y19940D01*
X15570Y19980D01*
X15530D01*
X15490Y20020D01*
X15450Y19980D01*
X15410D01*
X15450Y19940D01*
X15410Y19900D01*
X15450D01*
X15490Y19860D01*
X15971Y20311D02*
X16011Y20351D01*
X16051D01*
X16011Y20391D01*
X16051Y20431D01*
X16011D01*
X15971Y20471D01*
X15931Y20431D01*
X15891D01*
X15931Y20391D01*
X15891Y20351D01*
X15931D01*
X15971Y20311D01*
X12290Y10170D02*
X12330Y10210D01*
X12370D01*
X12330Y10250D01*
X12370Y10290D01*
X12330D01*
X12290Y10330D01*
X12250Y10290D01*
X12210D01*
X12250Y10250D01*
X12210Y10210D01*
X12250D01*
X12290Y10170D01*
X12000Y10450D02*
X12040Y10490D01*
X12080D01*
X12040Y10530D01*
X12080Y10570D01*
X12040D01*
X12000Y10610D01*
X11960Y10570D01*
X11920D01*
X11960Y10530D01*
X11920Y10490D01*
X11960D01*
X12000Y10450D01*
X11350Y10570D02*
X11390Y10610D01*
X11430D01*
X11390Y10650D01*
X11430Y10690D01*
X11390D01*
X11350Y10730D01*
X11310Y10690D01*
X11270D01*
X11310Y10650D01*
X11270Y10610D01*
X11310D01*
X11350Y10570D01*
X11654Y10485D02*
X11694Y10525D01*
X11734D01*
X11694Y10565D01*
X11734Y10605D01*
X11694D01*
X11654Y10645D01*
X11614Y10605D01*
X11574D01*
X11614Y10565D01*
X11574Y10525D01*
X11614D01*
X11654Y10485D01*
X18650Y4470D02*
X18690Y4510D01*
X18730D01*
X18690Y4550D01*
X18730Y4590D01*
X18690D01*
X18650Y4630D01*
X18610Y4590D01*
X18570D01*
X18610Y4550D01*
X18570Y4510D01*
X18610D01*
X18650Y4470D01*
X18200Y5570D02*
X18240Y5610D01*
X18280D01*
X18240Y5650D01*
X18280Y5690D01*
X18240D01*
X18200Y5730D01*
X18160Y5690D01*
X18120D01*
X18160Y5650D01*
X18120Y5610D01*
X18160D01*
X18200Y5570D01*
Y7270D02*
X18240Y7310D01*
X18280D01*
X18240Y7350D01*
X18280Y7390D01*
X18240D01*
X18200Y7430D01*
X18160Y7390D01*
X18120D01*
X18160Y7350D01*
X18120Y7310D01*
X18160D01*
X18200Y7270D01*
X12700Y6420D02*
X12740Y6460D01*
X12780D01*
X12740Y6500D01*
X12780Y6540D01*
X12740D01*
X12700Y6580D01*
X12660Y6540D01*
X12620D01*
X12660Y6500D01*
X12620Y6460D01*
X12660D01*
X12700Y6420D01*
X14200Y6720D02*
X14240Y6760D01*
X14280D01*
X14240Y6800D01*
X14280Y6840D01*
X14240D01*
X14200Y6880D01*
X14160Y6840D01*
X14120D01*
X14160Y6800D01*
X14120Y6760D01*
X14160D01*
X14200Y6720D01*
D66*
X1630Y12850D02*
G03*
X1630Y12850I-80J0D01*
G01*
Y10882D02*
G03*
X1630Y10882I-80J0D01*
G01*
X26930Y12850D02*
G03*
X26930Y12850I-80J0D01*
G01*
Y10882D02*
G03*
X26930Y10882I-80J0D01*
G01*
M02*
