G04*
G04 #@! TF.GenerationSoftware,Altium Limited,Altium Designer,20.0.13 (296)*
G04*
G04 Layer_Color=65535*
%FSLAX24Y24*%
%MOIN*%
G70*
G01*
G75*
%ADD10C,0.0079*%
%ADD11C,0.0157*%
%ADD12C,0.0059*%
%ADD13C,0.0098*%
%ADD14C,0.0236*%
%ADD15C,0.0118*%
%ADD16C,0.0197*%
%ADD17C,0.0100*%
%ADD18C,0.0050*%
%ADD19C,0.0039*%
%ADD20C,0.0060*%
%ADD21C,0.0020*%
%ADD22C,0.0080*%
G36*
X16730Y22337D02*
X16734D01*
X16745Y22336D01*
X16756Y22334D01*
X16769Y22331D01*
X16782Y22328D01*
X16794Y22324D01*
X16795D01*
X16796Y22323D01*
X16798Y22322D01*
X16800Y22321D01*
X16805Y22318D01*
X16813Y22313D01*
X16821Y22307D01*
X16829Y22300D01*
X16837Y22292D01*
X16844Y22282D01*
Y22282D01*
X16845Y22281D01*
X16846Y22280D01*
X16847Y22278D01*
X16850Y22272D01*
X16853Y22265D01*
X16857Y22256D01*
X16860Y22246D01*
X16862Y22235D01*
X16864Y22222D01*
X16815Y22219D01*
Y22219D01*
Y22220D01*
X16814Y22222D01*
X16814Y22225D01*
X16812Y22231D01*
X16810Y22239D01*
X16806Y22248D01*
X16801Y22257D01*
X16795Y22265D01*
X16788Y22273D01*
X16786Y22274D01*
X16784Y22276D01*
X16778Y22279D01*
X16771Y22282D01*
X16761Y22286D01*
X16750Y22289D01*
X16737Y22291D01*
X16721Y22292D01*
X16713D01*
X16710Y22291D01*
X16705Y22291D01*
X16695Y22290D01*
X16684Y22287D01*
X16673Y22285D01*
X16663Y22280D01*
X16658Y22277D01*
X16654Y22275D01*
X16653Y22274D01*
X16650Y22272D01*
X16647Y22268D01*
X16644Y22264D01*
X16640Y22257D01*
X16637Y22251D01*
X16634Y22243D01*
X16633Y22234D01*
Y22233D01*
Y22231D01*
X16634Y22227D01*
X16635Y22222D01*
X16637Y22217D01*
X16639Y22211D01*
X16643Y22206D01*
X16648Y22200D01*
X16648Y22200D01*
X16651Y22198D01*
X16653Y22196D01*
X16655Y22195D01*
X16659Y22194D01*
X16663Y22191D01*
X16668Y22190D01*
X16673Y22188D01*
X16679Y22185D01*
X16687Y22183D01*
X16694Y22180D01*
X16703Y22178D01*
X16713Y22175D01*
X16724Y22173D01*
X16725D01*
X16727Y22172D01*
X16730Y22171D01*
X16734Y22170D01*
X16739Y22169D01*
X16745Y22168D01*
X16751Y22166D01*
X16758Y22164D01*
X16773Y22160D01*
X16786Y22156D01*
X16793Y22154D01*
X16799Y22152D01*
X16805Y22150D01*
X16809Y22148D01*
X16810D01*
X16811Y22148D01*
X16813Y22146D01*
X16815Y22145D01*
X16821Y22142D01*
X16828Y22138D01*
X16836Y22131D01*
X16845Y22125D01*
X16852Y22117D01*
X16859Y22109D01*
X16860Y22108D01*
X16862Y22105D01*
X16864Y22100D01*
X16867Y22093D01*
X16870Y22085D01*
X16873Y22076D01*
X16875Y22065D01*
X16875Y22054D01*
Y22054D01*
Y22053D01*
Y22052D01*
Y22049D01*
X16874Y22043D01*
X16873Y22035D01*
X16871Y22027D01*
X16868Y22017D01*
X16864Y22007D01*
X16857Y21997D01*
Y21996D01*
X16857Y21995D01*
X16854Y21992D01*
X16850Y21987D01*
X16845Y21982D01*
X16838Y21975D01*
X16829Y21968D01*
X16819Y21961D01*
X16807Y21955D01*
X16806D01*
X16805Y21954D01*
X16804Y21954D01*
X16801Y21953D01*
X16798Y21952D01*
X16794Y21950D01*
X16785Y21948D01*
X16775Y21945D01*
X16762Y21942D01*
X16748Y21941D01*
X16733Y21940D01*
X16724D01*
X16720Y21941D01*
X16715D01*
X16709Y21941D01*
X16703Y21942D01*
X16689Y21944D01*
X16674Y21946D01*
X16660Y21950D01*
X16646Y21955D01*
X16645D01*
X16644Y21956D01*
X16643Y21957D01*
X16640Y21958D01*
X16634Y21961D01*
X16626Y21966D01*
X16617Y21973D01*
X16608Y21981D01*
X16599Y21990D01*
X16591Y22001D01*
Y22001D01*
X16589Y22002D01*
X16589Y22004D01*
X16587Y22006D01*
X16586Y22009D01*
X16584Y22012D01*
X16581Y22020D01*
X16577Y22031D01*
X16573Y22043D01*
X16571Y22056D01*
X16570Y22070D01*
X16618Y22074D01*
Y22074D01*
Y22073D01*
X16618Y22072D01*
Y22069D01*
X16619Y22064D01*
X16621Y22057D01*
X16623Y22050D01*
X16625Y22042D01*
X16629Y22034D01*
X16633Y22027D01*
X16634Y22026D01*
X16635Y22024D01*
X16638Y22020D01*
X16643Y22016D01*
X16648Y22011D01*
X16654Y22006D01*
X16663Y22001D01*
X16672Y21997D01*
X16672D01*
X16673Y21996D01*
X16674Y21995D01*
X16676Y21995D01*
X16682Y21993D01*
X16689Y21991D01*
X16698Y21989D01*
X16708Y21987D01*
X16719Y21986D01*
X16731Y21986D01*
X16736D01*
X16741Y21986D01*
X16748Y21987D01*
X16756Y21988D01*
X16765Y21989D01*
X16774Y21991D01*
X16782Y21994D01*
X16783Y21994D01*
X16786Y21995D01*
X16790Y21998D01*
X16795Y22000D01*
X16800Y22004D01*
X16805Y22008D01*
X16811Y22012D01*
X16815Y22018D01*
X16816Y22018D01*
X16817Y22020D01*
X16819Y22023D01*
X16821Y22028D01*
X16823Y22032D01*
X16825Y22038D01*
X16826Y22044D01*
X16826Y22050D01*
Y22051D01*
Y22054D01*
X16826Y22057D01*
X16825Y22062D01*
X16824Y22066D01*
X16822Y22072D01*
X16819Y22077D01*
X16815Y22082D01*
X16815Y22083D01*
X16813Y22084D01*
X16811Y22087D01*
X16807Y22090D01*
X16803Y22093D01*
X16796Y22097D01*
X16789Y22101D01*
X16781Y22104D01*
X16780Y22105D01*
X16778Y22105D01*
X16773Y22107D01*
X16770Y22108D01*
X16766Y22109D01*
X16763Y22110D01*
X16758Y22111D01*
X16752Y22113D01*
X16745Y22115D01*
X16739Y22116D01*
X16731Y22119D01*
X16722Y22121D01*
X16713Y22123D01*
X16712D01*
X16710Y22124D01*
X16708Y22124D01*
X16704Y22125D01*
X16700Y22126D01*
X16695Y22128D01*
X16684Y22131D01*
X16672Y22135D01*
X16659Y22139D01*
X16648Y22143D01*
X16643Y22145D01*
X16638Y22147D01*
X16638D01*
X16637Y22148D01*
X16634Y22150D01*
X16629Y22153D01*
X16623Y22157D01*
X16617Y22162D01*
X16610Y22168D01*
X16603Y22175D01*
X16598Y22183D01*
X16597Y22184D01*
X16596Y22187D01*
X16593Y22191D01*
X16591Y22197D01*
X16589Y22204D01*
X16587Y22213D01*
X16585Y22221D01*
X16584Y22231D01*
Y22231D01*
Y22232D01*
Y22234D01*
Y22236D01*
X16586Y22241D01*
X16587Y22249D01*
X16588Y22257D01*
X16591Y22266D01*
X16595Y22276D01*
X16601Y22285D01*
Y22286D01*
X16601Y22286D01*
X16604Y22290D01*
X16608Y22294D01*
X16613Y22300D01*
X16619Y22306D01*
X16628Y22312D01*
X16638Y22319D01*
X16649Y22324D01*
X16649D01*
X16650Y22325D01*
X16652Y22325D01*
X16654Y22326D01*
X16657Y22327D01*
X16661Y22329D01*
X16669Y22331D01*
X16680Y22333D01*
X16692Y22335D01*
X16705Y22337D01*
X16719Y22337D01*
X16727D01*
X16730Y22337D01*
D02*
G37*
G36*
X17649Y21947D02*
X17592D01*
X17547Y22063D01*
X17386D01*
X17344Y21947D01*
X17290D01*
X17437Y22331D01*
X17492D01*
X17649Y21947D01*
D02*
G37*
G36*
X17103Y22330D02*
X17114Y22330D01*
X17125Y22329D01*
X17136Y22327D01*
X17146Y22325D01*
X17146D01*
X17147Y22325D01*
X17149D01*
X17151Y22324D01*
X17157Y22322D01*
X17165Y22319D01*
X17174Y22315D01*
X17183Y22310D01*
X17193Y22305D01*
X17202Y22297D01*
X17202Y22297D01*
X17203Y22296D01*
X17204Y22295D01*
X17207Y22293D01*
X17212Y22287D01*
X17219Y22280D01*
X17226Y22270D01*
X17234Y22259D01*
X17241Y22246D01*
X17247Y22232D01*
Y22231D01*
X17248Y22230D01*
X17249Y22228D01*
X17249Y22225D01*
X17251Y22221D01*
X17252Y22216D01*
X17253Y22211D01*
X17255Y22205D01*
X17257Y22199D01*
X17258Y22192D01*
X17260Y22176D01*
X17262Y22159D01*
X17263Y22140D01*
Y22140D01*
Y22139D01*
Y22136D01*
Y22133D01*
X17262Y22129D01*
Y22125D01*
X17262Y22114D01*
X17260Y22102D01*
X17258Y22089D01*
X17255Y22076D01*
X17252Y22063D01*
Y22062D01*
X17252Y22061D01*
X17251Y22059D01*
X17250Y22057D01*
X17248Y22051D01*
X17245Y22043D01*
X17242Y22034D01*
X17237Y22025D01*
X17232Y22016D01*
X17226Y22007D01*
X17225Y22006D01*
X17223Y22003D01*
X17220Y21999D01*
X17215Y21994D01*
X17210Y21989D01*
X17204Y21983D01*
X17198Y21977D01*
X17191Y21972D01*
X17190Y21972D01*
X17188Y21970D01*
X17184Y21968D01*
X17178Y21965D01*
X17172Y21962D01*
X17164Y21959D01*
X17155Y21956D01*
X17145Y21953D01*
X17144D01*
X17142Y21952D01*
X17141Y21952D01*
X17135Y21951D01*
X17127Y21950D01*
X17118Y21949D01*
X17108Y21948D01*
X17096Y21947D01*
X17083Y21947D01*
X16945D01*
Y22331D01*
X17093D01*
X17103Y22330D01*
D02*
G37*
G36*
X19433Y22347D02*
X19438Y22346D01*
X19444Y22346D01*
X19450Y22345D01*
X19457Y22343D01*
X19472Y22340D01*
X19489Y22335D01*
X19497Y22332D01*
X19505Y22328D01*
X19513Y22323D01*
X19520Y22318D01*
X19521Y22317D01*
X19522Y22317D01*
X19524Y22315D01*
X19527Y22312D01*
X19530Y22310D01*
X19534Y22306D01*
X19538Y22301D01*
X19542Y22297D01*
X19547Y22291D01*
X19551Y22285D01*
X19556Y22278D01*
X19560Y22271D01*
X19564Y22262D01*
X19569Y22254D01*
X19572Y22245D01*
X19575Y22235D01*
X19525Y22224D01*
Y22224D01*
X19525Y22225D01*
X19524Y22227D01*
X19523Y22230D01*
X19522Y22234D01*
X19520Y22238D01*
X19515Y22247D01*
X19510Y22257D01*
X19503Y22267D01*
X19495Y22276D01*
X19486Y22285D01*
X19485Y22286D01*
X19482Y22288D01*
X19476Y22291D01*
X19469Y22295D01*
X19459Y22298D01*
X19449Y22301D01*
X19436Y22304D01*
X19422Y22304D01*
X19418D01*
X19415Y22304D01*
X19411D01*
X19407Y22303D01*
X19396Y22301D01*
X19384Y22299D01*
X19372Y22295D01*
X19360Y22290D01*
X19348Y22282D01*
X19347D01*
X19347Y22281D01*
X19343Y22279D01*
X19338Y22274D01*
X19332Y22267D01*
X19325Y22259D01*
X19318Y22250D01*
X19312Y22238D01*
X19306Y22225D01*
Y22225D01*
X19306Y22224D01*
X19305Y22222D01*
X19305Y22219D01*
X19303Y22216D01*
X19302Y22212D01*
X19301Y22203D01*
X19298Y22191D01*
X19296Y22179D01*
X19295Y22166D01*
X19295Y22151D01*
Y22151D01*
Y22149D01*
Y22146D01*
Y22143D01*
X19295Y22139D01*
Y22134D01*
X19296Y22129D01*
X19296Y22123D01*
X19298Y22109D01*
X19301Y22095D01*
X19304Y22080D01*
X19308Y22066D01*
Y22065D01*
X19309Y22064D01*
X19310Y22063D01*
X19311Y22060D01*
X19315Y22053D01*
X19320Y22045D01*
X19326Y22037D01*
X19333Y22027D01*
X19342Y22019D01*
X19353Y22011D01*
X19353D01*
X19355Y22011D01*
X19356Y22009D01*
X19358Y22008D01*
X19361Y22007D01*
X19365Y22006D01*
X19372Y22002D01*
X19382Y21999D01*
X19393Y21996D01*
X19406Y21994D01*
X19418Y21993D01*
X19422D01*
X19426Y21994D01*
X19429D01*
X19433Y21994D01*
X19443Y21997D01*
X19455Y21999D01*
X19467Y22004D01*
X19479Y22010D01*
X19485Y22013D01*
X19490Y22018D01*
X19491Y22018D01*
X19492Y22019D01*
X19493Y22020D01*
X19495Y22022D01*
X19498Y22025D01*
X19500Y22028D01*
X19504Y22032D01*
X19507Y22036D01*
X19510Y22041D01*
X19514Y22047D01*
X19517Y22052D01*
X19520Y22059D01*
X19523Y22066D01*
X19526Y22074D01*
X19529Y22082D01*
X19531Y22091D01*
X19582Y22078D01*
Y22078D01*
X19582Y22075D01*
X19580Y22072D01*
X19579Y22068D01*
X19577Y22063D01*
X19575Y22057D01*
X19572Y22050D01*
X19569Y22043D01*
X19561Y22027D01*
X19551Y22012D01*
X19545Y22004D01*
X19539Y21996D01*
X19532Y21989D01*
X19524Y21983D01*
X19524Y21982D01*
X19523Y21981D01*
X19520Y21980D01*
X19517Y21978D01*
X19513Y21975D01*
X19508Y21972D01*
X19502Y21969D01*
X19496Y21967D01*
X19489Y21963D01*
X19481Y21961D01*
X19473Y21958D01*
X19464Y21955D01*
X19454Y21953D01*
X19444Y21952D01*
X19434Y21951D01*
X19423Y21950D01*
X19417D01*
X19412Y21951D01*
X19407D01*
X19401Y21951D01*
X19394Y21952D01*
X19387Y21953D01*
X19371Y21956D01*
X19354Y21961D01*
X19337Y21967D01*
X19330Y21971D01*
X19322Y21975D01*
X19321Y21976D01*
X19320Y21976D01*
X19318Y21978D01*
X19316Y21980D01*
X19312Y21982D01*
X19308Y21986D01*
X19304Y21989D01*
X19300Y21994D01*
X19295Y21999D01*
X19290Y22004D01*
X19280Y22017D01*
X19271Y22032D01*
X19262Y22048D01*
Y22049D01*
X19261Y22050D01*
X19261Y22053D01*
X19259Y22057D01*
X19258Y22061D01*
X19256Y22067D01*
X19254Y22073D01*
X19252Y22079D01*
X19251Y22087D01*
X19249Y22095D01*
X19246Y22112D01*
X19244Y22131D01*
X19242Y22151D01*
Y22152D01*
Y22154D01*
Y22158D01*
X19243Y22161D01*
Y22167D01*
X19244Y22173D01*
X19244Y22180D01*
X19245Y22187D01*
X19248Y22203D01*
X19252Y22221D01*
X19257Y22239D01*
X19265Y22256D01*
X19266Y22256D01*
X19266Y22258D01*
X19267Y22260D01*
X19270Y22263D01*
X19272Y22267D01*
X19275Y22271D01*
X19282Y22281D01*
X19291Y22292D01*
X19302Y22304D01*
X19315Y22315D01*
X19330Y22324D01*
X19331Y22325D01*
X19332Y22325D01*
X19335Y22326D01*
X19337Y22328D01*
X19342Y22330D01*
X19346Y22331D01*
X19352Y22334D01*
X19358Y22336D01*
X19365Y22338D01*
X19372Y22340D01*
X19387Y22343D01*
X19405Y22346D01*
X19423Y22347D01*
X19429D01*
X19433Y22347D01*
D02*
G37*
G36*
X19028Y22340D02*
X19039Y22340D01*
X19050Y22339D01*
X19061Y22337D01*
X19070Y22335D01*
X19071D01*
X19072Y22335D01*
X19074D01*
X19076Y22334D01*
X19082Y22332D01*
X19090Y22329D01*
X19099Y22325D01*
X19108Y22320D01*
X19118Y22315D01*
X19126Y22307D01*
X19127Y22307D01*
X19128Y22306D01*
X19129Y22305D01*
X19131Y22303D01*
X19137Y22297D01*
X19144Y22290D01*
X19151Y22280D01*
X19159Y22269D01*
X19166Y22256D01*
X19172Y22242D01*
Y22241D01*
X19172Y22240D01*
X19174Y22238D01*
X19174Y22235D01*
X19176Y22231D01*
X19177Y22226D01*
X19178Y22221D01*
X19180Y22215D01*
X19181Y22209D01*
X19182Y22202D01*
X19185Y22186D01*
X19187Y22169D01*
X19187Y22150D01*
Y22150D01*
Y22149D01*
Y22146D01*
Y22143D01*
X19187Y22139D01*
Y22135D01*
X19186Y22124D01*
X19185Y22112D01*
X19183Y22099D01*
X19180Y22086D01*
X19177Y22073D01*
Y22072D01*
X19176Y22071D01*
X19176Y22069D01*
X19175Y22067D01*
X19173Y22061D01*
X19170Y22053D01*
X19166Y22044D01*
X19162Y22035D01*
X19156Y22026D01*
X19151Y22017D01*
X19150Y22016D01*
X19148Y22013D01*
X19145Y22009D01*
X19140Y22004D01*
X19135Y21999D01*
X19129Y21993D01*
X19123Y21987D01*
X19116Y21982D01*
X19115Y21982D01*
X19113Y21980D01*
X19109Y21978D01*
X19103Y21975D01*
X19096Y21972D01*
X19089Y21969D01*
X19080Y21966D01*
X19070Y21963D01*
X19069D01*
X19067Y21962D01*
X19065Y21962D01*
X19060Y21961D01*
X19052Y21960D01*
X19043Y21959D01*
X19033Y21958D01*
X19021Y21957D01*
X19008Y21957D01*
X18870D01*
Y22341D01*
X19018D01*
X19028Y22340D01*
D02*
G37*
G36*
X18250Y22347D02*
X18254D01*
X18264Y22346D01*
X18276Y22344D01*
X18288Y22341D01*
X18302Y22338D01*
X18314Y22334D01*
X18314D01*
X18316Y22333D01*
X18317Y22332D01*
X18319Y22331D01*
X18325Y22328D01*
X18332Y22323D01*
X18340Y22317D01*
X18349Y22310D01*
X18357Y22302D01*
X18364Y22292D01*
Y22292D01*
X18364Y22291D01*
X18365Y22290D01*
X18367Y22288D01*
X18369Y22282D01*
X18373Y22275D01*
X18377Y22266D01*
X18379Y22256D01*
X18382Y22245D01*
X18383Y22232D01*
X18334Y22229D01*
Y22229D01*
Y22230D01*
X18334Y22232D01*
X18333Y22235D01*
X18332Y22241D01*
X18329Y22249D01*
X18326Y22258D01*
X18321Y22267D01*
X18315Y22275D01*
X18307Y22283D01*
X18306Y22284D01*
X18303Y22286D01*
X18298Y22289D01*
X18291Y22292D01*
X18281Y22296D01*
X18270Y22299D01*
X18256Y22301D01*
X18241Y22302D01*
X18233D01*
X18229Y22301D01*
X18225Y22301D01*
X18215Y22300D01*
X18204Y22297D01*
X18193Y22295D01*
X18182Y22290D01*
X18178Y22287D01*
X18173Y22285D01*
X18172Y22284D01*
X18170Y22282D01*
X18167Y22278D01*
X18163Y22274D01*
X18160Y22267D01*
X18156Y22261D01*
X18154Y22253D01*
X18153Y22244D01*
Y22243D01*
Y22241D01*
X18153Y22237D01*
X18155Y22232D01*
X18156Y22227D01*
X18159Y22221D01*
X18162Y22216D01*
X18167Y22210D01*
X18168Y22210D01*
X18171Y22208D01*
X18173Y22206D01*
X18175Y22205D01*
X18178Y22204D01*
X18182Y22201D01*
X18187Y22200D01*
X18193Y22198D01*
X18199Y22195D01*
X18206Y22193D01*
X18214Y22190D01*
X18223Y22188D01*
X18233Y22185D01*
X18244Y22183D01*
X18244D01*
X18247Y22182D01*
X18250Y22181D01*
X18254Y22180D01*
X18259Y22179D01*
X18265Y22178D01*
X18271Y22176D01*
X18278Y22174D01*
X18292Y22170D01*
X18306Y22166D01*
X18313Y22164D01*
X18319Y22162D01*
X18324Y22160D01*
X18329Y22158D01*
X18329D01*
X18331Y22158D01*
X18332Y22156D01*
X18334Y22155D01*
X18340Y22152D01*
X18348Y22148D01*
X18356Y22141D01*
X18364Y22135D01*
X18372Y22127D01*
X18379Y22119D01*
X18379Y22118D01*
X18382Y22115D01*
X18384Y22110D01*
X18387Y22103D01*
X18390Y22095D01*
X18393Y22086D01*
X18394Y22075D01*
X18395Y22064D01*
Y22064D01*
Y22063D01*
Y22062D01*
Y22059D01*
X18394Y22053D01*
X18393Y22045D01*
X18390Y22037D01*
X18388Y22027D01*
X18383Y22017D01*
X18377Y22007D01*
Y22006D01*
X18377Y22006D01*
X18374Y22002D01*
X18370Y21997D01*
X18364Y21992D01*
X18357Y21985D01*
X18348Y21978D01*
X18338Y21971D01*
X18327Y21965D01*
X18326D01*
X18325Y21964D01*
X18323Y21964D01*
X18321Y21963D01*
X18318Y21962D01*
X18314Y21960D01*
X18305Y21958D01*
X18294Y21955D01*
X18282Y21952D01*
X18268Y21951D01*
X18253Y21950D01*
X18244D01*
X18239Y21951D01*
X18234D01*
X18229Y21951D01*
X18222Y21952D01*
X18208Y21954D01*
X18194Y21956D01*
X18180Y21960D01*
X18166Y21965D01*
X18165D01*
X18164Y21966D01*
X18162Y21967D01*
X18160Y21968D01*
X18153Y21971D01*
X18146Y21976D01*
X18137Y21983D01*
X18127Y21991D01*
X18118Y22000D01*
X18110Y22011D01*
Y22011D01*
X18109Y22012D01*
X18109Y22014D01*
X18107Y22016D01*
X18106Y22019D01*
X18104Y22022D01*
X18100Y22030D01*
X18096Y22041D01*
X18093Y22053D01*
X18091Y22066D01*
X18090Y22080D01*
X18137Y22084D01*
Y22084D01*
Y22083D01*
X18138Y22082D01*
Y22079D01*
X18139Y22074D01*
X18141Y22067D01*
X18143Y22060D01*
X18145Y22052D01*
X18149Y22044D01*
X18153Y22037D01*
X18153Y22036D01*
X18155Y22034D01*
X18158Y22030D01*
X18162Y22026D01*
X18168Y22021D01*
X18174Y22016D01*
X18182Y22011D01*
X18191Y22007D01*
X18192D01*
X18192Y22006D01*
X18194Y22006D01*
X18196Y22005D01*
X18201Y22003D01*
X18208Y22001D01*
X18217Y21999D01*
X18227Y21997D01*
X18238Y21996D01*
X18251Y21996D01*
X18256D01*
X18261Y21996D01*
X18268Y21997D01*
X18276Y21998D01*
X18284Y21999D01*
X18293Y22001D01*
X18302Y22004D01*
X18303Y22004D01*
X18306Y22006D01*
X18309Y22008D01*
X18314Y22010D01*
X18319Y22014D01*
X18325Y22018D01*
X18331Y22022D01*
X18335Y22028D01*
X18335Y22028D01*
X18337Y22030D01*
X18338Y22033D01*
X18340Y22038D01*
X18343Y22042D01*
X18344Y22048D01*
X18345Y22054D01*
X18346Y22060D01*
Y22061D01*
Y22064D01*
X18345Y22067D01*
X18345Y22072D01*
X18343Y22076D01*
X18342Y22082D01*
X18339Y22087D01*
X18335Y22092D01*
X18334Y22093D01*
X18333Y22094D01*
X18331Y22097D01*
X18327Y22100D01*
X18322Y22103D01*
X18316Y22107D01*
X18309Y22111D01*
X18301Y22114D01*
X18300Y22115D01*
X18297Y22115D01*
X18293Y22117D01*
X18290Y22118D01*
X18286Y22119D01*
X18282Y22120D01*
X18277Y22121D01*
X18272Y22123D01*
X18265Y22125D01*
X18258Y22126D01*
X18251Y22129D01*
X18242Y22131D01*
X18232Y22133D01*
X18232D01*
X18230Y22134D01*
X18227Y22134D01*
X18224Y22135D01*
X18219Y22136D01*
X18214Y22138D01*
X18203Y22141D01*
X18191Y22145D01*
X18178Y22149D01*
X18167Y22153D01*
X18162Y22155D01*
X18158Y22157D01*
X18157D01*
X18157Y22158D01*
X18153Y22160D01*
X18148Y22163D01*
X18143Y22167D01*
X18136Y22172D01*
X18130Y22178D01*
X18123Y22185D01*
X18117Y22193D01*
X18117Y22194D01*
X18115Y22197D01*
X18113Y22201D01*
X18111Y22207D01*
X18109Y22214D01*
X18106Y22223D01*
X18105Y22231D01*
X18104Y22241D01*
Y22241D01*
Y22242D01*
Y22244D01*
Y22246D01*
X18105Y22251D01*
X18106Y22259D01*
X18108Y22267D01*
X18111Y22276D01*
X18115Y22286D01*
X18120Y22295D01*
Y22296D01*
X18121Y22296D01*
X18123Y22300D01*
X18127Y22304D01*
X18132Y22310D01*
X18139Y22316D01*
X18147Y22322D01*
X18157Y22329D01*
X18168Y22334D01*
X18169D01*
X18170Y22335D01*
X18172Y22335D01*
X18174Y22336D01*
X18177Y22337D01*
X18181Y22339D01*
X18189Y22341D01*
X18200Y22343D01*
X18212Y22345D01*
X18224Y22347D01*
X18239Y22347D01*
X18246D01*
X18250Y22347D01*
D02*
G37*
G36*
X18740Y22295D02*
X18614D01*
Y21957D01*
X18562D01*
Y22295D01*
X18436D01*
Y22341D01*
X18740D01*
Y22295D01*
D02*
G37*
G36*
X17903Y22340D02*
X17908D01*
X17919Y22340D01*
X17931Y22338D01*
X17945Y22336D01*
X17957Y22334D01*
X17963Y22332D01*
X17968Y22330D01*
X17969D01*
X17969Y22330D01*
X17973Y22328D01*
X17978Y22326D01*
X17984Y22322D01*
X17990Y22317D01*
X17997Y22310D01*
X18004Y22302D01*
X18011Y22294D01*
Y22293D01*
X18011Y22292D01*
X18014Y22289D01*
X18016Y22284D01*
X18019Y22276D01*
X18022Y22268D01*
X18025Y22258D01*
X18026Y22247D01*
X18027Y22236D01*
Y22235D01*
Y22234D01*
Y22232D01*
X18026Y22229D01*
Y22225D01*
X18026Y22221D01*
X18024Y22212D01*
X18020Y22201D01*
X18016Y22189D01*
X18009Y22178D01*
X18005Y22172D01*
X18000Y22166D01*
X18000Y22166D01*
X17999Y22165D01*
X17997Y22164D01*
X17995Y22162D01*
X17993Y22160D01*
X17989Y22158D01*
X17985Y22155D01*
X17980Y22151D01*
X17975Y22149D01*
X17969Y22146D01*
X17962Y22143D01*
X17955Y22140D01*
X17946Y22138D01*
X17938Y22135D01*
X17929Y22133D01*
X17919Y22131D01*
X17920Y22131D01*
X17922Y22130D01*
X17925Y22128D01*
X17930Y22125D01*
X17940Y22119D01*
X17945Y22115D01*
X17949Y22112D01*
X17950Y22111D01*
X17953Y22108D01*
X17958Y22104D01*
X17963Y22098D01*
X17969Y22090D01*
X17976Y22082D01*
X17984Y22072D01*
X17991Y22061D01*
X18057Y21957D01*
X17994D01*
X17944Y22037D01*
Y22037D01*
X17943Y22038D01*
X17941Y22040D01*
X17940Y22042D01*
X17936Y22048D01*
X17931Y22056D01*
X17925Y22064D01*
X17919Y22073D01*
X17913Y22082D01*
X17907Y22089D01*
X17906Y22090D01*
X17905Y22092D01*
X17902Y22095D01*
X17898Y22099D01*
X17890Y22108D01*
X17885Y22112D01*
X17881Y22115D01*
X17880Y22115D01*
X17879Y22116D01*
X17877Y22117D01*
X17874Y22119D01*
X17870Y22120D01*
X17867Y22122D01*
X17858Y22125D01*
X17857D01*
X17856Y22125D01*
X17854D01*
X17851Y22126D01*
X17847Y22126D01*
X17843D01*
X17837Y22127D01*
X17771D01*
Y21957D01*
X17720D01*
Y22341D01*
X17898D01*
X17903Y22340D01*
D02*
G37*
G36*
X15670Y22337D02*
X15674D01*
X15685Y22336D01*
X15696Y22334D01*
X15709Y22331D01*
X15722Y22328D01*
X15734Y22324D01*
X15735D01*
X15736Y22323D01*
X15738Y22322D01*
X15740Y22321D01*
X15745Y22318D01*
X15753Y22313D01*
X15761Y22307D01*
X15769Y22300D01*
X15777Y22292D01*
X15784Y22282D01*
Y22282D01*
X15785Y22281D01*
X15786Y22280D01*
X15787Y22278D01*
X15790Y22272D01*
X15793Y22265D01*
X15797Y22256D01*
X15800Y22246D01*
X15802Y22235D01*
X15804Y22222D01*
X15755Y22219D01*
Y22219D01*
Y22220D01*
X15754Y22222D01*
X15754Y22225D01*
X15752Y22231D01*
X15750Y22239D01*
X15746Y22248D01*
X15741Y22257D01*
X15735Y22265D01*
X15728Y22273D01*
X15726Y22274D01*
X15724Y22276D01*
X15718Y22279D01*
X15711Y22282D01*
X15701Y22286D01*
X15690Y22289D01*
X15676Y22291D01*
X15661Y22292D01*
X15653D01*
X15650Y22291D01*
X15645Y22291D01*
X15635Y22290D01*
X15624Y22287D01*
X15613Y22285D01*
X15603Y22280D01*
X15598Y22277D01*
X15594Y22275D01*
X15593Y22274D01*
X15590Y22272D01*
X15587Y22268D01*
X15584Y22264D01*
X15580Y22257D01*
X15577Y22251D01*
X15574Y22243D01*
X15573Y22234D01*
Y22233D01*
Y22231D01*
X15574Y22227D01*
X15575Y22222D01*
X15577Y22217D01*
X15579Y22211D01*
X15583Y22206D01*
X15588Y22200D01*
X15588Y22200D01*
X15591Y22198D01*
X15593Y22196D01*
X15595Y22195D01*
X15599Y22194D01*
X15603Y22191D01*
X15608Y22190D01*
X15613Y22188D01*
X15619Y22185D01*
X15627Y22183D01*
X15634Y22180D01*
X15643Y22178D01*
X15653Y22175D01*
X15664Y22173D01*
X15665D01*
X15667Y22172D01*
X15670Y22171D01*
X15674Y22170D01*
X15679Y22169D01*
X15685Y22168D01*
X15691Y22166D01*
X15698Y22164D01*
X15713Y22160D01*
X15726Y22156D01*
X15733Y22154D01*
X15739Y22152D01*
X15745Y22150D01*
X15749Y22148D01*
X15750D01*
X15751Y22148D01*
X15753Y22146D01*
X15755Y22145D01*
X15761Y22142D01*
X15768Y22138D01*
X15776Y22131D01*
X15785Y22125D01*
X15792Y22117D01*
X15799Y22109D01*
X15800Y22108D01*
X15802Y22105D01*
X15804Y22100D01*
X15807Y22093D01*
X15810Y22085D01*
X15813Y22076D01*
X15815Y22065D01*
X15815Y22054D01*
Y22054D01*
Y22053D01*
Y22052D01*
Y22049D01*
X15814Y22043D01*
X15813Y22035D01*
X15811Y22027D01*
X15808Y22017D01*
X15804Y22007D01*
X15797Y21997D01*
Y21996D01*
X15797Y21995D01*
X15794Y21992D01*
X15790Y21987D01*
X15785Y21982D01*
X15778Y21975D01*
X15769Y21968D01*
X15759Y21961D01*
X15747Y21955D01*
X15746D01*
X15745Y21954D01*
X15744Y21954D01*
X15741Y21953D01*
X15738Y21952D01*
X15734Y21950D01*
X15725Y21948D01*
X15715Y21945D01*
X15702Y21942D01*
X15688Y21941D01*
X15673Y21940D01*
X15664D01*
X15660Y21941D01*
X15655D01*
X15649Y21941D01*
X15643Y21942D01*
X15629Y21944D01*
X15614Y21946D01*
X15600Y21950D01*
X15586Y21955D01*
X15585D01*
X15584Y21956D01*
X15583Y21957D01*
X15580Y21958D01*
X15574Y21961D01*
X15566Y21966D01*
X15557Y21973D01*
X15548Y21981D01*
X15539Y21990D01*
X15531Y22001D01*
Y22001D01*
X15529Y22002D01*
X15529Y22004D01*
X15527Y22006D01*
X15526Y22009D01*
X15524Y22012D01*
X15521Y22020D01*
X15517Y22031D01*
X15513Y22043D01*
X15511Y22056D01*
X15510Y22070D01*
X15558Y22074D01*
Y22074D01*
Y22073D01*
X15558Y22072D01*
Y22069D01*
X15559Y22064D01*
X15561Y22057D01*
X15563Y22050D01*
X15566Y22042D01*
X15569Y22034D01*
X15573Y22027D01*
X15574Y22026D01*
X15575Y22024D01*
X15578Y22020D01*
X15583Y22016D01*
X15588Y22011D01*
X15594Y22006D01*
X15603Y22001D01*
X15612Y21997D01*
X15612D01*
X15613Y21996D01*
X15614Y21995D01*
X15616Y21995D01*
X15622Y21993D01*
X15629Y21991D01*
X15638Y21989D01*
X15648Y21987D01*
X15659Y21986D01*
X15671Y21986D01*
X15676D01*
X15681Y21986D01*
X15688Y21987D01*
X15696Y21988D01*
X15705Y21989D01*
X15714Y21991D01*
X15722Y21994D01*
X15723Y21994D01*
X15726Y21995D01*
X15730Y21998D01*
X15735Y22000D01*
X15740Y22004D01*
X15745Y22008D01*
X15751Y22012D01*
X15755Y22018D01*
X15756Y22018D01*
X15757Y22020D01*
X15759Y22023D01*
X15761Y22028D01*
X15763Y22032D01*
X15765Y22038D01*
X15766Y22044D01*
X15766Y22050D01*
Y22051D01*
Y22054D01*
X15766Y22057D01*
X15765Y22062D01*
X15764Y22066D01*
X15762Y22072D01*
X15759Y22077D01*
X15755Y22082D01*
X15755Y22083D01*
X15753Y22084D01*
X15751Y22087D01*
X15747Y22090D01*
X15743Y22093D01*
X15736Y22097D01*
X15729Y22101D01*
X15721Y22104D01*
X15720Y22105D01*
X15718Y22105D01*
X15713Y22107D01*
X15710Y22108D01*
X15706Y22109D01*
X15703Y22110D01*
X15698Y22111D01*
X15692Y22113D01*
X15685Y22115D01*
X15679Y22116D01*
X15671Y22119D01*
X15662Y22121D01*
X15653Y22123D01*
X15652D01*
X15650Y22124D01*
X15648Y22124D01*
X15644Y22125D01*
X15640Y22126D01*
X15635Y22128D01*
X15624Y22131D01*
X15612Y22135D01*
X15599Y22139D01*
X15588Y22143D01*
X15583Y22145D01*
X15578Y22147D01*
X15578D01*
X15577Y22148D01*
X15574Y22150D01*
X15569Y22153D01*
X15563Y22157D01*
X15557Y22162D01*
X15550Y22168D01*
X15543Y22175D01*
X15538Y22183D01*
X15537Y22184D01*
X15536Y22187D01*
X15533Y22191D01*
X15531Y22197D01*
X15529Y22204D01*
X15527Y22213D01*
X15525Y22221D01*
X15524Y22231D01*
Y22231D01*
Y22232D01*
Y22234D01*
Y22236D01*
X15526Y22241D01*
X15527Y22249D01*
X15528Y22257D01*
X15531Y22266D01*
X15535Y22276D01*
X15541Y22285D01*
Y22286D01*
X15541Y22286D01*
X15544Y22290D01*
X15548Y22294D01*
X15553Y22300D01*
X15559Y22306D01*
X15568Y22312D01*
X15578Y22319D01*
X15589Y22324D01*
X15589D01*
X15590Y22325D01*
X15592Y22325D01*
X15594Y22326D01*
X15597Y22327D01*
X15601Y22329D01*
X15609Y22331D01*
X15620Y22333D01*
X15632Y22335D01*
X15645Y22337D01*
X15659Y22337D01*
X15667D01*
X15670Y22337D01*
D02*
G37*
G36*
X16061D02*
X16066Y22336D01*
X16072Y22336D01*
X16078Y22335D01*
X16085Y22333D01*
X16100Y22330D01*
X16117Y22325D01*
X16125Y22322D01*
X16133Y22318D01*
X16140Y22313D01*
X16148Y22308D01*
X16149Y22307D01*
X16150Y22307D01*
X16152Y22305D01*
X16155Y22302D01*
X16158Y22300D01*
X16162Y22296D01*
X16165Y22291D01*
X16170Y22287D01*
X16174Y22281D01*
X16179Y22275D01*
X16184Y22268D01*
X16188Y22261D01*
X16192Y22252D01*
X16197Y22244D01*
X16200Y22235D01*
X16203Y22225D01*
X16153Y22214D01*
Y22214D01*
X16153Y22215D01*
X16152Y22218D01*
X16150Y22220D01*
X16149Y22224D01*
X16148Y22228D01*
X16143Y22237D01*
X16138Y22247D01*
X16131Y22257D01*
X16123Y22266D01*
X16114Y22275D01*
X16113Y22276D01*
X16109Y22278D01*
X16104Y22281D01*
X16097Y22285D01*
X16087Y22288D01*
X16077Y22291D01*
X16064Y22294D01*
X16050Y22294D01*
X16046D01*
X16043Y22294D01*
X16039D01*
X16034Y22293D01*
X16024Y22291D01*
X16012Y22289D01*
X16000Y22285D01*
X15987Y22280D01*
X15976Y22272D01*
X15975D01*
X15975Y22271D01*
X15971Y22269D01*
X15966Y22264D01*
X15960Y22257D01*
X15952Y22249D01*
X15946Y22240D01*
X15940Y22228D01*
X15934Y22215D01*
Y22215D01*
X15933Y22214D01*
X15933Y22212D01*
X15932Y22209D01*
X15931Y22206D01*
X15930Y22202D01*
X15928Y22193D01*
X15926Y22181D01*
X15924Y22169D01*
X15923Y22156D01*
X15922Y22141D01*
Y22141D01*
Y22139D01*
Y22136D01*
Y22133D01*
X15923Y22129D01*
Y22124D01*
X15923Y22119D01*
X15924Y22113D01*
X15926Y22099D01*
X15928Y22085D01*
X15932Y22070D01*
X15936Y22056D01*
Y22055D01*
X15937Y22054D01*
X15938Y22053D01*
X15939Y22050D01*
X15942Y22043D01*
X15947Y22035D01*
X15953Y22027D01*
X15961Y22017D01*
X15970Y22009D01*
X15981Y22001D01*
X15981D01*
X15982Y22001D01*
X15984Y21999D01*
X15986Y21998D01*
X15989Y21997D01*
X15992Y21995D01*
X16000Y21992D01*
X16010Y21989D01*
X16021Y21986D01*
X16033Y21984D01*
X16046Y21983D01*
X16050D01*
X16053Y21984D01*
X16057D01*
X16061Y21984D01*
X16071Y21987D01*
X16083Y21989D01*
X16094Y21994D01*
X16107Y22000D01*
X16113Y22003D01*
X16118Y22008D01*
X16119Y22008D01*
X16119Y22009D01*
X16121Y22010D01*
X16123Y22012D01*
X16126Y22015D01*
X16128Y22018D01*
X16132Y22022D01*
X16134Y22026D01*
X16138Y22031D01*
X16142Y22037D01*
X16145Y22042D01*
X16148Y22049D01*
X16151Y22056D01*
X16154Y22064D01*
X16157Y22072D01*
X16159Y22081D01*
X16210Y22068D01*
Y22068D01*
X16209Y22065D01*
X16208Y22062D01*
X16207Y22058D01*
X16205Y22053D01*
X16203Y22047D01*
X16200Y22040D01*
X16197Y22033D01*
X16189Y22017D01*
X16179Y22002D01*
X16173Y21994D01*
X16167Y21986D01*
X16160Y21979D01*
X16152Y21973D01*
X16152Y21972D01*
X16150Y21971D01*
X16148Y21970D01*
X16145Y21968D01*
X16140Y21965D01*
X16136Y21962D01*
X16130Y21959D01*
X16124Y21957D01*
X16117Y21953D01*
X16109Y21951D01*
X16101Y21948D01*
X16092Y21945D01*
X16082Y21943D01*
X16072Y21942D01*
X16062Y21941D01*
X16051Y21940D01*
X16044D01*
X16040Y21941D01*
X16035D01*
X16029Y21941D01*
X16022Y21942D01*
X16014Y21943D01*
X15998Y21946D01*
X15982Y21951D01*
X15965Y21957D01*
X15957Y21961D01*
X15950Y21965D01*
X15949Y21966D01*
X15948Y21966D01*
X15946Y21968D01*
X15943Y21970D01*
X15940Y21972D01*
X15936Y21976D01*
X15932Y21979D01*
X15927Y21984D01*
X15923Y21989D01*
X15918Y21994D01*
X15908Y22007D01*
X15898Y22022D01*
X15890Y22038D01*
Y22039D01*
X15889Y22040D01*
X15889Y22043D01*
X15887Y22047D01*
X15886Y22051D01*
X15884Y22057D01*
X15882Y22063D01*
X15880Y22069D01*
X15879Y22077D01*
X15876Y22085D01*
X15874Y22102D01*
X15871Y22121D01*
X15870Y22141D01*
Y22142D01*
Y22144D01*
Y22148D01*
X15871Y22151D01*
Y22157D01*
X15871Y22163D01*
X15872Y22170D01*
X15873Y22177D01*
X15876Y22193D01*
X15880Y22211D01*
X15885Y22229D01*
X15893Y22246D01*
X15894Y22246D01*
X15894Y22248D01*
X15895Y22250D01*
X15897Y22253D01*
X15900Y22257D01*
X15902Y22261D01*
X15910Y22271D01*
X15919Y22282D01*
X15930Y22294D01*
X15943Y22305D01*
X15958Y22314D01*
X15958Y22315D01*
X15960Y22315D01*
X15962Y22316D01*
X15965Y22318D01*
X15970Y22320D01*
X15974Y22321D01*
X15980Y22324D01*
X15986Y22326D01*
X15992Y22328D01*
X16000Y22330D01*
X16015Y22333D01*
X16033Y22336D01*
X16051Y22337D01*
X16057D01*
X16061Y22337D01*
D02*
G37*
G36*
X16321Y21992D02*
X16511D01*
Y21947D01*
X16270D01*
Y22331D01*
X16321D01*
Y21992D01*
D02*
G37*
G36*
X13963Y22337D02*
X13967D01*
X13978Y22336D01*
X13989Y22334D01*
X14001Y22331D01*
X14015Y22328D01*
X14028Y22324D01*
X14028D01*
X14029Y22323D01*
X14031Y22322D01*
X14033Y22321D01*
X14039Y22318D01*
X14047Y22314D01*
X14055Y22309D01*
X14064Y22302D01*
X14072Y22295D01*
X14080Y22286D01*
X14081Y22285D01*
X14084Y22281D01*
X14087Y22276D01*
X14091Y22269D01*
X14096Y22260D01*
X14101Y22249D01*
X14106Y22237D01*
X14110Y22223D01*
X14064Y22211D01*
Y22211D01*
X14063Y22212D01*
X14062Y22214D01*
X14062Y22216D01*
X14060Y22221D01*
X14058Y22227D01*
X14055Y22235D01*
X14051Y22242D01*
X14047Y22250D01*
X14042Y22257D01*
X14041Y22257D01*
X14040Y22260D01*
X14036Y22262D01*
X14033Y22266D01*
X14028Y22271D01*
X14021Y22275D01*
X14014Y22280D01*
X14005Y22284D01*
X14004Y22284D01*
X14001Y22285D01*
X13996Y22287D01*
X13990Y22289D01*
X13982Y22291D01*
X13973Y22292D01*
X13963Y22294D01*
X13953Y22294D01*
X13946D01*
X13944Y22294D01*
X13940D01*
X13932Y22293D01*
X13923Y22291D01*
X13912Y22290D01*
X13902Y22287D01*
X13892Y22283D01*
X13891Y22282D01*
X13888Y22281D01*
X13883Y22279D01*
X13878Y22276D01*
X13871Y22271D01*
X13864Y22267D01*
X13857Y22261D01*
X13851Y22255D01*
X13850Y22255D01*
X13848Y22252D01*
X13845Y22249D01*
X13842Y22244D01*
X13838Y22239D01*
X13834Y22232D01*
X13830Y22225D01*
X13827Y22217D01*
Y22216D01*
X13826Y22215D01*
X13825Y22214D01*
X13824Y22211D01*
X13823Y22208D01*
X13822Y22204D01*
X13821Y22199D01*
X13819Y22194D01*
X13817Y22183D01*
X13814Y22169D01*
X13813Y22155D01*
X13812Y22140D01*
Y22139D01*
Y22138D01*
Y22135D01*
X13813Y22131D01*
Y22127D01*
X13813Y22121D01*
X13814Y22116D01*
X13814Y22110D01*
X13817Y22096D01*
X13819Y22082D01*
X13824Y22067D01*
X13829Y22053D01*
Y22053D01*
X13830Y22052D01*
X13831Y22050D01*
X13833Y22048D01*
X13837Y22042D01*
X13843Y22034D01*
X13850Y22025D01*
X13859Y22017D01*
X13869Y22009D01*
X13881Y22002D01*
X13882D01*
X13883Y22002D01*
X13884Y22001D01*
X13887Y21999D01*
X13890Y21998D01*
X13894Y21997D01*
X13903Y21994D01*
X13914Y21991D01*
X13926Y21988D01*
X13939Y21986D01*
X13953Y21986D01*
X13959D01*
X13962Y21986D01*
X13965D01*
X13974Y21987D01*
X13984Y21988D01*
X13994Y21990D01*
X14006Y21994D01*
X14018Y21998D01*
X14018D01*
X14019Y21998D01*
X14020Y21999D01*
X14023Y22000D01*
X14029Y22003D01*
X14035Y22006D01*
X14043Y22010D01*
X14051Y22014D01*
X14059Y22019D01*
X14066Y22025D01*
Y22097D01*
X13953D01*
Y22143D01*
X14116D01*
Y22000D01*
X14115Y21999D01*
X14114Y21999D01*
X14112Y21997D01*
X14109Y21995D01*
X14106Y21993D01*
X14102Y21990D01*
X14097Y21987D01*
X14092Y21983D01*
X14080Y21976D01*
X14067Y21968D01*
X14053Y21961D01*
X14038Y21955D01*
X14037D01*
X14036Y21954D01*
X14034Y21954D01*
X14031Y21953D01*
X14028Y21952D01*
X14023Y21950D01*
X14018Y21949D01*
X14013Y21948D01*
X14001Y21945D01*
X13987Y21942D01*
X13972Y21941D01*
X13956Y21940D01*
X13951D01*
X13947Y21941D01*
X13942D01*
X13936Y21941D01*
X13929Y21942D01*
X13922Y21943D01*
X13906Y21946D01*
X13889Y21950D01*
X13871Y21956D01*
X13862Y21959D01*
X13853Y21964D01*
X13853Y21964D01*
X13851Y21965D01*
X13849Y21967D01*
X13845Y21968D01*
X13842Y21971D01*
X13838Y21974D01*
X13827Y21982D01*
X13816Y21992D01*
X13804Y22004D01*
X13793Y22018D01*
X13783Y22034D01*
Y22034D01*
X13782Y22036D01*
X13781Y22038D01*
X13779Y22042D01*
X13778Y22046D01*
X13776Y22052D01*
X13774Y22057D01*
X13772Y22064D01*
X13769Y22071D01*
X13767Y22079D01*
X13766Y22088D01*
X13764Y22097D01*
X13761Y22116D01*
X13760Y22136D01*
Y22137D01*
Y22139D01*
Y22142D01*
X13761Y22146D01*
Y22151D01*
X13761Y22157D01*
X13762Y22163D01*
X13763Y22170D01*
X13764Y22178D01*
X13766Y22186D01*
X13770Y22204D01*
X13776Y22222D01*
X13783Y22241D01*
X13784Y22241D01*
X13784Y22243D01*
X13786Y22245D01*
X13788Y22249D01*
X13790Y22253D01*
X13793Y22257D01*
X13801Y22268D01*
X13810Y22280D01*
X13822Y22292D01*
X13835Y22304D01*
X13843Y22309D01*
X13850Y22314D01*
X13851Y22314D01*
X13853Y22315D01*
X13855Y22316D01*
X13858Y22317D01*
X13863Y22319D01*
X13868Y22321D01*
X13873Y22324D01*
X13880Y22326D01*
X13887Y22328D01*
X13895Y22330D01*
X13903Y22332D01*
X13912Y22333D01*
X13931Y22336D01*
X13941Y22337D01*
X13959D01*
X13963Y22337D01*
D02*
G37*
G36*
X14929D02*
X14937Y22336D01*
X14946Y22334D01*
X14956Y22331D01*
X14965Y22328D01*
X14975Y22324D01*
X14976D01*
X14977Y22323D01*
X14980Y22321D01*
X14985Y22318D01*
X14990Y22314D01*
X14997Y22309D01*
X15004Y22302D01*
X15010Y22295D01*
X15016Y22287D01*
X15017Y22286D01*
X15018Y22283D01*
X15020Y22278D01*
X15023Y22272D01*
X15026Y22265D01*
X15028Y22256D01*
X15030Y22247D01*
X15030Y22237D01*
Y22236D01*
Y22233D01*
X15030Y22229D01*
X15029Y22222D01*
X15027Y22215D01*
X15024Y22208D01*
X15021Y22200D01*
X15017Y22192D01*
X15016Y22191D01*
X15014Y22189D01*
X15011Y22185D01*
X15007Y22180D01*
X15001Y22175D01*
X14994Y22170D01*
X14987Y22165D01*
X14977Y22160D01*
X14978D01*
X14979Y22159D01*
X14980Y22159D01*
X14983Y22158D01*
X14989Y22156D01*
X14997Y22153D01*
X15005Y22148D01*
X15014Y22143D01*
X15023Y22135D01*
X15030Y22127D01*
X15031Y22126D01*
X15033Y22123D01*
X15037Y22117D01*
X15040Y22110D01*
X15043Y22101D01*
X15047Y22090D01*
X15049Y22078D01*
X15049Y22065D01*
Y22064D01*
Y22063D01*
Y22060D01*
X15049Y22057D01*
X15048Y22052D01*
X15047Y22047D01*
X15046Y22042D01*
X15045Y22035D01*
X15040Y22022D01*
X15037Y22015D01*
X15034Y22008D01*
X15029Y22001D01*
X15024Y21994D01*
X15019Y21987D01*
X15012Y21980D01*
X15012Y21979D01*
X15010Y21978D01*
X15008Y21977D01*
X15005Y21974D01*
X15002Y21972D01*
X14998Y21969D01*
X14993Y21966D01*
X14987Y21963D01*
X14980Y21959D01*
X14973Y21956D01*
X14966Y21953D01*
X14958Y21951D01*
X14949Y21948D01*
X14939Y21947D01*
X14930Y21946D01*
X14919Y21945D01*
X14914D01*
X14911Y21946D01*
X14907Y21946D01*
X14902Y21947D01*
X14896Y21948D01*
X14890Y21949D01*
X14877Y21952D01*
X14863Y21958D01*
X14856Y21961D01*
X14849Y21965D01*
X14842Y21970D01*
X14836Y21975D01*
X14835Y21976D01*
X14834Y21977D01*
X14832Y21978D01*
X14831Y21981D01*
X14828Y21983D01*
X14825Y21987D01*
X14822Y21991D01*
X14818Y21996D01*
X14815Y22002D01*
X14812Y22007D01*
X14806Y22020D01*
X14801Y22036D01*
X14799Y22044D01*
X14798Y22053D01*
X14845Y22059D01*
Y22059D01*
X14846Y22058D01*
X14846Y22055D01*
X14847Y22053D01*
X14847Y22049D01*
X14848Y22045D01*
X14851Y22037D01*
X14855Y22027D01*
X14860Y22018D01*
X14866Y22009D01*
X14872Y22001D01*
X14873Y22001D01*
X14876Y21998D01*
X14880Y21995D01*
X14886Y21993D01*
X14892Y21989D01*
X14901Y21987D01*
X14910Y21984D01*
X14920Y21984D01*
X14923D01*
X14926Y21984D01*
X14932Y21985D01*
X14939Y21987D01*
X14948Y21989D01*
X14958Y21993D01*
X14967Y21999D01*
X14976Y22007D01*
X14977Y22008D01*
X14980Y22011D01*
X14983Y22016D01*
X14988Y22023D01*
X14992Y22031D01*
X14995Y22040D01*
X14998Y22052D01*
X14999Y22064D01*
Y22064D01*
Y22065D01*
Y22067D01*
X14999Y22069D01*
X14998Y22075D01*
X14997Y22083D01*
X14994Y22092D01*
X14990Y22100D01*
X14985Y22109D01*
X14978Y22118D01*
X14977Y22119D01*
X14974Y22121D01*
X14969Y22124D01*
X14963Y22128D01*
X14956Y22132D01*
X14946Y22135D01*
X14936Y22138D01*
X14924Y22139D01*
X14919D01*
X14915Y22138D01*
X14910Y22138D01*
X14904Y22136D01*
X14898Y22135D01*
X14891Y22134D01*
X14896Y22175D01*
X14899D01*
X14901Y22175D01*
X14908D01*
X14914Y22176D01*
X14922Y22177D01*
X14930Y22179D01*
X14939Y22181D01*
X14948Y22185D01*
X14958Y22190D01*
X14958D01*
X14959Y22191D01*
X14962Y22193D01*
X14965Y22197D01*
X14970Y22202D01*
X14974Y22209D01*
X14978Y22218D01*
X14981Y22227D01*
X14982Y22232D01*
Y22239D01*
Y22239D01*
Y22240D01*
Y22243D01*
X14981Y22247D01*
X14980Y22254D01*
X14978Y22260D01*
X14975Y22267D01*
X14970Y22275D01*
X14964Y22281D01*
X14964Y22282D01*
X14961Y22284D01*
X14957Y22287D01*
X14952Y22290D01*
X14946Y22293D01*
X14938Y22296D01*
X14929Y22298D01*
X14919Y22299D01*
X14914D01*
X14909Y22297D01*
X14903Y22296D01*
X14896Y22294D01*
X14888Y22291D01*
X14881Y22287D01*
X14873Y22281D01*
X14873Y22281D01*
X14871Y22278D01*
X14867Y22274D01*
X14863Y22269D01*
X14859Y22261D01*
X14856Y22252D01*
X14852Y22242D01*
X14850Y22230D01*
X14803Y22238D01*
Y22239D01*
X14803Y22240D01*
X14804Y22242D01*
X14805Y22246D01*
X14806Y22250D01*
X14807Y22254D01*
X14811Y22265D01*
X14816Y22277D01*
X14823Y22289D01*
X14831Y22301D01*
X14842Y22311D01*
X14842Y22312D01*
X14843Y22312D01*
X14845Y22314D01*
X14847Y22315D01*
X14850Y22317D01*
X14854Y22320D01*
X14858Y22322D01*
X14863Y22325D01*
X14874Y22329D01*
X14887Y22333D01*
X14902Y22336D01*
X14909Y22337D01*
X14923D01*
X14929Y22337D01*
D02*
G37*
G36*
X14482D02*
X14489Y22336D01*
X14498Y22334D01*
X14508Y22331D01*
X14518Y22328D01*
X14528Y22324D01*
X14528D01*
X14529Y22323D01*
X14532Y22321D01*
X14537Y22318D01*
X14543Y22314D01*
X14549Y22309D01*
X14556Y22302D01*
X14563Y22295D01*
X14568Y22287D01*
X14569Y22286D01*
X14570Y22283D01*
X14573Y22278D01*
X14575Y22272D01*
X14578Y22265D01*
X14580Y22256D01*
X14582Y22247D01*
X14583Y22237D01*
Y22236D01*
Y22233D01*
X14582Y22229D01*
X14581Y22222D01*
X14579Y22215D01*
X14576Y22208D01*
X14573Y22200D01*
X14569Y22192D01*
X14568Y22191D01*
X14566Y22189D01*
X14563Y22185D01*
X14559Y22180D01*
X14553Y22175D01*
X14546Y22170D01*
X14539Y22165D01*
X14529Y22160D01*
X14530D01*
X14531Y22159D01*
X14533Y22159D01*
X14535Y22158D01*
X14541Y22156D01*
X14549Y22153D01*
X14558Y22148D01*
X14566Y22143D01*
X14575Y22135D01*
X14583Y22127D01*
X14583Y22126D01*
X14585Y22123D01*
X14589Y22117D01*
X14592Y22110D01*
X14595Y22101D01*
X14599Y22090D01*
X14601Y22078D01*
X14601Y22065D01*
Y22064D01*
Y22063D01*
Y22060D01*
X14601Y22057D01*
X14600Y22052D01*
X14599Y22047D01*
X14598Y22042D01*
X14597Y22035D01*
X14593Y22022D01*
X14589Y22015D01*
X14586Y22008D01*
X14581Y22001D01*
X14576Y21994D01*
X14571Y21987D01*
X14564Y21980D01*
X14564Y21979D01*
X14563Y21978D01*
X14560Y21977D01*
X14558Y21974D01*
X14554Y21972D01*
X14550Y21969D01*
X14545Y21966D01*
X14539Y21963D01*
X14533Y21959D01*
X14525Y21956D01*
X14518Y21953D01*
X14510Y21951D01*
X14501Y21948D01*
X14492Y21947D01*
X14482Y21946D01*
X14472Y21945D01*
X14467D01*
X14463Y21946D01*
X14459Y21946D01*
X14454Y21947D01*
X14448Y21948D01*
X14442Y21949D01*
X14429Y21952D01*
X14415Y21958D01*
X14408Y21961D01*
X14401Y21965D01*
X14394Y21970D01*
X14388Y21975D01*
X14387Y21976D01*
X14386Y21977D01*
X14384Y21978D01*
X14383Y21981D01*
X14380Y21983D01*
X14377Y21987D01*
X14374Y21991D01*
X14371Y21996D01*
X14367Y22002D01*
X14364Y22007D01*
X14358Y22020D01*
X14353Y22036D01*
X14351Y22044D01*
X14350Y22053D01*
X14397Y22059D01*
Y22059D01*
X14398Y22058D01*
X14398Y22055D01*
X14399Y22053D01*
X14399Y22049D01*
X14401Y22045D01*
X14403Y22037D01*
X14407Y22027D01*
X14412Y22018D01*
X14418Y22009D01*
X14424Y22001D01*
X14425Y22001D01*
X14428Y21998D01*
X14432Y21995D01*
X14438Y21993D01*
X14444Y21989D01*
X14453Y21987D01*
X14462Y21984D01*
X14472Y21984D01*
X14475D01*
X14478Y21984D01*
X14484Y21985D01*
X14492Y21987D01*
X14500Y21989D01*
X14510Y21993D01*
X14519Y21999D01*
X14528Y22007D01*
X14529Y22008D01*
X14532Y22011D01*
X14535Y22016D01*
X14540Y22023D01*
X14544Y22031D01*
X14548Y22040D01*
X14550Y22052D01*
X14551Y22064D01*
Y22064D01*
Y22065D01*
Y22067D01*
X14551Y22069D01*
X14550Y22075D01*
X14549Y22083D01*
X14546Y22092D01*
X14543Y22100D01*
X14537Y22109D01*
X14530Y22118D01*
X14529Y22119D01*
X14526Y22121D01*
X14521Y22124D01*
X14515Y22128D01*
X14508Y22132D01*
X14498Y22135D01*
X14488Y22138D01*
X14476Y22139D01*
X14471D01*
X14467Y22138D01*
X14462Y22138D01*
X14457Y22136D01*
X14450Y22135D01*
X14443Y22134D01*
X14448Y22175D01*
X14451D01*
X14453Y22175D01*
X14460D01*
X14467Y22176D01*
X14474Y22177D01*
X14482Y22179D01*
X14492Y22181D01*
X14500Y22185D01*
X14510Y22190D01*
X14510D01*
X14511Y22191D01*
X14514Y22193D01*
X14518Y22197D01*
X14522Y22202D01*
X14526Y22209D01*
X14530Y22218D01*
X14533Y22227D01*
X14534Y22232D01*
Y22239D01*
Y22239D01*
Y22240D01*
Y22243D01*
X14533Y22247D01*
X14532Y22254D01*
X14530Y22260D01*
X14527Y22267D01*
X14523Y22275D01*
X14517Y22281D01*
X14516Y22282D01*
X14513Y22284D01*
X14509Y22287D01*
X14504Y22290D01*
X14498Y22293D01*
X14490Y22296D01*
X14481Y22298D01*
X14471Y22299D01*
X14467D01*
X14462Y22297D01*
X14455Y22296D01*
X14448Y22294D01*
X14440Y22291D01*
X14433Y22287D01*
X14425Y22281D01*
X14425Y22281D01*
X14423Y22278D01*
X14419Y22274D01*
X14415Y22269D01*
X14412Y22261D01*
X14408Y22252D01*
X14404Y22242D01*
X14402Y22230D01*
X14355Y22238D01*
Y22239D01*
X14356Y22240D01*
X14356Y22242D01*
X14357Y22246D01*
X14358Y22250D01*
X14359Y22254D01*
X14363Y22265D01*
X14368Y22277D01*
X14375Y22289D01*
X14383Y22301D01*
X14394Y22311D01*
X14394Y22312D01*
X14396Y22312D01*
X14397Y22314D01*
X14399Y22315D01*
X14402Y22317D01*
X14406Y22320D01*
X14410Y22322D01*
X14415Y22325D01*
X14426Y22329D01*
X14439Y22333D01*
X14454Y22336D01*
X14462Y22337D01*
X14475D01*
X14482Y22337D01*
D02*
G37*
G36*
X15277Y21952D02*
X15224D01*
X15075Y22336D01*
X15131D01*
X15231Y22057D01*
Y22056D01*
X15231Y22055D01*
X15232Y22053D01*
X15233Y22051D01*
X15234Y22048D01*
X15235Y22044D01*
X15237Y22036D01*
X15241Y22027D01*
X15244Y22016D01*
X15251Y21994D01*
Y21994D01*
X15251Y21995D01*
X15252Y21997D01*
X15252Y21999D01*
X15254Y22005D01*
X15257Y22014D01*
X15260Y22023D01*
X15263Y22034D01*
X15267Y22045D01*
X15271Y22057D01*
X15376Y22336D01*
X15427D01*
X15277Y21952D01*
D02*
G37*
G36*
X14729D02*
X14675D01*
Y22005D01*
X14729D01*
Y21952D01*
D02*
G37*
G36*
X25293Y2310D02*
Y2257D01*
X24909Y2108D01*
Y2164D01*
X25188Y2263D01*
X25189D01*
X25190Y2264D01*
X25192Y2265D01*
X25194Y2266D01*
X25197Y2266D01*
X25201Y2267D01*
X25209Y2270D01*
X25218Y2273D01*
X25229Y2277D01*
X25251Y2283D01*
X25251D01*
X25250Y2284D01*
X25248Y2285D01*
X25246Y2285D01*
X25240Y2287D01*
X25231Y2290D01*
X25222Y2292D01*
X25211Y2296D01*
X25200Y2300D01*
X25188Y2304D01*
X24909Y2408D01*
Y2460D01*
X25293Y2310D01*
D02*
G37*
G36*
X25172Y2084D02*
X25177Y2084D01*
X25182Y2083D01*
X25188Y2082D01*
X25194Y2081D01*
X25208Y2078D01*
X25223Y2072D01*
X25231Y2069D01*
X25238Y2064D01*
X25246Y2060D01*
X25253Y2054D01*
X25254Y2054D01*
X25256Y2053D01*
X25258Y2050D01*
X25261Y2048D01*
X25264Y2044D01*
X25268Y2039D01*
X25272Y2034D01*
X25277Y2028D01*
X25281Y2021D01*
X25285Y2013D01*
X25289Y2005D01*
X25293Y1996D01*
X25296Y1987D01*
X25298Y1976D01*
X25299Y1965D01*
X25300Y1953D01*
Y1948D01*
X25299Y1944D01*
X25299Y1940D01*
X25298Y1935D01*
X25298Y1929D01*
X25296Y1923D01*
X25293Y1909D01*
X25288Y1895D01*
X25284Y1888D01*
X25281Y1881D01*
X25276Y1874D01*
X25271Y1867D01*
X25271Y1867D01*
X25270Y1866D01*
X25268Y1864D01*
X25266Y1862D01*
X25263Y1859D01*
X25259Y1857D01*
X25255Y1853D01*
X25250Y1851D01*
X25245Y1847D01*
X25239Y1844D01*
X25226Y1838D01*
X25210Y1833D01*
X25202Y1831D01*
X25193Y1830D01*
X25189Y1879D01*
X25190D01*
X25191D01*
X25192Y1880D01*
X25195Y1881D01*
X25201Y1882D01*
X25210Y1884D01*
X25218Y1888D01*
X25227Y1892D01*
X25236Y1898D01*
X25243Y1904D01*
X25244Y1905D01*
X25246Y1908D01*
X25249Y1912D01*
X25252Y1918D01*
X25256Y1925D01*
X25258Y1933D01*
X25261Y1943D01*
X25261Y1953D01*
Y1957D01*
X25261Y1959D01*
X25260Y1965D01*
X25258Y1973D01*
X25255Y1983D01*
X25251Y1992D01*
X25244Y2002D01*
X25240Y2006D01*
X25236Y2011D01*
X25235Y2011D01*
X25235Y2012D01*
X25233Y2013D01*
X25231Y2015D01*
X25225Y2019D01*
X25217Y2023D01*
X25208Y2027D01*
X25196Y2031D01*
X25182Y2034D01*
X25175Y2035D01*
X25167D01*
X25167D01*
X25166D01*
X25163D01*
X25161Y2034D01*
X25157D01*
X25153Y2034D01*
X25145Y2032D01*
X25134Y2029D01*
X25124Y2025D01*
X25114Y2020D01*
X25104Y2012D01*
X25104D01*
X25103Y2011D01*
X25100Y2008D01*
X25096Y2003D01*
X25092Y1997D01*
X25088Y1988D01*
X25084Y1978D01*
X25081Y1966D01*
X25080Y1959D01*
Y1949D01*
X25081Y1944D01*
X25081Y1939D01*
X25083Y1932D01*
X25085Y1925D01*
X25087Y1918D01*
X25091Y1911D01*
X25091Y1910D01*
X25092Y1908D01*
X25095Y1905D01*
X25098Y1900D01*
X25102Y1896D01*
X25107Y1892D01*
X25112Y1887D01*
X25118Y1883D01*
X25112Y1838D01*
X24914Y1876D01*
Y2066D01*
X24959D01*
Y1913D01*
X25063Y1892D01*
X25062Y1893D01*
X25062Y1894D01*
X25061Y1895D01*
X25059Y1898D01*
X25057Y1902D01*
X25055Y1905D01*
X25051Y1914D01*
X25046Y1925D01*
X25042Y1938D01*
X25040Y1951D01*
X25039Y1958D01*
Y1970D01*
X25039Y1973D01*
X25040Y1978D01*
X25040Y1983D01*
X25041Y1988D01*
X25043Y1994D01*
X25047Y2008D01*
X25050Y2015D01*
X25054Y2022D01*
X25057Y2029D01*
X25062Y2036D01*
X25067Y2043D01*
X25074Y2050D01*
X25074Y2050D01*
X25075Y2051D01*
X25077Y2053D01*
X25080Y2055D01*
X25084Y2058D01*
X25087Y2061D01*
X25092Y2064D01*
X25098Y2068D01*
X25104Y2070D01*
X25111Y2074D01*
X25119Y2076D01*
X25126Y2079D01*
X25135Y2081D01*
X25144Y2083D01*
X25153Y2084D01*
X25163Y2085D01*
X25164D01*
X25166D01*
X25168D01*
X25172Y2084D01*
D02*
G37*
G36*
X25201Y3195D02*
X25201Y3194D01*
X25203Y3192D01*
X25205Y3189D01*
X25207Y3186D01*
X25210Y3182D01*
X25213Y3177D01*
X25217Y3172D01*
X25224Y3160D01*
X25232Y3147D01*
X25239Y3133D01*
X25245Y3118D01*
Y3117D01*
X25246Y3116D01*
X25246Y3114D01*
X25247Y3111D01*
X25248Y3108D01*
X25250Y3103D01*
X25251Y3098D01*
X25252Y3093D01*
X25255Y3081D01*
X25258Y3067D01*
X25259Y3052D01*
X25260Y3036D01*
Y3031D01*
X25259Y3027D01*
Y3022D01*
X25259Y3016D01*
X25258Y3009D01*
X25257Y3002D01*
X25254Y2986D01*
X25250Y2969D01*
X25244Y2951D01*
X25241Y2942D01*
X25236Y2933D01*
X25236Y2933D01*
X25235Y2931D01*
X25233Y2929D01*
X25232Y2925D01*
X25229Y2922D01*
X25226Y2918D01*
X25218Y2907D01*
X25208Y2896D01*
X25196Y2884D01*
X25182Y2873D01*
X25166Y2863D01*
X25166D01*
X25164Y2862D01*
X25162Y2861D01*
X25158Y2859D01*
X25154Y2858D01*
X25148Y2856D01*
X25143Y2854D01*
X25136Y2852D01*
X25129Y2849D01*
X25121Y2847D01*
X25112Y2846D01*
X25103Y2844D01*
X25084Y2841D01*
X25064Y2840D01*
X25063D01*
X25061D01*
X25058D01*
X25054Y2841D01*
X25049D01*
X25043Y2841D01*
X25037Y2842D01*
X25030Y2843D01*
X25022Y2844D01*
X25014Y2846D01*
X24996Y2850D01*
X24978Y2856D01*
X24959Y2863D01*
X24959Y2864D01*
X24957Y2864D01*
X24955Y2866D01*
X24951Y2868D01*
X24947Y2870D01*
X24943Y2873D01*
X24932Y2881D01*
X24920Y2890D01*
X24908Y2902D01*
X24896Y2915D01*
X24891Y2923D01*
X24886Y2930D01*
X24886Y2931D01*
X24885Y2933D01*
X24884Y2935D01*
X24883Y2938D01*
X24881Y2943D01*
X24879Y2948D01*
X24876Y2953D01*
X24874Y2960D01*
X24872Y2967D01*
X24870Y2975D01*
X24868Y2983D01*
X24867Y2992D01*
X24864Y3011D01*
X24863Y3021D01*
Y3039D01*
X24863Y3043D01*
Y3047D01*
X24864Y3058D01*
X24866Y3069D01*
X24869Y3081D01*
X24872Y3095D01*
X24876Y3108D01*
Y3108D01*
X24877Y3109D01*
X24878Y3111D01*
X24879Y3113D01*
X24882Y3119D01*
X24886Y3127D01*
X24891Y3135D01*
X24898Y3144D01*
X24905Y3152D01*
X24914Y3160D01*
X24915Y3161D01*
X24919Y3164D01*
X24924Y3167D01*
X24931Y3171D01*
X24940Y3176D01*
X24951Y3181D01*
X24963Y3186D01*
X24977Y3190D01*
X24989Y3144D01*
X24989D01*
X24988Y3143D01*
X24986Y3142D01*
X24984Y3142D01*
X24979Y3140D01*
X24973Y3138D01*
X24965Y3135D01*
X24958Y3131D01*
X24950Y3127D01*
X24943Y3122D01*
X24943Y3121D01*
X24940Y3120D01*
X24938Y3116D01*
X24934Y3113D01*
X24929Y3108D01*
X24925Y3101D01*
X24920Y3094D01*
X24916Y3085D01*
X24916Y3084D01*
X24915Y3081D01*
X24913Y3076D01*
X24911Y3070D01*
X24909Y3062D01*
X24908Y3053D01*
X24906Y3043D01*
X24906Y3033D01*
Y3026D01*
X24906Y3024D01*
Y3020D01*
X24907Y3012D01*
X24909Y3003D01*
X24910Y2992D01*
X24913Y2982D01*
X24917Y2972D01*
X24918Y2971D01*
X24919Y2968D01*
X24921Y2963D01*
X24924Y2958D01*
X24929Y2951D01*
X24933Y2944D01*
X24939Y2937D01*
X24945Y2931D01*
X24945Y2930D01*
X24948Y2928D01*
X24951Y2925D01*
X24956Y2922D01*
X24961Y2918D01*
X24968Y2914D01*
X24975Y2910D01*
X24983Y2907D01*
X24984D01*
X24985Y2906D01*
X24986Y2905D01*
X24989Y2904D01*
X24992Y2903D01*
X24996Y2902D01*
X25001Y2900D01*
X25006Y2899D01*
X25017Y2897D01*
X25031Y2894D01*
X25045Y2893D01*
X25060Y2892D01*
X25061D01*
X25062D01*
X25065D01*
X25069Y2893D01*
X25073D01*
X25079Y2893D01*
X25084Y2894D01*
X25090Y2894D01*
X25104Y2897D01*
X25118Y2899D01*
X25133Y2904D01*
X25147Y2909D01*
X25147D01*
X25148Y2910D01*
X25150Y2911D01*
X25152Y2913D01*
X25158Y2917D01*
X25166Y2923D01*
X25175Y2930D01*
X25183Y2939D01*
X25191Y2949D01*
X25198Y2961D01*
Y2962D01*
X25198Y2963D01*
X25199Y2964D01*
X25201Y2967D01*
X25202Y2970D01*
X25203Y2974D01*
X25206Y2983D01*
X25209Y2994D01*
X25212Y3006D01*
X25214Y3019D01*
X25214Y3033D01*
Y3039D01*
X25214Y3042D01*
Y3045D01*
X25213Y3054D01*
X25212Y3064D01*
X25210Y3074D01*
X25206Y3086D01*
X25202Y3098D01*
Y3098D01*
X25202Y3099D01*
X25201Y3100D01*
X25200Y3103D01*
X25197Y3109D01*
X25194Y3115D01*
X25190Y3123D01*
X25186Y3131D01*
X25181Y3139D01*
X25175Y3146D01*
X25103D01*
Y3033D01*
X25057D01*
Y3196D01*
X25200D01*
X25201Y3195D01*
D02*
G37*
G36*
X25052Y4678D02*
X25057D01*
X25064Y4677D01*
X25070Y4676D01*
X25077Y4676D01*
X25093Y4673D01*
X25111Y4669D01*
X25129Y4662D01*
X25138Y4659D01*
X25147Y4655D01*
X25147D01*
X25149Y4654D01*
X25151Y4652D01*
X25155Y4650D01*
X25158Y4648D01*
X25162Y4645D01*
X25173Y4637D01*
X25184Y4628D01*
X25196Y4617D01*
X25207Y4604D01*
X25217Y4588D01*
Y4588D01*
X25218Y4586D01*
X25219Y4584D01*
X25221Y4580D01*
X25222Y4576D01*
X25224Y4572D01*
X25226Y4566D01*
X25228Y4560D01*
X25231Y4554D01*
X25233Y4546D01*
X25236Y4530D01*
X25239Y4513D01*
X25240Y4495D01*
Y4489D01*
X25239Y4486D01*
Y4481D01*
X25238Y4475D01*
X25238Y4469D01*
X25237Y4462D01*
X25233Y4447D01*
X25229Y4431D01*
X25222Y4414D01*
X25218Y4406D01*
X25214Y4398D01*
X25213Y4397D01*
X25213Y4396D01*
X25211Y4394D01*
X25209Y4391D01*
X25207Y4387D01*
X25203Y4383D01*
X25195Y4374D01*
X25185Y4363D01*
X25173Y4352D01*
X25159Y4342D01*
X25143Y4333D01*
X25142D01*
X25141Y4332D01*
X25138Y4331D01*
X25135Y4329D01*
X25131Y4328D01*
X25126Y4326D01*
X25120Y4324D01*
X25114Y4322D01*
X25107Y4320D01*
X25100Y4318D01*
X25083Y4314D01*
X25066Y4312D01*
X25047Y4311D01*
X25046D01*
X25046D01*
X25042D01*
X25037Y4312D01*
X25031D01*
X25023Y4313D01*
X25014Y4314D01*
X25003Y4316D01*
X24992Y4318D01*
X24980Y4320D01*
X24968Y4323D01*
X24956Y4328D01*
X24943Y4333D01*
X24931Y4338D01*
X24919Y4346D01*
X24908Y4353D01*
X24897Y4362D01*
X24896Y4363D01*
X24895Y4364D01*
X24892Y4368D01*
X24889Y4372D01*
X24884Y4377D01*
X24880Y4383D01*
X24875Y4390D01*
X24870Y4398D01*
X24865Y4407D01*
X24860Y4417D01*
X24855Y4428D01*
X24851Y4440D01*
X24848Y4453D01*
X24845Y4466D01*
X24843Y4480D01*
X24843Y4495D01*
Y4500D01*
X24843Y4504D01*
Y4509D01*
X24844Y4514D01*
X24845Y4520D01*
X24846Y4527D01*
X24849Y4541D01*
X24853Y4558D01*
X24860Y4574D01*
X24864Y4583D01*
X24868Y4591D01*
X24869Y4591D01*
X24869Y4593D01*
X24871Y4595D01*
X24873Y4598D01*
X24875Y4601D01*
X24879Y4606D01*
X24886Y4615D01*
X24896Y4625D01*
X24909Y4636D01*
X24923Y4647D01*
X24939Y4656D01*
X24940D01*
X24941Y4657D01*
X24944Y4658D01*
X24947Y4659D01*
X24951Y4661D01*
X24956Y4663D01*
X24962Y4665D01*
X24969Y4667D01*
X24976Y4669D01*
X24984Y4671D01*
X24993Y4674D01*
X25002Y4675D01*
X25021Y4677D01*
X25042Y4679D01*
X25043D01*
X25045D01*
X25048D01*
X25052Y4678D01*
D02*
G37*
G36*
X25233Y4186D02*
X24849D01*
Y4237D01*
X25233D01*
Y4186D01*
D02*
G37*
G36*
X25051Y4107D02*
X25055D01*
X25066Y4106D01*
X25078Y4105D01*
X25091Y4103D01*
X25104Y4100D01*
X25117Y4097D01*
X25118D01*
X25119Y4096D01*
X25121Y4096D01*
X25123Y4095D01*
X25129Y4093D01*
X25137Y4090D01*
X25146Y4086D01*
X25155Y4082D01*
X25164Y4076D01*
X25173Y4071D01*
X25174Y4070D01*
X25177Y4068D01*
X25181Y4065D01*
X25186Y4060D01*
X25191Y4055D01*
X25197Y4049D01*
X25203Y4043D01*
X25208Y4036D01*
X25208Y4035D01*
X25210Y4033D01*
X25212Y4029D01*
X25215Y4023D01*
X25218Y4016D01*
X25221Y4009D01*
X25224Y4000D01*
X25227Y3990D01*
Y3989D01*
X25228Y3987D01*
X25228Y3985D01*
X25229Y3980D01*
X25230Y3972D01*
X25231Y3963D01*
X25232Y3953D01*
X25233Y3941D01*
X25233Y3928D01*
Y3790D01*
X24849D01*
Y3938D01*
X24850Y3948D01*
X24850Y3959D01*
X24852Y3970D01*
X24853Y3981D01*
X24855Y3990D01*
Y3991D01*
X24855Y3992D01*
Y3994D01*
X24856Y3996D01*
X24858Y4002D01*
X24861Y4010D01*
X24865Y4019D01*
X24870Y4028D01*
X24875Y4038D01*
X24883Y4046D01*
X24883Y4047D01*
X24884Y4048D01*
X24885Y4049D01*
X24887Y4051D01*
X24893Y4057D01*
X24900Y4064D01*
X24910Y4071D01*
X24921Y4079D01*
X24934Y4086D01*
X24948Y4092D01*
X24949D01*
X24950Y4092D01*
X24952Y4094D01*
X24955Y4094D01*
X24959Y4096D01*
X24964Y4097D01*
X24969Y4098D01*
X24975Y4100D01*
X24981Y4101D01*
X24988Y4102D01*
X25004Y4105D01*
X25021Y4107D01*
X25040Y4107D01*
X25040D01*
X25041D01*
X25044D01*
X25047D01*
X25051Y4107D01*
D02*
G37*
G36*
X25273Y5799D02*
X25080Y5663D01*
X25140Y5600D01*
X25273D01*
Y5549D01*
X24889D01*
Y5600D01*
X25080D01*
X24889Y5790D01*
Y5859D01*
X25045Y5698D01*
X25273Y5866D01*
Y5799D01*
D02*
G37*
G36*
Y5250D02*
X24889D01*
Y5301D01*
X25228D01*
Y5490D01*
X25273D01*
Y5250D01*
D02*
G37*
G36*
X25155Y5189D02*
X25158Y5188D01*
X25162Y5186D01*
X25167Y5185D01*
X25173Y5182D01*
X25180Y5180D01*
X25187Y5176D01*
X25203Y5169D01*
X25218Y5159D01*
X25226Y5152D01*
X25234Y5146D01*
X25241Y5140D01*
X25247Y5132D01*
X25248Y5131D01*
X25249Y5130D01*
X25250Y5128D01*
X25252Y5125D01*
X25255Y5120D01*
X25258Y5116D01*
X25261Y5110D01*
X25263Y5104D01*
X25267Y5096D01*
X25269Y5089D01*
X25272Y5080D01*
X25275Y5071D01*
X25277Y5062D01*
X25278Y5052D01*
X25279Y5041D01*
X25280Y5030D01*
Y5024D01*
X25279Y5020D01*
Y5015D01*
X25279Y5009D01*
X25278Y5002D01*
X25277Y4994D01*
X25274Y4978D01*
X25269Y4962D01*
X25263Y4945D01*
X25259Y4937D01*
X25255Y4929D01*
X25254Y4929D01*
X25254Y4928D01*
X25252Y4925D01*
X25250Y4923D01*
X25248Y4920D01*
X25244Y4916D01*
X25241Y4912D01*
X25236Y4907D01*
X25231Y4903D01*
X25226Y4898D01*
X25213Y4888D01*
X25198Y4878D01*
X25182Y4870D01*
X25181D01*
X25180Y4869D01*
X25177Y4868D01*
X25173Y4867D01*
X25169Y4866D01*
X25163Y4864D01*
X25157Y4862D01*
X25151Y4860D01*
X25143Y4858D01*
X25135Y4856D01*
X25118Y4853D01*
X25099Y4851D01*
X25079Y4850D01*
X25078D01*
X25076D01*
X25072D01*
X25069Y4851D01*
X25063D01*
X25057Y4851D01*
X25050Y4852D01*
X25043Y4853D01*
X25027Y4856D01*
X25009Y4859D01*
X24991Y4865D01*
X24974Y4873D01*
X24974Y4873D01*
X24972Y4874D01*
X24970Y4875D01*
X24967Y4877D01*
X24963Y4879D01*
X24959Y4882D01*
X24949Y4889D01*
X24938Y4899D01*
X24926Y4910D01*
X24915Y4923D01*
X24906Y4938D01*
X24905Y4938D01*
X24905Y4940D01*
X24904Y4942D01*
X24902Y4945D01*
X24900Y4949D01*
X24899Y4954D01*
X24896Y4959D01*
X24894Y4965D01*
X24892Y4972D01*
X24890Y4979D01*
X24887Y4995D01*
X24884Y5013D01*
X24883Y5031D01*
Y5036D01*
X24883Y5040D01*
X24884Y5045D01*
X24884Y5051D01*
X24885Y5058D01*
X24887Y5065D01*
X24890Y5080D01*
X24895Y5096D01*
X24898Y5105D01*
X24902Y5113D01*
X24907Y5120D01*
X24912Y5128D01*
X24913Y5129D01*
X24913Y5130D01*
X24915Y5132D01*
X24918Y5135D01*
X24920Y5137D01*
X24924Y5141D01*
X24929Y5145D01*
X24933Y5150D01*
X24939Y5154D01*
X24945Y5159D01*
X24952Y5164D01*
X24959Y5168D01*
X24968Y5172D01*
X24976Y5176D01*
X24985Y5180D01*
X24995Y5183D01*
X25006Y5133D01*
X25006D01*
X25005Y5132D01*
X25003Y5131D01*
X25000Y5130D01*
X24996Y5129D01*
X24992Y5128D01*
X24983Y5123D01*
X24973Y5118D01*
X24963Y5111D01*
X24954Y5103D01*
X24945Y5094D01*
X24944Y5093D01*
X24942Y5089D01*
X24939Y5084D01*
X24935Y5076D01*
X24932Y5067D01*
X24929Y5056D01*
X24926Y5044D01*
X24926Y5030D01*
Y5025D01*
X24926Y5023D01*
Y5019D01*
X24927Y5014D01*
X24929Y5004D01*
X24931Y4992D01*
X24935Y4980D01*
X24940Y4967D01*
X24948Y4955D01*
Y4955D01*
X24949Y4954D01*
X24951Y4950D01*
X24956Y4945D01*
X24963Y4939D01*
X24971Y4932D01*
X24980Y4925D01*
X24992Y4919D01*
X25005Y4914D01*
X25005D01*
X25006Y4913D01*
X25008Y4913D01*
X25011Y4912D01*
X25014Y4911D01*
X25018Y4910D01*
X25027Y4908D01*
X25039Y4906D01*
X25051Y4904D01*
X25064Y4903D01*
X25079Y4902D01*
X25079D01*
X25081D01*
X25084D01*
X25087D01*
X25091Y4903D01*
X25096D01*
X25101Y4903D01*
X25107Y4904D01*
X25121Y4906D01*
X25135Y4908D01*
X25150Y4912D01*
X25164Y4916D01*
X25165D01*
X25166Y4917D01*
X25167Y4918D01*
X25170Y4919D01*
X25177Y4922D01*
X25185Y4927D01*
X25193Y4933D01*
X25203Y4941D01*
X25211Y4950D01*
X25219Y4960D01*
Y4961D01*
X25220Y4962D01*
X25221Y4964D01*
X25222Y4966D01*
X25223Y4969D01*
X25224Y4972D01*
X25228Y4980D01*
X25231Y4990D01*
X25234Y5001D01*
X25236Y5013D01*
X25237Y5026D01*
Y5030D01*
X25236Y5033D01*
Y5037D01*
X25236Y5041D01*
X25233Y5051D01*
X25231Y5063D01*
X25226Y5074D01*
X25220Y5086D01*
X25217Y5093D01*
X25212Y5098D01*
X25212Y5099D01*
X25211Y5099D01*
X25210Y5101D01*
X25208Y5103D01*
X25205Y5105D01*
X25202Y5108D01*
X25198Y5111D01*
X25194Y5114D01*
X25189Y5118D01*
X25183Y5121D01*
X25178Y5125D01*
X25171Y5128D01*
X25164Y5131D01*
X25156Y5134D01*
X25148Y5136D01*
X25139Y5139D01*
X25152Y5190D01*
X25152D01*
X25155Y5189D01*
D02*
G37*
G36*
X25808Y2447D02*
Y2394D01*
X25424Y2245D01*
Y2301D01*
X25703Y2401D01*
X25704D01*
X25705Y2401D01*
X25707Y2402D01*
X25709Y2403D01*
X25712Y2404D01*
X25716Y2405D01*
X25724Y2407D01*
X25733Y2411D01*
X25744Y2414D01*
X25766Y2421D01*
X25766D01*
X25765Y2421D01*
X25763Y2422D01*
X25761Y2422D01*
X25755Y2424D01*
X25746Y2427D01*
X25737Y2430D01*
X25726Y2433D01*
X25715Y2437D01*
X25703Y2441D01*
X25424Y2546D01*
Y2597D01*
X25808Y2447D01*
D02*
G37*
G36*
X25703Y2219D02*
X25708Y2218D01*
X25713Y2217D01*
X25718Y2216D01*
X25725Y2215D01*
X25738Y2210D01*
X25745Y2207D01*
X25752Y2204D01*
X25759Y2199D01*
X25766Y2194D01*
X25773Y2189D01*
X25780Y2182D01*
X25781Y2182D01*
X25782Y2180D01*
X25783Y2178D01*
X25786Y2175D01*
X25788Y2172D01*
X25791Y2168D01*
X25794Y2163D01*
X25797Y2157D01*
X25801Y2150D01*
X25804Y2143D01*
X25807Y2136D01*
X25809Y2128D01*
X25812Y2119D01*
X25813Y2109D01*
X25814Y2100D01*
X25815Y2089D01*
Y2084D01*
X25814Y2081D01*
X25814Y2077D01*
X25813Y2072D01*
X25812Y2066D01*
X25811Y2060D01*
X25808Y2047D01*
X25802Y2033D01*
X25799Y2026D01*
X25795Y2019D01*
X25790Y2012D01*
X25785Y2006D01*
X25784Y2005D01*
X25783Y2004D01*
X25782Y2002D01*
X25779Y2001D01*
X25777Y1998D01*
X25773Y1995D01*
X25769Y1992D01*
X25764Y1988D01*
X25758Y1985D01*
X25753Y1982D01*
X25740Y1976D01*
X25724Y1971D01*
X25716Y1969D01*
X25707Y1968D01*
X25701Y2015D01*
X25701D01*
X25702Y2016D01*
X25705Y2016D01*
X25707Y2017D01*
X25711Y2017D01*
X25715Y2018D01*
X25723Y2021D01*
X25733Y2025D01*
X25742Y2030D01*
X25751Y2036D01*
X25759Y2042D01*
X25759Y2043D01*
X25762Y2046D01*
X25765Y2050D01*
X25767Y2056D01*
X25771Y2062D01*
X25773Y2071D01*
X25776Y2080D01*
X25776Y2090D01*
Y2093D01*
X25776Y2096D01*
X25775Y2102D01*
X25773Y2109D01*
X25771Y2118D01*
X25767Y2128D01*
X25761Y2137D01*
X25753Y2146D01*
X25752Y2147D01*
X25749Y2150D01*
X25744Y2153D01*
X25737Y2158D01*
X25729Y2162D01*
X25720Y2165D01*
X25708Y2168D01*
X25696Y2169D01*
X25696D01*
X25695D01*
X25693D01*
X25691Y2169D01*
X25685Y2168D01*
X25677Y2167D01*
X25668Y2164D01*
X25660Y2160D01*
X25651Y2155D01*
X25642Y2148D01*
X25641Y2147D01*
X25639Y2144D01*
X25636Y2139D01*
X25632Y2133D01*
X25628Y2125D01*
X25625Y2116D01*
X25622Y2106D01*
X25621Y2094D01*
Y2089D01*
X25622Y2085D01*
X25622Y2080D01*
X25624Y2074D01*
X25625Y2068D01*
X25626Y2061D01*
X25585Y2066D01*
Y2069D01*
X25585Y2071D01*
Y2078D01*
X25584Y2084D01*
X25583Y2092D01*
X25581Y2100D01*
X25579Y2109D01*
X25575Y2118D01*
X25570Y2128D01*
Y2128D01*
X25569Y2129D01*
X25567Y2132D01*
X25563Y2135D01*
X25558Y2140D01*
X25551Y2144D01*
X25543Y2148D01*
X25533Y2151D01*
X25528Y2152D01*
X25521D01*
X25521D01*
X25520D01*
X25517D01*
X25513Y2151D01*
X25506Y2150D01*
X25500Y2148D01*
X25493Y2145D01*
X25485Y2140D01*
X25479Y2134D01*
X25478Y2134D01*
X25476Y2131D01*
X25473Y2127D01*
X25470Y2122D01*
X25467Y2116D01*
X25464Y2108D01*
X25462Y2099D01*
X25461Y2089D01*
Y2084D01*
X25463Y2079D01*
X25464Y2073D01*
X25466Y2066D01*
X25469Y2058D01*
X25473Y2051D01*
X25479Y2043D01*
X25479Y2043D01*
X25482Y2041D01*
X25486Y2037D01*
X25491Y2033D01*
X25499Y2029D01*
X25508Y2026D01*
X25518Y2022D01*
X25530Y2020D01*
X25522Y1973D01*
X25521D01*
X25520Y1973D01*
X25518Y1974D01*
X25514Y1975D01*
X25510Y1976D01*
X25506Y1977D01*
X25495Y1981D01*
X25483Y1986D01*
X25471Y1993D01*
X25459Y2001D01*
X25449Y2012D01*
X25448Y2012D01*
X25448Y2013D01*
X25446Y2015D01*
X25445Y2017D01*
X25443Y2020D01*
X25440Y2024D01*
X25438Y2028D01*
X25435Y2033D01*
X25431Y2044D01*
X25427Y2057D01*
X25424Y2072D01*
X25423Y2079D01*
Y2093D01*
X25423Y2099D01*
X25424Y2107D01*
X25426Y2116D01*
X25429Y2125D01*
X25432Y2135D01*
X25436Y2145D01*
Y2146D01*
X25437Y2147D01*
X25439Y2150D01*
X25442Y2155D01*
X25446Y2160D01*
X25451Y2167D01*
X25458Y2174D01*
X25465Y2180D01*
X25473Y2186D01*
X25474Y2187D01*
X25477Y2188D01*
X25482Y2190D01*
X25488Y2193D01*
X25495Y2196D01*
X25504Y2198D01*
X25513Y2200D01*
X25523Y2200D01*
X25524D01*
X25527D01*
X25531Y2200D01*
X25538Y2199D01*
X25545Y2197D01*
X25552Y2194D01*
X25560Y2191D01*
X25568Y2187D01*
X25569Y2186D01*
X25571Y2184D01*
X25575Y2181D01*
X25580Y2177D01*
X25585Y2171D01*
X25590Y2164D01*
X25595Y2157D01*
X25600Y2147D01*
Y2148D01*
X25601Y2149D01*
X25601Y2150D01*
X25602Y2153D01*
X25604Y2159D01*
X25607Y2167D01*
X25612Y2175D01*
X25617Y2184D01*
X25625Y2193D01*
X25633Y2200D01*
X25634Y2201D01*
X25637Y2203D01*
X25643Y2207D01*
X25650Y2210D01*
X25659Y2213D01*
X25670Y2217D01*
X25682Y2219D01*
X25695Y2219D01*
X25696D01*
X25697D01*
X25700D01*
X25703Y2219D01*
D02*
G37*
G36*
X25808Y1845D02*
X25755D01*
Y1899D01*
X25808D01*
Y1845D01*
D02*
G37*
G36*
X25703Y1771D02*
X25708Y1770D01*
X25713Y1769D01*
X25718Y1768D01*
X25725Y1767D01*
X25738Y1763D01*
X25745Y1759D01*
X25752Y1756D01*
X25759Y1751D01*
X25766Y1746D01*
X25773Y1741D01*
X25780Y1734D01*
X25781Y1734D01*
X25782Y1733D01*
X25783Y1730D01*
X25786Y1728D01*
X25788Y1724D01*
X25791Y1720D01*
X25794Y1715D01*
X25797Y1709D01*
X25801Y1703D01*
X25804Y1695D01*
X25807Y1688D01*
X25809Y1680D01*
X25812Y1671D01*
X25813Y1662D01*
X25814Y1652D01*
X25815Y1642D01*
Y1637D01*
X25814Y1633D01*
X25814Y1629D01*
X25813Y1624D01*
X25812Y1618D01*
X25811Y1612D01*
X25808Y1599D01*
X25802Y1585D01*
X25799Y1578D01*
X25795Y1571D01*
X25790Y1564D01*
X25785Y1558D01*
X25784Y1557D01*
X25783Y1556D01*
X25782Y1554D01*
X25779Y1553D01*
X25777Y1550D01*
X25773Y1547D01*
X25769Y1544D01*
X25764Y1541D01*
X25758Y1537D01*
X25753Y1534D01*
X25740Y1528D01*
X25724Y1523D01*
X25716Y1521D01*
X25707Y1520D01*
X25701Y1567D01*
X25701D01*
X25702Y1568D01*
X25705Y1568D01*
X25707Y1569D01*
X25711Y1569D01*
X25715Y1570D01*
X25723Y1573D01*
X25733Y1577D01*
X25742Y1582D01*
X25751Y1588D01*
X25759Y1594D01*
X25759Y1595D01*
X25762Y1598D01*
X25765Y1602D01*
X25767Y1608D01*
X25771Y1614D01*
X25773Y1623D01*
X25776Y1632D01*
X25776Y1642D01*
Y1645D01*
X25776Y1648D01*
X25775Y1654D01*
X25773Y1662D01*
X25771Y1670D01*
X25767Y1680D01*
X25761Y1689D01*
X25753Y1698D01*
X25752Y1699D01*
X25749Y1702D01*
X25744Y1705D01*
X25737Y1710D01*
X25729Y1714D01*
X25720Y1718D01*
X25708Y1720D01*
X25696Y1721D01*
X25696D01*
X25695D01*
X25693D01*
X25691Y1721D01*
X25685Y1720D01*
X25677Y1719D01*
X25668Y1716D01*
X25660Y1713D01*
X25651Y1707D01*
X25642Y1700D01*
X25641Y1699D01*
X25639Y1696D01*
X25636Y1691D01*
X25632Y1685D01*
X25628Y1678D01*
X25625Y1668D01*
X25622Y1658D01*
X25621Y1646D01*
Y1641D01*
X25622Y1637D01*
X25622Y1632D01*
X25624Y1627D01*
X25625Y1620D01*
X25626Y1613D01*
X25585Y1618D01*
Y1621D01*
X25585Y1623D01*
Y1630D01*
X25584Y1637D01*
X25583Y1644D01*
X25581Y1652D01*
X25579Y1662D01*
X25575Y1670D01*
X25570Y1680D01*
Y1680D01*
X25569Y1681D01*
X25567Y1684D01*
X25563Y1688D01*
X25558Y1692D01*
X25551Y1696D01*
X25543Y1700D01*
X25533Y1703D01*
X25528Y1704D01*
X25521D01*
X25521D01*
X25520D01*
X25517D01*
X25513Y1703D01*
X25506Y1702D01*
X25500Y1700D01*
X25493Y1697D01*
X25485Y1693D01*
X25479Y1687D01*
X25478Y1686D01*
X25476Y1683D01*
X25473Y1679D01*
X25470Y1674D01*
X25467Y1668D01*
X25464Y1660D01*
X25462Y1651D01*
X25461Y1641D01*
Y1637D01*
X25463Y1632D01*
X25464Y1625D01*
X25466Y1618D01*
X25469Y1610D01*
X25473Y1603D01*
X25479Y1595D01*
X25479Y1595D01*
X25482Y1593D01*
X25486Y1589D01*
X25491Y1585D01*
X25499Y1582D01*
X25508Y1578D01*
X25518Y1574D01*
X25530Y1572D01*
X25522Y1525D01*
X25521D01*
X25520Y1526D01*
X25518Y1526D01*
X25514Y1527D01*
X25510Y1528D01*
X25506Y1529D01*
X25495Y1533D01*
X25483Y1538D01*
X25471Y1545D01*
X25459Y1553D01*
X25449Y1564D01*
X25448Y1564D01*
X25448Y1566D01*
X25446Y1567D01*
X25445Y1569D01*
X25443Y1572D01*
X25440Y1576D01*
X25438Y1580D01*
X25435Y1585D01*
X25431Y1596D01*
X25427Y1609D01*
X25424Y1624D01*
X25423Y1632D01*
Y1645D01*
X25423Y1652D01*
X25424Y1659D01*
X25426Y1668D01*
X25429Y1678D01*
X25432Y1688D01*
X25436Y1698D01*
Y1698D01*
X25437Y1699D01*
X25439Y1702D01*
X25442Y1707D01*
X25446Y1713D01*
X25451Y1719D01*
X25458Y1726D01*
X25465Y1733D01*
X25473Y1738D01*
X25474Y1739D01*
X25477Y1740D01*
X25482Y1743D01*
X25488Y1745D01*
X25495Y1748D01*
X25504Y1750D01*
X25513Y1752D01*
X25523Y1753D01*
X25524D01*
X25527D01*
X25531Y1752D01*
X25538Y1751D01*
X25545Y1749D01*
X25552Y1746D01*
X25560Y1743D01*
X25568Y1739D01*
X25569Y1738D01*
X25571Y1736D01*
X25575Y1733D01*
X25580Y1729D01*
X25585Y1723D01*
X25590Y1716D01*
X25595Y1709D01*
X25600Y1699D01*
Y1700D01*
X25601Y1701D01*
X25601Y1703D01*
X25602Y1705D01*
X25604Y1711D01*
X25607Y1719D01*
X25612Y1728D01*
X25617Y1736D01*
X25625Y1745D01*
X25633Y1753D01*
X25634Y1753D01*
X25637Y1755D01*
X25643Y1759D01*
X25650Y1762D01*
X25659Y1765D01*
X25670Y1769D01*
X25682Y1771D01*
X25695Y1771D01*
X25696D01*
X25697D01*
X25700D01*
X25703Y1771D01*
D02*
G37*
G36*
X25475Y3604D02*
X25813D01*
Y3552D01*
X25475D01*
Y3426D01*
X25429D01*
Y3730D01*
X25475D01*
Y3604D01*
D02*
G37*
G36*
X25717Y3384D02*
X25725Y3383D01*
X25733Y3380D01*
X25743Y3378D01*
X25753Y3373D01*
X25763Y3367D01*
X25764D01*
X25765Y3367D01*
X25768Y3364D01*
X25773Y3360D01*
X25778Y3354D01*
X25785Y3347D01*
X25792Y3338D01*
X25799Y3328D01*
X25805Y3317D01*
Y3316D01*
X25806Y3315D01*
X25806Y3313D01*
X25807Y3311D01*
X25808Y3308D01*
X25810Y3304D01*
X25812Y3295D01*
X25815Y3284D01*
X25818Y3272D01*
X25819Y3258D01*
X25820Y3243D01*
Y3234D01*
X25819Y3229D01*
Y3224D01*
X25819Y3219D01*
X25818Y3212D01*
X25816Y3198D01*
X25814Y3184D01*
X25810Y3170D01*
X25805Y3156D01*
Y3155D01*
X25804Y3154D01*
X25803Y3152D01*
X25802Y3150D01*
X25799Y3143D01*
X25794Y3136D01*
X25787Y3127D01*
X25779Y3117D01*
X25770Y3108D01*
X25759Y3100D01*
X25759D01*
X25758Y3099D01*
X25756Y3099D01*
X25754Y3097D01*
X25751Y3096D01*
X25748Y3094D01*
X25740Y3090D01*
X25729Y3086D01*
X25717Y3083D01*
X25704Y3081D01*
X25690Y3080D01*
X25686Y3127D01*
X25686D01*
X25687D01*
X25688Y3128D01*
X25691D01*
X25696Y3129D01*
X25703Y3131D01*
X25710Y3133D01*
X25718Y3135D01*
X25726Y3139D01*
X25733Y3143D01*
X25734Y3143D01*
X25736Y3145D01*
X25740Y3148D01*
X25744Y3152D01*
X25749Y3158D01*
X25754Y3164D01*
X25759Y3172D01*
X25763Y3181D01*
Y3182D01*
X25764Y3182D01*
X25765Y3184D01*
X25765Y3186D01*
X25767Y3191D01*
X25769Y3198D01*
X25771Y3207D01*
X25773Y3217D01*
X25774Y3228D01*
X25774Y3241D01*
Y3246D01*
X25774Y3251D01*
X25773Y3258D01*
X25772Y3266D01*
X25771Y3274D01*
X25769Y3283D01*
X25766Y3292D01*
X25766Y3293D01*
X25765Y3296D01*
X25762Y3299D01*
X25760Y3304D01*
X25756Y3309D01*
X25752Y3315D01*
X25748Y3320D01*
X25742Y3325D01*
X25742Y3325D01*
X25740Y3327D01*
X25737Y3328D01*
X25732Y3330D01*
X25728Y3333D01*
X25722Y3334D01*
X25716Y3335D01*
X25710Y3336D01*
X25709D01*
X25706D01*
X25703Y3335D01*
X25698Y3335D01*
X25694Y3333D01*
X25688Y3332D01*
X25683Y3329D01*
X25678Y3325D01*
X25677Y3324D01*
X25676Y3323D01*
X25673Y3320D01*
X25670Y3317D01*
X25667Y3312D01*
X25663Y3306D01*
X25659Y3299D01*
X25656Y3291D01*
X25655Y3290D01*
X25655Y3287D01*
X25653Y3283D01*
X25652Y3280D01*
X25651Y3276D01*
X25650Y3272D01*
X25649Y3267D01*
X25647Y3262D01*
X25645Y3255D01*
X25644Y3248D01*
X25641Y3241D01*
X25639Y3232D01*
X25637Y3222D01*
Y3222D01*
X25636Y3220D01*
X25636Y3217D01*
X25635Y3214D01*
X25634Y3210D01*
X25632Y3205D01*
X25629Y3193D01*
X25625Y3181D01*
X25621Y3168D01*
X25617Y3157D01*
X25615Y3152D01*
X25613Y3148D01*
Y3147D01*
X25612Y3147D01*
X25610Y3143D01*
X25607Y3138D01*
X25603Y3133D01*
X25598Y3126D01*
X25592Y3120D01*
X25585Y3113D01*
X25577Y3107D01*
X25576Y3107D01*
X25573Y3105D01*
X25569Y3103D01*
X25563Y3101D01*
X25556Y3099D01*
X25547Y3096D01*
X25539Y3095D01*
X25529Y3094D01*
X25529D01*
X25528D01*
X25526D01*
X25524D01*
X25519Y3095D01*
X25511Y3096D01*
X25503Y3098D01*
X25494Y3101D01*
X25484Y3105D01*
X25475Y3110D01*
X25474D01*
X25474Y3111D01*
X25470Y3113D01*
X25466Y3117D01*
X25460Y3122D01*
X25454Y3129D01*
X25448Y3137D01*
X25441Y3147D01*
X25436Y3158D01*
Y3159D01*
X25435Y3160D01*
X25435Y3162D01*
X25434Y3164D01*
X25433Y3167D01*
X25431Y3171D01*
X25429Y3179D01*
X25427Y3190D01*
X25425Y3202D01*
X25423Y3214D01*
X25423Y3229D01*
Y3236D01*
X25423Y3240D01*
Y3244D01*
X25424Y3254D01*
X25426Y3266D01*
X25429Y3278D01*
X25432Y3292D01*
X25436Y3304D01*
Y3304D01*
X25437Y3306D01*
X25438Y3307D01*
X25439Y3309D01*
X25442Y3315D01*
X25447Y3322D01*
X25453Y3330D01*
X25460Y3339D01*
X25468Y3347D01*
X25478Y3354D01*
X25478D01*
X25479Y3354D01*
X25480Y3355D01*
X25482Y3357D01*
X25488Y3359D01*
X25495Y3363D01*
X25504Y3367D01*
X25514Y3369D01*
X25525Y3372D01*
X25538Y3373D01*
X25541Y3324D01*
X25541D01*
X25540D01*
X25538Y3324D01*
X25535Y3323D01*
X25529Y3322D01*
X25521Y3319D01*
X25512Y3316D01*
X25503Y3311D01*
X25495Y3305D01*
X25487Y3297D01*
X25486Y3296D01*
X25484Y3293D01*
X25481Y3288D01*
X25478Y3281D01*
X25474Y3271D01*
X25471Y3260D01*
X25469Y3246D01*
X25468Y3231D01*
Y3223D01*
X25469Y3219D01*
X25469Y3215D01*
X25470Y3205D01*
X25473Y3194D01*
X25475Y3183D01*
X25480Y3172D01*
X25483Y3168D01*
X25485Y3163D01*
X25486Y3162D01*
X25488Y3160D01*
X25492Y3157D01*
X25496Y3153D01*
X25503Y3150D01*
X25509Y3146D01*
X25517Y3144D01*
X25526Y3143D01*
X25527D01*
X25529D01*
X25533Y3143D01*
X25538Y3145D01*
X25543Y3146D01*
X25549Y3149D01*
X25554Y3152D01*
X25560Y3157D01*
X25560Y3158D01*
X25562Y3161D01*
X25564Y3163D01*
X25565Y3165D01*
X25566Y3168D01*
X25569Y3172D01*
X25570Y3177D01*
X25572Y3183D01*
X25575Y3189D01*
X25577Y3196D01*
X25580Y3204D01*
X25582Y3213D01*
X25585Y3223D01*
X25587Y3234D01*
Y3234D01*
X25588Y3237D01*
X25589Y3240D01*
X25590Y3244D01*
X25591Y3249D01*
X25592Y3255D01*
X25594Y3261D01*
X25596Y3268D01*
X25600Y3282D01*
X25604Y3296D01*
X25606Y3303D01*
X25608Y3309D01*
X25610Y3314D01*
X25612Y3319D01*
Y3319D01*
X25612Y3320D01*
X25614Y3322D01*
X25615Y3324D01*
X25618Y3330D01*
X25622Y3338D01*
X25629Y3346D01*
X25635Y3354D01*
X25643Y3362D01*
X25651Y3369D01*
X25652Y3369D01*
X25655Y3372D01*
X25660Y3374D01*
X25667Y3377D01*
X25675Y3380D01*
X25684Y3383D01*
X25695Y3384D01*
X25706Y3385D01*
X25706D01*
X25707D01*
X25708D01*
X25711D01*
X25717Y3384D01*
D02*
G37*
G36*
X25813Y2984D02*
X25733Y2934D01*
X25733D01*
X25732Y2933D01*
X25730Y2931D01*
X25728Y2930D01*
X25722Y2926D01*
X25714Y2921D01*
X25706Y2915D01*
X25697Y2909D01*
X25688Y2903D01*
X25681Y2897D01*
X25680Y2896D01*
X25678Y2895D01*
X25675Y2892D01*
X25671Y2888D01*
X25662Y2880D01*
X25658Y2875D01*
X25655Y2871D01*
X25655Y2870D01*
X25654Y2869D01*
X25653Y2867D01*
X25651Y2864D01*
X25650Y2860D01*
X25648Y2857D01*
X25645Y2848D01*
Y2847D01*
X25645Y2846D01*
Y2844D01*
X25644Y2841D01*
X25644Y2837D01*
Y2833D01*
X25643Y2827D01*
Y2761D01*
X25813D01*
Y2710D01*
X25429D01*
Y2888D01*
X25430Y2893D01*
Y2898D01*
X25430Y2909D01*
X25432Y2921D01*
X25434Y2935D01*
X25436Y2947D01*
X25438Y2953D01*
X25440Y2958D01*
Y2959D01*
X25440Y2959D01*
X25442Y2963D01*
X25444Y2968D01*
X25448Y2974D01*
X25453Y2980D01*
X25460Y2988D01*
X25468Y2994D01*
X25476Y3001D01*
X25477D01*
X25478Y3001D01*
X25481Y3004D01*
X25486Y3006D01*
X25494Y3009D01*
X25502Y3012D01*
X25512Y3015D01*
X25523Y3016D01*
X25534Y3017D01*
X25535D01*
X25536D01*
X25538D01*
X25541Y3016D01*
X25545D01*
X25549Y3016D01*
X25558Y3014D01*
X25569Y3010D01*
X25581Y3006D01*
X25592Y2999D01*
X25598Y2995D01*
X25604Y2990D01*
X25604Y2990D01*
X25605Y2989D01*
X25606Y2988D01*
X25608Y2985D01*
X25610Y2982D01*
X25612Y2979D01*
X25615Y2975D01*
X25619Y2970D01*
X25621Y2965D01*
X25624Y2959D01*
X25627Y2952D01*
X25630Y2945D01*
X25632Y2936D01*
X25635Y2928D01*
X25637Y2919D01*
X25639Y2909D01*
X25639Y2910D01*
X25640Y2912D01*
X25642Y2915D01*
X25645Y2920D01*
X25651Y2930D01*
X25655Y2935D01*
X25658Y2939D01*
X25659Y2940D01*
X25662Y2943D01*
X25666Y2948D01*
X25672Y2953D01*
X25680Y2959D01*
X25688Y2966D01*
X25698Y2974D01*
X25709Y2981D01*
X25813Y3047D01*
Y2984D01*
D02*
G37*
G36*
X25820Y5587D02*
X25683Y5489D01*
X25683Y5489D01*
X25681Y5488D01*
X25679Y5487D01*
X25676Y5484D01*
X25668Y5479D01*
X25660Y5474D01*
X25661Y5473D01*
X25663Y5472D01*
X25666Y5469D01*
X25671Y5467D01*
X25680Y5461D01*
X25683Y5458D01*
X25687Y5456D01*
X25820Y5358D01*
Y5297D01*
X25621Y5446D01*
X25436Y5315D01*
Y5375D01*
X25535Y5445D01*
X25535D01*
X25536Y5446D01*
X25538Y5447D01*
X25540Y5449D01*
X25545Y5452D01*
X25552Y5457D01*
X25560Y5462D01*
X25567Y5467D01*
X25575Y5472D01*
X25581Y5476D01*
X25580Y5476D01*
X25578Y5478D01*
X25574Y5481D01*
X25568Y5484D01*
X25562Y5489D01*
X25554Y5494D01*
X25546Y5500D01*
X25538Y5507D01*
X25436Y5583D01*
Y5639D01*
X25619Y5506D01*
X25820Y5649D01*
Y5587D01*
D02*
G37*
G36*
Y5224D02*
X25740Y5174D01*
X25740D01*
X25738Y5173D01*
X25737Y5171D01*
X25735Y5170D01*
X25728Y5166D01*
X25721Y5161D01*
X25712Y5155D01*
X25703Y5149D01*
X25695Y5143D01*
X25687Y5137D01*
X25687Y5136D01*
X25685Y5135D01*
X25681Y5132D01*
X25677Y5128D01*
X25669Y5120D01*
X25665Y5115D01*
X25662Y5111D01*
X25661Y5110D01*
X25661Y5109D01*
X25660Y5107D01*
X25658Y5104D01*
X25656Y5100D01*
X25655Y5097D01*
X25652Y5088D01*
Y5087D01*
X25651Y5086D01*
Y5084D01*
X25651Y5081D01*
X25650Y5077D01*
Y5073D01*
X25650Y5067D01*
Y5001D01*
X25820D01*
Y4950D01*
X25436D01*
Y5128D01*
X25436Y5133D01*
Y5138D01*
X25437Y5149D01*
X25439Y5161D01*
X25440Y5175D01*
X25443Y5187D01*
X25445Y5193D01*
X25446Y5198D01*
Y5199D01*
X25447Y5199D01*
X25449Y5203D01*
X25451Y5208D01*
X25455Y5214D01*
X25460Y5220D01*
X25466Y5228D01*
X25474Y5234D01*
X25483Y5241D01*
X25484D01*
X25484Y5241D01*
X25488Y5244D01*
X25493Y5246D01*
X25500Y5249D01*
X25509Y5252D01*
X25519Y5255D01*
X25529Y5256D01*
X25541Y5257D01*
X25541D01*
X25543D01*
X25545D01*
X25547Y5256D01*
X25551D01*
X25555Y5256D01*
X25565Y5254D01*
X25576Y5250D01*
X25587Y5246D01*
X25599Y5239D01*
X25605Y5235D01*
X25610Y5230D01*
X25611Y5230D01*
X25611Y5229D01*
X25613Y5228D01*
X25615Y5225D01*
X25617Y5222D01*
X25619Y5219D01*
X25622Y5215D01*
X25625Y5210D01*
X25628Y5205D01*
X25631Y5199D01*
X25634Y5192D01*
X25637Y5185D01*
X25639Y5176D01*
X25642Y5168D01*
X25644Y5159D01*
X25645Y5149D01*
X25646Y5150D01*
X25647Y5152D01*
X25649Y5155D01*
X25651Y5160D01*
X25657Y5170D01*
X25661Y5175D01*
X25665Y5179D01*
X25666Y5180D01*
X25668Y5183D01*
X25673Y5188D01*
X25678Y5193D01*
X25686Y5199D01*
X25695Y5206D01*
X25705Y5214D01*
X25716Y5221D01*
X25820Y5287D01*
Y5224D01*
D02*
G37*
G36*
Y4607D02*
X25683Y4509D01*
X25683Y4509D01*
X25681Y4508D01*
X25679Y4507D01*
X25676Y4505D01*
X25668Y4500D01*
X25660Y4494D01*
X25661Y4493D01*
X25663Y4492D01*
X25666Y4490D01*
X25671Y4487D01*
X25680Y4481D01*
X25683Y4478D01*
X25687Y4476D01*
X25820Y4379D01*
Y4317D01*
X25621Y4466D01*
X25436Y4335D01*
Y4395D01*
X25535Y4465D01*
X25535D01*
X25536Y4466D01*
X25538Y4467D01*
X25540Y4469D01*
X25545Y4472D01*
X25552Y4477D01*
X25560Y4482D01*
X25567Y4487D01*
X25575Y4492D01*
X25581Y4496D01*
X25580Y4496D01*
X25578Y4498D01*
X25574Y4501D01*
X25568Y4505D01*
X25562Y4509D01*
X25554Y4514D01*
X25546Y4520D01*
X25538Y4527D01*
X25436Y4603D01*
Y4659D01*
X25619Y4526D01*
X25820Y4669D01*
Y4607D01*
D02*
G37*
G36*
X25481Y4178D02*
X25820D01*
Y4127D01*
X25481D01*
Y4000D01*
X25436D01*
Y4304D01*
X25481D01*
Y4178D01*
D02*
G37*
%LPC*%
G36*
X17464Y22291D02*
Y22290D01*
X17463Y22289D01*
Y22287D01*
X17462Y22285D01*
X17461Y22281D01*
X17460Y22277D01*
X17458Y22267D01*
X17455Y22256D01*
X17451Y22244D01*
X17447Y22231D01*
X17442Y22217D01*
X17401Y22105D01*
X17531D01*
X17491Y22210D01*
Y22211D01*
X17490Y22213D01*
X17489Y22215D01*
X17488Y22219D01*
X17486Y22222D01*
X17485Y22227D01*
X17483Y22233D01*
X17481Y22239D01*
X17476Y22251D01*
X17472Y22265D01*
X17467Y22278D01*
X17464Y22291D01*
D02*
G37*
G36*
X17085Y22285D02*
X16996D01*
Y21992D01*
X17087D01*
X17091Y21993D01*
X17099Y21993D01*
X17109Y21994D01*
X17119Y21995D01*
X17129Y21997D01*
X17137Y21999D01*
X17138Y21999D01*
X17141Y22000D01*
X17145Y22002D01*
X17150Y22004D01*
X17156Y22007D01*
X17161Y22010D01*
X17167Y22014D01*
X17172Y22019D01*
X17173Y22020D01*
X17175Y22022D01*
X17178Y22026D01*
X17182Y22032D01*
X17187Y22039D01*
X17192Y22047D01*
X17196Y22057D01*
X17200Y22067D01*
Y22068D01*
X17200Y22069D01*
X17201Y22070D01*
X17202Y22073D01*
X17202Y22075D01*
X17203Y22079D01*
X17204Y22083D01*
X17205Y22088D01*
X17207Y22099D01*
X17209Y22111D01*
X17210Y22126D01*
X17210Y22141D01*
Y22142D01*
Y22144D01*
Y22147D01*
X17210Y22151D01*
Y22156D01*
X17209Y22162D01*
X17209Y22169D01*
X17208Y22175D01*
X17205Y22190D01*
X17202Y22206D01*
X17197Y22220D01*
X17194Y22227D01*
X17190Y22234D01*
Y22234D01*
X17189Y22235D01*
X17188Y22237D01*
X17187Y22239D01*
X17183Y22245D01*
X17177Y22251D01*
X17170Y22259D01*
X17162Y22266D01*
X17152Y22272D01*
X17142Y22277D01*
X17141Y22277D01*
X17138Y22278D01*
X17133Y22280D01*
X17126Y22281D01*
X17117Y22282D01*
X17106Y22284D01*
X17099Y22285D01*
X17092D01*
X17085Y22285D01*
D02*
G37*
G36*
X19010Y22295D02*
X18921D01*
Y22002D01*
X19012D01*
X19016Y22003D01*
X19024Y22003D01*
X19034Y22004D01*
X19044Y22005D01*
X19054Y22007D01*
X19062Y22009D01*
X19063Y22009D01*
X19066Y22010D01*
X19070Y22012D01*
X19075Y22014D01*
X19080Y22017D01*
X19086Y22020D01*
X19091Y22024D01*
X19097Y22029D01*
X19098Y22030D01*
X19100Y22032D01*
X19103Y22036D01*
X19107Y22042D01*
X19111Y22049D01*
X19116Y22057D01*
X19121Y22067D01*
X19125Y22077D01*
Y22078D01*
X19125Y22079D01*
X19126Y22080D01*
X19126Y22083D01*
X19127Y22085D01*
X19128Y22089D01*
X19129Y22093D01*
X19130Y22098D01*
X19132Y22109D01*
X19134Y22121D01*
X19135Y22136D01*
X19135Y22151D01*
Y22152D01*
Y22154D01*
Y22157D01*
X19135Y22161D01*
Y22166D01*
X19134Y22172D01*
X19134Y22179D01*
X19133Y22185D01*
X19130Y22200D01*
X19127Y22216D01*
X19122Y22230D01*
X19119Y22237D01*
X19115Y22244D01*
Y22244D01*
X19114Y22245D01*
X19113Y22247D01*
X19112Y22249D01*
X19108Y22255D01*
X19102Y22261D01*
X19095Y22269D01*
X19086Y22276D01*
X19077Y22282D01*
X19067Y22287D01*
X19066Y22287D01*
X19063Y22288D01*
X19058Y22290D01*
X19051Y22291D01*
X19042Y22292D01*
X19031Y22294D01*
X19024Y22295D01*
X19017D01*
X19010Y22295D01*
D02*
G37*
G36*
X17892Y22298D02*
X17771D01*
Y22171D01*
X17885D01*
X17892Y22171D01*
X17900Y22172D01*
X17909Y22173D01*
X17918Y22174D01*
X17926Y22175D01*
X17934Y22178D01*
X17935Y22178D01*
X17938Y22179D01*
X17941Y22181D01*
X17945Y22183D01*
X17950Y22186D01*
X17955Y22190D01*
X17960Y22195D01*
X17964Y22201D01*
X17965Y22201D01*
X17966Y22204D01*
X17968Y22207D01*
X17970Y22211D01*
X17971Y22216D01*
X17973Y22222D01*
X17974Y22229D01*
X17975Y22235D01*
Y22236D01*
Y22236D01*
X17974Y22240D01*
X17974Y22245D01*
X17973Y22251D01*
X17970Y22258D01*
X17966Y22266D01*
X17961Y22273D01*
X17955Y22280D01*
X17954Y22281D01*
X17951Y22283D01*
X17946Y22286D01*
X17939Y22289D01*
X17931Y22292D01*
X17920Y22295D01*
X17907Y22297D01*
X17892Y22298D01*
D02*
G37*
G36*
X25042Y4626D02*
X25041D01*
X25040D01*
X25037D01*
X25034D01*
X25030Y4626D01*
X25025D01*
X25020Y4625D01*
X25014Y4624D01*
X25001Y4622D01*
X24988Y4620D01*
X24974Y4616D01*
X24960Y4610D01*
X24960D01*
X24959Y4610D01*
X24957Y4609D01*
X24955Y4608D01*
X24948Y4604D01*
X24940Y4599D01*
X24931Y4592D01*
X24923Y4584D01*
X24914Y4574D01*
X24906Y4564D01*
Y4563D01*
X24905Y4563D01*
X24904Y4561D01*
X24903Y4558D01*
X24901Y4555D01*
X24900Y4552D01*
X24896Y4544D01*
X24893Y4534D01*
X24889Y4522D01*
X24887Y4509D01*
X24886Y4495D01*
Y4490D01*
X24887Y4486D01*
X24888Y4481D01*
X24889Y4476D01*
X24890Y4470D01*
X24891Y4463D01*
X24895Y4449D01*
X24899Y4441D01*
X24902Y4433D01*
X24906Y4425D01*
X24911Y4417D01*
X24917Y4409D01*
X24924Y4402D01*
X24924Y4402D01*
X24925Y4401D01*
X24928Y4399D01*
X24931Y4396D01*
X24935Y4393D01*
X24940Y4390D01*
X24946Y4387D01*
X24953Y4383D01*
X24961Y4379D01*
X24970Y4376D01*
X24980Y4372D01*
X24991Y4369D01*
X25004Y4367D01*
X25017Y4365D01*
X25032Y4364D01*
X25047Y4363D01*
X25048D01*
X25050D01*
X25054D01*
X25059Y4364D01*
X25065Y4364D01*
X25071Y4366D01*
X25079Y4367D01*
X25087Y4368D01*
X25105Y4372D01*
X25113Y4376D01*
X25123Y4379D01*
X25132Y4383D01*
X25141Y4388D01*
X25149Y4394D01*
X25157Y4401D01*
X25157Y4401D01*
X25158Y4402D01*
X25161Y4404D01*
X25163Y4407D01*
X25166Y4411D01*
X25170Y4415D01*
X25173Y4420D01*
X25177Y4426D01*
X25181Y4433D01*
X25184Y4440D01*
X25187Y4448D01*
X25191Y4456D01*
X25193Y4465D01*
X25195Y4474D01*
X25196Y4484D01*
X25197Y4494D01*
Y4497D01*
X25196Y4500D01*
Y4504D01*
X25196Y4509D01*
X25194Y4514D01*
X25193Y4521D01*
X25192Y4528D01*
X25189Y4535D01*
X25187Y4543D01*
X25184Y4551D01*
X25180Y4559D01*
X25175Y4566D01*
X25170Y4574D01*
X25164Y4582D01*
X25157Y4589D01*
X25156Y4590D01*
X25155Y4591D01*
X25152Y4593D01*
X25149Y4595D01*
X25145Y4598D01*
X25140Y4601D01*
X25134Y4604D01*
X25127Y4608D01*
X25120Y4611D01*
X25111Y4615D01*
X25101Y4618D01*
X25091Y4621D01*
X25080Y4623D01*
X25068Y4625D01*
X25055Y4626D01*
X25042Y4626D01*
D02*
G37*
G36*
X25039Y4055D02*
X25038D01*
X25036D01*
X25033D01*
X25029Y4055D01*
X25024D01*
X25018Y4054D01*
X25011Y4054D01*
X25005Y4053D01*
X24990Y4050D01*
X24974Y4047D01*
X24960Y4042D01*
X24953Y4039D01*
X24946Y4035D01*
X24946D01*
X24945Y4034D01*
X24943Y4033D01*
X24941Y4032D01*
X24935Y4028D01*
X24929Y4022D01*
X24921Y4015D01*
X24914Y4006D01*
X24908Y3997D01*
X24903Y3987D01*
X24903Y3986D01*
X24902Y3983D01*
X24900Y3978D01*
X24899Y3971D01*
X24898Y3962D01*
X24896Y3951D01*
X24895Y3944D01*
Y3937D01*
X24895Y3930D01*
Y3841D01*
X25188D01*
Y3932D01*
X25187Y3936D01*
X25187Y3944D01*
X25186Y3954D01*
X25185Y3964D01*
X25183Y3974D01*
X25181Y3982D01*
X25181Y3983D01*
X25180Y3986D01*
X25178Y3990D01*
X25176Y3995D01*
X25173Y4000D01*
X25170Y4006D01*
X25166Y4011D01*
X25161Y4017D01*
X25160Y4018D01*
X25158Y4020D01*
X25154Y4023D01*
X25148Y4027D01*
X25141Y4031D01*
X25133Y4036D01*
X25123Y4041D01*
X25113Y4045D01*
X25112D01*
X25111Y4045D01*
X25110Y4046D01*
X25107Y4046D01*
X25105Y4047D01*
X25101Y4048D01*
X25097Y4049D01*
X25092Y4050D01*
X25081Y4052D01*
X25069Y4054D01*
X25054Y4055D01*
X25039Y4055D01*
D02*
G37*
G36*
X25535Y2965D02*
X25534D01*
X25534D01*
X25530Y2964D01*
X25525Y2964D01*
X25519Y2963D01*
X25512Y2960D01*
X25504Y2956D01*
X25497Y2951D01*
X25490Y2945D01*
X25489Y2944D01*
X25487Y2941D01*
X25484Y2936D01*
X25481Y2929D01*
X25478Y2921D01*
X25475Y2910D01*
X25473Y2897D01*
X25472Y2882D01*
Y2761D01*
X25599D01*
Y2875D01*
X25599Y2882D01*
X25598Y2890D01*
X25597Y2899D01*
X25596Y2908D01*
X25595Y2916D01*
X25592Y2924D01*
X25592Y2925D01*
X25591Y2928D01*
X25589Y2931D01*
X25587Y2935D01*
X25584Y2940D01*
X25580Y2945D01*
X25575Y2950D01*
X25569Y2954D01*
X25569Y2955D01*
X25566Y2956D01*
X25563Y2958D01*
X25559Y2960D01*
X25554Y2961D01*
X25548Y2963D01*
X25541Y2964D01*
X25535Y2965D01*
D02*
G37*
G36*
X25541Y5205D02*
X25541D01*
X25540D01*
X25537Y5204D01*
X25532Y5204D01*
X25525Y5203D01*
X25519Y5200D01*
X25511Y5196D01*
X25504Y5191D01*
X25496Y5185D01*
X25496Y5184D01*
X25494Y5181D01*
X25491Y5176D01*
X25488Y5169D01*
X25484Y5161D01*
X25481Y5150D01*
X25479Y5137D01*
X25479Y5122D01*
Y5001D01*
X25606D01*
Y5115D01*
X25605Y5122D01*
X25605Y5130D01*
X25604Y5139D01*
X25603Y5148D01*
X25601Y5156D01*
X25599Y5164D01*
X25599Y5165D01*
X25597Y5168D01*
X25596Y5171D01*
X25594Y5175D01*
X25590Y5180D01*
X25586Y5185D01*
X25581Y5190D01*
X25576Y5194D01*
X25575Y5195D01*
X25573Y5196D01*
X25570Y5198D01*
X25565Y5200D01*
X25560Y5201D01*
X25555Y5203D01*
X25548Y5204D01*
X25541Y5205D01*
D02*
G37*
%LPD*%
D10*
X10800Y1403D02*
G03*
X10957Y1560I0J157D01*
G01*
X10143Y1560D02*
G03*
X10300Y1403I157J0D01*
G01*
X10300Y2796D02*
G03*
X10143Y2639I0J-157D01*
G01*
X10957Y2639D02*
G03*
X10800Y2796I-157J0D01*
G01*
X8817Y3919D02*
G03*
X8660Y4076I-157J0D01*
G01*
X8160Y4076D02*
G03*
X8003Y3919I0J-157D01*
G01*
X8003Y2840D02*
G03*
X8160Y2683I157J0D01*
G01*
X8660Y2683D02*
G03*
X8817Y2840I0J157D01*
G01*
X24820Y19536D02*
G03*
X24663Y19379I0J-157D01*
G01*
X25477Y19379D02*
G03*
X25320Y19536I-157J0D01*
G01*
X25320Y18143D02*
G03*
X25477Y18300I-0J157D01*
G01*
X24663Y18300D02*
G03*
X24820Y18143I157J0D01*
G01*
X6228Y8610D02*
G03*
X6385Y8453I157J0D01*
G01*
X6385Y9267D02*
G03*
X6228Y9110I0J-157D01*
G01*
X7621Y9110D02*
G03*
X7464Y9267I-157J-0D01*
G01*
X7464Y8453D02*
G03*
X7621Y8610I0J157D01*
G01*
X11993Y4020D02*
G03*
X12150Y3863I157J0D01*
G01*
X12150Y4677D02*
G03*
X11993Y4520I0J-157D01*
G01*
X13386Y4520D02*
G03*
X13229Y4677I-157J-0D01*
G01*
X13229Y3863D02*
G03*
X13386Y4020I0J157D01*
G01*
X26320Y19536D02*
G03*
X26163Y19379I0J-157D01*
G01*
X26977Y19379D02*
G03*
X26820Y19536I-157J0D01*
G01*
X26820Y18143D02*
G03*
X26977Y18300I-0J157D01*
G01*
X26163Y18300D02*
G03*
X26320Y18143I157J0D01*
G01*
X9893Y10110D02*
G03*
X10050Y9953I157J0D01*
G01*
X10550Y9953D02*
G03*
X10707Y10110I-0J157D01*
G01*
X10707Y11189D02*
G03*
X10550Y11346I-157J0D01*
G01*
X10050Y11346D02*
G03*
X9893Y11189I0J-157D01*
G01*
X14907Y8289D02*
G03*
X14750Y8446I-157J0D01*
G01*
X14250Y8446D02*
G03*
X14093Y8289I0J-157D01*
G01*
X14093Y7210D02*
G03*
X14250Y7053I157J0D01*
G01*
X14750Y7053D02*
G03*
X14907Y7210I0J157D01*
G01*
X11311Y20707D02*
G03*
X11154Y20550I0J-157D01*
G01*
X11154Y20050D02*
G03*
X11311Y19893I157J0D01*
G01*
X12390Y19893D02*
G03*
X12547Y20050I0J157D01*
G01*
X12547Y20550D02*
G03*
X12390Y20707I-157J0D01*
G01*
X13461Y18357D02*
G03*
X13303Y18200I0J-157D01*
G01*
X13303Y17700D02*
G03*
X13461Y17543I157J0D01*
G01*
X14539Y17543D02*
G03*
X14697Y17700I0J157D01*
G01*
X14697Y18200D02*
G03*
X14539Y18357I-157J0D01*
G01*
X11311D02*
G03*
X11153Y18200I0J-157D01*
G01*
X11153Y17700D02*
G03*
X11311Y17543I157J0D01*
G01*
X12389Y17543D02*
G03*
X12547Y17700I0J157D01*
G01*
X12547Y18200D02*
G03*
X12389Y18357I-157J0D01*
G01*
X25093Y15911D02*
G03*
X25250Y15754I157J0D01*
G01*
X25750Y15754D02*
G03*
X25907Y15911I-0J157D01*
G01*
X25907Y16990D02*
G03*
X25750Y17147I-157J0D01*
G01*
X25250Y17147D02*
G03*
X25093Y16990I0J-157D01*
G01*
X23493Y15911D02*
G03*
X23650Y15754I157J0D01*
G01*
X24150Y15754D02*
G03*
X24307Y15911I-0J157D01*
G01*
X24307Y16990D02*
G03*
X24150Y17147I-157J0D01*
G01*
X23650Y17147D02*
G03*
X23493Y16990I0J-157D01*
G01*
X20793Y15911D02*
G03*
X20950Y15754I157J0D01*
G01*
X21450Y15754D02*
G03*
X21607Y15911I-0J157D01*
G01*
X21607Y16990D02*
G03*
X21450Y17147I-157J0D01*
G01*
X20950Y17147D02*
G03*
X20793Y16990I0J-157D01*
G01*
X19143Y15911D02*
G03*
X19300Y15754I157J0D01*
G01*
X19800Y15754D02*
G03*
X19957Y15911I-0J157D01*
G01*
X19957Y16990D02*
G03*
X19800Y17147I-157J0D01*
G01*
X19300Y17147D02*
G03*
X19143Y16990I0J-157D01*
G01*
X9160Y18357D02*
G03*
X9003Y18200I0J-157D01*
G01*
X9003Y17700D02*
G03*
X9160Y17543I157J0D01*
G01*
X10239Y17543D02*
G03*
X10396Y17700I0J157D01*
G01*
X10396Y18200D02*
G03*
X10239Y18357I-157J0D01*
G01*
X13693Y1560D02*
G03*
X13850Y1403I157J0D01*
G01*
X14350Y1403D02*
G03*
X14507Y1560I-0J157D01*
G01*
X14507Y2639D02*
G03*
X14350Y2796I-157J0D01*
G01*
X13850Y2796D02*
G03*
X13693Y2639I0J-157D01*
G01*
X14083Y4630D02*
G03*
X14240Y4473I157J0D01*
G01*
X14740Y4473D02*
G03*
X14897Y4630I-0J157D01*
G01*
X14897Y5709D02*
G03*
X14740Y5866I-157J0D01*
G01*
X14240Y5866D02*
G03*
X14083Y5709I0J-157D01*
G01*
X16740Y1943D02*
G03*
X16897Y2100I0J157D01*
G01*
X16897Y2600D02*
G03*
X16740Y2757I-157J-0D01*
G01*
X15661Y2757D02*
G03*
X15504Y2600I0J-157D01*
G01*
X15504Y2100D02*
G03*
X15661Y1943I157J0D01*
G01*
X6257Y6889D02*
G03*
X6100Y7047I-157J0D01*
G01*
X5600Y7047D02*
G03*
X5443Y6889I0J-157D01*
G01*
X5443Y5811D02*
G03*
X5600Y5653I157J0D01*
G01*
X6100Y5653D02*
G03*
X6257Y5811I0J157D01*
G01*
X20739Y7243D02*
G03*
X20896Y7400I0J157D01*
G01*
X20896Y7900D02*
G03*
X20739Y8057I-157J-0D01*
G01*
X19660Y8057D02*
G03*
X19503Y7900I0J-157D01*
G01*
X19503Y7400D02*
G03*
X19660Y7243I157J0D01*
G01*
X12757Y2639D02*
G03*
X12600Y2796I-157J0D01*
G01*
X12100Y2796D02*
G03*
X11943Y2639I0J-157D01*
G01*
X11943Y1560D02*
G03*
X12100Y1403I157J0D01*
G01*
X12600Y1403D02*
G03*
X12757Y1560I0J157D01*
G01*
X16743Y4661D02*
G03*
X16900Y4503I157J0D01*
G01*
X17400Y4503D02*
G03*
X17557Y4661I-0J157D01*
G01*
X17557Y5739D02*
G03*
X17400Y5897I-157J0D01*
G01*
X16900Y5897D02*
G03*
X16743Y5739I0J-157D01*
G01*
X17507Y8739D02*
G03*
X17350Y8897I-157J0D01*
G01*
X16850Y8897D02*
G03*
X16693Y8739I0J-157D01*
G01*
X16693Y7661D02*
G03*
X16850Y7503I157J0D01*
G01*
X17350Y7503D02*
G03*
X17507Y7661I0J157D01*
G01*
X4593Y2311D02*
G03*
X4750Y2153I157J0D01*
G01*
X5250Y2153D02*
G03*
X5407Y2311I-0J157D01*
G01*
X5407Y3389D02*
G03*
X5250Y3547I-157J0D01*
G01*
X4750Y3547D02*
G03*
X4593Y3389I0J-157D01*
G01*
X2543Y2311D02*
G03*
X2700Y2153I157J0D01*
G01*
X3200Y2153D02*
G03*
X3357Y2311I-0J157D01*
G01*
X3357Y3389D02*
G03*
X3200Y3547I-157J0D01*
G01*
X2700Y3547D02*
G03*
X2543Y3389I0J-157D01*
G01*
X24050Y7354D02*
G03*
X24207Y7511I0J157D01*
G01*
X23393Y7511D02*
G03*
X23550Y7354I157J0D01*
G01*
X23550Y8747D02*
G03*
X23393Y8590I0J-157D01*
G01*
X24207Y8590D02*
G03*
X24050Y8747I-157J0D01*
G01*
X10957Y2277D02*
Y2639D01*
Y1560D02*
Y1922D01*
X10143Y1560D02*
Y1922D01*
X10300Y1403D02*
X10800D01*
X10143Y2277D02*
Y2639D01*
X10300Y2796D02*
X10800D01*
X8160Y4076D02*
X8660D01*
X8003Y3557D02*
Y3919D01*
X8160Y2683D02*
X8660D01*
X8003Y2840D02*
Y3202D01*
X8817Y2840D02*
Y3202D01*
Y3557D02*
Y3919D01*
X24663Y18300D02*
Y18662D01*
Y19017D02*
Y19379D01*
X25477Y19017D02*
Y19379D01*
X24820Y19536D02*
X25320D01*
X25477Y18300D02*
Y18662D01*
X24820Y18143D02*
X25320D01*
X7102Y8453D02*
X7464D01*
X6385D02*
X6747D01*
X6385Y9267D02*
X6747D01*
X6228Y8610D02*
Y9110D01*
X7102Y9267D02*
X7464D01*
X7621Y8610D02*
Y9110D01*
X12867Y3863D02*
X13229D01*
X12150D02*
X12512D01*
X12150Y4677D02*
X12512D01*
X11993Y4020D02*
Y4520D01*
X12867Y4677D02*
X13229D01*
X13386Y4020D02*
Y4520D01*
X26163Y18300D02*
Y18662D01*
Y19017D02*
Y19379D01*
X26977Y19017D02*
Y19379D01*
X26320Y19536D02*
X26820D01*
X26977Y18300D02*
Y18662D01*
X26320Y18143D02*
X26820D01*
X10050Y9953D02*
X10550D01*
X10707Y10110D02*
Y10472D01*
X10050Y11346D02*
X10550D01*
X10707Y10827D02*
Y11189D01*
X9893Y10827D02*
Y11189D01*
Y10110D02*
Y10472D01*
X14250Y8446D02*
X14750D01*
X14093Y7927D02*
Y8289D01*
X14250Y7053D02*
X14750D01*
X14093Y7210D02*
Y7572D01*
X14907Y7210D02*
Y7572D01*
Y7927D02*
Y8289D01*
X11154Y20050D02*
Y20550D01*
X11311Y19893D02*
X11673D01*
X12547Y20050D02*
Y20550D01*
X12028Y19893D02*
X12390D01*
X12028Y20707D02*
X12390D01*
X11311D02*
X11673D01*
X13303Y17700D02*
Y18200D01*
X13461Y17543D02*
X13823D01*
X14697Y17700D02*
Y18200D01*
X14177Y17543D02*
X14539D01*
X14177Y18357D02*
X14539D01*
X13461D02*
X13823D01*
X11153Y17700D02*
Y18200D01*
X11311Y17543D02*
X11673D01*
X12547Y17700D02*
Y18200D01*
X12027Y17543D02*
X12389D01*
X12027Y18357D02*
X12389D01*
X11311D02*
X11673D01*
X25250Y15754D02*
X25750D01*
X25907Y15911D02*
Y16273D01*
X25250Y17147D02*
X25750D01*
X25907Y16628D02*
Y16990D01*
X25093Y16628D02*
Y16990D01*
Y15911D02*
Y16273D01*
X23650Y15754D02*
X24150D01*
X24307Y15911D02*
Y16273D01*
X23650Y17147D02*
X24150D01*
X24307Y16628D02*
Y16990D01*
X23493Y16628D02*
Y16990D01*
Y15911D02*
Y16273D01*
X20950Y15754D02*
X21450D01*
X21607Y15911D02*
Y16273D01*
X20950Y17147D02*
X21450D01*
X21607Y16628D02*
Y16990D01*
X20793Y16628D02*
Y16990D01*
Y15911D02*
Y16273D01*
X19300Y15754D02*
X19800D01*
X19957Y15911D02*
Y16273D01*
X19300Y17147D02*
X19800D01*
X19957Y16628D02*
Y16990D01*
X19143Y16628D02*
Y16990D01*
Y15911D02*
Y16273D01*
X9003Y17700D02*
Y18200D01*
X9160Y17543D02*
X9522D01*
X10396Y17700D02*
Y18200D01*
X9877Y17543D02*
X10239D01*
X9877Y18357D02*
X10239D01*
X9160D02*
X9522D01*
X13850Y1403D02*
X14350D01*
X14507Y1560D02*
Y1922D01*
X13850Y2796D02*
X14350D01*
X14507Y2277D02*
Y2639D01*
X13693Y2277D02*
Y2639D01*
Y1560D02*
Y1922D01*
X14240Y4473D02*
X14740D01*
X14897Y4630D02*
Y4992D01*
X14240Y5866D02*
X14740D01*
X14897Y5347D02*
Y5709D01*
X14083Y5347D02*
Y5709D01*
Y4630D02*
Y4992D01*
X16897Y2100D02*
Y2600D01*
X16378Y2757D02*
X16740D01*
X15504Y2100D02*
Y2600D01*
X15661Y2757D02*
X16023D01*
X15661Y1943D02*
X16023D01*
X16378D02*
X16740D01*
X5600Y7047D02*
X6100D01*
X5443Y6527D02*
Y6889D01*
X5600Y5653D02*
X6100D01*
X5443Y5811D02*
Y6173D01*
X6257Y5811D02*
Y6173D01*
Y6527D02*
Y6889D01*
X20896Y7400D02*
Y7900D01*
X20377Y8057D02*
X20739D01*
X19503Y7400D02*
Y7900D01*
X19660Y8057D02*
X20022D01*
X19660Y7243D02*
X20022D01*
X20377D02*
X20739D01*
X12100Y2796D02*
X12600D01*
X11943Y2277D02*
Y2639D01*
X12100Y1403D02*
X12600D01*
X11943Y1560D02*
Y1922D01*
X12757Y1560D02*
Y1922D01*
Y2277D02*
Y2639D01*
X16900Y4503D02*
X17400D01*
X17557Y4661D02*
Y5023D01*
X16900Y5897D02*
X17400D01*
X17557Y5377D02*
Y5739D01*
X16743Y5377D02*
Y5739D01*
Y4661D02*
Y5023D01*
X16850Y8897D02*
X17350D01*
X16693Y8377D02*
Y8739D01*
X16850Y7503D02*
X17350D01*
X16693Y7661D02*
Y8023D01*
X17507Y7661D02*
Y8023D01*
Y8377D02*
Y8739D01*
X8878Y5278D02*
Y7522D01*
X11122Y5278D02*
Y7522D01*
X8878D02*
X11122D01*
X8878Y5278D02*
X11122D01*
X4750Y2153D02*
X5250D01*
X5407Y2311D02*
Y2673D01*
X4750Y3547D02*
X5250D01*
X5407Y3027D02*
Y3389D01*
X4593Y3027D02*
Y3389D01*
Y2311D02*
Y2673D01*
X2700Y2153D02*
X3200D01*
X3357Y2311D02*
Y2673D01*
X2700Y3547D02*
X3200D01*
X3357Y3027D02*
Y3389D01*
X2543Y3027D02*
Y3389D01*
Y2311D02*
Y2673D01*
X20613Y5134D02*
X22187D01*
X20613Y3166D02*
X22187D01*
X20613D02*
Y5134D01*
X22187Y3166D02*
Y5134D01*
X24207Y8228D02*
Y8590D01*
Y7511D02*
Y7873D01*
X23393Y7511D02*
Y7873D01*
X23550Y7354D02*
X24050D01*
X23393Y8228D02*
Y8590D01*
X23550Y8747D02*
X24050D01*
D11*
X3991Y17500D02*
G03*
X3991Y17500I-79J0D01*
G01*
D12*
X7215Y2763D02*
G03*
X7215Y2763I-335J0D01*
G01*
D13*
X8465Y7748D02*
G03*
X8465Y7748I-49J0D01*
G01*
D14*
X9390Y7128D02*
G03*
X9390Y7128I-118J0D01*
G01*
D15*
X22994Y3075D02*
G03*
X22994Y3075I-59J0D01*
G01*
D16*
X22010Y3441D02*
G03*
X22010Y3441I-98J0D01*
G01*
D17*
X7081Y17500D02*
Y17776D01*
Y17500D02*
X7396D01*
Y17815D01*
X6412Y17500D02*
Y17776D01*
Y17500D02*
X6727D01*
Y17815D01*
X5743Y17500D02*
Y17776D01*
Y17500D02*
X6057D01*
Y17815D01*
X5073Y17500D02*
Y17776D01*
Y17500D02*
X5388D01*
Y17815D01*
X4719Y17500D02*
Y17815D01*
X4404Y17500D02*
X4719D01*
X4404D02*
Y17776D01*
X3794Y17815D02*
Y18819D01*
X8006Y17815D02*
Y18819D01*
X3794Y17815D02*
X8006D01*
X21621Y19149D02*
Y20251D01*
X19259D02*
X21621D01*
X19259Y19149D02*
Y20251D01*
Y19149D02*
X21621D01*
X760Y12316D02*
X770Y11346D01*
X87Y9897D02*
X3125D01*
Y13834D01*
X100D02*
X3125D01*
X87Y9897D02*
X100Y13834D01*
X28300Y9897D02*
X28313Y13834D01*
X25275Y9897D02*
X28300D01*
X25275D02*
Y13834D01*
X28313D01*
X27630Y12386D02*
X27640Y11416D01*
X5600Y14050D02*
X8100D01*
X5171Y13621D02*
X5600Y14050D01*
X5171Y10657D02*
Y13621D01*
X8100Y14050D02*
X8543Y13607D01*
Y10657D02*
Y13607D01*
X5171Y10657D02*
X8543D01*
X18913Y13563D02*
X19647Y14297D01*
X20050D01*
X18913Y10163D02*
X23087D01*
X18913D02*
Y13563D01*
X23087Y10163D02*
Y13563D01*
X22353Y14297D02*
X23087Y13563D01*
X21900Y14297D02*
X22353D01*
X20050D02*
X21900D01*
X14054Y10631D02*
X15354D01*
X12874Y15591D02*
X16654D01*
X12874Y10631D02*
Y15591D01*
X17826Y10631D02*
Y14370D01*
X12874Y10631D02*
X14054D01*
X15354D02*
X17826D01*
Y14370D02*
Y15591D01*
X15354D02*
X17826D01*
X9759Y12666D02*
X9838D01*
X9759Y14634D02*
X9838D01*
X10862Y12666D02*
X10941D01*
X10862Y14634D02*
X10941D01*
X9759Y12666D02*
Y14634D01*
X10941Y12666D02*
Y14634D01*
X9956Y13453D02*
X10350Y13847D01*
X9956Y13453D02*
X10744D01*
X10350Y13847D02*
X10744Y13453D01*
X9956Y13847D02*
X10744D01*
X10350Y13347D02*
Y13953D01*
X9900Y440D02*
Y1040D01*
X10200D01*
X10300Y940D01*
Y740D01*
X10200Y640D01*
X9900D01*
X10100D02*
X10300Y440D01*
X10500D02*
X10700D01*
X10600D01*
Y1040D01*
X10500Y940D01*
X11000D02*
X11100Y1040D01*
X11300D01*
X11400Y940D01*
Y540D01*
X11300Y440D01*
X11100D01*
X11000Y540D01*
Y940D01*
X8360Y2270D02*
X8260Y2370D01*
X8060D01*
X7960Y2270D01*
Y1870D01*
X8060Y1770D01*
X8260D01*
X8360Y1870D01*
X8560Y1770D02*
X8760D01*
X8660D01*
Y2370D01*
X8560Y2270D01*
X9360Y1770D02*
Y2370D01*
X9060Y2070D01*
X9460D01*
X27150Y14390D02*
X27550D01*
X27750Y14590D01*
X27550Y14790D01*
X27150D01*
Y15290D02*
Y15090D01*
X27250Y14990D01*
X27650D01*
X27750Y15090D01*
Y15290D01*
X27650Y15390D01*
X27250D01*
X27150Y15290D01*
Y15590D02*
X27650D01*
X27750Y15690D01*
Y15890D01*
X27650Y15989D01*
X27150D01*
Y16189D02*
Y16589D01*
Y16389D01*
X27750D01*
X27450Y16789D02*
Y17189D01*
X27250Y16989D02*
X27650D01*
X27150Y6850D02*
X27550D01*
X27750Y7050D01*
X27550Y7250D01*
X27150D01*
Y7750D02*
Y7550D01*
X27250Y7450D01*
X27650D01*
X27750Y7550D01*
Y7750D01*
X27650Y7850D01*
X27250D01*
X27150Y7750D01*
Y8050D02*
X27650D01*
X27750Y8150D01*
Y8350D01*
X27650Y8449D01*
X27150D01*
Y8649D02*
Y9049D01*
Y8849D01*
X27750D01*
X27450Y9249D02*
Y9649D01*
X1210Y9480D02*
X810D01*
X610Y9280D01*
X810Y9080D01*
X1210D01*
Y8880D02*
Y8680D01*
Y8780D01*
X610D01*
Y8880D01*
Y8680D01*
Y8380D02*
X1210D01*
X610Y7980D01*
X1210D01*
X910Y7781D02*
Y7381D01*
X1210Y16290D02*
X810D01*
X610Y16090D01*
X810Y15890D01*
X1210D01*
Y15690D02*
Y15490D01*
Y15590D01*
X610D01*
Y15690D01*
Y15490D01*
Y15190D02*
X1210D01*
X610Y14790D01*
X1210D01*
X910Y14591D02*
Y14191D01*
X1110Y14391D02*
X710D01*
X6684Y10110D02*
X6584Y10210D01*
X6384D01*
X6284Y10110D01*
Y9710D01*
X6384Y9610D01*
X6584D01*
X6684Y9710D01*
X6884Y9610D02*
X7084D01*
X6984D01*
Y10210D01*
X6884Y10110D01*
X7784Y10210D02*
X7584Y10110D01*
X7384Y9910D01*
Y9710D01*
X7484Y9610D01*
X7684D01*
X7784Y9710D01*
Y9810D01*
X7684Y9910D01*
X7384D01*
X12450Y5520D02*
X12350Y5620D01*
X12150D01*
X12050Y5520D01*
Y5120D01*
X12150Y5020D01*
X12350D01*
X12450Y5120D01*
X12650Y5020D02*
X12850D01*
X12750D01*
Y5620D01*
X12650Y5520D01*
X13550Y5620D02*
X13150D01*
Y5320D01*
X13350Y5420D01*
X13450D01*
X13550Y5320D01*
Y5120D01*
X13450Y5020D01*
X13250D01*
X13150Y5120D01*
X26220Y19880D02*
Y20479D01*
X26520D01*
X26620Y20379D01*
Y20180D01*
X26520Y20080D01*
X26220D01*
X26420D02*
X26620Y19880D01*
X26820D02*
X27020D01*
X26920D01*
Y20479D01*
X26820Y20379D01*
X27320Y19880D02*
X27520D01*
X27420D01*
Y20479D01*
X27320Y20379D01*
X24340Y20520D02*
Y19920D01*
X24640D01*
X24740Y20020D01*
Y20420D01*
X24640Y20520D01*
X24340D01*
X24940Y20420D02*
X25040Y20520D01*
X25240D01*
X25340Y20420D01*
Y20320D01*
X25240Y20220D01*
X25140D01*
X25240D01*
X25340Y20120D01*
Y20020D01*
X25240Y19920D01*
X25040D01*
X24940Y20020D01*
X21240Y22260D02*
Y21760D01*
X21340Y21660D01*
X21540D01*
X21640Y21760D01*
Y22260D01*
X21840Y21660D02*
X22040D01*
X21940D01*
Y22260D01*
X21840Y22160D01*
X9950Y11690D02*
Y12290D01*
X10250D01*
X10350Y12190D01*
Y11990D01*
X10250Y11890D01*
X9950D01*
X10150D02*
X10350Y11690D01*
X10550Y12190D02*
X10650Y12290D01*
X10850D01*
X10950Y12190D01*
Y12090D01*
X10850Y11990D01*
X10950Y11890D01*
Y11790D01*
X10850Y11690D01*
X10650D01*
X10550Y11790D01*
Y11890D01*
X10650Y11990D01*
X10550Y12090D01*
Y12190D01*
X10650Y11990D02*
X10850D01*
X14150Y8790D02*
Y9390D01*
X14450D01*
X14550Y9290D01*
Y9090D01*
X14450Y8990D01*
X14150D01*
X14350D02*
X14550Y8790D01*
X15150Y9390D02*
X14750D01*
Y9090D01*
X14950Y9190D01*
X15050D01*
X15150Y9090D01*
Y8890D01*
X15050Y8790D01*
X14850D01*
X14750Y8890D01*
X19560Y8400D02*
Y9000D01*
X19860D01*
X19960Y8900D01*
Y8700D01*
X19860Y8600D01*
X19560D01*
X19760D02*
X19960Y8400D01*
X20160Y8500D02*
X20260Y8400D01*
X20460D01*
X20560Y8500D01*
Y8900D01*
X20460Y9000D01*
X20260D01*
X20160Y8900D01*
Y8800D01*
X20260Y8700D01*
X20560D01*
X14140Y6210D02*
Y6810D01*
X14440D01*
X14540Y6710D01*
Y6510D01*
X14440Y6410D01*
X14140D01*
X14340D02*
X14540Y6210D01*
X15140Y6810D02*
X14940Y6710D01*
X14740Y6510D01*
Y6310D01*
X14840Y6210D01*
X15040D01*
X15140Y6310D01*
Y6410D01*
X15040Y6510D01*
X14740D01*
X13750Y3140D02*
Y3740D01*
X14050D01*
X14150Y3640D01*
Y3440D01*
X14050Y3340D01*
X13750D01*
X13950D02*
X14150Y3140D01*
X14650D02*
Y3740D01*
X14350Y3440D01*
X14750D01*
X15560Y3100D02*
Y3700D01*
X15860D01*
X15960Y3600D01*
Y3400D01*
X15860Y3300D01*
X15560D01*
X15760D02*
X15960Y3100D01*
X16160Y3700D02*
X16560D01*
Y3600D01*
X16160Y3200D01*
Y3100D01*
X9065Y18695D02*
Y19295D01*
X9365D01*
X9464Y19195D01*
Y18995D01*
X9365Y18895D01*
X9065D01*
X9265D02*
X9464Y18695D01*
X9664Y19195D02*
X9764Y19295D01*
X9964D01*
X10064Y19195D01*
Y19095D01*
X9964Y18995D01*
X9864D01*
X9964D01*
X10064Y18895D01*
Y18795D01*
X9964Y18695D01*
X9764D01*
X9664Y18795D01*
X13365Y18695D02*
Y19295D01*
X13665D01*
X13765Y19195D01*
Y18995D01*
X13665Y18895D01*
X13365D01*
X13565D02*
X13765Y18695D01*
X14365D02*
X13965D01*
X14365Y19095D01*
Y19195D01*
X14265Y19295D01*
X14065D01*
X13965Y19195D01*
X11215Y18695D02*
Y19295D01*
X11515D01*
X11615Y19195D01*
Y18995D01*
X11515Y18895D01*
X11215D01*
X11415D02*
X11615Y18695D01*
X11815D02*
X12015D01*
X11915D01*
Y19295D01*
X11815Y19195D01*
X17150Y9740D02*
X17050Y9840D01*
X16850D01*
X16750Y9740D01*
Y9340D01*
X16850Y9240D01*
X17050D01*
X17150Y9340D01*
X17350Y9240D02*
X17550D01*
X17450D01*
Y9840D01*
X17350Y9740D01*
X17850Y9240D02*
X18050D01*
X17950D01*
Y9840D01*
X17850Y9740D01*
X17200Y6740D02*
X17100Y6840D01*
X16900D01*
X16800Y6740D01*
Y6340D01*
X16900Y6240D01*
X17100D01*
X17200Y6340D01*
X17400Y6240D02*
X17600D01*
X17500D01*
Y6840D01*
X17400Y6740D01*
X17900D02*
X18000Y6840D01*
X18200D01*
X18300Y6740D01*
Y6340D01*
X18200Y6240D01*
X18000D01*
X17900Y6340D01*
Y6740D01*
X12400Y3640D02*
X12300Y3740D01*
X12100D01*
X12000Y3640D01*
Y3240D01*
X12100Y3140D01*
X12300D01*
X12400Y3240D01*
X12600D02*
X12700Y3140D01*
X12900D01*
X13000Y3240D01*
Y3640D01*
X12900Y3740D01*
X12700D01*
X12600Y3640D01*
Y3540D01*
X12700Y3440D01*
X13000D01*
X5900Y7890D02*
X5800Y7990D01*
X5600D01*
X5500Y7890D01*
Y7490D01*
X5600Y7390D01*
X5800D01*
X5900Y7490D01*
X6100Y7890D02*
X6200Y7990D01*
X6400D01*
X6500Y7890D01*
Y7790D01*
X6400Y7690D01*
X6500Y7590D01*
Y7490D01*
X6400Y7390D01*
X6200D01*
X6100Y7490D01*
Y7590D01*
X6200Y7690D01*
X6100Y7790D01*
Y7890D01*
X6200Y7690D02*
X6400D01*
X19600Y17991D02*
X19500Y18091D01*
X19300D01*
X19200Y17991D01*
Y17591D01*
X19300Y17491D01*
X19500D01*
X19600Y17591D01*
X20200Y18091D02*
X20000Y17991D01*
X19800Y17791D01*
Y17591D01*
X19900Y17491D01*
X20100D01*
X20200Y17591D01*
Y17691D01*
X20100Y17791D01*
X19800D01*
X21250Y17990D02*
X21150Y18090D01*
X20950D01*
X20850Y17990D01*
Y17590D01*
X20950Y17490D01*
X21150D01*
X21250Y17590D01*
X21850Y18090D02*
X21450D01*
Y17790D01*
X21650Y17890D01*
X21750D01*
X21850Y17790D01*
Y17590D01*
X21750Y17490D01*
X21550D01*
X21450Y17590D01*
X25550Y17990D02*
X25450Y18090D01*
X25250D01*
X25150Y17990D01*
Y17590D01*
X25250Y17490D01*
X25450D01*
X25550Y17590D01*
X26050Y17490D02*
Y18090D01*
X25750Y17790D01*
X26150D01*
X23950Y17990D02*
X23850Y18090D01*
X23650D01*
X23550Y17990D01*
Y17590D01*
X23650Y17490D01*
X23850D01*
X23950Y17590D01*
X24150Y17990D02*
X24250Y18090D01*
X24450D01*
X24550Y17990D01*
Y17890D01*
X24450Y17790D01*
X24350D01*
X24450D01*
X24550Y17690D01*
Y17590D01*
X24450Y17490D01*
X24250D01*
X24150Y17590D01*
X11615Y21545D02*
X11515Y21645D01*
X11315D01*
X11215Y21545D01*
Y21145D01*
X11315Y21045D01*
X11515D01*
X11615Y21145D01*
X11815Y21045D02*
X12015D01*
X11915D01*
Y21645D01*
X11815Y21545D01*
X8160Y9240D02*
Y8740D01*
X8260Y8640D01*
X8460D01*
X8560Y8740D01*
Y9240D01*
X8760Y9140D02*
X8860Y9240D01*
X9060D01*
X9160Y9140D01*
Y9040D01*
X9060Y8940D01*
X8960D01*
X9060D01*
X9160Y8840D01*
Y8740D01*
X9060Y8640D01*
X8860D01*
X8760Y8740D01*
X5050Y4390D02*
X4950Y4490D01*
X4750D01*
X4650Y4390D01*
Y3990D01*
X4750Y3890D01*
X4950D01*
X5050Y3990D01*
X5250Y3890D02*
X5450D01*
X5350D01*
Y4490D01*
X5250Y4390D01*
X5750D02*
X5850Y4490D01*
X6050D01*
X6150Y4390D01*
Y4290D01*
X6050Y4190D01*
X5950D01*
X6050D01*
X6150Y4090D01*
Y3990D01*
X6050Y3890D01*
X5850D01*
X5750Y3990D01*
X3000Y4390D02*
X2900Y4490D01*
X2700D01*
X2600Y4390D01*
Y3990D01*
X2700Y3890D01*
X2900D01*
X3000Y3990D01*
X3200Y3890D02*
X3400D01*
X3300D01*
Y4490D01*
X3200Y4390D01*
X4100Y3890D02*
X3700D01*
X4100Y4290D01*
Y4390D01*
X4000Y4490D01*
X3800D01*
X3700Y4390D01*
X2140Y20750D02*
Y20250D01*
X2240Y20150D01*
X2440D01*
X2540Y20250D01*
Y20750D01*
X3140Y20150D02*
X2740D01*
X3140Y20550D01*
Y20650D01*
X3040Y20750D01*
X2840D01*
X2740Y20650D01*
X2310Y8460D02*
Y8360D01*
X2510Y8160D01*
X2709Y8360D01*
Y8460D01*
X2510Y8160D02*
Y7860D01*
X2909D02*
X3109D01*
X3009D01*
Y8460D01*
X2909Y8360D01*
X19690Y6120D02*
Y5620D01*
X19790Y5520D01*
X19990D01*
X20090Y5620D01*
Y6120D01*
X20690D02*
X20290D01*
Y5820D01*
X20490Y5920D01*
X20590D01*
X20690Y5820D01*
Y5620D01*
X20590Y5520D01*
X20390D01*
X20290Y5620D01*
X26210Y6440D02*
Y5940D01*
X26310Y5840D01*
X26510D01*
X26610Y5940D01*
Y6440D01*
X27110Y5840D02*
Y6440D01*
X26810Y6140D01*
X27210D01*
X5950Y520D02*
Y1120D01*
X6250D01*
X6350Y1020D01*
Y820D01*
X6250Y720D01*
X5950D01*
X6150D02*
X6350Y520D01*
X6950Y1020D02*
X6850Y1120D01*
X6650D01*
X6550Y1020D01*
Y920D01*
X6650Y820D01*
X6850D01*
X6950Y720D01*
Y620D01*
X6850Y520D01*
X6650D01*
X6550Y620D01*
X7150Y1120D02*
X7550D01*
X7350D01*
Y520D01*
X7750D02*
X7950D01*
X7850D01*
Y1120D01*
X7750Y1020D01*
X14200Y20260D02*
Y20860D01*
X14500D01*
X14600Y20760D01*
Y20560D01*
X14500Y20460D01*
X14200D01*
X15200Y20260D02*
X14800D01*
X15200Y20660D01*
Y20760D01*
X15100Y20860D01*
X14900D01*
X14800Y20760D01*
X25330Y14181D02*
Y14781D01*
X25630D01*
X25730Y14681D01*
Y14481D01*
X25630Y14381D01*
X25330D01*
X25930Y14681D02*
X26030Y14781D01*
X26230D01*
X26330Y14681D01*
Y14581D01*
X26230Y14481D01*
X26130D01*
X26230D01*
X26330Y14381D01*
Y14281D01*
X26230Y14181D01*
X26030D01*
X25930Y14281D01*
X2420Y14090D02*
Y14690D01*
X2720D01*
X2820Y14590D01*
Y14390D01*
X2720Y14290D01*
X2420D01*
X3020Y14090D02*
X3220D01*
X3120D01*
Y14690D01*
X3020Y14590D01*
X12924Y16586D02*
Y15986D01*
X13324D01*
X13524D02*
X13724D01*
X13624D01*
Y16586D01*
X13524Y16486D01*
X23450Y9691D02*
Y9091D01*
X23750D01*
X23850Y9191D01*
Y9591D01*
X23750Y9691D01*
X23450D01*
X24450Y9091D02*
X24050D01*
X24450Y9491D01*
Y9591D01*
X24350Y9691D01*
X24150D01*
X24050Y9591D01*
X9810Y15964D02*
Y15364D01*
X10110D01*
X10210Y15464D01*
Y15864D01*
X10110Y15964D01*
X9810D01*
X10410Y15364D02*
X10610D01*
X10510D01*
Y15964D01*
X10410Y15864D01*
X19360Y15418D02*
X19260Y15518D01*
X19060D01*
X18960Y15418D01*
Y15018D01*
X19060Y14918D01*
X19260D01*
X19360Y15018D01*
X19560Y15518D02*
X19960D01*
Y15418D01*
X19560Y15018D01*
Y14918D01*
X5450Y15403D02*
X5350Y15502D01*
X5150D01*
X5050Y15403D01*
Y15003D01*
X5150Y14903D01*
X5350D01*
X5450Y15003D01*
X6050Y14903D02*
X5650D01*
X6050Y15303D01*
Y15403D01*
X5950Y15502D01*
X5750D01*
X5650Y15403D01*
X0Y22441D02*
X28346D01*
X0Y0D02*
Y22441D01*
X28346D02*
X28346Y0D01*
X0D02*
X28346D01*
X5000Y10050D02*
X8750D01*
Y14550D01*
X5000Y10050D02*
Y14550D01*
X8750D01*
X19150Y14450D02*
X22900D01*
X19150Y11075D02*
Y13325D01*
X22900Y9950D02*
Y14450D01*
X19150Y9950D02*
X22900D01*
X19150Y13325D02*
Y14450D01*
Y9950D02*
Y11075D01*
X-1575Y22441D02*
X-1375Y21841D01*
X-1775D02*
X-1575Y22441D01*
X-1775Y600D02*
X-1575Y0D01*
X-1375Y600D01*
X-1575Y12570D02*
Y22441D01*
Y0D02*
Y9551D01*
X-1675Y22441D02*
X-150D01*
X-1675Y0D02*
X-150D01*
X0Y-1850D02*
X600Y-1650D01*
X0Y-1850D02*
X600Y-2050D01*
X27746D02*
X28346Y-1850D01*
X27746Y-1650D02*
X28346Y-1850D01*
X0D02*
X12504D01*
X15523D02*
X28346D01*
X0Y-1950D02*
Y-150D01*
X28346Y-1950D02*
Y-150D01*
D18*
X6388Y3550D02*
X7372D01*
Y1975D02*
Y3550D01*
X6388Y1975D02*
X7372D01*
X6388D02*
Y3550D01*
X3941Y5314D02*
Y7361D01*
X2603Y5314D02*
Y7361D01*
D19*
X9173Y7424D02*
G03*
X9173Y7424I-197J0D01*
G01*
X22306Y3451D02*
G03*
X22306Y3451I-197J0D01*
G01*
X3804Y17815D02*
X7996D01*
X3804Y21615D02*
X7996D01*
X3804Y17815D02*
Y21615D01*
X7996Y17815D02*
Y21615D01*
X21759Y18972D02*
Y20428D01*
X19121Y18972D02*
Y20428D01*
X21759D01*
X19121Y18972D02*
X21759D01*
X8622Y5022D02*
Y7778D01*
X11378Y5022D02*
Y7778D01*
X8622D02*
X11378D01*
X8622Y5022D02*
X11378D01*
X20337Y5203D02*
X22463D01*
X20337Y3097D02*
X22463D01*
X20337D02*
Y5203D01*
X22463Y3097D02*
Y5203D01*
X10862Y12800D02*
Y14500D01*
X9838Y12800D02*
Y14500D01*
Y12800D02*
X10862D01*
X9838Y14500D02*
X10862D01*
X9803Y6400D02*
X10197D01*
X10000Y6203D02*
Y6597D01*
D20*
X-1815Y10111D02*
Y9711D01*
X-1515D01*
X-1615Y9911D01*
Y10011D01*
X-1515Y10111D01*
X-1315D01*
X-1215Y10011D01*
Y9811D01*
X-1315Y9711D01*
X-1815Y10311D02*
Y10711D01*
X-1715D01*
X-1315Y10311D01*
X-1215D01*
Y10911D02*
X-1315D01*
Y11010D01*
X-1215D01*
Y10911D01*
X-1715Y11410D02*
X-1815Y11510D01*
Y11710D01*
X-1715Y11810D01*
X-1315D01*
X-1215Y11710D01*
Y11510D01*
X-1315Y11410D01*
X-1715D01*
Y12010D02*
X-1815Y12110D01*
Y12310D01*
X-1715Y12410D01*
X-1315D01*
X-1215Y12310D01*
Y12110D01*
X-1315Y12010D01*
X-1715D01*
X12664Y-1610D02*
X13064D01*
Y-1710D01*
X12664Y-2110D01*
Y-2210D01*
X13663D02*
X13263D01*
X13663Y-1810D01*
Y-1710D01*
X13563Y-1610D01*
X13363D01*
X13263Y-1710D01*
X13863Y-2210D02*
Y-2110D01*
X13963D01*
Y-2210D01*
X13863D01*
X14363Y-1710D02*
X14463Y-1610D01*
X14663D01*
X14763Y-1710D01*
Y-2110D01*
X14663Y-2210D01*
X14463D01*
X14363Y-2110D01*
Y-1710D01*
X14963D02*
X15063Y-1610D01*
X15263D01*
X15363Y-1710D01*
Y-2110D01*
X15263Y-2210D01*
X15063D01*
X14963Y-2110D01*
Y-1710D01*
D21*
X8071Y4471D02*
Y8329D01*
X11929Y4471D02*
Y8329D01*
X8071D02*
X11929D01*
X8071Y4471D02*
X11929D01*
D22*
X10350Y11918D02*
Y12311D01*
X10153Y12115D02*
X10547D01*
X10153Y15028D02*
X10547D01*
M02*
