M48
;Layer_Color=9474304
;FILE_FORMAT=2:4
INCH,LZ
;TYPE=PLATED
T1F00S00C0.0118
T2F00S00C0.0197
T3F00S00C0.0354
T4F00S00C0.0472
T5F00S00C0.1142
%
T01
X02685Y00783
X0182Y00735
X01711Y0072
X015209Y007399
X0142Y0068
X0127Y0065
X01353Y005499
X01586Y00563
X0182Y00565
X01865Y00455
X01514Y00221
X010545Y001155
X00944Y00079
X00749
X008Y00502
X01084Y00551
X00509Y00086
X00298Y00089
X00294Y00824
X00288Y00932
X0026Y01448
X00441Y019407
X004837
X005263
Y019833
X004837
Y02026
X005263
Y020687
X004837
Y021113
X005263
Y02154
X004837
Y021967
X005263
X00441
Y02154
Y021113
Y020687
Y02026
Y019833
X00569
Y019407
X006117
X006543
X00697
X007397
Y019833
X00697
X006543
X006117
Y02026
X00569
Y020687
X006117
X006543
Y02026
X00697
X007397
Y020687
X00697
Y021113
X007397
Y02154
X00697
X006543
Y021113
X006117
X00569
Y02154
X006117
Y021967
X006543
X00697
X007397
X00569
X00908Y02139
X01041
X012Y021385
X01549Y01994
X015971Y020391
X01695Y01994
X01783Y01991
X01796Y0128
X01646Y01269
X01313Y01435
X01204Y01502
X01164Y01643
X011654Y010565
X012Y01053
X01229Y01025
X01135Y01065
X02684Y0086
X02704Y01422
Y01578
X02712Y01874
Y01991
X02581Y0208
X02419Y02056
Y01968
Y01829
Y02145
T02
X02404Y0015
X02468Y00489
X02186Y00576
X02189Y008247
X02003Y00303
X02004Y00177
X01086Y00389
X0102Y00331
X0074Y00563
Y00776
X00494Y00553
X02356Y01092
X02354Y01372
X02681Y01679
T03
X02645Y002121
Y003121
Y0042
X02745
Y0052
X02645
X02745Y0032
Y002121
X018971Y0215
X017971
X016971
X015971
X01505
X01405
T04
X00155Y010882
Y01285
X02685
Y010882
T05
X027559Y000787
X000787
Y021654
X027559
M30
