G04*
G04 #@! TF.GenerationSoftware,Altium Limited,Altium Designer,20.0.13 (296)*
G04*
G04 Layer_Color=16711935*
%FSLAX24Y24*%
%MOIN*%
G70*
G01*
G75*
%ADD17C,0.0100*%
%ADD19C,0.0039*%
%ADD20C,0.0060*%
%ADD21C,0.0020*%
%ADD22C,0.0080*%
D17*
X0Y22441D02*
X28346D01*
X0Y0D02*
Y22441D01*
X28346D02*
X28346Y0D01*
X0D02*
X28346D01*
X5000Y10050D02*
X8750D01*
Y14550D01*
X5000Y10050D02*
Y14550D01*
X8750D01*
X19150Y14450D02*
X22900D01*
X19150Y11075D02*
Y13325D01*
X22900Y9950D02*
Y14450D01*
X19150Y9950D02*
X22900D01*
X19150Y13325D02*
Y14450D01*
Y9950D02*
Y11075D01*
X-1575Y22441D02*
X-1375Y21841D01*
X-1775D02*
X-1575Y22441D01*
X-1775Y600D02*
X-1575Y0D01*
X-1375Y600D01*
X-1575Y12570D02*
Y22441D01*
Y0D02*
Y9551D01*
X-1675Y22441D02*
X-150D01*
X-1675Y0D02*
X-150D01*
X0Y-1850D02*
X600Y-1650D01*
X0Y-1850D02*
X600Y-2050D01*
X27746D02*
X28346Y-1850D01*
X27746Y-1650D02*
X28346Y-1850D01*
X0D02*
X12504D01*
X15523D02*
X28346D01*
X0Y-1950D02*
Y-150D01*
X28346Y-1950D02*
Y-150D01*
X0Y22441D02*
X28346D01*
X0Y0D02*
Y22441D01*
X28346D02*
X28346Y0D01*
X0D02*
X28346D01*
X5000Y10050D02*
X8750D01*
Y14550D01*
X5000Y10050D02*
Y14550D01*
X8750D01*
X19150Y14450D02*
X22900D01*
X19150Y11075D02*
Y13325D01*
X22900Y9950D02*
Y14450D01*
X19150Y9950D02*
X22900D01*
X19150Y13325D02*
Y14450D01*
Y9950D02*
Y11075D01*
X-1575Y22441D02*
X-1375Y21841D01*
X-1775D02*
X-1575Y22441D01*
X-1775Y600D02*
X-1575Y0D01*
X-1375Y600D01*
X-1575Y12570D02*
Y22441D01*
Y0D02*
Y9551D01*
X-1675Y22441D02*
X-150D01*
X-1675Y0D02*
X-150D01*
X0Y-1850D02*
X600Y-1650D01*
X0Y-1850D02*
X600Y-2050D01*
X27746D02*
X28346Y-1850D01*
X27746Y-1650D02*
X28346Y-1850D01*
X0D02*
X12504D01*
X15523D02*
X28346D01*
X0Y-1950D02*
Y-150D01*
X28346Y-1950D02*
Y-150D01*
D19*
X9173Y7424D02*
G03*
X9173Y7424I-197J0D01*
G01*
X22306Y3451D02*
G03*
X22306Y3451I-197J0D01*
G01*
X3804Y17815D02*
X7996D01*
X3804Y21615D02*
X7996D01*
X3804Y17815D02*
Y21615D01*
X7996Y17815D02*
Y21615D01*
X21759Y18972D02*
Y20428D01*
X19121Y18972D02*
Y20428D01*
X21759D01*
X19121Y18972D02*
X21759D01*
X8622Y5022D02*
Y7778D01*
X11378Y5022D02*
Y7778D01*
X8622D02*
X11378D01*
X8622Y5022D02*
X11378D01*
X20337Y5203D02*
X22463D01*
X20337Y3097D02*
X22463D01*
X20337D02*
Y5203D01*
X22463Y3097D02*
Y5203D01*
X10862Y12800D02*
Y14500D01*
X9838Y12800D02*
Y14500D01*
Y12800D02*
X10862D01*
X9838Y14500D02*
X10862D01*
X9173Y7424D02*
G03*
X9173Y7424I-197J0D01*
G01*
X22306Y3451D02*
G03*
X22306Y3451I-197J0D01*
G01*
X3804Y17815D02*
X7996D01*
X3804Y21615D02*
X7996D01*
X3804Y17815D02*
Y21615D01*
X7996Y17815D02*
Y21615D01*
X21759Y18972D02*
Y20428D01*
X19121Y18972D02*
Y20428D01*
X21759D01*
X19121Y18972D02*
X21759D01*
X8622Y5022D02*
Y7778D01*
X11378Y5022D02*
Y7778D01*
X8622D02*
X11378D01*
X8622Y5022D02*
X11378D01*
X20337Y5203D02*
X22463D01*
X20337Y3097D02*
X22463D01*
X20337D02*
Y5203D01*
X22463Y3097D02*
Y5203D01*
X10862Y12800D02*
Y14500D01*
X9838Y12800D02*
Y14500D01*
Y12800D02*
X10862D01*
X9838Y14500D02*
X10862D01*
X9803Y6400D02*
X10197D01*
X10000Y6203D02*
Y6597D01*
D20*
X-1815Y10111D02*
Y9711D01*
X-1515D01*
X-1615Y9911D01*
Y10011D01*
X-1515Y10111D01*
X-1315D01*
X-1215Y10011D01*
Y9811D01*
X-1315Y9711D01*
X-1815Y10311D02*
Y10711D01*
X-1715D01*
X-1315Y10311D01*
X-1215D01*
Y10911D02*
X-1315D01*
Y11010D01*
X-1215D01*
Y10911D01*
X-1715Y11410D02*
X-1815Y11510D01*
Y11710D01*
X-1715Y11810D01*
X-1315D01*
X-1215Y11710D01*
Y11510D01*
X-1315Y11410D01*
X-1715D01*
Y12010D02*
X-1815Y12110D01*
Y12310D01*
X-1715Y12410D01*
X-1315D01*
X-1215Y12310D01*
Y12110D01*
X-1315Y12010D01*
X-1715D01*
X12664Y-1610D02*
X13064D01*
Y-1710D01*
X12664Y-2110D01*
Y-2210D01*
X13663D02*
X13263D01*
X13663Y-1810D01*
Y-1710D01*
X13563Y-1610D01*
X13363D01*
X13263Y-1710D01*
X13863Y-2210D02*
Y-2110D01*
X13963D01*
Y-2210D01*
X13863D01*
X14363Y-1710D02*
X14463Y-1610D01*
X14663D01*
X14763Y-1710D01*
Y-2110D01*
X14663Y-2210D01*
X14463D01*
X14363Y-2110D01*
Y-1710D01*
X14963D02*
X15063Y-1610D01*
X15263D01*
X15363Y-1710D01*
Y-2110D01*
X15263Y-2210D01*
X15063D01*
X14963Y-2110D01*
Y-1710D01*
X-1815Y10111D02*
Y9711D01*
X-1515D01*
X-1615Y9911D01*
Y10011D01*
X-1515Y10111D01*
X-1315D01*
X-1215Y10011D01*
Y9811D01*
X-1315Y9711D01*
X-1815Y10311D02*
Y10711D01*
X-1715D01*
X-1315Y10311D01*
X-1215D01*
Y10911D02*
X-1315D01*
Y11010D01*
X-1215D01*
Y10911D01*
X-1715Y11410D02*
X-1815Y11510D01*
Y11710D01*
X-1715Y11810D01*
X-1315D01*
X-1215Y11710D01*
Y11510D01*
X-1315Y11410D01*
X-1715D01*
Y12010D02*
X-1815Y12110D01*
Y12310D01*
X-1715Y12410D01*
X-1315D01*
X-1215Y12310D01*
Y12110D01*
X-1315Y12010D01*
X-1715D01*
X12664Y-1610D02*
X13064D01*
Y-1710D01*
X12664Y-2110D01*
Y-2210D01*
X13663D02*
X13263D01*
X13663Y-1810D01*
Y-1710D01*
X13563Y-1610D01*
X13363D01*
X13263Y-1710D01*
X13863Y-2210D02*
Y-2110D01*
X13963D01*
Y-2210D01*
X13863D01*
X14363Y-1710D02*
X14463Y-1610D01*
X14663D01*
X14763Y-1710D01*
Y-2110D01*
X14663Y-2210D01*
X14463D01*
X14363Y-2110D01*
Y-1710D01*
X14963D02*
X15063Y-1610D01*
X15263D01*
X15363Y-1710D01*
Y-2110D01*
X15263Y-2210D01*
X15063D01*
X14963Y-2110D01*
Y-1710D01*
D21*
X8071Y4471D02*
Y8329D01*
X11929Y4471D02*
Y8329D01*
X8071D02*
X11929D01*
X8071Y4471D02*
X11929D01*
D22*
X10350Y11918D02*
Y12311D01*
X10153Y12115D02*
X10547D01*
X10153Y15028D02*
X10547D01*
M02*
