G04*
G04 #@! TF.GenerationSoftware,Altium Limited,Altium Designer,20.0.13 (296)*
G04*
G04 Layer_Color=8388736*
%FSLAX24Y24*%
%MOIN*%
G70*
G01*
G75*
%ADD17C,0.0100*%
%ADD19C,0.0039*%
%ADD20C,0.0060*%
%ADD21C,0.0020*%
%ADD22C,0.0080*%
%ADD38R,0.0659X0.0537*%
%ADD39R,0.0493X0.1576*%
%ADD40R,0.4273X0.3387*%
%ADD41R,0.1458X0.0946*%
%ADD42R,0.0474X0.0946*%
%ADD43R,0.0828X0.0663*%
%ADD44R,0.0537X0.0659*%
%ADD45R,0.1025X0.0867*%
%ADD46O,0.0690X0.0178*%
%ADD47O,0.0178X0.0690*%
%ADD48R,0.0552X0.1182*%
%ADD49R,0.0552X0.1261*%
%ADD50O,0.0946X0.0316*%
%ADD51R,0.2285X0.1300*%
%ADD52R,0.0867X0.0867*%
%ADD53C,0.0671*%
%ADD54C,0.0749*%
%ADD55C,0.1458*%
%ADD56C,0.0277*%
D17*
X0Y22441D02*
X28346D01*
X0Y0D02*
Y22441D01*
X28346D02*
X28346Y0D01*
X0D02*
X28346D01*
X5000Y10050D02*
X8750D01*
Y14550D01*
X5000Y10050D02*
Y14550D01*
X8750D01*
X19150Y14450D02*
X22900D01*
X19150Y11075D02*
Y13325D01*
X22900Y9950D02*
Y14450D01*
X19150Y9950D02*
X22900D01*
X19150Y13325D02*
Y14450D01*
Y9950D02*
Y11075D01*
X-1575Y22441D02*
X-1375Y21841D01*
X-1775D02*
X-1575Y22441D01*
X-1775Y600D02*
X-1575Y0D01*
X-1375Y600D01*
X-1575Y12570D02*
Y22441D01*
Y0D02*
Y9551D01*
X-1675Y22441D02*
X-150D01*
X-1675Y0D02*
X-150D01*
X0Y-1850D02*
X600Y-1650D01*
X0Y-1850D02*
X600Y-2050D01*
X27746D02*
X28346Y-1850D01*
X27746Y-1650D02*
X28346Y-1850D01*
X0D02*
X12504D01*
X15523D02*
X28346D01*
X0Y-1950D02*
Y-150D01*
X28346Y-1950D02*
Y-150D01*
D19*
X9173Y7424D02*
G03*
X9173Y7424I-197J0D01*
G01*
X22306Y3451D02*
G03*
X22306Y3451I-197J0D01*
G01*
X3804Y17815D02*
X7996D01*
X3804Y21615D02*
X7996D01*
X3804Y17815D02*
Y21615D01*
X7996Y17815D02*
Y21615D01*
X21759Y18972D02*
Y20428D01*
X19121Y18972D02*
Y20428D01*
X21759D01*
X19121Y18972D02*
X21759D01*
X8622Y5022D02*
Y7778D01*
X11378Y5022D02*
Y7778D01*
X8622D02*
X11378D01*
X8622Y5022D02*
X11378D01*
X20337Y5203D02*
X22463D01*
X20337Y3097D02*
X22463D01*
X20337D02*
Y5203D01*
X22463Y3097D02*
Y5203D01*
X10862Y12800D02*
Y14500D01*
X9838Y12800D02*
Y14500D01*
Y12800D02*
X10862D01*
X9838Y14500D02*
X10862D01*
X9803Y6400D02*
X10197D01*
X10000Y6203D02*
Y6597D01*
D20*
X-1815Y10111D02*
Y9711D01*
X-1515D01*
X-1615Y9911D01*
Y10011D01*
X-1515Y10111D01*
X-1315D01*
X-1215Y10011D01*
Y9811D01*
X-1315Y9711D01*
X-1815Y10311D02*
Y10711D01*
X-1715D01*
X-1315Y10311D01*
X-1215D01*
Y10911D02*
X-1315D01*
Y11010D01*
X-1215D01*
Y10911D01*
X-1715Y11410D02*
X-1815Y11510D01*
Y11710D01*
X-1715Y11810D01*
X-1315D01*
X-1215Y11710D01*
Y11510D01*
X-1315Y11410D01*
X-1715D01*
Y12010D02*
X-1815Y12110D01*
Y12310D01*
X-1715Y12410D01*
X-1315D01*
X-1215Y12310D01*
Y12110D01*
X-1315Y12010D01*
X-1715D01*
X12664Y-1610D02*
X13064D01*
Y-1710D01*
X12664Y-2110D01*
Y-2210D01*
X13663D02*
X13263D01*
X13663Y-1810D01*
Y-1710D01*
X13563Y-1610D01*
X13363D01*
X13263Y-1710D01*
X13863Y-2210D02*
Y-2110D01*
X13963D01*
Y-2210D01*
X13863D01*
X14363Y-1710D02*
X14463Y-1610D01*
X14663D01*
X14763Y-1710D01*
Y-2110D01*
X14663Y-2210D01*
X14463D01*
X14363Y-2110D01*
Y-1710D01*
X14963D02*
X15063Y-1610D01*
X15263D01*
X15363Y-1710D01*
Y-2110D01*
X15263Y-2210D01*
X15063D01*
X14963Y-2110D01*
Y-1710D01*
D21*
X8071Y4471D02*
Y8329D01*
X11929Y4471D02*
Y8329D01*
X8071D02*
X11929D01*
X8071Y4471D02*
X11929D01*
D22*
X10350Y11918D02*
Y12311D01*
X10153Y12115D02*
X10547D01*
X10153Y15028D02*
X10547D01*
D38*
X10550Y2450D02*
D03*
Y1749D02*
D03*
X8410Y3029D02*
D03*
Y3730D02*
D03*
X25070Y18489D02*
D03*
Y19190D02*
D03*
X26570Y18489D02*
D03*
Y19190D02*
D03*
X10300Y11000D02*
D03*
Y10299D02*
D03*
X14500Y7399D02*
D03*
Y8100D02*
D03*
X25500Y16801D02*
D03*
Y16100D02*
D03*
X23900Y16801D02*
D03*
Y16100D02*
D03*
X21200Y16801D02*
D03*
Y16100D02*
D03*
X19550Y16801D02*
D03*
Y16100D02*
D03*
X14100Y2450D02*
D03*
Y1749D02*
D03*
X14490Y5520D02*
D03*
Y4819D02*
D03*
X5850Y6000D02*
D03*
Y6700D02*
D03*
X12350Y1749D02*
D03*
Y2450D02*
D03*
X17150Y5550D02*
D03*
Y4850D02*
D03*
X17100Y7850D02*
D03*
Y8550D02*
D03*
X5000Y3200D02*
D03*
Y2500D02*
D03*
X2950Y3200D02*
D03*
Y2500D02*
D03*
X23800Y8401D02*
D03*
Y7700D02*
D03*
D39*
X4561Y16595D02*
D03*
X5231D02*
D03*
X5900D02*
D03*
X6569D02*
D03*
X7239D02*
D03*
D40*
X5900Y20650D02*
D03*
D41*
X20440Y20881D02*
D03*
D42*
X21346Y18519D02*
D03*
X20440D02*
D03*
X19534D02*
D03*
D43*
X6880Y3550D02*
D03*
Y1896D02*
D03*
D44*
X7275Y8860D02*
D03*
X6574D02*
D03*
X13040Y4270D02*
D03*
X12339D02*
D03*
X12201Y20300D02*
D03*
X11500D02*
D03*
X14350Y17950D02*
D03*
X13650D02*
D03*
X12200D02*
D03*
X11500D02*
D03*
X10050D02*
D03*
X9349D02*
D03*
X15850Y2350D02*
D03*
X16551D02*
D03*
X19849Y7650D02*
D03*
X20550D02*
D03*
D45*
X3272Y5550D02*
D03*
Y7125D02*
D03*
D46*
X8415Y7483D02*
D03*
Y7286D02*
D03*
Y7089D02*
D03*
Y6892D02*
D03*
Y6695D02*
D03*
Y6498D02*
D03*
Y6302D02*
D03*
Y6105D02*
D03*
Y5908D02*
D03*
Y5711D02*
D03*
Y5514D02*
D03*
Y5317D02*
D03*
X11585D02*
D03*
Y5514D02*
D03*
Y5711D02*
D03*
Y5908D02*
D03*
Y6105D02*
D03*
Y6302D02*
D03*
Y6498D02*
D03*
Y6695D02*
D03*
Y6892D02*
D03*
Y7089D02*
D03*
Y7286D02*
D03*
Y7483D02*
D03*
D47*
X8917Y4815D02*
D03*
X9114D02*
D03*
X9311D02*
D03*
X9508D02*
D03*
X9705D02*
D03*
X9902D02*
D03*
X10098D02*
D03*
X10295D02*
D03*
X10492D02*
D03*
X10689D02*
D03*
X10886D02*
D03*
X11083D02*
D03*
Y7985D02*
D03*
X10886D02*
D03*
X10689D02*
D03*
X10492D02*
D03*
X10295D02*
D03*
X10098D02*
D03*
X9902D02*
D03*
X9705D02*
D03*
X9508D02*
D03*
X9311D02*
D03*
X9114D02*
D03*
X8917D02*
D03*
D48*
X6850Y10933D02*
D03*
Y13767D02*
D03*
D49*
X21000Y10518D02*
D03*
Y13982D02*
D03*
D50*
X20061Y4900D02*
D03*
Y4400D02*
D03*
Y3900D02*
D03*
Y3400D02*
D03*
X22739Y4900D02*
D03*
Y4400D02*
D03*
Y3900D02*
D03*
Y3400D02*
D03*
D51*
X15354Y11024D02*
D03*
Y15039D02*
D03*
D52*
X10350Y12744D02*
D03*
Y14397D02*
D03*
D53*
X14050Y21500D02*
D03*
X15050D02*
D03*
X15971D02*
D03*
X16971D02*
D03*
X17971D02*
D03*
X18971D02*
D03*
X27450Y4200D02*
D03*
X26450Y5200D02*
D03*
X27450D02*
D03*
X26450Y4200D02*
D03*
Y3121D02*
D03*
X27450Y3200D02*
D03*
X26450Y2121D02*
D03*
X27450D02*
D03*
D54*
X1550Y12850D02*
D03*
Y10882D02*
D03*
X26850Y12850D02*
D03*
Y10882D02*
D03*
D55*
X787Y21654D02*
D03*
X27559D02*
D03*
Y787D02*
D03*
X787D02*
D03*
D56*
X27120Y19910D02*
D03*
Y18740D02*
D03*
X5263Y19407D02*
D03*
X5690D02*
D03*
X6117D02*
D03*
X4837D02*
D03*
X6970D02*
D03*
X7397D02*
D03*
X6543D02*
D03*
X5263Y19833D02*
D03*
X5690D02*
D03*
X6117D02*
D03*
X4837D02*
D03*
X6970D02*
D03*
X7397D02*
D03*
X6543D02*
D03*
X5263Y20260D02*
D03*
X5690D02*
D03*
X6117D02*
D03*
X4837D02*
D03*
X6970D02*
D03*
X7397D02*
D03*
X6543D02*
D03*
X5263Y20687D02*
D03*
X5690D02*
D03*
X6117D02*
D03*
X4837D02*
D03*
X6970D02*
D03*
X7397D02*
D03*
X6543D02*
D03*
X5263Y21113D02*
D03*
X5690D02*
D03*
X6117D02*
D03*
X4837D02*
D03*
X6970D02*
D03*
X7397D02*
D03*
X6543D02*
D03*
X5263Y21540D02*
D03*
X5690D02*
D03*
X6117D02*
D03*
X4837D02*
D03*
X6970D02*
D03*
X7397D02*
D03*
X6543D02*
D03*
Y21967D02*
D03*
X7397D02*
D03*
X6970D02*
D03*
X4837D02*
D03*
X6117D02*
D03*
X5690D02*
D03*
X5263D02*
D03*
X4410Y20260D02*
D03*
Y19833D02*
D03*
Y19407D02*
D03*
Y20687D02*
D03*
Y21113D02*
D03*
Y21540D02*
D03*
Y21967D02*
D03*
M02*
