G04*
G04 #@! TF.GenerationSoftware,Altium Limited,Altium Designer,20.0.13 (296)*
G04*
G04 Layer_Physical_Order=2*
G04 Layer_Color=16711680*
%FSLAX24Y24*%
%MOIN*%
G70*
G01*
G75*
%ADD17C,0.0100*%
%ADD19C,0.0039*%
%ADD20C,0.0060*%
%ADD21C,0.0020*%
%ADD22C,0.0080*%
%ADD57C,0.0300*%
%ADD58C,0.0150*%
%ADD60C,0.0591*%
%ADD61C,0.0669*%
%ADD62C,0.1378*%
%ADD63C,0.0197*%
%ADD64C,0.0315*%
G36*
X28261Y22466D02*
X28316Y22466D01*
X28351Y22430D01*
X28351Y21768D01*
X28301Y21766D01*
X28297Y21800D01*
X28254Y21942D01*
X28185Y22072D01*
X28091Y22186D01*
X27977Y22279D01*
X27847Y22349D01*
X27706Y22392D01*
X27559Y22406D01*
X27412Y22392D01*
X27271Y22349D01*
X27141Y22279D01*
X27027Y22186D01*
X26933Y22072D01*
X26864Y21942D01*
X26821Y21800D01*
X26806Y21654D01*
X26821Y21507D01*
X26864Y21366D01*
X26933Y21235D01*
X27027Y21121D01*
X27141Y21028D01*
X27271Y20958D01*
X27412Y20915D01*
X27559Y20901D01*
X27706Y20915D01*
X27847Y20958D01*
X27977Y21028D01*
X28091Y21121D01*
X28185Y21235D01*
X28254Y21366D01*
X28297Y21507D01*
X28300Y21540D01*
X28350Y21538D01*
X28341Y961D01*
X28291Y954D01*
X28254Y1075D01*
X28185Y1206D01*
X28091Y1320D01*
X27977Y1413D01*
X27847Y1483D01*
X27706Y1526D01*
X27559Y1540D01*
X27412Y1526D01*
X27271Y1483D01*
X27141Y1413D01*
X27027Y1320D01*
X26933Y1206D01*
X26864Y1075D01*
X26821Y934D01*
X26806Y787D01*
X26821Y641D01*
X26864Y499D01*
X26933Y369D01*
X27027Y255D01*
X27141Y162D01*
X27271Y92D01*
X27412Y49D01*
X27448Y46D01*
X27445Y-4D01*
X901Y-4D01*
X899Y46D01*
X934Y49D01*
X1075Y92D01*
X1206Y162D01*
X1320Y255D01*
X1413Y369D01*
X1483Y499D01*
X1526Y641D01*
X1540Y787D01*
X1526Y934D01*
X1483Y1075D01*
X1413Y1206D01*
X1320Y1320D01*
X1206Y1413D01*
X1075Y1483D01*
X934Y1526D01*
X787Y1540D01*
X641Y1526D01*
X499Y1483D01*
X369Y1413D01*
X255Y1320D01*
X162Y1206D01*
X92Y1075D01*
X52Y942D01*
X2Y949D01*
X20Y21432D01*
X70Y21439D01*
X92Y21366D01*
X162Y21235D01*
X255Y21121D01*
X369Y21028D01*
X499Y20958D01*
X641Y20915D01*
X787Y20901D01*
X934Y20915D01*
X1075Y20958D01*
X1206Y21028D01*
X1320Y21121D01*
X1413Y21235D01*
X1483Y21366D01*
X1526Y21507D01*
X1540Y21654D01*
X1526Y21800D01*
X1483Y21942D01*
X1413Y22072D01*
X1320Y22186D01*
X1206Y22279D01*
X1075Y22349D01*
X934Y22392D01*
X787Y22406D01*
X641Y22392D01*
X499Y22349D01*
X369Y22279D01*
X255Y22186D01*
X162Y22072D01*
X92Y21942D01*
X70Y21869D01*
X20Y21877D01*
X21Y22466D01*
X28261Y22466D01*
D02*
G37*
%LPC*%
G36*
X7397Y22128D02*
X7335Y22116D01*
X7282Y22081D01*
X7247Y22028D01*
X7235Y21967D01*
X7247Y21905D01*
X7282Y21852D01*
X7335Y21817D01*
X7397Y21805D01*
X7458Y21817D01*
X7511Y21852D01*
X7546Y21905D01*
X7558Y21967D01*
X7546Y22028D01*
X7511Y22081D01*
X7458Y22116D01*
X7397Y22128D01*
D02*
G37*
G36*
X6970D02*
X6908Y22116D01*
X6856Y22081D01*
X6821Y22028D01*
X6808Y21967D01*
X6821Y21905D01*
X6856Y21852D01*
X6908Y21817D01*
X6970Y21805D01*
X7032Y21817D01*
X7084Y21852D01*
X7119Y21905D01*
X7132Y21967D01*
X7119Y22028D01*
X7084Y22081D01*
X7032Y22116D01*
X6970Y22128D01*
D02*
G37*
G36*
X6543D02*
X6482Y22116D01*
X6429Y22081D01*
X6394Y22028D01*
X6382Y21967D01*
X6394Y21905D01*
X6429Y21852D01*
X6482Y21817D01*
X6543Y21805D01*
X6605Y21817D01*
X6658Y21852D01*
X6693Y21905D01*
X6705Y21967D01*
X6693Y22028D01*
X6658Y22081D01*
X6605Y22116D01*
X6543Y22128D01*
D02*
G37*
G36*
X6117D02*
X6055Y22116D01*
X6002Y22081D01*
X5967Y22028D01*
X5955Y21967D01*
X5967Y21905D01*
X6002Y21852D01*
X6055Y21817D01*
X6117Y21805D01*
X6178Y21817D01*
X6231Y21852D01*
X6266Y21905D01*
X6278Y21967D01*
X6266Y22028D01*
X6231Y22081D01*
X6178Y22116D01*
X6117Y22128D01*
D02*
G37*
G36*
X5690D02*
X5628Y22116D01*
X5576Y22081D01*
X5541Y22028D01*
X5528Y21967D01*
X5541Y21905D01*
X5576Y21852D01*
X5628Y21817D01*
X5690Y21805D01*
X5752Y21817D01*
X5804Y21852D01*
X5839Y21905D01*
X5852Y21967D01*
X5839Y22028D01*
X5804Y22081D01*
X5752Y22116D01*
X5690Y22128D01*
D02*
G37*
G36*
X5263D02*
X5202Y22116D01*
X5149Y22081D01*
X5114Y22028D01*
X5102Y21967D01*
X5114Y21905D01*
X5149Y21852D01*
X5202Y21817D01*
X5263Y21805D01*
X5325Y21817D01*
X5378Y21852D01*
X5413Y21905D01*
X5425Y21967D01*
X5413Y22028D01*
X5378Y22081D01*
X5325Y22116D01*
X5263Y22128D01*
D02*
G37*
G36*
X4837D02*
X4775Y22116D01*
X4722Y22081D01*
X4687Y22028D01*
X4675Y21967D01*
X4687Y21905D01*
X4722Y21852D01*
X4775Y21817D01*
X4837Y21805D01*
X4898Y21817D01*
X4951Y21852D01*
X4986Y21905D01*
X4998Y21967D01*
X4986Y22028D01*
X4951Y22081D01*
X4898Y22116D01*
X4837Y22128D01*
D02*
G37*
G36*
X4410D02*
X4348Y22116D01*
X4296Y22081D01*
X4261Y22028D01*
X4248Y21967D01*
X4261Y21905D01*
X4296Y21852D01*
X4348Y21817D01*
X4410Y21805D01*
X4472Y21817D01*
X4524Y21852D01*
X4559Y21905D01*
X4572Y21967D01*
X4559Y22028D01*
X4524Y22081D01*
X4472Y22116D01*
X4410Y22128D01*
D02*
G37*
G36*
X7397Y21702D02*
X7335Y21689D01*
X7282Y21654D01*
X7247Y21602D01*
X7235Y21540D01*
X7247Y21478D01*
X7282Y21426D01*
X7335Y21391D01*
X7397Y21378D01*
X7458Y21391D01*
X7511Y21426D01*
X7546Y21478D01*
X7558Y21540D01*
X7546Y21602D01*
X7511Y21654D01*
X7458Y21689D01*
X7397Y21702D01*
D02*
G37*
G36*
X6970D02*
X6908Y21689D01*
X6856Y21654D01*
X6821Y21602D01*
X6808Y21540D01*
X6821Y21478D01*
X6856Y21426D01*
X6908Y21391D01*
X6970Y21378D01*
X7032Y21391D01*
X7084Y21426D01*
X7119Y21478D01*
X7132Y21540D01*
X7119Y21602D01*
X7084Y21654D01*
X7032Y21689D01*
X6970Y21702D01*
D02*
G37*
G36*
X6543D02*
X6482Y21689D01*
X6429Y21654D01*
X6394Y21602D01*
X6382Y21540D01*
X6394Y21478D01*
X6429Y21426D01*
X6482Y21391D01*
X6543Y21378D01*
X6605Y21391D01*
X6658Y21426D01*
X6693Y21478D01*
X6705Y21540D01*
X6693Y21602D01*
X6658Y21654D01*
X6605Y21689D01*
X6543Y21702D01*
D02*
G37*
G36*
X6117D02*
X6055Y21689D01*
X6002Y21654D01*
X5967Y21602D01*
X5955Y21540D01*
X5967Y21478D01*
X6002Y21426D01*
X6055Y21391D01*
X6117Y21378D01*
X6178Y21391D01*
X6231Y21426D01*
X6266Y21478D01*
X6278Y21540D01*
X6266Y21602D01*
X6231Y21654D01*
X6178Y21689D01*
X6117Y21702D01*
D02*
G37*
G36*
X5690D02*
X5628Y21689D01*
X5576Y21654D01*
X5541Y21602D01*
X5528Y21540D01*
X5541Y21478D01*
X5576Y21426D01*
X5628Y21391D01*
X5690Y21378D01*
X5752Y21391D01*
X5804Y21426D01*
X5839Y21478D01*
X5852Y21540D01*
X5839Y21602D01*
X5804Y21654D01*
X5752Y21689D01*
X5690Y21702D01*
D02*
G37*
G36*
X5263D02*
X5202Y21689D01*
X5149Y21654D01*
X5114Y21602D01*
X5102Y21540D01*
X5114Y21478D01*
X5149Y21426D01*
X5202Y21391D01*
X5263Y21378D01*
X5325Y21391D01*
X5378Y21426D01*
X5413Y21478D01*
X5425Y21540D01*
X5413Y21602D01*
X5378Y21654D01*
X5325Y21689D01*
X5263Y21702D01*
D02*
G37*
G36*
X4837D02*
X4775Y21689D01*
X4722Y21654D01*
X4687Y21602D01*
X4675Y21540D01*
X4687Y21478D01*
X4722Y21426D01*
X4775Y21391D01*
X4837Y21378D01*
X4898Y21391D01*
X4951Y21426D01*
X4986Y21478D01*
X4998Y21540D01*
X4986Y21602D01*
X4951Y21654D01*
X4898Y21689D01*
X4837Y21702D01*
D02*
G37*
G36*
X4410D02*
X4348Y21689D01*
X4296Y21654D01*
X4261Y21602D01*
X4248Y21540D01*
X4261Y21478D01*
X4296Y21426D01*
X4348Y21391D01*
X4410Y21378D01*
X4472Y21391D01*
X4524Y21426D01*
X4559Y21478D01*
X4572Y21540D01*
X4559Y21602D01*
X4524Y21654D01*
X4472Y21689D01*
X4410Y21702D01*
D02*
G37*
G36*
X18971Y21858D02*
X18878Y21846D01*
X18791Y21810D01*
X18717Y21753D01*
X18660Y21679D01*
X18625Y21593D01*
X18612Y21500D01*
X18625Y21407D01*
X18660Y21321D01*
X18717Y21247D01*
X18791Y21190D01*
X18878Y21154D01*
X18971Y21142D01*
X19063Y21154D01*
X19150Y21190D01*
X19224Y21247D01*
X19281Y21321D01*
X19317Y21407D01*
X19329Y21500D01*
X19317Y21593D01*
X19281Y21679D01*
X19224Y21753D01*
X19150Y21810D01*
X19063Y21846D01*
X18971Y21858D01*
D02*
G37*
G36*
X17971D02*
X17878Y21846D01*
X17791Y21810D01*
X17717Y21753D01*
X17660Y21679D01*
X17624Y21593D01*
X17612Y21500D01*
X17624Y21407D01*
X17660Y21321D01*
X17717Y21247D01*
X17791Y21190D01*
X17878Y21154D01*
X17971Y21142D01*
X18063Y21154D01*
X18150Y21190D01*
X18224Y21247D01*
X18281Y21321D01*
X18317Y21407D01*
X18329Y21500D01*
X18317Y21593D01*
X18281Y21679D01*
X18224Y21753D01*
X18150Y21810D01*
X18063Y21846D01*
X17971Y21858D01*
D02*
G37*
G36*
X16971D02*
X16878Y21846D01*
X16791Y21810D01*
X16717Y21753D01*
X16660Y21679D01*
X16624Y21593D01*
X16612Y21500D01*
X16624Y21407D01*
X16660Y21321D01*
X16717Y21247D01*
X16791Y21190D01*
X16878Y21154D01*
X16971Y21142D01*
X17063Y21154D01*
X17150Y21190D01*
X17224Y21247D01*
X17281Y21321D01*
X17317Y21407D01*
X17329Y21500D01*
X17317Y21593D01*
X17281Y21679D01*
X17224Y21753D01*
X17150Y21810D01*
X17063Y21846D01*
X16971Y21858D01*
D02*
G37*
G36*
X15971D02*
X15878Y21846D01*
X15791Y21810D01*
X15717Y21753D01*
X15660Y21679D01*
X15625Y21593D01*
X15612Y21500D01*
X15625Y21407D01*
X15660Y21321D01*
X15717Y21247D01*
X15791Y21190D01*
X15878Y21154D01*
X15971Y21142D01*
X16063Y21154D01*
X16150Y21190D01*
X16224Y21247D01*
X16281Y21321D01*
X16317Y21407D01*
X16329Y21500D01*
X16317Y21593D01*
X16281Y21679D01*
X16224Y21753D01*
X16150Y21810D01*
X16063Y21846D01*
X15971Y21858D01*
D02*
G37*
G36*
X15050D02*
X14957Y21846D01*
X14871Y21810D01*
X14797Y21753D01*
X14740Y21679D01*
X14704Y21593D01*
X14692Y21500D01*
X14704Y21407D01*
X14740Y21321D01*
X14797Y21247D01*
X14871Y21190D01*
X14957Y21154D01*
X15050Y21142D01*
X15143Y21154D01*
X15229Y21190D01*
X15303Y21247D01*
X15360Y21321D01*
X15396Y21407D01*
X15408Y21500D01*
X15396Y21593D01*
X15360Y21679D01*
X15303Y21753D01*
X15229Y21810D01*
X15143Y21846D01*
X15050Y21858D01*
D02*
G37*
G36*
X7397Y21275D02*
X7335Y21263D01*
X7282Y21228D01*
X7247Y21175D01*
X7235Y21113D01*
X7247Y21052D01*
X7282Y20999D01*
X7335Y20964D01*
X7397Y20952D01*
X7458Y20964D01*
X7511Y20999D01*
X7546Y21052D01*
X7558Y21113D01*
X7546Y21175D01*
X7511Y21228D01*
X7458Y21263D01*
X7397Y21275D01*
D02*
G37*
G36*
X6970D02*
X6908Y21263D01*
X6856Y21228D01*
X6821Y21175D01*
X6808Y21113D01*
X6821Y21052D01*
X6856Y20999D01*
X6908Y20964D01*
X6970Y20952D01*
X7032Y20964D01*
X7084Y20999D01*
X7119Y21052D01*
X7132Y21113D01*
X7119Y21175D01*
X7084Y21228D01*
X7032Y21263D01*
X6970Y21275D01*
D02*
G37*
G36*
X6543D02*
X6482Y21263D01*
X6429Y21228D01*
X6394Y21175D01*
X6382Y21113D01*
X6394Y21052D01*
X6429Y20999D01*
X6482Y20964D01*
X6543Y20952D01*
X6605Y20964D01*
X6658Y20999D01*
X6693Y21052D01*
X6705Y21113D01*
X6693Y21175D01*
X6658Y21228D01*
X6605Y21263D01*
X6543Y21275D01*
D02*
G37*
G36*
X6117D02*
X6055Y21263D01*
X6002Y21228D01*
X5967Y21175D01*
X5955Y21113D01*
X5967Y21052D01*
X6002Y20999D01*
X6055Y20964D01*
X6117Y20952D01*
X6178Y20964D01*
X6231Y20999D01*
X6266Y21052D01*
X6278Y21113D01*
X6266Y21175D01*
X6231Y21228D01*
X6178Y21263D01*
X6117Y21275D01*
D02*
G37*
G36*
X5690D02*
X5628Y21263D01*
X5576Y21228D01*
X5541Y21175D01*
X5528Y21113D01*
X5541Y21052D01*
X5576Y20999D01*
X5628Y20964D01*
X5690Y20952D01*
X5752Y20964D01*
X5804Y20999D01*
X5839Y21052D01*
X5852Y21113D01*
X5839Y21175D01*
X5804Y21228D01*
X5752Y21263D01*
X5690Y21275D01*
D02*
G37*
G36*
X5263D02*
X5202Y21263D01*
X5149Y21228D01*
X5114Y21175D01*
X5102Y21113D01*
X5114Y21052D01*
X5149Y20999D01*
X5202Y20964D01*
X5263Y20952D01*
X5325Y20964D01*
X5378Y20999D01*
X5413Y21052D01*
X5425Y21113D01*
X5413Y21175D01*
X5378Y21228D01*
X5325Y21263D01*
X5263Y21275D01*
D02*
G37*
G36*
X4837D02*
X4775Y21263D01*
X4722Y21228D01*
X4687Y21175D01*
X4675Y21113D01*
X4687Y21052D01*
X4722Y20999D01*
X4775Y20964D01*
X4837Y20952D01*
X4898Y20964D01*
X4951Y20999D01*
X4986Y21052D01*
X4998Y21113D01*
X4986Y21175D01*
X4951Y21228D01*
X4898Y21263D01*
X4837Y21275D01*
D02*
G37*
G36*
X4410D02*
X4348Y21263D01*
X4296Y21228D01*
X4261Y21175D01*
X4248Y21113D01*
X4261Y21052D01*
X4296Y20999D01*
X4348Y20964D01*
X4410Y20952D01*
X4472Y20964D01*
X4524Y20999D01*
X4559Y21052D01*
X4572Y21113D01*
X4559Y21175D01*
X4524Y21228D01*
X4472Y21263D01*
X4410Y21275D01*
D02*
G37*
G36*
X7397Y20848D02*
X7335Y20836D01*
X7282Y20801D01*
X7247Y20748D01*
X7235Y20687D01*
X7247Y20625D01*
X7282Y20572D01*
X7335Y20537D01*
X7397Y20525D01*
X7458Y20537D01*
X7511Y20572D01*
X7546Y20625D01*
X7558Y20687D01*
X7546Y20748D01*
X7511Y20801D01*
X7458Y20836D01*
X7397Y20848D01*
D02*
G37*
G36*
X6970D02*
X6908Y20836D01*
X6856Y20801D01*
X6821Y20748D01*
X6808Y20687D01*
X6821Y20625D01*
X6856Y20572D01*
X6908Y20537D01*
X6970Y20525D01*
X7032Y20537D01*
X7084Y20572D01*
X7119Y20625D01*
X7132Y20687D01*
X7119Y20748D01*
X7084Y20801D01*
X7032Y20836D01*
X6970Y20848D01*
D02*
G37*
G36*
X6543D02*
X6482Y20836D01*
X6429Y20801D01*
X6394Y20748D01*
X6382Y20687D01*
X6394Y20625D01*
X6429Y20572D01*
X6482Y20537D01*
X6543Y20525D01*
X6605Y20537D01*
X6658Y20572D01*
X6693Y20625D01*
X6705Y20687D01*
X6693Y20748D01*
X6658Y20801D01*
X6605Y20836D01*
X6543Y20848D01*
D02*
G37*
G36*
X6117D02*
X6055Y20836D01*
X6002Y20801D01*
X5967Y20748D01*
X5955Y20687D01*
X5967Y20625D01*
X6002Y20572D01*
X6055Y20537D01*
X6117Y20525D01*
X6178Y20537D01*
X6231Y20572D01*
X6266Y20625D01*
X6278Y20687D01*
X6266Y20748D01*
X6231Y20801D01*
X6178Y20836D01*
X6117Y20848D01*
D02*
G37*
G36*
X5690D02*
X5628Y20836D01*
X5576Y20801D01*
X5541Y20748D01*
X5528Y20687D01*
X5541Y20625D01*
X5576Y20572D01*
X5628Y20537D01*
X5690Y20525D01*
X5752Y20537D01*
X5804Y20572D01*
X5839Y20625D01*
X5852Y20687D01*
X5839Y20748D01*
X5804Y20801D01*
X5752Y20836D01*
X5690Y20848D01*
D02*
G37*
G36*
X5263D02*
X5202Y20836D01*
X5149Y20801D01*
X5114Y20748D01*
X5102Y20687D01*
X5114Y20625D01*
X5149Y20572D01*
X5202Y20537D01*
X5263Y20525D01*
X5325Y20537D01*
X5378Y20572D01*
X5413Y20625D01*
X5425Y20687D01*
X5413Y20748D01*
X5378Y20801D01*
X5325Y20836D01*
X5263Y20848D01*
D02*
G37*
G36*
X4837D02*
X4775Y20836D01*
X4722Y20801D01*
X4687Y20748D01*
X4675Y20687D01*
X4687Y20625D01*
X4722Y20572D01*
X4775Y20537D01*
X4837Y20525D01*
X4898Y20537D01*
X4951Y20572D01*
X4986Y20625D01*
X4998Y20687D01*
X4986Y20748D01*
X4951Y20801D01*
X4898Y20836D01*
X4837Y20848D01*
D02*
G37*
G36*
X4410D02*
X4348Y20836D01*
X4296Y20801D01*
X4261Y20748D01*
X4248Y20687D01*
X4261Y20625D01*
X4296Y20572D01*
X4348Y20537D01*
X4410Y20525D01*
X4472Y20537D01*
X4524Y20572D01*
X4559Y20625D01*
X4572Y20687D01*
X4559Y20748D01*
X4524Y20801D01*
X4472Y20836D01*
X4410Y20848D01*
D02*
G37*
G36*
X7397Y20422D02*
X7335Y20409D01*
X7282Y20374D01*
X7247Y20322D01*
X7235Y20260D01*
X7247Y20198D01*
X7282Y20146D01*
X7335Y20111D01*
X7397Y20098D01*
X7458Y20111D01*
X7511Y20146D01*
X7546Y20198D01*
X7558Y20260D01*
X7546Y20322D01*
X7511Y20374D01*
X7458Y20409D01*
X7397Y20422D01*
D02*
G37*
G36*
X6970D02*
X6908Y20409D01*
X6856Y20374D01*
X6821Y20322D01*
X6808Y20260D01*
X6821Y20198D01*
X6856Y20146D01*
X6908Y20111D01*
X6970Y20098D01*
X7032Y20111D01*
X7084Y20146D01*
X7119Y20198D01*
X7132Y20260D01*
X7119Y20322D01*
X7084Y20374D01*
X7032Y20409D01*
X6970Y20422D01*
D02*
G37*
G36*
X6543D02*
X6482Y20409D01*
X6429Y20374D01*
X6394Y20322D01*
X6382Y20260D01*
X6394Y20198D01*
X6429Y20146D01*
X6482Y20111D01*
X6543Y20098D01*
X6605Y20111D01*
X6658Y20146D01*
X6693Y20198D01*
X6705Y20260D01*
X6693Y20322D01*
X6658Y20374D01*
X6605Y20409D01*
X6543Y20422D01*
D02*
G37*
G36*
X6117D02*
X6055Y20409D01*
X6002Y20374D01*
X5967Y20322D01*
X5955Y20260D01*
X5967Y20198D01*
X6002Y20146D01*
X6055Y20111D01*
X6117Y20098D01*
X6178Y20111D01*
X6231Y20146D01*
X6266Y20198D01*
X6278Y20260D01*
X6266Y20322D01*
X6231Y20374D01*
X6178Y20409D01*
X6117Y20422D01*
D02*
G37*
G36*
X5690D02*
X5628Y20409D01*
X5576Y20374D01*
X5541Y20322D01*
X5528Y20260D01*
X5541Y20198D01*
X5576Y20146D01*
X5628Y20111D01*
X5690Y20098D01*
X5752Y20111D01*
X5804Y20146D01*
X5839Y20198D01*
X5852Y20260D01*
X5839Y20322D01*
X5804Y20374D01*
X5752Y20409D01*
X5690Y20422D01*
D02*
G37*
G36*
X5263D02*
X5202Y20409D01*
X5149Y20374D01*
X5114Y20322D01*
X5102Y20260D01*
X5114Y20198D01*
X5149Y20146D01*
X5202Y20111D01*
X5263Y20098D01*
X5325Y20111D01*
X5378Y20146D01*
X5413Y20198D01*
X5425Y20260D01*
X5413Y20322D01*
X5378Y20374D01*
X5325Y20409D01*
X5263Y20422D01*
D02*
G37*
G36*
X4837D02*
X4775Y20409D01*
X4722Y20374D01*
X4687Y20322D01*
X4675Y20260D01*
X4687Y20198D01*
X4722Y20146D01*
X4775Y20111D01*
X4837Y20098D01*
X4898Y20111D01*
X4951Y20146D01*
X4986Y20198D01*
X4998Y20260D01*
X4986Y20322D01*
X4951Y20374D01*
X4898Y20409D01*
X4837Y20422D01*
D02*
G37*
G36*
X4410D02*
X4348Y20409D01*
X4296Y20374D01*
X4261Y20322D01*
X4248Y20260D01*
X4261Y20198D01*
X4296Y20146D01*
X4348Y20111D01*
X4410Y20098D01*
X4472Y20111D01*
X4524Y20146D01*
X4559Y20198D01*
X4572Y20260D01*
X4559Y20322D01*
X4524Y20374D01*
X4472Y20409D01*
X4410Y20422D01*
D02*
G37*
G36*
X7397Y19995D02*
X7335Y19983D01*
X7282Y19948D01*
X7247Y19895D01*
X7235Y19833D01*
X7247Y19772D01*
X7282Y19719D01*
X7335Y19684D01*
X7397Y19672D01*
X7458Y19684D01*
X7511Y19719D01*
X7546Y19772D01*
X7558Y19833D01*
X7546Y19895D01*
X7511Y19948D01*
X7458Y19983D01*
X7397Y19995D01*
D02*
G37*
G36*
X6970D02*
X6908Y19983D01*
X6856Y19948D01*
X6821Y19895D01*
X6808Y19833D01*
X6821Y19772D01*
X6856Y19719D01*
X6908Y19684D01*
X6970Y19672D01*
X7032Y19684D01*
X7084Y19719D01*
X7119Y19772D01*
X7132Y19833D01*
X7119Y19895D01*
X7084Y19948D01*
X7032Y19983D01*
X6970Y19995D01*
D02*
G37*
G36*
X6543D02*
X6482Y19983D01*
X6429Y19948D01*
X6394Y19895D01*
X6382Y19833D01*
X6394Y19772D01*
X6429Y19719D01*
X6482Y19684D01*
X6543Y19672D01*
X6605Y19684D01*
X6658Y19719D01*
X6693Y19772D01*
X6705Y19833D01*
X6693Y19895D01*
X6658Y19948D01*
X6605Y19983D01*
X6543Y19995D01*
D02*
G37*
G36*
X6117D02*
X6055Y19983D01*
X6002Y19948D01*
X5967Y19895D01*
X5955Y19833D01*
X5967Y19772D01*
X6002Y19719D01*
X6055Y19684D01*
X6117Y19672D01*
X6178Y19684D01*
X6231Y19719D01*
X6266Y19772D01*
X6278Y19833D01*
X6266Y19895D01*
X6231Y19948D01*
X6178Y19983D01*
X6117Y19995D01*
D02*
G37*
G36*
X5690D02*
X5628Y19983D01*
X5576Y19948D01*
X5541Y19895D01*
X5528Y19833D01*
X5541Y19772D01*
X5576Y19719D01*
X5628Y19684D01*
X5690Y19672D01*
X5752Y19684D01*
X5804Y19719D01*
X5839Y19772D01*
X5852Y19833D01*
X5839Y19895D01*
X5804Y19948D01*
X5752Y19983D01*
X5690Y19995D01*
D02*
G37*
G36*
X5263D02*
X5202Y19983D01*
X5149Y19948D01*
X5114Y19895D01*
X5102Y19833D01*
X5114Y19772D01*
X5149Y19719D01*
X5202Y19684D01*
X5263Y19672D01*
X5325Y19684D01*
X5378Y19719D01*
X5413Y19772D01*
X5425Y19833D01*
X5413Y19895D01*
X5378Y19948D01*
X5325Y19983D01*
X5263Y19995D01*
D02*
G37*
G36*
X4837D02*
X4775Y19983D01*
X4722Y19948D01*
X4687Y19895D01*
X4675Y19833D01*
X4687Y19772D01*
X4722Y19719D01*
X4775Y19684D01*
X4837Y19672D01*
X4898Y19684D01*
X4951Y19719D01*
X4986Y19772D01*
X4998Y19833D01*
X4986Y19895D01*
X4951Y19948D01*
X4898Y19983D01*
X4837Y19995D01*
D02*
G37*
G36*
X4410D02*
X4348Y19983D01*
X4296Y19948D01*
X4261Y19895D01*
X4248Y19833D01*
X4261Y19772D01*
X4296Y19719D01*
X4348Y19684D01*
X4410Y19672D01*
X4472Y19684D01*
X4524Y19719D01*
X4559Y19772D01*
X4572Y19833D01*
X4559Y19895D01*
X4524Y19948D01*
X4472Y19983D01*
X4410Y19995D01*
D02*
G37*
G36*
X7397Y19568D02*
X7335Y19556D01*
X7282Y19521D01*
X7247Y19468D01*
X7235Y19407D01*
X7247Y19345D01*
X7282Y19292D01*
X7335Y19257D01*
X7397Y19245D01*
X7458Y19257D01*
X7511Y19292D01*
X7546Y19345D01*
X7558Y19407D01*
X7546Y19468D01*
X7511Y19521D01*
X7458Y19556D01*
X7397Y19568D01*
D02*
G37*
G36*
X6970D02*
X6908Y19556D01*
X6856Y19521D01*
X6821Y19468D01*
X6808Y19407D01*
X6821Y19345D01*
X6856Y19292D01*
X6908Y19257D01*
X6970Y19245D01*
X7032Y19257D01*
X7084Y19292D01*
X7119Y19345D01*
X7132Y19407D01*
X7119Y19468D01*
X7084Y19521D01*
X7032Y19556D01*
X6970Y19568D01*
D02*
G37*
G36*
X6543D02*
X6482Y19556D01*
X6429Y19521D01*
X6394Y19468D01*
X6382Y19407D01*
X6394Y19345D01*
X6429Y19292D01*
X6482Y19257D01*
X6543Y19245D01*
X6605Y19257D01*
X6658Y19292D01*
X6693Y19345D01*
X6705Y19407D01*
X6693Y19468D01*
X6658Y19521D01*
X6605Y19556D01*
X6543Y19568D01*
D02*
G37*
G36*
X6117D02*
X6055Y19556D01*
X6002Y19521D01*
X5967Y19468D01*
X5955Y19407D01*
X5967Y19345D01*
X6002Y19292D01*
X6055Y19257D01*
X6117Y19245D01*
X6178Y19257D01*
X6231Y19292D01*
X6266Y19345D01*
X6278Y19407D01*
X6266Y19468D01*
X6231Y19521D01*
X6178Y19556D01*
X6117Y19568D01*
D02*
G37*
G36*
X5690D02*
X5628Y19556D01*
X5576Y19521D01*
X5541Y19468D01*
X5528Y19407D01*
X5541Y19345D01*
X5576Y19292D01*
X5628Y19257D01*
X5690Y19245D01*
X5752Y19257D01*
X5804Y19292D01*
X5839Y19345D01*
X5852Y19407D01*
X5839Y19468D01*
X5804Y19521D01*
X5752Y19556D01*
X5690Y19568D01*
D02*
G37*
G36*
X5263D02*
X5202Y19556D01*
X5149Y19521D01*
X5114Y19468D01*
X5102Y19407D01*
X5114Y19345D01*
X5149Y19292D01*
X5202Y19257D01*
X5263Y19245D01*
X5325Y19257D01*
X5378Y19292D01*
X5413Y19345D01*
X5425Y19407D01*
X5413Y19468D01*
X5378Y19521D01*
X5325Y19556D01*
X5263Y19568D01*
D02*
G37*
G36*
X4837D02*
X4775Y19556D01*
X4722Y19521D01*
X4687Y19468D01*
X4675Y19407D01*
X4687Y19345D01*
X4722Y19292D01*
X4775Y19257D01*
X4837Y19245D01*
X4898Y19257D01*
X4951Y19292D01*
X4986Y19345D01*
X4998Y19407D01*
X4986Y19468D01*
X4951Y19521D01*
X4898Y19556D01*
X4837Y19568D01*
D02*
G37*
G36*
X4410D02*
X4348Y19556D01*
X4296Y19521D01*
X4261Y19468D01*
X4248Y19407D01*
X4261Y19345D01*
X4296Y19292D01*
X4348Y19257D01*
X4410Y19245D01*
X4472Y19257D01*
X4524Y19292D01*
X4559Y19345D01*
X4572Y19407D01*
X4559Y19468D01*
X4524Y19521D01*
X4472Y19556D01*
X4410Y19568D01*
D02*
G37*
G36*
X15971Y20552D02*
X15909Y20540D01*
X15856Y20505D01*
X15821Y20452D01*
X15809Y20391D01*
X15821Y20329D01*
X15850Y20286D01*
X15850Y20285D01*
X15851Y20284D01*
X15851Y20282D01*
X15851Y20281D01*
X15851Y20280D01*
X15852Y20279D01*
X15852Y20279D01*
X15853Y20276D01*
X15854Y20273D01*
X15854Y20269D01*
X15856Y20254D01*
X15856Y20246D01*
X15858Y20239D01*
Y15487D01*
X15651Y15280D01*
X15630Y15284D01*
X15602Y15301D01*
Y19788D01*
X15605Y19794D01*
X15606Y19812D01*
X15606Y19818D01*
X15607Y19822D01*
X15608Y19826D01*
X15608Y19828D01*
X15608Y19828D01*
X15609Y19830D01*
X15609Y19830D01*
X15610Y19831D01*
X15610Y19834D01*
X15610Y19835D01*
X15610Y19835D01*
X15639Y19878D01*
X15652Y19940D01*
X15639Y20002D01*
X15604Y20054D01*
X15552Y20089D01*
X15490Y20102D01*
X15428Y20089D01*
X15376Y20054D01*
X15341Y20002D01*
X15328Y19940D01*
X15341Y19878D01*
X15370Y19835D01*
X15370Y19835D01*
X15370Y19834D01*
X15370Y19831D01*
X15371Y19830D01*
X15371Y19830D01*
X15372Y19828D01*
X15372Y19828D01*
X15372Y19826D01*
X15373Y19822D01*
X15374Y19818D01*
X15375Y19804D01*
X15375Y19795D01*
X15378Y19789D01*
Y15336D01*
X11271Y11229D01*
X11246Y11193D01*
X11238Y11150D01*
X11238Y11150D01*
Y10802D01*
X11235Y10796D01*
X11234Y10778D01*
X11234Y10772D01*
X11233Y10768D01*
X11232Y10764D01*
X11232Y10762D01*
X11232Y10762D01*
X11231Y10760D01*
X11231Y10760D01*
X11230Y10759D01*
X11230Y10756D01*
X11230Y10755D01*
X11230Y10755D01*
X11201Y10712D01*
X11188Y10650D01*
X11201Y10588D01*
X11236Y10536D01*
X11288Y10501D01*
X11350Y10488D01*
X11412Y10501D01*
X11449Y10525D01*
X11496Y10512D01*
X11504Y10507D01*
X11504Y10503D01*
X11539Y10450D01*
X11592Y10415D01*
X11654Y10403D01*
X11715Y10415D01*
X11768Y10450D01*
X11795Y10491D01*
X11842Y10488D01*
X11847Y10486D01*
X11851Y10468D01*
X11886Y10416D01*
X11938Y10381D01*
X12000Y10368D01*
X12062Y10381D01*
X12114Y10416D01*
X12149Y10468D01*
X12162Y10530D01*
X12161Y10532D01*
X12162Y10533D01*
X12162Y10534D01*
X12162Y10535D01*
X12163Y10536D01*
X12163Y10537D01*
X12165Y10539D01*
X12167Y10542D01*
X12176Y10553D01*
X12182Y10559D01*
X12182Y10561D01*
X12184Y10562D01*
X12186Y10567D01*
X17029Y15411D01*
X17029Y15411D01*
X17054Y15447D01*
X17062Y15490D01*
X17062Y15490D01*
Y19788D01*
X17065Y19794D01*
X17066Y19812D01*
X17066Y19818D01*
X17067Y19822D01*
X17068Y19826D01*
X17068Y19828D01*
X17068Y19828D01*
X17069Y19830D01*
X17069Y19830D01*
X17070Y19831D01*
X17070Y19834D01*
X17070Y19835D01*
X17070Y19835D01*
X17099Y19878D01*
X17112Y19940D01*
X17099Y20002D01*
X17064Y20054D01*
X17012Y20089D01*
X16950Y20102D01*
X16888Y20089D01*
X16836Y20054D01*
X16801Y20002D01*
X16788Y19940D01*
X16801Y19878D01*
X16830Y19835D01*
X16830Y19835D01*
X16830Y19834D01*
X16830Y19831D01*
X16831Y19830D01*
X16831Y19830D01*
X16832Y19828D01*
X16832Y19828D01*
X16832Y19826D01*
X16833Y19822D01*
X16834Y19818D01*
X16835Y19804D01*
X16835Y19795D01*
X16838Y19789D01*
Y15536D01*
X12019Y10718D01*
X12013Y10715D01*
X12006Y10709D01*
X11995Y10699D01*
X11991Y10696D01*
X11988Y10694D01*
X11986Y10693D01*
X11985Y10692D01*
X11983Y10692D01*
X11982Y10691D01*
X11981Y10691D01*
X11980Y10690D01*
X11978Y10689D01*
X11975Y10687D01*
X11938Y10679D01*
X11886Y10644D01*
X11858Y10603D01*
X11812Y10607D01*
X11806Y10608D01*
X11803Y10626D01*
X11774Y10669D01*
X11774Y10670D01*
X11774Y10671D01*
X11773Y10673D01*
X11773Y10674D01*
X11773Y10675D01*
X11772Y10676D01*
X11772Y10677D01*
X11771Y10679D01*
X11770Y10682D01*
X11770Y10686D01*
X11769Y10701D01*
X11768Y10710D01*
X11766Y10716D01*
Y11077D01*
X16050Y15361D01*
X16074Y15398D01*
X16083Y15441D01*
X16083Y15441D01*
Y20238D01*
X16086Y20244D01*
X16086Y20263D01*
X16087Y20268D01*
X16088Y20273D01*
X16088Y20276D01*
X16089Y20279D01*
X16089Y20279D01*
X16090Y20280D01*
X16090Y20281D01*
X16091Y20282D01*
X16091Y20284D01*
X16091Y20285D01*
X16091Y20286D01*
X16120Y20329D01*
X16132Y20391D01*
X16120Y20452D01*
X16085Y20505D01*
X16032Y20540D01*
X15971Y20552D01*
D02*
G37*
G36*
X26850Y13248D02*
X26747Y13234D01*
X26651Y13195D01*
X26569Y13131D01*
X26505Y13049D01*
X26466Y12953D01*
X26452Y12850D01*
X26466Y12747D01*
X26505Y12651D01*
X26569Y12569D01*
X26651Y12505D01*
X26747Y12466D01*
X26850Y12452D01*
X26953Y12466D01*
X27049Y12505D01*
X27131Y12569D01*
X27195Y12651D01*
X27234Y12747D01*
X27248Y12850D01*
X27234Y12953D01*
X27195Y13049D01*
X27131Y13131D01*
X27049Y13195D01*
X26953Y13234D01*
X26850Y13248D01*
D02*
G37*
G36*
X1550D02*
X1447Y13234D01*
X1351Y13195D01*
X1269Y13131D01*
X1205Y13049D01*
X1166Y12953D01*
X1152Y12850D01*
X1166Y12747D01*
X1205Y12651D01*
X1269Y12569D01*
X1351Y12505D01*
X1447Y12466D01*
X1550Y12452D01*
X1653Y12466D01*
X1749Y12505D01*
X1831Y12569D01*
X1895Y12651D01*
X1934Y12747D01*
X1948Y12850D01*
X1934Y12953D01*
X1895Y13049D01*
X1831Y13131D01*
X1749Y13195D01*
X1653Y13234D01*
X1550Y13248D01*
D02*
G37*
G36*
X23540Y13942D02*
X23455Y13925D01*
X23383Y13877D01*
X23335Y13805D01*
X23318Y13720D01*
X23335Y13635D01*
X23346Y13619D01*
Y10958D01*
X23338Y10920D01*
X23355Y10835D01*
X23403Y10763D01*
X23475Y10715D01*
X23560Y10698D01*
X23645Y10715D01*
X23717Y10763D01*
X23765Y10835D01*
X23782Y10920D01*
X23774Y10958D01*
Y13696D01*
X23758Y13778D01*
X23747Y13794D01*
X23745Y13805D01*
X23697Y13877D01*
X23625Y13925D01*
X23540Y13942D01*
D02*
G37*
G36*
X17830Y20072D02*
X17768Y20059D01*
X17716Y20024D01*
X17681Y19972D01*
X17668Y19910D01*
X17681Y19848D01*
X17710Y19805D01*
X17710Y19805D01*
X17710Y19804D01*
X17710Y19801D01*
X17711Y19800D01*
X17711Y19800D01*
X17712Y19798D01*
X17712Y19798D01*
X17712Y19796D01*
X17713Y19792D01*
X17714Y19788D01*
X17715Y19774D01*
X17715Y19765D01*
X17718Y19759D01*
Y15676D01*
X12408Y10367D01*
X12408Y10367D01*
X12404Y10368D01*
X12402Y10368D01*
X12402Y10368D01*
X12400Y10369D01*
X12400Y10369D01*
X12399Y10370D01*
X12396Y10370D01*
X12395Y10370D01*
X12395Y10370D01*
X12352Y10399D01*
X12290Y10412D01*
X12228Y10399D01*
X12176Y10364D01*
X12141Y10312D01*
X12128Y10250D01*
X12141Y10188D01*
X12176Y10136D01*
X12228Y10101D01*
X12290Y10088D01*
X12352Y10101D01*
X12395Y10130D01*
X12395Y10130D01*
X12396Y10130D01*
X12399Y10130D01*
X12400Y10131D01*
X12400Y10131D01*
X12402Y10132D01*
X12402Y10132D01*
X12404Y10132D01*
X12408Y10133D01*
X12412Y10134D01*
X12426Y10135D01*
X12435Y10135D01*
X12441Y10138D01*
X12450D01*
X12450Y10138D01*
X12493Y10146D01*
X12529Y10171D01*
X17909Y15551D01*
X17934Y15587D01*
X17942Y15630D01*
X17942Y15630D01*
Y19758D01*
X17945Y19764D01*
X17946Y19782D01*
X17946Y19788D01*
X17947Y19792D01*
X17948Y19796D01*
X17948Y19798D01*
X17948Y19798D01*
X17949Y19800D01*
X17949Y19800D01*
X17950Y19801D01*
X17950Y19804D01*
X17950Y19805D01*
X17950Y19805D01*
X17979Y19848D01*
X17992Y19910D01*
X17979Y19972D01*
X17944Y20024D01*
X17892Y20059D01*
X17830Y20072D01*
D02*
G37*
G36*
X15209Y7561D02*
X15147Y7548D01*
X15095Y7513D01*
X15060Y7461D01*
X15050Y7410D01*
X15050Y7410D01*
X15049Y7409D01*
X15048Y7407D01*
X15047Y7406D01*
X15047Y7405D01*
X15046Y7404D01*
X15046Y7404D01*
X15045Y7402D01*
X15043Y7399D01*
X15041Y7395D01*
X15031Y7384D01*
X15025Y7378D01*
X15023Y7371D01*
X14403Y6751D01*
X14357Y6776D01*
X14362Y6800D01*
X14349Y6862D01*
X14314Y6914D01*
X14262Y6949D01*
X14200Y6962D01*
X14138Y6949D01*
X14086Y6914D01*
X14051Y6862D01*
X14041Y6811D01*
X14040Y6811D01*
X14040Y6810D01*
X14038Y6808D01*
X14038Y6807D01*
X14038Y6806D01*
X14037Y6805D01*
X14037Y6804D01*
X14036Y6802D01*
X14034Y6799D01*
X14032Y6796D01*
X14022Y6785D01*
X14016Y6779D01*
X14014Y6772D01*
X13854Y6612D01*
X12852D01*
X12846Y6615D01*
X12828Y6616D01*
X12822Y6616D01*
X12818Y6617D01*
X12814Y6618D01*
X12812Y6618D01*
X12812Y6618D01*
X12810Y6619D01*
X12810Y6619D01*
X12809Y6620D01*
X12806Y6620D01*
X12805Y6620D01*
X12805Y6620D01*
X12762Y6649D01*
X12700Y6662D01*
X12638Y6649D01*
X12586Y6614D01*
X12551Y6562D01*
X12538Y6500D01*
X12551Y6438D01*
X12586Y6386D01*
X12638Y6351D01*
X12700Y6338D01*
X12762Y6351D01*
X12805Y6380D01*
X12805Y6380D01*
X12806Y6380D01*
X12809Y6380D01*
X12810Y6381D01*
X12810Y6381D01*
X12812Y6382D01*
X12812Y6382D01*
X12814Y6382D01*
X12818Y6383D01*
X12822Y6384D01*
X12836Y6385D01*
X12845Y6385D01*
X12851Y6388D01*
X13900D01*
X13900Y6388D01*
X13943Y6396D01*
X13979Y6421D01*
X14172Y6613D01*
X14178Y6615D01*
X14181Y6618D01*
X14199Y6618D01*
X14219Y6569D01*
X14217Y6566D01*
X13469Y5818D01*
X13445Y5781D01*
X13436Y5739D01*
X13436Y5739D01*
Y5668D01*
X13435Y5666D01*
X13403Y5625D01*
X13401Y5625D01*
X13393Y5625D01*
X13386Y5622D01*
X10992D01*
X10986Y5625D01*
X10968Y5626D01*
X10962Y5626D01*
X10958Y5627D01*
X10954Y5628D01*
X10952Y5628D01*
X10952Y5628D01*
X10950Y5629D01*
X10950Y5629D01*
X10949Y5630D01*
X10946Y5630D01*
X10945Y5630D01*
X10945Y5630D01*
X10902Y5659D01*
X10840Y5672D01*
X10778Y5659D01*
X10726Y5624D01*
X10691Y5572D01*
X10678Y5510D01*
X10691Y5448D01*
X10726Y5396D01*
X10778Y5361D01*
X10840Y5348D01*
X10902Y5361D01*
X10945Y5390D01*
X10945Y5390D01*
X10946Y5390D01*
X10949Y5390D01*
X10950Y5391D01*
X10950Y5391D01*
X10952Y5392D01*
X10952Y5392D01*
X10954Y5392D01*
X10958Y5393D01*
X10962Y5394D01*
X10976Y5395D01*
X10985Y5395D01*
X10991Y5398D01*
X13368D01*
X13372Y5396D01*
X13376Y5397D01*
X13379Y5395D01*
X13389Y5395D01*
X13395Y5394D01*
X13401Y5394D01*
X13405Y5393D01*
X13407Y5392D01*
X13408Y5392D01*
X13408Y5392D01*
X13409Y5392D01*
X13410Y5391D01*
X13411Y5391D01*
X13412Y5391D01*
X13412Y5390D01*
X13416Y5385D01*
X13468Y5350D01*
X13530Y5338D01*
X13592Y5350D01*
X13644Y5385D01*
X13679Y5437D01*
X13692Y5499D01*
X13679Y5561D01*
X13668Y5577D01*
X13668Y5579D01*
X13668Y5583D01*
X13668Y5584D01*
X13668Y5584D01*
X13668Y5584D01*
X13668Y5585D01*
X13668Y5585D01*
X13668Y5586D01*
X13667Y5587D01*
X13666Y5594D01*
X13665Y5597D01*
X13664Y5621D01*
X13663Y5630D01*
X13661Y5636D01*
Y5692D01*
X15181Y7212D01*
X15187Y7215D01*
X15201Y7227D01*
X15205Y7231D01*
X15209Y7233D01*
X15212Y7235D01*
X15214Y7236D01*
X15214Y7236D01*
X15215Y7237D01*
X15216Y7237D01*
X15217Y7238D01*
X15219Y7239D01*
X15220Y7240D01*
X15220Y7240D01*
X15271Y7250D01*
X15323Y7285D01*
X15358Y7337D01*
X15371Y7399D01*
X15358Y7461D01*
X15323Y7513D01*
X15271Y7548D01*
X15209Y7561D01*
D02*
G37*
G36*
X7400Y7982D02*
X7315Y7965D01*
X7243Y7917D01*
X7195Y7845D01*
X7178Y7760D01*
X7195Y7675D01*
X7240Y7608D01*
X7242Y7604D01*
X7246Y7599D01*
X7247Y7597D01*
X7249Y7593D01*
X7252Y7588D01*
X7254Y7582D01*
X7256Y7574D01*
X7257Y7565D01*
X7260Y7540D01*
X7260Y7526D01*
X7262Y7520D01*
Y5870D01*
X7260Y5864D01*
X7260Y5849D01*
X7259Y5837D01*
X7258Y5826D01*
X7256Y5816D01*
X7254Y5808D01*
X7252Y5802D01*
X7249Y5797D01*
X7247Y5793D01*
X7246Y5791D01*
X7242Y5786D01*
X7240Y5782D01*
X7195Y5715D01*
X7186Y5668D01*
X5180D01*
X5174Y5670D01*
X5159Y5670D01*
X5147Y5671D01*
X5136Y5672D01*
X5126Y5674D01*
X5118Y5676D01*
X5112Y5678D01*
X5107Y5681D01*
X5103Y5683D01*
X5101Y5684D01*
X5096Y5688D01*
X5092Y5690D01*
X5025Y5735D01*
X4940Y5752D01*
X4855Y5735D01*
X4783Y5687D01*
X4735Y5615D01*
X4718Y5530D01*
X4735Y5445D01*
X4783Y5373D01*
X4855Y5325D01*
X4940Y5308D01*
X5025Y5325D01*
X5092Y5370D01*
X5096Y5372D01*
X5101Y5376D01*
X5103Y5377D01*
X5107Y5379D01*
X5112Y5382D01*
X5118Y5384D01*
X5126Y5386D01*
X5135Y5387D01*
X5160Y5390D01*
X5174Y5390D01*
X5180Y5392D01*
X7212D01*
Y5164D01*
X7223Y5111D01*
X7253Y5066D01*
X9106Y3213D01*
X9151Y3183D01*
X9204Y3172D01*
X9960D01*
X9966Y3170D01*
X9981Y3170D01*
X9993Y3169D01*
X10004Y3168D01*
X10014Y3166D01*
X10022Y3164D01*
X10028Y3162D01*
X10033Y3159D01*
X10037Y3157D01*
X10039Y3156D01*
X10044Y3152D01*
X10048Y3150D01*
X10115Y3105D01*
X10200Y3088D01*
X10285Y3105D01*
X10357Y3153D01*
X10405Y3225D01*
X10412Y3259D01*
X10418Y3269D01*
X10420Y3274D01*
X10421Y3278D01*
X10423Y3283D01*
X10426Y3289D01*
X10430Y3295D01*
X10435Y3302D01*
X10460Y3332D01*
X10471Y3343D01*
X10473Y3348D01*
X10754Y3629D01*
X10755Y3629D01*
X10758Y3634D01*
X10759Y3635D01*
X10765Y3637D01*
X10775Y3647D01*
X10784Y3655D01*
X10792Y3661D01*
X10799Y3665D01*
X10805Y3668D01*
X10810Y3670D01*
X10814Y3671D01*
X10816Y3672D01*
X10817Y3672D01*
X10822Y3671D01*
X10833Y3674D01*
X10860Y3668D01*
X10945Y3685D01*
X11017Y3733D01*
X11065Y3805D01*
X11082Y3890D01*
X11065Y3975D01*
X11017Y4047D01*
X10945Y4095D01*
X10860Y4112D01*
X10775Y4095D01*
X10703Y4047D01*
X10655Y3975D01*
X10648Y3941D01*
X10642Y3931D01*
X10640Y3926D01*
X10639Y3922D01*
X10637Y3917D01*
X10634Y3911D01*
X10630Y3905D01*
X10625Y3898D01*
X10600Y3868D01*
X10589Y3857D01*
X10587Y3852D01*
X10306Y3571D01*
X10305Y3571D01*
X10302Y3566D01*
X10301Y3565D01*
X10295Y3563D01*
X10285Y3553D01*
X10276Y3545D01*
X10268Y3539D01*
X10261Y3535D01*
X10255Y3532D01*
X10250Y3530D01*
X10246Y3529D01*
X10244Y3528D01*
X10243Y3528D01*
X10238Y3529D01*
X10227Y3526D01*
X10200Y3532D01*
X10115Y3515D01*
X10048Y3470D01*
X10044Y3468D01*
X10039Y3464D01*
X10037Y3463D01*
X10033Y3461D01*
X10028Y3458D01*
X10022Y3456D01*
X10014Y3454D01*
X10005Y3453D01*
X9980Y3450D01*
X9966Y3450D01*
X9960Y3448D01*
X9261D01*
X7488Y5221D01*
Y5417D01*
X7496Y5429D01*
X7496Y5433D01*
X7557Y5473D01*
X7605Y5545D01*
X7622Y5630D01*
X7605Y5715D01*
X7560Y5782D01*
X7558Y5786D01*
X7554Y5791D01*
X7553Y5793D01*
X7551Y5797D01*
X7548Y5802D01*
X7546Y5808D01*
X7544Y5816D01*
X7543Y5825D01*
X7540Y5850D01*
X7540Y5864D01*
X7538Y5870D01*
Y7520D01*
X7540Y7526D01*
X7540Y7541D01*
X7541Y7553D01*
X7542Y7564D01*
X7544Y7574D01*
X7546Y7582D01*
X7548Y7588D01*
X7551Y7593D01*
X7553Y7597D01*
X7554Y7599D01*
X7558Y7604D01*
X7560Y7608D01*
X7605Y7675D01*
X7622Y7760D01*
X7605Y7845D01*
X7557Y7917D01*
X7485Y7965D01*
X7400Y7982D01*
D02*
G37*
G36*
X21890Y8469D02*
X21805Y8452D01*
X21733Y8404D01*
X21685Y8332D01*
X21668Y8247D01*
X21676Y8209D01*
Y5875D01*
X21655Y5845D01*
X21638Y5760D01*
X21655Y5675D01*
X21703Y5603D01*
X21775Y5555D01*
X21860Y5538D01*
X21945Y5555D01*
X22017Y5603D01*
X22065Y5675D01*
X22066Y5679D01*
X22088Y5712D01*
X22104Y5794D01*
Y8209D01*
X22111Y8247D01*
X22095Y8332D01*
X22046Y8404D01*
X21975Y8452D01*
X21890Y8469D01*
D02*
G37*
G36*
X18200Y7512D02*
X18138Y7499D01*
X18086Y7464D01*
X18051Y7412D01*
X18038Y7350D01*
X18051Y7288D01*
X18080Y7245D01*
X18080Y7245D01*
X18080Y7244D01*
X18080Y7241D01*
X18081Y7240D01*
X18081Y7240D01*
X18082Y7238D01*
X18082Y7238D01*
X18082Y7236D01*
X18083Y7232D01*
X18084Y7228D01*
X18085Y7214D01*
X18085Y7205D01*
X18088Y7199D01*
Y5802D01*
X18085Y5796D01*
X18084Y5778D01*
X18084Y5772D01*
X18083Y5768D01*
X18082Y5764D01*
X18082Y5762D01*
X18082Y5762D01*
X18081Y5760D01*
X18081Y5760D01*
X18080Y5759D01*
X18080Y5756D01*
X18080Y5755D01*
X18080Y5755D01*
X18051Y5712D01*
X18038Y5650D01*
X18051Y5588D01*
X18086Y5536D01*
X18138Y5501D01*
X18200Y5488D01*
X18262Y5501D01*
X18314Y5536D01*
X18349Y5588D01*
X18362Y5650D01*
X18349Y5712D01*
X18320Y5755D01*
X18320Y5755D01*
X18320Y5756D01*
X18320Y5759D01*
X18319Y5760D01*
X18319Y5760D01*
X18318Y5762D01*
X18318Y5762D01*
X18318Y5764D01*
X18317Y5768D01*
X18316Y5772D01*
X18315Y5786D01*
X18315Y5795D01*
X18312Y5801D01*
Y7198D01*
X18315Y7204D01*
X18316Y7222D01*
X18316Y7228D01*
X18317Y7232D01*
X18318Y7236D01*
X18318Y7238D01*
X18318Y7238D01*
X18319Y7240D01*
X18319Y7240D01*
X18320Y7241D01*
X18320Y7244D01*
X18320Y7245D01*
X18320Y7245D01*
X18349Y7288D01*
X18362Y7350D01*
X18349Y7412D01*
X18314Y7464D01*
X18262Y7499D01*
X18200Y7512D01*
D02*
G37*
G36*
X27450Y5558D02*
X27357Y5546D01*
X27271Y5510D01*
X27197Y5453D01*
X27140Y5379D01*
X27104Y5293D01*
X27092Y5200D01*
X27104Y5107D01*
X27140Y5021D01*
X27197Y4947D01*
X27271Y4890D01*
X27357Y4854D01*
X27450Y4842D01*
X27543Y4854D01*
X27629Y4890D01*
X27703Y4947D01*
X27760Y5021D01*
X27796Y5107D01*
X27808Y5200D01*
X27796Y5293D01*
X27760Y5379D01*
X27703Y5453D01*
X27629Y5510D01*
X27543Y5546D01*
X27450Y5558D01*
D02*
G37*
G36*
X26450D02*
X26357Y5546D01*
X26271Y5510D01*
X26197Y5453D01*
X26140Y5379D01*
X26104Y5293D01*
X26092Y5200D01*
X26104Y5107D01*
X26140Y5021D01*
X26197Y4947D01*
X26271Y4890D01*
X26357Y4854D01*
X26450Y4842D01*
X26543Y4854D01*
X26629Y4890D01*
X26703Y4947D01*
X26760Y5021D01*
X26796Y5107D01*
X26808Y5200D01*
X26796Y5293D01*
X26760Y5379D01*
X26703Y5453D01*
X26629Y5510D01*
X26543Y5546D01*
X26450Y5558D01*
D02*
G37*
G36*
X26850Y11280D02*
X26747Y11266D01*
X26651Y11226D01*
X26569Y11163D01*
X26505Y11081D01*
X26466Y10985D01*
X26452Y10885D01*
X26450Y10881D01*
X26450Y10861D01*
X26447Y10844D01*
X26442Y10826D01*
X26436Y10807D01*
X26427Y10788D01*
X26416Y10768D01*
X26402Y10747D01*
X26385Y10725D01*
X26366Y10703D01*
X26343Y10679D01*
X26343Y10677D01*
X24529Y8863D01*
X24482Y8793D01*
X24466Y8712D01*
Y4928D01*
X24458Y4890D01*
X24475Y4805D01*
X24523Y4733D01*
X24595Y4685D01*
X24680Y4668D01*
X24765Y4685D01*
X24837Y4733D01*
X24885Y4805D01*
X24902Y4890D01*
X24894Y4928D01*
Y8623D01*
X26645Y10374D01*
X26647Y10375D01*
X26671Y10398D01*
X26693Y10417D01*
X26715Y10433D01*
X26736Y10447D01*
X26756Y10458D01*
X26776Y10467D01*
X26794Y10474D01*
X26812Y10479D01*
X26829Y10481D01*
X26850Y10482D01*
X26854Y10484D01*
X26953Y10497D01*
X27049Y10537D01*
X27131Y10600D01*
X27195Y10682D01*
X27234Y10778D01*
X27248Y10882D01*
X27234Y10985D01*
X27195Y11081D01*
X27131Y11163D01*
X27049Y11226D01*
X26953Y11266D01*
X26850Y11280D01*
D02*
G37*
G36*
X8000Y5182D02*
X7938Y5169D01*
X7886Y5134D01*
X7851Y5082D01*
X7838Y5020D01*
X7851Y4958D01*
X7886Y4906D01*
X7938Y4871D01*
X8000Y4858D01*
X8062Y4871D01*
X8105Y4900D01*
X8105Y4900D01*
X8106Y4900D01*
X8109Y4900D01*
X8110Y4901D01*
X8110Y4901D01*
X8112Y4902D01*
X8112Y4902D01*
X8114Y4902D01*
X8118Y4903D01*
X8122Y4904D01*
X8136Y4905D01*
X8145Y4905D01*
X8151Y4908D01*
X18134D01*
X18463Y4578D01*
X18465Y4572D01*
X18478Y4559D01*
X18481Y4554D01*
X18484Y4551D01*
X18486Y4548D01*
X18487Y4546D01*
X18487Y4545D01*
X18488Y4544D01*
X18488Y4543D01*
X18488Y4542D01*
X18490Y4540D01*
X18490Y4539D01*
X18491Y4539D01*
X18501Y4488D01*
X18536Y4436D01*
X18588Y4401D01*
X18650Y4388D01*
X18712Y4401D01*
X18764Y4436D01*
X18799Y4488D01*
X18812Y4550D01*
X18799Y4612D01*
X18764Y4664D01*
X18712Y4699D01*
X18661Y4709D01*
X18661Y4710D01*
X18660Y4710D01*
X18658Y4712D01*
X18657Y4712D01*
X18656Y4712D01*
X18655Y4713D01*
X18654Y4713D01*
X18652Y4714D01*
X18649Y4716D01*
X18646Y4718D01*
X18635Y4728D01*
X18629Y4734D01*
X18622Y4736D01*
X18259Y5099D01*
X18223Y5124D01*
X18180Y5132D01*
X18180Y5132D01*
X8152D01*
X8146Y5135D01*
X8128Y5136D01*
X8122Y5136D01*
X8118Y5137D01*
X8114Y5138D01*
X8112Y5138D01*
X8112Y5138D01*
X8110Y5139D01*
X8110Y5139D01*
X8109Y5140D01*
X8106Y5140D01*
X8105Y5140D01*
X8105Y5140D01*
X8062Y5169D01*
X8000Y5182D01*
D02*
G37*
G36*
X27450Y4558D02*
X27357Y4546D01*
X27271Y4510D01*
X27197Y4453D01*
X27140Y4379D01*
X27104Y4293D01*
X27092Y4200D01*
X27104Y4107D01*
X27140Y4021D01*
X27197Y3947D01*
X27271Y3890D01*
X27357Y3854D01*
X27450Y3842D01*
X27543Y3854D01*
X27629Y3890D01*
X27703Y3947D01*
X27760Y4021D01*
X27796Y4107D01*
X27808Y4200D01*
X27796Y4293D01*
X27760Y4379D01*
X27703Y4453D01*
X27629Y4510D01*
X27543Y4546D01*
X27450Y4558D01*
D02*
G37*
G36*
X26450D02*
X26357Y4546D01*
X26271Y4510D01*
X26197Y4453D01*
X26140Y4379D01*
X26104Y4293D01*
X26092Y4200D01*
X26104Y4107D01*
X26140Y4021D01*
X26197Y3947D01*
X26271Y3890D01*
X26357Y3854D01*
X26450Y3842D01*
X26543Y3854D01*
X26629Y3890D01*
X26703Y3947D01*
X26760Y4021D01*
X26796Y4107D01*
X26808Y4200D01*
X26796Y4293D01*
X26760Y4379D01*
X26703Y4453D01*
X26629Y4510D01*
X26543Y4546D01*
X26450Y4558D01*
D02*
G37*
G36*
X27450Y3558D02*
X27357Y3546D01*
X27271Y3510D01*
X27197Y3453D01*
X27140Y3379D01*
X27104Y3293D01*
X27092Y3200D01*
X27104Y3107D01*
X27140Y3021D01*
X27197Y2947D01*
X27271Y2890D01*
X27357Y2854D01*
X27450Y2842D01*
X27543Y2854D01*
X27629Y2890D01*
X27703Y2947D01*
X27760Y3021D01*
X27796Y3107D01*
X27808Y3200D01*
X27796Y3293D01*
X27760Y3379D01*
X27703Y3453D01*
X27629Y3510D01*
X27543Y3546D01*
X27450Y3558D01*
D02*
G37*
G36*
Y2479D02*
X27357Y2467D01*
X27271Y2431D01*
X27197Y2374D01*
X27140Y2300D01*
X27104Y2213D01*
X27092Y2121D01*
X27104Y2028D01*
X27140Y1941D01*
X27197Y1867D01*
X27271Y1810D01*
X27357Y1775D01*
X27450Y1762D01*
X27543Y1775D01*
X27629Y1810D01*
X27703Y1867D01*
X27760Y1941D01*
X27796Y2028D01*
X27808Y2121D01*
X27796Y2213D01*
X27760Y2300D01*
X27703Y2374D01*
X27629Y2431D01*
X27543Y2467D01*
X27450Y2479D01*
D02*
G37*
G36*
X26450D02*
X26357Y2467D01*
X26271Y2431D01*
X26197Y2374D01*
X26140Y2300D01*
X26104Y2213D01*
X26092Y2121D01*
X26104Y2028D01*
X26140Y1941D01*
X26197Y1867D01*
X26271Y1810D01*
X26357Y1775D01*
X26450Y1762D01*
X26543Y1775D01*
X26629Y1810D01*
X26703Y1867D01*
X26760Y1941D01*
X26796Y2028D01*
X26808Y2121D01*
X26796Y2213D01*
X26760Y2300D01*
X26703Y2374D01*
X26629Y2431D01*
X26543Y2467D01*
X26450Y2479D01*
D02*
G37*
G36*
X20030Y3252D02*
X19945Y3235D01*
X19873Y3187D01*
X19825Y3115D01*
X19808Y3030D01*
X19816Y2992D01*
Y1784D01*
X19818Y1771D01*
X19818Y1770D01*
X19835Y1685D01*
X19883Y1613D01*
X19955Y1565D01*
X20040Y1548D01*
X20125Y1565D01*
X20197Y1613D01*
X20245Y1685D01*
X20262Y1770D01*
X20245Y1855D01*
X20244Y1856D01*
Y2992D01*
X20252Y3030D01*
X20235Y3115D01*
X20187Y3187D01*
X20115Y3235D01*
X20030Y3252D01*
D02*
G37*
G36*
X26810Y17012D02*
X26725Y16995D01*
X26653Y16947D01*
X26605Y16875D01*
X26589Y16795D01*
X26588Y16792D01*
X26587Y16786D01*
X26587Y16783D01*
X26586Y16779D01*
X26584Y16774D01*
X26581Y16767D01*
X26576Y16760D01*
X26571Y16753D01*
X26555Y16734D01*
X26545Y16723D01*
X26543Y16718D01*
X23943Y14117D01*
X23913Y14073D01*
X23902Y14020D01*
Y1740D01*
X23900Y1734D01*
X23900Y1719D01*
X23899Y1707D01*
X23898Y1696D01*
X23896Y1686D01*
X23894Y1678D01*
X23892Y1672D01*
X23889Y1667D01*
X23887Y1663D01*
X23886Y1661D01*
X23882Y1656D01*
X23880Y1652D01*
X23835Y1585D01*
X23818Y1500D01*
X23835Y1415D01*
X23883Y1343D01*
X23955Y1295D01*
X24040Y1278D01*
X24125Y1295D01*
X24197Y1343D01*
X24245Y1415D01*
X24262Y1500D01*
X24245Y1585D01*
X24200Y1652D01*
X24198Y1656D01*
X24194Y1661D01*
X24193Y1663D01*
X24191Y1667D01*
X24188Y1672D01*
X24186Y1678D01*
X24184Y1686D01*
X24183Y1695D01*
X24180Y1720D01*
X24180Y1734D01*
X24178Y1740D01*
Y13963D01*
X26738Y16523D01*
X26743Y16525D01*
X26754Y16536D01*
X26764Y16544D01*
X26772Y16551D01*
X26780Y16556D01*
X26787Y16561D01*
X26793Y16564D01*
X26799Y16566D01*
X26803Y16567D01*
X26806Y16567D01*
X26812Y16568D01*
X26815Y16569D01*
X26895Y16585D01*
X26967Y16633D01*
X27015Y16705D01*
X27032Y16790D01*
X27015Y16875D01*
X26967Y16947D01*
X26895Y16995D01*
X26810Y17012D01*
D02*
G37*
G36*
X15140Y2372D02*
X15078Y2359D01*
X15026Y2324D01*
X14991Y2272D01*
X14981Y2221D01*
X14980Y2221D01*
X14980Y2220D01*
X14978Y2218D01*
X14978Y2217D01*
X14978Y2216D01*
X14977Y2215D01*
X14977Y2214D01*
X14976Y2212D01*
X14974Y2209D01*
X14972Y2206D01*
X14962Y2195D01*
X14956Y2189D01*
X14954Y2182D01*
X14044Y1272D01*
X10693D01*
X10687Y1275D01*
X10678Y1275D01*
X10663Y1276D01*
X10658Y1277D01*
X10655Y1278D01*
X10652Y1278D01*
X10651Y1279D01*
X10650Y1280D01*
X10649Y1280D01*
X10648Y1280D01*
X10647Y1280D01*
X10644Y1280D01*
X10641Y1281D01*
X10607Y1304D01*
X10545Y1317D01*
X10483Y1304D01*
X10431Y1269D01*
X10396Y1217D01*
X10383Y1155D01*
X10396Y1093D01*
X10431Y1041D01*
X10483Y1006D01*
X10545Y993D01*
X10607Y1006D01*
X10658Y1040D01*
X10659Y1040D01*
X10660Y1041D01*
X10661Y1041D01*
X10662Y1042D01*
X10663Y1042D01*
X10666Y1043D01*
X10670Y1044D01*
X10684Y1045D01*
X10693Y1045D01*
X10694Y1046D01*
X10695Y1045D01*
X10701Y1048D01*
X14090D01*
X14090Y1048D01*
X14133Y1056D01*
X14169Y1081D01*
X15112Y2023D01*
X15118Y2025D01*
X15131Y2038D01*
X15136Y2041D01*
X15139Y2044D01*
X15142Y2046D01*
X15144Y2047D01*
X15145Y2047D01*
X15146Y2048D01*
X15147Y2048D01*
X15148Y2048D01*
X15150Y2050D01*
X15151Y2050D01*
X15151Y2051D01*
X15202Y2061D01*
X15254Y2096D01*
X15289Y2148D01*
X15302Y2210D01*
X15289Y2272D01*
X15254Y2324D01*
X15202Y2359D01*
X15140Y2372D01*
D02*
G37*
%LPD*%
G36*
X16036Y20316D02*
X16033Y20311D01*
X16030Y20306D01*
X16027Y20300D01*
X16025Y20293D01*
X16024Y20285D01*
X16022Y20277D01*
X16021Y20267D01*
X16021Y20247D01*
X15921D01*
X15920Y20257D01*
X15919Y20277D01*
X15918Y20285D01*
X15916Y20293D01*
X15914Y20300D01*
X15911Y20306D01*
X15909Y20311D01*
X15905Y20316D01*
X15902Y20320D01*
X16040D01*
X16036Y20316D01*
D02*
G37*
G36*
X17015Y19866D02*
X17012Y19861D01*
X17009Y19855D01*
X17007Y19849D01*
X17005Y19842D01*
X17003Y19834D01*
X17002Y19826D01*
X17001Y19817D01*
X17000Y19796D01*
X16900D01*
X16900Y19807D01*
X16898Y19826D01*
X16897Y19834D01*
X16895Y19842D01*
X16893Y19849D01*
X16891Y19855D01*
X16888Y19861D01*
X16885Y19866D01*
X16881Y19870D01*
X17019D01*
X17015Y19866D01*
D02*
G37*
G36*
X15555D02*
X15552Y19861D01*
X15549Y19855D01*
X15547Y19849D01*
X15545Y19842D01*
X15543Y19834D01*
X15542Y19826D01*
X15541Y19817D01*
X15540Y19796D01*
X15440D01*
X15440Y19807D01*
X15438Y19826D01*
X15437Y19834D01*
X15435Y19842D01*
X15433Y19849D01*
X15431Y19855D01*
X15428Y19861D01*
X15425Y19866D01*
X15421Y19870D01*
X15559D01*
X15555Y19866D01*
D02*
G37*
G36*
X11400Y10783D02*
X11402Y10764D01*
X11403Y10756D01*
X11405Y10748D01*
X11407Y10741D01*
X11409Y10735D01*
X11412Y10729D01*
X11415Y10724D01*
X11419Y10720D01*
X11281D01*
X11285Y10724D01*
X11288Y10729D01*
X11291Y10735D01*
X11293Y10741D01*
X11295Y10748D01*
X11297Y10756D01*
X11298Y10764D01*
X11299Y10773D01*
X11300Y10794D01*
X11400D01*
X11400Y10783D01*
D02*
G37*
G36*
X11704Y10698D02*
X11705Y10679D01*
X11707Y10670D01*
X11708Y10662D01*
X11710Y10656D01*
X11713Y10649D01*
X11716Y10644D01*
X11719Y10639D01*
X11722Y10635D01*
X11585D01*
X11588Y10639D01*
X11591Y10644D01*
X11594Y10649D01*
X11597Y10656D01*
X11599Y10662D01*
X11601Y10670D01*
X11602Y10679D01*
X11603Y10688D01*
X11604Y10708D01*
X11704D01*
X11704Y10698D01*
D02*
G37*
G36*
X12135Y10604D02*
X12127Y10596D01*
X12115Y10582D01*
X12110Y10575D01*
X12106Y10568D01*
X12103Y10562D01*
X12100Y10555D01*
X12099Y10549D01*
X12098Y10544D01*
X12098Y10538D01*
X11994Y10628D01*
X11999Y10629D01*
X12005Y10630D01*
X12010Y10633D01*
X12016Y10635D01*
X12023Y10639D01*
X12029Y10644D01*
X12036Y10649D01*
X12050Y10661D01*
X12058Y10669D01*
X12135Y10604D01*
D02*
G37*
G36*
X17895Y19836D02*
X17892Y19831D01*
X17889Y19825D01*
X17887Y19819D01*
X17885Y19812D01*
X17883Y19804D01*
X17882Y19796D01*
X17881Y19787D01*
X17880Y19766D01*
X17780D01*
X17780Y19777D01*
X17778Y19796D01*
X17777Y19804D01*
X17775Y19812D01*
X17773Y19819D01*
X17771Y19825D01*
X17768Y19831D01*
X17765Y19836D01*
X17761Y19840D01*
X17899D01*
X17895Y19836D01*
D02*
G37*
G36*
X12364Y10315D02*
X12369Y10312D01*
X12375Y10309D01*
X12381Y10307D01*
X12388Y10305D01*
X12396Y10303D01*
X12404Y10302D01*
X12413Y10301D01*
X12434Y10300D01*
Y10200D01*
X12423Y10200D01*
X12404Y10198D01*
X12396Y10197D01*
X12388Y10195D01*
X12381Y10193D01*
X12375Y10191D01*
X12369Y10188D01*
X12364Y10185D01*
X12360Y10181D01*
Y10319D01*
X12364Y10315D01*
D02*
G37*
G36*
X15208Y7301D02*
X15203Y7300D01*
X15197Y7299D01*
X15191Y7297D01*
X15185Y7295D01*
X15179Y7291D01*
X15172Y7287D01*
X15165Y7282D01*
X15158Y7276D01*
X15143Y7262D01*
X15072Y7333D01*
X15080Y7341D01*
X15092Y7355D01*
X15097Y7362D01*
X15101Y7369D01*
X15105Y7375D01*
X15107Y7381D01*
X15109Y7387D01*
X15110Y7393D01*
X15111Y7398D01*
X15208Y7301D01*
D02*
G37*
G36*
X14199Y6702D02*
X14194Y6701D01*
X14188Y6700D01*
X14182Y6698D01*
X14176Y6696D01*
X14169Y6692D01*
X14163Y6688D01*
X14156Y6683D01*
X14149Y6677D01*
X14134Y6663D01*
X14063Y6734D01*
X14070Y6741D01*
X14083Y6756D01*
X14088Y6763D01*
X14092Y6769D01*
X14096Y6776D01*
X14098Y6782D01*
X14100Y6788D01*
X14101Y6794D01*
X14102Y6799D01*
X14199Y6702D01*
D02*
G37*
G36*
X12774Y6565D02*
X12779Y6562D01*
X12785Y6559D01*
X12791Y6557D01*
X12798Y6555D01*
X12806Y6553D01*
X12814Y6552D01*
X12823Y6551D01*
X12844Y6550D01*
Y6450D01*
X12833Y6450D01*
X12814Y6448D01*
X12806Y6447D01*
X12798Y6445D01*
X12791Y6443D01*
X12785Y6441D01*
X12779Y6438D01*
X12774Y6435D01*
X12770Y6431D01*
Y6569D01*
X12774Y6565D01*
D02*
G37*
G36*
X13599Y5629D02*
X13599Y5618D01*
X13601Y5590D01*
X13602Y5583D01*
X13605Y5569D01*
X13606Y5564D01*
X13609Y5559D01*
X13611Y5555D01*
X13476Y5581D01*
X13480Y5585D01*
X13484Y5589D01*
X13487Y5594D01*
X13490Y5600D01*
X13493Y5606D01*
X13495Y5614D01*
X13496Y5622D01*
X13498Y5631D01*
X13498Y5641D01*
X13499Y5652D01*
X13599Y5629D01*
D02*
G37*
G36*
X10914Y5575D02*
X10919Y5572D01*
X10925Y5569D01*
X10931Y5567D01*
X10938Y5565D01*
X10946Y5563D01*
X10954Y5562D01*
X10963Y5561D01*
X10984Y5560D01*
Y5460D01*
X10973Y5460D01*
X10954Y5458D01*
X10946Y5457D01*
X10938Y5455D01*
X10931Y5453D01*
X10925Y5451D01*
X10919Y5448D01*
X10914Y5445D01*
X10910Y5441D01*
Y5579D01*
X10914Y5575D01*
D02*
G37*
G36*
X13453Y5438D02*
X13449Y5443D01*
X13444Y5446D01*
X13439Y5449D01*
X13433Y5452D01*
X13426Y5455D01*
X13419Y5457D01*
X13410Y5458D01*
X13401Y5459D01*
X13391Y5460D01*
X13381Y5460D01*
X13394Y5560D01*
X13404Y5560D01*
X13432Y5562D01*
X13440Y5564D01*
X13447Y5566D01*
X13453Y5568D01*
X13459Y5570D01*
X13464Y5572D01*
X13468Y5575D01*
X13453Y5438D01*
D02*
G37*
G36*
X7504Y7640D02*
X7498Y7632D01*
X7492Y7622D01*
X7488Y7612D01*
X7484Y7600D01*
X7481Y7588D01*
X7478Y7574D01*
X7476Y7559D01*
X7475Y7544D01*
X7475Y7527D01*
X7325D01*
X7325Y7544D01*
X7322Y7574D01*
X7319Y7588D01*
X7316Y7600D01*
X7312Y7612D01*
X7308Y7622D01*
X7302Y7632D01*
X7296Y7640D01*
X7290Y7648D01*
X7510D01*
X7504Y7640D01*
D02*
G37*
G36*
X7475Y5846D02*
X7478Y5816D01*
X7481Y5802D01*
X7484Y5790D01*
X7488Y5778D01*
X7492Y5768D01*
X7498Y5758D01*
X7504Y5750D01*
X7510Y5742D01*
X7290D01*
X7296Y5750D01*
X7302Y5758D01*
X7308Y5768D01*
X7312Y5778D01*
X7316Y5790D01*
X7319Y5802D01*
X7322Y5816D01*
X7324Y5831D01*
X7325Y5846D01*
X7325Y5863D01*
X7475D01*
X7475Y5846D01*
D02*
G37*
G36*
X5060Y5634D02*
X5068Y5628D01*
X5078Y5622D01*
X5088Y5618D01*
X5100Y5614D01*
X5112Y5611D01*
X5126Y5608D01*
X5141Y5606D01*
X5156Y5605D01*
X5173Y5605D01*
Y5455D01*
X5156Y5455D01*
X5126Y5452D01*
X5112Y5449D01*
X5100Y5446D01*
X5088Y5442D01*
X5078Y5438D01*
X5068Y5432D01*
X5060Y5426D01*
X5052Y5420D01*
Y5640D01*
X5060Y5634D01*
D02*
G37*
G36*
X10830Y3735D02*
X10820Y3737D01*
X10810Y3736D01*
X10800Y3735D01*
X10789Y3732D01*
X10778Y3727D01*
X10767Y3721D01*
X10755Y3714D01*
X10744Y3705D01*
X10732Y3695D01*
X10720Y3684D01*
X10636Y3812D01*
X10648Y3824D01*
X10676Y3858D01*
X10684Y3869D01*
X10690Y3879D01*
X10695Y3889D01*
X10700Y3899D01*
X10703Y3908D01*
X10705Y3917D01*
X10830Y3735D01*
D02*
G37*
G36*
X10424Y3388D02*
X10412Y3376D01*
X10384Y3342D01*
X10376Y3331D01*
X10370Y3321D01*
X10365Y3311D01*
X10360Y3301D01*
X10357Y3292D01*
X10355Y3283D01*
X10230Y3465D01*
X10240Y3463D01*
X10250Y3464D01*
X10260Y3465D01*
X10271Y3468D01*
X10282Y3473D01*
X10293Y3479D01*
X10305Y3486D01*
X10316Y3495D01*
X10328Y3505D01*
X10340Y3516D01*
X10424Y3388D01*
D02*
G37*
G36*
X10088Y3200D02*
X10080Y3206D01*
X10072Y3212D01*
X10062Y3218D01*
X10052Y3222D01*
X10040Y3226D01*
X10028Y3229D01*
X10014Y3232D01*
X9999Y3234D01*
X9984Y3235D01*
X9967Y3235D01*
Y3385D01*
X9984Y3385D01*
X10014Y3388D01*
X10028Y3391D01*
X10040Y3394D01*
X10052Y3398D01*
X10062Y3402D01*
X10072Y3408D01*
X10080Y3414D01*
X10088Y3420D01*
Y3200D01*
D02*
G37*
G36*
X18265Y7276D02*
X18262Y7271D01*
X18259Y7265D01*
X18257Y7259D01*
X18255Y7252D01*
X18253Y7244D01*
X18252Y7236D01*
X18251Y7227D01*
X18250Y7206D01*
X18150D01*
X18150Y7217D01*
X18148Y7236D01*
X18147Y7244D01*
X18145Y7252D01*
X18143Y7259D01*
X18141Y7265D01*
X18138Y7271D01*
X18135Y7276D01*
X18131Y7280D01*
X18269D01*
X18265Y7276D01*
D02*
G37*
G36*
X18250Y5783D02*
X18252Y5764D01*
X18253Y5756D01*
X18255Y5748D01*
X18257Y5741D01*
X18259Y5735D01*
X18262Y5729D01*
X18265Y5724D01*
X18269Y5720D01*
X18131D01*
X18135Y5724D01*
X18138Y5729D01*
X18141Y5735D01*
X18143Y5741D01*
X18145Y5748D01*
X18147Y5756D01*
X18148Y5764D01*
X18149Y5773D01*
X18150Y5794D01*
X18250D01*
X18250Y5783D01*
D02*
G37*
G36*
X26847Y10547D02*
X26823Y10546D01*
X26799Y10542D01*
X26775Y10536D01*
X26751Y10527D01*
X26727Y10516D01*
X26702Y10502D01*
X26677Y10486D01*
X26653Y10467D01*
X26628Y10446D01*
X26603Y10422D01*
X26390Y10634D01*
X26414Y10659D01*
X26436Y10684D01*
X26455Y10709D01*
X26471Y10734D01*
X26485Y10758D01*
X26496Y10782D01*
X26505Y10807D01*
X26511Y10831D01*
X26514Y10854D01*
X26515Y10878D01*
X26847Y10547D01*
D02*
G37*
G36*
X8074Y5085D02*
X8079Y5082D01*
X8085Y5079D01*
X8091Y5077D01*
X8098Y5075D01*
X8106Y5073D01*
X8114Y5072D01*
X8123Y5071D01*
X8144Y5070D01*
Y4970D01*
X8133Y4970D01*
X8114Y4968D01*
X8106Y4967D01*
X8098Y4965D01*
X8091Y4963D01*
X8085Y4961D01*
X8079Y4958D01*
X8074Y4955D01*
X8070Y4951D01*
Y5089D01*
X8074Y5085D01*
D02*
G37*
G36*
X18591Y4680D02*
X18606Y4667D01*
X18613Y4662D01*
X18619Y4658D01*
X18626Y4654D01*
X18632Y4652D01*
X18638Y4650D01*
X18644Y4649D01*
X18649Y4648D01*
X18552Y4551D01*
X18551Y4556D01*
X18550Y4562D01*
X18548Y4568D01*
X18546Y4574D01*
X18542Y4581D01*
X18538Y4587D01*
X18533Y4594D01*
X18527Y4601D01*
X18513Y4616D01*
X18584Y4687D01*
X18591Y4680D01*
D02*
G37*
G36*
X26808Y16633D02*
X26798Y16632D01*
X26788Y16630D01*
X26778Y16627D01*
X26767Y16623D01*
X26756Y16618D01*
X26745Y16611D01*
X26734Y16603D01*
X26722Y16594D01*
X26710Y16584D01*
X26698Y16572D01*
X26592Y16678D01*
X26604Y16690D01*
X26623Y16714D01*
X26631Y16725D01*
X26638Y16736D01*
X26643Y16747D01*
X26647Y16758D01*
X26650Y16768D01*
X26652Y16778D01*
X26653Y16788D01*
X26808Y16633D01*
D02*
G37*
G36*
X24115Y1716D02*
X24118Y1686D01*
X24121Y1672D01*
X24124Y1660D01*
X24128Y1648D01*
X24132Y1638D01*
X24138Y1628D01*
X24144Y1620D01*
X24150Y1612D01*
X23930D01*
X23936Y1620D01*
X23942Y1628D01*
X23948Y1638D01*
X23952Y1648D01*
X23956Y1660D01*
X23959Y1672D01*
X23962Y1686D01*
X23964Y1701D01*
X23965Y1716D01*
X23965Y1733D01*
X24115D01*
X24115Y1716D01*
D02*
G37*
G36*
X15139Y2112D02*
X15134Y2111D01*
X15128Y2110D01*
X15122Y2108D01*
X15116Y2106D01*
X15109Y2102D01*
X15103Y2098D01*
X15096Y2093D01*
X15089Y2087D01*
X15074Y2073D01*
X15003Y2144D01*
X15010Y2151D01*
X15023Y2166D01*
X15028Y2173D01*
X15032Y2179D01*
X15036Y2186D01*
X15038Y2192D01*
X15040Y2198D01*
X15041Y2204D01*
X15042Y2209D01*
X15139Y2112D01*
D02*
G37*
G36*
X10616Y1224D02*
X10621Y1221D01*
X10626Y1219D01*
X10633Y1216D01*
X10640Y1214D01*
X10647Y1213D01*
X10656Y1212D01*
X10675Y1210D01*
X10686Y1210D01*
X10692Y1110D01*
X10681Y1110D01*
X10662Y1108D01*
X10654Y1107D01*
X10646Y1105D01*
X10639Y1103D01*
X10633Y1100D01*
X10627Y1097D01*
X10623Y1094D01*
X10619Y1090D01*
X10612Y1227D01*
X10616Y1224D01*
D02*
G37*
D17*
X10570Y1160D02*
X14090D01*
X15140Y2210D01*
X18180Y5020D02*
X18650Y4550D01*
X8000Y5020D02*
X18180D01*
X12450Y10250D02*
X17830Y15630D01*
X12290Y10250D02*
X12450D01*
X17830Y15630D02*
Y19910D01*
X10840Y5510D02*
X13541D01*
X13549Y5518D01*
X13530Y5499D02*
X13541Y5510D01*
X13549Y5739D02*
X15209Y7399D01*
X13549Y5518D02*
Y5739D01*
X16950Y15490D02*
Y19940D01*
X12000Y10540D02*
X16950Y15490D01*
X12000Y10530D02*
Y10540D01*
X11350Y10650D02*
Y11150D01*
X15490Y15290D02*
Y19940D01*
X11350Y11150D02*
X15490Y15290D01*
X15971Y15441D02*
Y20391D01*
X11654Y11124D02*
X15971Y15441D01*
X11654Y10565D02*
Y11124D01*
X18200Y5650D02*
Y7350D01*
X12700Y6500D02*
X13900D01*
X14200Y6800D01*
X0Y22441D02*
X28346D01*
X0Y0D02*
Y22441D01*
X28346D02*
X28346Y0D01*
X0D02*
X28346D01*
X5000Y10050D02*
X8750D01*
Y14550D01*
X5000Y10050D02*
Y14550D01*
X8750D01*
X19150Y14450D02*
X22900D01*
X19150Y11075D02*
Y13325D01*
X22900Y9950D02*
Y14450D01*
X19150Y9950D02*
X22900D01*
X19150Y13325D02*
Y14450D01*
Y9950D02*
Y11075D01*
X-1575Y22441D02*
X-1375Y21841D01*
X-1775D02*
X-1575Y22441D01*
X-1775Y600D02*
X-1575Y0D01*
X-1375Y600D01*
X-1575Y12570D02*
Y22441D01*
Y0D02*
Y9551D01*
X-1675Y22441D02*
X-150D01*
X-1675Y0D02*
X-150D01*
X0Y-1850D02*
X600Y-1650D01*
X0Y-1850D02*
X600Y-2050D01*
X27746D02*
X28346Y-1850D01*
X27746Y-1650D02*
X28346Y-1850D01*
X0D02*
X12504D01*
X15523D02*
X28346D01*
X0Y-1950D02*
Y-150D01*
X28346Y-1950D02*
Y-150D01*
D19*
X9173Y7424D02*
G03*
X9173Y7424I-197J0D01*
G01*
X22306Y3451D02*
G03*
X22306Y3451I-197J0D01*
G01*
X3804Y17815D02*
X7996D01*
X3804Y21615D02*
X7996D01*
X3804Y17815D02*
Y21615D01*
X7996Y17815D02*
Y21615D01*
X21759Y18972D02*
Y20428D01*
X19121Y18972D02*
Y20428D01*
X21759D01*
X19121Y18972D02*
X21759D01*
X8622Y5022D02*
Y7778D01*
X11378Y5022D02*
Y7778D01*
X8622D02*
X11378D01*
X8622Y5022D02*
X11378D01*
X20337Y5203D02*
X22463D01*
X20337Y3097D02*
X22463D01*
X20337D02*
Y5203D01*
X22463Y3097D02*
Y5203D01*
X10862Y12800D02*
Y14500D01*
X9838Y12800D02*
Y14500D01*
Y12800D02*
X10862D01*
X9838Y14500D02*
X10862D01*
X9803Y6400D02*
X10197D01*
X10000Y6203D02*
Y6597D01*
D20*
X-1815Y10111D02*
Y9711D01*
X-1515D01*
X-1615Y9911D01*
Y10011D01*
X-1515Y10111D01*
X-1315D01*
X-1215Y10011D01*
Y9811D01*
X-1315Y9711D01*
X-1815Y10311D02*
Y10711D01*
X-1715D01*
X-1315Y10311D01*
X-1215D01*
Y10911D02*
X-1315D01*
Y11010D01*
X-1215D01*
Y10911D01*
X-1715Y11410D02*
X-1815Y11510D01*
Y11710D01*
X-1715Y11810D01*
X-1315D01*
X-1215Y11710D01*
Y11510D01*
X-1315Y11410D01*
X-1715D01*
Y12010D02*
X-1815Y12110D01*
Y12310D01*
X-1715Y12410D01*
X-1315D01*
X-1215Y12310D01*
Y12110D01*
X-1315Y12010D01*
X-1715D01*
X12664Y-1610D02*
X13064D01*
Y-1710D01*
X12664Y-2110D01*
Y-2210D01*
X13663D02*
X13263D01*
X13663Y-1810D01*
Y-1710D01*
X13563Y-1610D01*
X13363D01*
X13263Y-1710D01*
X13863Y-2210D02*
Y-2110D01*
X13963D01*
Y-2210D01*
X13863D01*
X14363Y-1710D02*
X14463Y-1610D01*
X14663D01*
X14763Y-1710D01*
Y-2110D01*
X14663Y-2210D01*
X14463D01*
X14363Y-2110D01*
Y-1710D01*
X14963D02*
X15063Y-1610D01*
X15263D01*
X15363Y-1710D01*
Y-2110D01*
X15263Y-2210D01*
X15063D01*
X14963Y-2110D01*
Y-1710D01*
D21*
X8071Y4471D02*
Y8329D01*
X11929Y4471D02*
Y8329D01*
X8071D02*
X11929D01*
X8071Y4471D02*
X11929D01*
D22*
X10350Y11918D02*
Y12311D01*
X10153Y12115D02*
X10547D01*
X10153Y15028D02*
X10547D01*
D57*
X23540Y13716D02*
X23560Y13696D01*
X23540Y13716D02*
Y13720D01*
X23560Y10920D02*
Y13696D01*
X21890Y5794D02*
Y8247D01*
X21860Y5764D02*
X21890Y5794D01*
X21860Y5760D02*
Y5764D01*
X24680Y8712D02*
X26850Y10882D01*
X24680Y4890D02*
Y8712D01*
X20030Y1784D02*
Y3030D01*
Y1784D02*
X20040Y1774D01*
Y1770D02*
Y1774D01*
D58*
X15863Y5953D02*
X17110Y7200D01*
X15863Y5633D02*
Y5953D01*
X15860Y5630D02*
X15863Y5633D01*
X7400Y5630D02*
Y7760D01*
X7350Y5164D02*
X9204Y3310D01*
X7368Y5598D02*
X7400Y5630D01*
X7368Y5482D02*
Y5598D01*
X7350Y5463D02*
X7368Y5482D01*
X7350Y5164D02*
Y5463D01*
X9204Y3310D02*
X10200D01*
X10820Y3890D02*
X10860D01*
X10240Y3310D02*
X10820Y3890D01*
X10200Y3310D02*
X10240D01*
X4940Y5530D02*
X7269D01*
X7369Y5630D01*
X7400D01*
X24040Y14020D02*
X26810Y16790D01*
X24040Y1500D02*
Y14020D01*
D60*
X14050Y21500D02*
D03*
X15050D02*
D03*
X15971D02*
D03*
X16971D02*
D03*
X17971D02*
D03*
X18971D02*
D03*
X27450Y4200D02*
D03*
X26450Y5200D02*
D03*
X27450D02*
D03*
X26450Y4200D02*
D03*
Y3121D02*
D03*
X27450Y3200D02*
D03*
X26450Y2121D02*
D03*
X27450D02*
D03*
D61*
X1550Y12850D02*
D03*
Y10882D02*
D03*
X26850Y12850D02*
D03*
Y10882D02*
D03*
D62*
X787Y21654D02*
D03*
X27559D02*
D03*
Y787D02*
D03*
X787D02*
D03*
D63*
X10545Y1155D02*
D03*
X15140Y2210D02*
D03*
X8000Y5020D02*
D03*
X11640Y16430D02*
D03*
X12040Y15020D02*
D03*
X9080Y21390D02*
D03*
X10410D02*
D03*
X27120Y19910D02*
D03*
Y18740D02*
D03*
X26850Y7830D02*
D03*
X26840Y8600D02*
D03*
X25810Y20800D02*
D03*
X5263Y19407D02*
D03*
X5690D02*
D03*
X6117D02*
D03*
X4837D02*
D03*
X6970D02*
D03*
X7397D02*
D03*
X6543D02*
D03*
X5263Y19833D02*
D03*
X5690D02*
D03*
X6117D02*
D03*
X4837D02*
D03*
X6970D02*
D03*
X7397D02*
D03*
X6543D02*
D03*
X5263Y20260D02*
D03*
X5690D02*
D03*
X6117D02*
D03*
X4837D02*
D03*
X6970D02*
D03*
X7397D02*
D03*
X6543D02*
D03*
X5263Y20687D02*
D03*
X5690D02*
D03*
X6117D02*
D03*
X4837D02*
D03*
X6970D02*
D03*
X7397D02*
D03*
X6543D02*
D03*
X5263Y21113D02*
D03*
X5690D02*
D03*
X6117D02*
D03*
X4837D02*
D03*
X6970D02*
D03*
X7397D02*
D03*
X6543D02*
D03*
X5263Y21540D02*
D03*
X5690D02*
D03*
X6117D02*
D03*
X4837D02*
D03*
X6970D02*
D03*
X7397D02*
D03*
X6543D02*
D03*
Y21967D02*
D03*
X7397D02*
D03*
X6970D02*
D03*
X4837D02*
D03*
X6117D02*
D03*
X5690D02*
D03*
X5263D02*
D03*
X4410Y20260D02*
D03*
Y19833D02*
D03*
Y19407D02*
D03*
Y20687D02*
D03*
Y21113D02*
D03*
Y21540D02*
D03*
Y21967D02*
D03*
X17110Y7200D02*
D03*
X15860Y5630D02*
D03*
X17960Y12800D02*
D03*
X16460Y12690D02*
D03*
X13130Y14350D02*
D03*
X12000Y21385D02*
D03*
X24190Y20560D02*
D03*
Y21450D02*
D03*
Y19680D02*
D03*
Y18290D02*
D03*
X27040Y15780D02*
D03*
Y14220D02*
D03*
X9440Y790D02*
D03*
X7490D02*
D03*
X5090Y860D02*
D03*
X2980Y890D02*
D03*
X2940Y8240D02*
D03*
X2880Y9320D02*
D03*
X2600Y14480D02*
D03*
X15209Y7399D02*
D03*
X13530Y5499D02*
D03*
X10840Y5510D02*
D03*
X17830Y19910D02*
D03*
X16950Y19940D02*
D03*
X15490D02*
D03*
X15971Y20391D02*
D03*
X12290Y10250D02*
D03*
X12000Y10530D02*
D03*
X11350Y10650D02*
D03*
X11654Y10565D02*
D03*
X18650Y4550D02*
D03*
X18200Y5650D02*
D03*
Y7350D02*
D03*
X12700Y6500D02*
D03*
X14200Y6800D02*
D03*
D64*
X7400Y7760D02*
D03*
X23540Y13720D02*
D03*
X23560Y10920D02*
D03*
X21890Y8247D02*
D03*
X21860Y5760D02*
D03*
X10860Y3890D02*
D03*
X10200Y3310D02*
D03*
X4940Y5530D02*
D03*
X7400Y5630D02*
D03*
X24680Y4890D02*
D03*
X20030Y3030D02*
D03*
X20040Y1770D02*
D03*
X26810Y16790D02*
D03*
X24040Y1500D02*
D03*
M02*
