G04*
G04 #@! TF.GenerationSoftware,Altium Limited,Altium Designer,20.0.13 (296)*
G04*
G04 Layer_Color=8388736*
%FSLAX24Y24*%
%MOIN*%
G70*
G01*
G75*
%ADD15C,0.0080*%
%ADD16C,0.0039*%
%ADD26R,0.0659X0.0537*%
%ADD27R,0.0537X0.0659*%
%ADD28R,0.0867X0.0592*%
%ADD29R,0.0828X0.0663*%
%ADD30R,0.1458X0.0946*%
%ADD31R,0.0474X0.0946*%
%ADD32O,0.0749X0.0150*%
%ADD33O,0.0150X0.0749*%
%ADD34R,0.0867X0.0474*%
%ADD35C,0.0671*%
%ADD36C,0.1458*%
D15*
X23650Y18144D02*
Y19700D01*
X0D02*
X23650D01*
Y-0D02*
Y18144D01*
X0Y-0D02*
X23622D01*
X0D02*
Y19700D01*
X18778Y9248D02*
Y10507D01*
X20747Y9248D02*
Y10507D01*
X18778D02*
X20747D01*
X18778Y9248D02*
X20747D01*
X3870Y3557D02*
Y5013D01*
X6508Y3557D02*
Y5013D01*
X3870Y3557D02*
X6508D01*
X3870Y5013D02*
X6508D01*
X14306Y6944D02*
Y12456D01*
X8794Y6944D02*
Y12456D01*
Y6944D02*
X14306D01*
X8794Y12456D02*
X14306D01*
D16*
X20668Y10232D02*
G03*
X20668Y10232I-197J0D01*
G01*
X14148Y7298D02*
G03*
X14148Y7298I-197J0D01*
G01*
D26*
X1693Y15112D02*
D03*
Y15812D02*
D03*
X6650Y8051D02*
D03*
Y7350D02*
D03*
X16737Y10881D02*
D03*
Y10180D02*
D03*
Y8011D02*
D03*
Y8711D02*
D03*
X19000Y7173D02*
D03*
Y6472D02*
D03*
X20536Y6483D02*
D03*
Y7184D02*
D03*
X18950Y11918D02*
D03*
Y12619D02*
D03*
X20536Y11899D02*
D03*
Y12600D02*
D03*
X16737Y13001D02*
D03*
Y12300D02*
D03*
Y14328D02*
D03*
Y15028D02*
D03*
X18950Y15028D02*
D03*
Y14328D02*
D03*
X20536Y14328D02*
D03*
Y15028D02*
D03*
X19520Y3213D02*
D03*
Y3913D02*
D03*
X17985Y3250D02*
D03*
Y3950D02*
D03*
X14800Y4106D02*
D03*
Y4806D02*
D03*
X8699Y5385D02*
D03*
Y4684D02*
D03*
X11314Y4059D02*
D03*
Y3359D02*
D03*
X3155Y7377D02*
D03*
Y6676D02*
D03*
X6762Y13400D02*
D03*
Y12700D02*
D03*
D27*
X4351Y10397D02*
D03*
X3650D02*
D03*
Y8913D02*
D03*
X4351D02*
D03*
X9308Y16102D02*
D03*
X10009D02*
D03*
X9286Y15089D02*
D03*
X9987D02*
D03*
X8214Y13600D02*
D03*
X8915D02*
D03*
X2300Y4950D02*
D03*
X1599D02*
D03*
X2300Y3365D02*
D03*
X1599D02*
D03*
D28*
X18975Y9405D02*
D03*
X20550Y10350D02*
D03*
Y9405D02*
D03*
X18975Y10350D02*
D03*
D29*
X15319Y13997D02*
D03*
Y15571D02*
D03*
X16210Y4787D02*
D03*
Y3213D02*
D03*
D30*
X5189Y3104D02*
D03*
D31*
X4283Y5466D02*
D03*
X5189D02*
D03*
X6094D02*
D03*
D32*
X14522Y7338D02*
D03*
Y7535D02*
D03*
Y7732D02*
D03*
Y7928D02*
D03*
Y8125D02*
D03*
Y8322D02*
D03*
Y8519D02*
D03*
Y8716D02*
D03*
Y8913D02*
D03*
Y9109D02*
D03*
Y9306D02*
D03*
Y9503D02*
D03*
Y9700D02*
D03*
Y9897D02*
D03*
Y10094D02*
D03*
Y10291D02*
D03*
Y10487D02*
D03*
Y10684D02*
D03*
Y10881D02*
D03*
Y11078D02*
D03*
Y11275D02*
D03*
Y11472D02*
D03*
Y11669D02*
D03*
Y11865D02*
D03*
Y12062D02*
D03*
X8578D02*
D03*
Y11865D02*
D03*
Y11669D02*
D03*
Y11472D02*
D03*
Y11275D02*
D03*
Y11078D02*
D03*
Y10881D02*
D03*
Y10684D02*
D03*
Y10487D02*
D03*
Y10291D02*
D03*
Y10094D02*
D03*
Y9897D02*
D03*
Y9700D02*
D03*
Y9503D02*
D03*
Y9306D02*
D03*
Y9109D02*
D03*
Y8913D02*
D03*
Y8716D02*
D03*
Y8519D02*
D03*
Y8322D02*
D03*
Y8125D02*
D03*
Y7928D02*
D03*
Y7732D02*
D03*
Y7535D02*
D03*
Y7338D02*
D03*
D33*
X13912Y12672D02*
D03*
X13715D02*
D03*
X13519D02*
D03*
X13322D02*
D03*
X13125D02*
D03*
X12928D02*
D03*
X12731D02*
D03*
X12534D02*
D03*
X12337D02*
D03*
X12141D02*
D03*
X11944D02*
D03*
X11747D02*
D03*
X11550D02*
D03*
X11353D02*
D03*
X11156D02*
D03*
X10959D02*
D03*
X10763D02*
D03*
X10566D02*
D03*
X10369D02*
D03*
X10172D02*
D03*
X9975D02*
D03*
X9778D02*
D03*
X9582D02*
D03*
X9385D02*
D03*
X9188D02*
D03*
Y6728D02*
D03*
X9385D02*
D03*
X9582D02*
D03*
X9778D02*
D03*
X9975D02*
D03*
X10172D02*
D03*
X10369D02*
D03*
X10566D02*
D03*
X10763D02*
D03*
X10959D02*
D03*
X11156D02*
D03*
X11353D02*
D03*
X11550D02*
D03*
X11747D02*
D03*
X11944D02*
D03*
X12141D02*
D03*
X12337D02*
D03*
X12534D02*
D03*
X12731D02*
D03*
X12928D02*
D03*
X13125D02*
D03*
X13322D02*
D03*
X13519D02*
D03*
X13715D02*
D03*
X13912D02*
D03*
D34*
X4284Y15071D02*
D03*
Y16071D02*
D03*
X7827D02*
D03*
Y15071D02*
D03*
D35*
X23100Y10600D02*
D03*
Y11600D02*
D03*
Y12600D02*
D03*
Y13600D02*
D03*
Y3600D02*
D03*
Y4600D02*
D03*
Y5600D02*
D03*
Y6600D02*
D03*
Y7600D02*
D03*
Y8600D02*
D03*
X3450Y1484D02*
D03*
X2450Y484D02*
D03*
Y1484D02*
D03*
X3450Y484D02*
D03*
X4450D02*
D03*
Y1484D02*
D03*
X5450Y484D02*
D03*
Y1484D02*
D03*
X6450Y484D02*
D03*
Y1484D02*
D03*
X7450Y484D02*
D03*
Y1484D02*
D03*
X8450Y484D02*
D03*
Y1484D02*
D03*
X9450Y484D02*
D03*
Y1484D02*
D03*
X10450Y484D02*
D03*
Y1484D02*
D03*
X11450Y484D02*
D03*
Y1484D02*
D03*
X12450Y484D02*
D03*
Y1484D02*
D03*
X13450Y484D02*
D03*
Y1484D02*
D03*
X14450Y484D02*
D03*
Y1484D02*
D03*
X15450Y484D02*
D03*
Y1484D02*
D03*
X16450Y484D02*
D03*
Y1484D02*
D03*
X17450Y484D02*
D03*
Y1484D02*
D03*
X18450Y484D02*
D03*
Y1484D02*
D03*
X19450Y484D02*
D03*
Y1484D02*
D03*
X20450Y484D02*
D03*
Y1484D02*
D03*
X21450Y484D02*
D03*
Y1484D02*
D03*
X484Y12150D02*
D03*
X1484Y13150D02*
D03*
Y12150D02*
D03*
X484Y13150D02*
D03*
X1484Y7350D02*
D03*
X484D02*
D03*
X1484Y8350D02*
D03*
X484D02*
D03*
Y9350D02*
D03*
X1484Y10350D02*
D03*
X484D02*
D03*
X1484Y9350D02*
D03*
X3450Y19216D02*
D03*
X2450Y18216D02*
D03*
Y19216D02*
D03*
X3450Y18216D02*
D03*
X4450D02*
D03*
Y19216D02*
D03*
X5450Y18216D02*
D03*
Y19216D02*
D03*
X6450Y18216D02*
D03*
Y19216D02*
D03*
X7450Y18216D02*
D03*
Y19216D02*
D03*
X8450Y18216D02*
D03*
Y19216D02*
D03*
X9450Y18216D02*
D03*
Y19216D02*
D03*
X10450Y18216D02*
D03*
Y19216D02*
D03*
X11450Y18216D02*
D03*
Y19216D02*
D03*
X12450Y18216D02*
D03*
Y19216D02*
D03*
X13450Y18216D02*
D03*
Y19216D02*
D03*
X14450Y18216D02*
D03*
Y19216D02*
D03*
X15450Y18216D02*
D03*
Y19216D02*
D03*
X16450Y18216D02*
D03*
Y19216D02*
D03*
X17450Y18216D02*
D03*
Y19216D02*
D03*
X18450Y18216D02*
D03*
Y19216D02*
D03*
X19450Y18216D02*
D03*
Y19216D02*
D03*
X20450Y18216D02*
D03*
Y19216D02*
D03*
X21450Y18216D02*
D03*
Y19216D02*
D03*
D36*
X22863Y18898D02*
D03*
X787D02*
D03*
X22863Y787D02*
D03*
X787D02*
D03*
M02*
