G04*
G04 #@! TF.GenerationSoftware,Altium Limited,Altium Designer,20.0.13 (296)*
G04*
G04 Layer_Color=16711935*
%FSLAX24Y24*%
%MOIN*%
G70*
G01*
G75*
%ADD15C,0.0080*%
%ADD16C,0.0039*%
%ADD35C,0.0671*%
%ADD36C,0.1458*%
D15*
X23650Y18144D02*
Y19700D01*
X0D02*
X23650D01*
Y-0D02*
Y18144D01*
X0Y-0D02*
X23622D01*
X0D02*
Y19700D01*
X18778Y9248D02*
Y10507D01*
X20747Y9248D02*
Y10507D01*
X18778D02*
X20747D01*
X18778Y9248D02*
X20747D01*
X3870Y3557D02*
Y5013D01*
X6508Y3557D02*
Y5013D01*
X3870Y3557D02*
X6508D01*
X3870Y5013D02*
X6508D01*
X14306Y6944D02*
Y12456D01*
X8794Y6944D02*
Y12456D01*
Y6944D02*
X14306D01*
X8794Y12456D02*
X14306D01*
D16*
X20668Y10232D02*
G03*
X20668Y10232I-197J0D01*
G01*
X14148Y7298D02*
G03*
X14148Y7298I-197J0D01*
G01*
D35*
X23100Y10600D02*
D03*
Y11600D02*
D03*
Y12600D02*
D03*
Y13600D02*
D03*
Y3600D02*
D03*
Y4600D02*
D03*
Y5600D02*
D03*
Y6600D02*
D03*
Y7600D02*
D03*
Y8600D02*
D03*
X3450Y1484D02*
D03*
X2450Y484D02*
D03*
Y1484D02*
D03*
X3450Y484D02*
D03*
X4450D02*
D03*
Y1484D02*
D03*
X5450Y484D02*
D03*
Y1484D02*
D03*
X6450Y484D02*
D03*
Y1484D02*
D03*
X7450Y484D02*
D03*
Y1484D02*
D03*
X8450Y484D02*
D03*
Y1484D02*
D03*
X9450Y484D02*
D03*
Y1484D02*
D03*
X10450Y484D02*
D03*
Y1484D02*
D03*
X11450Y484D02*
D03*
Y1484D02*
D03*
X12450Y484D02*
D03*
Y1484D02*
D03*
X13450Y484D02*
D03*
Y1484D02*
D03*
X14450Y484D02*
D03*
Y1484D02*
D03*
X15450Y484D02*
D03*
Y1484D02*
D03*
X16450Y484D02*
D03*
Y1484D02*
D03*
X17450Y484D02*
D03*
Y1484D02*
D03*
X18450Y484D02*
D03*
Y1484D02*
D03*
X19450Y484D02*
D03*
Y1484D02*
D03*
X20450Y484D02*
D03*
Y1484D02*
D03*
X21450Y484D02*
D03*
Y1484D02*
D03*
X484Y12150D02*
D03*
X1484Y13150D02*
D03*
Y12150D02*
D03*
X484Y13150D02*
D03*
X1484Y7350D02*
D03*
X484D02*
D03*
X1484Y8350D02*
D03*
X484D02*
D03*
Y9350D02*
D03*
X1484Y10350D02*
D03*
X484D02*
D03*
X1484Y9350D02*
D03*
X3450Y19216D02*
D03*
X2450Y18216D02*
D03*
Y19216D02*
D03*
X3450Y18216D02*
D03*
X4450D02*
D03*
Y19216D02*
D03*
X5450Y18216D02*
D03*
Y19216D02*
D03*
X6450Y18216D02*
D03*
Y19216D02*
D03*
X7450Y18216D02*
D03*
Y19216D02*
D03*
X8450Y18216D02*
D03*
Y19216D02*
D03*
X9450Y18216D02*
D03*
Y19216D02*
D03*
X10450Y18216D02*
D03*
Y19216D02*
D03*
X11450Y18216D02*
D03*
Y19216D02*
D03*
X12450Y18216D02*
D03*
Y19216D02*
D03*
X13450Y18216D02*
D03*
Y19216D02*
D03*
X14450Y18216D02*
D03*
Y19216D02*
D03*
X15450Y18216D02*
D03*
Y19216D02*
D03*
X16450Y18216D02*
D03*
Y19216D02*
D03*
X17450Y18216D02*
D03*
Y19216D02*
D03*
X18450Y18216D02*
D03*
Y19216D02*
D03*
X19450Y18216D02*
D03*
Y19216D02*
D03*
X20450Y18216D02*
D03*
Y19216D02*
D03*
X21450Y18216D02*
D03*
Y19216D02*
D03*
D36*
X22863Y18898D02*
D03*
X787D02*
D03*
X22863Y787D02*
D03*
X787D02*
D03*
M02*
