G04*
G04 #@! TF.GenerationSoftware,Altium Limited,Altium Designer,20.0.13 (296)*
G04*
G04 Layer_Color=8421504*
%FSLAX24Y24*%
%MOIN*%
G70*
G01*
G75*
%ADD15C,0.0080*%
%ADD16C,0.0039*%
%ADD17R,0.0579X0.0457*%
%ADD18R,0.0457X0.0579*%
%ADD19R,0.0787X0.0512*%
%ADD20R,0.0748X0.0583*%
%ADD21R,0.1378X0.0866*%
%ADD22R,0.0394X0.0866*%
%ADD23O,0.0709X0.0110*%
%ADD24O,0.0110X0.0709*%
%ADD25R,0.0787X0.0394*%
D15*
X23650Y18144D02*
Y19700D01*
X0D02*
X23650D01*
Y-0D02*
Y18144D01*
X0Y-0D02*
X23622D01*
X0D02*
Y19700D01*
X18778Y9248D02*
Y10507D01*
X20747Y9248D02*
Y10507D01*
X18778D02*
X20747D01*
X18778Y9248D02*
X20747D01*
X3870Y3557D02*
Y5013D01*
X6508Y3557D02*
Y5013D01*
X3870Y3557D02*
X6508D01*
X3870Y5013D02*
X6508D01*
X14306Y6944D02*
Y12456D01*
X8794Y6944D02*
Y12456D01*
Y6944D02*
X14306D01*
X8794Y12456D02*
X14306D01*
D16*
X20668Y10232D02*
G03*
X20668Y10232I-197J0D01*
G01*
X14148Y7298D02*
G03*
X14148Y7298I-197J0D01*
G01*
D17*
X1693Y15112D02*
D03*
Y15812D02*
D03*
X6650Y8051D02*
D03*
Y7350D02*
D03*
X16737Y10881D02*
D03*
Y10180D02*
D03*
Y8011D02*
D03*
Y8711D02*
D03*
X19000Y7173D02*
D03*
Y6472D02*
D03*
X20536Y6483D02*
D03*
Y7184D02*
D03*
X18950Y11918D02*
D03*
Y12619D02*
D03*
X20536Y11899D02*
D03*
Y12600D02*
D03*
X16737Y13001D02*
D03*
Y12300D02*
D03*
Y14328D02*
D03*
Y15028D02*
D03*
X18950Y15028D02*
D03*
Y14328D02*
D03*
X20536Y14328D02*
D03*
Y15028D02*
D03*
X19520Y3213D02*
D03*
Y3913D02*
D03*
X17985Y3250D02*
D03*
Y3950D02*
D03*
X14800Y4106D02*
D03*
Y4806D02*
D03*
X8699Y5385D02*
D03*
Y4684D02*
D03*
X11314Y4059D02*
D03*
Y3359D02*
D03*
X3155Y7377D02*
D03*
Y6676D02*
D03*
X6762Y13400D02*
D03*
Y12700D02*
D03*
D18*
X4351Y10397D02*
D03*
X3650D02*
D03*
Y8913D02*
D03*
X4351D02*
D03*
X9308Y16102D02*
D03*
X10009D02*
D03*
X9286Y15089D02*
D03*
X9987D02*
D03*
X8214Y13600D02*
D03*
X8915D02*
D03*
X2300Y4950D02*
D03*
X1599D02*
D03*
X2300Y3365D02*
D03*
X1599D02*
D03*
D19*
X18975Y9405D02*
D03*
X20550Y10350D02*
D03*
Y9405D02*
D03*
X18975Y10350D02*
D03*
D20*
X15319Y13997D02*
D03*
Y15571D02*
D03*
X16210Y4787D02*
D03*
Y3213D02*
D03*
D21*
X5189Y3104D02*
D03*
D22*
X4283Y5466D02*
D03*
X5189D02*
D03*
X6094D02*
D03*
D23*
X14522Y7338D02*
D03*
Y7535D02*
D03*
Y7732D02*
D03*
Y7928D02*
D03*
Y8125D02*
D03*
Y8322D02*
D03*
Y8519D02*
D03*
Y8716D02*
D03*
Y8913D02*
D03*
Y9109D02*
D03*
Y9306D02*
D03*
Y9503D02*
D03*
Y9700D02*
D03*
Y9897D02*
D03*
Y10094D02*
D03*
Y10291D02*
D03*
Y10487D02*
D03*
Y10684D02*
D03*
Y10881D02*
D03*
Y11078D02*
D03*
Y11275D02*
D03*
Y11472D02*
D03*
Y11669D02*
D03*
Y11865D02*
D03*
Y12062D02*
D03*
X8578D02*
D03*
Y11865D02*
D03*
Y11669D02*
D03*
Y11472D02*
D03*
Y11275D02*
D03*
Y11078D02*
D03*
Y10881D02*
D03*
Y10684D02*
D03*
Y10487D02*
D03*
Y10291D02*
D03*
Y10094D02*
D03*
Y9897D02*
D03*
Y9700D02*
D03*
Y9503D02*
D03*
Y9306D02*
D03*
Y9109D02*
D03*
Y8913D02*
D03*
Y8716D02*
D03*
Y8519D02*
D03*
Y8322D02*
D03*
Y8125D02*
D03*
Y7928D02*
D03*
Y7732D02*
D03*
Y7535D02*
D03*
Y7338D02*
D03*
D24*
X13912Y12672D02*
D03*
X13715D02*
D03*
X13519D02*
D03*
X13322D02*
D03*
X13125D02*
D03*
X12928D02*
D03*
X12731D02*
D03*
X12534D02*
D03*
X12337D02*
D03*
X12141D02*
D03*
X11944D02*
D03*
X11747D02*
D03*
X11550D02*
D03*
X11353D02*
D03*
X11156D02*
D03*
X10959D02*
D03*
X10763D02*
D03*
X10566D02*
D03*
X10369D02*
D03*
X10172D02*
D03*
X9975D02*
D03*
X9778D02*
D03*
X9582D02*
D03*
X9385D02*
D03*
X9188D02*
D03*
Y6728D02*
D03*
X9385D02*
D03*
X9582D02*
D03*
X9778D02*
D03*
X9975D02*
D03*
X10172D02*
D03*
X10369D02*
D03*
X10566D02*
D03*
X10763D02*
D03*
X10959D02*
D03*
X11156D02*
D03*
X11353D02*
D03*
X11550D02*
D03*
X11747D02*
D03*
X11944D02*
D03*
X12141D02*
D03*
X12337D02*
D03*
X12534D02*
D03*
X12731D02*
D03*
X12928D02*
D03*
X13125D02*
D03*
X13322D02*
D03*
X13519D02*
D03*
X13715D02*
D03*
X13912D02*
D03*
D25*
X4284Y15071D02*
D03*
Y16071D02*
D03*
X7827D02*
D03*
Y15071D02*
D03*
M02*
