G04*
G04 #@! TF.GenerationSoftware,Altium Limited,Altium Designer,20.0.13 (296)*
G04*
G04 Layer_Physical_Order=2*
G04 Layer_Color=16711680*
%FSLAX24Y24*%
%MOIN*%
G70*
G01*
G75*
%ADD15C,0.0080*%
%ADD16C,0.0039*%
%ADD37C,0.0100*%
%ADD38C,0.0150*%
%ADD40C,0.0591*%
%ADD41C,0.1378*%
%ADD42C,0.0197*%
%ADD43C,0.0236*%
G36*
X22716Y19636D02*
X22575Y19593D01*
X22444Y19523D01*
X22330Y19430D01*
X22237Y19316D01*
X22167Y19186D01*
X22124Y19044D01*
X22110Y18898D01*
X22124Y18751D01*
X22167Y18610D01*
X22237Y18480D01*
X22330Y18365D01*
X22444Y18272D01*
X22575Y18202D01*
X22716Y18160D01*
X22863Y18145D01*
X23009Y18160D01*
X23151Y18202D01*
X23281Y18272D01*
X23395Y18365D01*
X23488Y18480D01*
X23558Y18610D01*
X23601Y18751D01*
X23650Y18745D01*
Y940D01*
X23601Y934D01*
X23558Y1075D01*
X23488Y1206D01*
X23395Y1320D01*
X23281Y1413D01*
X23151Y1483D01*
X23009Y1526D01*
X22863Y1540D01*
X22716Y1526D01*
X22575Y1483D01*
X22444Y1413D01*
X22330Y1320D01*
X22237Y1206D01*
X22167Y1075D01*
X22124Y934D01*
X22110Y787D01*
X22124Y641D01*
X22167Y499D01*
X22237Y369D01*
X22330Y255D01*
X22444Y162D01*
X22575Y92D01*
X22716Y49D01*
X22710Y0D01*
X1828D01*
X1823Y50D01*
X1829Y51D01*
X1895Y95D01*
X1938Y161D01*
X1944Y188D01*
X1559D01*
X1565Y161D01*
X1609Y95D01*
X1674Y51D01*
X1680Y50D01*
X1675Y0D01*
X940D01*
X934Y49D01*
X1075Y92D01*
X1206Y162D01*
X1320Y255D01*
X1413Y369D01*
X1483Y499D01*
X1526Y641D01*
X1540Y787D01*
X1526Y934D01*
X1483Y1075D01*
X1413Y1206D01*
X1320Y1320D01*
X1206Y1413D01*
X1075Y1483D01*
X934Y1526D01*
X787Y1540D01*
X641Y1526D01*
X499Y1483D01*
X369Y1413D01*
X255Y1320D01*
X162Y1206D01*
X92Y1075D01*
X49Y934D01*
X-0Y940D01*
Y18745D01*
X49Y18751D01*
X92Y18610D01*
X162Y18480D01*
X255Y18365D01*
X369Y18272D01*
X499Y18202D01*
X641Y18160D01*
X787Y18145D01*
X934Y18160D01*
X1075Y18202D01*
X1206Y18272D01*
X1320Y18365D01*
X1413Y18480D01*
X1483Y18610D01*
X1526Y18751D01*
X1540Y18898D01*
X1526Y19044D01*
X1483Y19186D01*
X1413Y19316D01*
X1320Y19430D01*
X1206Y19523D01*
X1075Y19593D01*
X934Y19636D01*
X940Y19685D01*
X22710Y19685D01*
X22716Y19636D01*
D02*
G37*
%LPC*%
G36*
X6450Y19574D02*
X6357Y19562D01*
X6271Y19526D01*
X6197Y19469D01*
X6140Y19395D01*
X6104Y19309D01*
X6092Y19216D01*
X6104Y19123D01*
X6140Y19037D01*
X6188Y18974D01*
X6165Y18930D01*
X6163Y18928D01*
X6150Y18931D01*
Y18788D01*
X6292D01*
X6287Y18816D01*
X6260Y18856D01*
X6293Y18896D01*
X6357Y18870D01*
X6450Y18857D01*
X6543Y18870D01*
X6629Y18905D01*
X6703Y18962D01*
X6760Y19037D01*
X6796Y19123D01*
X6808Y19216D01*
X6796Y19309D01*
X6760Y19395D01*
X6703Y19469D01*
X6629Y19526D01*
X6543Y19562D01*
X6450Y19574D01*
D02*
G37*
G36*
X21450D02*
X21357Y19562D01*
X21271Y19526D01*
X21197Y19469D01*
X21140Y19395D01*
X21104Y19309D01*
X21092Y19216D01*
X21104Y19123D01*
X21140Y19037D01*
X21197Y18962D01*
X21271Y18905D01*
X21357Y18870D01*
X21450Y18857D01*
X21543Y18870D01*
X21629Y18905D01*
X21703Y18962D01*
X21760Y19037D01*
X21796Y19123D01*
X21808Y19216D01*
X21796Y19309D01*
X21760Y19395D01*
X21703Y19469D01*
X21629Y19526D01*
X21543Y19562D01*
X21450Y19574D01*
D02*
G37*
G36*
X17450D02*
X17357Y19562D01*
X17271Y19526D01*
X17197Y19469D01*
X17140Y19395D01*
X17104Y19309D01*
X17092Y19216D01*
X17104Y19123D01*
X17140Y19037D01*
X17197Y18962D01*
X17271Y18905D01*
X17357Y18870D01*
X17450Y18857D01*
X17543Y18870D01*
X17629Y18905D01*
X17703Y18962D01*
X17760Y19037D01*
X17796Y19123D01*
X17808Y19216D01*
X17796Y19309D01*
X17760Y19395D01*
X17703Y19469D01*
X17629Y19526D01*
X17543Y19562D01*
X17450Y19574D01*
D02*
G37*
G36*
X15450D02*
X15357Y19562D01*
X15271Y19526D01*
X15197Y19469D01*
X15140Y19395D01*
X15104Y19309D01*
X15092Y19216D01*
X15104Y19123D01*
X15140Y19037D01*
X15197Y18962D01*
X15271Y18905D01*
X15357Y18870D01*
X15450Y18857D01*
X15543Y18870D01*
X15629Y18905D01*
X15703Y18962D01*
X15760Y19037D01*
X15796Y19123D01*
X15808Y19216D01*
X15796Y19309D01*
X15760Y19395D01*
X15703Y19469D01*
X15629Y19526D01*
X15543Y19562D01*
X15450Y19574D01*
D02*
G37*
G36*
X14450D02*
X14357Y19562D01*
X14271Y19526D01*
X14197Y19469D01*
X14140Y19395D01*
X14104Y19309D01*
X14092Y19216D01*
X14104Y19123D01*
X14140Y19037D01*
X14197Y18962D01*
X14271Y18905D01*
X14357Y18870D01*
X14450Y18857D01*
X14543Y18870D01*
X14629Y18905D01*
X14703Y18962D01*
X14760Y19037D01*
X14796Y19123D01*
X14808Y19216D01*
X14796Y19309D01*
X14760Y19395D01*
X14703Y19469D01*
X14629Y19526D01*
X14543Y19562D01*
X14450Y19574D01*
D02*
G37*
G36*
X13450D02*
X13357Y19562D01*
X13271Y19526D01*
X13197Y19469D01*
X13140Y19395D01*
X13104Y19309D01*
X13092Y19216D01*
X13104Y19123D01*
X13140Y19037D01*
X13197Y18962D01*
X13271Y18905D01*
X13357Y18870D01*
X13450Y18857D01*
X13543Y18870D01*
X13629Y18905D01*
X13703Y18962D01*
X13760Y19037D01*
X13796Y19123D01*
X13808Y19216D01*
X13796Y19309D01*
X13760Y19395D01*
X13703Y19469D01*
X13629Y19526D01*
X13543Y19562D01*
X13450Y19574D01*
D02*
G37*
G36*
X12450D02*
X12357Y19562D01*
X12271Y19526D01*
X12197Y19469D01*
X12140Y19395D01*
X12104Y19309D01*
X12092Y19216D01*
X12104Y19123D01*
X12140Y19037D01*
X12197Y18962D01*
X12271Y18905D01*
X12357Y18870D01*
X12450Y18857D01*
X12543Y18870D01*
X12629Y18905D01*
X12703Y18962D01*
X12760Y19037D01*
X12796Y19123D01*
X12808Y19216D01*
X12796Y19309D01*
X12760Y19395D01*
X12703Y19469D01*
X12629Y19526D01*
X12543Y19562D01*
X12450Y19574D01*
D02*
G37*
G36*
X11450D02*
X11357Y19562D01*
X11271Y19526D01*
X11197Y19469D01*
X11140Y19395D01*
X11104Y19309D01*
X11092Y19216D01*
X11104Y19123D01*
X11140Y19037D01*
X11197Y18962D01*
X11271Y18905D01*
X11357Y18870D01*
X11450Y18857D01*
X11543Y18870D01*
X11629Y18905D01*
X11703Y18962D01*
X11760Y19037D01*
X11796Y19123D01*
X11808Y19216D01*
X11796Y19309D01*
X11760Y19395D01*
X11703Y19469D01*
X11629Y19526D01*
X11543Y19562D01*
X11450Y19574D01*
D02*
G37*
G36*
X10450D02*
X10357Y19562D01*
X10271Y19526D01*
X10197Y19469D01*
X10140Y19395D01*
X10104Y19309D01*
X10092Y19216D01*
X10104Y19123D01*
X10140Y19037D01*
X10197Y18962D01*
X10271Y18905D01*
X10357Y18870D01*
X10450Y18857D01*
X10543Y18870D01*
X10629Y18905D01*
X10703Y18962D01*
X10760Y19037D01*
X10796Y19123D01*
X10808Y19216D01*
X10796Y19309D01*
X10760Y19395D01*
X10703Y19469D01*
X10629Y19526D01*
X10543Y19562D01*
X10450Y19574D01*
D02*
G37*
G36*
X8450D02*
X8357Y19562D01*
X8271Y19526D01*
X8197Y19469D01*
X8140Y19395D01*
X8104Y19309D01*
X8092Y19216D01*
X8104Y19123D01*
X8140Y19037D01*
X8197Y18962D01*
X8271Y18905D01*
X8357Y18870D01*
X8450Y18857D01*
X8543Y18870D01*
X8629Y18905D01*
X8703Y18962D01*
X8760Y19037D01*
X8796Y19123D01*
X8808Y19216D01*
X8796Y19309D01*
X8760Y19395D01*
X8703Y19469D01*
X8629Y19526D01*
X8543Y19562D01*
X8450Y19574D01*
D02*
G37*
G36*
X7450D02*
X7357Y19562D01*
X7271Y19526D01*
X7197Y19469D01*
X7140Y19395D01*
X7104Y19309D01*
X7092Y19216D01*
X7104Y19123D01*
X7140Y19037D01*
X7197Y18962D01*
X7271Y18905D01*
X7357Y18870D01*
X7450Y18857D01*
X7543Y18870D01*
X7629Y18905D01*
X7703Y18962D01*
X7760Y19037D01*
X7796Y19123D01*
X7808Y19216D01*
X7796Y19309D01*
X7760Y19395D01*
X7703Y19469D01*
X7629Y19526D01*
X7543Y19562D01*
X7450Y19574D01*
D02*
G37*
G36*
X5450D02*
X5357Y19562D01*
X5271Y19526D01*
X5197Y19469D01*
X5140Y19395D01*
X5104Y19309D01*
X5092Y19216D01*
X5104Y19123D01*
X5140Y19037D01*
X5197Y18962D01*
X5271Y18905D01*
X5357Y18870D01*
X5450Y18857D01*
X5543Y18870D01*
X5629Y18905D01*
X5703Y18962D01*
X5760Y19037D01*
X5796Y19123D01*
X5808Y19216D01*
X5796Y19309D01*
X5760Y19395D01*
X5703Y19469D01*
X5629Y19526D01*
X5543Y19562D01*
X5450Y19574D01*
D02*
G37*
G36*
X4450D02*
X4357Y19562D01*
X4271Y19526D01*
X4197Y19469D01*
X4140Y19395D01*
X4104Y19309D01*
X4092Y19216D01*
X4104Y19123D01*
X4140Y19037D01*
X4197Y18962D01*
X4271Y18905D01*
X4357Y18870D01*
X4450Y18857D01*
X4543Y18870D01*
X4629Y18905D01*
X4703Y18962D01*
X4760Y19037D01*
X4796Y19123D01*
X4808Y19216D01*
X4796Y19309D01*
X4760Y19395D01*
X4703Y19469D01*
X4629Y19526D01*
X4543Y19562D01*
X4450Y19574D01*
D02*
G37*
G36*
X3450D02*
X3357Y19562D01*
X3271Y19526D01*
X3197Y19469D01*
X3140Y19395D01*
X3104Y19309D01*
X3092Y19216D01*
X3104Y19123D01*
X3140Y19037D01*
X3197Y18962D01*
X3271Y18905D01*
X3357Y18870D01*
X3450Y18857D01*
X3543Y18870D01*
X3629Y18905D01*
X3703Y18962D01*
X3760Y19037D01*
X3796Y19123D01*
X3808Y19216D01*
X3796Y19309D01*
X3760Y19395D01*
X3703Y19469D01*
X3629Y19526D01*
X3543Y19562D01*
X3450Y19574D01*
D02*
G37*
G36*
X2450D02*
X2357Y19562D01*
X2271Y19526D01*
X2197Y19469D01*
X2140Y19395D01*
X2104Y19309D01*
X2092Y19216D01*
X2104Y19123D01*
X2140Y19037D01*
X2197Y18962D01*
X2271Y18905D01*
X2357Y18870D01*
X2450Y18857D01*
X2543Y18870D01*
X2629Y18905D01*
X2703Y18962D01*
X2760Y19037D01*
X2796Y19123D01*
X2808Y19216D01*
X2796Y19309D01*
X2760Y19395D01*
X2703Y19469D01*
X2629Y19526D01*
X2543Y19562D01*
X2450Y19574D01*
D02*
G37*
G36*
X9450D02*
X9357Y19562D01*
X9271Y19526D01*
X9197Y19469D01*
X9140Y19395D01*
X9104Y19309D01*
X9092Y19216D01*
X9104Y19123D01*
X9140Y19037D01*
X9197Y18962D01*
X9224Y18942D01*
X9222Y18892D01*
X9207Y18881D01*
X9163Y18816D01*
X9158Y18788D01*
X9542D01*
X9537Y18816D01*
X9532Y18823D01*
X9557Y18876D01*
X9629Y18905D01*
X9703Y18962D01*
X9760Y19037D01*
X9796Y19123D01*
X9808Y19216D01*
X9796Y19309D01*
X9760Y19395D01*
X9703Y19469D01*
X9629Y19526D01*
X9543Y19562D01*
X9450Y19574D01*
D02*
G37*
G36*
X6050Y18931D02*
X6023Y18925D01*
X5957Y18881D01*
X5913Y18816D01*
X5908Y18788D01*
X6050D01*
Y18931D01*
D02*
G37*
G36*
X20450Y19574D02*
X20357Y19562D01*
X20271Y19526D01*
X20197Y19469D01*
X20140Y19395D01*
X20104Y19309D01*
X20092Y19216D01*
X20104Y19123D01*
X20140Y19037D01*
X20197Y18962D01*
X20210Y18952D01*
X20193Y18902D01*
X20150D01*
X20111Y18894D01*
X20078Y18872D01*
X19942Y18736D01*
X19937Y18736D01*
X19891Y18756D01*
X19882Y18800D01*
X19847Y18853D01*
X19794Y18888D01*
X19733Y18900D01*
X19694Y18892D01*
X19673Y18939D01*
X19703Y18962D01*
X19760Y19037D01*
X19796Y19123D01*
X19808Y19216D01*
X19796Y19309D01*
X19760Y19395D01*
X19703Y19469D01*
X19629Y19526D01*
X19543Y19562D01*
X19450Y19574D01*
X19357Y19562D01*
X19271Y19526D01*
X19197Y19469D01*
X19140Y19395D01*
X19104Y19309D01*
X19092Y19216D01*
X19104Y19123D01*
X19140Y19037D01*
X19197Y18962D01*
X19271Y18905D01*
X19307Y18890D01*
X19297Y18840D01*
X18603D01*
X18593Y18890D01*
X18629Y18905D01*
X18703Y18962D01*
X18760Y19037D01*
X18796Y19123D01*
X18808Y19216D01*
X18796Y19309D01*
X18760Y19395D01*
X18703Y19469D01*
X18629Y19526D01*
X18543Y19562D01*
X18450Y19574D01*
X18357Y19562D01*
X18271Y19526D01*
X18197Y19469D01*
X18140Y19395D01*
X18104Y19309D01*
X18092Y19216D01*
X18104Y19123D01*
X18140Y19037D01*
X18197Y18962D01*
X18271Y18905D01*
X18307Y18890D01*
X18297Y18840D01*
X18194D01*
X18155Y18833D01*
X18122Y18811D01*
X17828Y18516D01*
X17806Y18483D01*
X17798Y18444D01*
Y18428D01*
X17748Y18411D01*
X17703Y18469D01*
X17629Y18526D01*
X17543Y18562D01*
X17450Y18574D01*
X17357Y18562D01*
X17271Y18526D01*
X17197Y18469D01*
X17140Y18395D01*
X17118Y18342D01*
X17068Y18352D01*
Y18543D01*
X17080Y18552D01*
X17115Y18604D01*
X17127Y18666D01*
X17115Y18728D01*
X17080Y18780D01*
X17028Y18815D01*
X16966Y18827D01*
X16904Y18815D01*
X16852Y18780D01*
X16817Y18728D01*
X16804Y18666D01*
X16817Y18604D01*
X16852Y18552D01*
X16864Y18543D01*
Y17328D01*
X14188Y14653D01*
X14174Y14656D01*
X14112Y14644D01*
X14060Y14609D01*
X14025Y14556D01*
X14012Y14494D01*
X14025Y14433D01*
X14060Y14380D01*
X14112Y14345D01*
X14174Y14333D01*
X14236Y14345D01*
X14267Y14366D01*
X14269Y14367D01*
X14300Y14328D01*
X13451Y13479D01*
X13397Y13495D01*
X13390Y13527D01*
X13355Y13580D01*
X13343Y13588D01*
Y14192D01*
X15997Y16846D01*
X16019Y16879D01*
X16027Y16918D01*
Y18648D01*
X16280Y18902D01*
X16357Y18870D01*
X16450Y18857D01*
X16543Y18870D01*
X16629Y18905D01*
X16703Y18962D01*
X16760Y19037D01*
X16796Y19123D01*
X16808Y19216D01*
X16796Y19309D01*
X16760Y19395D01*
X16703Y19469D01*
X16629Y19526D01*
X16543Y19562D01*
X16450Y19574D01*
X16357Y19562D01*
X16271Y19526D01*
X16197Y19469D01*
X16140Y19395D01*
X16104Y19309D01*
X16092Y19216D01*
X16104Y19123D01*
X16136Y19046D01*
X15853Y18763D01*
X15831Y18730D01*
X15823Y18691D01*
Y18375D01*
X15773Y18365D01*
X15760Y18395D01*
X15703Y18469D01*
X15629Y18526D01*
X15543Y18562D01*
X15450Y18574D01*
X15357Y18562D01*
X15271Y18526D01*
X15197Y18469D01*
X15140Y18395D01*
X15104Y18309D01*
X15092Y18216D01*
X15104Y18123D01*
X15140Y18037D01*
X15197Y17962D01*
X15271Y17905D01*
X15357Y17870D01*
X15450Y17857D01*
X15543Y17870D01*
X15629Y17905D01*
X15703Y17962D01*
X15760Y18037D01*
X15773Y18067D01*
X15823Y18057D01*
Y16960D01*
X13169Y14307D01*
X13147Y14274D01*
X13139Y14235D01*
Y13588D01*
X13127Y13580D01*
X13092Y13527D01*
X13080Y13465D01*
X13092Y13404D01*
X13127Y13351D01*
X13179Y13316D01*
X13241Y13304D01*
X13303Y13316D01*
X13308Y13319D01*
X13358Y13293D01*
Y11442D01*
X13346Y11434D01*
X13311Y11382D01*
X13299Y11320D01*
X13311Y11258D01*
X13346Y11206D01*
X13398Y11171D01*
X13460Y11158D01*
X13522Y11171D01*
X13574Y11206D01*
X13609Y11258D01*
X13622Y11320D01*
X13609Y11382D01*
X13574Y11434D01*
X13562Y11442D01*
Y13301D01*
X15924Y15663D01*
X15959Y15628D01*
X15087Y14733D01*
X15077Y14719D01*
X15067Y14704D01*
X15067Y14702D01*
X15065Y14700D01*
X15062Y14683D01*
X15058Y14666D01*
X14969Y12161D01*
X14952Y12150D01*
X14917Y12097D01*
X14905Y12036D01*
X14917Y11974D01*
X14952Y11921D01*
X15004Y11886D01*
X15066Y11874D01*
X15128Y11886D01*
X15148Y11900D01*
X15198Y11873D01*
Y11776D01*
X13457Y10034D01*
X13410Y10053D01*
Y10229D01*
X13903Y10721D01*
X13912Y10720D01*
X13974Y10732D01*
X14026Y10767D01*
X14061Y10819D01*
X14074Y10881D01*
X14061Y10943D01*
X14026Y10995D01*
X13974Y11030D01*
X13912Y11043D01*
X13850Y11030D01*
X13798Y10995D01*
X13763Y10943D01*
X13752Y10888D01*
X13219Y10355D01*
X13195Y10319D01*
X13186Y10276D01*
X13186Y10276D01*
Y7438D01*
X13075Y7327D01*
X12549D01*
X10964Y8913D01*
Y9906D01*
X10964Y9907D01*
X10955Y9949D01*
X10994Y9981D01*
X12629Y8346D01*
Y7854D01*
X12617Y7846D01*
X12582Y7793D01*
X12570Y7732D01*
X12582Y7670D01*
X12617Y7617D01*
X12669Y7582D01*
X12731Y7570D01*
X12793Y7582D01*
X12845Y7617D01*
X12880Y7670D01*
X12893Y7732D01*
X12880Y7793D01*
X12845Y7846D01*
X12833Y7854D01*
Y8388D01*
X12825Y8427D01*
X12803Y8460D01*
X8788Y12476D01*
Y14528D01*
X8800Y14537D01*
X8835Y14589D01*
X8847Y14651D01*
X8835Y14713D01*
X8800Y14765D01*
X8747Y14800D01*
X8686Y14812D01*
X8624Y14800D01*
X8571Y14765D01*
X8536Y14713D01*
X8524Y14651D01*
X8536Y14589D01*
X8571Y14537D01*
X8584Y14528D01*
Y12434D01*
X8591Y12395D01*
X8613Y12361D01*
X8971Y12004D01*
X8939Y11965D01*
X8896Y11974D01*
X8896Y11974D01*
X7357D01*
X7230Y12101D01*
X7254Y12147D01*
X7296Y12138D01*
X7358Y12151D01*
X7411Y12186D01*
X7422Y12203D01*
X8109D01*
X8115Y12193D01*
X8168Y12158D01*
X8230Y12145D01*
X8291Y12158D01*
X8344Y12193D01*
X8379Y12245D01*
X8391Y12307D01*
X8379Y12369D01*
X8344Y12421D01*
X8291Y12456D01*
X8230Y12468D01*
X8168Y12456D01*
X8115Y12421D01*
X8106Y12407D01*
X7416D01*
X7411Y12414D01*
X7358Y12449D01*
X7296Y12462D01*
X7235Y12449D01*
X7182Y12414D01*
X7147Y12362D01*
X7135Y12300D01*
X7143Y12258D01*
X7097Y12234D01*
X6676Y12655D01*
Y14169D01*
X7768D01*
X7786Y14142D01*
X7838Y14107D01*
X7900Y14095D01*
X7962Y14107D01*
X8014Y14142D01*
X8049Y14194D01*
X8062Y14256D01*
X8049Y14318D01*
X8014Y14371D01*
X7962Y14406D01*
X7900Y14418D01*
X7838Y14406D01*
X7820Y14394D01*
X6689D01*
X6680Y14407D01*
X6627Y14442D01*
X6565Y14455D01*
X6504Y14442D01*
X6451Y14407D01*
X6416Y14355D01*
X6404Y14293D01*
X6416Y14231D01*
X6451Y14179D01*
X6451Y14179D01*
Y12608D01*
X6451Y12608D01*
X6460Y12565D01*
X6484Y12529D01*
X7231Y11782D01*
X7268Y11758D01*
X7311Y11749D01*
X7311Y11749D01*
X8850D01*
X9043Y11557D01*
X9041Y11550D01*
X9054Y11488D01*
X9089Y11436D01*
X9141Y11401D01*
X9203Y11388D01*
X9209Y11390D01*
X10739Y9860D01*
Y8866D01*
X10739Y8866D01*
X10739Y8866D01*
Y8381D01*
X9532Y7174D01*
X9208D01*
X9193Y7224D01*
X9243Y7257D01*
X9287Y7323D01*
X9292Y7350D01*
X9023D01*
X9022Y7340D01*
X9017Y7347D01*
X9013Y7350D01*
X8908D01*
X8913Y7323D01*
X8957Y7257D01*
X9007Y7224D01*
X8992Y7174D01*
X8766D01*
X8721Y7204D01*
X8659Y7216D01*
X8637Y7212D01*
X8507Y7342D01*
X8471Y7366D01*
X8428Y7374D01*
X8428Y7374D01*
X7442D01*
X7427Y7421D01*
X7429Y7426D01*
X7475Y7457D01*
X7519Y7523D01*
X7524Y7550D01*
X7429D01*
X7429Y7550D01*
X7421Y7546D01*
X7415Y7542D01*
X7408Y7537D01*
X7402Y7531D01*
Y7550D01*
X7332D01*
Y7650D01*
X7402D01*
Y7669D01*
X7408Y7663D01*
X7415Y7658D01*
X7421Y7654D01*
X7429Y7650D01*
X7429Y7650D01*
X7524D01*
X7519Y7677D01*
X7475Y7743D01*
X7409Y7787D01*
X7359Y7797D01*
X7354Y7798D01*
X7357Y7835D01*
X7357D01*
X7357Y7835D01*
X7402Y7848D01*
X7586D01*
X7625Y7856D01*
X7658Y7878D01*
X8067Y8287D01*
X8090Y8320D01*
X8097Y8359D01*
Y8396D01*
X8110Y8405D01*
X8145Y8457D01*
X8157Y8519D01*
X8145Y8581D01*
X8110Y8633D01*
X8070Y8660D01*
X8085Y8710D01*
X8246D01*
X8991Y7964D01*
X8988Y7950D01*
X9001Y7888D01*
X9036Y7836D01*
X9088Y7801D01*
X9150Y7788D01*
X9212Y7801D01*
X9264Y7836D01*
X9299Y7888D01*
X9312Y7950D01*
X9299Y8012D01*
X9288Y8029D01*
X9327Y8060D01*
X9423Y7964D01*
X9420Y7950D01*
X9432Y7888D01*
X9467Y7836D01*
X9520Y7801D01*
X9582Y7788D01*
X9643Y7801D01*
X9696Y7836D01*
X9731Y7888D01*
X9743Y7950D01*
X9731Y8012D01*
X9696Y8064D01*
X9643Y8099D01*
X9582Y8112D01*
X9567Y8109D01*
X9204Y8471D01*
X9225Y8521D01*
X9978D01*
X10017Y8529D01*
X10050Y8551D01*
X10286Y8787D01*
X10308Y8820D01*
X10316Y8859D01*
Y9578D01*
X10328Y9586D01*
X10363Y9638D01*
X10375Y9700D01*
X10363Y9762D01*
X10328Y9814D01*
X10316Y9822D01*
Y10043D01*
X10308Y10082D01*
X10286Y10115D01*
X8779Y11622D01*
X8746Y11644D01*
X8707Y11652D01*
X2072D01*
X2064Y11664D01*
X2012Y11699D01*
X1950Y11712D01*
X1888Y11699D01*
X1836Y11664D01*
X1801Y11612D01*
X1788Y11550D01*
X1801Y11488D01*
X1825Y11452D01*
X1803Y11402D01*
X1300D01*
X1261Y11394D01*
X1228Y11372D01*
X555Y10699D01*
X484Y10708D01*
X392Y10696D01*
X305Y10660D01*
X231Y10603D01*
X174Y10529D01*
X138Y10443D01*
X126Y10350D01*
X138Y10257D01*
X174Y10171D01*
X231Y10097D01*
X305Y10040D01*
X392Y10004D01*
X484Y9992D01*
X577Y10004D01*
X663Y10040D01*
X738Y10097D01*
X795Y10171D01*
X830Y10257D01*
X843Y10350D01*
X830Y10443D01*
X795Y10529D01*
X742Y10598D01*
X1342Y11198D01*
X8258D01*
X9798Y9658D01*
Y9172D01*
X9786Y9164D01*
X9751Y9112D01*
X9738Y9050D01*
X9751Y8988D01*
X9786Y8936D01*
X9838Y8901D01*
X9900Y8888D01*
X9962Y8901D01*
X10014Y8936D01*
X10049Y8988D01*
X10062Y9050D01*
X10049Y9112D01*
X10014Y9164D01*
X10002Y9172D01*
Y9700D01*
X9994Y9739D01*
X9972Y9772D01*
X8372Y11372D01*
X8339Y11394D01*
X8320Y11398D01*
X8325Y11448D01*
X8665D01*
X10112Y10001D01*
Y9822D01*
X10100Y9814D01*
X10065Y9762D01*
X10052Y9700D01*
X10065Y9638D01*
X10100Y9586D01*
X10112Y9578D01*
Y8901D01*
X9936Y8725D01*
X9203D01*
X8500Y9428D01*
X8467Y9450D01*
X8428Y9458D01*
X5372D01*
X5364Y9470D01*
X5312Y9505D01*
X5250Y9517D01*
X5204Y9508D01*
X5154Y9537D01*
Y9935D01*
X5166Y9943D01*
X5201Y9996D01*
X5213Y10057D01*
X5201Y10119D01*
X5166Y10172D01*
X5113Y10207D01*
X5052Y10219D01*
X4990Y10207D01*
X4937Y10172D01*
X4902Y10119D01*
X4890Y10057D01*
X4902Y9996D01*
X4937Y9943D01*
X4950Y9935D01*
Y9274D01*
X4957Y9235D01*
X4979Y9201D01*
X5203Y8978D01*
X5225Y8964D01*
X5212Y8914D01*
X5131D01*
X3006Y11039D01*
X2973Y11061D01*
X2934Y11068D01*
X1516D01*
X1477Y11061D01*
X1444Y11039D01*
X928Y10522D01*
X906Y10489D01*
X898Y10450D01*
Y9892D01*
X665Y9659D01*
X663Y9660D01*
X577Y9696D01*
X484Y9708D01*
X392Y9696D01*
X305Y9660D01*
X231Y9603D01*
X174Y9529D01*
X138Y9443D01*
X126Y9350D01*
X138Y9257D01*
X174Y9171D01*
X231Y9097D01*
X305Y9040D01*
X392Y9004D01*
X484Y8992D01*
X577Y9004D01*
X663Y9040D01*
X738Y9097D01*
X795Y9171D01*
X830Y9257D01*
X843Y9350D01*
X830Y9443D01*
X803Y9509D01*
X1072Y9778D01*
X1094Y9811D01*
X1102Y9850D01*
Y10214D01*
X1152Y10224D01*
X1174Y10171D01*
X1231Y10097D01*
X1305Y10040D01*
X1392Y10004D01*
X1484Y9992D01*
X1577Y10004D01*
X1663Y10040D01*
X1738Y10097D01*
X1795Y10171D01*
X1830Y10257D01*
X1843Y10350D01*
X1830Y10443D01*
X1795Y10529D01*
X1738Y10603D01*
X1663Y10660D01*
X1577Y10696D01*
X1484Y10708D01*
X1472Y10707D01*
X1448Y10754D01*
X1559Y10865D01*
X2891D01*
X3107Y10649D01*
X3088Y10607D01*
X3083Y10602D01*
X2822D01*
X2814Y10614D01*
X2762Y10649D01*
X2700Y10662D01*
X2638Y10649D01*
X2586Y10614D01*
X2551Y10562D01*
X2538Y10500D01*
X2551Y10438D01*
X2586Y10386D01*
X2638Y10351D01*
X2700Y10338D01*
X2762Y10351D01*
X2814Y10386D01*
X2822Y10398D01*
X3043D01*
X4995Y8447D01*
X5028Y8425D01*
X5067Y8417D01*
X7838D01*
X7859Y8367D01*
X7544Y8052D01*
X4252D01*
X4213Y8044D01*
X4180Y8022D01*
X3962Y7804D01*
X3948Y7807D01*
X3886Y7795D01*
X3833Y7759D01*
X3798Y7707D01*
X3786Y7645D01*
X3798Y7583D01*
X3833Y7531D01*
X3886Y7496D01*
X3948Y7484D01*
X4009Y7496D01*
X4062Y7531D01*
X4097Y7583D01*
X4109Y7645D01*
X4106Y7660D01*
X4295Y7848D01*
X7262D01*
X7307Y7835D01*
X7307Y7835D01*
X7307D01*
X7311Y7798D01*
X7306Y7797D01*
X7255Y7787D01*
X7189Y7743D01*
X7145Y7677D01*
X7138Y7640D01*
X7138Y7640D01*
X7082Y7604D01*
X7076Y7605D01*
X7076Y7605D01*
X4602D01*
X4550Y7640D01*
X4489Y7652D01*
X4427Y7640D01*
X4374Y7605D01*
X4339Y7552D01*
X4327Y7490D01*
X4328Y7488D01*
X4166Y7327D01*
X3542D01*
X3010Y7859D01*
Y8599D01*
X3014Y8602D01*
X3049Y8654D01*
X3062Y8716D01*
X3049Y8778D01*
X3014Y8830D01*
X2962Y8865D01*
X2900Y8877D01*
X2838Y8865D01*
X2786Y8830D01*
X2751Y8778D01*
X2738Y8716D01*
X2751Y8654D01*
X2786Y8602D01*
X2786Y8601D01*
Y7812D01*
X2786Y7812D01*
X2795Y7769D01*
X2819Y7733D01*
X3417Y7135D01*
X3417Y7135D01*
X3453Y7111D01*
X3496Y7103D01*
X3496Y7103D01*
X4213D01*
X4213Y7103D01*
X4256Y7111D01*
X4292Y7135D01*
X4486Y7329D01*
X4489Y7329D01*
X4550Y7341D01*
X4603Y7376D01*
X4606Y7381D01*
X7030D01*
X7148Y7262D01*
X7147Y7256D01*
X7159Y7194D01*
X7194Y7141D01*
X7247Y7106D01*
X7308Y7094D01*
X7370Y7106D01*
X7423Y7141D01*
X7428Y7150D01*
X8381D01*
X8502Y7029D01*
X8510Y6993D01*
X8545Y6941D01*
X8597Y6905D01*
X8659Y6893D01*
X8721Y6905D01*
X8773Y6941D01*
X8779Y6949D01*
X9578D01*
X9578Y6949D01*
X9621Y6958D01*
X9658Y6982D01*
X10931Y8255D01*
X10955Y8292D01*
X10964Y8334D01*
X10964Y8334D01*
Y8530D01*
X11010Y8549D01*
X12423Y7135D01*
X12424Y7135D01*
X12460Y7111D01*
X12503Y7103D01*
X13122D01*
X13122Y7103D01*
X13164Y7111D01*
X13201Y7135D01*
X13378Y7312D01*
X13378Y7312D01*
X13402Y7348D01*
X13410Y7391D01*
Y8803D01*
X13457Y8822D01*
X13581Y8698D01*
Y8649D01*
X13569Y8641D01*
X13534Y8589D01*
X13521Y8527D01*
X13534Y8465D01*
X13569Y8412D01*
X13621Y8377D01*
X13669Y8368D01*
X13671Y8365D01*
X13676Y8317D01*
X13621Y8280D01*
X13577Y8214D01*
X13572Y8187D01*
X13956D01*
X13951Y8214D01*
X13907Y8280D01*
X13841Y8324D01*
X13774Y8337D01*
X13761Y8370D01*
X13759Y8387D01*
X13797Y8412D01*
X13832Y8465D01*
X13844Y8527D01*
X13832Y8589D01*
X13797Y8641D01*
X13799Y8687D01*
X13830Y8711D01*
Y8913D01*
Y9105D01*
X13803Y9100D01*
X13737Y9056D01*
X13693Y8990D01*
X13686Y8952D01*
X13631Y8935D01*
X13552Y9015D01*
Y9841D01*
X15058Y11348D01*
X15097Y11316D01*
X15071Y11277D01*
X15066Y11250D01*
X15258D01*
Y11200D01*
X15308D01*
Y11130D01*
X15327D01*
X15322Y11124D01*
X15317Y11117D01*
X15312Y11111D01*
X15309Y11103D01*
X15308Y11102D01*
Y11008D01*
X15336Y11013D01*
X15395Y11053D01*
X15421Y11046D01*
X15445Y11033D01*
Y10806D01*
X15433Y10797D01*
X15398Y10745D01*
X15386Y10683D01*
X15398Y10621D01*
X15433Y10569D01*
X15486Y10534D01*
X15547Y10522D01*
X15609Y10534D01*
X15662Y10569D01*
X15697Y10621D01*
X15709Y10683D01*
X15697Y10745D01*
X15662Y10797D01*
X15649Y10806D01*
Y11196D01*
X15699Y11204D01*
X15734Y11151D01*
X15786Y11116D01*
X15848Y11104D01*
X15910Y11116D01*
X15962Y11151D01*
X15997Y11204D01*
X16010Y11266D01*
X16009Y11268D01*
X16229Y11488D01*
X17484D01*
X17486Y11486D01*
X17538Y11451D01*
X17600Y11438D01*
X17602Y11439D01*
X18088Y10954D01*
Y9115D01*
X17785Y8812D01*
X17735D01*
X17730Y8811D01*
X17725Y8812D01*
X17712D01*
X17703Y8825D01*
X17651Y8861D01*
X17589Y8873D01*
X17527Y8861D01*
X17475Y8825D01*
X17466Y8812D01*
X16285D01*
X15905Y9192D01*
X15905Y9192D01*
X15905Y9192D01*
X15729Y9368D01*
X15693Y9392D01*
X15650Y9401D01*
X15650Y9401D01*
X15442D01*
X15442Y9401D01*
X15399Y9392D01*
X15363Y9368D01*
X15363Y9368D01*
X15317Y9321D01*
X15292Y9326D01*
X15230Y9314D01*
X15178Y9279D01*
X15143Y9226D01*
X15131Y9165D01*
X15143Y9103D01*
X15178Y9050D01*
X15230Y9015D01*
X15292Y9003D01*
X15333Y9011D01*
X15352Y8991D01*
X15367Y8969D01*
X15356Y8913D01*
X15368Y8851D01*
X15403Y8798D01*
X15456Y8763D01*
X15518Y8751D01*
X15532Y8754D01*
X16940Y7346D01*
X16973Y7324D01*
X17012Y7316D01*
X17976D01*
X18003Y7266D01*
X18000Y7250D01*
X18385D01*
X18381Y7266D01*
X18409Y7316D01*
X21316D01*
X21324Y7304D01*
X21377Y7269D01*
X21438Y7257D01*
X21500Y7269D01*
X21553Y7304D01*
X21588Y7357D01*
X21600Y7418D01*
X21588Y7480D01*
X21553Y7533D01*
X21500Y7568D01*
X21438Y7580D01*
X21377Y7568D01*
X21324Y7533D01*
X21316Y7520D01*
X17054D01*
X15676Y8898D01*
X15679Y8913D01*
X15667Y8974D01*
X15632Y9027D01*
X15579Y9062D01*
X15518Y9074D01*
X15477Y9066D01*
X15458Y9086D01*
X15443Y9109D01*
X15448Y9136D01*
X15489Y9176D01*
X15603D01*
X15747Y9033D01*
X15747Y9033D01*
X16159Y8621D01*
X16195Y8596D01*
X16238Y8588D01*
X16238Y8588D01*
X17488D01*
X17527Y8562D01*
X17589Y8550D01*
X17651Y8562D01*
X17689Y8588D01*
X17725D01*
X17730Y8589D01*
X17735Y8588D01*
X17831D01*
X17831Y8588D01*
X17874Y8596D01*
X17910Y8621D01*
X18279Y8990D01*
X18279Y8990D01*
X18304Y9026D01*
X18312Y9069D01*
X18312Y9069D01*
Y11000D01*
X18312Y11000D01*
X18304Y11043D01*
X18279Y11079D01*
X18279Y11079D01*
X17917Y11442D01*
X17936Y11488D01*
X17986D01*
X18547Y10927D01*
Y9247D01*
X18547Y9247D01*
X18555Y9204D01*
X18579Y9168D01*
X19126Y8621D01*
X19163Y8596D01*
X19206Y8588D01*
X19206Y8588D01*
X20322D01*
X20323Y8586D01*
X20325Y8584D01*
Y8363D01*
X20325Y8363D01*
X20334Y8320D01*
X20358Y8283D01*
X20821Y7821D01*
X20821Y7821D01*
X20857Y7796D01*
X20900Y7788D01*
X21804D01*
X22338Y7254D01*
Y5446D01*
X22297Y5406D01*
X22243Y5422D01*
X22237Y5452D01*
X22193Y5517D01*
X22127Y5561D01*
X22100Y5567D01*
Y5374D01*
X22050D01*
Y5324D01*
X21858D01*
X21863Y5297D01*
X21907Y5231D01*
X21973Y5187D01*
X22002Y5181D01*
X22019Y5127D01*
X20769Y3878D01*
X20466D01*
X20464Y3880D01*
X20412Y3915D01*
X20350Y3927D01*
X20288Y3915D01*
X20236Y3880D01*
X20201Y3828D01*
X20188Y3766D01*
X20201Y3704D01*
X20236Y3652D01*
X20288Y3617D01*
X20350Y3604D01*
X20412Y3617D01*
X20464Y3652D01*
X20466Y3654D01*
X20816D01*
X20816Y3654D01*
X20859Y3662D01*
X20895Y3686D01*
X22529Y5321D01*
X22529Y5321D01*
X22554Y5357D01*
X22562Y5400D01*
Y7300D01*
X22562Y7300D01*
X22554Y7343D01*
X22529Y7379D01*
X22529Y7379D01*
X21929Y7979D01*
X21893Y8004D01*
X21850Y8012D01*
X21850Y8012D01*
X20946D01*
X20550Y8409D01*
Y8584D01*
X20552Y8586D01*
X20587Y8638D01*
X20599Y8700D01*
X20587Y8762D01*
X20552Y8814D01*
X20550Y8816D01*
Y9341D01*
X22696Y11488D01*
X22762D01*
X22790Y11421D01*
X22847Y11347D01*
X22921Y11290D01*
X23007Y11254D01*
X23100Y11242D01*
X23193Y11254D01*
X23279Y11290D01*
X23353Y11347D01*
X23410Y11421D01*
X23446Y11507D01*
X23458Y11600D01*
X23446Y11693D01*
X23410Y11779D01*
X23353Y11853D01*
X23279Y11910D01*
X23193Y11946D01*
X23100Y11958D01*
X23007Y11946D01*
X22921Y11910D01*
X22847Y11853D01*
X22790Y11779D01*
X22762Y11712D01*
X22650D01*
X22650Y11712D01*
X22607Y11704D01*
X22571Y11679D01*
X20358Y9467D01*
X20334Y9430D01*
X20325Y9387D01*
X20325Y9387D01*
Y8816D01*
X20323Y8814D01*
X20322Y8812D01*
X19252D01*
X18771Y9293D01*
Y10974D01*
X18762Y11017D01*
X18738Y11053D01*
X18738Y11053D01*
X18112Y11679D01*
X18075Y11704D01*
X18032Y11712D01*
X18032Y11712D01*
X17716D01*
X17714Y11714D01*
X17712Y11716D01*
Y13125D01*
X17714Y13127D01*
X17749Y13179D01*
X17762Y13241D01*
X17749Y13303D01*
X17714Y13355D01*
X17662Y13390D01*
X17600Y13402D01*
X17538Y13390D01*
X17486Y13355D01*
X17451Y13303D01*
X17438Y13241D01*
X17451Y13179D01*
X17486Y13127D01*
X17488Y13125D01*
Y11716D01*
X17486Y11714D01*
X17484Y11712D01*
X16183D01*
X16183Y11712D01*
X16140Y11704D01*
X16103Y11679D01*
X16103Y11679D01*
X15851Y11427D01*
X15848Y11427D01*
X15786Y11415D01*
X15734Y11380D01*
X15699Y11327D01*
X15649Y11335D01*
Y12005D01*
X15655Y12009D01*
X15699Y12027D01*
X15738Y12001D01*
X15800Y11988D01*
X15862Y12001D01*
X15914Y12036D01*
X15949Y12088D01*
X15962Y12150D01*
X15949Y12212D01*
X15914Y12264D01*
X15902Y12272D01*
Y13716D01*
X17368Y15182D01*
X17372Y15182D01*
X17433Y15194D01*
X17486Y15229D01*
X17521Y15281D01*
X17533Y15343D01*
X17521Y15405D01*
X17486Y15457D01*
X17433Y15492D01*
X17372Y15505D01*
X17310Y15492D01*
X17257Y15457D01*
X17222Y15405D01*
X17210Y15343D01*
X17215Y15317D01*
X15728Y13830D01*
X15706Y13797D01*
X15699Y13765D01*
X15649Y13769D01*
Y13948D01*
X17586Y15885D01*
X17600Y15882D01*
X17662Y15894D01*
X17714Y15929D01*
X17722Y15941D01*
X18029D01*
X18448Y15523D01*
Y13241D01*
X18456Y13202D01*
X18478Y13169D01*
X19119Y12528D01*
X19152Y12506D01*
X19191Y12498D01*
X22758D01*
X22790Y12421D01*
X22847Y12347D01*
X22921Y12290D01*
X23007Y12254D01*
X23100Y12242D01*
X23193Y12254D01*
X23279Y12290D01*
X23353Y12347D01*
X23410Y12421D01*
X23446Y12507D01*
X23458Y12600D01*
X23446Y12693D01*
X23410Y12779D01*
X23353Y12853D01*
X23279Y12910D01*
X23193Y12946D01*
X23100Y12958D01*
X23007Y12946D01*
X22921Y12910D01*
X22847Y12853D01*
X22790Y12779D01*
X22758Y12702D01*
X19233D01*
X18941Y12994D01*
X18945Y13014D01*
X18961Y13045D01*
X19012Y13055D01*
X19064Y13090D01*
X19072Y13102D01*
X22704D01*
X22743Y13110D01*
X22776Y13132D01*
X22930Y13286D01*
X23007Y13254D01*
X23100Y13242D01*
X23193Y13254D01*
X23279Y13290D01*
X23353Y13347D01*
X23410Y13421D01*
X23446Y13507D01*
X23458Y13600D01*
X23446Y13693D01*
X23410Y13779D01*
X23353Y13853D01*
X23279Y13910D01*
X23202Y13942D01*
Y15566D01*
X23194Y15605D01*
X23172Y15638D01*
X21976Y16834D01*
X21999Y16881D01*
X22064Y16894D01*
X22130Y16938D01*
X22174Y17004D01*
X22179Y17031D01*
X21987D01*
Y17081D01*
X21937D01*
Y17274D01*
X21909Y17268D01*
X21844Y17224D01*
X21800Y17159D01*
X21787Y17094D01*
X21740Y17070D01*
X20764Y18046D01*
X20796Y18123D01*
X20808Y18216D01*
X20796Y18309D01*
X20760Y18395D01*
X20703Y18469D01*
X20629Y18526D01*
X20543Y18562D01*
X20450Y18574D01*
X20357Y18562D01*
X20271Y18526D01*
X20197Y18469D01*
X20140Y18395D01*
X20104Y18309D01*
X20092Y18216D01*
X20104Y18123D01*
X20140Y18037D01*
X20197Y17962D01*
X20271Y17905D01*
X20357Y17870D01*
X20450Y17857D01*
X20543Y17870D01*
X20620Y17902D01*
X22073Y16449D01*
X22071Y16439D01*
X22037Y16416D01*
Y16253D01*
X22199D01*
X22223Y16288D01*
X22232Y16289D01*
X22998Y15524D01*
Y13942D01*
X22921Y13910D01*
X22847Y13853D01*
X22790Y13779D01*
X22754Y13693D01*
X22742Y13600D01*
X22754Y13507D01*
X22786Y13430D01*
X22662Y13306D01*
X19072D01*
X19064Y13319D01*
X19012Y13354D01*
X18950Y13366D01*
X18888Y13354D01*
X18836Y13319D01*
X18801Y13266D01*
X18791Y13215D01*
X18760Y13199D01*
X18740Y13195D01*
X18652Y13283D01*
Y15565D01*
X18644Y15604D01*
X18622Y15637D01*
X18144Y16115D01*
X18111Y16137D01*
X18072Y16145D01*
X17722D01*
X17714Y16157D01*
X17662Y16192D01*
X17600Y16205D01*
X17538Y16192D01*
X17486Y16157D01*
X17451Y16105D01*
X17438Y16043D01*
X17441Y16029D01*
X15475Y14063D01*
X15453Y14030D01*
X15452Y14023D01*
X15402Y14028D01*
Y14562D01*
X15418Y14578D01*
X17222Y16323D01*
X17222Y16323D01*
X17223Y16324D01*
X17387Y16488D01*
X17388Y16489D01*
X17389Y16490D01*
X18372Y17532D01*
X18388Y17548D01*
X19741D01*
X19780Y17556D01*
X19814Y17578D01*
X19972Y17736D01*
X19994Y17770D01*
X20002Y17809D01*
Y18508D01*
X20192Y18698D01*
X20828D01*
X20836Y18686D01*
X20888Y18651D01*
X20950Y18638D01*
X21012Y18651D01*
X21064Y18686D01*
X21099Y18738D01*
X21112Y18800D01*
X21099Y18862D01*
X21064Y18914D01*
X21012Y18949D01*
X20950Y18962D01*
X20888Y18949D01*
X20836Y18914D01*
X20828Y18902D01*
X20707D01*
X20690Y18952D01*
X20703Y18962D01*
X20760Y19037D01*
X20796Y19123D01*
X20808Y19216D01*
X20796Y19309D01*
X20760Y19395D01*
X20703Y19469D01*
X20629Y19526D01*
X20543Y19562D01*
X20450Y19574D01*
D02*
G37*
G36*
X6292Y18688D02*
X6150D01*
Y18546D01*
X6177Y18551D01*
X6243Y18595D01*
X6287Y18661D01*
X6292Y18688D01*
D02*
G37*
G36*
X6050D02*
X5908D01*
X5913Y18661D01*
X5957Y18595D01*
X6023Y18551D01*
X6050Y18546D01*
Y18688D01*
D02*
G37*
G36*
X1802Y18408D02*
Y18266D01*
X1944D01*
X1938Y18293D01*
X1895Y18359D01*
X1829Y18403D01*
X1802Y18408D01*
D02*
G37*
G36*
X1702D02*
X1674Y18403D01*
X1609Y18359D01*
X1565Y18293D01*
X1559Y18266D01*
X1702D01*
Y18408D01*
D02*
G37*
G36*
X1944Y18166D02*
X1802D01*
Y18023D01*
X1829Y18029D01*
X1895Y18073D01*
X1938Y18138D01*
X1944Y18166D01*
D02*
G37*
G36*
X1702D02*
X1559D01*
X1565Y18138D01*
X1609Y18073D01*
X1674Y18029D01*
X1702Y18023D01*
Y18166D01*
D02*
G37*
G36*
X21450Y18574D02*
X21357Y18562D01*
X21271Y18526D01*
X21197Y18469D01*
X21140Y18395D01*
X21104Y18309D01*
X21092Y18216D01*
X21104Y18123D01*
X21140Y18037D01*
X21197Y17962D01*
X21271Y17905D01*
X21357Y17870D01*
X21450Y17857D01*
X21543Y17870D01*
X21629Y17905D01*
X21703Y17962D01*
X21760Y18037D01*
X21796Y18123D01*
X21808Y18216D01*
X21796Y18309D01*
X21760Y18395D01*
X21703Y18469D01*
X21629Y18526D01*
X21543Y18562D01*
X21450Y18574D01*
D02*
G37*
G36*
X16450D02*
X16357Y18562D01*
X16271Y18526D01*
X16197Y18469D01*
X16140Y18395D01*
X16104Y18309D01*
X16092Y18216D01*
X16104Y18123D01*
X16140Y18037D01*
X16197Y17962D01*
X16271Y17905D01*
X16357Y17870D01*
X16450Y17857D01*
X16543Y17870D01*
X16629Y17905D01*
X16703Y17962D01*
X16760Y18037D01*
X16796Y18123D01*
X16808Y18216D01*
X16796Y18309D01*
X16760Y18395D01*
X16703Y18469D01*
X16629Y18526D01*
X16543Y18562D01*
X16450Y18574D01*
D02*
G37*
G36*
X14450D02*
X14357Y18562D01*
X14271Y18526D01*
X14197Y18469D01*
X14140Y18395D01*
X14104Y18309D01*
X14092Y18216D01*
X14104Y18123D01*
X14140Y18037D01*
X14197Y17962D01*
X14271Y17905D01*
X14357Y17870D01*
X14450Y17857D01*
X14543Y17870D01*
X14629Y17905D01*
X14703Y17962D01*
X14760Y18037D01*
X14796Y18123D01*
X14808Y18216D01*
X14796Y18309D01*
X14760Y18395D01*
X14703Y18469D01*
X14629Y18526D01*
X14543Y18562D01*
X14450Y18574D01*
D02*
G37*
G36*
X13450D02*
X13357Y18562D01*
X13271Y18526D01*
X13197Y18469D01*
X13140Y18395D01*
X13104Y18309D01*
X13092Y18216D01*
X13104Y18123D01*
X13136Y18046D01*
X12319Y17229D01*
X10486D01*
X10447Y17221D01*
X10414Y17199D01*
X10198Y16983D01*
X10183Y16986D01*
X10122Y16974D01*
X10069Y16939D01*
X10048Y16906D01*
X9998Y16922D01*
Y17459D01*
X10014Y17470D01*
X10049Y17523D01*
X10062Y17585D01*
X10049Y17646D01*
X10014Y17699D01*
X9962Y17734D01*
X9900Y17746D01*
X9838Y17734D01*
X9786Y17699D01*
X9751Y17646D01*
X9738Y17585D01*
X9751Y17523D01*
X9786Y17470D01*
X9794Y17465D01*
Y16334D01*
X9797Y16318D01*
X9751Y16293D01*
X9568Y16476D01*
Y17178D01*
X9580Y17186D01*
X9615Y17238D01*
X9627Y17300D01*
X9615Y17362D01*
X9580Y17414D01*
X9528Y17449D01*
X9466Y17462D01*
X9404Y17449D01*
X9352Y17414D01*
X9317Y17362D01*
X9304Y17300D01*
X9317Y17238D01*
X9352Y17186D01*
X9364Y17178D01*
Y16453D01*
X9315Y16431D01*
X9052Y16694D01*
Y17028D01*
X9064Y17036D01*
X9099Y17088D01*
X9112Y17150D01*
X9099Y17212D01*
X9064Y17264D01*
X9012Y17299D01*
X8950Y17312D01*
X8888Y17299D01*
X8836Y17264D01*
X8801Y17212D01*
X8788Y17150D01*
X8801Y17088D01*
X8836Y17036D01*
X8848Y17028D01*
Y16652D01*
X8851Y16636D01*
X8805Y16612D01*
X8609Y16808D01*
X8612Y16823D01*
X8599Y16884D01*
X8564Y16937D01*
X8512Y16972D01*
X8450Y16984D01*
X8388Y16972D01*
X8336Y16937D01*
X8301Y16884D01*
X8289Y16826D01*
X8276Y16818D01*
X8241Y16803D01*
X8109Y16936D01*
X8112Y16950D01*
X8099Y17012D01*
X8064Y17064D01*
X8012Y17099D01*
X7950Y17112D01*
X7888Y17099D01*
X7836Y17064D01*
X7801Y17012D01*
X7788Y16950D01*
X7801Y16888D01*
X7836Y16836D01*
X7888Y16801D01*
X7950Y16788D01*
X7964Y16791D01*
X8919Y15837D01*
Y13961D01*
X8927Y13922D01*
X8949Y13888D01*
X9423Y13414D01*
X9420Y13400D01*
X9432Y13338D01*
X9467Y13286D01*
X9520Y13251D01*
X9582Y13238D01*
X9643Y13251D01*
X9696Y13286D01*
X9731Y13338D01*
X9743Y13400D01*
X9731Y13462D01*
X9696Y13514D01*
X9643Y13549D01*
X9582Y13562D01*
X9567Y13559D01*
X9123Y14003D01*
Y14189D01*
X9169Y14208D01*
X9621Y13755D01*
X9618Y13741D01*
X9631Y13679D01*
X9666Y13627D01*
X9718Y13592D01*
X9780Y13579D01*
X9842Y13592D01*
X9894Y13627D01*
X9929Y13679D01*
X9941Y13741D01*
X9929Y13803D01*
X9894Y13855D01*
X9842Y13890D01*
X9780Y13903D01*
X9765Y13900D01*
X9518Y14148D01*
X9533Y14203D01*
X9575Y14231D01*
X9610Y14283D01*
X9622Y14345D01*
X9610Y14407D01*
X9575Y14459D01*
X9552Y14475D01*
Y16133D01*
X9601Y16155D01*
X9678Y16078D01*
Y14425D01*
X9686Y14386D01*
X9708Y14353D01*
X9842Y14219D01*
X9838Y14200D01*
X9851Y14138D01*
X9886Y14086D01*
X9938Y14051D01*
X10000Y14038D01*
X10062Y14051D01*
X10114Y14086D01*
X10149Y14138D01*
X10162Y14200D01*
X10149Y14262D01*
X10114Y14314D01*
X10062Y14349D01*
X10000Y14362D01*
X9990Y14360D01*
X9882Y14468D01*
Y16120D01*
X9879Y16136D01*
X9925Y16160D01*
X10098Y15987D01*
Y14528D01*
X10106Y14489D01*
X10128Y14456D01*
X10209Y14374D01*
X10206Y14356D01*
X10218Y14294D01*
X10253Y14242D01*
X10306Y14207D01*
X10367Y14194D01*
X10429Y14207D01*
X10482Y14242D01*
X10517Y14294D01*
X10529Y14356D01*
X10517Y14418D01*
X10482Y14470D01*
X10429Y14505D01*
X10367Y14517D01*
X10357Y14515D01*
X10302Y14570D01*
Y16029D01*
X10294Y16068D01*
X10272Y16101D01*
X9998Y16376D01*
Y16727D01*
X10048Y16742D01*
X10069Y16710D01*
X10122Y16675D01*
X10183Y16663D01*
X10245Y16675D01*
X10298Y16710D01*
X10333Y16763D01*
X10345Y16824D01*
X10342Y16839D01*
X10528Y17025D01*
X12361D01*
X12400Y17033D01*
X12433Y17055D01*
X13280Y17902D01*
X13357Y17870D01*
X13450Y17857D01*
X13543Y17870D01*
X13629Y17905D01*
X13703Y17962D01*
X13760Y18037D01*
X13796Y18123D01*
X13808Y18216D01*
X13796Y18309D01*
X13760Y18395D01*
X13703Y18469D01*
X13629Y18526D01*
X13543Y18562D01*
X13450Y18574D01*
D02*
G37*
G36*
X12450D02*
X12357Y18562D01*
X12271Y18526D01*
X12197Y18469D01*
X12140Y18395D01*
X12104Y18309D01*
X12092Y18216D01*
X12104Y18123D01*
X12140Y18037D01*
X12197Y17962D01*
X12271Y17905D01*
X12357Y17870D01*
X12450Y17857D01*
X12543Y17870D01*
X12629Y17905D01*
X12703Y17962D01*
X12760Y18037D01*
X12796Y18123D01*
X12808Y18216D01*
X12796Y18309D01*
X12760Y18395D01*
X12703Y18469D01*
X12629Y18526D01*
X12543Y18562D01*
X12450Y18574D01*
D02*
G37*
G36*
X11450D02*
X11357Y18562D01*
X11271Y18526D01*
X11197Y18469D01*
X11140Y18395D01*
X11104Y18309D01*
X11092Y18216D01*
X11104Y18123D01*
X11140Y18037D01*
X11197Y17962D01*
X11271Y17905D01*
X11357Y17870D01*
X11450Y17857D01*
X11543Y17870D01*
X11629Y17905D01*
X11703Y17962D01*
X11760Y18037D01*
X11796Y18123D01*
X11808Y18216D01*
X11796Y18309D01*
X11760Y18395D01*
X11703Y18469D01*
X11629Y18526D01*
X11543Y18562D01*
X11450Y18574D01*
D02*
G37*
G36*
X10450D02*
X10357Y18562D01*
X10271Y18526D01*
X10197Y18469D01*
X10140Y18395D01*
X10104Y18309D01*
X10092Y18216D01*
X10104Y18123D01*
X10140Y18037D01*
X10197Y17962D01*
X10271Y17905D01*
X10357Y17870D01*
X10450Y17857D01*
X10543Y17870D01*
X10629Y17905D01*
X10703Y17962D01*
X10760Y18037D01*
X10796Y18123D01*
X10808Y18216D01*
X10796Y18309D01*
X10760Y18395D01*
X10703Y18469D01*
X10629Y18526D01*
X10543Y18562D01*
X10450Y18574D01*
D02*
G37*
G36*
X9542Y18688D02*
X9158D01*
X9163Y18661D01*
X9207Y18595D01*
X9248Y18568D01*
X9248Y18567D01*
X9249Y18509D01*
X9197Y18469D01*
X9140Y18395D01*
X9104Y18309D01*
X9092Y18216D01*
X9104Y18123D01*
X9140Y18037D01*
X9197Y17962D01*
X9271Y17905D01*
X9357Y17870D01*
X9450Y17857D01*
X9543Y17870D01*
X9629Y17905D01*
X9703Y17962D01*
X9760Y18037D01*
X9796Y18123D01*
X9808Y18216D01*
X9796Y18309D01*
X9760Y18395D01*
X9703Y18469D01*
X9629Y18526D01*
X9543Y18562D01*
X9529Y18564D01*
X9507Y18617D01*
X9537Y18661D01*
X9542Y18688D01*
D02*
G37*
G36*
X8450Y18574D02*
X8357Y18562D01*
X8271Y18526D01*
X8197Y18469D01*
X8140Y18395D01*
X8104Y18309D01*
X8092Y18216D01*
X8104Y18123D01*
X8140Y18037D01*
X8197Y17962D01*
X8271Y17905D01*
X8357Y17870D01*
X8450Y17857D01*
X8543Y17870D01*
X8629Y17905D01*
X8703Y17962D01*
X8760Y18037D01*
X8796Y18123D01*
X8808Y18216D01*
X8796Y18309D01*
X8760Y18395D01*
X8703Y18469D01*
X8629Y18526D01*
X8543Y18562D01*
X8450Y18574D01*
D02*
G37*
G36*
X7450D02*
X7357Y18562D01*
X7271Y18526D01*
X7197Y18469D01*
X7140Y18395D01*
X7104Y18309D01*
X7092Y18216D01*
X7104Y18123D01*
X7140Y18037D01*
X7197Y17962D01*
X7271Y17905D01*
X7357Y17870D01*
X7450Y17857D01*
X7543Y17870D01*
X7629Y17905D01*
X7703Y17962D01*
X7760Y18037D01*
X7796Y18123D01*
X7808Y18216D01*
X7796Y18309D01*
X7760Y18395D01*
X7703Y18469D01*
X7629Y18526D01*
X7543Y18562D01*
X7450Y18574D01*
D02*
G37*
G36*
X6450D02*
X6357Y18562D01*
X6271Y18526D01*
X6197Y18469D01*
X6140Y18395D01*
X6104Y18309D01*
X6092Y18216D01*
X6104Y18123D01*
X6140Y18037D01*
X6197Y17962D01*
X6271Y17905D01*
X6357Y17870D01*
X6450Y17857D01*
X6543Y17870D01*
X6629Y17905D01*
X6703Y17962D01*
X6760Y18037D01*
X6796Y18123D01*
X6808Y18216D01*
X6796Y18309D01*
X6760Y18395D01*
X6703Y18469D01*
X6629Y18526D01*
X6543Y18562D01*
X6450Y18574D01*
D02*
G37*
G36*
X5450D02*
X5357Y18562D01*
X5271Y18526D01*
X5197Y18469D01*
X5140Y18395D01*
X5104Y18309D01*
X5092Y18216D01*
X5104Y18123D01*
X5140Y18037D01*
X5197Y17962D01*
X5271Y17905D01*
X5357Y17870D01*
X5450Y17857D01*
X5543Y17870D01*
X5629Y17905D01*
X5703Y17962D01*
X5760Y18037D01*
X5796Y18123D01*
X5808Y18216D01*
X5796Y18309D01*
X5760Y18395D01*
X5703Y18469D01*
X5629Y18526D01*
X5543Y18562D01*
X5450Y18574D01*
D02*
G37*
G36*
X4450D02*
X4357Y18562D01*
X4271Y18526D01*
X4197Y18469D01*
X4140Y18395D01*
X4104Y18309D01*
X4092Y18216D01*
X4104Y18123D01*
X4140Y18037D01*
X4197Y17962D01*
X4271Y17905D01*
X4357Y17870D01*
X4450Y17857D01*
X4543Y17870D01*
X4629Y17905D01*
X4703Y17962D01*
X4760Y18037D01*
X4796Y18123D01*
X4808Y18216D01*
X4796Y18309D01*
X4760Y18395D01*
X4703Y18469D01*
X4629Y18526D01*
X4543Y18562D01*
X4450Y18574D01*
D02*
G37*
G36*
X3450D02*
X3357Y18562D01*
X3271Y18526D01*
X3197Y18469D01*
X3140Y18395D01*
X3104Y18309D01*
X3092Y18216D01*
X3104Y18123D01*
X3140Y18037D01*
X3197Y17962D01*
X3271Y17905D01*
X3357Y17870D01*
X3450Y17857D01*
X3543Y17870D01*
X3629Y17905D01*
X3703Y17962D01*
X3760Y18037D01*
X3796Y18123D01*
X3808Y18216D01*
X3796Y18309D01*
X3760Y18395D01*
X3703Y18469D01*
X3629Y18526D01*
X3543Y18562D01*
X3450Y18574D01*
D02*
G37*
G36*
X2450D02*
X2357Y18562D01*
X2271Y18526D01*
X2197Y18469D01*
X2140Y18395D01*
X2104Y18309D01*
X2092Y18216D01*
X2104Y18123D01*
X2140Y18037D01*
X2197Y17962D01*
X2271Y17905D01*
X2357Y17870D01*
X2450Y17857D01*
X2543Y17870D01*
X2629Y17905D01*
X2703Y17962D01*
X2760Y18037D01*
X2796Y18123D01*
X2808Y18216D01*
X2796Y18309D01*
X2760Y18395D01*
X2703Y18469D01*
X2629Y18526D01*
X2543Y18562D01*
X2450Y18574D01*
D02*
G37*
G36*
X23150Y17942D02*
Y17800D01*
X23292D01*
X23287Y17827D01*
X23243Y17893D01*
X23177Y17937D01*
X23150Y17942D01*
D02*
G37*
G36*
X23050D02*
X23023Y17937D01*
X22957Y17893D01*
X22913Y17827D01*
X22908Y17800D01*
X23050D01*
Y17942D01*
D02*
G37*
G36*
X23292Y17700D02*
X23150D01*
Y17558D01*
X23177Y17563D01*
X23243Y17607D01*
X23287Y17673D01*
X23292Y17700D01*
D02*
G37*
G36*
X23050D02*
X22908D01*
X22913Y17673D01*
X22957Y17607D01*
X23023Y17563D01*
X23050Y17558D01*
Y17700D01*
D02*
G37*
G36*
X7650Y17642D02*
Y17500D01*
X7792D01*
X7787Y17527D01*
X7743Y17593D01*
X7677Y17637D01*
X7650Y17642D01*
D02*
G37*
G36*
X7550D02*
X7523Y17637D01*
X7457Y17593D01*
X7413Y17527D01*
X7408Y17500D01*
X7550D01*
Y17642D01*
D02*
G37*
G36*
X6150Y17542D02*
Y17400D01*
X6292D01*
X6287Y17427D01*
X6243Y17493D01*
X6177Y17537D01*
X6150Y17542D01*
D02*
G37*
G36*
X6050D02*
X6023Y17537D01*
X5957Y17493D01*
X5913Y17427D01*
X5908Y17400D01*
X6050D01*
Y17542D01*
D02*
G37*
G36*
X7792Y17400D02*
X7650D01*
Y17258D01*
X7677Y17263D01*
X7743Y17307D01*
X7787Y17373D01*
X7792Y17400D01*
D02*
G37*
G36*
X7550D02*
X7408D01*
X7413Y17373D01*
X7457Y17307D01*
X7523Y17263D01*
X7550Y17258D01*
Y17400D01*
D02*
G37*
G36*
X4340Y17342D02*
Y17200D01*
X4482D01*
X4477Y17227D01*
X4433Y17293D01*
X4367Y17337D01*
X4340Y17342D01*
D02*
G37*
G36*
X4240D02*
X4213Y17337D01*
X4147Y17293D01*
X4103Y17227D01*
X4098Y17200D01*
X4240D01*
Y17342D01*
D02*
G37*
G36*
X619D02*
Y17200D01*
X761D01*
X755Y17227D01*
X712Y17293D01*
X646Y17337D01*
X619Y17342D01*
D02*
G37*
G36*
X519D02*
X491Y17337D01*
X426Y17293D01*
X382Y17227D01*
X376Y17200D01*
X519D01*
Y17342D01*
D02*
G37*
G36*
X20023Y17304D02*
Y17162D01*
X20165D01*
X20159Y17190D01*
X20116Y17255D01*
X20050Y17299D01*
X20023Y17304D01*
D02*
G37*
G36*
X19923D02*
X19895Y17299D01*
X19830Y17255D01*
X19786Y17190D01*
X19780Y17162D01*
X19923D01*
Y17304D01*
D02*
G37*
G36*
X6292Y17300D02*
X6150D01*
Y17158D01*
X6177Y17163D01*
X6243Y17207D01*
X6287Y17273D01*
X6292Y17300D01*
D02*
G37*
G36*
X6050D02*
X5908D01*
X5913Y17273D01*
X5957Y17207D01*
X6023Y17163D01*
X6050Y17158D01*
Y17300D01*
D02*
G37*
G36*
X22037Y17274D02*
Y17131D01*
X22179D01*
X22174Y17159D01*
X22130Y17224D01*
X22064Y17268D01*
X22037Y17274D01*
D02*
G37*
G36*
X20944Y17268D02*
Y17125D01*
X21086D01*
X21081Y17153D01*
X21037Y17218D01*
X20971Y17262D01*
X20944Y17268D01*
D02*
G37*
G36*
X20844D02*
X20816Y17262D01*
X20751Y17218D01*
X20707Y17153D01*
X20701Y17125D01*
X20844D01*
Y17268D01*
D02*
G37*
G36*
X4482Y17100D02*
X4340D01*
Y16958D01*
X4367Y16963D01*
X4433Y17007D01*
X4477Y17073D01*
X4482Y17100D01*
D02*
G37*
G36*
X4240D02*
X4098D01*
X4103Y17073D01*
X4147Y17007D01*
X4213Y16963D01*
X4240Y16958D01*
Y17100D01*
D02*
G37*
G36*
X761D02*
X619D01*
Y16958D01*
X646Y16963D01*
X712Y17007D01*
X755Y17073D01*
X761Y17100D01*
D02*
G37*
G36*
X519D02*
X376D01*
X382Y17073D01*
X426Y17007D01*
X491Y16963D01*
X519Y16958D01*
Y17100D01*
D02*
G37*
G36*
X20165Y17062D02*
X20023D01*
Y16920D01*
X20050Y16925D01*
X20116Y16969D01*
X20159Y17035D01*
X20165Y17062D01*
D02*
G37*
G36*
X19923D02*
X19780D01*
X19786Y17035D01*
X19830Y16969D01*
X19895Y16925D01*
X19923Y16920D01*
Y17062D01*
D02*
G37*
G36*
X21086Y17025D02*
X20944D01*
Y16883D01*
X20971Y16888D01*
X21037Y16932D01*
X21081Y16998D01*
X21086Y17025D01*
D02*
G37*
G36*
X20844D02*
X20701D01*
X20707Y16998D01*
X20751Y16932D01*
X20816Y16888D01*
X20844Y16883D01*
Y17025D01*
D02*
G37*
G36*
X23150Y16635D02*
Y16492D01*
X23292D01*
X23287Y16520D01*
X23243Y16585D01*
X23177Y16629D01*
X23150Y16635D01*
D02*
G37*
G36*
X23050D02*
X23023Y16629D01*
X22957Y16585D01*
X22913Y16520D01*
X22908Y16492D01*
X23050D01*
Y16635D01*
D02*
G37*
G36*
X619Y16583D02*
Y16441D01*
X761D01*
X755Y16468D01*
X712Y16534D01*
X646Y16578D01*
X619Y16583D01*
D02*
G37*
G36*
X519D02*
X491Y16578D01*
X426Y16534D01*
X382Y16468D01*
X376Y16441D01*
X519D01*
Y16583D01*
D02*
G37*
G36*
X21937Y16396D02*
X21909Y16390D01*
X21844Y16346D01*
X21800Y16281D01*
X21795Y16253D01*
X21937D01*
Y16396D01*
D02*
G37*
G36*
X19650Y16392D02*
Y16250D01*
X19792D01*
X19787Y16277D01*
X19743Y16343D01*
X19677Y16387D01*
X19650Y16392D01*
D02*
G37*
G36*
X19550D02*
X19523Y16387D01*
X19457Y16343D01*
X19413Y16277D01*
X19408Y16250D01*
X19550D01*
Y16392D01*
D02*
G37*
G36*
X23292D02*
X23150D01*
Y16250D01*
X23177Y16255D01*
X23243Y16299D01*
X23287Y16365D01*
X23292Y16392D01*
D02*
G37*
G36*
X23050D02*
X22908D01*
X22913Y16365D01*
X22957Y16299D01*
X23023Y16255D01*
X23050Y16250D01*
Y16392D01*
D02*
G37*
G36*
X761Y16341D02*
X619D01*
Y16199D01*
X646Y16204D01*
X712Y16248D01*
X755Y16314D01*
X761Y16341D01*
D02*
G37*
G36*
X519D02*
X376D01*
X382Y16314D01*
X426Y16248D01*
X491Y16204D01*
X519Y16199D01*
Y16341D01*
D02*
G37*
G36*
X22179Y16153D02*
X22037D01*
Y16011D01*
X22064Y16016D01*
X22130Y16060D01*
X22174Y16126D01*
X22179Y16153D01*
D02*
G37*
G36*
X21937D02*
X21795D01*
X21800Y16126D01*
X21844Y16060D01*
X21909Y16016D01*
X21937Y16011D01*
Y16153D01*
D02*
G37*
G36*
X19792Y16150D02*
X19650D01*
Y16008D01*
X19677Y16013D01*
X19743Y16057D01*
X19787Y16123D01*
X19792Y16150D01*
D02*
G37*
G36*
X19550D02*
X19408D01*
X19413Y16123D01*
X19457Y16057D01*
X19523Y16013D01*
X19550Y16008D01*
Y16150D01*
D02*
G37*
G36*
X3200Y16042D02*
Y15900D01*
X3342D01*
X3337Y15927D01*
X3293Y15993D01*
X3227Y16037D01*
X3200Y16042D01*
D02*
G37*
G36*
X3100D02*
X3073Y16037D01*
X3007Y15993D01*
X2963Y15927D01*
X2958Y15900D01*
X3100D01*
Y16042D01*
D02*
G37*
G36*
X3342Y15800D02*
X3200D01*
Y15658D01*
X3227Y15663D01*
X3293Y15707D01*
X3337Y15773D01*
X3342Y15800D01*
D02*
G37*
G36*
X3100D02*
X2958D01*
X2963Y15773D01*
X3007Y15707D01*
X3073Y15663D01*
X3100Y15658D01*
Y15800D01*
D02*
G37*
G36*
X619Y15776D02*
Y15634D01*
X761D01*
X755Y15661D01*
X712Y15727D01*
X646Y15771D01*
X619Y15776D01*
D02*
G37*
G36*
X519D02*
X491Y15771D01*
X426Y15727D01*
X382Y15661D01*
X376Y15634D01*
X519D01*
Y15776D01*
D02*
G37*
G36*
X19700Y15764D02*
Y15621D01*
X19842D01*
X19837Y15649D01*
X19793Y15714D01*
X19727Y15758D01*
X19700Y15764D01*
D02*
G37*
G36*
X19600D02*
X19573Y15758D01*
X19507Y15714D01*
X19463Y15649D01*
X19458Y15621D01*
X19600D01*
Y15764D01*
D02*
G37*
G36*
X761Y15534D02*
X619D01*
Y15392D01*
X646Y15397D01*
X712Y15441D01*
X755Y15507D01*
X761Y15534D01*
D02*
G37*
G36*
X519D02*
X376D01*
X382Y15507D01*
X426Y15441D01*
X491Y15397D01*
X519Y15392D01*
Y15534D01*
D02*
G37*
G36*
X19842Y15521D02*
X19700D01*
Y15379D01*
X19727Y15384D01*
X19793Y15428D01*
X19837Y15494D01*
X19842Y15521D01*
D02*
G37*
G36*
X19600D02*
X19458D01*
X19463Y15494D01*
X19507Y15428D01*
X19573Y15384D01*
X19600Y15379D01*
Y15521D01*
D02*
G37*
G36*
X22037Y15442D02*
Y15300D01*
X22179D01*
X22174Y15327D01*
X22130Y15393D01*
X22064Y15437D01*
X22037Y15442D01*
D02*
G37*
G36*
X21937D02*
X21909Y15437D01*
X21844Y15393D01*
X21800Y15327D01*
X21795Y15300D01*
X21937D01*
Y15442D01*
D02*
G37*
G36*
X11373Y15384D02*
Y15242D01*
X11515D01*
X11510Y15269D01*
X11466Y15335D01*
X11400Y15379D01*
X11373Y15384D01*
D02*
G37*
G36*
X11273D02*
X11245Y15379D01*
X11180Y15335D01*
X11136Y15269D01*
X11130Y15242D01*
X11273D01*
Y15384D01*
D02*
G37*
G36*
X22179Y15200D02*
X22037D01*
Y15058D01*
X22064Y15063D01*
X22130Y15107D01*
X22174Y15173D01*
X22179Y15200D01*
D02*
G37*
G36*
X21937D02*
X21795D01*
X21800Y15173D01*
X21844Y15107D01*
X21909Y15063D01*
X21937Y15058D01*
Y15200D01*
D02*
G37*
G36*
X11515Y15142D02*
X11373D01*
Y15000D01*
X11400Y15005D01*
X11466Y15049D01*
X11510Y15114D01*
X11515Y15142D01*
D02*
G37*
G36*
X11211D02*
X11130D01*
X11136Y15114D01*
X11180Y15049D01*
X11245Y15005D01*
X11273Y15000D01*
Y15080D01*
X11267Y15076D01*
X11260Y15071D01*
X11253Y15065D01*
X11246Y15058D01*
X11189Y15115D01*
X11196Y15122D01*
X11202Y15129D01*
X11207Y15137D01*
X11211Y15142D01*
D02*
G37*
G36*
X10814Y15138D02*
Y14995D01*
X10834D01*
Y15014D01*
X10840Y15009D01*
X10847Y15004D01*
X10853Y15000D01*
X10861Y14996D01*
X10862Y14995D01*
X10957D01*
X10951Y15023D01*
X10907Y15088D01*
X10842Y15132D01*
X10814Y15138D01*
D02*
G37*
G36*
X10714D02*
X10687Y15132D01*
X10621Y15088D01*
X10577Y15023D01*
X10572Y14995D01*
X10714D01*
Y15138D01*
D02*
G37*
G36*
X619Y15072D02*
Y14930D01*
X761D01*
X755Y14957D01*
X712Y15023D01*
X646Y15067D01*
X619Y15072D01*
D02*
G37*
G36*
X519D02*
X491Y15067D01*
X426Y15023D01*
X382Y14957D01*
X376Y14930D01*
X519D01*
Y15072D01*
D02*
G37*
G36*
X10957Y14895D02*
X10862D01*
X10861Y14895D01*
X10853Y14891D01*
X10847Y14887D01*
X10840Y14882D01*
X10834Y14877D01*
Y14895D01*
X10814D01*
Y14753D01*
X10842Y14759D01*
X10907Y14802D01*
X10951Y14868D01*
X10957Y14895D01*
D02*
G37*
G36*
X10714D02*
X10572D01*
X10577Y14868D01*
X10621Y14802D01*
X10687Y14759D01*
X10714Y14753D01*
Y14895D01*
D02*
G37*
G36*
X761Y14830D02*
X619D01*
Y14687D01*
X646Y14693D01*
X712Y14737D01*
X755Y14802D01*
X761Y14830D01*
D02*
G37*
G36*
X519D02*
X376D01*
X382Y14802D01*
X426Y14737D01*
X491Y14693D01*
X519Y14687D01*
Y14830D01*
D02*
G37*
G36*
X17611Y14409D02*
Y14267D01*
X17754D01*
X17748Y14294D01*
X17704Y14360D01*
X17639Y14404D01*
X17611Y14409D01*
D02*
G37*
G36*
X17511D02*
X17484Y14404D01*
X17418Y14360D01*
X17374Y14294D01*
X17369Y14267D01*
X17511D01*
Y14409D01*
D02*
G37*
G36*
X22037Y14346D02*
Y14203D01*
X22179D01*
X22174Y14231D01*
X22130Y14296D01*
X22064Y14340D01*
X22037Y14346D01*
D02*
G37*
G36*
X21937D02*
X21909Y14340D01*
X21844Y14296D01*
X21800Y14231D01*
X21795Y14203D01*
X21937D01*
Y14346D01*
D02*
G37*
G36*
X17754Y14167D02*
X17611D01*
Y14025D01*
X17639Y14030D01*
X17704Y14074D01*
X17748Y14140D01*
X17754Y14167D01*
D02*
G37*
G36*
X17511D02*
X17369D01*
X17374Y14140D01*
X17418Y14074D01*
X17484Y14030D01*
X17511Y14025D01*
Y14167D01*
D02*
G37*
G36*
X22179Y14103D02*
X22037D01*
Y13961D01*
X22064Y13966D01*
X22130Y14010D01*
X22174Y14076D01*
X22179Y14103D01*
D02*
G37*
G36*
X21937D02*
X21795D01*
X21800Y14076D01*
X21844Y14010D01*
X21909Y13966D01*
X21937Y13961D01*
Y14103D01*
D02*
G37*
G36*
X6150Y14015D02*
Y13873D01*
X6292D01*
X6287Y13900D01*
X6243Y13966D01*
X6177Y14009D01*
X6150Y14015D01*
D02*
G37*
G36*
X6050D02*
X6023Y14009D01*
X5957Y13966D01*
X5913Y13900D01*
X5908Y13873D01*
X6050D01*
Y14015D01*
D02*
G37*
G36*
X19000Y13933D02*
Y13791D01*
X19142D01*
X19137Y13818D01*
X19093Y13884D01*
X19027Y13928D01*
X19000Y13933D01*
D02*
G37*
G36*
X18900D02*
X18873Y13928D01*
X18807Y13884D01*
X18763Y13818D01*
X18758Y13791D01*
X18900D01*
Y13933D01*
D02*
G37*
G36*
X6292Y13773D02*
X6150D01*
Y13630D01*
X6177Y13636D01*
X6243Y13679D01*
X6287Y13745D01*
X6292Y13773D01*
D02*
G37*
G36*
X6050D02*
X5908D01*
X5913Y13745D01*
X5957Y13679D01*
X6023Y13636D01*
X6050Y13630D01*
Y13773D01*
D02*
G37*
G36*
X19142Y13691D02*
X19000D01*
Y13549D01*
X19027Y13554D01*
X19093Y13598D01*
X19137Y13664D01*
X19142Y13691D01*
D02*
G37*
G36*
X18900D02*
X18758D01*
X18763Y13664D01*
X18807Y13598D01*
X18873Y13554D01*
X18900Y13549D01*
Y13691D01*
D02*
G37*
G36*
X4401Y13642D02*
Y13500D01*
X4544D01*
X4538Y13527D01*
X4494Y13593D01*
X4429Y13637D01*
X4401Y13642D01*
D02*
G37*
G36*
X4301D02*
X4274Y13637D01*
X4208Y13593D01*
X4164Y13527D01*
X4159Y13500D01*
X4301D01*
Y13642D01*
D02*
G37*
G36*
X4544Y13400D02*
X4401D01*
Y13258D01*
X4429Y13263D01*
X4494Y13307D01*
X4538Y13373D01*
X4544Y13400D01*
D02*
G37*
G36*
X4301D02*
X4159D01*
X4164Y13373D01*
X4208Y13307D01*
X4274Y13263D01*
X4301Y13258D01*
Y13400D01*
D02*
G37*
G36*
X534Y13542D02*
Y13200D01*
X876D01*
X869Y13253D01*
X830Y13349D01*
X766Y13432D01*
X684Y13495D01*
X587Y13535D01*
X534Y13542D01*
D02*
G37*
G36*
X1534D02*
Y13200D01*
X1876D01*
X1869Y13253D01*
X1830Y13349D01*
X1766Y13432D01*
X1684Y13495D01*
X1587Y13535D01*
X1534Y13542D01*
D02*
G37*
G36*
X434D02*
X381Y13535D01*
X285Y13495D01*
X202Y13432D01*
X139Y13349D01*
X99Y13253D01*
X92Y13200D01*
X434D01*
Y13542D01*
D02*
G37*
G36*
X1434D02*
X1381Y13535D01*
X1285Y13495D01*
X1202Y13432D01*
X1139Y13349D01*
X1099Y13253D01*
X1092Y13200D01*
X1434D01*
Y13542D01*
D02*
G37*
G36*
X1876Y13100D02*
X1534D01*
Y12758D01*
X1587Y12765D01*
X1684Y12805D01*
X1766Y12868D01*
X1830Y12951D01*
X1869Y13047D01*
X1876Y13100D01*
D02*
G37*
G36*
X876D02*
X534D01*
Y12758D01*
X587Y12765D01*
X684Y12805D01*
X766Y12868D01*
X830Y12951D01*
X869Y13047D01*
X876Y13100D01*
D02*
G37*
G36*
X1434D02*
X1092D01*
X1099Y13047D01*
X1139Y12951D01*
X1202Y12868D01*
X1285Y12805D01*
X1381Y12765D01*
X1434Y12758D01*
Y13100D01*
D02*
G37*
G36*
X434D02*
X92D01*
X99Y13047D01*
X139Y12951D01*
X202Y12868D01*
X285Y12805D01*
X381Y12765D01*
X434Y12758D01*
Y13100D01*
D02*
G37*
G36*
X18213Y12342D02*
Y12200D01*
X18355D01*
X18350Y12227D01*
X18306Y12293D01*
X18240Y12337D01*
X18213Y12342D01*
D02*
G37*
G36*
X18113D02*
X18086Y12337D01*
X18020Y12293D01*
X17976Y12227D01*
X17971Y12200D01*
X18113D01*
Y12342D01*
D02*
G37*
G36*
X534Y12542D02*
Y12200D01*
X876D01*
X869Y12253D01*
X830Y12349D01*
X766Y12432D01*
X684Y12495D01*
X587Y12535D01*
X534Y12542D01*
D02*
G37*
G36*
X1534D02*
Y12200D01*
X1876D01*
X1869Y12253D01*
X1830Y12349D01*
X1766Y12432D01*
X1684Y12495D01*
X1587Y12535D01*
X1534Y12542D01*
D02*
G37*
G36*
X434D02*
X381Y12535D01*
X285Y12495D01*
X202Y12432D01*
X139Y12349D01*
X99Y12253D01*
X92Y12200D01*
X434D01*
Y12542D01*
D02*
G37*
G36*
X1434D02*
X1381Y12535D01*
X1285Y12495D01*
X1202Y12432D01*
X1139Y12349D01*
X1099Y12253D01*
X1092Y12200D01*
X1434D01*
Y12542D01*
D02*
G37*
G36*
X21950Y12252D02*
Y12110D01*
X22092D01*
X22087Y12137D01*
X22043Y12203D01*
X21977Y12247D01*
X21950Y12252D01*
D02*
G37*
G36*
X21850D02*
X21823Y12247D01*
X21757Y12203D01*
X21713Y12137D01*
X21708Y12110D01*
X21850D01*
Y12252D01*
D02*
G37*
G36*
X18355Y12100D02*
X18213D01*
Y11958D01*
X18240Y11963D01*
X18306Y12007D01*
X18350Y12073D01*
X18355Y12100D01*
D02*
G37*
G36*
X18113D02*
X17971D01*
X17976Y12073D01*
X18020Y12007D01*
X18086Y11963D01*
X18113Y11958D01*
Y12100D01*
D02*
G37*
G36*
X22092Y12010D02*
X21950D01*
Y11867D01*
X21977Y11873D01*
X22043Y11917D01*
X22087Y11982D01*
X22092Y12010D01*
D02*
G37*
G36*
X21850D02*
X21708D01*
X21713Y11982D01*
X21757Y11917D01*
X21823Y11873D01*
X21850Y11867D01*
Y12010D01*
D02*
G37*
G36*
X1876Y12100D02*
X1534D01*
Y11758D01*
X1587Y11765D01*
X1684Y11805D01*
X1766Y11868D01*
X1830Y11951D01*
X1869Y12047D01*
X1876Y12100D01*
D02*
G37*
G36*
X876D02*
X534D01*
Y11758D01*
X587Y11765D01*
X684Y11805D01*
X766Y11868D01*
X830Y11951D01*
X869Y12047D01*
X876Y12100D01*
D02*
G37*
G36*
X1434D02*
X1092D01*
X1099Y12047D01*
X1139Y11951D01*
X1202Y11868D01*
X1285Y11805D01*
X1381Y11765D01*
X1434Y11758D01*
Y12100D01*
D02*
G37*
G36*
X434D02*
X92D01*
X99Y12047D01*
X139Y11951D01*
X202Y11868D01*
X285Y11805D01*
X381Y11765D01*
X434Y11758D01*
Y12100D01*
D02*
G37*
G36*
X21416Y11192D02*
Y11050D01*
X21558D01*
X21553Y11077D01*
X21509Y11143D01*
X21443Y11187D01*
X21416Y11192D01*
D02*
G37*
G36*
X21316D02*
X21288Y11187D01*
X21223Y11143D01*
X21179Y11077D01*
X21173Y11050D01*
X21316D01*
Y11192D01*
D02*
G37*
G36*
X19400D02*
Y11050D01*
X19542D01*
X19537Y11077D01*
X19493Y11143D01*
X19427Y11187D01*
X19400Y11192D01*
D02*
G37*
G36*
X19300D02*
X19273Y11187D01*
X19207Y11143D01*
X19163Y11077D01*
X19158Y11050D01*
X19300D01*
Y11192D01*
D02*
G37*
G36*
X15208Y11150D02*
X15066D01*
X15071Y11122D01*
X15115Y11057D01*
X15181Y11013D01*
X15208Y11008D01*
Y11102D01*
X15208Y11103D01*
X15204Y11111D01*
X15200Y11117D01*
X15195Y11124D01*
X15189Y11130D01*
X15208D01*
Y11150D01*
D02*
G37*
G36*
X11208Y11038D02*
Y10896D01*
X11350D01*
X11345Y10923D01*
X11301Y10989D01*
X11235Y11033D01*
X11208Y11038D01*
D02*
G37*
G36*
X11108D02*
X11080Y11033D01*
X11015Y10989D01*
X10971Y10923D01*
X10965Y10896D01*
X11108D01*
Y11038D01*
D02*
G37*
G36*
X21558Y10950D02*
X21416D01*
Y10808D01*
X21443Y10813D01*
X21509Y10857D01*
X21553Y10923D01*
X21558Y10950D01*
D02*
G37*
G36*
X21316D02*
X21173D01*
X21179Y10923D01*
X21223Y10857D01*
X21288Y10813D01*
X21316Y10808D01*
Y10950D01*
D02*
G37*
G36*
X19542D02*
X19400D01*
Y10808D01*
X19427Y10813D01*
X19493Y10857D01*
X19537Y10923D01*
X19542Y10950D01*
D02*
G37*
G36*
X19300D02*
X19158D01*
X19163Y10923D01*
X19207Y10857D01*
X19273Y10813D01*
X19300Y10808D01*
Y10950D01*
D02*
G37*
G36*
X11350Y10796D02*
X11208D01*
Y10653D01*
X11235Y10659D01*
X11301Y10703D01*
X11345Y10768D01*
X11350Y10796D01*
D02*
G37*
G36*
X11108D02*
X10965D01*
X10971Y10768D01*
X11015Y10703D01*
X11080Y10659D01*
X11108Y10653D01*
Y10796D01*
D02*
G37*
G36*
X23150Y10992D02*
Y10650D01*
X23492D01*
X23485Y10703D01*
X23445Y10799D01*
X23382Y10882D01*
X23299Y10945D01*
X23203Y10985D01*
X23150Y10992D01*
D02*
G37*
G36*
X23050D02*
X22997Y10985D01*
X22901Y10945D01*
X22818Y10882D01*
X22755Y10799D01*
X22715Y10703D01*
X22708Y10650D01*
X23050D01*
Y10992D01*
D02*
G37*
G36*
X17795Y10638D02*
Y10496D01*
X17938D01*
X17932Y10523D01*
X17888Y10589D01*
X17823Y10633D01*
X17795Y10638D01*
D02*
G37*
G36*
X17695D02*
X17668Y10633D01*
X17602Y10589D01*
X17558Y10523D01*
X17553Y10496D01*
X17695D01*
Y10638D01*
D02*
G37*
G36*
X16140D02*
Y10496D01*
X16282D01*
X16276Y10523D01*
X16233Y10589D01*
X16167Y10633D01*
X16140Y10638D01*
D02*
G37*
G36*
X16040D02*
X16012Y10633D01*
X15946Y10589D01*
X15903Y10523D01*
X15897Y10496D01*
X15992D01*
X15993Y10496D01*
X16000Y10500D01*
X16007Y10504D01*
X16013Y10509D01*
X16019Y10515D01*
Y10496D01*
X16040D01*
Y10638D01*
D02*
G37*
G36*
Y10396D02*
X16019D01*
Y10377D01*
X16013Y10382D01*
X16007Y10387D01*
X16000Y10392D01*
X15993Y10395D01*
X15992Y10396D01*
X15897D01*
X15903Y10368D01*
X15946Y10303D01*
X16012Y10259D01*
X16040Y10253D01*
Y10396D01*
D02*
G37*
G36*
X22337Y10471D02*
Y10329D01*
X22479D01*
X22474Y10356D01*
X22430Y10422D01*
X22364Y10466D01*
X22337Y10471D01*
D02*
G37*
G36*
X22237D02*
X22209Y10466D01*
X22144Y10422D01*
X22100Y10356D01*
X22095Y10329D01*
X22237D01*
Y10471D01*
D02*
G37*
G36*
X17938Y10396D02*
X17795D01*
Y10253D01*
X17823Y10259D01*
X17888Y10303D01*
X17932Y10368D01*
X17938Y10396D01*
D02*
G37*
G36*
X17695D02*
X17553D01*
X17558Y10368D01*
X17602Y10303D01*
X17668Y10259D01*
X17695Y10253D01*
Y10396D01*
D02*
G37*
G36*
X16282D02*
X16140D01*
Y10253D01*
X16167Y10259D01*
X16233Y10303D01*
X16276Y10368D01*
X16282Y10396D01*
D02*
G37*
G36*
X23492Y10550D02*
X23150D01*
Y10208D01*
X23203Y10215D01*
X23299Y10255D01*
X23382Y10318D01*
X23445Y10401D01*
X23485Y10497D01*
X23492Y10550D01*
D02*
G37*
G36*
X23050D02*
X22708D01*
X22715Y10497D01*
X22755Y10401D01*
X22818Y10318D01*
X22901Y10255D01*
X22997Y10215D01*
X23050Y10208D01*
Y10550D01*
D02*
G37*
G36*
X22479Y10229D02*
X22337D01*
Y10087D01*
X22364Y10092D01*
X22430Y10136D01*
X22474Y10201D01*
X22479Y10229D01*
D02*
G37*
G36*
X22237D02*
X22095D01*
X22100Y10201D01*
X22144Y10136D01*
X22209Y10092D01*
X22237Y10087D01*
Y10229D01*
D02*
G37*
G36*
X5500Y10042D02*
Y9900D01*
X5642D01*
X5637Y9927D01*
X5593Y9993D01*
X5527Y10037D01*
X5500Y10042D01*
D02*
G37*
G36*
X5400D02*
X5373Y10037D01*
X5307Y9993D01*
X5263Y9927D01*
X5258Y9900D01*
X5400D01*
Y10042D01*
D02*
G37*
G36*
X2291Y9892D02*
Y9750D01*
X2434D01*
X2428Y9777D01*
X2384Y9843D01*
X2319Y9887D01*
X2291Y9892D01*
D02*
G37*
G36*
X2191D02*
X2164Y9887D01*
X2098Y9843D01*
X2054Y9777D01*
X2049Y9750D01*
X2191D01*
Y9892D01*
D02*
G37*
G36*
X15518Y10060D02*
X15457Y10048D01*
X15404Y10013D01*
X15369Y9960D01*
X15357Y9898D01*
X15360Y9884D01*
X14728Y9252D01*
X14706Y9219D01*
X14698Y9180D01*
Y9166D01*
X14706Y9127D01*
X14728Y9094D01*
X14848Y8973D01*
Y6163D01*
X14836Y6155D01*
X14801Y6103D01*
X14789Y6041D01*
X14801Y5979D01*
X14836Y5926D01*
X14888Y5891D01*
X14950Y5879D01*
X15012Y5891D01*
X15065Y5926D01*
X15100Y5979D01*
X15112Y6041D01*
X15100Y6103D01*
X15065Y6155D01*
X15052Y6163D01*
Y9016D01*
X15045Y9055D01*
X15022Y9088D01*
X14937Y9173D01*
X15504Y9740D01*
X15518Y9737D01*
X15580Y9749D01*
X15633Y9784D01*
X15668Y9837D01*
X15680Y9898D01*
X15668Y9960D01*
X15633Y10013D01*
X15580Y10048D01*
X15518Y10060D01*
D02*
G37*
G36*
X5642Y9800D02*
X5500D01*
Y9658D01*
X5527Y9663D01*
X5593Y9707D01*
X5637Y9773D01*
X5642Y9800D01*
D02*
G37*
G36*
X5400D02*
X5258D01*
X5263Y9773D01*
X5307Y9707D01*
X5373Y9663D01*
X5400Y9658D01*
Y9800D01*
D02*
G37*
G36*
X22350Y9792D02*
Y9650D01*
X22492D01*
X22487Y9677D01*
X22443Y9743D01*
X22377Y9787D01*
X22350Y9792D01*
D02*
G37*
G36*
X22250D02*
X22223Y9787D01*
X22157Y9743D01*
X22113Y9677D01*
X22108Y9650D01*
X22250D01*
Y9792D01*
D02*
G37*
G36*
X16862Y9862D02*
X16801Y9849D01*
X16748Y9814D01*
X16740Y9802D01*
X16145D01*
X16106Y9794D01*
X16073Y9772D01*
X15947Y9646D01*
X15933Y9649D01*
X15871Y9637D01*
X15819Y9602D01*
X15784Y9550D01*
X15771Y9488D01*
X15784Y9426D01*
X15819Y9374D01*
X15871Y9339D01*
X15933Y9326D01*
X15995Y9339D01*
X16047Y9374D01*
X16082Y9426D01*
X16094Y9488D01*
X16092Y9502D01*
X16187Y9598D01*
X16740D01*
X16748Y9586D01*
X16801Y9551D01*
X16862Y9538D01*
X16924Y9551D01*
X16977Y9586D01*
X17012Y9638D01*
X17024Y9700D01*
X17012Y9762D01*
X16977Y9814D01*
X16924Y9849D01*
X16862Y9862D01*
D02*
G37*
G36*
X2434Y9650D02*
X2291D01*
Y9508D01*
X2319Y9513D01*
X2384Y9557D01*
X2428Y9623D01*
X2434Y9650D01*
D02*
G37*
G36*
X2191D02*
X2049D01*
X2054Y9623D01*
X2098Y9557D01*
X2164Y9513D01*
X2191Y9508D01*
Y9650D01*
D02*
G37*
G36*
X22492Y9550D02*
X22350D01*
Y9408D01*
X22377Y9413D01*
X22443Y9457D01*
X22487Y9523D01*
X22492Y9550D01*
D02*
G37*
G36*
X22250D02*
X22108D01*
X22113Y9523D01*
X22157Y9457D01*
X22223Y9413D01*
X22250Y9408D01*
Y9550D01*
D02*
G37*
G36*
X1484Y9708D02*
X1392Y9696D01*
X1305Y9660D01*
X1231Y9603D01*
X1174Y9529D01*
X1138Y9443D01*
X1126Y9350D01*
X1138Y9257D01*
X1174Y9171D01*
X1231Y9097D01*
X1305Y9040D01*
X1392Y9004D01*
X1484Y8992D01*
X1577Y9004D01*
X1663Y9040D01*
X1738Y9097D01*
X1795Y9171D01*
X1830Y9257D01*
X1843Y9350D01*
X1830Y9443D01*
X1795Y9529D01*
X1738Y9603D01*
X1663Y9660D01*
X1577Y9696D01*
X1484Y9708D01*
D02*
G37*
G36*
X13930Y9105D02*
Y8963D01*
X14073D01*
X14067Y8990D01*
X14023Y9056D01*
X13958Y9100D01*
X13930Y9105D01*
D02*
G37*
G36*
X14073Y8863D02*
X13930D01*
Y8720D01*
X13958Y8726D01*
X14023Y8770D01*
X14067Y8835D01*
X14073Y8863D01*
D02*
G37*
G36*
X22342Y8761D02*
Y8619D01*
X22485D01*
X22479Y8646D01*
X22435Y8712D01*
X22370Y8756D01*
X22342Y8761D01*
D02*
G37*
G36*
X22242D02*
X22215Y8756D01*
X22149Y8712D01*
X22105Y8646D01*
X22100Y8619D01*
X22242D01*
Y8761D01*
D02*
G37*
G36*
X18242Y8555D02*
Y8413D01*
X18385D01*
X18379Y8440D01*
X18335Y8506D01*
X18270Y8550D01*
X18242Y8555D01*
D02*
G37*
G36*
X18142D02*
X18115Y8550D01*
X18049Y8506D01*
X18005Y8440D01*
X18000Y8413D01*
X18142D01*
Y8555D01*
D02*
G37*
G36*
X534Y8742D02*
Y8400D01*
X876D01*
X869Y8453D01*
X830Y8549D01*
X766Y8632D01*
X684Y8695D01*
X587Y8735D01*
X534Y8742D01*
D02*
G37*
G36*
X434D02*
X381Y8735D01*
X285Y8695D01*
X202Y8632D01*
X139Y8549D01*
X99Y8453D01*
X92Y8400D01*
X434D01*
Y8742D01*
D02*
G37*
G36*
X22485Y8519D02*
X22342D01*
Y8377D01*
X22370Y8382D01*
X22435Y8426D01*
X22479Y8492D01*
X22485Y8519D01*
D02*
G37*
G36*
X22242D02*
X22100D01*
X22105Y8492D01*
X22149Y8426D01*
X22215Y8382D01*
X22242Y8377D01*
Y8519D01*
D02*
G37*
G36*
X23100Y8958D02*
X23007Y8946D01*
X22921Y8910D01*
X22847Y8853D01*
X22790Y8779D01*
X22754Y8693D01*
X22742Y8600D01*
X22754Y8507D01*
X22790Y8421D01*
X22847Y8347D01*
X22921Y8290D01*
X23007Y8254D01*
X23100Y8242D01*
X23193Y8254D01*
X23279Y8290D01*
X23353Y8347D01*
X23410Y8421D01*
X23446Y8507D01*
X23458Y8600D01*
X23446Y8693D01*
X23410Y8779D01*
X23353Y8853D01*
X23279Y8910D01*
X23193Y8946D01*
X23100Y8958D01*
D02*
G37*
G36*
X18385Y8313D02*
X18242D01*
Y8170D01*
X18270Y8176D01*
X18335Y8220D01*
X18379Y8285D01*
X18385Y8313D01*
D02*
G37*
G36*
X18142D02*
X18000D01*
X18005Y8285D01*
X18049Y8220D01*
X18115Y8176D01*
X18142Y8170D01*
Y8313D01*
D02*
G37*
G36*
X13714Y8087D02*
X13682D01*
X13714Y8067D01*
Y8087D01*
D02*
G37*
G36*
X13956D02*
X13876D01*
X13879Y8082D01*
X13885Y8074D01*
X13891Y8067D01*
X13898Y8060D01*
X13841Y8003D01*
X13834Y8010D01*
X13827Y8016D01*
X13819Y8021D01*
X13814Y8025D01*
Y7945D01*
X13841Y7950D01*
X13907Y7994D01*
X13951Y8059D01*
X13956Y8087D01*
D02*
G37*
G36*
X1484Y8708D02*
X1392Y8696D01*
X1305Y8660D01*
X1231Y8603D01*
X1174Y8529D01*
X1138Y8443D01*
X1126Y8350D01*
X1138Y8257D01*
X1174Y8171D01*
X1231Y8097D01*
X1305Y8040D01*
X1392Y8004D01*
X1484Y7992D01*
X1577Y8004D01*
X1663Y8040D01*
X1738Y8097D01*
X1795Y8171D01*
X1830Y8257D01*
X1843Y8350D01*
X1830Y8443D01*
X1795Y8529D01*
X1738Y8603D01*
X1663Y8660D01*
X1577Y8696D01*
X1484Y8708D01*
D02*
G37*
G36*
X876Y8300D02*
X534D01*
Y7958D01*
X587Y7965D01*
X684Y8005D01*
X766Y8068D01*
X830Y8151D01*
X869Y8247D01*
X876Y8300D01*
D02*
G37*
G36*
X434D02*
X92D01*
X99Y8247D01*
X139Y8151D01*
X202Y8068D01*
X285Y8005D01*
X381Y7965D01*
X434Y7958D01*
Y8300D01*
D02*
G37*
G36*
X13678Y8087D02*
X13572D01*
X13577Y8059D01*
X13621Y7994D01*
X13687Y7950D01*
X13714Y7945D01*
Y7999D01*
X13712Y7997D01*
X13654Y8052D01*
X13660Y8058D01*
X13672Y8072D01*
X13674Y8076D01*
X13676Y8079D01*
X13678Y8082D01*
X13678Y8085D01*
X13678Y8087D01*
D02*
G37*
G36*
X18242Y7974D02*
Y7832D01*
X18385D01*
X18379Y7859D01*
X18335Y7925D01*
X18270Y7968D01*
X18242Y7974D01*
D02*
G37*
G36*
X18142D02*
X18115Y7968D01*
X18049Y7925D01*
X18005Y7859D01*
X18000Y7832D01*
X18142D01*
Y7974D01*
D02*
G37*
G36*
X18385Y7732D02*
X18242D01*
Y7589D01*
X18270Y7595D01*
X18335Y7638D01*
X18379Y7704D01*
X18385Y7732D01*
D02*
G37*
G36*
X18142D02*
X18000D01*
X18005Y7704D01*
X18049Y7638D01*
X18115Y7595D01*
X18142Y7589D01*
Y7732D01*
D02*
G37*
G36*
X13733Y7603D02*
Y7508D01*
X13733Y7507D01*
X13737Y7500D01*
X13741Y7493D01*
X13746Y7487D01*
X13752Y7481D01*
X13733D01*
Y7460D01*
X13875D01*
X13870Y7488D01*
X13826Y7553D01*
X13760Y7597D01*
X13733Y7603D01*
D02*
G37*
G36*
X13633D02*
X13605Y7597D01*
X13540Y7553D01*
X13496Y7488D01*
X13490Y7460D01*
X13633D01*
Y7481D01*
X13614D01*
X13619Y7487D01*
X13624Y7493D01*
X13629Y7500D01*
X13632Y7507D01*
X13633Y7508D01*
Y7603D01*
D02*
G37*
G36*
X9150Y7592D02*
Y7450D01*
X9292D01*
X9287Y7477D01*
X9243Y7543D01*
X9177Y7587D01*
X9150Y7592D01*
D02*
G37*
G36*
X9050D02*
X9023Y7587D01*
X8957Y7543D01*
X8913Y7477D01*
X8908Y7450D01*
X8957D01*
X8958Y7452D01*
X8967Y7453D01*
X8977Y7453D01*
X8986Y7455D01*
X8995Y7456D01*
X9003Y7459D01*
X9011Y7461D01*
X9018Y7464D01*
X9026Y7468D01*
X9032Y7472D01*
X9039Y7477D01*
X9035Y7450D01*
X9050D01*
Y7592D01*
D02*
G37*
G36*
X23100Y7958D02*
X23007Y7946D01*
X22921Y7910D01*
X22847Y7853D01*
X22790Y7779D01*
X22754Y7693D01*
X22742Y7600D01*
X22754Y7507D01*
X22790Y7421D01*
X22847Y7347D01*
X22921Y7290D01*
X23007Y7254D01*
X23100Y7242D01*
X23193Y7254D01*
X23279Y7290D01*
X23353Y7347D01*
X23410Y7421D01*
X23446Y7507D01*
X23458Y7600D01*
X23446Y7693D01*
X23410Y7779D01*
X23353Y7853D01*
X23279Y7910D01*
X23193Y7946D01*
X23100Y7958D01*
D02*
G37*
G36*
X13875Y7360D02*
X13733D01*
Y7218D01*
X13760Y7223D01*
X13826Y7267D01*
X13870Y7333D01*
X13875Y7360D01*
D02*
G37*
G36*
X13633D02*
X13490D01*
X13496Y7333D01*
X13540Y7267D01*
X13605Y7223D01*
X13633Y7218D01*
Y7360D01*
D02*
G37*
G36*
X18385Y7150D02*
X18242D01*
Y7008D01*
X18270Y7013D01*
X18335Y7057D01*
X18379Y7123D01*
X18385Y7150D01*
D02*
G37*
G36*
X18142D02*
X18000D01*
X18005Y7123D01*
X18049Y7057D01*
X18115Y7013D01*
X18142Y7008D01*
Y7150D01*
D02*
G37*
G36*
X1484Y7708D02*
X1392Y7696D01*
X1305Y7660D01*
X1231Y7603D01*
X1174Y7529D01*
X1138Y7443D01*
X1126Y7350D01*
X1138Y7257D01*
X1174Y7171D01*
X1231Y7097D01*
X1305Y7040D01*
X1392Y7004D01*
X1484Y6992D01*
X1577Y7004D01*
X1663Y7040D01*
X1738Y7097D01*
X1795Y7171D01*
X1830Y7257D01*
X1843Y7350D01*
X1830Y7443D01*
X1795Y7529D01*
X1738Y7603D01*
X1663Y7660D01*
X1577Y7696D01*
X1484Y7708D01*
D02*
G37*
G36*
X484D02*
X392Y7696D01*
X305Y7660D01*
X231Y7603D01*
X174Y7529D01*
X138Y7443D01*
X126Y7350D01*
X138Y7257D01*
X174Y7171D01*
X231Y7097D01*
X305Y7040D01*
X392Y7004D01*
X484Y6992D01*
X577Y7004D01*
X663Y7040D01*
X738Y7097D01*
X795Y7171D01*
X830Y7257D01*
X843Y7350D01*
X830Y7443D01*
X795Y7529D01*
X738Y7603D01*
X663Y7660D01*
X577Y7696D01*
X484Y7708D01*
D02*
G37*
G36*
X15284Y8680D02*
X15222Y8668D01*
X15169Y8633D01*
X15134Y8581D01*
X15122Y8519D01*
X15134Y8457D01*
X15169Y8405D01*
X15222Y8370D01*
X15284Y8357D01*
X15298Y8360D01*
X17003Y6655D01*
X17036Y6633D01*
X17075Y6626D01*
X21328D01*
X21336Y6613D01*
X21388Y6578D01*
X21450Y6566D01*
X21512Y6578D01*
X21564Y6613D01*
X21599Y6666D01*
X21612Y6728D01*
X21599Y6789D01*
X21564Y6842D01*
X21512Y6877D01*
X21450Y6889D01*
X21388Y6877D01*
X21336Y6842D01*
X21328Y6830D01*
X17117D01*
X15442Y8504D01*
X15445Y8519D01*
X15433Y8581D01*
X15398Y8633D01*
X15345Y8668D01*
X15284Y8680D01*
D02*
G37*
G36*
X5155Y6957D02*
X5093Y6945D01*
X5041Y6909D01*
X5005Y6857D01*
X4993Y6795D01*
X5005Y6733D01*
X5041Y6681D01*
X5093Y6646D01*
X5155Y6634D01*
X5169Y6637D01*
X5353Y6452D01*
X5344Y6393D01*
X5343Y6392D01*
X5326Y6393D01*
X5319Y6398D01*
X5250Y6412D01*
X5181Y6398D01*
X5135Y6368D01*
X4830D01*
X4778Y6357D01*
X4733Y6328D01*
X4356Y5950D01*
X3744D01*
X3739Y5950D01*
X3721Y5962D01*
X3700Y5966D01*
X3078Y6588D01*
X3033Y6618D01*
X2981Y6629D01*
X1713D01*
X1668Y6659D01*
X1598Y6673D01*
X1529Y6659D01*
X1470Y6620D01*
X1430Y6561D01*
X1416Y6491D01*
X1430Y6422D01*
X1470Y6363D01*
X1529Y6323D01*
X1598Y6309D01*
X1668Y6323D01*
X1713Y6353D01*
X2924D01*
X3505Y5771D01*
X3510Y5751D01*
X3545Y5699D01*
X3597Y5664D01*
X3659Y5651D01*
X3721Y5664D01*
X3739Y5676D01*
X3744Y5675D01*
X4413D01*
X4466Y5686D01*
X4510Y5716D01*
X4887Y6093D01*
X5135D01*
X5181Y6062D01*
X5250Y6049D01*
X5319Y6062D01*
X5365Y6093D01*
X11973D01*
X12002Y6043D01*
X11993Y5997D01*
X12005Y5935D01*
X12031Y5897D01*
X12028Y5876D01*
X12025Y5869D01*
X11980Y5838D01*
X11942Y5845D01*
X11880Y5833D01*
X11828Y5798D01*
X11793Y5745D01*
X11781Y5684D01*
X11783Y5671D01*
X11740Y5630D01*
X11708Y5637D01*
X11646Y5624D01*
X11594Y5589D01*
X11559Y5537D01*
X11552Y5505D01*
X11513Y5464D01*
X11499Y5459D01*
X11449Y5449D01*
X11397Y5414D01*
X11362Y5362D01*
X11350Y5300D01*
X11362Y5238D01*
X11397Y5186D01*
X11409Y5178D01*
Y4708D01*
X11417Y4669D01*
X11439Y4636D01*
X14023Y2052D01*
Y1173D01*
X14011Y1165D01*
X13976Y1112D01*
X13963Y1051D01*
X13976Y989D01*
X14011Y936D01*
X14063Y901D01*
X14125Y889D01*
X14187Y901D01*
X14239Y936D01*
X14274Y989D01*
X14286Y1051D01*
X14274Y1112D01*
X14269Y1121D01*
X14302Y1161D01*
X14357Y1138D01*
X14450Y1126D01*
X14543Y1138D01*
X14629Y1174D01*
X14703Y1231D01*
X14748Y1289D01*
X14798Y1272D01*
Y696D01*
X14748Y679D01*
X14703Y738D01*
X14629Y795D01*
X14543Y830D01*
X14450Y843D01*
X14357Y830D01*
X14271Y795D01*
X14197Y738D01*
X14140Y663D01*
X14104Y577D01*
X14092Y484D01*
X14104Y392D01*
X14140Y305D01*
X14197Y231D01*
X14271Y174D01*
X14357Y138D01*
X14450Y126D01*
X14543Y138D01*
X14629Y174D01*
X14703Y231D01*
X14705Y233D01*
X14761Y223D01*
X14786Y186D01*
X14838Y151D01*
X14900Y138D01*
X14962Y151D01*
X15014Y186D01*
X15049Y238D01*
X15062Y300D01*
X15049Y362D01*
X15014Y414D01*
X15002Y422D01*
Y606D01*
X15052Y635D01*
X15072Y631D01*
X15105Y580D01*
X15104Y577D01*
X15092Y484D01*
X15104Y392D01*
X15140Y305D01*
X15197Y231D01*
X15271Y174D01*
X15357Y138D01*
X15450Y126D01*
X15543Y138D01*
X15629Y174D01*
X15703Y231D01*
X15760Y305D01*
X15796Y392D01*
X15808Y484D01*
X15796Y577D01*
X15760Y663D01*
X15703Y738D01*
X15688Y749D01*
X15709Y796D01*
X15750Y788D01*
X15812Y800D01*
X15864Y835D01*
X15881Y861D01*
X15928Y841D01*
X15928Y840D01*
X15940Y778D01*
X15975Y726D01*
X16028Y691D01*
X16090Y678D01*
X16092Y679D01*
X16128Y635D01*
X16104Y577D01*
X16092Y484D01*
X16104Y392D01*
X16140Y305D01*
X16197Y231D01*
X16271Y174D01*
X16357Y138D01*
X16450Y126D01*
X16543Y138D01*
X16629Y174D01*
X16703Y231D01*
X16760Y305D01*
X16796Y392D01*
X16808Y484D01*
X16796Y577D01*
X16760Y663D01*
X16732Y700D01*
X16767Y737D01*
X16774Y733D01*
X16801Y727D01*
Y870D01*
X16659D01*
X16664Y842D01*
X16680Y819D01*
X16643Y784D01*
X16629Y795D01*
X16543Y830D01*
X16450Y843D01*
X16357Y830D01*
X16295Y805D01*
X16251Y840D01*
X16239Y902D01*
X16204Y954D01*
X16166Y979D01*
X16161Y986D01*
X16160Y988D01*
X16160Y992D01*
X16160Y1000D01*
X16157Y1006D01*
Y1208D01*
X16207Y1223D01*
X16271Y1174D01*
X16357Y1138D01*
X16450Y1126D01*
X16543Y1138D01*
X16629Y1174D01*
X16703Y1231D01*
X16760Y1305D01*
X16796Y1392D01*
X16808Y1484D01*
X16796Y1577D01*
X16760Y1663D01*
X16703Y1738D01*
X16629Y1795D01*
X16543Y1830D01*
X16450Y1843D01*
X16357Y1830D01*
X16271Y1795D01*
X16207Y1745D01*
X16157Y1761D01*
Y1855D01*
X16149Y1894D01*
X16127Y1927D01*
X12597Y5457D01*
Y5637D01*
X12609Y5646D01*
X12645Y5698D01*
X12657Y5760D01*
X12645Y5822D01*
X12609Y5874D01*
X12557Y5909D01*
X12495Y5921D01*
X12433Y5909D01*
X12381Y5874D01*
X12346Y5822D01*
X12334Y5760D01*
X12346Y5698D01*
X12381Y5646D01*
X12393Y5637D01*
Y5414D01*
X12401Y5375D01*
X12423Y5342D01*
X15953Y1813D01*
Y999D01*
X15903Y994D01*
X15899Y1011D01*
X15864Y1064D01*
X15852Y1072D01*
Y1184D01*
X15844Y1223D01*
X15822Y1256D01*
X15764Y1314D01*
X15796Y1392D01*
X15808Y1484D01*
X15796Y1577D01*
X15760Y1663D01*
X15703Y1738D01*
X15629Y1795D01*
X15552Y1827D01*
Y1969D01*
X15544Y2008D01*
X15522Y2041D01*
X12257Y5306D01*
Y5874D01*
X12269Y5883D01*
X12304Y5935D01*
X12316Y5997D01*
X12307Y6043D01*
X12337Y6093D01*
X13256D01*
X16258Y3091D01*
X16258Y3091D01*
X16303Y3061D01*
X16355Y3050D01*
X21688D01*
X21741Y3061D01*
X21785Y3091D01*
X21824Y3130D01*
X21863Y3098D01*
X21863Y3098D01*
X21858Y3070D01*
X22000D01*
Y3213D01*
X21973Y3207D01*
X21972Y3207D01*
X21941Y3246D01*
X22966Y4271D01*
X23007Y4254D01*
X23100Y4242D01*
X23193Y4254D01*
X23279Y4290D01*
X23353Y4347D01*
X23410Y4421D01*
X23446Y4507D01*
X23458Y4600D01*
X23446Y4693D01*
X23410Y4779D01*
X23353Y4853D01*
X23279Y4910D01*
X23193Y4946D01*
X23100Y4958D01*
X23007Y4946D01*
X22921Y4910D01*
X22847Y4853D01*
X22790Y4779D01*
X22754Y4693D01*
X22742Y4600D01*
X22754Y4507D01*
X22771Y4466D01*
X21631Y3326D01*
X16412D01*
X13410Y6328D01*
X13406Y6331D01*
X13421Y6381D01*
X13825D01*
X14237Y5969D01*
X14270Y5947D01*
X14309Y5939D01*
X14354D01*
X14362Y5926D01*
X14415Y5891D01*
X14477Y5879D01*
X14538Y5891D01*
X14591Y5926D01*
X14626Y5979D01*
X14638Y6041D01*
X14626Y6103D01*
X14591Y6155D01*
X14538Y6190D01*
X14477Y6202D01*
X14415Y6190D01*
X14362Y6155D01*
X14317Y6177D01*
X13939Y6555D01*
X13906Y6577D01*
X13867Y6585D01*
X5510D01*
X5313Y6781D01*
X5316Y6795D01*
X5304Y6857D01*
X5269Y6909D01*
X5217Y6945D01*
X5155Y6957D01*
D02*
G37*
G36*
X23100Y6958D02*
X23007Y6946D01*
X22921Y6910D01*
X22847Y6853D01*
X22790Y6779D01*
X22754Y6693D01*
X22742Y6600D01*
X22754Y6507D01*
X22790Y6421D01*
X22847Y6347D01*
X22921Y6290D01*
X23007Y6254D01*
X23100Y6242D01*
X23193Y6254D01*
X23279Y6290D01*
X23353Y6347D01*
X23410Y6421D01*
X23446Y6507D01*
X23458Y6600D01*
X23446Y6693D01*
X23410Y6779D01*
X23353Y6853D01*
X23279Y6910D01*
X23193Y6946D01*
X23100Y6958D01*
D02*
G37*
G36*
X650Y6309D02*
Y6167D01*
X792D01*
X787Y6194D01*
X743Y6260D01*
X677Y6304D01*
X650Y6309D01*
D02*
G37*
G36*
X550D02*
X523Y6304D01*
X457Y6260D01*
X413Y6194D01*
X408Y6167D01*
X550D01*
Y6309D01*
D02*
G37*
G36*
X15568Y6218D02*
Y6076D01*
X15710D01*
X15705Y6103D01*
X15661Y6169D01*
X15595Y6212D01*
X15568Y6218D01*
D02*
G37*
G36*
X15468D02*
X15440Y6212D01*
X15375Y6169D01*
X15331Y6103D01*
X15325Y6076D01*
X15468D01*
Y6218D01*
D02*
G37*
G36*
X22100Y6206D02*
Y6064D01*
X22242D01*
X22237Y6092D01*
X22193Y6157D01*
X22127Y6201D01*
X22100Y6206D01*
D02*
G37*
G36*
X22000D02*
X21973Y6201D01*
X21907Y6157D01*
X21863Y6092D01*
X21858Y6064D01*
X22000D01*
Y6206D01*
D02*
G37*
G36*
X2198Y6092D02*
Y5949D01*
X2341D01*
X2335Y5977D01*
X2291Y6043D01*
X2226Y6086D01*
X2198Y6092D01*
D02*
G37*
G36*
X2098D02*
X2071Y6086D01*
X2005Y6043D01*
X1962Y5977D01*
X1956Y5949D01*
X2098D01*
Y6092D01*
D02*
G37*
G36*
X19783Y6086D02*
Y5943D01*
X19925D01*
X19919Y5971D01*
X19876Y6036D01*
X19810Y6080D01*
X19783Y6086D01*
D02*
G37*
G36*
X19683D02*
X19655Y6080D01*
X19590Y6036D01*
X19546Y5971D01*
X19540Y5943D01*
X19683D01*
Y6086D01*
D02*
G37*
G36*
X792Y6067D02*
X650D01*
Y5924D01*
X677Y5930D01*
X743Y5974D01*
X787Y6039D01*
X792Y6067D01*
D02*
G37*
G36*
X550D02*
X408D01*
X413Y6039D01*
X457Y5974D01*
X523Y5930D01*
X550Y5924D01*
Y6067D01*
D02*
G37*
G36*
X22242Y5964D02*
X22100D01*
Y5822D01*
X22127Y5827D01*
X22193Y5871D01*
X22237Y5937D01*
X22242Y5964D01*
D02*
G37*
G36*
X22000D02*
X21858D01*
X21863Y5937D01*
X21907Y5871D01*
X21973Y5827D01*
X22000Y5822D01*
Y5964D01*
D02*
G37*
G36*
X2341Y5849D02*
X2198D01*
Y5707D01*
X2226Y5713D01*
X2291Y5756D01*
X2335Y5822D01*
X2341Y5849D01*
D02*
G37*
G36*
X2098D02*
X1956D01*
X1962Y5822D01*
X2005Y5756D01*
X2071Y5713D01*
X2098Y5707D01*
Y5849D01*
D02*
G37*
G36*
X19925Y5843D02*
X19783D01*
Y5701D01*
X19810Y5706D01*
X19876Y5750D01*
X19919Y5816D01*
X19925Y5843D01*
D02*
G37*
G36*
X19683D02*
X19540D01*
X19546Y5816D01*
X19590Y5750D01*
X19655Y5706D01*
X19683Y5701D01*
Y5843D01*
D02*
G37*
G36*
X23150Y5992D02*
Y5650D01*
X23492D01*
X23485Y5703D01*
X23445Y5799D01*
X23382Y5882D01*
X23299Y5945D01*
X23203Y5985D01*
X23150Y5992D01*
D02*
G37*
G36*
X15710Y5976D02*
X15325D01*
X15331Y5948D01*
X15375Y5882D01*
X15440Y5839D01*
X15451Y5836D01*
X15457Y5799D01*
X15455Y5785D01*
X15393Y5743D01*
X15349Y5677D01*
X15343Y5650D01*
X15438D01*
X15439Y5650D01*
X15447Y5654D01*
X15453Y5658D01*
X15460Y5663D01*
X15466Y5669D01*
Y5650D01*
X15728D01*
X15723Y5677D01*
X15679Y5743D01*
X15613Y5787D01*
X15602Y5789D01*
X15597Y5827D01*
X15598Y5841D01*
X15661Y5882D01*
X15705Y5948D01*
X15710Y5976D01*
D02*
G37*
G36*
X23050Y5992D02*
X22997Y5985D01*
X22901Y5945D01*
X22818Y5882D01*
X22755Y5799D01*
X22715Y5703D01*
X22708Y5650D01*
X23050D01*
Y5992D01*
D02*
G37*
G36*
X15486Y5550D02*
X15466D01*
Y5531D01*
X15460Y5537D01*
X15453Y5542D01*
X15447Y5546D01*
X15439Y5550D01*
X15438Y5550D01*
X15343D01*
X15349Y5523D01*
X15393Y5457D01*
X15458Y5413D01*
X15486Y5408D01*
Y5550D01*
D02*
G37*
G36*
X3315Y5660D02*
Y5517D01*
X3458D01*
X3452Y5545D01*
X3409Y5610D01*
X3343Y5654D01*
X3315Y5660D01*
D02*
G37*
G36*
X3215D02*
X3188Y5654D01*
X3122Y5610D01*
X3079Y5545D01*
X3073Y5517D01*
X3215D01*
Y5660D01*
D02*
G37*
G36*
X22000Y5567D02*
X21973Y5561D01*
X21907Y5517D01*
X21863Y5452D01*
X21858Y5424D01*
X22000D01*
Y5567D01*
D02*
G37*
G36*
X15728Y5550D02*
X15586D01*
Y5408D01*
X15613Y5413D01*
X15679Y5457D01*
X15723Y5523D01*
X15728Y5550D01*
D02*
G37*
G36*
X3458Y5417D02*
X3315D01*
Y5275D01*
X3343Y5280D01*
X3409Y5324D01*
X3452Y5390D01*
X3458Y5417D01*
D02*
G37*
G36*
X3215D02*
X3073D01*
X3079Y5390D01*
X3122Y5324D01*
X3188Y5280D01*
X3215Y5275D01*
Y5417D01*
D02*
G37*
G36*
X650Y5366D02*
Y5224D01*
X792D01*
X787Y5251D01*
X743Y5317D01*
X677Y5361D01*
X650Y5366D01*
D02*
G37*
G36*
X550D02*
X523Y5361D01*
X457Y5317D01*
X413Y5251D01*
X408Y5224D01*
X550D01*
Y5366D01*
D02*
G37*
G36*
X23492Y5550D02*
X23150D01*
Y5208D01*
X23203Y5215D01*
X23299Y5255D01*
X23382Y5318D01*
X23445Y5401D01*
X23485Y5497D01*
X23492Y5550D01*
D02*
G37*
G36*
X23050D02*
X22708D01*
X22715Y5497D01*
X22755Y5401D01*
X22818Y5318D01*
X22901Y5255D01*
X22997Y5215D01*
X23050Y5208D01*
Y5550D01*
D02*
G37*
G36*
X792Y5124D02*
X650D01*
Y4981D01*
X677Y4987D01*
X743Y5031D01*
X787Y5096D01*
X792Y5124D01*
D02*
G37*
G36*
X550D02*
X408D01*
X413Y5096D01*
X457Y5031D01*
X523Y4987D01*
X550Y4981D01*
Y5124D01*
D02*
G37*
G36*
X10291Y5062D02*
Y4920D01*
X10434D01*
X10428Y4947D01*
X10384Y5013D01*
X10319Y5057D01*
X10291Y5062D01*
D02*
G37*
G36*
X10191D02*
X10164Y5057D01*
X10098Y5013D01*
X10054Y4947D01*
X10049Y4920D01*
X10191D01*
Y5062D01*
D02*
G37*
G36*
X10434Y4820D02*
X10291D01*
Y4677D01*
X10319Y4683D01*
X10384Y4727D01*
X10428Y4792D01*
X10434Y4820D01*
D02*
G37*
G36*
X10191D02*
X10049D01*
X10054Y4792D01*
X10098Y4727D01*
X10164Y4683D01*
X10191Y4677D01*
Y4820D01*
D02*
G37*
G36*
X4630Y4614D02*
Y4472D01*
X4772D01*
X4767Y4499D01*
X4723Y4565D01*
X4657Y4608D01*
X4630Y4614D01*
D02*
G37*
G36*
X4530D02*
X4503Y4608D01*
X4437Y4565D01*
X4393Y4499D01*
X4388Y4472D01*
X4482D01*
X4483Y4472D01*
X4491Y4476D01*
X4497Y4480D01*
X4504Y4485D01*
X4510Y4490D01*
Y4472D01*
X4530D01*
Y4614D01*
D02*
G37*
G36*
X3600D02*
Y4472D01*
X3620D01*
Y4490D01*
X3626Y4485D01*
X3632Y4480D01*
X3639Y4476D01*
X3646Y4472D01*
X3647Y4472D01*
X3742D01*
X3737Y4499D01*
X3693Y4565D01*
X3627Y4608D01*
X3600Y4614D01*
D02*
G37*
G36*
X3500D02*
X3473Y4608D01*
X3407Y4565D01*
X3363Y4499D01*
X3358Y4472D01*
X3500D01*
Y4614D01*
D02*
G37*
G36*
X4530Y4372D02*
X4510D01*
Y4353D01*
X4504Y4358D01*
X4497Y4363D01*
X4491Y4367D01*
X4483Y4371D01*
X4482Y4372D01*
X4388D01*
X4393Y4344D01*
X4437Y4278D01*
X4503Y4235D01*
X4530Y4229D01*
Y4372D01*
D02*
G37*
G36*
X3742D02*
X3647D01*
X3646Y4371D01*
X3639Y4367D01*
X3632Y4363D01*
X3626Y4358D01*
X3620Y4353D01*
Y4372D01*
X3600D01*
Y4229D01*
X3627Y4235D01*
X3693Y4278D01*
X3737Y4344D01*
X3742Y4372D01*
D02*
G37*
G36*
X22100Y4442D02*
Y4300D01*
X22242D01*
X22237Y4327D01*
X22193Y4393D01*
X22127Y4437D01*
X22100Y4442D01*
D02*
G37*
G36*
X22000D02*
X21973Y4437D01*
X21907Y4393D01*
X21863Y4327D01*
X21858Y4300D01*
X22000D01*
Y4442D01*
D02*
G37*
G36*
X637Y4429D02*
Y4287D01*
X780D01*
X774Y4314D01*
X730Y4380D01*
X665Y4424D01*
X637Y4429D01*
D02*
G37*
G36*
X537D02*
X510Y4424D01*
X444Y4380D01*
X401Y4314D01*
X395Y4287D01*
X537D01*
Y4429D01*
D02*
G37*
G36*
X4772Y4372D02*
X4630D01*
Y4229D01*
X4657Y4235D01*
X4723Y4278D01*
X4767Y4344D01*
X4772Y4372D01*
D02*
G37*
G36*
X3500D02*
X3358D01*
X3363Y4344D01*
X3407Y4278D01*
X3473Y4235D01*
X3500Y4229D01*
Y4372D01*
D02*
G37*
G36*
X22242Y4200D02*
X22100D01*
Y4058D01*
X22127Y4063D01*
X22193Y4107D01*
X22237Y4173D01*
X22242Y4200D01*
D02*
G37*
G36*
X22000D02*
X21858D01*
X21863Y4173D01*
X21907Y4107D01*
X21973Y4063D01*
X22000Y4058D01*
Y4200D01*
D02*
G37*
G36*
X780Y4187D02*
X637D01*
Y4044D01*
X665Y4050D01*
X730Y4094D01*
X774Y4159D01*
X780Y4187D01*
D02*
G37*
G36*
X537D02*
X395D01*
X401Y4159D01*
X444Y4094D01*
X510Y4050D01*
X537Y4044D01*
Y4187D01*
D02*
G37*
G36*
X9128Y3913D02*
Y3771D01*
X9271D01*
X9265Y3798D01*
X9221Y3864D01*
X9156Y3908D01*
X9128Y3913D01*
D02*
G37*
G36*
X9028D02*
X9001Y3908D01*
X8935Y3864D01*
X8891Y3798D01*
X8886Y3771D01*
X9028D01*
Y3913D01*
D02*
G37*
G36*
X10959Y5974D02*
X10898Y5962D01*
X10845Y5927D01*
X10810Y5875D01*
X10798Y5813D01*
X10810Y5751D01*
X10845Y5699D01*
X10857Y5690D01*
Y4881D01*
X10865Y4842D01*
X10887Y4809D01*
X12063Y3634D01*
X12062Y3631D01*
X12033Y3592D01*
X11986Y3602D01*
X11595Y3992D01*
X11559Y4017D01*
X11516Y4025D01*
X11516Y4025D01*
X10760D01*
X10456Y4329D01*
X10419Y4354D01*
X10376Y4362D01*
X10376Y4362D01*
X8998D01*
X8998Y4362D01*
X8955Y4354D01*
X8919Y4329D01*
X8919Y4329D01*
X8701Y4111D01*
X8699Y4112D01*
X8637Y4100D01*
X8584Y4065D01*
X8549Y4012D01*
X8537Y3950D01*
X8549Y3889D01*
X8584Y3836D01*
X8637Y3801D01*
X8699Y3789D01*
X8761Y3801D01*
X8813Y3836D01*
X8848Y3889D01*
X8860Y3950D01*
X8860Y3953D01*
X9045Y4138D01*
X10330D01*
X10634Y3834D01*
X10634Y3834D01*
X10670Y3809D01*
X10713Y3801D01*
X11470D01*
X11823Y3448D01*
X11821Y3441D01*
X11833Y3379D01*
X11868Y3327D01*
X11921Y3292D01*
X11983Y3279D01*
X12044Y3292D01*
X12097Y3327D01*
X12132Y3379D01*
X12144Y3441D01*
X12134Y3492D01*
X12173Y3520D01*
X12175Y3521D01*
X13215Y2482D01*
Y2122D01*
X13202Y2114D01*
X13167Y2062D01*
X13155Y2000D01*
X13167Y1938D01*
X13202Y1886D01*
X13255Y1851D01*
X13269Y1848D01*
X13274Y1796D01*
X13271Y1795D01*
X13197Y1738D01*
X13140Y1663D01*
X13104Y1577D01*
X13092Y1484D01*
X13104Y1392D01*
X13140Y1305D01*
X13197Y1231D01*
X13271Y1174D01*
X13357Y1138D01*
X13450Y1126D01*
X13543Y1138D01*
X13629Y1174D01*
X13703Y1231D01*
X13760Y1305D01*
X13796Y1392D01*
X13808Y1484D01*
X13796Y1577D01*
X13760Y1663D01*
X13703Y1738D01*
X13629Y1795D01*
X13543Y1830D01*
X13455Y1842D01*
X13443Y1862D01*
X13434Y1891D01*
X13466Y1938D01*
X13478Y2000D01*
X13466Y2062D01*
X13431Y2114D01*
X13419Y2122D01*
Y2524D01*
X13411Y2563D01*
X13389Y2596D01*
X11061Y4923D01*
Y5690D01*
X11074Y5699D01*
X11109Y5751D01*
X11121Y5813D01*
X11109Y5875D01*
X11074Y5927D01*
X11021Y5962D01*
X10959Y5974D01*
D02*
G37*
G36*
X9271Y3671D02*
X9128D01*
Y3528D01*
X9156Y3534D01*
X9221Y3578D01*
X9265Y3643D01*
X9271Y3671D01*
D02*
G37*
G36*
X9028D02*
X8886D01*
X8891Y3643D01*
X8935Y3578D01*
X9001Y3534D01*
X9028Y3528D01*
Y3671D01*
D02*
G37*
G36*
X15334Y3506D02*
Y3364D01*
X15476D01*
X15470Y3391D01*
X15427Y3457D01*
X15361Y3501D01*
X15334Y3506D01*
D02*
G37*
G36*
X15234D02*
X15206Y3501D01*
X15140Y3457D01*
X15097Y3391D01*
X15091Y3364D01*
X15234D01*
Y3506D01*
D02*
G37*
G36*
X650Y3442D02*
Y3300D01*
X792D01*
X787Y3327D01*
X743Y3393D01*
X677Y3437D01*
X650Y3442D01*
D02*
G37*
G36*
X550D02*
X523Y3437D01*
X457Y3393D01*
X413Y3327D01*
X408Y3300D01*
X550D01*
Y3442D01*
D02*
G37*
G36*
X23100Y3958D02*
X23007Y3946D01*
X22921Y3910D01*
X22847Y3853D01*
X22790Y3779D01*
X22754Y3693D01*
X22742Y3600D01*
X22754Y3507D01*
X22790Y3421D01*
X22847Y3347D01*
X22921Y3290D01*
X23007Y3254D01*
X23100Y3242D01*
X23193Y3254D01*
X23279Y3290D01*
X23353Y3347D01*
X23410Y3421D01*
X23446Y3507D01*
X23458Y3600D01*
X23446Y3693D01*
X23410Y3779D01*
X23353Y3853D01*
X23279Y3910D01*
X23193Y3946D01*
X23100Y3958D01*
D02*
G37*
G36*
X15476Y3264D02*
X15334D01*
Y3121D01*
X15361Y3127D01*
X15427Y3171D01*
X15470Y3236D01*
X15476Y3264D01*
D02*
G37*
G36*
X15234D02*
X15091D01*
X15097Y3236D01*
X15140Y3171D01*
X15206Y3127D01*
X15234Y3121D01*
Y3264D01*
D02*
G37*
G36*
X22100Y3213D02*
Y3070D01*
X22242D01*
X22237Y3098D01*
X22193Y3163D01*
X22127Y3207D01*
X22100Y3213D01*
D02*
G37*
G36*
X792Y3200D02*
X650D01*
Y3058D01*
X677Y3063D01*
X743Y3107D01*
X787Y3173D01*
X792Y3200D01*
D02*
G37*
G36*
X550D02*
X408D01*
X413Y3173D01*
X457Y3107D01*
X523Y3063D01*
X550Y3058D01*
Y3200D01*
D02*
G37*
G36*
X22242Y2970D02*
X22100D01*
Y2828D01*
X22127Y2833D01*
X22193Y2877D01*
X22237Y2943D01*
X22242Y2970D01*
D02*
G37*
G36*
X22000D02*
X21858D01*
X21863Y2943D01*
X21907Y2877D01*
X21973Y2833D01*
X22000Y2828D01*
Y2970D01*
D02*
G37*
G36*
X23223Y2953D02*
Y2811D01*
X23365D01*
X23359Y2838D01*
X23316Y2904D01*
X23250Y2948D01*
X23223Y2953D01*
D02*
G37*
G36*
X23123D02*
X23095Y2948D01*
X23030Y2904D01*
X22986Y2838D01*
X22980Y2811D01*
X23123D01*
Y2953D01*
D02*
G37*
G36*
X12200D02*
Y2811D01*
X12342D01*
X12337Y2838D01*
X12293Y2904D01*
X12227Y2948D01*
X12200Y2953D01*
D02*
G37*
G36*
X12100D02*
X12073Y2948D01*
X12007Y2904D01*
X11963Y2838D01*
X11958Y2811D01*
X12100D01*
Y2953D01*
D02*
G37*
G36*
X23365Y2711D02*
X23223D01*
Y2569D01*
X23250Y2574D01*
X23316Y2618D01*
X23359Y2684D01*
X23365Y2711D01*
D02*
G37*
G36*
X23123D02*
X22980D01*
X22986Y2684D01*
X23030Y2618D01*
X23095Y2574D01*
X23123Y2569D01*
Y2711D01*
D02*
G37*
G36*
X12342D02*
X12200D01*
Y2569D01*
X12227Y2574D01*
X12293Y2618D01*
X12337Y2684D01*
X12342Y2711D01*
D02*
G37*
G36*
X12100D02*
X11958D01*
X11963Y2684D01*
X12007Y2618D01*
X12073Y2574D01*
X12100Y2569D01*
Y2711D01*
D02*
G37*
G36*
X22100Y2592D02*
Y2450D01*
X22242D01*
X22237Y2477D01*
X22193Y2543D01*
X22127Y2587D01*
X22100Y2592D01*
D02*
G37*
G36*
X22000D02*
X21973Y2587D01*
X21907Y2543D01*
X21863Y2477D01*
X21858Y2450D01*
X22000D01*
Y2592D01*
D02*
G37*
G36*
X4286Y2619D02*
X4224Y2606D01*
X4172Y2571D01*
X4137Y2519D01*
X4124Y2457D01*
X4129Y2433D01*
X4020Y2324D01*
X3572D01*
X3564Y2336D01*
X3512Y2371D01*
X3450Y2384D01*
X3388Y2371D01*
X3336Y2336D01*
X3301Y2284D01*
X3288Y2222D01*
X3301Y2160D01*
X3336Y2108D01*
X3388Y2073D01*
X3450Y2061D01*
X3512Y2073D01*
X3564Y2108D01*
X3572Y2120D01*
X4063D01*
X4102Y2128D01*
X4135Y2150D01*
X4281Y2296D01*
X4286Y2295D01*
X4348Y2308D01*
X4400Y2343D01*
X4435Y2395D01*
X4447Y2457D01*
X4435Y2519D01*
X4400Y2571D01*
X4348Y2606D01*
X4286Y2619D01*
D02*
G37*
G36*
X650Y2414D02*
Y2272D01*
X792D01*
X787Y2300D01*
X743Y2365D01*
X677Y2409D01*
X650Y2414D01*
D02*
G37*
G36*
X550D02*
X523Y2409D01*
X457Y2365D01*
X413Y2300D01*
X408Y2272D01*
X550D01*
Y2414D01*
D02*
G37*
G36*
X12744Y2356D02*
Y2214D01*
X12886D01*
X12881Y2241D01*
X12837Y2307D01*
X12771Y2351D01*
X12744Y2356D01*
D02*
G37*
G36*
X12644D02*
X12616Y2351D01*
X12551Y2307D01*
X12507Y2241D01*
X12501Y2214D01*
X12644D01*
Y2356D01*
D02*
G37*
G36*
X22242Y2350D02*
X22100D01*
Y2208D01*
X22127Y2213D01*
X22193Y2257D01*
X22237Y2323D01*
X22242Y2350D01*
D02*
G37*
G36*
X22000D02*
X21858D01*
X21863Y2323D01*
X21907Y2257D01*
X21973Y2213D01*
X22000Y2208D01*
Y2350D01*
D02*
G37*
G36*
X19783Y2252D02*
Y2110D01*
X19925D01*
X19919Y2137D01*
X19876Y2203D01*
X19810Y2247D01*
X19783Y2252D01*
D02*
G37*
G36*
X19683D02*
X19655Y2247D01*
X19590Y2203D01*
X19546Y2137D01*
X19540Y2110D01*
X19683D01*
Y2252D01*
D02*
G37*
G36*
X792Y2172D02*
X650D01*
Y2030D01*
X677Y2035D01*
X743Y2079D01*
X787Y2145D01*
X792Y2172D01*
D02*
G37*
G36*
X550D02*
X408D01*
X413Y2145D01*
X457Y2079D01*
X523Y2035D01*
X550Y2030D01*
Y2172D01*
D02*
G37*
G36*
X23223Y2129D02*
Y1987D01*
X23365D01*
X23359Y2014D01*
X23316Y2080D01*
X23250Y2124D01*
X23223Y2129D01*
D02*
G37*
G36*
X23123D02*
X23095Y2124D01*
X23030Y2080D01*
X22986Y2014D01*
X22980Y1987D01*
X23123D01*
Y2129D01*
D02*
G37*
G36*
X12886Y2114D02*
X12744D01*
Y1971D01*
X12771Y1977D01*
X12837Y2021D01*
X12881Y2086D01*
X12886Y2114D01*
D02*
G37*
G36*
X12644D02*
X12501D01*
X12507Y2086D01*
X12551Y2021D01*
X12616Y1977D01*
X12644Y1971D01*
Y2114D01*
D02*
G37*
G36*
X1802Y2036D02*
Y1894D01*
X1944D01*
X1938Y1921D01*
X1895Y1987D01*
X1829Y2031D01*
X1802Y2036D01*
D02*
G37*
G36*
X1702D02*
X1674Y2031D01*
X1609Y1987D01*
X1565Y1921D01*
X1559Y1894D01*
X1702D01*
Y2036D01*
D02*
G37*
G36*
X19925Y2010D02*
X19783D01*
Y1868D01*
X19810Y1873D01*
X19876Y1917D01*
X19919Y1983D01*
X19925Y2010D01*
D02*
G37*
G36*
X19683D02*
X19540D01*
X19546Y1983D01*
X19590Y1917D01*
X19655Y1873D01*
X19683Y1868D01*
Y2010D01*
D02*
G37*
G36*
X22100Y1992D02*
Y1850D01*
X22242D01*
X22237Y1877D01*
X22193Y1943D01*
X22127Y1987D01*
X22100Y1992D01*
D02*
G37*
G36*
X22000D02*
X21973Y1987D01*
X21907Y1943D01*
X21863Y1877D01*
X21858Y1850D01*
X22000D01*
Y1992D01*
D02*
G37*
G36*
X23365Y1887D02*
X23223D01*
Y1745D01*
X23250Y1750D01*
X23316Y1794D01*
X23359Y1859D01*
X23365Y1887D01*
D02*
G37*
G36*
X23123D02*
X22980D01*
X22986Y1859D01*
X23030Y1794D01*
X23095Y1750D01*
X23123Y1745D01*
Y1887D01*
D02*
G37*
G36*
X1944Y1794D02*
X1802D01*
Y1652D01*
X1829Y1657D01*
X1895Y1701D01*
X1938Y1767D01*
X1944Y1794D01*
D02*
G37*
G36*
X1702D02*
X1559D01*
X1565Y1767D01*
X1609Y1701D01*
X1674Y1657D01*
X1702Y1652D01*
Y1794D01*
D02*
G37*
G36*
X22242Y1750D02*
X22100D01*
Y1608D01*
X22127Y1613D01*
X22193Y1657D01*
X22237Y1723D01*
X22242Y1750D01*
D02*
G37*
G36*
X22000D02*
X21858D01*
X21863Y1723D01*
X21907Y1657D01*
X21973Y1613D01*
X22000Y1608D01*
Y1750D01*
D02*
G37*
G36*
X2950Y1281D02*
Y1139D01*
X3092D01*
X3087Y1166D01*
X3043Y1232D01*
X2977Y1276D01*
X2950Y1281D01*
D02*
G37*
G36*
X2450Y1843D02*
X2357Y1830D01*
X2271Y1795D01*
X2197Y1738D01*
X2140Y1663D01*
X2104Y1577D01*
X2092Y1484D01*
X2104Y1392D01*
X2140Y1305D01*
X2197Y1231D01*
X2271Y1174D01*
X2357Y1138D01*
X2450Y1126D01*
X2543Y1138D01*
X2629Y1174D01*
X2688Y1219D01*
X2725Y1185D01*
X2713Y1166D01*
X2708Y1139D01*
X2850D01*
Y1281D01*
X2823Y1276D01*
X2778Y1246D01*
X2744Y1283D01*
X2760Y1305D01*
X2796Y1392D01*
X2808Y1484D01*
X2796Y1577D01*
X2760Y1663D01*
X2703Y1738D01*
X2629Y1795D01*
X2543Y1830D01*
X2450Y1843D01*
D02*
G37*
G36*
X1802Y1281D02*
Y1139D01*
X1944D01*
X1938Y1166D01*
X1895Y1232D01*
X1829Y1276D01*
X1802Y1281D01*
D02*
G37*
G36*
X1702D02*
X1674Y1276D01*
X1609Y1232D01*
X1565Y1166D01*
X1559Y1139D01*
X1702D01*
Y1281D01*
D02*
G37*
G36*
X21450Y1843D02*
X21357Y1830D01*
X21271Y1795D01*
X21197Y1738D01*
X21140Y1663D01*
X21104Y1577D01*
X21092Y1484D01*
X21104Y1392D01*
X21140Y1305D01*
X21197Y1231D01*
X21271Y1174D01*
X21357Y1138D01*
X21450Y1126D01*
X21543Y1138D01*
X21629Y1174D01*
X21703Y1231D01*
X21760Y1305D01*
X21796Y1392D01*
X21808Y1484D01*
X21796Y1577D01*
X21760Y1663D01*
X21703Y1738D01*
X21629Y1795D01*
X21543Y1830D01*
X21450Y1843D01*
D02*
G37*
G36*
X20450D02*
X20357Y1830D01*
X20271Y1795D01*
X20197Y1738D01*
X20140Y1663D01*
X20104Y1577D01*
X20092Y1484D01*
X20104Y1392D01*
X20140Y1305D01*
X20197Y1231D01*
X20271Y1174D01*
X20357Y1138D01*
X20450Y1126D01*
X20543Y1138D01*
X20629Y1174D01*
X20703Y1231D01*
X20760Y1305D01*
X20796Y1392D01*
X20808Y1484D01*
X20796Y1577D01*
X20760Y1663D01*
X20703Y1738D01*
X20629Y1795D01*
X20543Y1830D01*
X20450Y1843D01*
D02*
G37*
G36*
X18450D02*
X18357Y1830D01*
X18271Y1795D01*
X18197Y1738D01*
X18140Y1663D01*
X18104Y1577D01*
X18092Y1484D01*
X18104Y1392D01*
X18140Y1305D01*
X18197Y1231D01*
X18271Y1174D01*
X18357Y1138D01*
X18450Y1126D01*
X18543Y1138D01*
X18629Y1174D01*
X18703Y1231D01*
X18760Y1305D01*
X18796Y1392D01*
X18808Y1484D01*
X18796Y1577D01*
X18760Y1663D01*
X18703Y1738D01*
X18629Y1795D01*
X18543Y1830D01*
X18450Y1843D01*
D02*
G37*
G36*
X17450D02*
X17357Y1830D01*
X17271Y1795D01*
X17197Y1738D01*
X17140Y1663D01*
X17104Y1577D01*
X17092Y1484D01*
X17104Y1392D01*
X17140Y1305D01*
X17197Y1231D01*
X17271Y1174D01*
X17357Y1138D01*
X17450Y1126D01*
X17543Y1138D01*
X17629Y1174D01*
X17703Y1231D01*
X17760Y1305D01*
X17796Y1392D01*
X17808Y1484D01*
X17796Y1577D01*
X17760Y1663D01*
X17703Y1738D01*
X17629Y1795D01*
X17543Y1830D01*
X17450Y1843D01*
D02*
G37*
G36*
X12450D02*
X12357Y1830D01*
X12271Y1795D01*
X12197Y1738D01*
X12140Y1663D01*
X12104Y1577D01*
X12092Y1484D01*
X12104Y1392D01*
X12140Y1305D01*
X12197Y1231D01*
X12271Y1174D01*
X12357Y1138D01*
X12450Y1126D01*
X12543Y1138D01*
X12629Y1174D01*
X12703Y1231D01*
X12760Y1305D01*
X12796Y1392D01*
X12808Y1484D01*
X12796Y1577D01*
X12760Y1663D01*
X12703Y1738D01*
X12629Y1795D01*
X12543Y1830D01*
X12450Y1843D01*
D02*
G37*
G36*
X11450D02*
X11357Y1830D01*
X11271Y1795D01*
X11197Y1738D01*
X11140Y1663D01*
X11104Y1577D01*
X11092Y1484D01*
X11104Y1392D01*
X11140Y1305D01*
X11197Y1231D01*
X11271Y1174D01*
X11357Y1138D01*
X11450Y1126D01*
X11543Y1138D01*
X11629Y1174D01*
X11703Y1231D01*
X11760Y1305D01*
X11796Y1392D01*
X11808Y1484D01*
X11796Y1577D01*
X11760Y1663D01*
X11703Y1738D01*
X11629Y1795D01*
X11543Y1830D01*
X11450Y1843D01*
D02*
G37*
G36*
X9982Y3848D02*
X9920Y3835D01*
X9868Y3800D01*
X9833Y3748D01*
X9821Y3686D01*
X9833Y3624D01*
X9868Y3572D01*
X9880Y3564D01*
Y1302D01*
X9888Y1263D01*
X9910Y1230D01*
X9998Y1142D01*
Y962D01*
X9986Y954D01*
X9951Y902D01*
X9938Y840D01*
X9951Y778D01*
X9986Y726D01*
X10038Y691D01*
X10092Y680D01*
X10110Y661D01*
X10127Y633D01*
X10104Y577D01*
X10092Y484D01*
X10104Y392D01*
X10140Y305D01*
X10197Y231D01*
X10271Y174D01*
X10357Y138D01*
X10450Y126D01*
X10543Y138D01*
X10629Y174D01*
X10703Y231D01*
X10760Y305D01*
X10796Y392D01*
X10808Y484D01*
X10796Y577D01*
X10760Y663D01*
X10703Y738D01*
X10629Y795D01*
X10543Y830D01*
X10450Y843D01*
X10357Y830D01*
X10306Y809D01*
X10264Y838D01*
X10261Y844D01*
X10249Y902D01*
X10214Y954D01*
X10202Y962D01*
Y1164D01*
X10248Y1190D01*
X10250Y1190D01*
X10271Y1174D01*
X10357Y1138D01*
X10450Y1126D01*
X10543Y1138D01*
X10629Y1174D01*
X10703Y1231D01*
X10760Y1305D01*
X10796Y1392D01*
X10808Y1484D01*
X10796Y1577D01*
X10760Y1663D01*
X10703Y1738D01*
X10629Y1795D01*
X10543Y1830D01*
X10450Y1843D01*
X10357Y1830D01*
X10271Y1795D01*
X10197Y1738D01*
X10140Y1663D01*
X10134Y1650D01*
X10084Y1660D01*
Y3564D01*
X10096Y3572D01*
X10131Y3624D01*
X10144Y3686D01*
X10131Y3748D01*
X10096Y3800D01*
X10044Y3835D01*
X9982Y3848D01*
D02*
G37*
G36*
X9450Y1843D02*
X9357Y1830D01*
X9271Y1795D01*
X9197Y1738D01*
X9140Y1663D01*
X9104Y1577D01*
X9092Y1484D01*
X9104Y1392D01*
X9140Y1305D01*
X9197Y1231D01*
X9271Y1174D01*
X9357Y1138D01*
X9450Y1126D01*
X9543Y1138D01*
X9629Y1174D01*
X9703Y1231D01*
X9760Y1305D01*
X9796Y1392D01*
X9808Y1484D01*
X9796Y1577D01*
X9760Y1663D01*
X9703Y1738D01*
X9629Y1795D01*
X9543Y1830D01*
X9450Y1843D01*
D02*
G37*
G36*
X8450D02*
X8357Y1830D01*
X8271Y1795D01*
X8197Y1738D01*
X8140Y1663D01*
X8104Y1577D01*
X8092Y1484D01*
X8104Y1392D01*
X8140Y1305D01*
X8197Y1231D01*
X8271Y1174D01*
X8357Y1138D01*
X8450Y1126D01*
X8543Y1138D01*
X8629Y1174D01*
X8703Y1231D01*
X8760Y1305D01*
X8796Y1392D01*
X8808Y1484D01*
X8796Y1577D01*
X8760Y1663D01*
X8703Y1738D01*
X8629Y1795D01*
X8543Y1830D01*
X8450Y1843D01*
D02*
G37*
G36*
X7450D02*
X7357Y1830D01*
X7271Y1795D01*
X7197Y1738D01*
X7140Y1663D01*
X7104Y1577D01*
X7092Y1484D01*
X7104Y1392D01*
X7140Y1305D01*
X7197Y1231D01*
X7271Y1174D01*
X7357Y1138D01*
X7450Y1126D01*
X7543Y1138D01*
X7629Y1174D01*
X7703Y1231D01*
X7760Y1305D01*
X7796Y1392D01*
X7808Y1484D01*
X7796Y1577D01*
X7760Y1663D01*
X7703Y1738D01*
X7629Y1795D01*
X7543Y1830D01*
X7450Y1843D01*
D02*
G37*
G36*
X6450D02*
X6357Y1830D01*
X6271Y1795D01*
X6197Y1738D01*
X6140Y1663D01*
X6104Y1577D01*
X6092Y1484D01*
X6104Y1392D01*
X6140Y1305D01*
X6197Y1231D01*
X6271Y1174D01*
X6357Y1138D01*
X6450Y1126D01*
X6543Y1138D01*
X6629Y1174D01*
X6703Y1231D01*
X6760Y1305D01*
X6796Y1392D01*
X6808Y1484D01*
X6796Y1577D01*
X6760Y1663D01*
X6703Y1738D01*
X6629Y1795D01*
X6543Y1830D01*
X6450Y1843D01*
D02*
G37*
G36*
X5450D02*
X5357Y1830D01*
X5271Y1795D01*
X5197Y1738D01*
X5140Y1663D01*
X5104Y1577D01*
X5092Y1484D01*
X5104Y1392D01*
X5140Y1305D01*
X5197Y1231D01*
X5271Y1174D01*
X5357Y1138D01*
X5450Y1126D01*
X5543Y1138D01*
X5629Y1174D01*
X5703Y1231D01*
X5760Y1305D01*
X5796Y1392D01*
X5808Y1484D01*
X5796Y1577D01*
X5760Y1663D01*
X5703Y1738D01*
X5629Y1795D01*
X5543Y1830D01*
X5450Y1843D01*
D02*
G37*
G36*
X4450D02*
X4357Y1830D01*
X4271Y1795D01*
X4197Y1738D01*
X4140Y1663D01*
X4104Y1577D01*
X4092Y1484D01*
X4104Y1392D01*
X4140Y1305D01*
X4197Y1231D01*
X4271Y1174D01*
X4357Y1138D01*
X4450Y1126D01*
X4543Y1138D01*
X4629Y1174D01*
X4703Y1231D01*
X4760Y1305D01*
X4796Y1392D01*
X4808Y1484D01*
X4796Y1577D01*
X4760Y1663D01*
X4703Y1738D01*
X4629Y1795D01*
X4543Y1830D01*
X4450Y1843D01*
D02*
G37*
G36*
X3450D02*
X3357Y1830D01*
X3271Y1795D01*
X3197Y1738D01*
X3140Y1663D01*
X3104Y1577D01*
X3092Y1484D01*
X3104Y1392D01*
X3140Y1305D01*
X3197Y1231D01*
X3271Y1174D01*
X3357Y1138D01*
X3450Y1126D01*
X3543Y1138D01*
X3629Y1174D01*
X3703Y1231D01*
X3760Y1305D01*
X3796Y1392D01*
X3808Y1484D01*
X3796Y1577D01*
X3760Y1663D01*
X3703Y1738D01*
X3629Y1795D01*
X3543Y1830D01*
X3450Y1843D01*
D02*
G37*
G36*
X4944Y1184D02*
Y1042D01*
X5086D01*
X5081Y1070D01*
X5037Y1135D01*
X4972Y1179D01*
X4944Y1184D01*
D02*
G37*
G36*
X4844D02*
X4817Y1179D01*
X4751Y1135D01*
X4707Y1070D01*
X4702Y1042D01*
X4844D01*
Y1184D01*
D02*
G37*
G36*
X20850Y1142D02*
Y1000D01*
X20992D01*
X20987Y1027D01*
X20943Y1093D01*
X20877Y1137D01*
X20850Y1142D01*
D02*
G37*
G36*
X20750D02*
X20723Y1137D01*
X20657Y1093D01*
X20613Y1027D01*
X20608Y1000D01*
X20750D01*
Y1142D01*
D02*
G37*
G36*
X19450Y1843D02*
X19357Y1830D01*
X19271Y1795D01*
X19197Y1738D01*
X19140Y1663D01*
X19104Y1577D01*
X19092Y1484D01*
X19104Y1392D01*
X19140Y1305D01*
X19197Y1231D01*
X19271Y1174D01*
X19357Y1138D01*
X19377Y1136D01*
X19390Y1083D01*
X19352Y1027D01*
X19347Y1000D01*
X19732D01*
X19726Y1027D01*
X19682Y1093D01*
X19637Y1123D01*
X19633Y1147D01*
X19637Y1180D01*
X19703Y1231D01*
X19760Y1305D01*
X19796Y1392D01*
X19808Y1484D01*
X19796Y1577D01*
X19760Y1663D01*
X19703Y1738D01*
X19629Y1795D01*
X19543Y1830D01*
X19450Y1843D01*
D02*
G37*
G36*
X12978Y1122D02*
Y980D01*
X13120D01*
X13115Y1007D01*
X13071Y1073D01*
X13005Y1116D01*
X12978Y1122D01*
D02*
G37*
G36*
X12878D02*
X12851Y1116D01*
X12785Y1073D01*
X12741Y1007D01*
X12736Y980D01*
X12878D01*
Y1122D01*
D02*
G37*
G36*
X8950D02*
Y980D01*
X9092D01*
X9087Y1007D01*
X9043Y1073D01*
X8977Y1116D01*
X8950Y1122D01*
D02*
G37*
G36*
X8850D02*
X8823Y1116D01*
X8757Y1073D01*
X8713Y1007D01*
X8708Y980D01*
X8850D01*
Y1122D01*
D02*
G37*
G36*
X16901Y1112D02*
Y970D01*
X17043D01*
X17038Y997D01*
X16994Y1063D01*
X16928Y1106D01*
X16901Y1112D01*
D02*
G37*
G36*
X16801D02*
X16774Y1106D01*
X16708Y1063D01*
X16664Y997D01*
X16659Y970D01*
X16801D01*
Y1112D01*
D02*
G37*
G36*
X3092Y1039D02*
X2950D01*
Y897D01*
X2977Y902D01*
X3043Y946D01*
X3087Y1012D01*
X3092Y1039D01*
D02*
G37*
G36*
X2850D02*
X2708D01*
X2713Y1012D01*
X2757Y946D01*
X2823Y902D01*
X2850Y897D01*
Y1039D01*
D02*
G37*
G36*
X1944D02*
X1802D01*
Y897D01*
X1829Y902D01*
X1895Y946D01*
X1938Y1012D01*
X1944Y1039D01*
D02*
G37*
G36*
X1702D02*
X1559D01*
X1565Y1012D01*
X1609Y946D01*
X1674Y902D01*
X1702Y897D01*
Y1039D01*
D02*
G37*
G36*
X20750Y900D02*
X20608D01*
X20613Y872D01*
X20629Y849D01*
X20595Y809D01*
X20543Y830D01*
X20450Y843D01*
X20357Y830D01*
X20271Y795D01*
X20197Y738D01*
X20140Y663D01*
X20104Y577D01*
X20092Y484D01*
X20104Y392D01*
X20140Y305D01*
X20197Y231D01*
X20271Y174D01*
X20357Y138D01*
X20450Y126D01*
X20543Y138D01*
X20629Y174D01*
X20703Y231D01*
X20760Y305D01*
X20796Y392D01*
X20808Y484D01*
X20796Y577D01*
X20760Y663D01*
X20723Y712D01*
X20750Y754D01*
Y900D01*
D02*
G37*
G36*
X5086Y942D02*
X4944D01*
Y800D01*
X4972Y805D01*
X5037Y849D01*
X5081Y915D01*
X5086Y942D01*
D02*
G37*
G36*
X4844D02*
X4702D01*
X4707Y915D01*
X4751Y849D01*
X4817Y805D01*
X4844Y800D01*
Y942D01*
D02*
G37*
G36*
X20992Y900D02*
X20850D01*
Y757D01*
X20877Y763D01*
X20943Y807D01*
X20987Y872D01*
X20992Y900D01*
D02*
G37*
G36*
X13120Y880D02*
X12978D01*
Y737D01*
X13005Y743D01*
X13071Y786D01*
X13115Y852D01*
X13120Y880D01*
D02*
G37*
G36*
X12878D02*
X12736D01*
X12741Y852D01*
X12785Y786D01*
X12851Y743D01*
X12878Y737D01*
Y880D01*
D02*
G37*
G36*
X9092D02*
X8950D01*
Y737D01*
X8977Y743D01*
X9043Y786D01*
X9087Y852D01*
X9092Y880D01*
D02*
G37*
G36*
X8850D02*
X8708D01*
X8713Y852D01*
X8757Y786D01*
X8823Y743D01*
X8850Y737D01*
Y880D01*
D02*
G37*
G36*
X17043Y870D02*
X16901D01*
Y727D01*
X16928Y733D01*
X16994Y777D01*
X17038Y842D01*
X17043Y870D01*
D02*
G37*
G36*
X1802Y430D02*
Y288D01*
X1944D01*
X1938Y315D01*
X1895Y381D01*
X1829Y425D01*
X1802Y430D01*
D02*
G37*
G36*
X1702D02*
X1674Y425D01*
X1609Y381D01*
X1565Y315D01*
X1559Y288D01*
X1702D01*
Y430D01*
D02*
G37*
G36*
X21450Y843D02*
X21357Y830D01*
X21271Y795D01*
X21197Y738D01*
X21140Y663D01*
X21104Y577D01*
X21092Y484D01*
X21104Y392D01*
X21140Y305D01*
X21197Y231D01*
X21271Y174D01*
X21357Y138D01*
X21450Y126D01*
X21543Y138D01*
X21629Y174D01*
X21703Y231D01*
X21760Y305D01*
X21796Y392D01*
X21808Y484D01*
X21796Y577D01*
X21760Y663D01*
X21703Y738D01*
X21629Y795D01*
X21543Y830D01*
X21450Y843D01*
D02*
G37*
G36*
X19732Y900D02*
X19347D01*
X19351Y880D01*
X19352Y871D01*
X19328Y818D01*
X19271Y795D01*
X19197Y738D01*
X19140Y663D01*
X19104Y577D01*
X19092Y484D01*
X19104Y392D01*
X19140Y305D01*
X19197Y231D01*
X19271Y174D01*
X19357Y138D01*
X19450Y126D01*
X19543Y138D01*
X19629Y174D01*
X19703Y231D01*
X19760Y305D01*
X19796Y392D01*
X19808Y484D01*
X19796Y577D01*
X19760Y663D01*
X19703Y738D01*
X19680Y756D01*
X19681Y806D01*
X19682Y807D01*
X19726Y872D01*
X19732Y900D01*
D02*
G37*
G36*
X18450Y843D02*
X18357Y830D01*
X18271Y795D01*
X18197Y738D01*
X18140Y663D01*
X18104Y577D01*
X18092Y484D01*
X18104Y392D01*
X18140Y305D01*
X18197Y231D01*
X18271Y174D01*
X18357Y138D01*
X18450Y126D01*
X18543Y138D01*
X18629Y174D01*
X18703Y231D01*
X18760Y305D01*
X18796Y392D01*
X18808Y484D01*
X18796Y577D01*
X18760Y663D01*
X18703Y738D01*
X18629Y795D01*
X18543Y830D01*
X18450Y843D01*
D02*
G37*
G36*
X17450D02*
X17357Y830D01*
X17271Y795D01*
X17197Y738D01*
X17140Y663D01*
X17104Y577D01*
X17092Y484D01*
X17104Y392D01*
X17140Y305D01*
X17197Y231D01*
X17271Y174D01*
X17357Y138D01*
X17450Y126D01*
X17543Y138D01*
X17629Y174D01*
X17703Y231D01*
X17760Y305D01*
X17796Y392D01*
X17808Y484D01*
X17796Y577D01*
X17760Y663D01*
X17703Y738D01*
X17629Y795D01*
X17543Y830D01*
X17450Y843D01*
D02*
G37*
G36*
X13450D02*
X13357Y830D01*
X13271Y795D01*
X13197Y738D01*
X13140Y663D01*
X13104Y577D01*
X13092Y484D01*
X13104Y392D01*
X13140Y305D01*
X13197Y231D01*
X13271Y174D01*
X13357Y138D01*
X13450Y126D01*
X13543Y138D01*
X13629Y174D01*
X13703Y231D01*
X13760Y305D01*
X13796Y392D01*
X13808Y484D01*
X13796Y577D01*
X13760Y663D01*
X13703Y738D01*
X13629Y795D01*
X13543Y830D01*
X13450Y843D01*
D02*
G37*
G36*
X12450D02*
X12357Y830D01*
X12271Y795D01*
X12197Y738D01*
X12140Y663D01*
X12104Y577D01*
X12092Y484D01*
X12104Y392D01*
X12140Y305D01*
X12197Y231D01*
X12271Y174D01*
X12357Y138D01*
X12450Y126D01*
X12543Y138D01*
X12629Y174D01*
X12703Y231D01*
X12760Y305D01*
X12796Y392D01*
X12808Y484D01*
X12796Y577D01*
X12760Y663D01*
X12703Y738D01*
X12629Y795D01*
X12543Y830D01*
X12450Y843D01*
D02*
G37*
G36*
X11450D02*
X11357Y830D01*
X11271Y795D01*
X11197Y738D01*
X11140Y663D01*
X11104Y577D01*
X11092Y484D01*
X11104Y392D01*
X11140Y305D01*
X11197Y231D01*
X11271Y174D01*
X11357Y138D01*
X11450Y126D01*
X11543Y138D01*
X11629Y174D01*
X11703Y231D01*
X11760Y305D01*
X11796Y392D01*
X11808Y484D01*
X11796Y577D01*
X11760Y663D01*
X11703Y738D01*
X11629Y795D01*
X11543Y830D01*
X11450Y843D01*
D02*
G37*
G36*
X9450D02*
X9357Y830D01*
X9271Y795D01*
X9197Y738D01*
X9140Y663D01*
X9104Y577D01*
X9092Y484D01*
X9104Y392D01*
X9140Y305D01*
X9197Y231D01*
X9271Y174D01*
X9357Y138D01*
X9450Y126D01*
X9543Y138D01*
X9629Y174D01*
X9703Y231D01*
X9760Y305D01*
X9796Y392D01*
X9808Y484D01*
X9796Y577D01*
X9760Y663D01*
X9703Y738D01*
X9629Y795D01*
X9543Y830D01*
X9450Y843D01*
D02*
G37*
G36*
X8450D02*
X8357Y830D01*
X8271Y795D01*
X8197Y738D01*
X8140Y663D01*
X8104Y577D01*
X8092Y484D01*
X8104Y392D01*
X8140Y305D01*
X8197Y231D01*
X8271Y174D01*
X8357Y138D01*
X8450Y126D01*
X8543Y138D01*
X8629Y174D01*
X8703Y231D01*
X8760Y305D01*
X8796Y392D01*
X8808Y484D01*
X8796Y577D01*
X8760Y663D01*
X8703Y738D01*
X8629Y795D01*
X8543Y830D01*
X8450Y843D01*
D02*
G37*
G36*
X7450D02*
X7357Y830D01*
X7271Y795D01*
X7197Y738D01*
X7140Y663D01*
X7104Y577D01*
X7092Y484D01*
X7104Y392D01*
X7140Y305D01*
X7197Y231D01*
X7271Y174D01*
X7357Y138D01*
X7450Y126D01*
X7543Y138D01*
X7629Y174D01*
X7703Y231D01*
X7760Y305D01*
X7796Y392D01*
X7808Y484D01*
X7796Y577D01*
X7760Y663D01*
X7703Y738D01*
X7629Y795D01*
X7543Y830D01*
X7450Y843D01*
D02*
G37*
G36*
X6450D02*
X6357Y830D01*
X6271Y795D01*
X6197Y738D01*
X6140Y663D01*
X6104Y577D01*
X6092Y484D01*
X6104Y392D01*
X6140Y305D01*
X6197Y231D01*
X6271Y174D01*
X6357Y138D01*
X6450Y126D01*
X6543Y138D01*
X6629Y174D01*
X6703Y231D01*
X6760Y305D01*
X6796Y392D01*
X6808Y484D01*
X6796Y577D01*
X6760Y663D01*
X6703Y738D01*
X6629Y795D01*
X6543Y830D01*
X6450Y843D01*
D02*
G37*
G36*
X5450D02*
X5357Y830D01*
X5271Y795D01*
X5197Y738D01*
X5140Y663D01*
X5104Y577D01*
X5092Y484D01*
X5104Y392D01*
X5140Y305D01*
X5197Y231D01*
X5271Y174D01*
X5357Y138D01*
X5450Y126D01*
X5543Y138D01*
X5629Y174D01*
X5703Y231D01*
X5760Y305D01*
X5796Y392D01*
X5808Y484D01*
X5796Y577D01*
X5760Y663D01*
X5703Y738D01*
X5629Y795D01*
X5543Y830D01*
X5450Y843D01*
D02*
G37*
G36*
X4450D02*
X4357Y830D01*
X4271Y795D01*
X4197Y738D01*
X4140Y663D01*
X4104Y577D01*
X4092Y484D01*
X4104Y392D01*
X4140Y305D01*
X4197Y231D01*
X4271Y174D01*
X4357Y138D01*
X4450Y126D01*
X4543Y138D01*
X4629Y174D01*
X4703Y231D01*
X4760Y305D01*
X4796Y392D01*
X4808Y484D01*
X4796Y577D01*
X4760Y663D01*
X4703Y738D01*
X4629Y795D01*
X4543Y830D01*
X4450Y843D01*
D02*
G37*
G36*
X3450D02*
X3357Y830D01*
X3271Y795D01*
X3197Y738D01*
X3140Y663D01*
X3104Y577D01*
X3092Y484D01*
X3104Y392D01*
X3140Y305D01*
X3197Y231D01*
X3271Y174D01*
X3357Y138D01*
X3450Y126D01*
X3543Y138D01*
X3629Y174D01*
X3703Y231D01*
X3760Y305D01*
X3796Y392D01*
X3808Y484D01*
X3796Y577D01*
X3760Y663D01*
X3703Y738D01*
X3629Y795D01*
X3543Y830D01*
X3450Y843D01*
D02*
G37*
G36*
X2450D02*
X2357Y830D01*
X2271Y795D01*
X2197Y738D01*
X2140Y663D01*
X2104Y577D01*
X2092Y484D01*
X2104Y392D01*
X2140Y305D01*
X2197Y231D01*
X2271Y174D01*
X2357Y138D01*
X2450Y126D01*
X2543Y138D01*
X2629Y174D01*
X2703Y231D01*
X2760Y305D01*
X2796Y392D01*
X2808Y484D01*
X2796Y577D01*
X2760Y663D01*
X2703Y738D01*
X2629Y795D01*
X2543Y830D01*
X2450Y843D01*
D02*
G37*
%LPD*%
G36*
X19618Y18624D02*
X19671Y18589D01*
X19733Y18577D01*
X19753Y18581D01*
X19776Y18565D01*
X19798Y18539D01*
Y18428D01*
X19748Y18411D01*
X19703Y18469D01*
X19629Y18526D01*
X19543Y18562D01*
X19450Y18574D01*
X19357Y18562D01*
X19271Y18526D01*
X19197Y18469D01*
X19140Y18395D01*
X19104Y18309D01*
X19092Y18216D01*
X19104Y18123D01*
X19140Y18037D01*
X19197Y17962D01*
X19271Y17905D01*
X19357Y17870D01*
X19450Y17857D01*
X19543Y17870D01*
X19629Y17905D01*
X19703Y17962D01*
X19748Y18021D01*
X19798Y18004D01*
Y17851D01*
X19699Y17752D01*
X18346D01*
X18307Y17744D01*
X18299Y17739D01*
X18286Y17740D01*
X18241Y17753D01*
X18238Y17756D01*
X18213Y17794D01*
X18160Y17829D01*
X18098Y17841D01*
X18052Y17832D01*
X18002Y17861D01*
Y18001D01*
X18002Y18021D01*
Y18402D01*
X18236Y18636D01*
X19610D01*
X19618Y18624D01*
D02*
G37*
G36*
X18113Y17582D02*
X18105Y17581D01*
X18097Y17579D01*
X18089Y17576D01*
X18082Y17573D01*
X18074Y17569D01*
X18067Y17565D01*
X18059Y17560D01*
X18052Y17554D01*
X18045Y17548D01*
X18038Y17541D01*
X17972Y17588D01*
X17979Y17595D01*
X17984Y17603D01*
X17990Y17610D01*
X17994Y17617D01*
X17997Y17625D01*
X18000Y17633D01*
X18001Y17640D01*
X18002Y17648D01*
X18002Y17656D01*
X18001Y17664D01*
X18113Y17582D01*
D02*
G37*
G36*
X17140Y18037D02*
X17197Y17962D01*
X17271Y17905D01*
X17357Y17870D01*
X17450Y17857D01*
X17543Y17870D01*
X17629Y17905D01*
X17703Y17962D01*
X17748Y18021D01*
X17798Y18004D01*
Y17837D01*
X17361Y17460D01*
X17361Y17460D01*
X17361Y17460D01*
X17359Y17459D01*
X17357Y17455D01*
X17353Y17453D01*
X16653Y16753D01*
X16646Y16752D01*
X16624Y16801D01*
X17038Y17214D01*
X17060Y17247D01*
X17068Y17286D01*
Y18080D01*
X17118Y18090D01*
X17140Y18037D01*
D02*
G37*
G36*
X16743Y16642D02*
X16736Y16635D01*
X16730Y16627D01*
X16725Y16620D01*
X16721Y16613D01*
X16718Y16605D01*
X16715Y16598D01*
X16714Y16590D01*
X16713Y16583D01*
X16714Y16575D01*
X16715Y16567D01*
X16599Y16641D01*
X16607Y16643D01*
X16614Y16646D01*
X16622Y16649D01*
X16629Y16652D01*
X16636Y16656D01*
X16644Y16661D01*
X16651Y16666D01*
X16665Y16678D01*
X16672Y16685D01*
X16743Y16642D01*
D02*
G37*
G36*
X16648Y16451D02*
X16641Y16448D01*
X16633Y16445D01*
X16625Y16441D01*
X16617Y16436D01*
X16600Y16423D01*
X16590Y16415D01*
X16560Y16388D01*
X16501Y16441D01*
X16508Y16449D01*
X16514Y16456D01*
X16519Y16463D01*
X16523Y16471D01*
X16526Y16478D01*
X16528Y16485D01*
X16529Y16493D01*
X16529Y16500D01*
X16528Y16507D01*
X16526Y16514D01*
X16648Y16451D01*
D02*
G37*
G36*
X16462Y16568D02*
X16458Y16545D01*
X16465Y16510D01*
X16463Y16498D01*
X16463Y16497D01*
X16463Y16497D01*
X16461Y16494D01*
X16459Y16491D01*
X16454Y16486D01*
X16453Y16485D01*
X16453Y16485D01*
X16451Y16478D01*
X14340Y14368D01*
X14301Y14400D01*
X14302Y14401D01*
X14323Y14433D01*
X14336Y14494D01*
X14333Y14509D01*
X16416Y16593D01*
X16462Y16568D01*
D02*
G37*
G36*
X8438Y9202D02*
X8417Y9152D01*
X5360D01*
X5345Y9172D01*
X5355Y9236D01*
X5364Y9242D01*
X5372Y9254D01*
X8386D01*
X8438Y9202D01*
D02*
G37*
G36*
X7921Y8660D02*
X7881Y8633D01*
X7873Y8621D01*
X5109D01*
X5067Y8663D01*
X5086Y8704D01*
X5091Y8710D01*
X7906D01*
X7921Y8660D01*
D02*
G37*
%LPC*%
G36*
X18450Y18574D02*
X18357Y18562D01*
X18271Y18526D01*
X18197Y18469D01*
X18140Y18395D01*
X18104Y18309D01*
X18092Y18216D01*
X18104Y18123D01*
X18140Y18037D01*
X18197Y17962D01*
X18271Y17905D01*
X18357Y17870D01*
X18450Y17857D01*
X18543Y17870D01*
X18629Y17905D01*
X18703Y17962D01*
X18760Y18037D01*
X18796Y18123D01*
X18808Y18216D01*
X18796Y18309D01*
X18760Y18395D01*
X18703Y18469D01*
X18629Y18526D01*
X18543Y18562D01*
X18450Y18574D01*
D02*
G37*
%LPD*%
G36*
X12006Y5607D02*
X12001Y5601D01*
X11996Y5594D01*
X11993Y5587D01*
X11989Y5579D01*
X11987Y5571D01*
X11985Y5563D01*
X11983Y5554D01*
X11982Y5544D01*
X11982Y5535D01*
X11902D01*
X11902Y5544D01*
X11901Y5554D01*
X11900Y5563D01*
X11898Y5571D01*
X11895Y5579D01*
X11892Y5587D01*
X11888Y5594D01*
X11884Y5601D01*
X11879Y5607D01*
X11873Y5613D01*
X12011D01*
X12006Y5607D01*
D02*
G37*
G36*
X11772Y5400D02*
X11768Y5394D01*
X11763Y5387D01*
X11760Y5380D01*
X11757Y5372D01*
X11754Y5364D01*
X11752Y5355D01*
X11751Y5346D01*
X11750Y5337D01*
X11749Y5327D01*
X11669Y5326D01*
X11669Y5335D01*
X11668Y5345D01*
X11667Y5354D01*
X11665Y5362D01*
X11662Y5370D01*
X11659Y5378D01*
X11655Y5385D01*
X11651Y5392D01*
X11646Y5398D01*
X11640Y5404D01*
X11778Y5406D01*
X11772Y5400D01*
D02*
G37*
G36*
X15348Y1927D02*
Y1827D01*
X15271Y1795D01*
X15207Y1745D01*
X15157Y1761D01*
Y1923D01*
X15149Y1962D01*
X15127Y1995D01*
X12044Y5078D01*
Y5162D01*
X12049Y5166D01*
X12094Y5181D01*
X15348Y1927D01*
D02*
G37*
G36*
X11870Y4964D02*
X14953Y1881D01*
Y1762D01*
X14907Y1743D01*
X11811Y4838D01*
Y4961D01*
X11861Y4977D01*
X11870Y4964D01*
D02*
G37*
G36*
X16095Y987D02*
X16096Y978D01*
X16098Y969D01*
X16100Y962D01*
X16103Y954D01*
X16107Y948D01*
X16112Y943D01*
X16117Y938D01*
X16123Y934D01*
X16129Y930D01*
X16000Y881D01*
X16003Y888D01*
X16005Y895D01*
X16008Y902D01*
X16011Y917D01*
X16012Y926D01*
X16014Y944D01*
X16015Y963D01*
X16095Y997D01*
X16095Y987D01*
D02*
G37*
G36*
X15095Y935D02*
X15096Y925D01*
X15098Y917D01*
X15100Y909D01*
X15103Y903D01*
X15107Y897D01*
X15111Y891D01*
X15117Y887D01*
X15122Y884D01*
X15129Y881D01*
X15006Y822D01*
X15008Y827D01*
X15009Y832D01*
X15012Y845D01*
X15013Y852D01*
X15014Y878D01*
X15015Y898D01*
X15095Y945D01*
X15095Y935D01*
D02*
G37*
D15*
X9088Y7412D02*
X9100Y7400D01*
X8277Y7600D02*
X8465Y7412D01*
X9088D01*
X2898Y8714D02*
X2900Y8716D01*
X4063Y2222D02*
X4298Y2457D01*
X3550Y4422D02*
X4580D01*
X5467Y6483D02*
X13867D01*
X5155Y6795D02*
X5467Y6483D01*
X10959Y4881D02*
X13317Y2524D01*
X10959Y4881D02*
Y5813D01*
X13317Y2000D02*
Y2524D01*
X11511Y4708D02*
Y5300D01*
Y4708D02*
X14125Y2094D01*
X11709Y4796D02*
Y5474D01*
X11708Y5475D02*
X11709Y5474D01*
Y4796D02*
X14900Y1606D01*
Y300D02*
Y1606D01*
X11942Y5036D02*
Y5684D01*
X12155Y5264D02*
Y5997D01*
X11942Y5036D02*
X15055Y1923D01*
X12155Y5264D02*
X15450Y1969D01*
X13867Y6483D02*
X14309Y6041D01*
X15450Y1484D02*
Y1969D01*
X12495Y5414D02*
Y5760D01*
Y5414D02*
X16055Y1855D01*
Y875D02*
Y1855D01*
X14125Y1051D02*
Y2094D01*
X10486Y17127D02*
X12361D01*
X10183Y16824D02*
X10486Y17127D01*
X12361D02*
X13450Y18216D01*
X9780Y14425D02*
X10000Y14205D01*
X9466Y16434D02*
X9780Y16120D01*
Y14425D02*
Y16120D01*
X10000Y14200D02*
Y14205D01*
X13460Y13344D02*
X16582Y16466D01*
X13460Y11320D02*
Y13344D01*
X16966Y17286D02*
Y18666D01*
X14174Y14494D02*
X16966Y17286D01*
X13241Y14235D02*
X15925Y16918D01*
X13241Y13465D02*
Y14235D01*
X15925Y16918D02*
Y18691D01*
X16450Y19216D01*
X16619Y16513D02*
Y16545D01*
X16582Y16476D02*
X16619Y16513D01*
X16582Y16466D02*
Y16476D01*
Y16538D02*
X17425Y17381D01*
X17428Y17383D02*
X17900Y17790D01*
X17425Y17381D02*
X17428Y17383D01*
X15066Y12036D02*
X15160Y14662D01*
X17391Y16951D02*
X18098Y17658D01*
X15160Y14662D02*
X17391Y16951D01*
X15300Y11734D02*
Y14604D01*
X15347Y14651D01*
X17151Y16396D01*
X17315Y16560D01*
X13450Y9884D02*
X15300Y11734D01*
X5067Y8519D02*
X7995D01*
X3086Y10500D02*
X5067Y8519D01*
X7995Y8359D02*
Y8519D01*
X7586Y7950D02*
X7995Y8359D01*
X4252Y7950D02*
X7586D01*
X13683Y8527D02*
Y8740D01*
X13450Y8973D02*
X13683Y8740D01*
X14309Y6041D02*
X14477D01*
X14693Y5843D02*
Y7208D01*
X14936Y5600D02*
X15536D01*
X14693Y5843D02*
X14936Y5600D01*
X13764Y8137D02*
X14693Y7208D01*
X14950Y6041D02*
Y9016D01*
X14800Y9166D02*
X14950Y9016D01*
X14800Y9166D02*
Y9180D01*
X15518Y9898D01*
X3948Y7645D02*
X4252Y7950D01*
X8228Y12307D02*
X8230D01*
X8226Y12305D02*
X8228Y12307D01*
X7301Y12305D02*
X8226D01*
X7296Y12300D02*
X7301Y12305D01*
X17900Y17790D02*
Y18001D01*
X18098Y17658D02*
Y17680D01*
X18299Y17603D02*
X18346Y17650D01*
X17315Y16560D02*
X18299Y17603D01*
X17900Y18021D02*
Y18444D01*
X18194Y18738D02*
X19733D01*
X17900Y18444D02*
X18194Y18738D01*
X17900Y18001D02*
X17900Y18021D01*
X18346Y17650D02*
X19741D01*
X17600Y16043D02*
X18072D01*
X18550Y13241D02*
Y15565D01*
X18072Y16043D02*
X18550Y15565D01*
X10200Y14528D02*
X10337Y14391D01*
Y14387D02*
Y14391D01*
X10764Y14945D02*
X11076D01*
X11323Y15192D01*
X10337Y14387D02*
X10367Y14356D01*
X9896Y16334D02*
Y17580D01*
Y16334D02*
X10200Y16029D01*
X9896Y17580D02*
X9900Y17585D01*
X7332Y7600D02*
X8277D01*
X13683Y7410D02*
Y8024D01*
X13764Y8105D01*
Y8137D01*
X15258Y10368D02*
Y11200D01*
X15744Y10446D02*
X16090D01*
X15620Y10322D02*
X15744Y10446D01*
X15305Y10322D02*
X15620D01*
X15258Y10368D02*
X15305Y10322D01*
X15547Y13991D02*
X17600Y16043D01*
X15547Y10683D02*
Y13991D01*
X9900Y9050D02*
Y9700D01*
X13450Y8973D02*
Y9884D01*
X12731Y7732D02*
Y8388D01*
X5088Y8812D02*
X8288D01*
X2934Y10966D02*
X5088Y8812D01*
X8288D02*
X9150Y7950D01*
X1950Y11550D02*
X8707D01*
X10214Y9700D02*
Y10043D01*
X8707Y11550D02*
X10214Y10043D01*
X9978Y8623D02*
X10214Y8859D01*
X9161Y8623D02*
X9978D01*
X8428Y9356D02*
X9161Y8623D01*
X10214Y8859D02*
Y9700D01*
X15055Y831D02*
Y1923D01*
X15933Y9488D02*
X16145Y9700D01*
X16862D01*
X8686Y12434D02*
Y14550D01*
Y12434D02*
X12731Y8388D01*
X9450Y14356D02*
Y16152D01*
Y14356D02*
X9461Y14345D01*
X10100Y840D02*
Y1184D01*
X9982Y1302D02*
Y3686D01*
Y1302D02*
X10100Y1184D01*
X3450Y2222D02*
X4063D01*
X17012Y7418D02*
X21438D01*
X15518Y8913D02*
X17012Y7418D01*
X17075Y6728D02*
X21450D01*
X15284Y8519D02*
X17075Y6728D01*
X1516Y10966D02*
X2934D01*
X5250Y9356D02*
X8428D01*
X1300Y11300D02*
X8300D01*
X9900Y9700D01*
X9466Y16434D02*
Y17300D01*
X8950Y16652D02*
Y17150D01*
X7950Y16950D02*
X9021Y15879D01*
Y13961D02*
Y15879D01*
X8450Y16823D02*
X9171Y16102D01*
Y14350D02*
Y16102D01*
X8950Y16652D02*
X9450Y16152D01*
X10200Y14528D02*
Y16029D01*
X9171Y14350D02*
X9780Y13741D01*
X9021Y13961D02*
X9582Y13400D01*
X5052Y9274D02*
Y10057D01*
Y9274D02*
X5275Y9050D01*
X8482D01*
X9582Y7950D01*
X2700Y10500D02*
X3086D01*
X1000Y10450D02*
X1516Y10966D01*
X19191Y12600D02*
X23100D01*
X18550Y13241D02*
X19191Y12600D01*
X17372Y15330D02*
Y15343D01*
X15800Y13758D02*
X17372Y15330D01*
X15800Y12150D02*
Y13758D01*
X22704Y13204D02*
X23100Y13600D01*
X18950Y13204D02*
X22704D01*
X484Y9350D02*
X500D01*
X1000Y9850D02*
Y10450D01*
X500Y9350D02*
X1000Y9850D01*
X484Y10350D02*
Y10484D01*
X1300Y11300D01*
X23100Y13600D02*
Y15566D01*
X20450Y18216D02*
X23100Y15566D01*
X20150Y18800D02*
X20950D01*
X19900Y18550D02*
X20150Y18800D01*
X19900Y17809D02*
Y18550D01*
X19741Y17650D02*
X19900Y17809D01*
X15055Y831D02*
X15098Y787D01*
X15750Y950D02*
Y1184D01*
X15450Y1484D02*
X15750Y1184D01*
X16055Y875D02*
X16090Y840D01*
X23650Y18144D02*
Y19700D01*
X0D02*
X23650D01*
Y-0D02*
Y18144D01*
X0Y-0D02*
X23622D01*
X0D02*
Y19700D01*
X18778Y9248D02*
Y10507D01*
X20747Y9248D02*
Y10507D01*
X18778D02*
X20747D01*
X18778Y9248D02*
X20747D01*
X3870Y3557D02*
Y5013D01*
X6508Y3557D02*
Y5013D01*
X3870Y3557D02*
X6508D01*
X3870Y5013D02*
X6508D01*
X14306Y6944D02*
Y12456D01*
X8794Y6944D02*
Y12456D01*
Y6944D02*
X14306D01*
X8794Y12456D02*
X14306D01*
D16*
X20668Y10232D02*
G03*
X20668Y10232I-197J0D01*
G01*
X14148Y7298D02*
G03*
X14148Y7298I-197J0D01*
G01*
D37*
X4213Y7215D02*
X4491Y7493D01*
X2898Y7812D02*
X3496Y7215D01*
X4213D01*
X6577Y14281D02*
X7849D01*
X8635Y7055D02*
X8659D01*
X7874Y14256D02*
X7900D01*
X13298Y10276D02*
X13904Y10881D01*
X13122Y7215D02*
X13298Y7391D01*
X10851Y8866D02*
X12503Y7215D01*
X6564Y14291D02*
X6565Y14293D01*
X7311Y11861D02*
X8896D01*
X9203Y11550D02*
X9208D01*
X12503Y7215D02*
X13122D01*
X6564Y12608D02*
Y14291D01*
X8666Y7061D02*
X9578D01*
X10851Y8334D02*
Y8866D01*
X7308Y7256D02*
Y7261D01*
X2898Y7812D02*
Y8714D01*
X9208Y11550D02*
X10851Y9907D01*
X6565Y14293D02*
X6577Y14281D01*
X8428Y7262D02*
X8635Y7055D01*
X9203Y11550D02*
Y11555D01*
X13298Y7391D02*
Y10276D01*
X13904Y10881D02*
X13912D01*
X8896Y11861D02*
X9203Y11555D01*
X4491Y7493D02*
X7076D01*
X6564Y12608D02*
X7311Y11861D01*
X8659Y7055D02*
X8666Y7061D01*
X9578D02*
X10851Y8334D01*
X7076Y7493D02*
X7308Y7261D01*
Y7256D02*
X7315Y7262D01*
X8428D01*
X7849Y14281D02*
X7874Y14256D01*
X10851Y8866D02*
Y9907D01*
X16238Y8700D02*
X17725D01*
X11516Y3913D02*
X11983Y3446D01*
X10713Y3913D02*
X11516D01*
X10376Y4250D02*
X10713Y3913D01*
X8998Y4250D02*
X10376D01*
X8699Y3950D02*
X8998Y4250D01*
X15442Y9288D02*
X15650D01*
X15292Y9165D02*
X15318D01*
X15442Y9288D01*
X17735Y8700D02*
X17831D01*
X18200Y9069D01*
X15826Y9112D02*
Y9112D01*
X15650Y9288D02*
X15826Y9112D01*
Y9112D02*
X16238Y8700D01*
X20437D02*
Y9387D01*
X22650Y11600D01*
X23100D01*
X17600D02*
X18032D01*
X18659Y9247D02*
Y10974D01*
X18032Y11600D02*
X18659Y10974D01*
X17600Y11600D02*
X18200Y11000D01*
Y9069D02*
Y11000D01*
X18659Y9247D02*
X19206Y8700D01*
X15848Y11266D02*
X16183Y11600D01*
X17600D01*
X20350Y3766D02*
X20816D01*
X22450Y5400D01*
Y7300D01*
X20437Y8363D02*
Y8700D01*
X19206D02*
X20437D01*
X17600Y11600D02*
Y13241D01*
X21850Y7900D02*
X22450Y7300D01*
X20437Y8363D02*
X20900Y7900D01*
X21850D01*
D38*
X5250Y6230D02*
X13313D01*
X4830D02*
X5250D01*
X3744Y5813D02*
X4413D01*
X4830Y6230D01*
X2981Y6491D02*
X3659Y5813D01*
X1598Y6491D02*
X2981D01*
X13313Y6230D02*
X16355Y3188D01*
X21688D02*
X23100Y4600D01*
X16355Y3188D02*
X21688D01*
D40*
X23100Y10600D02*
D03*
Y11600D02*
D03*
Y12600D02*
D03*
Y13600D02*
D03*
Y3600D02*
D03*
Y4600D02*
D03*
Y5600D02*
D03*
Y6600D02*
D03*
Y7600D02*
D03*
Y8600D02*
D03*
X3450Y1484D02*
D03*
X2450Y484D02*
D03*
Y1484D02*
D03*
X3450Y484D02*
D03*
X4450D02*
D03*
Y1484D02*
D03*
X5450Y484D02*
D03*
Y1484D02*
D03*
X6450Y484D02*
D03*
Y1484D02*
D03*
X7450Y484D02*
D03*
Y1484D02*
D03*
X8450Y484D02*
D03*
Y1484D02*
D03*
X9450Y484D02*
D03*
Y1484D02*
D03*
X10450Y484D02*
D03*
Y1484D02*
D03*
X11450Y484D02*
D03*
Y1484D02*
D03*
X12450Y484D02*
D03*
Y1484D02*
D03*
X13450Y484D02*
D03*
Y1484D02*
D03*
X14450Y484D02*
D03*
Y1484D02*
D03*
X15450Y484D02*
D03*
Y1484D02*
D03*
X16450Y484D02*
D03*
Y1484D02*
D03*
X17450Y484D02*
D03*
Y1484D02*
D03*
X18450Y484D02*
D03*
Y1484D02*
D03*
X19450Y484D02*
D03*
Y1484D02*
D03*
X20450Y484D02*
D03*
Y1484D02*
D03*
X21450Y484D02*
D03*
Y1484D02*
D03*
X484Y12150D02*
D03*
X1484Y13150D02*
D03*
Y12150D02*
D03*
X484Y13150D02*
D03*
X1484Y7350D02*
D03*
X484D02*
D03*
X1484Y8350D02*
D03*
X484D02*
D03*
Y9350D02*
D03*
X1484Y10350D02*
D03*
X484D02*
D03*
X1484Y9350D02*
D03*
X3450Y19216D02*
D03*
X2450Y18216D02*
D03*
Y19216D02*
D03*
X3450Y18216D02*
D03*
X4450D02*
D03*
Y19216D02*
D03*
X5450Y18216D02*
D03*
Y19216D02*
D03*
X6450Y18216D02*
D03*
Y19216D02*
D03*
X7450Y18216D02*
D03*
Y19216D02*
D03*
X8450Y18216D02*
D03*
Y19216D02*
D03*
X9450Y18216D02*
D03*
Y19216D02*
D03*
X10450Y18216D02*
D03*
Y19216D02*
D03*
X11450Y18216D02*
D03*
Y19216D02*
D03*
X12450Y18216D02*
D03*
Y19216D02*
D03*
X13450Y18216D02*
D03*
Y19216D02*
D03*
X14450Y18216D02*
D03*
Y19216D02*
D03*
X15450Y18216D02*
D03*
Y19216D02*
D03*
X16450Y18216D02*
D03*
Y19216D02*
D03*
X17450Y18216D02*
D03*
Y19216D02*
D03*
X18450Y18216D02*
D03*
Y19216D02*
D03*
X19450Y18216D02*
D03*
Y19216D02*
D03*
X20450Y18216D02*
D03*
Y19216D02*
D03*
X21450Y18216D02*
D03*
Y19216D02*
D03*
D41*
X22863Y18898D02*
D03*
X787D02*
D03*
X22863Y787D02*
D03*
X787D02*
D03*
D42*
X8659Y7055D02*
D03*
X3550Y4422D02*
D03*
X5155Y6795D02*
D03*
X3659Y5813D02*
D03*
X2148Y5899D02*
D03*
X3265Y5467D02*
D03*
X11983Y3441D02*
D03*
X12694Y2164D02*
D03*
X11511Y5300D02*
D03*
X11708Y5475D02*
D03*
X12155Y5997D02*
D03*
X11942Y5684D02*
D03*
X12495Y5760D02*
D03*
X8686Y14651D02*
D03*
X17589Y8711D02*
D03*
X22050Y3020D02*
D03*
X13460Y11320D02*
D03*
X14174Y14494D02*
D03*
X13241Y13465D02*
D03*
X16619Y16545D02*
D03*
X7995Y8519D02*
D03*
X10241Y4870D02*
D03*
X13683Y8527D02*
D03*
X13880Y8913D02*
D03*
X14477Y6041D02*
D03*
X14950D02*
D03*
X15518Y6026D02*
D03*
X15292Y9165D02*
D03*
X3948Y7645D02*
D03*
X8230Y12307D02*
D03*
X18098Y17680D02*
D03*
X9100Y7400D02*
D03*
X10959Y5813D02*
D03*
X7296Y12300D02*
D03*
X10764Y14945D02*
D03*
X10367Y14356D02*
D03*
X10183Y16824D02*
D03*
X16851Y920D02*
D03*
X13764Y8137D02*
D03*
X7308Y7256D02*
D03*
X4580Y4422D02*
D03*
X13683Y7410D02*
D03*
X16090Y10446D02*
D03*
X15848Y11266D02*
D03*
X15547Y10683D02*
D03*
X7332Y7600D02*
D03*
X4489Y7490D02*
D03*
X9900Y9050D02*
D03*
X15258Y11200D02*
D03*
X12731Y7732D02*
D03*
X11323Y15192D02*
D03*
X17561Y14217D02*
D03*
X18950Y13741D02*
D03*
X17745Y10446D02*
D03*
X18163Y12150D02*
D03*
X9078Y3721D02*
D03*
X4290Y17150D02*
D03*
X2900Y8716D02*
D03*
X23100Y17750D02*
D03*
X15536Y5600D02*
D03*
X20800Y950D02*
D03*
X19539D02*
D03*
X1752Y238D02*
D03*
X19733Y5893D02*
D03*
X18192Y7200D02*
D03*
Y7782D02*
D03*
Y8363D02*
D03*
X19350Y11000D02*
D03*
X21987Y14153D02*
D03*
X22287Y10279D02*
D03*
X22050Y4250D02*
D03*
X23173Y1937D02*
D03*
X22050Y1800D02*
D03*
X5450Y9850D02*
D03*
X6100Y13823D02*
D03*
X9350Y18738D02*
D03*
X6100D02*
D03*
Y17350D02*
D03*
X7600Y17450D02*
D03*
X11158Y10846D02*
D03*
X3150Y15850D02*
D03*
X4351Y13450D02*
D03*
X19650Y15571D02*
D03*
X19600Y16200D02*
D03*
X19973Y17112D02*
D03*
X20894Y17075D02*
D03*
X23100Y16442D02*
D03*
X21987Y17081D02*
D03*
Y16203D02*
D03*
Y15250D02*
D03*
X21900Y12060D02*
D03*
X21366Y11000D02*
D03*
X22300Y9600D02*
D03*
X22292Y8569D02*
D03*
X22050Y6014D02*
D03*
Y5374D02*
D03*
X23173Y2761D02*
D03*
X22050Y2400D02*
D03*
X19733Y2060D02*
D03*
X15284Y3314D02*
D03*
X12150Y2761D02*
D03*
X12928Y930D02*
D03*
X8900D02*
D03*
X1752Y1089D02*
D03*
X2900D02*
D03*
X4894Y992D02*
D03*
X600Y2222D02*
D03*
X1752Y1844D02*
D03*
X600Y3250D02*
D03*
X587Y4237D02*
D03*
X600Y5174D02*
D03*
X600Y6117D02*
D03*
X2241Y9700D02*
D03*
X569Y14880D02*
D03*
Y16391D02*
D03*
Y15584D02*
D03*
Y17150D02*
D03*
X1752Y18216D02*
D03*
X13912Y10881D02*
D03*
X10214Y9700D02*
D03*
X20350Y3766D02*
D03*
X15933Y9488D02*
D03*
X16862Y9700D02*
D03*
X7900Y14256D02*
D03*
X9461Y14345D02*
D03*
X6565Y14293D02*
D03*
X9203Y11550D02*
D03*
X9982Y3686D02*
D03*
X3450Y2222D02*
D03*
X4286Y2457D02*
D03*
X17600Y13241D02*
D03*
Y11600D02*
D03*
X21438Y7418D02*
D03*
X20437Y8700D02*
D03*
X21450Y6728D02*
D03*
X8699Y3950D02*
D03*
X5250Y9356D02*
D03*
X19733Y18738D02*
D03*
X17600Y16043D02*
D03*
X9900Y17585D02*
D03*
X9466Y17300D02*
D03*
X8950Y17150D02*
D03*
X7950Y16950D02*
D03*
X8450Y16823D02*
D03*
X10000Y14200D02*
D03*
X5052Y10057D02*
D03*
X9582Y7950D02*
D03*
X9150D02*
D03*
X17372Y15343D02*
D03*
X18950Y13204D02*
D03*
X15518Y9898D02*
D03*
X2700Y10500D02*
D03*
X1950Y11550D02*
D03*
X15518Y8913D02*
D03*
X15284Y8519D02*
D03*
X15066Y12036D02*
D03*
X15800Y12150D02*
D03*
X16966Y18666D02*
D03*
X9780Y13741D02*
D03*
X9582Y13400D02*
D03*
X10100Y840D02*
D03*
X20950Y18800D02*
D03*
X13317Y2000D02*
D03*
X14125Y1051D02*
D03*
X15098Y787D02*
D03*
X14900Y300D02*
D03*
X15750Y950D02*
D03*
X16090Y840D02*
D03*
D43*
X5250Y6230D02*
D03*
X1598Y6491D02*
D03*
M02*
