G04*
G04 #@! TF.GenerationSoftware,Altium Limited,Altium Designer,20.0.13 (296)*
G04*
G04 Layer_Color=128*
%FSLAX24Y24*%
%MOIN*%
G70*
G01*
G75*
%ADD15C,0.0080*%
%ADD16C,0.0039*%
%ADD44C,0.0020*%
D15*
X23650Y18144D02*
Y19700D01*
X0D02*
X23650D01*
Y-0D02*
Y18144D01*
X0Y-0D02*
X23622D01*
X0D02*
Y19700D01*
X18778Y9248D02*
Y10507D01*
X20747Y9248D02*
Y10507D01*
X18778D02*
X20747D01*
X18778Y9248D02*
X20747D01*
X3870Y3557D02*
Y5013D01*
X6508Y3557D02*
Y5013D01*
X3870Y3557D02*
X6508D01*
X3870Y5013D02*
X6508D01*
X14306Y6944D02*
Y12456D01*
X8794Y6944D02*
Y12456D01*
Y6944D02*
X14306D01*
X8794Y12456D02*
X14306D01*
D16*
X20668Y10232D02*
G03*
X20668Y10232I-197J0D01*
G01*
X14148Y7298D02*
G03*
X14148Y7298I-197J0D01*
G01*
D44*
X22923Y10600D02*
X23277D01*
X23100Y10423D02*
Y10777D01*
X22923Y11600D02*
X23277D01*
X23100Y11423D02*
Y11777D01*
X22923Y12600D02*
X23277D01*
X23100Y12423D02*
Y12777D01*
X22923Y13600D02*
X23277D01*
X23100Y13423D02*
Y13777D01*
X22923Y3600D02*
X23277D01*
X23100Y3423D02*
Y3777D01*
X22923Y4600D02*
X23277D01*
X23100Y4423D02*
Y4777D01*
X22923Y5600D02*
X23277D01*
X23100Y5423D02*
Y5777D01*
X22923Y6600D02*
X23277D01*
X23100Y6423D02*
Y6777D01*
X22923Y7600D02*
X23277D01*
X23100Y7423D02*
Y7777D01*
X22923Y8600D02*
X23277D01*
X23100Y8423D02*
Y8777D01*
X3273Y1484D02*
X3627D01*
X3450Y1307D02*
Y1661D01*
X2273Y484D02*
X2627D01*
X2450Y307D02*
Y661D01*
X2273Y1484D02*
X2627D01*
X2450Y1307D02*
Y1661D01*
X3273Y484D02*
X3627D01*
X3450Y307D02*
Y661D01*
X4273Y484D02*
X4627D01*
X4450Y307D02*
Y661D01*
X4273Y1484D02*
X4627D01*
X4450Y1307D02*
Y1661D01*
X5273Y484D02*
X5627D01*
X5450Y307D02*
Y661D01*
X5273Y1484D02*
X5627D01*
X5450Y1307D02*
Y1661D01*
X6273Y484D02*
X6627D01*
X6450Y307D02*
Y661D01*
X6273Y1484D02*
X6627D01*
X6450Y1307D02*
Y1661D01*
X7273Y484D02*
X7627D01*
X7450Y307D02*
Y661D01*
X7273Y1484D02*
X7627D01*
X7450Y1307D02*
Y1661D01*
X8273Y484D02*
X8627D01*
X8450Y307D02*
Y661D01*
X8273Y1484D02*
X8627D01*
X8450Y1307D02*
Y1661D01*
X9273Y484D02*
X9627D01*
X9450Y307D02*
Y661D01*
X9273Y1484D02*
X9627D01*
X9450Y1307D02*
Y1661D01*
X10273Y484D02*
X10627D01*
X10450Y307D02*
Y661D01*
X10273Y1484D02*
X10627D01*
X10450Y1307D02*
Y1661D01*
X11273Y484D02*
X11627D01*
X11450Y307D02*
Y661D01*
X11273Y1484D02*
X11627D01*
X11450Y1307D02*
Y1661D01*
X12273Y484D02*
X12627D01*
X12450Y307D02*
Y661D01*
X12273Y1484D02*
X12627D01*
X12450Y1307D02*
Y1661D01*
X13273Y484D02*
X13627D01*
X13450Y307D02*
Y661D01*
X13273Y1484D02*
X13627D01*
X13450Y1307D02*
Y1661D01*
X14273Y484D02*
X14627D01*
X14450Y307D02*
Y661D01*
X14273Y1484D02*
X14627D01*
X14450Y1307D02*
Y1661D01*
X15273Y484D02*
X15627D01*
X15450Y307D02*
Y661D01*
X15273Y1484D02*
X15627D01*
X15450Y1307D02*
Y1661D01*
X16273Y484D02*
X16627D01*
X16450Y307D02*
Y661D01*
X16273Y1484D02*
X16627D01*
X16450Y1307D02*
Y1661D01*
X17273Y484D02*
X17627D01*
X17450Y307D02*
Y661D01*
X17273Y1484D02*
X17627D01*
X17450Y1307D02*
Y1661D01*
X18273Y484D02*
X18627D01*
X18450Y307D02*
Y661D01*
X18273Y1484D02*
X18627D01*
X18450Y1307D02*
Y1661D01*
X19273Y484D02*
X19627D01*
X19450Y307D02*
Y661D01*
X19273Y1484D02*
X19627D01*
X19450Y1307D02*
Y1661D01*
X20273Y484D02*
X20627D01*
X20450Y307D02*
Y661D01*
X20273Y1484D02*
X20627D01*
X20450Y1307D02*
Y1661D01*
X21273Y484D02*
X21627D01*
X21450Y307D02*
Y661D01*
X21273Y1484D02*
X21627D01*
X21450Y1307D02*
Y1661D01*
X307Y12150D02*
X661D01*
X484Y11973D02*
Y12327D01*
X1307Y13150D02*
X1661D01*
X1484Y12973D02*
Y13327D01*
X1307Y12150D02*
X1661D01*
X1484Y11973D02*
Y12327D01*
X307Y13150D02*
X661D01*
X484Y12973D02*
Y13327D01*
X1307Y7350D02*
X1661D01*
X1484Y7173D02*
Y7527D01*
X307Y7350D02*
X661D01*
X484Y7173D02*
Y7527D01*
X1307Y8350D02*
X1661D01*
X1484Y8173D02*
Y8527D01*
X307Y8350D02*
X661D01*
X484Y8173D02*
Y8527D01*
X307Y9350D02*
X661D01*
X484Y9173D02*
Y9527D01*
X1307Y10350D02*
X1661D01*
X1484Y10173D02*
Y10527D01*
X307Y10350D02*
X661D01*
X484Y10173D02*
Y10527D01*
X1307Y9350D02*
X1661D01*
X1484Y9173D02*
Y9527D01*
X3273Y19216D02*
X3627D01*
X3450Y19039D02*
Y19393D01*
X2273Y18216D02*
X2627D01*
X2450Y18039D02*
Y18393D01*
X2273Y19216D02*
X2627D01*
X2450Y19039D02*
Y19393D01*
X3273Y18216D02*
X3627D01*
X3450Y18039D02*
Y18393D01*
X4273Y18216D02*
X4627D01*
X4450Y18039D02*
Y18393D01*
X4273Y19216D02*
X4627D01*
X4450Y19039D02*
Y19393D01*
X5273Y18216D02*
X5627D01*
X5450Y18039D02*
Y18393D01*
X5273Y19216D02*
X5627D01*
X5450Y19039D02*
Y19393D01*
X6273Y18216D02*
X6627D01*
X6450Y18039D02*
Y18393D01*
X6273Y19216D02*
X6627D01*
X6450Y19039D02*
Y19393D01*
X7273Y18216D02*
X7627D01*
X7450Y18039D02*
Y18393D01*
X7273Y19216D02*
X7627D01*
X7450Y19039D02*
Y19393D01*
X8273Y18216D02*
X8627D01*
X8450Y18039D02*
Y18393D01*
X8273Y19216D02*
X8627D01*
X8450Y19039D02*
Y19393D01*
X9273Y18216D02*
X9627D01*
X9450Y18039D02*
Y18393D01*
X9273Y19216D02*
X9627D01*
X9450Y19039D02*
Y19393D01*
X10273Y18216D02*
X10627D01*
X10450Y18039D02*
Y18393D01*
X10273Y19216D02*
X10627D01*
X10450Y19039D02*
Y19393D01*
X11273Y18216D02*
X11627D01*
X11450Y18039D02*
Y18393D01*
X11273Y19216D02*
X11627D01*
X11450Y19039D02*
Y19393D01*
X12273Y18216D02*
X12627D01*
X12450Y18039D02*
Y18393D01*
X12273Y19216D02*
X12627D01*
X12450Y19039D02*
Y19393D01*
X13273Y18216D02*
X13627D01*
X13450Y18039D02*
Y18393D01*
X13273Y19216D02*
X13627D01*
X13450Y19039D02*
Y19393D01*
X14273Y18216D02*
X14627D01*
X14450Y18039D02*
Y18393D01*
X14273Y19216D02*
X14627D01*
X14450Y19039D02*
Y19393D01*
X15273Y18216D02*
X15627D01*
X15450Y18039D02*
Y18393D01*
X15273Y19216D02*
X15627D01*
X15450Y19039D02*
Y19393D01*
X16273Y18216D02*
X16627D01*
X16450Y18039D02*
Y18393D01*
X16273Y19216D02*
X16627D01*
X16450Y19039D02*
Y19393D01*
X17273Y18216D02*
X17627D01*
X17450Y18039D02*
Y18393D01*
X17273Y19216D02*
X17627D01*
X17450Y19039D02*
Y19393D01*
X18273Y18216D02*
X18627D01*
X18450Y18039D02*
Y18393D01*
X18273Y19216D02*
X18627D01*
X18450Y19039D02*
Y19393D01*
X19273Y18216D02*
X19627D01*
X19450Y18039D02*
Y18393D01*
X19273Y19216D02*
X19627D01*
X19450Y19039D02*
Y19393D01*
X20273Y18216D02*
X20627D01*
X20450Y18039D02*
Y18393D01*
X20273Y19216D02*
X20627D01*
X20450Y19039D02*
Y19393D01*
X21273Y18216D02*
X21627D01*
X21450Y18039D02*
Y18393D01*
X21273Y19216D02*
X21627D01*
X21450Y19039D02*
Y19393D01*
X22292Y18898D02*
X23433D01*
X22863Y18327D02*
Y19468D01*
X217Y18898D02*
X1358D01*
X787Y18327D02*
Y19468D01*
X22292Y787D02*
X23433D01*
X22863Y217D02*
Y1358D01*
X217Y787D02*
X1358D01*
X787Y217D02*
Y1358D01*
X8600Y7055D02*
X8718D01*
X8659Y6996D02*
Y7114D01*
X3491Y4422D02*
X3609D01*
X3550Y4362D02*
Y4481D01*
X5171Y6230D02*
X5329D01*
X5250Y6152D02*
Y6309D01*
X5096Y6795D02*
X5214D01*
X5155Y6736D02*
Y6854D01*
X3600Y5813D02*
X3718D01*
X3659Y5754D02*
Y5872D01*
X2089Y5899D02*
X2207D01*
X2148Y5840D02*
Y5959D01*
X3206Y5467D02*
X3325D01*
X3265Y5408D02*
Y5526D01*
X1519Y6491D02*
X1677D01*
X1598Y6412D02*
Y6570D01*
X11924Y3441D02*
X12042D01*
X11983Y3382D02*
Y3500D01*
X12635Y2164D02*
X12753D01*
X12694Y2105D02*
Y2223D01*
X11452Y5300D02*
X11570D01*
X11511Y5241D02*
Y5359D01*
X11649Y5475D02*
X11767D01*
X11708Y5416D02*
Y5534D01*
X12096Y5997D02*
X12214D01*
X12155Y5938D02*
Y6056D01*
X11883Y5684D02*
X12001D01*
X11942Y5624D02*
Y5743D01*
X12436Y5760D02*
X12554D01*
X12495Y5701D02*
Y5819D01*
X8627Y14651D02*
X8745D01*
X8686Y14592D02*
Y14710D01*
X17530Y8711D02*
X17648D01*
X17589Y8652D02*
Y8770D01*
X21991Y3020D02*
X22109D01*
X22050Y2961D02*
Y3079D01*
X13401Y11320D02*
X13519D01*
X13460Y11261D02*
Y11379D01*
X14115Y14494D02*
X14233D01*
X14174Y14435D02*
Y14554D01*
X13182Y13465D02*
X13300D01*
X13241Y13406D02*
Y13524D01*
X16560Y16545D02*
X16678D01*
X16619Y16486D02*
Y16604D01*
X7936Y8519D02*
X8054D01*
X7995Y8460D02*
Y8578D01*
X10182Y4870D02*
X10300D01*
X10241Y4811D02*
Y4929D01*
X13624Y8527D02*
X13742D01*
X13683Y8468D02*
Y8586D01*
X13821Y8913D02*
X13939D01*
X13880Y8854D02*
Y8972D01*
X14418Y6041D02*
X14536D01*
X14477Y5982D02*
Y6100D01*
X14891Y6041D02*
X15009D01*
X14950Y5982D02*
Y6100D01*
X15459Y6026D02*
X15577D01*
X15518Y5966D02*
Y6085D01*
X15233Y9165D02*
X15351D01*
X15292Y9106D02*
Y9224D01*
X3889Y7645D02*
X4007D01*
X3948Y7586D02*
Y7704D01*
X8171Y12307D02*
X8289D01*
X8230Y12248D02*
Y12366D01*
X18039Y17680D02*
X18157D01*
X18098Y17621D02*
Y17739D01*
X9041Y7400D02*
X9159D01*
X9100Y7341D02*
Y7459D01*
X10900Y5813D02*
X11019D01*
X10959Y5754D02*
Y5872D01*
X7237Y12300D02*
X7355D01*
X7296Y12241D02*
Y12359D01*
X10705Y14945D02*
X10823D01*
X10764Y14886D02*
Y15004D01*
X10308Y14356D02*
X10426D01*
X10367Y14297D02*
Y14415D01*
X10124Y16824D02*
X10242D01*
X10183Y16765D02*
Y16883D01*
X16792Y920D02*
X16910D01*
X16851Y860D02*
Y979D01*
X13705Y8137D02*
X13823D01*
X13764Y8078D02*
Y8196D01*
X7249Y7256D02*
X7367D01*
X7308Y7197D02*
Y7315D01*
X4521Y4422D02*
X4639D01*
X4580Y4362D02*
Y4481D01*
X13624Y7410D02*
X13742D01*
X13683Y7351D02*
Y7469D01*
X16030Y10446D02*
X16149D01*
X16090Y10387D02*
Y10505D01*
X15789Y11266D02*
X15907D01*
X15848Y11206D02*
Y11325D01*
X15488Y10683D02*
X15606D01*
X15547Y10624D02*
Y10742D01*
X7273Y7600D02*
X7391D01*
X7332Y7541D02*
Y7659D01*
X4430Y7490D02*
X4548D01*
X4489Y7431D02*
Y7550D01*
X9841Y9050D02*
X9959D01*
X9900Y8991D02*
Y9109D01*
X15199Y11200D02*
X15317D01*
X15258Y11141D02*
Y11259D01*
X12672Y7732D02*
X12790D01*
X12731Y7672D02*
Y7791D01*
X11264Y15192D02*
X11382D01*
X11323Y15133D02*
Y15251D01*
X17502Y14217D02*
X17620D01*
X17561Y14158D02*
Y14276D01*
X18891Y13741D02*
X19009D01*
X18950Y13682D02*
Y13800D01*
X17686Y10446D02*
X17804D01*
X17745Y10387D02*
Y10505D01*
X18104Y12150D02*
X18222D01*
X18163Y12091D02*
Y12209D01*
X9019Y3721D02*
X9137D01*
X9078Y3662D02*
Y3780D01*
X4231Y17150D02*
X4349D01*
X4290Y17091D02*
Y17209D01*
X2841Y8716D02*
X2959D01*
X2900Y8657D02*
Y8775D01*
X23041Y17750D02*
X23159D01*
X23100Y17691D02*
Y17809D01*
X15477Y5600D02*
X15595D01*
X15536Y5541D02*
Y5659D01*
X20741Y950D02*
X20859D01*
X20800Y891D02*
Y1009D01*
X19480Y950D02*
X19598D01*
X19539Y891D02*
Y1009D01*
X1693Y238D02*
X1811D01*
X1752Y179D02*
Y297D01*
X19674Y5893D02*
X19792D01*
X19733Y5834D02*
Y5952D01*
X18133Y7200D02*
X18251D01*
X18192Y7141D02*
Y7259D01*
X18133Y7782D02*
X18251D01*
X18192Y7722D02*
Y7841D01*
X18133Y8363D02*
X18251D01*
X18192Y8304D02*
Y8422D01*
X19291Y11000D02*
X19409D01*
X19350Y10941D02*
Y11059D01*
X21928Y14153D02*
X22046D01*
X21987Y14094D02*
Y14212D01*
X22228Y10279D02*
X22346D01*
X22287Y10220D02*
Y10338D01*
X21991Y4250D02*
X22109D01*
X22050Y4191D02*
Y4309D01*
X23114Y1937D02*
X23232D01*
X23173Y1878D02*
Y1996D01*
X21991Y1800D02*
X22109D01*
X22050Y1741D02*
Y1859D01*
X5391Y9850D02*
X5509D01*
X5450Y9791D02*
Y9909D01*
X6041Y13823D02*
X6159D01*
X6100Y13763D02*
Y13882D01*
X9291Y18738D02*
X9409D01*
X9350Y18679D02*
Y18797D01*
X6041Y18738D02*
X6159D01*
X6100Y18679D02*
Y18797D01*
X6041Y17350D02*
X6159D01*
X6100Y17291D02*
Y17409D01*
X7541Y17450D02*
X7659D01*
X7600Y17391D02*
Y17509D01*
X11099Y10846D02*
X11217D01*
X11158Y10787D02*
Y10905D01*
X3091Y15850D02*
X3209D01*
X3150Y15791D02*
Y15909D01*
X4292Y13450D02*
X4410D01*
X4351Y13391D02*
Y13509D01*
X19591Y15571D02*
X19709D01*
X19650Y15512D02*
Y15630D01*
X19541Y16200D02*
X19659D01*
X19600Y16141D02*
Y16259D01*
X19914Y17112D02*
X20032D01*
X19973Y17053D02*
Y17171D01*
X20835Y17075D02*
X20953D01*
X20894Y17016D02*
Y17134D01*
X23041Y16442D02*
X23159D01*
X23100Y16383D02*
Y16501D01*
X21928Y17081D02*
X22046D01*
X21987Y17022D02*
Y17140D01*
X21928Y16203D02*
X22046D01*
X21987Y16144D02*
Y16262D01*
X21928Y15250D02*
X22046D01*
X21987Y15191D02*
Y15309D01*
X21841Y12060D02*
X21959D01*
X21900Y12001D02*
Y12119D01*
X21307Y11000D02*
X21425D01*
X21366Y10941D02*
Y11059D01*
X22241Y9600D02*
X22359D01*
X22300Y9541D02*
Y9659D01*
X22233Y8569D02*
X22351D01*
X22292Y8510D02*
Y8628D01*
X21991Y6014D02*
X22109D01*
X22050Y5955D02*
Y6073D01*
X21991Y5374D02*
X22109D01*
X22050Y5315D02*
Y5433D01*
X23114Y2761D02*
X23232D01*
X23173Y2702D02*
Y2820D01*
X21991Y2400D02*
X22109D01*
X22050Y2341D02*
Y2459D01*
X19674Y2060D02*
X19792D01*
X19733Y2001D02*
Y2119D01*
X15224Y3314D02*
X15343D01*
X15284Y3255D02*
Y3373D01*
X12091Y2761D02*
X12209D01*
X12150Y2702D02*
Y2820D01*
X12869Y930D02*
X12987D01*
X12928Y870D02*
Y989D01*
X8841Y930D02*
X8959D01*
X8900Y870D02*
Y989D01*
X1693Y1089D02*
X1811D01*
X1752Y1030D02*
Y1148D01*
X2841Y1089D02*
X2959D01*
X2900Y1030D02*
Y1148D01*
X4835Y992D02*
X4953D01*
X4894Y933D02*
Y1051D01*
X541Y2222D02*
X659D01*
X600Y2163D02*
Y2281D01*
X1693Y1844D02*
X1811D01*
X1752Y1785D02*
Y1903D01*
X541Y3250D02*
X659D01*
X600Y3191D02*
Y3309D01*
X528Y4237D02*
X646D01*
X587Y4178D02*
Y4296D01*
X541Y5174D02*
X659D01*
X600Y5115D02*
Y5233D01*
X541Y6117D02*
X659D01*
X600Y6058D02*
Y6176D01*
X2182Y9700D02*
X2300D01*
X2241Y9641D02*
Y9759D01*
X509Y14880D02*
X628D01*
X569Y14821D02*
Y14939D01*
X509Y16391D02*
X628D01*
X569Y16332D02*
Y16450D01*
X509Y15584D02*
X628D01*
X569Y15525D02*
Y15643D01*
X509Y17150D02*
X628D01*
X569Y17091D02*
Y17209D01*
X1693Y18216D02*
X1811D01*
X1752Y18157D02*
Y18275D01*
X13853Y10881D02*
X13971D01*
X13912Y10822D02*
Y10940D01*
X10155Y9700D02*
X10273D01*
X10214Y9641D02*
Y9759D01*
X20291Y3766D02*
X20409D01*
X20350Y3707D02*
Y3825D01*
X15874Y9488D02*
X15992D01*
X15933Y9429D02*
Y9547D01*
X16803Y9700D02*
X16921D01*
X16862Y9641D02*
Y9759D01*
X7841Y14256D02*
X7959D01*
X7900Y14197D02*
Y14315D01*
X9402Y14345D02*
X9520D01*
X9461Y14286D02*
Y14404D01*
X6506Y14293D02*
X6624D01*
X6565Y14234D02*
Y14352D01*
X9144Y11550D02*
X9262D01*
X9203Y11491D02*
Y11609D01*
X9923Y3686D02*
X10041D01*
X9982Y3627D02*
Y3745D01*
X3391Y2222D02*
X3509D01*
X3450Y2163D02*
Y2281D01*
X4227Y2457D02*
X4345D01*
X4286Y2398D02*
Y2516D01*
X17541Y13241D02*
X17659D01*
X17600Y13182D02*
Y13300D01*
X17541Y11600D02*
X17659D01*
X17600Y11541D02*
Y11659D01*
X21379Y7418D02*
X21497D01*
X21438Y7359D02*
Y7477D01*
X20378Y8700D02*
X20496D01*
X20437Y8641D02*
Y8759D01*
X21391Y6728D02*
X21509D01*
X21450Y6669D02*
Y6787D01*
X8640Y3950D02*
X8758D01*
X8699Y3891D02*
Y4009D01*
X5191Y9356D02*
X5309D01*
X5250Y9297D02*
Y9415D01*
X19674Y18738D02*
X19792D01*
X19733Y18679D02*
Y18797D01*
X17541Y16043D02*
X17659D01*
X17600Y15984D02*
Y16102D01*
X9841Y17585D02*
X9959D01*
X9900Y17526D02*
Y17644D01*
X9407Y17300D02*
X9525D01*
X9466Y17241D02*
Y17359D01*
X8891Y17150D02*
X9009D01*
X8950Y17091D02*
Y17209D01*
X7891Y16950D02*
X8009D01*
X7950Y16891D02*
Y17009D01*
X8391Y16823D02*
X8509D01*
X8450Y16764D02*
Y16882D01*
X9941Y14200D02*
X10059D01*
X10000Y14141D02*
Y14259D01*
X4993Y10057D02*
X5111D01*
X5052Y9998D02*
Y10116D01*
X9522Y7950D02*
X9641D01*
X9582Y7891D02*
Y8009D01*
X9091Y7950D02*
X9209D01*
X9150Y7891D02*
Y8009D01*
X17312Y15343D02*
X17431D01*
X17372Y15284D02*
Y15402D01*
X18891Y13204D02*
X19009D01*
X18950Y13145D02*
Y13263D01*
X15459Y9898D02*
X15577D01*
X15518Y9839D02*
Y9958D01*
X2641Y10500D02*
X2759D01*
X2700Y10441D02*
Y10559D01*
X1891Y11550D02*
X2009D01*
X1950Y11491D02*
Y11609D01*
X15459Y8913D02*
X15577D01*
X15518Y8854D02*
Y8972D01*
X15224Y8519D02*
X15343D01*
X15284Y8460D02*
Y8578D01*
X15007Y12036D02*
X15125D01*
X15066Y11977D02*
Y12095D01*
X15741Y12150D02*
X15859D01*
X15800Y12091D02*
Y12209D01*
X16907Y18666D02*
X17025D01*
X16966Y18607D02*
Y18725D01*
X9721Y13741D02*
X9839D01*
X9780Y13682D02*
Y13800D01*
X9522Y13400D02*
X9641D01*
X9582Y13341D02*
Y13459D01*
X10041Y840D02*
X10159D01*
X10100Y781D02*
Y899D01*
X20891Y18800D02*
X21009D01*
X20950Y18741D02*
Y18859D01*
X13258Y2000D02*
X13376D01*
X13317Y1941D02*
Y2059D01*
X14066Y1051D02*
X14184D01*
X14125Y992D02*
Y1110D01*
X15039Y787D02*
X15157D01*
X15098Y728D02*
Y846D01*
X14841Y300D02*
X14959D01*
X14900Y241D02*
Y359D01*
X15691Y950D02*
X15809D01*
X15750Y891D02*
Y1009D01*
X16030Y840D02*
X16149D01*
X16090Y781D02*
Y899D01*
M02*
