M48
;Layer_Color=9474304
;FILE_FORMAT=2:4
INCH,LZ
;TYPE=PLATED
T1F00S00C0.0118
T2F00S00C0.0157
T3F00S00C0.0354
T4F00S00C0.1142
%
T01
X02205Y0018
Y0024
Y00302
Y00425
Y005374
Y006014
X02145Y006728
X021438Y007418
X022292Y008569
X0223Y0096
X022287Y010279
X021366Y011
X023173Y002761
Y001937
X0208Y00095
X019539
X019733Y00206
X02035Y003766
X019733Y005893
X018192Y0072
Y007782
Y008363
X017589Y008711
X016862Y0097
X015933Y009488
X015518Y009898
X015547Y010683
X01609Y010446
X015848Y011266
X015258Y0112
X013912Y010881
X01346Y01132
X011158Y010846
X010214Y0097
X0099Y00905
X009582Y00795
X00915
X0091Y0074
X008659Y007055
X007308Y007256
X007332Y0076
X007995Y008519
X00545Y00985
X008699Y00395
X009078Y003721
X009982Y003686
X010241Y00487
X010959Y005813
X011511Y0053
X011708Y005475
X011942Y005684
X012155Y005997
X012495Y00576
X012731Y007732
X013683Y00741
X013764Y008137
X013683Y008527
X01388Y008913
X015518
X015292Y009165
X015284Y008519
X015518Y006026
X015536Y0056
X01495Y006041
X014477
X015284Y003314
X015098Y000787
X0149Y0003
X01575Y00095
X01609Y00084
X016851Y00092
X014125Y001051
X012928Y00093
X013317Y002
X012694Y002164
X01215Y002761
X011983Y003441
X0101Y00084
X0089Y00093
X017745Y010446
X01935Y011
X020437Y0087
X00525Y009356
X005052Y010057
X0027Y0105
X002241Y0097
X0029Y008716
X003948Y007645
X004489Y00749
X005155Y006795
X003659Y005813
X003265Y005467
X00355Y004422
X00458
X004286Y002457
X00345Y002222
X0029Y001089
X001752
Y001844
X0006Y002222
Y00325
X000587Y004237
X0006Y005174
X0006Y006117
X002148Y005899
X001752Y000238
X004894Y000992
X004351Y01345
X00315Y01585
X00429Y01715
X001752Y018216
X000569Y01715
Y016391
Y015584
Y01488
X00195Y01155
X007296Y0123
X00823Y012307
X009203Y01155
X009582Y0134
X00978Y013741
X01Y0142
X010367Y014356
X009461Y014345
X008686Y014651
X0079Y014256
X006565Y014293
X0061Y013823
Y01735
Y018738
X0076Y01745
X00795Y01695
X00845Y016823
X00895Y01715
X009466Y0173
X0099Y017585
X010183Y016824
X010764Y014945
X011323Y015192
X014174Y014494
X013241Y013465
X015066Y012036
X0158Y01215
X0176Y0116
X018163Y01215
X0176Y013241
X017561Y014217
X017372Y015343
X0176Y016043
X016619Y016545
X016966Y018666
X018098Y01768
X019973Y017112
X020894Y017075
X02095Y0188
X019733Y018738
X0196Y0162
X01965Y015571
X01895Y013741
Y013204
X00935Y018738
X021987Y017081
Y016203
Y01525
Y014153
X0219Y01206
X0231Y016442
Y01775
T02
X001598Y006491
X00525Y00623
T03
X02145Y000484
Y001484
X0231Y0036
Y0046
Y0056
Y0066
Y0076
Y0086
Y0106
X02045Y001484
X01945
X01845
X01745
X01645
X01545
X01445
X01345
X01245
X01145
X01045
X00945
X00845
X00745
X00645
X00545
Y000484
X00645
X00745
X00845
X00945
X01045
X01145
X01245
X01345
X01445
X01545
X01645
X01745
X01845
X01945
X02045
X00445
X00345
Y001484
X00245
Y000484
X00445Y001484
X001484Y00735
X000484
Y00835
X001484
Y00935
X000484
Y01035
X001484
Y01215
X000484
Y01315
X001484
X00245Y018216
Y019216
X00345
Y018216
X00445
Y019216
X00545
Y018216
X00645
Y019216
X00745
Y018216
X00845
Y019216
X00945
Y018216
X01045
Y019216
X01145
Y018216
X01245
Y019216
X01345
Y018216
X01445
Y019216
X01545
Y018216
X01645
Y019216
X01745
Y018216
X01845
Y019216
X01945
Y018216
X02045
Y019216
X02145
Y018216
X0231Y0136
Y0126
Y0116
T04
X022863Y000787
X000787
Y018898
X022863
M30
